<?xml version="1.0" encoding="utf-8"?>
<!-- Generator: Adobe Illustrator 19.2.1, SVG Export Plug-In . SVG Version: 6.00 Build 0)  -->
<svg version="1.1" id="layer" xmlns="http://www.w3.org/2000/svg" xmlns:xlink="http://www.w3.org/1999/xlink" x="0px" y="0px"
	 viewBox="0 0 652 652" style="enable-background:new 0 0 652 652;" xml:space="preserve">
<style type="text/css">
	.st0{fill:#CC0000;}
	.st1{fill:#FFFFFF;}
</style>
<g>
	<path d="M274.4,302.3l-6.7-13.9h-4.6v13.9h-11.2v-41.2h18.4c9.7,0,16.1,3.6,16.1,13.4c0.3,5.2-2.6,10-7.4,12l8.1,15.7h-12.6V302.3z
		 M270,270.3h-6.9v9h6.8c3.7,0,5.1-1.7,5.1-4.6C275.1,271.8,273.6,270.3,270,270.3z"/>
	<path d="M295.8,302.3v-41.2h31.5v9.6H307v5.4h12.3v9.5h-12.2v7.1h20.6v9.6L295.8,302.3z"/>
	<path d="M351.1,302.3h-13.4v-41.2h14.4c12.9,0,21.2,4.9,21.2,20.4S365.7,302.3,351.1,302.3z M352.2,270.8h-2.8v21.7h2.5
		c7.1,0,9.9-2.7,9.9-10.8C361.6,274,359.2,270.8,352.2,270.8z"/>
	<path d="M428.6,302.3V286h-12.8v16.3h-11.5v-41.2h11.6v15h12.8v-15h11.6v41.2L428.6,302.3z"/>
	<path d="M478,302.3l-2.3-7.4h-12.2l-2.3,7.4h-12.2l15-41.2h11.5l15,41.2L478,302.3z M472.3,283.2c-1.5-5.3-2-7.5-2.7-10.2
		c-0.5,2.8-1.2,5-2.7,10.2l-0.8,2.7h6.8L472.3,283.2z"/>
	<path d="M514.7,271v31.2h-11.4V271h-11.5v-10h34.5v10L514.7,271z"/>
	<path d="M537.5,271.4c-2.8,0-5.2-2.2-5.2-5.1c0,0,0,0,0,0c0-0.1,0-0.2,0-0.2c0.1-3,2.4-5.3,5.3-5.2c2.9,0.1,5.3,2.5,5.2,5.4
		c-0.1,2.8-2.3,5.1-5.1,5.2C537.7,271.4,537.6,271.4,537.5,271.4z M537.5,261.6c-2.5,0-4.5,2.1-4.4,4.5c0,2.5,2.1,4.5,4.5,4.4
		c2.4,0,4.4-2,4.4-4.4c0.1-2.4-1.8-4.4-4.2-4.4h0C537.7,261.7,537.6,261.6,537.5,261.6L537.5,261.6z M538.8,266.5l1.2,2.5h-1.2
		l-1.1-2.3h-1.1v2.3h-1v-5.8h2.5c0.9-0.1,1.7,0.6,1.9,1.5v0.3C540,265.6,539.5,266.3,538.8,266.5z M538.1,264h-1.5v1.7h1.5
		c0.5,0,0.9-0.2,0.9-0.8c0-0.4-0.3-0.8-0.8-0.8c0,0,0,0,0,0l0,0C538.2,264.1,538.2,264,538.1,264L538.1,264L538.1,264z"/>
	<path d="M293.3,377.9l-5.4-16.2h-26.2l-5.5,16.2h-7.3l22.1-63.3h7.8l22.1,63.5L293.3,377.9z M278.8,334.5
		c-1.5-4.1-3.3-9.9-3.9-12.6c-0.6,2.6-2.6,8.3-3.9,12.6l-7,20.7h21.8L278.8,334.5z"/>
	<path d="M353,377.9l-27.7-43.4c-1.4-2.2-3.7-6.3-4.5-8v51.4h-6.9v-63.3h6.9l27.5,44.2c1.4,2.2,3.7,6.3,4.5,8v-52.2h6.8V378
		L353,377.9z"/>
	<path d="M394.1,379c-8,0-15.6-3.2-21.3-8.9l4.7-5c4.4,4.6,10.4,7.4,16.8,7.6c8.5,0,13.7-4.1,13.7-10.8c0-5.9-3.5-9.3-15.1-13.4
		c-13.8-4.9-18.3-9.4-18.3-18.5c0-10,8-16.3,19.8-16.3c7.1-0.2,14,2.2,19.3,6.8l-4.5,5.5c-4.1-3.8-9.5-5.9-15.1-5.9
		c-8.7,0-12.3,4.3-12.3,9.4c0,5,2.4,8.3,15.1,12.8c14.1,5,18.4,9.8,18.4,19.2C415.2,371.2,407.4,379,394.1,379z"/>
	<path d="M430.3,377.9v-63.3h7.1V378L430.3,377.9z"/>
	<path d="M477.3,377.9h-22.6v-63.3h23.2c10,0,17.2,5,17.2,15.9c0.3,5.9-3.5,11.3-9.2,13c7.5,1.5,12.7,8.3,12.1,15.9
		C497.9,371.7,490.6,377.9,477.3,377.9z M477.4,321h-15.9v19.8h15.3c7.9,0,10.9-4.5,10.9-10S484.5,321,477.4,321L477.4,321z
		 M477.4,347.1h-15.8v24.4h16.2c9.6,0,13.1-4.7,13.1-11.9C490.8,351.6,485.6,347.1,477.4,347.1L477.4,347.1z"/>
	<path d="M511.3,377.9v-63.3h7.1v57h31.3v6.4H511.3z"/>
	<path d="M563.4,377.9v-63.3h38.3v6.4h-31.1v19.9h18.1v6.5h-18.2v24.1h32.7v6.4H563.4z"/>
	<path d="M614.5,325.3c-3,0-5.4-2.4-5.4-5.4c0-3,2.4-5.4,5.4-5.4c3,0,5.4,2.4,5.4,5.3c0.1,2.9-2.2,5.4-5.1,5.5c0,0,0,0,0,0H614.5
		L614.5,325.3z M614.5,315.2c-2.5,0-4.5,2-4.5,4.5c0,0,0,0,0,0v0c0,2.5,2,4.5,4.5,4.5c2.5,0,4.5-2,4.5-4.5c0,0,0,0,0,0v-0.1
		C619.1,317.2,617,315.3,614.5,315.2L614.5,315.2z M615.8,320.3l1.3,2.6H616l-1.2-2.3h-1.2v2.3h-1v-6h2.6c0.9-0.1,1.8,0.6,2,1.5v0.3
		c0.1,0.8-0.4,1.5-1.1,1.8L615.8,320.3z M615.1,317.7h-1.6v1.7h1.6c0.6,0,1-0.3,1-0.9c0-0.4-0.4-0.8-0.8-0.9
		C615.2,317.7,615.1,317.7,615.1,317.7L615.1,317.7z"/>
	<circle class="st0" cx="114.6" cy="321.6" r="94.7"/>
	<path class="st1" d="M159.8,359.1l-37.8-90.8c-0.9-2.4-3.2-4.1-5.8-4c-2.7-0.1-5.1,1.6-6,4l-41.3,99.5h14.2l16.3-41l48.9,39.5
		c1.4,1.4,3.3,2.2,5.2,2.3c3.7,0.1,6.8-2.8,6.9-6.6v-0.2C160.3,360.9,160.1,360,159.8,359.1z M116.3,284.7l24.5,60.5l-37-29.2
		L116.3,284.7z"/>
</g>
</svg>
