<?xml version="1.0" encoding="utf-8"?>
<svg width="306px" height="100px" viewbox="0 0 306 100" version="1.1" xmlns:xlink="http://www.w3.org/1999/xlink" xmlns="http://www.w3.org/2000/svg">
  <defs>
    <path d="M0 0L305.797 0L305.797 100L0 100L0 0Z" id="path_1" />
    <path d="M0 0L318.841 0L318.841 318.841L0 318.841L0 0L0 0Z" id="path_2" />
    <clipPath id="mask_1">
      <use xlink:href="#path_1" />
    </clipPath>
    <clipPath id="mask_2">
      <use xlink:href="#path_2" />
    </clipPath>
  </defs>
  <g id="ansible">
    <g id="Mask-group">
      <path d="M0 0L305.797 0L305.797 100L0 100L0 0Z" id="slice_1" fill="none" fill-rule="evenodd" stroke="none" />
      <g clip-path="url(#mask_1)">
        <g id="Slice" transform="translate(-4.3478265 -107.72946)">
          <path d="M0 0L305.797 0L305.797 100L0 100L0 0Z" transform="translate(4.3478265 107.72945)" id="slice_1" fill="none" fill-rule="evenodd" stroke="none" />
          <g id="red-hat-ansible-vector-logo">
            <path d="M0 0L318.841 0L318.841 318.841L0 318.841L0 0L0 0Z" id="Background" fill="none" fill-rule="evenodd" stroke="none" />
            <g id="Mask-group">
              <path d="M0 0L318.841 0L318.841 318.841L0 318.841L0 0L0 0Z" id="path_1" fill="none" fill-rule="evenodd" stroke="none" />
              <g clip-path="url(#mask_2)">
                <g id="Group" transform="translate(9.731482 110.95847)">
                  <g id="Group">
                    <path d="M11.003 20.1476L7.72653 13.3502L5.477 13.3502L5.477 20.1476L0 20.1476L0 0L8.99797 0C13.7415 0 16.8712 1.76047 16.8712 6.55285C17.0179 9.09575 15.5997 11.443 13.2524 12.4211L17.2135 20.0987L11.0518 20.0987L11.0518 20.1476L11.003 20.1476L11.003 20.1476ZM8.85125 4.49898L5.47706 4.49898L5.47706 8.90014L8.80237 8.90014C10.6117 8.90014 11.2964 8.06884 11.2964 6.65068C11.3453 5.23251 10.6117 4.49898 8.85125 4.49898L8.85125 4.49898L8.85125 4.49898Z" transform="translate(113.45247 16.72444)" id="Shape" fill="#000000" fill-rule="evenodd" stroke="none" />
                    <path d="M0 20.1476L0 0L15.4041 0L15.4041 4.69459L5.47701 4.69459L5.47701 7.33527L11.4919 7.33527L11.4919 11.981L5.5259 11.981L5.5259 15.453L15.5997 15.453L15.5997 20.1476L0 20.1476L0 20.1476L0 20.1476Z" transform="translate(134.92043 16.72444)" id="Shape#1" fill="#000000" fill-rule="evenodd" stroke="none" />
                    <path d="M6.55285 20.1476L0 20.1476L0 0L7.04188 0C13.3502 0 17.4091 2.39619 17.4091 9.97599C17.4091 17.5558 13.6925 20.1476 6.55285 20.1476L6.55285 20.1476L6.55285 20.1476ZM7.09077 4.74349L5.72155 4.74349L5.72155 15.3552L6.94406 15.3552C10.4161 15.3552 11.7854 14.0349 11.7854 10.0738C11.6875 6.30836 10.5139 4.74349 7.09077 4.74349L7.09077 4.74349L7.09077 4.74349Z" transform="translate(155.41035 16.72444)" id="Shape#2" fill="#000000" fill-rule="evenodd" stroke="none" />
                    <path d="M11.8831 20.1476L11.8831 12.1766L5.62373 12.1766L5.62373 20.1476L0 20.1476L0 0L5.67261 0L5.67261 7.33527L11.9321 7.33527L11.9321 0L17.6047 0L17.6047 20.1476L11.8831 20.1476L11.8831 20.1476L11.8831 20.1476Z" transform="translate(187.97906 16.72444)" id="Shape#3" fill="#000000" fill-rule="evenodd" stroke="none" />
                    <path d="M14.1816 20.1476L13.0568 16.5288L7.09077 16.5288L5.96604 20.1476L0 20.1476L7.33532 0L12.959 0L20.2943 20.1476L14.1816 20.1476L14.1816 20.1476L14.1816 20.1476ZM11.3942 10.8073C10.6606 8.21555 10.4161 7.13971 10.0738 5.81932C9.82927 7.1886 9.48696 8.26444 8.75343 10.8073L8.36223 12.1277L11.6875 12.1277L11.3942 10.8073L11.3942 10.8073L11.3942 10.8073Z" transform="translate(209.83823 16.72444)" id="Shape#4" fill="#000000" fill-rule="evenodd" stroke="none" />
                    <path d="M11.1985 4.89019L11.1985 20.1476L5.62372 20.1476L5.62372 4.89019L0 4.89019L0 0L16.8712 0L16.8712 4.89019L11.1985 4.89019L11.1985 4.89019L11.1985 4.89019Z" transform="translate(230.76823 16.67555)" id="Shape#5" fill="#000000" fill-rule="evenodd" stroke="none" />
                    <path d="M2.5429 5.13623C1.17364 5.13623 0 4.0604 0 2.64225C0 2.64225 0 2.64225 0 2.64225C0 2.59335 0 2.54444 0 2.54444C0.0488871 1.07738 1.17364 -0.0473539 2.59178 0.00153509C4.00995 0.0504406 5.18357 1.22408 5.13468 2.64223C5.08579 4.01149 4.00995 5.13623 2.6407 5.18512C2.6407 5.13623 2.59178 5.13623 2.5429 5.13623L2.5429 5.13623L2.5429 5.13623ZM2.5429 0.34387C1.32036 0.34387 0.342328 1.37081 0.391215 2.54446C0.391215 3.767 1.41814 4.74504 2.59178 4.69614C3.76546 4.69614 4.74349 3.7181 4.74349 2.54446C4.79238 1.37081 3.86326 0.392774 2.68959 0.392774L2.68959 0.392774C2.6407 0.392774 2.59178 0.34387 2.5429 0.34387L2.5429 0.34387L2.5429 0.34387L2.5429 0.34387ZM3.17861 2.74006L3.76546 3.96261L3.17861 3.96261L2.6407 2.83787L2.10279 2.83787L2.10279 3.96261L1.61378 3.96261L1.61378 1.1263L2.83634 1.1263C3.27647 1.0774 3.66765 1.41972 3.76549 1.85983L3.76549 2.00653C3.76546 2.29995 3.52093 2.64225 3.17861 2.74006L3.17861 2.74006L3.17861 2.74006ZM2.83631 1.51751L2.10276 1.51751L2.10276 2.34885L2.83631 2.34885C3.0808 2.34885 3.27644 2.25104 3.27644 1.95764C3.27644 1.76204 3.12972 1.56643 2.88522 1.56643C2.88522 1.56643 2.88522 1.56643 2.88522 1.56643L2.88522 1.56643C2.88522 1.56642 2.88522 1.51751 2.83631 1.51751L2.83631 1.51751L2.83631 1.51751L2.83631 1.51751L2.83631 1.51751Z" transform="translate(250.5735 16.625095)" id="Shape#6" fill="#000000" fill-rule="evenodd" stroke="none" />
                    <path d="M21.7125 30.9549L19.0717 23.0328L6.25947 23.0328L3.56984 30.9549L0 30.9549L10.8073 0L14.6216 0L25.429 31.0527L21.7125 30.9549L21.7125 30.9549L21.7125 30.9549ZM14.6217 9.73149C13.8882 7.72652 13.0079 4.89019 12.7145 3.56983C12.4211 4.8413 11.443 7.62869 10.8073 9.73149L7.3842 19.8542L18.0448 19.8542L14.6217 9.73149L14.6217 9.73149L14.6217 9.73149Z" transform="translate(111.98542 42.886982)" id="Shape#7" fill="#000000" fill-rule="evenodd" stroke="none" />
                    <path d="M19.1207 30.9549L5.57483 9.73149C4.8902 8.65565 3.76544 6.65067 3.37423 5.81932L3.37423 30.9549L0 30.9549L0 0L3.37423 0L16.8223 21.6146C17.5069 22.6905 18.6316 24.6955 19.0228 25.5268L19.0228 0L22.3482 0L22.3482 31.0038L19.1207 30.9549L19.1207 30.9549L19.1207 30.9549Z" transform="translate(143.77168 42.886982)" id="Shape#8" fill="#000000" fill-rule="evenodd" stroke="none" />
                    <path d="M10.4161 31.9386C6.50396 31.9386 2.7874 30.3737 0 27.5863L2.2984 25.1412C4.45008 27.3907 7.38421 28.7599 10.5139 28.8578C14.6706 28.8578 17.2135 26.8528 17.2135 23.5764C17.2135 20.6912 15.5019 19.0285 9.82927 17.0235C3.08083 14.6273 0.880248 12.4268 0.880248 7.97666C0.880248 3.08647 4.79239 0.00565386 10.5628 0.00565386C14.0349 -0.0921572 17.4091 1.0815 20.0009 3.33097L17.8003 6.02058C15.7953 4.16231 13.1546 3.13537 10.4161 3.13537C6.16165 3.13537 4.40118 5.23816 4.40118 7.73217C4.40118 10.1772 5.57482 11.791 11.7854 13.9916C18.6805 16.4367 20.7833 18.784 20.7833 23.3808C20.7344 28.1242 16.92 31.9386 10.4161 31.9386L10.4161 31.9386L10.4161 31.9386Z" transform="translate(172.57494 42.44123)" id="Shape#9" fill="#000000" fill-rule="evenodd" stroke="none" />
                    <path d="M0 30.9549L0 0L3.47205 0L3.47205 31.0038L0 30.9549L0 30.9549L0 30.9549Z" transform="translate(200.69354 42.886982)" id="Shape#10" fill="#000000" fill-rule="evenodd" stroke="none" />
                    <path d="M11.0518 30.9549L0 30.9549L0 0L11.3453 0C16.2355 0 19.7564 2.4451 19.7564 7.77541C19.9031 10.6606 18.0448 13.3013 15.2574 14.1327C18.9251 14.8662 21.468 18.1915 21.1745 21.9081C21.1257 27.923 17.5558 30.9549 11.0518 30.9549L11.0518 30.9549L11.0518 30.9549ZM11.1007 3.12972L3.32534 3.12972L3.32534 12.8123L10.8073 12.8123C14.6706 12.8123 16.1376 10.6117 16.1376 7.92213C16.1376 5.23251 14.5728 3.12972 11.1007 3.12972L11.1007 3.12972L11.1007 3.12972L11.1007 3.12972ZM11.1007 15.8931L3.37424 15.8931L3.37424 27.8252L11.2964 27.8252C15.991 27.8252 17.7025 25.5268 17.7025 22.0058C17.6536 18.0937 15.1107 15.8931 11.1007 15.8931L11.1007 15.8931L11.1007 15.8931L11.1007 15.8931Z" transform="translate(212.62561 42.886982)" id="Shape#11" fill="#000000" fill-rule="evenodd" stroke="none" />
                    <path d="M0 30.9549L0 0L3.47203 0L3.47203 27.8741L18.7783 27.8741L18.7783 31.0038L0 31.0038L0 30.9549L0 30.9549Z" transform="translate(240.30411 42.886982)" id="Shape#12" fill="#000000" fill-rule="evenodd" stroke="none" />
                    <path d="M0 30.9549L0 0L18.7294 0L18.7294 3.12972L3.52094 3.12972L3.52094 12.8612L12.3722 12.8612L12.3722 16.0398L3.47202 16.0398L3.47202 27.8252L19.463 27.8252L19.463 30.9549L0 30.9549L0 30.9549L0 30.9549Z" transform="translate(265.78198 42.886982)" id="Shape#13" fill="#000000" fill-rule="evenodd" stroke="none" />
                    <path d="M2.64073 5.2814C1.17367 5.2814 0 4.10776 0 2.6407C0 1.17364 1.17367 0 2.64073 0C4.10778 0 5.28146 1.17364 5.28146 2.5918C5.33034 4.00995 4.20559 5.23251 2.78745 5.2814C2.78745 5.2814 2.78745 5.2814 2.78745 5.2814L2.64073 5.2814L2.64073 5.2814L2.64073 5.2814L2.64073 5.2814ZM2.64073 0.34232C1.41817 0.34232 0.440131 1.32036 0.440131 2.54291C0.440131 2.54291 0.440131 2.54291 0.440131 2.54291L0.440131 2.54291C0.440131 3.76545 1.41817 4.74349 2.64073 4.74349C3.86326 4.74349 4.8413 3.76545 4.8413 2.54291C4.8413 2.54291 4.8413 2.54291 4.8413 2.54291L4.8413 2.494C4.89018 1.32036 3.86326 0.391211 2.64073 0.34232L2.64073 0.34232L2.64073 0.34232L2.64073 0.34232ZM3.27644 2.8363L3.91215 4.10776L3.37424 4.10776L2.78742 2.98302L2.2006 2.98302L2.2006 4.10776L1.71158 4.10776L1.71158 1.17364L2.983 1.17364C3.42313 1.12474 3.86323 1.46706 3.96103 1.90717L3.96103 2.05387C4.00995 2.44508 3.76543 2.7874 3.42313 2.9341L3.27644 2.8363L3.27644 2.8363L3.27644 2.8363ZM2.93411 1.56487L2.15171 1.56487L2.15171 2.39621L2.93411 2.39621C3.22752 2.39621 3.42313 2.24951 3.42313 1.95609C3.42313 1.76049 3.22752 1.56488 3.03191 1.51597C2.98303 1.56487 2.93411 1.56487 2.93411 1.56487L2.93411 1.56487L2.93411 1.56487L2.93411 1.56487Z" transform="translate(288.1302 42.838074)" id="Shape#14" fill="#000000" fill-rule="evenodd" stroke="none" />
                    <path d="M0 46.3101C0 20.7338 20.7338 0 46.3101 0C71.8865 0 92.6203 20.7338 92.6203 46.3101C92.6203 71.8865 71.8865 92.6203 46.3101 92.6203C20.7338 92.6203 0 71.8865 0 46.3101L0 46.3101Z" id="Circle" fill="#CC0000" fill-rule="evenodd" stroke="none" />
                    <path d="M44.4518 46.3611L25.9669 1.95813C25.5268 0.784484 24.4021 -0.0468544 23.1306 0.00204925C21.8102 -0.0468544 20.6366 0.784484 20.1965 1.95813L0 50.6155L6.94406 50.6155L14.9151 30.5657L38.8281 49.8821C39.5128 50.5667 40.4419 50.958 41.371 51.0068C43.1804 51.0555 44.6964 49.6377 44.7453 47.7792L44.7453 47.6814C44.6964 47.2413 44.5986 46.8012 44.4518 46.3611L44.4518 46.3611L44.4518 46.3611ZM23.1795 9.97807L35.1605 39.5637L17.0668 25.2844L23.1795 9.97807L23.1795 9.97807L23.1795 9.97807Z" transform="translate(23.961948 18.287256)" id="Shape#15" fill="#FFFFFF" fill-rule="evenodd" stroke="none" />
                  </g>
                </g>
              </g>
            </g>
          </g>
        </g>
      </g>
    </g>
  </g>
</svg>