<?xml version="1.0" encoding="utf-8"?>
<svg width="633px" height="207px" viewbox="0 0 633 207" version="1.1" xmlns:xlink="http://www.w3.org/1999/xlink" xmlns="http://www.w3.org/2000/svg">
  <defs>
    <path d="M0 0L660 0L660 660L0 660L0 0Z" id="path_1" />
    <rect width="633" height="207" id="slice_1" />
    <clipPath id="clip_1">
      <use xlink:href="#slice_1" clip-rule="evenodd" />
    </clipPath>
    <clipPath id="mask_1">
      <use xlink:href="#path_1" />
    </clipPath>
  </defs>
  <g id="Slice" clip-path="url(#clip_1)">
    <use xlink:href="#slice_1" stroke="none" fill="none" />
    <g id="red-hat-ansible-vector-logo" transform="translate(-9 -223)">
      <path d="M0 0L660 0L660 660L0 660L0 0Z" id="Background" fill="none" fill-rule="evenodd" stroke="none" />
      <g clip-path="url(#mask_1)">
        <g id="Group" transform="translate(20.144165 229.68407)">
          <path d="M22.7761 41.7055L15.9939 27.635L11.3374 27.635L11.3374 41.7055L0 41.7055L0 0L18.6258 0C28.4448 0 34.9233 3.64418 34.9233 13.5644C35.227 18.8282 32.2914 23.6871 27.4325 25.7117L35.6319 41.6043L22.8773 41.6043L22.8773 41.7055L22.7761 41.7055ZM18.3221 9.31289L11.3375 9.31289L11.3375 18.4233L18.2209 18.4233C21.9663 18.4233 23.3835 16.7025 23.3835 13.7669C23.4847 10.8313 21.9663 9.31289 18.3221 9.31289L18.3221 9.31289Z" transform="translate(234.8466 34.619595)" id="Shape" fill="#000000" fill-rule="evenodd" stroke="none" />
          <path d="M0 41.7055L0 0L31.8865 0L31.8865 9.7178L11.3374 9.7178L11.3374 15.184L23.7883 15.184L23.7883 24.8006L11.4386 24.8006L11.4386 31.9877L32.2914 31.9877L32.2914 41.7055L0 41.7055L0 41.7055Z" transform="translate(279.28528 34.619595)" id="Shape" fill="#000000" fill-rule="evenodd" stroke="none" />
          <path d="M13.5644 41.7055L0 41.7055L0 0L14.5767 0C27.6349 0 36.0368 4.96012 36.0368 20.6503C36.0368 36.3405 28.3435 41.7055 13.5644 41.7055L13.5644 41.7055ZM14.6779 9.81903L11.8436 9.81903L11.8436 31.7853L14.3742 31.7853C21.5614 31.7853 24.3957 29.0522 24.3957 20.8528C24.1932 13.0583 21.7638 9.81903 14.6779 9.81903L14.6779 9.81903Z" transform="translate(321.6994 34.619595)" id="Shape" fill="#000000" fill-rule="evenodd" stroke="none" />
          <path d="M24.5981 41.7055L24.5981 25.2055L11.6411 25.2055L11.6411 41.7055L0 41.7055L0 0L11.7423 0L11.7423 15.184L24.6994 15.184L24.6994 0L36.4417 0L36.4417 41.7055L24.5981 41.7055L24.5981 41.7055Z" transform="translate(389.1166 34.619595)" id="Shape" fill="#000000" fill-rule="evenodd" stroke="none" />
          <path d="M29.3558 41.7055L27.0276 34.2147L14.6779 34.2147L12.3497 41.7055L0 41.7055L15.1841 0L26.8252 0L42.0092 41.7055L29.3558 41.7055L29.3558 41.7055ZM23.5859 22.3712C22.0675 17.0062 21.5613 14.7792 20.8527 12.046C20.3466 14.8804 19.638 17.1074 18.1196 22.3712L17.3098 25.1043L24.1932 25.1043L23.5859 22.3712L23.5859 22.3712Z" transform="translate(434.36505 34.619595)" id="Shape" fill="#000000" fill-rule="evenodd" stroke="none" />
          <path d="M23.181 10.1227L23.181 41.7055L11.6411 41.7055L11.6411 10.1227L0 10.1227L0 0L34.9234 0L34.9234 10.1227L23.181 10.1227L23.181 10.1227Z" transform="translate(477.69022 34.518394)" id="Shape" fill="#000000" fill-rule="evenodd" stroke="none" />
          <path d="M5.2638 10.632C2.42947 10.632 0 8.40504 0 5.46946C0 5.46946 0 5.46946 0 5.46946C0 5.36823 0 5.267 0 5.267C0.101202 2.23019 2.42947 -0.0980204 5.36501 0.00318188C8.30061 0.104415 10.73 2.53386 10.6288 5.46943C10.5276 8.30378 8.30061 10.632 5.46627 10.7332C5.46627 10.632 5.36501 10.632 5.2638 10.632L5.2638 10.632ZM5.2638 0.711814C2.73313 0.711814 0.7086 2.83759 0.809802 5.26703C0.809802 7.7977 2.93554 9.82224 5.365 9.72101C7.79447 9.72101 9.81901 7.69647 9.81901 5.26703C9.92021 2.83759 7.99694 0.813047 5.56747 0.813047L5.56747 0.813047C5.46627 0.813047 5.365 0.711814 5.2638 0.711814L5.2638 0.711814L5.2638 0.711814ZM6.57974 5.67193L7.79447 8.20261L6.57974 8.20261L5.46627 5.8744L4.3528 5.8744L4.3528 8.20261L3.34053 8.20261L3.34053 2.33145L5.8712 2.33145C6.78227 2.23022 7.59207 2.93882 7.79453 3.84986L7.79453 4.15353C7.79447 4.76089 7.28834 5.46946 6.57974 5.67193L6.57974 5.67193ZM5.87114 3.14126L4.35274 3.14126L4.35274 4.86213L5.87114 4.86213C6.37727 4.86213 6.7822 4.65966 6.7822 4.05232C6.7822 3.64742 6.47854 3.24252 5.9724 3.24252C5.9724 3.24252 5.9724 3.24252 5.9724 3.24252L5.9724 3.24252C5.9724 3.24249 5.9724 3.14126 5.87114 3.14126L5.87114 3.14126L5.87114 3.14126L5.87114 3.14126Z" transform="translate(518.6871 34.413948)" id="Shape" fill="#000000" fill-rule="evenodd" stroke="none" />
          <path d="M44.9448 64.0767L39.4785 47.6779L12.9571 47.6779L7.38957 64.0767L0 64.0767L22.3712 0L30.2668 0L52.638 64.2791L44.9448 64.0767L44.9448 64.0767ZM30.2669 20.1442C28.7485 15.9939 26.9264 10.1227 26.319 7.38956C25.7117 10.0215 23.6871 15.7914 22.3712 20.1442L15.2853 41.0982L37.3528 41.0982L30.2669 20.1442L30.2669 20.1442Z" transform="translate(231.8098 88.77606)" id="Shape" fill="#000000" fill-rule="evenodd" stroke="none" />
          <path d="M39.5798 64.0767L11.5399 20.1442C10.1227 17.9172 7.79446 13.7669 6.98466 12.046L6.98466 64.0767L0 64.0767L0 0L6.98466 0L34.8221 44.7423C36.2392 46.9693 38.5675 51.1196 39.3773 52.8405L39.3773 0L46.2607 0L46.2607 64.1779L39.5798 64.0767L39.5798 64.0767Z" transform="translate(297.60736 88.77606)" id="Shape" fill="#000000" fill-rule="evenodd" stroke="none" />
          <path d="M21.5613 66.1129C13.4632 66.1129 5.76992 62.8736 0 57.1037L4.75768 52.0423C9.21167 56.6988 15.2853 59.5331 21.7638 59.7356C30.3681 59.7356 35.6319 55.5853 35.6319 48.8031C35.6319 42.8307 32.089 39.389 20.3466 35.2387C6.37732 30.2786 1.8221 25.7234 1.8221 16.5117C1.8221 6.389 9.92027 0.0117081 21.865 0.0117081C29.0522 -0.190758 36.0368 2.23871 41.4018 6.89513L36.8466 12.4626C32.6963 8.616 27.2301 6.49023 21.5613 6.49023C12.7546 6.49023 9.11043 10.843 9.11043 16.0056C9.11043 21.0669 11.5399 24.4074 24.3957 28.9626C38.6687 34.024 43.0215 38.8828 43.0215 48.3982C42.9202 58.2172 35.0245 66.1129 21.5613 66.1129L21.5613 66.1129Z" transform="translate(357.2301 87.85335)" id="Shape" fill="#000000" fill-rule="evenodd" stroke="none" />
          <path d="M0 64.0767L0 0L7.18713 0L7.18713 64.1779L0 64.0767L0 64.0767Z" transform="translate(415.43558 88.77606)" id="Shape" fill="#000000" fill-rule="evenodd" stroke="none" />
          <path d="M22.8773 64.0767L0 64.0767L0 0L23.4847 0C33.6074 0 40.8957 5.06135 40.8957 16.0951C41.1994 22.0675 37.3528 27.5337 31.5828 29.2546C39.1749 30.773 44.4387 37.6564 43.8313 45.3497C43.7301 57.8006 36.3405 64.0767 22.8773 64.0767L22.8773 64.0767ZM22.9785 6.47852L6.88345 6.47852L6.88345 26.5214L22.3712 26.5214C30.3681 26.5214 33.4049 21.9662 33.4049 16.3988C33.4049 10.8313 30.1657 6.47852 22.9785 6.47852L22.9785 6.47852L22.9785 6.47852ZM22.9785 32.8988L6.98469 32.8988L6.98469 57.5981L23.3835 57.5981C33.1013 57.5981 36.6442 52.8405 36.6442 45.5521C36.5429 37.454 31.2792 32.8988 22.9785 32.8988L22.9785 32.8988L22.9785 32.8988Z" transform="translate(440.13498 88.77606)" id="Shape" fill="#000000" fill-rule="evenodd" stroke="none" />
          <path d="M0 64.0767L0 0L7.18709 0L7.18709 57.6994L38.8711 57.6994L38.8711 64.1779L0 64.1779L0 64.0767Z" transform="translate(497.42947 88.77606)" id="Shape" fill="#000000" fill-rule="evenodd" stroke="none" />
          <path d="M0 64.0767L0 0L38.7699 0L38.7699 6.47852L7.28836 6.47852L7.28836 26.6227L25.6104 26.6227L25.6104 33.2024L7.18709 33.2024L7.18709 57.5981L40.2883 57.5981L40.2883 64.0767L0 64.0767L0 64.0767Z" transform="translate(550.1687 88.77606)" id="Shape" fill="#000000" fill-rule="evenodd" stroke="none" />
          <path d="M5.46629 10.9325C2.42948 10.9325 0 8.50306 0 5.46625C0 2.42944 2.42948 0 5.46629 0C8.5031 0 10.9326 2.42944 10.9326 5.36502C11.0338 8.3006 8.70557 10.8313 5.77002 10.9325C5.77002 10.9325 5.77002 10.9325 5.77002 10.9325L5.46629 10.9325L5.46629 10.9325L5.46629 10.9325ZM5.46629 0.708601C2.93561 0.708601 0.911069 2.73314 0.911069 5.26382C0.911069 5.26382 0.911069 5.26382 0.911069 5.26382L0.911069 5.26382C0.911069 7.79449 2.93561 9.81903 5.46629 9.81903C7.99697 9.81903 10.0215 7.79449 10.0215 5.26382C10.0215 5.26382 10.0215 5.26382 10.0215 5.26382L10.0215 5.16258C10.1227 2.73314 7.99697 0.809804 5.46629 0.708601L5.46629 0.708601L5.46629 0.708601ZM6.78223 5.87115L8.09817 8.50306L6.9847 8.50306L5.76996 6.17485L4.55522 6.17485L4.55522 8.50306L3.54295 8.50306L3.54295 2.42944L6.17483 2.42944C7.0859 2.32821 7.99691 3.03681 8.19937 3.94785L8.19937 4.25152C8.30058 5.06132 7.79444 5.76992 7.0859 6.07359L6.78223 5.87115L6.78223 5.87115ZM6.07363 3.23928L4.45402 3.23928L4.45402 4.96015L6.07363 4.96015C6.68097 4.96015 7.0859 4.65648 7.0859 4.04911C7.0859 3.64421 6.68097 3.23931 6.27609 3.13807C6.17489 3.23928 6.07363 3.23928 6.07363 3.23928L6.07363 3.23928L6.07363 3.23928Z" transform="translate(596.42944 88.67483)" id="Shape" fill="#000000" fill-rule="evenodd" stroke="none" />
          <path d="M0 95.862C0 42.9189 42.9189 0 95.862 0C148.805 0 191.724 42.9189 191.724 95.862C191.724 148.805 148.805 191.724 95.862 191.724C42.9189 191.724 0 148.805 0 95.862Z" id="Circle" fill="#CC0000" fill-rule="evenodd" stroke="none" />
          <path d="M92.0153 95.9674L53.7515 4.05331C52.8405 1.62387 50.5123 -0.097001 47.8804 0.00423221C45.1472 -0.097001 42.7178 1.62387 41.8067 4.05331L0 104.774L14.3742 104.774L30.8742 63.2711L80.3742 103.256C81.7914 104.673 83.7147 105.483 85.638 105.584C89.3834 105.685 92.5215 102.75 92.6227 98.903L92.6227 98.7005C92.5215 97.7895 92.319 96.8785 92.0153 95.9674L92.0153 95.9674ZM47.9816 20.6546L72.7822 81.8969L35.3282 52.3386L47.9816 20.6546L47.9816 20.6546Z" transform="translate(49.601227 37.854637)" id="Shape" fill="#FFFFFF" fill-rule="evenodd" stroke="none" />
        </g>
      </g>
    </g>
  </g>
</svg>