<?xml version="1.0" encoding="utf-8"?>
<svg width="352px" height="100px" viewbox="0 0 352 100" version="1.1" xmlns:xlink="http://www.w3.org/1999/xlink" xmlns="http://www.w3.org/2000/svg">
  <defs>
    <path d="M0 0L351.656 0L351.656 100L0 100L0 0Z" id="path_1" />
    <path d="M0 0L132.45 0L132.45 132.45L0 132.45L0 0L0 0Z" id="path_2" />
    <clipPath id="mask_1">
      <use xlink:href="#path_1" />
    </clipPath>
    <clipPath id="mask_2">
      <use xlink:href="#path_2" />
    </clipPath>
  </defs>
  <g id="svg">
    <g id="Mask-group">
      <path d="M0 0L351.656 0L351.656 100L0 100L0 0Z" id="slice_1" fill="none" fill-rule="evenodd" stroke="none" />
      <g clip-path="url(#mask_1)">
        <g id="Slice" transform="translate(0 -19.536425)">
          <path d="M0 0L351.656 0L351.656 100L0 100L0 0Z" transform="translate(-0 19.536425)" id="slice_1" fill="none" fill-rule="evenodd" stroke="none" />
          <g id="Group" transform="translate(11.589404 0)">
            <g id="Amazon-Web-Services-icon">
              <path d="M0 0L132.45 0L132.45 132.45L0 132.45L0 0L0 0Z" id="Background" fill="none" fill-rule="evenodd" stroke="none" />
              <g id="Mask-group">
                <path d="M0 0L132.45 0L132.45 132.45L0 132.45L0 0L0 0Z" id="path_1" fill="none" fill-rule="evenodd" stroke="none" />
                <g clip-path="url(#mask_2)">
                  <g id="Group" transform="translate(-0.0019111381 30.353188)">
                    <path d="M31.8488 29.0535C31.8488 30.7009 32.0254 32.0337 32.3344 33.0132C32.6877 33.9927 33.1265 35.0606 33.7444 36.2169C33.9652 36.5728 34.0536 36.9288 34.0536 37.2407C34.0536 37.6848 33.7887 38.1291 33.2176 38.5762L30.4415 40.4444C30.0441 40.7119 29.6495 40.8444 29.2964 40.8444C28.8549 40.8444 28.4161 40.6209 27.9746 40.2209C27.3565 39.553 26.8295 38.8411 26.388 38.1291C25.9465 37.3732 25.5077 36.5288 25.0221 35.505C21.5867 39.597 17.2682 41.6447 12.0695 41.6447C8.36921 41.6447 5.41666 40.5768 3.25883 38.4411C1.10099 36.3053 0 33.4576 0 29.8979C0 26.1175 1.32174 23.0464 4.00937 20.734C6.69702 18.4216 10.2649 17.2627 14.8013 17.2627C16.2997 17.2627 17.8422 17.3951 19.4702 17.6186C21.0982 17.8422 22.7732 18.1981 24.5364 18.5982L24.5364 15.3504C24.5364 11.9702 23.8328 9.61093 22.4669 8.23122C21.0569 6.85156 18.6782 6.18377 15.287 6.18377C13.7445 6.18377 12.1606 6.36036 10.5298 6.76325C8.89901 7.16334 7.31513 7.65175 5.77262 8.2754C5.06897 8.58718 4.53917 8.76381 4.23013 8.85487C3.92109 8.94315 3.70033 8.98732 3.52649 8.98732C2.90839 8.98732 2.6021 8.54305 2.6021 7.60761L2.6021 5.42772C2.6021 4.71579 2.6904 4.18321 2.91115 3.87142C3.1319 3.5596 3.52924 3.2478 4.1446 2.93598C5.68709 2.13576 7.53586 1.46799 9.69646 0.932676C11.8543 0.353206 14.1446 0.0883039 16.5673 0.0883039C21.8102 0.0883039 25.643 1.28864 28.1098 3.69205C30.5326 6.09546 31.766 9.74338 31.766 14.6358L31.766 29.0508L31.8488 29.0508L31.8488 29.0535L31.8488 29.0535ZM13.9625 35.8139C15.4167 35.8139 16.915 35.5464 18.4989 35.0139C20.0855 34.4811 21.4956 33.5017 22.6849 32.1661C23.3885 31.3218 23.9183 30.3863 24.1832 29.3184C24.4481 28.2506 24.6247 26.9592 24.6247 25.447L24.6247 23.5789C23.3471 23.2671 21.9812 22.9994 20.5712 22.8228C19.1612 22.6463 17.7952 22.5552 16.4294 22.5552C13.4768 22.5552 11.319 23.1347 9.8648 24.335C8.4106 25.5353 7.70695 27.2268 7.70695 29.4509C7.70695 31.5425 8.23675 33.0988 9.33775 34.1666C10.3946 35.2815 11.9371 35.8139 13.9625 35.8139L13.9625 35.8139L13.9625 35.8139ZM49.3377 40.6209C48.5457 40.6209 48.0159 40.4884 47.6629 40.1765C47.3096 39.9089 47.0033 39.2881 46.7384 38.4411L36.3851 4.05076C36.1202 3.16226 35.9877 2.58278 35.9877 2.27098C35.9877 1.55905 36.3411 1.15895 37.0447 1.15895L41.3632 1.15895C42.1993 1.15895 42.7732 1.2914 43.0821 1.6032C43.4354 1.87087 43.6977 2.49172 43.9626 3.33884L51.3632 32.7925L58.2341 3.33887C58.4546 2.45034 58.7195 1.87087 59.0702 1.60321C59.4232 1.33555 60.0387 1.15895 60.8334 1.15895L64.357 1.15895C65.193 1.15895 65.7672 1.2914 66.1202 1.60321C66.4735 1.87087 66.7798 2.49173 66.9563 3.33887L73.9156 33.1483L81.5371 3.33887C81.802 2.45034 82.1109 1.87087 82.4172 1.60321C82.7705 1.33555 83.3417 1.15895 84.1364 1.15895L88.2341 1.15895C88.9378 1.15895 89.3351 1.51491 89.3351 2.27098C89.3351 2.49449 89.2907 2.71524 89.2467 2.9829C89.2027 3.25056 89.1142 3.60652 88.9378 4.09493L78.3222 38.4851C78.0573 39.3735 77.7484 39.953 77.398 40.2209C77.0474 40.4884 76.4735 40.6649 75.7229 40.6649L71.9344 40.6649C71.0983 40.6649 70.5242 40.5324 70.1712 40.2209C69.8179 39.9089 69.5116 39.3321 69.3351 38.4411L62.5083 9.74338L55.7258 38.3967C55.505 39.2854 55.2401 39.8649 54.8897 40.1765C54.5364 40.4884 53.9212 40.6209 53.1265 40.6209L49.3377 40.6209L49.3377 40.6209L49.3377 40.6209ZM105.944 41.8212C103.653 41.8212 101.363 41.5536 99.1613 41.0209C96.9593 40.4884 95.2401 39.9089 94.095 39.2411C93.3914 38.8411 92.9056 38.3967 92.7291 37.9967C92.5523 37.5967 92.4642 37.1523 92.4642 36.7523L92.4642 34.4841C92.4642 33.5487 92.8172 33.1043 93.4768 33.1043C93.7417 33.1043 94.0066 33.1483 94.2689 33.2368C94.5338 33.3252 94.9282 33.5043 95.3699 33.6811C96.8682 34.3487 98.496 34.8815 100.215 35.2374C101.978 35.5934 103.695 35.7699 105.458 35.7699C108.234 35.7699 110.392 35.2815 111.89 34.302C113.388 33.3222 114.18 31.8984 114.18 30.0745C114.18 28.83 113.783 27.8063 112.991 26.9592C112.199 26.1148 110.701 25.3587 108.543 24.6468L102.155 22.6435C98.9404 21.6198 96.5619 20.1076 95.1076 18.1043C93.6533 16.1479 92.9056 13.968 92.9056 11.6529C92.9056 9.78477 93.303 8.13742 94.095 6.71358C94.8868 5.28974 95.9464 4.04526 97.2656 3.06567C98.5871 2.04194 100.085 1.28586 101.846 0.753304C103.609 0.223511 105.458 0 107.398 0C108.367 0 109.379 0.0441494 110.35 0.1766C111.363 0.309052 112.287 0.48841 113.215 0.66501C114.095 0.888524 114.934 1.10927 115.726 1.37693C116.518 1.64459 117.136 1.90949 117.577 2.17715C118.195 2.53311 118.634 2.88908 118.899 3.28919C119.164 3.64513 119.296 4.13354 119.296 4.75719L119.296 6.84878C119.296 7.78421 118.943 8.27262 118.284 8.27262C117.93 8.27262 117.359 8.09603 116.609 7.74007C114.098 6.58387 111.277 6.00441 108.151 6.00441C105.64 6.00441 103.659 6.40454 102.293 7.24891C100.927 8.09328 100.224 9.38467 100.224 11.2086C100.224 12.4531 100.665 13.521 101.545 14.3681C102.425 15.2125 104.056 16.0596 106.391 16.8157L112.646 18.819C115.817 19.8427 118.11 21.2666 119.473 23.0905C120.836 24.9145 121.498 27.0061 121.498 29.3184C121.498 31.2307 121.101 32.9663 120.353 34.4785C119.561 35.9907 118.502 37.3262 117.138 38.394C115.773 39.506 114.142 40.3063 112.249 40.8858C110.259 41.5093 108.19 41.8212 105.944 41.8212L105.944 41.8212L105.944 41.8212Z" transform="translate(5.479281 0)" id="Shape" fill="#252F3E" fill-rule="evenodd" stroke="none" />
                    <path d="M119.748 13.5748C105.256 24.3861 84.199 30.1256 66.0921 30.1256C40.7195 30.1256 17.8552 20.6499 0.586945 4.8993C-0.778949 3.65483 0.454495 1.96333 2.08529 2.94291C20.7635 13.8866 43.8017 20.5174 67.6344 20.5174C83.7132 20.5174 101.379 17.1372 117.632 10.1946C120.057 9.08252 122.127 11.795 119.748 13.5748L119.748 13.5748L119.748 13.5748ZM125.783 6.63497C123.931 4.23152 113.537 5.47877 108.824 6.0555C107.414 6.23208 107.193 4.98762 108.471 4.05218C116.751 -1.81979 130.364 -0.131054 131.95 1.82811C133.537 3.83142 131.509 17.5787 123.757 24.1626C122.568 25.1863 121.423 24.651 121.95 23.3182C123.713 18.9142 127.634 8.99149 125.783 6.63497L125.783 6.63497L125.783 6.63497Z" transform="translate(0 49.868916)" id="Shape#1" fill="#FF9900" fill-rule="evenodd" stroke="none" />
                  </g>
                </g>
              </g>
            </g>
            <g id="Amazon-Web-Services" transform="translate(139.16821 35.058277)">
              <g id="Amazon-Web">
                <path d="M175.486 0L175.486 23.6185L178.077 23.6185C178.342 23.6185 178.551 23.5603 178.705 23.4437C178.858 23.3272 178.967 23.1311 179.03 22.8556L179.205 21.7589C179.47 22.0768 179.748 22.3656 180.04 22.6252C180.331 22.8848 180.646 23.1046 180.985 23.2848C181.325 23.4649 181.701 23.6053 182.114 23.706C182.527 23.8066 182.983 23.857 183.481 23.857C184.551 23.857 185.518 23.6424 186.381 23.2132C187.245 22.7841 187.981 22.1881 188.591 21.4252C189.2 20.6623 189.669 19.7616 189.997 18.7232C190.326 17.6848 190.49 16.5563 190.49 15.3377C190.49 14.0027 190.344 12.8212 190.053 11.7934C189.762 10.7656 189.348 9.90199 188.813 9.20265C188.278 8.50331 187.642 7.97086 186.906 7.6053C186.17 7.23974 185.356 7.05695 184.466 7.05695C183.375 7.05695 182.421 7.26093 181.605 7.66887C180.789 8.07682 180.058 8.62516 179.412 9.31391L179.412 0L175.486 0L175.486 0ZM22.4265 23.6185L19.1205 23.6185C18.7497 23.6185 18.445 23.5258 18.2066 23.3404C17.9682 23.155 17.796 22.9245 17.6901 22.649L15.9735 17.9603L6.45298 17.9603L4.73643 22.649C4.65166 22.8927 4.48477 23.1152 4.23576 23.3166C3.98676 23.5179 3.68212 23.6185 3.32186 23.6185L0 23.6185L9.02782 0.635761L13.3987 0.635761L22.4265 23.6185L22.4265 23.6185ZM126.866 0.635761L123.274 0.635761L130.411 23.6185L134.273 23.6185L139.343 7.91523C139.407 7.71391 139.473 7.49669 139.542 7.26357C139.611 7.03046 139.677 6.78146 139.74 6.51656C139.804 6.78146 139.87 7.03046 139.939 7.26357C140.008 7.49669 140.074 7.71391 140.138 7.91523L145.16 23.6185L149.023 23.6185L156.159 0.635761L152.805 0.635761C152.445 0.635761 152.138 0.731126 151.883 0.921854C151.629 1.11258 151.465 1.3404 151.391 1.6053L147.481 15.3536C147.396 15.6821 147.314 16.0371 147.234 16.4185C147.155 16.8 147.078 17.1974 147.004 17.6106C146.834 16.7841 146.633 16.0318 146.4 15.3536L141.918 1.6053C141.823 1.30861 141.653 1.07285 141.409 0.898013C141.166 0.723178 140.858 0.635761 140.487 0.635761L139.232 0.635761C138.872 0.635761 138.567 0.736423 138.318 0.937749C138.069 1.13907 137.902 1.36159 137.817 1.6053L133.303 15.3536C133.187 15.6927 133.078 16.0609 132.977 16.4583C132.877 16.8556 132.784 17.2768 132.699 17.7219C132.625 17.2768 132.548 16.8556 132.469 16.4583C132.389 16.0609 132.302 15.6927 132.207 15.3536L128.297 1.6053C128.212 1.30861 128.045 1.07285 127.796 0.898013C127.547 0.723178 127.237 0.635761 126.866 0.635761L126.866 0.635761ZM7.54967 14.9404L14.8768 14.9404L12.0795 7.29537C11.9523 6.95629 11.8119 6.55629 11.6583 6.09536C11.5046 5.63444 11.3536 5.13378 11.2053 4.59338C11.057 5.13378 10.9113 5.63709 10.7682 6.10331C10.6252 6.56954 10.4848 6.97748 10.347 7.32715L7.54967 14.9404L7.54967 14.9404ZM62.3523 23.6185L64.1166 23.6185L64.1166 13.3192C64.1166 12.3973 63.9814 11.5497 63.7113 10.7762C63.4411 10.0026 63.0464 9.33775 62.5272 8.78146C62.0079 8.22517 61.3748 7.79073 60.6278 7.47815C59.8808 7.16556 59.0305 7.00927 58.0768 7.00927C55.4278 7.00927 53.1656 7.86755 51.2901 9.58411L52.0053 10.8397C52.1219 11.0411 52.2755 11.2106 52.4662 11.3483C52.657 11.4861 52.8848 11.555 53.1497 11.555C53.4676 11.555 53.7589 11.4808 54.0238 11.3324C54.2887 11.1841 54.5775 11.0172 54.8901 10.8318C55.2027 10.6464 55.5709 10.4795 55.9947 10.3311C56.4185 10.1828 56.9483 10.1086 57.5841 10.1086C58.4636 10.1086 59.1338 10.3728 59.5947 10.9013C60.0556 11.4298 60.2861 12.244 60.2861 13.3438L60.2861 14.3046C58.4318 14.3046 56.8795 14.4641 55.6291 14.7831C54.3788 15.102 53.3775 15.5033 52.6252 15.9871C51.8728 16.4707 51.3351 17.0129 51.0119 17.6136C50.6887 18.2142 50.5272 18.8229 50.5272 19.4396C50.5272 20.1731 50.6437 20.8163 50.8768 21.3692C51.1099 21.9221 51.4358 22.3846 51.8543 22.7567C52.2728 23.1288 52.7735 23.4078 53.3563 23.5938C53.9391 23.7798 54.5748 23.8728 55.2636 23.8728C55.8464 23.8728 56.3762 23.8252 56.853 23.7298C57.3298 23.6344 57.7801 23.4914 58.204 23.3007C58.6278 23.1099 59.0384 22.8742 59.4358 22.5934C59.8331 22.3126 60.2384 21.9868 60.6517 21.6159L61.0013 22.7762C61.1073 23.1152 61.2662 23.3404 61.4782 23.4517C61.6901 23.5629 61.9815 23.6185 62.3523 23.6185L62.3523 23.6185ZM24.5722 23.6185L24.5722 7.31126L26.9722 7.31126C27.4808 7.31126 27.8146 7.54967 27.9735 8.02649L28.2278 9.23444C28.5139 8.91656 28.8133 8.62516 29.1258 8.36026C29.4384 8.09537 29.7722 7.86755 30.1271 7.67682C30.4821 7.48609 30.8636 7.3351 31.2715 7.22384C31.6795 7.11258 32.1272 7.05695 32.6146 7.05695C33.6424 7.05695 34.4874 7.3351 35.1497 7.89139C35.8119 8.44768 36.3073 9.18675 36.6358 10.1086C36.8901 9.56821 37.208 9.10464 37.5894 8.71788C37.9709 8.33112 38.3894 8.01589 38.845 7.77219C39.3007 7.52848 39.7854 7.34834 40.2993 7.23179C40.8132 7.11523 41.3298 7.05695 41.849 7.05695C42.7497 7.05695 43.5497 7.1947 44.249 7.4702C44.9483 7.74569 45.5364 8.14834 46.0132 8.67815C46.4901 9.20795 46.853 9.85431 47.102 10.6172C47.351 11.3801 47.4755 12.2543 47.4755 13.2397L47.4755 23.6185L43.5497 23.6185L43.5497 13.2397C43.5497 12.2013 43.3219 11.4199 42.8662 10.8954C42.4106 10.3709 41.743 10.1086 40.8636 10.1086C40.4609 10.1086 40.0874 10.1775 39.743 10.3152C39.3987 10.453 39.0967 10.6517 38.8371 10.9113C38.5775 11.1709 38.3735 11.4967 38.2252 11.8887C38.0768 12.2808 38.0027 12.7311 38.0027 13.2397L38.0027 23.6185L34.0609 23.6185L34.0609 13.2397C34.0609 12.1483 33.8411 11.3536 33.4013 10.8556C32.9616 10.3576 32.3126 10.1086 31.4543 10.1086C30.8927 10.1086 30.3656 10.249 29.8729 10.5298C29.3801 10.8106 28.9219 11.1947 28.498 11.6821L28.498 23.6185L24.5722 23.6185L24.5722 23.6185ZM93.1788 7.64503C92.1881 7.25298 91.0834 7.05695 89.8649 7.05695C88.6464 7.05695 87.5391 7.25298 86.5431 7.64503C85.547 8.03709 84.6967 8.59338 83.9921 9.31391C83.2874 10.0344 82.7417 10.9139 82.355 11.9523C81.9682 12.9907 81.7748 14.151 81.7748 15.4331C81.7748 16.7258 81.9682 17.8914 82.355 18.9298C82.7417 19.9682 83.2874 20.853 83.9921 21.5841C84.6967 22.3152 85.547 22.8768 86.5431 23.2689C87.5391 23.6609 88.6464 23.857 89.8649 23.857C91.0834 23.857 92.1881 23.6609 93.1788 23.2689C94.1695 22.8768 95.0146 22.3152 95.7139 21.5841C96.4132 20.853 96.9537 19.9682 97.3351 18.9298C97.7166 17.8914 97.9073 16.7258 97.9073 15.4331C97.9073 14.151 97.7166 12.9907 97.3351 11.9523C96.9537 10.9139 96.4132 10.0344 95.7139 9.31391C95.0146 8.59338 94.1695 8.03709 93.1788 7.64503L93.1788 7.64503ZM100.975 7.31126L103.375 7.31126C103.883 7.31126 104.217 7.54967 104.376 8.02649L104.646 9.31391C104.975 8.97483 105.322 8.66755 105.687 8.39205C106.053 8.11656 106.44 7.87815 106.848 7.67682C107.256 7.4755 107.693 7.32185 108.159 7.21589C108.625 7.10993 109.134 7.05695 109.685 7.05695C110.575 7.05695 111.364 7.20795 112.053 7.50993C112.742 7.81192 113.317 8.23576 113.777 8.78146C114.238 9.32715 114.588 9.97881 114.826 10.7364C115.065 11.494 115.184 12.3285 115.184 13.2397L115.184 23.6185L111.258 23.6185L111.258 13.2397C111.258 12.2437 111.028 11.4728 110.567 10.9272C110.106 10.3815 109.415 10.1086 108.493 10.1086C107.815 10.1086 107.179 10.2623 106.585 10.5695C105.992 10.8768 105.43 11.2954 104.901 11.8252L104.901 23.6185L100.975 23.6185L100.975 7.31126L100.975 7.31126ZM165.187 7.05695C166.215 7.05695 167.16 7.22119 168.024 7.54967C168.887 7.87815 169.632 8.35761 170.257 8.98808C170.882 9.61854 171.37 10.3921 171.719 11.3086C172.069 12.2252 172.244 13.2715 172.244 14.4477C172.244 14.7444 172.23 14.9907 172.204 15.1868C172.177 15.3828 172.13 15.5364 172.061 15.6477C171.992 15.7589 171.899 15.8384 171.783 15.8861C171.666 15.9338 171.518 15.9576 171.338 15.9576L161.261 15.9576C161.377 17.6318 161.828 18.8609 162.612 19.645C163.396 20.4291 164.434 20.8212 165.727 20.8212C166.363 20.8212 166.911 20.747 167.372 20.5987C167.833 20.4503 168.236 20.2861 168.58 20.106C168.925 19.9258 169.227 19.7616 169.486 19.6132C169.746 19.4649 169.997 19.3907 170.241 19.3907C170.4 19.3907 170.538 19.4225 170.654 19.4861C170.771 19.5497 170.872 19.6397 170.956 19.7563L172.101 21.1868C171.666 21.6954 171.179 22.1219 170.638 22.4662C170.098 22.8106 169.534 23.0861 168.946 23.2927C168.358 23.4993 167.759 23.645 167.15 23.7298C166.54 23.8146 165.95 23.857 165.378 23.857C164.244 23.857 163.189 23.6689 162.215 23.2927C161.24 22.9166 160.392 22.3603 159.672 21.6238C158.951 20.8874 158.384 19.9762 157.971 18.8901C157.558 17.804 157.351 16.5457 157.351 15.1152C157.351 14.0026 157.531 12.9563 157.891 11.9762C158.252 10.996 158.768 10.143 159.441 9.41722C160.114 8.69139 160.935 8.11656 161.905 7.69272C162.874 7.26888 163.968 7.05695 165.187 7.05695L165.187 7.05695ZM79.7722 8.93245C79.7722 9.20795 79.7218 9.4755 79.6212 9.7351C79.5205 9.9947 79.4013 10.2146 79.2636 10.3947L71.5073 20.5987L79.5497 20.5987L79.5497 23.6185L66.9457 23.6185L66.9457 21.9815C66.9457 21.8013 66.9881 21.5868 67.0729 21.3377C67.1576 21.0887 67.2901 20.853 67.4702 20.6305L75.2901 10.3152L67.4066 10.3152L67.4066 7.31126L79.7722 7.31126L79.7722 8.93245L79.7722 8.93245ZM165.266 9.8702C164.122 9.8702 163.227 10.1934 162.58 10.8397C161.934 11.4861 161.521 12.4026 161.34 13.5894L168.715 13.5894C168.715 13.0808 168.646 12.6013 168.509 12.151C168.371 11.7007 168.159 11.306 167.873 10.9669C167.587 10.6278 167.227 10.3603 166.792 10.1642C166.358 9.96821 165.849 9.8702 165.266 9.8702L165.266 9.8702ZM92.8768 19.4702C92.2252 20.3815 91.2212 20.8371 89.8649 20.8371C88.4874 20.8371 87.4702 20.3788 86.8132 19.4622C86.1563 18.5457 85.8278 17.2132 85.8278 15.4649C85.8278 13.7166 86.1563 12.3788 86.8132 11.4517C87.4702 10.5245 88.4874 10.0609 89.8649 10.0609C91.2212 10.0609 92.2252 10.5219 92.8768 11.4437C93.5285 12.3656 93.8543 13.706 93.8543 15.4649C93.8543 17.2238 93.5285 18.5589 92.8768 19.4702L92.8768 19.4702ZM181.025 10.6252C181.603 10.2808 182.299 10.1086 183.115 10.1086C183.634 10.1086 184.098 10.204 184.506 10.3947C184.914 10.5854 185.261 10.8874 185.547 11.3007C185.833 11.7139 186.053 12.2517 186.207 12.9139C186.36 13.5762 186.437 14.3841 186.437 15.3377C186.437 16.2808 186.347 17.0993 186.167 17.7934C185.987 18.4874 185.73 19.0623 185.396 19.5179C185.062 19.9735 184.657 20.3126 184.18 20.5351C183.703 20.7576 183.168 20.8689 182.575 20.8689C181.96 20.8689 181.391 20.7603 180.866 20.543C180.342 20.3258 179.857 19.9417 179.412 19.3907L179.412 12.0795C179.91 11.4543 180.448 10.9695 181.025 10.6252L181.025 10.6252ZM57.6 21.0613C57.2609 21.1343 56.8901 21.1709 56.4874 21.1709C55.8305 21.1709 55.298 21.0214 54.8901 20.7226C54.4821 20.4238 54.2781 19.9275 54.2781 19.2338C54.2781 18.8816 54.3762 18.5562 54.5722 18.2574C54.7682 17.9587 55.0993 17.6972 55.5656 17.473C56.0318 17.2488 56.649 17.0647 57.4172 16.9207C58.1854 16.7767 59.1417 16.7046 60.2861 16.7046L60.2861 19.4342C60 19.7262 59.7166 19.9792 59.4358 20.193C59.155 20.4068 58.8636 20.5868 58.5616 20.7328C58.2596 20.8788 57.9391 20.9883 57.6 21.0613L57.6 21.0613Z" id="Shape" fill="#252F3E" fill-rule="evenodd" stroke="none" />
              </g>
              <g id="Services" transform="translate(45.623848 38.127155)">
                <path d="M70.2834 2.51126C70.2834 2.85033 70.2146 3.16821 70.0768 3.4649C69.9391 3.76159 69.7563 4.02119 69.5285 4.24371C69.3007 4.46622 69.0331 4.6437 68.7258 4.77616C68.4185 4.90861 68.0901 4.97483 67.7404 4.97483C67.4013 4.97483 67.0808 4.90861 66.7788 4.77616C66.4768 4.6437 66.2146 4.46622 65.9921 4.24371C65.7695 4.02119 65.5921 3.76159 65.4596 3.4649C65.3271 3.16821 65.2609 2.85033 65.2609 2.51126C65.2609 2.16159 65.3271 1.83311 65.4596 1.52583C65.5921 1.21854 65.7695 0.953639 65.9921 0.731123C66.2146 0.508608 66.4768 0.331126 66.7788 0.198672C67.0808 0.0662242 67.4013 0 67.7404 0C68.0901 0 68.4185 0.0662242 68.7258 0.198672C69.0331 0.331126 69.3007 0.508608 69.5285 0.731123C69.7563 0.953639 69.9391 1.21854 70.0768 1.52583C70.2146 1.83311 70.2834 2.16159 70.2834 2.51126L70.2834 2.51126ZM13.6609 5.26093C13.8146 5.16556 13.9497 5.00132 14.0662 4.76821L15.1152 2.74967C14.3099 1.98675 13.3351 1.39338 12.1907 0.969534C11.0464 0.545694 9.79602 0.333773 8.43973 0.333773C7.24237 0.333773 6.17749 0.519203 5.24502 0.890062C4.31258 1.26093 3.52581 1.75364 2.88476 2.36821C2.24371 2.98278 1.75628 3.68741 1.4225 4.48212C1.08873 5.27682 0.921853 6.09271 0.921853 6.9298C0.921853 7.97881 1.07284 8.86093 1.37483 9.57616C1.67681 10.2914 2.07681 10.8874 2.57483 11.3642C3.07284 11.8411 3.63972 12.2278 4.27549 12.5245C4.91125 12.8212 5.55761 13.0755 6.21455 13.2874C6.87151 13.4993 7.51787 13.6954 8.15363 13.8755C8.78939 14.0556 9.35629 14.2755 9.85431 14.5351C10.3523 14.7947 10.7523 15.1152 11.0543 15.4967C11.3563 15.8781 11.5073 16.3709 11.5073 16.9748C11.5073 18.0556 11.1735 18.8848 10.5059 19.4623C9.8384 20.0397 8.89537 20.3285 7.67681 20.3285C6.88212 20.3285 6.20131 20.2199 5.63443 20.0026C5.06753 19.7854 4.57483 19.5444 4.15629 19.2795C3.73774 19.0146 3.37482 18.7735 3.06754 18.5563C2.76026 18.3391 2.47417 18.2305 2.20927 18.2305C2.00794 18.2305 1.82515 18.2808 1.66092 18.3815C1.49668 18.4821 1.35627 18.6066 1.23972 18.755L0 20.8053C0.445031 21.2609 0.950976 21.6742 1.51788 22.045C2.08475 22.4159 2.69404 22.7338 3.3457 22.9987C3.99734 23.2636 4.67814 23.4675 5.38807 23.6106C6.098 23.7536 6.81854 23.8252 7.54966 23.8252C8.8212 23.8252 9.94966 23.6318 10.9351 23.245C11.9205 22.8583 12.755 22.3285 13.4384 21.6556C14.1218 20.9828 14.641 20.1934 14.996 19.2874C15.351 18.3815 15.5285 17.4093 15.5285 16.3709C15.5285 15.4172 15.3775 14.6066 15.0755 13.9391C14.7735 13.2715 14.3735 12.7073 13.8755 12.2464C13.3775 11.7854 12.8106 11.404 12.1748 11.102C11.5391 10.8 10.8901 10.5351 10.2278 10.3073C9.56556 10.0795 8.91655 9.8649 8.28079 9.66357C7.64504 9.46225 7.07814 9.23444 6.58012 8.98013C6.08211 8.72583 5.68211 8.41854 5.38013 8.05828C5.07815 7.69801 4.92715 7.24768 4.92715 6.70728C4.92715 6.28344 5.00133 5.89404 5.14967 5.53907C5.29801 5.1841 5.52318 4.87947 5.82516 4.62517C6.12714 4.37086 6.498 4.17218 6.93774 4.02914C7.37747 3.88609 7.89403 3.81457 8.4874 3.81457C9.14436 3.81457 9.71389 3.89669 10.196 4.06092C10.6781 4.22516 11.0993 4.40795 11.4596 4.60927C11.8199 4.8106 12.1324 4.99338 12.3973 5.15761C12.6622 5.32185 12.9006 5.40397 13.1126 5.40397C13.3245 5.40397 13.5073 5.35629 13.6609 5.26093L13.6609 5.26093ZM35.5708 23.5709L35.5708 7.26357L37.8755 7.26357C38.2781 7.26357 38.5589 7.33774 38.7179 7.48609C38.8768 7.63444 38.9828 7.88874 39.0358 8.24901L39.2742 10.2199C39.8569 9.21325 40.5404 8.41854 41.3245 7.83576C42.1086 7.25298 42.9881 6.96159 43.9629 6.96159C44.7682 6.96159 45.4357 7.14702 45.9656 7.51788L45.4569 10.4583C45.4251 10.649 45.3563 10.7841 45.2503 10.8636C45.1443 10.943 45.0013 10.9828 44.8212 10.9828C44.6623 10.9828 44.445 10.9457 44.1695 10.8715C43.894 10.7974 43.5285 10.7603 43.0728 10.7603C42.2569 10.7603 41.5576 10.9854 40.9748 11.4358C40.3921 11.8861 39.8993 12.5457 39.4967 13.4146L39.4967 23.5709L35.5708 23.5709L35.5708 23.5709ZM28.1563 7.50198C27.2927 7.17351 26.347 7.00927 25.3192 7.00927C24.1007 7.00927 23.0066 7.22119 22.0371 7.64503C21.0675 8.06887 20.2464 8.6437 19.5735 9.36953C18.9006 10.0954 18.3841 10.9483 18.0238 11.9285C17.6636 12.9086 17.4834 13.955 17.4834 15.0675C17.4834 16.498 17.6901 17.7563 18.1033 18.8424C18.5166 19.9285 19.0834 20.8397 19.804 21.5762C20.5245 22.3126 21.3722 22.8689 22.347 23.245C23.3219 23.6212 24.3761 23.8093 25.5099 23.8093C26.0821 23.8093 26.6728 23.7669 27.2821 23.6821C27.8914 23.5973 28.4901 23.4517 29.0781 23.245C29.6662 23.0384 30.2305 22.7629 30.7709 22.4185C31.3113 22.0742 31.7987 21.6477 32.2331 21.1391L31.0887 19.7086C31.004 19.592 30.9033 19.502 30.7867 19.4384C30.6702 19.3748 30.5325 19.343 30.3735 19.343C30.1298 19.343 29.8781 19.4172 29.6185 19.5656C29.3589 19.7139 29.0569 19.8781 28.7126 20.0583C28.3682 20.2384 27.9656 20.4026 27.5046 20.551C27.0437 20.6993 26.4954 20.7735 25.8596 20.7735C24.5669 20.7735 23.5285 20.3815 22.7444 19.5973C21.9602 18.8132 21.5099 17.5841 21.3934 15.9099L31.4702 15.9099C31.6503 15.9099 31.7987 15.8861 31.9152 15.8384C32.0318 15.7907 32.1245 15.7113 32.1934 15.6C32.2623 15.4887 32.3099 15.3351 32.3364 15.1391C32.3629 14.943 32.3762 14.6967 32.3762 14.4C32.3762 13.2238 32.2013 12.1775 31.8517 11.2609C31.502 10.3444 31.0146 9.57086 30.3894 8.9404C29.7642 8.30993 29.0199 7.83046 28.1563 7.50198L28.1563 7.50198ZM85.2477 11.0622C85.3589 10.9775 85.4728 10.8609 85.5894 10.7126L86.6225 9.28212C85.8914 8.55099 85.0675 7.98941 84.151 7.59735C83.2344 7.2053 82.1669 7.00927 80.9483 7.00927C79.6662 7.00927 78.5324 7.22119 77.547 7.64503C76.5616 8.06887 75.7351 8.6543 75.0675 9.40132C74.4 10.1483 73.894 11.0331 73.5497 12.0556C73.2053 13.0781 73.0331 14.1881 73.0331 15.3854C73.0331 16.7205 73.2265 17.9099 73.6132 18.9536C74 19.9974 74.5245 20.8795 75.1867 21.6C75.849 22.3205 76.6252 22.8689 77.5152 23.245C78.4053 23.6212 79.3536 23.8093 80.3603 23.8093C80.9324 23.8093 81.5099 23.7669 82.0927 23.6821C82.6755 23.5973 83.2397 23.4517 83.7854 23.245C84.3311 23.0384 84.8583 22.7629 85.3669 22.4185C85.8755 22.0742 86.347 21.6477 86.7814 21.1391L85.653 19.7086C85.494 19.4649 85.2556 19.343 84.9377 19.343C84.694 19.343 84.4742 19.4199 84.2782 19.5735C84.0821 19.7272 83.8517 19.8967 83.5868 20.0821C83.3218 20.2675 82.996 20.4371 82.6093 20.5907C82.2225 20.7444 81.7165 20.8212 81.0914 20.8212C80.4662 20.8212 79.9046 20.702 79.4066 20.4636C78.9086 20.2252 78.4848 19.8755 78.1351 19.4146C77.7854 18.9536 77.5179 18.3841 77.3324 17.706C77.147 17.0278 77.0543 16.2543 77.0543 15.3854C77.0543 14.5483 77.1391 13.7987 77.3086 13.1364C77.4781 12.4742 77.7351 11.9099 78.0795 11.4437C78.4238 10.9775 78.8556 10.6199 79.3748 10.3709C79.894 10.1219 80.498 9.99735 81.1867 9.99735C81.7271 9.99735 82.1801 10.0583 82.5457 10.1801C82.9112 10.302 83.2265 10.4397 83.4914 10.5934C83.7563 10.747 83.9841 10.8848 84.1748 11.0066C84.3656 11.1285 84.5616 11.1894 84.7629 11.1894C84.9748 11.1894 85.1364 11.147 85.2477 11.0622L85.2477 11.0622ZM96.0318 7.00927C97.0596 7.00927 98.0053 7.17351 98.8689 7.50198C99.7325 7.83046 100.477 8.30993 101.102 8.9404C101.727 9.57086 102.215 10.3444 102.564 11.2609C102.914 12.1775 103.089 13.2238 103.089 14.4C103.089 14.6967 103.075 14.943 103.049 15.1391C103.023 15.3351 102.975 15.4887 102.906 15.6C102.837 15.7113 102.744 15.7907 102.628 15.8384C102.511 15.8861 102.363 15.9099 102.183 15.9099L92.1059 15.9099C92.2225 17.5841 92.6728 18.8132 93.457 19.5973C94.2411 20.3815 95.2795 20.7735 96.5722 20.7735C97.2079 20.7735 97.7563 20.6993 98.2172 20.551C98.6781 20.4026 99.0808 20.2384 99.4252 20.0583C99.7695 19.8781 100.072 19.7139 100.331 19.5656C100.591 19.4172 100.842 19.343 101.086 19.343C101.245 19.343 101.383 19.3748 101.499 19.4384C101.616 19.502 101.717 19.592 101.801 19.7086L102.946 21.1391C102.511 21.6477 102.024 22.0742 101.483 22.4185C100.943 22.7629 100.379 23.0384 99.7907 23.245C99.2026 23.4517 98.604 23.5973 97.9947 23.6821C97.3854 23.7669 96.7947 23.8093 96.2225 23.8093C95.0887 23.8093 94.0344 23.6212 93.0596 23.245C92.0847 22.8689 91.2371 22.3126 90.5165 21.5762C89.796 20.8397 89.2291 19.9285 88.8159 18.8424C88.4026 17.7563 88.196 16.498 88.196 15.0675C88.196 13.955 88.3762 12.9086 88.7364 11.9285C89.0967 10.9483 89.6132 10.0954 90.2861 9.36953C90.9589 8.6437 91.7801 8.06887 92.7497 7.64503C93.7192 7.22119 94.8132 7.00927 96.0318 7.00927L96.0318 7.00927ZM115.629 10.8C115.746 10.7311 115.857 10.6119 115.963 10.4424L116.853 9.02781C116.238 8.42384 115.47 7.93642 114.548 7.56556C113.626 7.1947 112.604 7.00927 111.481 7.00927C110.474 7.00927 109.587 7.14437 108.819 7.41457C108.05 7.68477 107.409 8.04503 106.895 8.49536C106.381 8.94569 105.992 9.47285 105.727 10.0768C105.462 10.6808 105.33 11.3166 105.33 11.9841C105.33 12.7046 105.444 13.3192 105.672 13.8278C105.899 14.3364 106.201 14.7656 106.577 15.1152C106.954 15.4649 107.383 15.7536 107.865 15.9815C108.347 16.2093 108.84 16.4079 109.343 16.5775C109.846 16.747 110.339 16.9033 110.821 17.0464C111.303 17.1894 111.732 17.351 112.109 17.5311C112.485 17.7113 112.787 17.9232 113.015 18.1669C113.242 18.4106 113.356 18.7232 113.356 19.1046C113.356 19.3589 113.306 19.6053 113.205 19.8437C113.105 20.0821 112.946 20.2914 112.728 20.4715C112.511 20.6517 112.236 20.7973 111.902 20.9086C111.568 21.0199 111.168 21.0755 110.702 21.0755C110.109 21.0755 109.619 21.0066 109.232 20.8689C108.845 20.7311 108.509 20.5828 108.223 20.4238C107.936 20.2649 107.685 20.1166 107.468 19.9788C107.25 19.8411 107.02 19.7722 106.776 19.7722C106.532 19.7722 106.331 19.8199 106.172 19.9152C106.013 20.0106 105.876 20.1483 105.759 20.3285L104.853 21.8225C105.171 22.1086 105.539 22.3735 105.958 22.6172C106.376 22.8609 106.832 23.0728 107.325 23.253C107.817 23.4331 108.331 23.5735 108.866 23.6742C109.401 23.7748 109.95 23.8252 110.511 23.8252C111.56 23.8252 112.49 23.6901 113.301 23.4199C114.111 23.1497 114.792 22.7735 115.343 22.2914C115.894 21.8093 116.313 21.2371 116.599 20.5748C116.885 19.9126 117.028 19.1894 117.028 18.4053C117.028 17.7483 116.914 17.1868 116.686 16.7205C116.458 16.2543 116.156 15.8543 115.78 15.5205C115.404 15.1868 114.977 14.9113 114.501 14.694C114.024 14.4768 113.536 14.2834 113.038 14.1139C112.54 13.9444 112.053 13.7881 111.576 13.645C111.099 13.502 110.673 13.3404 110.297 13.1603C109.921 12.9801 109.619 12.7709 109.391 12.5324C109.163 12.294 109.049 12 109.049 11.6503C109.049 11.1205 109.272 10.6914 109.717 10.3629C110.162 10.0344 110.771 9.8702 111.544 9.8702C112.042 9.8702 112.474 9.92318 112.84 10.0291C113.205 10.1351 113.531 10.2543 113.817 10.3868C114.103 10.5192 114.355 10.6384 114.572 10.7444C114.789 10.8503 114.993 10.9033 115.184 10.9033C115.364 10.9033 115.513 10.8689 115.629 10.8L115.629 10.8ZM53.1655 23.5709L56.7258 23.5709L63.1947 7.26357L60.0954 7.26357C59.8305 7.26357 59.6026 7.33245 59.4119 7.4702C59.2212 7.60795 59.0887 7.78278 59.0146 7.9947L55.7881 16.7046C55.5973 17.2132 55.4411 17.7113 55.3192 18.1987C55.1973 18.6861 55.0887 19.1735 54.9934 19.6609C54.898 19.1735 54.7894 18.6861 54.6675 18.1987C54.5457 17.7113 54.3947 17.2132 54.2146 16.7046L51.0676 7.9947C50.9934 7.78278 50.8583 7.60795 50.6623 7.4702C50.4662 7.33245 50.2251 7.26357 49.9391 7.26357L46.6808 7.26357L53.1655 23.5709L53.1655 23.5709ZM69.6954 7.26357L69.6954 23.5709L65.7695 23.5709L65.7695 7.26357L69.6954 7.26357L69.6954 7.26357ZM22.7126 10.7921C23.3589 10.1457 24.2543 9.82252 25.3987 9.82252C25.9815 9.82252 26.4901 9.92053 26.9245 10.1166C27.3589 10.3126 27.7192 10.5801 28.0053 10.9192C28.2914 11.2583 28.5033 11.653 28.6411 12.1033C28.7788 12.5536 28.8477 13.0331 28.8477 13.5417L21.4728 13.5417C21.653 12.355 22.0662 11.4384 22.7126 10.7921L22.7126 10.7921ZM96.1113 9.82252C94.9669 9.82252 94.0715 10.1457 93.4252 10.7921C92.7788 11.4384 92.3656 12.355 92.1854 13.5417L99.5603 13.5417C99.5603 13.0331 99.4914 12.5536 99.3536 12.1033C99.2159 11.653 99.004 11.2583 98.7179 10.9192C98.4318 10.5801 98.0715 10.3126 97.6371 10.1166C97.2027 9.92053 96.694 9.82252 96.1113 9.82252L96.1113 9.82252Z" id="Shape" fill="#252F3E" fill-rule="evenodd" stroke="none" />
              </g>
            </g>
          </g>
        </g>
      </g>
    </g>
  </g>
</svg>