<?xml version="1.0" encoding="utf-8"?>
<svg width="313px" height="100px" viewbox="0 0 313 100" version="1.1" xmlns:xlink="http://www.w3.org/1999/xlink" xmlns="http://www.w3.org/2000/svg">
  <defs>
    <path d="M0 0L312.414 0L312.414 100L0 100L0 0Z" id="path_1" />
    <path d="M0 0L137.931 0L137.931 137.931L0 137.931L0 0L0 0Z" id="path_2" />
    <clipPath id="mask_1">
      <use xlink:href="#path_1" />
    </clipPath>
    <clipPath id="mask_2">
      <use xlink:href="#path_2" />
    </clipPath>
  </defs>
  <g id="svg">
    <g id="Mask-group">
      <path d="M0 0L312.414 0L312.414 100L0 100L0 0Z" id="slice_1" fill="none" fill-rule="evenodd" stroke="none" />
      <g clip-path="url(#mask_1)">
        <g id="Slice" transform="translate(0 -22.758621)">
          <path d="M0 0L312.414 0L312.414 100L0 100L0 0Z" transform="translate(-0 22.75862)" id="slice_1" fill="none" fill-rule="evenodd" stroke="none" />
          <g id="Amazon-Web-Services-icon" transform="translate(8.275862 0)">
            <path d="M0 0L137.931 0L137.931 137.931L0 137.931L0 0L0 0Z" id="Background" fill="none" fill-rule="evenodd" stroke="none" />
            <g id="Mask-group">
              <path d="M0 0L137.931 0L137.931 137.931L0 137.931L0 0L0 0Z" id="path_1" fill="none" fill-rule="evenodd" stroke="none" />
              <g clip-path="url(#mask_2)">
                <g id="Group" transform="translate(-0.0020033736 31.609179)">
                  <path d="M33.1667 30.2557C33.1667 31.9712 33.3505 33.3592 33.6724 34.3793C34.0402 35.3994 34.4971 36.5115 35.1408 37.7155C35.3707 38.0862 35.4626 38.4569 35.4626 38.7816C35.4626 39.2443 35.1868 39.7069 34.5919 40.1724L31.7012 42.1178C31.2874 42.3965 30.8764 42.5345 30.5086 42.5345C30.0488 42.5345 29.5919 42.3017 29.1322 41.885C28.4885 41.1897 27.9397 40.4483 27.4799 39.7069C27.0201 38.9195 26.5632 38.0402 26.0574 36.9741C22.4799 41.2357 17.9828 43.3678 12.569 43.3678C8.71552 43.3678 5.64081 42.2557 3.39368 40.0316C1.14655 37.8074 0 34.8419 0 31.135C0 27.1983 1.37643 24 4.17529 21.5919C6.97414 19.1839 10.6897 17.977 15.4138 17.977C16.9741 17.977 18.5805 18.115 20.2759 18.3477C21.9712 18.5805 23.7155 18.9512 25.5517 19.3678L25.5517 15.9857C25.5517 12.4655 24.819 10.0086 23.3965 8.57186C21.9281 7.13503 19.4512 6.43965 15.9195 6.43965C14.3132 6.43965 12.6638 6.62357 10.9655 7.0431C9.26724 7.45979 7.61779 7.96841 6.0115 8.61779C5.27874 8.94255 4.72701 9.12641 4.40517 9.22124C4.08333 9.31324 3.85345 9.35917 3.67241 9.35917C3.02874 9.35917 2.70977 8.89655 2.70977 7.92241L2.70977 5.6523C2.70977 4.91092 2.80172 4.35632 3.03161 4.03161C3.2615 3.7069 3.67528 3.38219 4.31609 3.05748C5.92241 2.22414 7.84772 1.52874 10.0977 0.971269C12.3448 0.36782 14.7299 0.0919585 17.2529 0.0919585C22.7126 0.0919585 26.704 1.34196 29.273 3.84483C31.796 6.3477 33.0805 10.1466 33.0805 15.2414L33.0805 30.2529L33.1667 30.2529L33.1667 30.2557L33.1667 30.2557ZM14.5402 37.296C16.0546 37.296 17.615 37.0172 19.2643 36.4626C20.9167 35.9081 22.385 34.8879 23.6236 33.4971C24.3563 32.6178 24.9081 31.6437 25.1839 30.5316C25.4598 29.4195 25.6437 28.0747 25.6437 26.5L25.6437 24.5546C24.3132 24.2299 22.8908 23.9512 21.4224 23.7672C19.954 23.5833 18.5316 23.4885 17.1092 23.4885C14.0345 23.4885 11.7874 24.0919 10.273 25.3419C8.75862 26.5919 8.02586 28.3534 8.02586 30.6695C8.02586 32.8477 8.57759 34.4684 9.72414 35.5805C10.8247 36.7414 12.431 37.296 14.5402 37.296L14.5402 37.296L14.5402 37.296ZM51.3793 42.3017C50.5546 42.3017 50.0029 42.1638 49.635 41.8391C49.2672 41.5603 48.9483 40.9138 48.6724 40.0316L37.8908 4.21839C37.615 3.29311 37.477 2.68966 37.477 2.36494C37.477 1.62357 37.8448 1.2069 38.5776 1.2069L43.0747 1.2069C43.9454 1.2069 44.5431 1.34483 44.865 1.66954C45.2328 1.94828 45.5057 2.59483 45.7816 3.47701L53.4885 34.1494L60.6436 3.47702C60.8735 2.55173 61.1494 1.94828 61.5143 1.66955C61.8821 1.39081 62.523 1.2069 63.3505 1.2069L67.0201 1.2069C67.8908 1.2069 68.4885 1.34483 68.8563 1.66955C69.2241 1.94828 69.5428 2.59483 69.7269 3.47702L76.9738 34.5201L84.911 3.47702C85.1869 2.55174 85.5083 1.94829 85.8276 1.66955C86.1952 1.39081 86.7903 1.20691 87.6179 1.20691L91.8848 1.20691C92.6179 1.20691 93.0317 1.57759 93.0317 2.36495C93.0317 2.59771 92.9855 2.8276 92.9393 3.10633C92.8938 3.38507 92.8014 3.75576 92.6179 4.26438L81.5634 40.0776C81.2876 41.0029 80.9655 41.6063 80.6007 41.885C80.2359 42.1638 79.6379 42.3477 78.8566 42.3477L74.911 42.3477C74.04 42.3477 73.4427 42.2098 73.0745 41.885C72.7069 41.5603 72.3876 40.9598 72.2041 40.0316L65.0948 10.1466L58.0316 39.9857C57.8017 40.9109 57.5259 41.5143 57.1609 41.8391C56.7931 42.1638 56.1523 42.3017 55.3247 42.3017L51.3793 42.3017L51.3793 42.3017L51.3793 42.3017ZM110.328 43.5517C107.943 43.5517 105.557 43.273 103.264 42.7184C100.971 42.1638 99.1807 41.5603 97.9883 40.865C97.2559 40.4483 96.7503 39.9857 96.5662 39.569C96.3821 39.1523 96.2903 38.6897 96.2903 38.273L96.2903 35.9109C96.2903 34.9368 96.6579 34.4741 97.3448 34.4741C97.6207 34.4741 97.8966 34.5201 98.1697 34.6121C98.4455 34.704 98.8566 34.8908 99.3158 35.0747C100.877 35.7701 102.572 36.3247 104.362 36.6954C106.198 37.0661 107.986 37.25 109.822 37.25C112.712 37.25 114.96 36.7414 116.52 35.7212C118.081 34.7012 118.906 33.2184 118.906 31.319C118.906 30.023 118.492 28.9569 117.667 28.0747C116.842 27.1954 115.281 26.4081 113.034 25.6667L106.382 23.5805C103.034 22.5143 100.557 20.9397 99.0434 18.8534C97.529 16.8161 96.7503 14.546 96.7503 12.135C96.7503 10.1897 97.1641 8.47414 97.9883 6.99138C98.8131 5.50862 99.9165 4.21264 101.29 3.19252C102.667 2.12643 104.227 1.33908 106.061 0.784476C107.897 0.232759 109.822 0 111.842 0C112.85 0 113.905 0.0459763 114.917 0.183909C115.971 0.321841 116.934 0.508621 117.899 0.692531C118.816 0.92529 119.69 1.15517 120.514 1.43391C121.339 1.71265 121.983 1.98851 122.443 2.26724C123.086 2.63793 123.543 3.00862 123.819 3.42529C124.094 3.79598 124.232 4.3046 124.232 4.95402L124.232 7.13221C124.232 8.10634 123.865 8.61496 123.178 8.61496C122.81 8.61496 122.215 8.43104 121.434 8.06034C118.819 6.85632 115.882 6.25288 112.626 6.25288C110.012 6.25288 107.948 6.66955 106.526 7.54883C105.103 8.42814 104.37 9.77297 104.37 11.6724C104.37 12.9684 104.83 14.0805 105.747 14.9626C106.663 15.8419 108.362 16.7241 110.793 17.5115L117.308 19.5977C120.609 20.6638 122.997 22.1466 124.417 24.046C125.836 25.9454 126.526 28.1236 126.526 30.5316C126.526 32.523 126.112 34.3305 125.333 35.9052C124.508 37.4799 123.405 38.8707 121.986 39.9828C120.563 41.1408 118.865 41.9741 116.894 42.5776C114.822 43.227 112.667 43.5517 110.328 43.5517L110.328 43.5517L110.328 43.5517Z" transform="translate(5.7060385 0)" id="Shape" fill="#252F3E" fill-rule="evenodd" stroke="none" />
                  <path d="M124.703 14.1366C109.611 25.3952 87.6827 31.3722 68.8268 31.3722C42.4043 31.3722 18.594 21.5043 0.611231 5.10204C-0.811181 3.80606 0.4733 2.04457 2.17158 3.06468C21.6228 14.4612 45.6141 21.3664 70.4331 21.3664C87.1772 21.3664 105.574 17.8463 122.499 10.6164C125.025 9.45834 127.18 12.2831 124.703 14.1366L124.703 14.1366L124.703 14.1366ZM130.988 6.90952C129.059 4.40663 118.234 5.70548 113.327 6.30606C111.859 6.48996 111.628 5.19399 112.959 4.21985C121.583 -1.89509 135.758 -0.136477 137.41 1.90376C139.062 3.98996 136.95 18.3061 128.879 25.1624C127.64 26.2285 126.448 25.671 126.997 24.2831C128.832 19.6969 132.916 9.36352 130.988 6.90952L130.988 6.90952L130.988 6.90952Z" transform="translate(0 51.932453)" id="Shape#1" fill="#FF9900" fill-rule="evenodd" stroke="none" />
                </g>
              </g>
            </g>
          </g>
          <g id="Amazon-Web-Services" transform="translate(153.17793 44.666203)">
            <g id="Amazon-Web">
              <path d="M137.061 0L137.061 18.4469L139.084 18.4469C139.291 18.4469 139.455 18.4014 139.574 18.3103C139.694 18.2193 139.779 18.0662 139.829 17.851L139.966 16.9945C140.172 17.2428 140.39 17.4683 140.617 17.671C140.845 17.8738 141.091 18.0455 141.356 18.1862C141.621 18.3269 141.915 18.4366 142.237 18.5152C142.56 18.5938 142.916 18.6331 143.305 18.6331C144.141 18.6331 144.896 18.4655 145.57 18.1303C146.245 17.7952 146.82 17.3297 147.296 16.7338C147.772 16.1379 148.138 15.4345 148.395 14.6234C148.651 13.8124 148.779 12.931 148.779 11.9793C148.779 10.9366 148.666 10.0138 148.438 9.21104C148.21 8.40828 147.888 7.73379 147.47 7.18759C147.052 6.64138 146.555 6.22552 145.98 5.94C145.405 5.65448 144.77 5.51172 144.074 5.51172C143.222 5.51172 142.477 5.67103 141.84 5.98966C141.203 6.30828 140.632 6.73655 140.127 7.27448L140.127 0L137.061 0L137.061 0ZM17.5159 18.4469L14.9338 18.4469C14.6441 18.4469 14.4062 18.3745 14.22 18.2297C14.0338 18.0848 13.8993 17.9048 13.8166 17.6897L12.4759 14.0276L5.04 14.0276L3.69931 17.6897C3.63311 17.88 3.50276 18.0538 3.30827 18.211C3.11379 18.3683 2.87586 18.4469 2.59448 18.4469L0 18.4469L7.05103 0.496552L10.4648 0.496552L17.5159 18.4469L17.5159 18.4469ZM99.0869 0.496552L96.2814 0.496552L101.855 18.4469L104.872 18.4469L108.832 6.18207C108.881 6.02483 108.933 5.85517 108.987 5.6731C109.041 5.49103 109.092 5.29655 109.142 5.08965C109.192 5.29655 109.243 5.49103 109.297 5.6731C109.351 5.85517 109.403 6.02483 109.452 6.18207L113.375 18.4469L116.392 18.4469L121.966 0.496552L119.346 0.496552C119.065 0.496552 118.825 0.571036 118.626 0.720002C118.428 0.868967 118.299 1.0469 118.241 1.25379L115.188 11.9917C115.121 12.2483 115.057 12.5255 114.995 12.8234C114.933 13.1214 114.873 13.4317 114.815 13.7545C114.683 13.109 114.526 12.5214 114.343 11.9917L110.843 1.25379C110.768 1.02207 110.636 0.837931 110.446 0.701381C110.255 0.564828 110.015 0.496552 109.726 0.496552L108.745 0.496552C108.463 0.496552 108.226 0.575172 108.031 0.732414C107.837 0.889656 107.706 1.06345 107.64 1.25379L104.115 11.9917C104.023 12.2566 103.939 12.5441 103.86 12.8545C103.781 13.1648 103.709 13.4938 103.643 13.8414C103.585 13.4938 103.525 13.1648 103.463 12.8545C103.401 12.5441 103.332 12.2566 103.258 11.9917L100.204 1.25379C100.138 1.02207 100.008 0.837931 99.8131 0.701381C99.6186 0.564828 99.3766 0.496552 99.0869 0.496552L99.0869 0.496552ZM5.89655 11.669L11.6193 11.669L9.43448 5.69793C9.33517 5.4331 9.22552 5.12069 9.10552 4.76069C8.98551 4.40069 8.86759 4.00966 8.75173 3.58759C8.63587 4.00966 8.52207 4.40276 8.41034 4.7669C8.29863 5.13104 8.18896 5.44965 8.08138 5.72276L5.89655 11.669L5.89655 11.669ZM48.6993 18.4469L50.0773 18.4469L50.0773 10.4028C50.0773 9.68276 49.9717 9.02069 49.7607 8.41655C49.5497 7.81241 49.2414 7.2931 48.8359 6.85862C48.4304 6.42414 47.9359 6.08483 47.3524 5.84069C46.769 5.59655 46.1048 5.47448 45.36 5.47448C43.291 5.47448 41.5241 6.14483 40.0593 7.48552L40.6179 8.46621C40.709 8.62345 40.829 8.75586 40.9779 8.86345C41.1269 8.97104 41.3048 9.02483 41.5117 9.02483C41.76 9.02483 41.9876 8.96689 42.1945 8.85103C42.4014 8.73517 42.6269 8.60483 42.871 8.46C43.1152 8.31517 43.4028 8.18483 43.7338 8.06896C44.0648 7.9531 44.4786 7.89517 44.9752 7.89517C45.6621 7.89517 46.1855 8.10154 46.5455 8.51428C46.9055 8.92706 47.0855 9.56294 47.0855 10.4219L47.0855 11.1724C45.6373 11.1724 44.4248 11.297 43.4483 11.5461C42.4717 11.7952 41.6897 12.1087 41.1021 12.4864C40.5145 12.8642 40.0945 13.2877 39.8421 13.7568C39.5897 14.2259 39.4635 14.7013 39.4635 15.183C39.4635 15.7559 39.5545 16.2582 39.7366 16.6901C39.9186 17.1219 40.1731 17.4831 40.5 17.7737C40.8269 18.0643 41.2179 18.2823 41.6731 18.4276C42.1283 18.5729 42.6248 18.6455 43.1628 18.6455C43.6179 18.6455 44.0317 18.6083 44.4042 18.5338C44.7766 18.4593 45.1283 18.3476 45.4593 18.1986C45.7904 18.0497 46.111 17.8655 46.4214 17.6462C46.7317 17.4269 47.0483 17.1724 47.371 16.8828L47.6442 17.789C47.7269 18.0538 47.851 18.2297 48.0166 18.3166C48.1821 18.4034 48.4097 18.4469 48.6993 18.4469L48.6993 18.4469ZM19.1917 18.4469L19.1917 5.71034L21.0662 5.71034C21.4634 5.71034 21.7241 5.89655 21.8483 6.26897L22.0469 7.21241C22.2703 6.96414 22.5041 6.73655 22.7483 6.52966C22.9924 6.32276 23.2531 6.14483 23.5303 5.99586C23.8076 5.8469 24.1055 5.72896 24.4241 5.64207C24.7428 5.55517 25.0924 5.51172 25.4731 5.51172C26.2759 5.51172 26.9359 5.72896 27.4531 6.16345C27.9704 6.59793 28.3573 7.17517 28.6138 7.89517C28.8124 7.4731 29.0607 7.11103 29.3586 6.80897C29.6565 6.5069 29.9834 6.26069 30.3393 6.07034C30.6952 5.88 31.0738 5.73931 31.4752 5.64828C31.8766 5.55724 32.28 5.51172 32.6855 5.51172C33.389 5.51172 34.0138 5.61931 34.56 5.83448C35.1062 6.04966 35.5655 6.36414 35.9379 6.77793C36.3103 7.19172 36.5938 7.69655 36.7883 8.29241C36.9828 8.88828 37.08 9.57103 37.08 10.3407L37.08 18.4469L34.0138 18.4469L34.0138 10.3407C34.0138 9.52965 33.8359 8.91931 33.48 8.50965C33.1241 8.1 32.6028 7.89517 31.9159 7.89517C31.6014 7.89517 31.3097 7.94897 31.0407 8.05655C30.7717 8.16414 30.5359 8.31931 30.3331 8.52207C30.1303 8.72483 29.971 8.97931 29.8552 9.28552C29.7393 9.59172 29.6814 9.94345 29.6814 10.3407L29.6814 18.4469L26.6028 18.4469L26.6028 10.3407C26.6028 9.48828 26.431 8.86759 26.0876 8.47862C25.7442 8.08966 25.2372 7.89517 24.5669 7.89517C24.1283 7.89517 23.7166 8.00483 23.3317 8.22414C22.9469 8.44345 22.589 8.74345 22.2579 9.12414L22.2579 18.4469L19.1917 18.4469L19.1917 18.4469ZM72.7759 5.97103C72.0021 5.66483 71.1393 5.51172 70.1876 5.51172C69.2359 5.51172 68.371 5.66483 67.5931 5.97103C66.8152 6.27724 66.151 6.71172 65.6007 7.27448C65.0504 7.83724 64.6241 8.52414 64.3221 9.33517C64.02 10.1462 63.869 11.0524 63.869 12.0538C63.869 13.0634 64.02 13.9738 64.3221 14.7848C64.6241 15.5959 65.0504 16.2869 65.6007 16.8579C66.151 17.429 66.8152 17.8676 67.5931 18.1738C68.371 18.48 69.2359 18.6331 70.1876 18.6331C71.1393 18.6331 72.0021 18.48 72.7759 18.1738C73.5497 17.8676 74.2097 17.429 74.7559 16.8579C75.3021 16.2869 75.7241 15.5959 76.0221 14.7848C76.32 13.9738 76.469 13.0634 76.469 12.0538C76.469 11.0524 76.32 10.1462 76.0221 9.33517C75.7241 8.52414 75.3021 7.83724 74.7559 7.27448C74.2097 6.71172 73.5497 6.27724 72.7759 5.97103L72.7759 5.97103ZM78.8648 5.71034L80.7393 5.71034C81.1366 5.71034 81.3973 5.89655 81.5214 6.26897L81.7324 7.27448C81.989 7.00965 82.26 6.76966 82.5455 6.55448C82.8311 6.33931 83.1331 6.1531 83.4517 5.99586C83.7704 5.83862 84.1117 5.71862 84.4759 5.63586C84.84 5.5531 85.2373 5.51172 85.6676 5.51172C86.3628 5.51172 86.9793 5.62966 87.5173 5.86552C88.0552 6.10138 88.5042 6.43242 88.8642 6.85862C89.2242 7.28483 89.4973 7.79379 89.6835 8.38552C89.8697 8.97724 89.9628 9.62897 89.9628 10.3407L89.9628 18.4469L86.8966 18.4469L86.8966 10.3407C86.8966 9.56276 86.7166 8.96069 86.3566 8.53448C85.9966 8.10828 85.4566 7.89517 84.7366 7.89517C84.2069 7.89517 83.7104 8.01517 83.2469 8.25517C82.7834 8.49517 82.3448 8.82207 81.931 9.23586L81.931 18.4469L78.8648 18.4469L78.8648 5.71034L78.8648 5.71034ZM129.017 5.51172C129.819 5.51172 130.558 5.64 131.232 5.89655C131.907 6.1531 132.488 6.52759 132.977 7.02C133.465 7.51241 133.846 8.11655 134.119 8.83241C134.392 9.54827 134.528 10.3655 134.528 11.2841C134.528 11.5159 134.518 11.7083 134.497 11.8614C134.477 12.0145 134.439 12.1345 134.386 12.2214C134.332 12.3083 134.259 12.3703 134.168 12.4076C134.077 12.4448 133.961 12.4634 133.821 12.4634L125.95 12.4634C126.041 13.771 126.393 14.731 127.006 15.3434C127.618 15.9559 128.429 16.2621 129.439 16.2621C129.935 16.2621 130.363 16.2041 130.723 16.0883C131.083 15.9724 131.398 15.8441 131.667 15.7034C131.936 15.5628 132.172 15.4345 132.374 15.3186C132.577 15.2028 132.774 15.1448 132.964 15.1448C133.088 15.1448 133.196 15.1697 133.287 15.2193C133.378 15.269 133.457 15.3393 133.523 15.4303L134.417 16.5476C134.077 16.9448 133.697 17.2779 133.275 17.5469C132.852 17.8159 132.412 18.031 131.952 18.1924C131.493 18.3538 131.026 18.4676 130.55 18.5338C130.074 18.6 129.612 18.6331 129.166 18.6331C128.28 18.6331 127.457 18.4862 126.695 18.1924C125.934 17.8986 125.272 17.4641 124.709 16.889C124.146 16.3138 123.703 15.6021 123.381 14.7538C123.058 13.9055 122.897 12.9228 122.897 11.8055C122.897 10.9366 123.037 10.1193 123.319 9.35379C123.6 8.58828 124.003 7.92207 124.529 7.35517C125.055 6.78828 125.696 6.33931 126.453 6.00828C127.21 5.67724 128.065 5.51172 129.017 5.51172L129.017 5.51172ZM62.3048 6.97655C62.3048 7.19172 62.2655 7.40069 62.1869 7.60345C62.1083 7.80621 62.0152 7.97793 61.9076 8.11862L55.8497 16.0883L62.131 16.0883L62.131 18.4469L52.2869 18.4469L52.2869 17.1683C52.2869 17.0276 52.32 16.86 52.3862 16.6655C52.4524 16.471 52.5559 16.2869 52.6966 16.1131L58.8041 8.05655L52.6469 8.05655L52.6469 5.71034L62.3048 5.71034L62.3048 6.97655L62.3048 6.97655ZM129.079 7.70897C128.185 7.70897 127.486 7.96138 126.981 8.46621C126.476 8.97104 126.153 9.6869 126.012 10.6138L131.772 10.6138C131.772 10.2166 131.719 9.84207 131.611 9.49034C131.503 9.13862 131.338 8.83034 131.115 8.56552C130.891 8.30069 130.61 8.09172 130.27 7.93862C129.931 7.78552 129.534 7.70897 129.079 7.70897L129.079 7.70897ZM72.54 15.2069C72.0311 15.9186 71.2469 16.2745 70.1876 16.2745C69.1117 16.2745 68.3173 15.9166 67.8042 15.2007C67.291 14.4848 67.0345 13.4441 67.0345 12.0786C67.0345 10.7131 67.291 9.66828 67.8042 8.94414C68.3173 8.22 69.1117 7.85793 70.1876 7.85793C71.2469 7.85793 72.0311 8.21793 72.54 8.93793C73.049 9.65793 73.3035 10.7048 73.3035 12.0786C73.3035 13.4524 73.049 14.4952 72.54 15.2069L72.54 15.2069ZM141.387 8.29862C141.838 8.02966 142.382 7.89517 143.019 7.89517C143.425 7.89517 143.787 7.96965 144.106 8.11862C144.424 8.26758 144.695 8.50345 144.919 8.82621C145.142 9.14896 145.314 9.56896 145.434 10.0862C145.554 10.6034 145.614 11.2345 145.614 11.9793C145.614 12.7159 145.543 13.3552 145.403 13.8972C145.262 14.4393 145.061 14.8883 144.801 15.2441C144.54 15.6 144.223 15.8648 143.851 16.0386C143.479 16.2124 143.061 16.2993 142.597 16.2993C142.117 16.2993 141.672 16.2145 141.263 16.0448C140.853 15.8752 140.475 15.5752 140.127 15.1448L140.127 9.43448C140.516 8.94621 140.936 8.56759 141.387 8.29862L141.387 8.29862ZM44.9876 16.4497C44.7228 16.5067 44.4331 16.5352 44.1186 16.5352C43.6055 16.5352 43.1897 16.4185 42.871 16.185C42.5524 15.9517 42.3931 15.5641 42.3931 15.0223C42.3931 14.7472 42.4697 14.493 42.6228 14.2597C42.7759 14.0263 43.0345 13.8221 43.3986 13.647C43.7628 13.472 44.2448 13.3282 44.8448 13.2157C45.4448 13.1031 46.1917 13.0469 47.0855 13.0469L47.0855 15.1788C46.8621 15.4068 46.6407 15.6044 46.4214 15.7714C46.2021 15.9384 45.9745 16.079 45.7386 16.193C45.5028 16.3071 45.2524 16.3926 44.9876 16.4497L44.9876 16.4497Z" id="Shape" fill="#252F3E" fill-rule="evenodd" stroke="none" />
            </g>
            <g id="Services" transform="translate(35.633804 29.69241)">
              <path d="M54.8938 1.96138C54.8938 2.22621 54.84 2.47449 54.7324 2.70621C54.6248 2.93793 54.4821 3.14069 54.3041 3.31448C54.1262 3.48828 53.9172 3.6269 53.6773 3.73035C53.4372 3.83379 53.1807 3.88551 52.9076 3.88551C52.6428 3.88551 52.3924 3.83379 52.1566 3.73035C51.9207 3.6269 51.7159 3.48828 51.5421 3.31448C51.3683 3.14069 51.2297 2.93793 51.1262 2.70621C51.0228 2.47449 50.971 2.22621 50.971 1.96138C50.971 1.68828 51.0228 1.43172 51.1262 1.19173C51.2297 0.951722 51.3683 0.744829 51.5421 0.571031C51.7159 0.397239 51.9207 0.258621 52.1566 0.155171C52.3924 0.0517273 52.6428 0 52.9076 0C53.1807 0 53.4372 0.0517273 53.6773 0.155171C53.9172 0.258621 54.1262 0.397239 54.3041 0.571031C54.4821 0.744829 54.6248 0.951722 54.7324 1.19173C54.84 1.43172 54.8938 1.68828 54.8938 1.96138L54.8938 1.96138ZM10.6696 4.10896C10.7896 4.03448 10.8952 3.90621 10.9862 3.72414L11.8055 2.14758C11.1765 1.55172 10.4152 1.08827 9.52138 0.757241C8.62757 0.426209 7.65103 0.260688 6.59171 0.260688C5.65655 0.260688 4.82483 0.405521 4.09655 0.695174C3.36828 0.984828 2.75378 1.36965 2.2531 1.84965C1.7524 2.32965 1.37171 2.88 1.11103 3.50069C0.850346 4.12138 0.719983 4.75862 0.719983 5.41241C0.719983 6.23172 0.837929 6.92069 1.07378 7.47931C1.30965 8.03793 1.62206 8.50345 2.01102 8.87586C2.39999 9.24827 2.84274 9.55034 3.3393 9.78207C3.83585 10.0138 4.34067 10.2124 4.85379 10.3779C5.36689 10.5434 5.87173 10.6965 6.36826 10.8372C6.86481 10.9779 7.30757 11.1497 7.69656 11.3524C8.08552 11.5552 8.39793 11.8055 8.63378 12.1034C8.86965 12.4014 8.98758 12.7862 8.98758 13.2579C8.98758 14.1021 8.72689 14.7497 8.2055 15.2007C7.68414 15.6517 6.94759 15.8772 5.99586 15.8772C5.37516 15.8772 4.84344 15.7924 4.40068 15.6228C3.95792 15.4531 3.5731 15.2648 3.24621 15.0579C2.91931 14.851 2.63586 14.6628 2.39586 14.4931C2.15587 14.3234 1.93242 14.2386 1.72551 14.2386C1.56827 14.2386 1.42551 14.2779 1.29723 14.3565C1.16895 14.4352 1.0593 14.5324 0.96827 14.6483L0 16.2497C0.347585 16.6055 0.742756 16.9283 1.18551 17.2179C1.62827 17.5076 2.10413 17.7559 2.6131 17.9628C3.12208 18.1697 3.6538 18.329 4.20827 18.4407C4.76274 18.5524 5.32551 18.6083 5.89654 18.6083C6.88965 18.6083 7.77104 18.4572 8.54069 18.1552C9.31035 17.8531 9.96206 17.4393 10.4959 16.9138C11.0296 16.3883 11.4352 15.7717 11.7124 15.0641C11.9896 14.3565 12.1283 13.5972 12.1283 12.7862C12.1283 12.0414 12.0104 11.4083 11.7745 10.8869C11.5386 10.3655 11.2262 9.92482 10.8372 9.56483C10.4483 9.20483 10.0055 8.9069 9.50896 8.67104C9.01241 8.43517 8.5055 8.22827 7.98826 8.05034C7.47102 7.87241 6.96413 7.70483 6.46758 7.54758C5.97103 7.39034 5.52827 7.21241 5.13931 7.01379C4.75035 6.81517 4.43793 6.57517 4.20206 6.29379C3.96621 6.01241 3.84827 5.66069 3.84827 5.23862C3.84827 4.90759 3.90621 4.60344 4.02207 4.32621C4.13793 4.04897 4.3138 3.81103 4.54965 3.61241C4.78551 3.4138 5.07516 3.25862 5.41862 3.14689C5.76206 3.03517 6.16552 2.97931 6.62897 2.97931C7.14206 2.97931 7.5869 3.04345 7.96345 3.17172C8.33999 3.3 8.66895 3.44276 8.95034 3.6C9.23172 3.75724 9.47586 3.9 9.68277 4.02827C9.88965 4.15655 10.0759 4.22069 10.2414 4.22069C10.4069 4.22069 10.5497 4.18345 10.6696 4.10896L10.6696 4.10896ZM27.7821 18.4097L27.7821 5.67311L29.5821 5.67311C29.8966 5.67311 30.1159 5.73104 30.24 5.8469C30.3641 5.96276 30.4469 6.16138 30.4883 6.44276L30.6745 7.98207C31.1297 7.19586 31.6634 6.57517 32.2759 6.12C32.8883 5.66482 33.5752 5.43724 34.3366 5.43724C34.9655 5.43724 35.4869 5.58207 35.9007 5.87172L35.5035 8.16827C35.4786 8.31724 35.4248 8.42276 35.3421 8.48483C35.2593 8.54689 35.1476 8.57793 35.0069 8.57793C34.8828 8.57793 34.7131 8.54897 34.4979 8.49104C34.2828 8.4331 33.9972 8.40413 33.6414 8.40413C33.0041 8.40413 32.4579 8.58 32.0028 8.93172C31.5476 9.28345 31.1628 9.79862 30.8483 10.4772L30.8483 18.4097L27.7821 18.4097L27.7821 18.4097ZM21.991 5.85931C21.3166 5.60276 20.5779 5.47448 19.7752 5.47448C18.8234 5.47448 17.969 5.64 17.2117 5.97103C16.4545 6.30207 15.8131 6.75103 15.2876 7.31793C14.7621 7.88483 14.3586 8.55103 14.0772 9.31655C13.7959 10.0821 13.6552 10.8993 13.6552 11.7683C13.6552 12.8855 13.8166 13.8683 14.1393 14.7165C14.4621 15.5648 14.9048 16.2765 15.4676 16.8517C16.0303 17.4269 16.6924 17.8614 17.4538 18.1552C18.2152 18.449 19.0386 18.5959 19.9241 18.5959C20.371 18.5959 20.8324 18.5628 21.3083 18.4965C21.7841 18.4303 22.2517 18.3165 22.711 18.1552C23.1703 17.9938 23.611 17.7786 24.0331 17.5097C24.4552 17.2407 24.8359 16.9076 25.1752 16.5103L24.2814 15.3931C24.2152 15.3021 24.1365 15.2317 24.0455 15.1821C23.9545 15.1324 23.8469 15.1076 23.7227 15.1076C23.5324 15.1076 23.3359 15.1655 23.1331 15.2814C22.9303 15.3972 22.6945 15.5255 22.4255 15.6662C22.1565 15.8069 21.8421 15.9352 21.4821 16.051C21.1221 16.1669 20.6938 16.2248 20.1972 16.2248C19.1876 16.2248 18.3766 15.9186 17.7641 15.3062C17.1517 14.6938 16.8 13.7338 16.709 12.4262L24.5793 12.4262C24.72 12.4262 24.8359 12.4076 24.9269 12.3703C25.0179 12.3331 25.0904 12.271 25.1441 12.1841C25.1979 12.0972 25.2352 11.9772 25.2559 11.8241C25.2766 11.671 25.2869 11.4786 25.2869 11.2469C25.2869 10.3283 25.1503 9.51103 24.8772 8.79517C24.6041 8.07931 24.2234 7.47517 23.7352 6.98276C23.2469 6.49035 22.6655 6.11586 21.991 5.85931L21.991 5.85931ZM66.5814 8.64C66.6683 8.57379 66.7573 8.48275 66.8483 8.36689L67.6552 7.24965C67.0842 6.67862 66.4407 6.24 65.7248 5.93379C65.009 5.62758 64.1752 5.47448 63.2234 5.47448C62.2221 5.47448 61.3366 5.64 60.5669 5.97103C59.7972 6.30207 59.1517 6.75931 58.6304 7.34275C58.109 7.92621 57.7138 8.61724 57.4449 9.41586C57.1759 10.2145 57.0414 11.0814 57.0414 12.0166C57.0414 13.0593 57.1924 13.9883 57.4945 14.8034C57.7966 15.6186 58.2062 16.3076 58.7235 16.8703C59.2407 17.4331 59.8469 17.8614 60.5421 18.1552C61.2372 18.449 61.978 18.5959 62.7642 18.5959C63.211 18.5959 63.6621 18.5628 64.1173 18.4965C64.5724 18.4303 65.0131 18.3165 65.4393 18.1552C65.8655 17.9938 66.2773 17.7786 66.6745 17.5097C67.0717 17.2407 67.44 16.9076 67.7793 16.5103L66.8979 15.3931C66.7738 15.2028 66.5876 15.1076 66.3393 15.1076C66.149 15.1076 65.9772 15.1676 65.8241 15.2876C65.671 15.4076 65.4911 15.54 65.2841 15.6848C65.0772 15.8297 64.8228 15.9621 64.5207 16.0821C64.2186 16.2021 63.8234 16.2621 63.3352 16.2621C62.8469 16.2621 62.4083 16.169 62.0193 15.9828C61.6303 15.7965 61.2993 15.5234 61.0262 15.1634C60.7531 14.8034 60.5442 14.3586 60.3993 13.829C60.2545 13.2993 60.1821 12.6952 60.1821 12.0166C60.1821 11.3628 60.2483 10.7772 60.3807 10.26C60.5131 9.74276 60.7138 9.30207 60.9828 8.93793C61.2517 8.57379 61.589 8.29448 61.9945 8.1C62.4 7.90551 62.8717 7.80827 63.4097 7.80827C63.8317 7.80827 64.1855 7.85586 64.4711 7.95103C64.7566 8.04621 65.0028 8.1538 65.2097 8.27379C65.4165 8.39379 65.5945 8.50138 65.7434 8.59655C65.8924 8.69172 66.0455 8.73931 66.2028 8.73931C66.3683 8.73931 66.4945 8.70621 66.5814 8.64L66.5814 8.64ZM75.0042 5.47448C75.8069 5.47448 76.5455 5.60276 77.22 5.85931C77.8945 6.11586 78.4759 6.49035 78.9641 6.98276C79.4524 7.47517 79.8331 8.07931 80.1062 8.79517C80.3793 9.51103 80.5159 10.3283 80.5159 11.2469C80.5159 11.4786 80.5055 11.671 80.4848 11.8241C80.4641 11.9772 80.4269 12.0972 80.3731 12.1841C80.3193 12.271 80.2469 12.3331 80.1559 12.3703C80.0648 12.4076 79.949 12.4262 79.8083 12.4262L71.9379 12.4262C72.029 13.7338 72.3807 14.6938 72.9931 15.3062C73.6055 15.9186 74.4166 16.2248 75.4262 16.2248C75.9228 16.2248 76.3511 16.1669 76.711 16.051C77.071 15.9352 77.3855 15.8069 77.6545 15.6662C77.9234 15.5255 78.1593 15.3972 78.3621 15.2814C78.5648 15.1655 78.7614 15.1076 78.9517 15.1076C79.0759 15.1076 79.1835 15.1324 79.2745 15.1821C79.3655 15.2317 79.4441 15.3021 79.5104 15.3931L80.4041 16.5103C80.0648 16.9076 79.6841 17.2407 79.2621 17.5097C78.84 17.7786 78.3993 17.9938 77.94 18.1552C77.4807 18.3165 77.0131 18.4303 76.5372 18.4965C76.0614 18.5628 75.6 18.5959 75.1531 18.5959C74.2676 18.5959 73.4441 18.449 72.6828 18.1552C71.9214 17.8614 71.2593 17.4269 70.6965 16.8517C70.1338 16.2765 69.691 15.5648 69.3683 14.7165C69.0455 13.8683 68.8841 12.8855 68.8841 11.7683C68.8841 10.8993 69.0248 10.0821 69.3062 9.31655C69.5876 8.55103 69.991 7.88483 70.5166 7.31793C71.0421 6.75103 71.6835 6.30207 72.4407 5.97103C73.1979 5.64 74.0524 5.47448 75.0042 5.47448L75.0042 5.47448ZM90.3103 8.43517C90.4014 8.38138 90.4883 8.28827 90.571 8.15586L91.2662 7.05103C90.7862 6.57931 90.1862 6.19862 89.4662 5.90896C88.7462 5.61931 87.9476 5.47448 87.0704 5.47448C86.2841 5.47448 85.591 5.58 84.991 5.79103C84.391 6.00206 83.8904 6.28345 83.489 6.63517C83.0876 6.9869 82.7834 7.39862 82.5766 7.87034C82.3697 8.34207 82.2662 8.83862 82.2662 9.36C82.2662 9.92276 82.3552 10.4028 82.5331 10.8C82.711 11.1972 82.9469 11.5324 83.2407 11.8055C83.5345 12.0786 83.8697 12.3041 84.2462 12.4821C84.6228 12.66 85.0076 12.8152 85.4007 12.9476C85.7938 13.08 86.1786 13.2021 86.5552 13.3138C86.9317 13.4255 87.2669 13.5517 87.5607 13.6924C87.8545 13.8331 88.0903 13.9986 88.2683 14.189C88.4462 14.3793 88.5352 14.6234 88.5352 14.9214C88.5352 15.12 88.4959 15.3124 88.4172 15.4986C88.3386 15.6848 88.2145 15.8483 88.0448 15.989C87.8752 16.1297 87.66 16.2434 87.3993 16.3303C87.1386 16.4172 86.8262 16.4607 86.4621 16.4607C85.9986 16.4607 85.6159 16.4069 85.3138 16.2993C85.0117 16.1917 84.749 16.0759 84.5255 15.9517C84.3021 15.8276 84.1055 15.7117 83.9359 15.6041C83.7662 15.4965 83.5862 15.4428 83.3959 15.4428C83.2055 15.4428 83.0483 15.48 82.9241 15.5545C82.8 15.629 82.6924 15.7365 82.6014 15.8772L81.8938 17.0441C82.1421 17.2676 82.4297 17.4745 82.7565 17.6648C83.0834 17.8552 83.4393 18.0207 83.8242 18.1614C84.209 18.3021 84.6103 18.4117 85.0283 18.4903C85.4462 18.569 85.8745 18.6083 86.3131 18.6083C87.1324 18.6083 87.8586 18.5028 88.4917 18.2917C89.1248 18.0807 89.6566 17.7869 90.0869 17.4103C90.5173 17.0338 90.8442 16.5869 91.0676 16.0697C91.291 15.5524 91.4028 14.9876 91.4028 14.3752C91.4028 13.8621 91.3138 13.4234 91.1359 13.0593C90.9579 12.6952 90.7221 12.3828 90.4283 12.1221C90.1345 11.8614 89.8014 11.6462 89.429 11.4765C89.0566 11.3069 88.6759 11.1559 88.2869 11.0234C87.8979 10.891 87.5173 10.769 87.1448 10.6572C86.7724 10.5455 86.4393 10.4193 86.1455 10.2786C85.8517 10.1379 85.6159 9.97448 85.4379 9.78827C85.26 9.60207 85.171 9.37241 85.171 9.09931C85.171 8.68552 85.3448 8.35034 85.6924 8.09379C86.04 7.83724 86.5159 7.70896 87.12 7.70896C87.509 7.70896 87.8462 7.75034 88.1317 7.8331C88.4172 7.91586 88.6717 8.00896 88.8952 8.11241C89.1186 8.21586 89.3152 8.30896 89.4848 8.39172C89.6545 8.47448 89.8138 8.51586 89.9628 8.51586C90.1035 8.51586 90.2193 8.48896 90.3103 8.43517L90.3103 8.43517ZM41.5241 18.4097L44.3048 18.4097L49.3572 5.67311L46.9366 5.67311C46.7297 5.67311 46.5517 5.7269 46.4028 5.83448C46.2538 5.94207 46.1504 6.07862 46.0924 6.24414L43.5724 13.0469C43.4235 13.4441 43.3014 13.8331 43.2062 14.2138C43.111 14.5945 43.0262 14.9752 42.9517 15.3559C42.8772 14.9752 42.7924 14.5945 42.6972 14.2138C42.6021 13.8331 42.4841 13.4441 42.3434 13.0469L39.8855 6.24414C39.8276 6.07862 39.7221 5.94207 39.569 5.83448C39.4159 5.7269 39.2276 5.67311 39.0041 5.67311L36.4593 5.67311L41.5241 18.4097L41.5241 18.4097ZM54.4345 5.67311L54.4345 18.4097L51.3683 18.4097L51.3683 5.67311L54.4345 5.67311L54.4345 5.67311ZM17.7393 8.42896C18.2441 7.92413 18.9434 7.67172 19.8372 7.67172C20.2924 7.67172 20.6897 7.74827 21.029 7.90138C21.3683 8.05448 21.6497 8.26345 21.8731 8.52828C22.0965 8.7931 22.2621 9.10138 22.3697 9.4531C22.4772 9.80483 22.531 10.1793 22.531 10.5765L16.771 10.5765C16.9117 9.64965 17.2345 8.93379 17.7393 8.42896L17.7393 8.42896ZM75.0662 7.67172C74.1724 7.67172 73.4731 7.92413 72.9683 8.42896C72.4635 8.93379 72.1407 9.64965 72 10.5765L77.76 10.5765C77.76 10.1793 77.7062 9.80483 77.5986 9.4531C77.4911 9.10138 77.3255 8.7931 77.1021 8.52828C76.8786 8.26345 76.5973 8.05448 76.2579 7.90138C75.9186 7.74827 75.5214 7.67172 75.0662 7.67172L75.0662 7.67172Z" id="Shape" fill="#252F3E" fill-rule="evenodd" stroke="none" />
            </g>
          </g>
        </g>
      </g>
    </g>
  </g>
</svg>