<?xml version="1.0" encoding="utf-8"?>
<svg width="366px" height="100px" viewbox="0 0 366 100" version="1.1" xmlns:xlink="http://www.w3.org/1999/xlink" xmlns="http://www.w3.org/2000/svg">
  <defs>
    <path d="M0 0L365.455 0L365.455 100L0 100L0 0Z" id="path_1" />
    <path d="M0 0L154.545 0L154.545 90.9091L0 90.9091L0 0L0 0Z" id="path_2" />
    <path d="M0 0L154.161 0L154.161 90.9091L0 90.9091L0 0L0 0L0 0Z" id="path_3" />
    <clipPath id="mask_1">
      <use xlink:href="#path_1" />
    </clipPath>
    <clipPath id="mask_2">
      <use xlink:href="#path_2" />
    </clipPath>
    <clipPath id="mask_3">
      <use xlink:href="#path_3" />
    </clipPath>
  </defs>
  <g id="svg-2">
    <g id="Mask-group">
      <path d="M0 0L365.455 0L365.455 100L0 100L0 0Z" id="slice_1" fill="none" fill-rule="evenodd" stroke="none" />
      <g clip-path="url(#mask_1)">
        <g id="Slice">
          <path d="M0 0L365.455 0L365.455 100L0 100L0 0Z" id="slice_1" fill="none" fill-rule="evenodd" stroke="none" />
          <g id="aws" transform="translate(0 4.5454545)">
            <path d="M0 0L154.545 0L154.545 90.9091L0 90.9091L0 0L0 0Z" id="Background" fill="none" fill-rule="evenodd" stroke="none" />
            <g id="Mask-group">
              <path d="M0 0L154.545 0L154.545 90.9091L0 90.9091L0 0L0 0Z" id="path_1" fill="none" fill-rule="evenodd" stroke="none" />
              <g clip-path="url(#mask_2)">
                <g id="Group">
                  <g id="aws#1">
                    <path d="M0 0L154.161 0L154.161 90.9091L0 90.9091L0 0L0 0L0 0Z" id="Background#1" fill="none" fill-rule="evenodd" stroke="none" />
                    <g id="Mask-group">
                      <path d="M0 0L154.161 0L154.161 90.9091L0 90.9091L0 0L0 0L0 0Z" id="path_1#1" fill="none" fill-rule="evenodd" stroke="none" />
                      <g id="Mask-group">
                        <path d="M0 0L154.161 0L154.161 90.9091L0 90.9091L0 0L0 0L0 0Z" id="path_2" fill="none" fill-rule="evenodd" stroke="none" />
                        <g clip-path="url(#mask_3)">
                          <g id="Group" transform="translate(0.893985 -1.3871627E-05)">
                            <g id="Group">
                              <path d="M36.5558 33.0165C36.5558 34.8872 36.7581 36.4041 37.112 37.5164C37.5165 38.6287 38.0221 39.8422 38.73 41.1568C38.9827 41.5613 39.0839 41.9658 39.0839 42.3197C39.0839 42.8254 38.7806 43.3309 38.1233 43.8365L34.9378 45.9601C34.4828 46.2635 34.0277 46.4152 33.6233 46.4152C33.1176 46.4152 32.612 46.1624 32.1065 45.7073C31.3985 44.9489 30.7918 44.1399 30.2862 43.3309C29.7806 42.4714 29.275 41.5107 28.7188 40.3478C24.775 44.9995 19.82 47.3253 13.8538 47.3253C9.60664 47.3253 6.21904 46.1118 3.74154 43.6849C1.26404 41.2579 0 38.022 0 33.9771C0 29.6795 1.51684 26.1907 4.60108 23.5615C7.68532 20.9324 11.7808 19.6177 16.9886 19.6177C18.7077 19.6177 20.4774 19.7695 22.3481 20.0223C24.2189 20.275 26.1402 20.6795 28.1626 21.1345L28.1626 17.4436C28.1626 13.601 27.3536 10.9212 25.7863 9.35382C24.1683 7.78643 21.438 7.02801 17.5448 7.02801C15.7751 7.02801 13.9549 7.23026 12.0842 7.68531C10.2134 8.14036 8.39318 8.69653 6.62354 9.40436C5.81456 9.75827 5.20782 9.96055 4.85389 10.0617C4.49996 10.1628 4.24716 10.2134 4.04491 10.2134C3.33706 10.2134 2.98312 9.70773 2.98312 8.64597L2.98312 6.16847C2.98312 5.35949 3.08425 4.75276 3.33706 4.39883C3.58986 4.0449 4.04491 3.69097 4.75276 3.33705C6.52241 2.42695 8.64599 1.66853 11.1235 1.06179C13.601 0.404498 16.2302 0.10113 19.0111 0.10113C25.0278 0.10113 29.4267 1.46628 32.2581 4.19658C35.039 6.92689 36.4547 11.0729 36.4547 16.6346L36.4547 33.0165L36.5558 33.0165L36.5558 33.0165L36.5558 33.0165ZM16.0279 40.7017C17.6965 40.7017 19.4155 40.3984 21.2357 39.7916C23.0559 39.1849 24.6739 38.0725 26.0391 36.5557C26.8481 35.5951 27.4548 34.5333 27.7582 33.3198C28.0615 32.1064 28.2637 30.6401 28.2637 28.921L28.2637 26.7975C26.7975 26.4435 25.2301 26.1401 23.6121 25.9379C21.9942 25.7356 20.4267 25.6345 18.8594 25.6345C15.4717 25.6345 12.9943 26.2918 11.3257 27.657C9.65718 29.0221 8.84823 30.9435 8.84823 33.4715C8.84823 35.8479 9.455 37.6175 10.719 38.831C11.9325 40.095 13.7021 40.7017 16.0279 40.7017L16.0279 40.7017L16.0279 40.7017L16.0279 40.7017ZM56.6286 46.1624C55.7186 46.1624 55.1118 46.0107 54.7073 45.6568C54.3028 45.3535 53.9489 44.6455 53.6456 43.6849L41.7636 4.60107C41.4603 3.58985 41.3085 2.93255 41.3085 2.57863C41.3085 1.76965 41.7131 1.3146 42.5221 1.3146L47.4771 1.3146C48.4377 1.3146 49.095 1.46628 49.4489 1.82021C49.8535 2.12357 50.1568 2.83144 50.4602 3.79209L58.9545 37.2636L66.842 3.7921C67.0948 2.78087 67.3982 2.12357 67.8026 1.82021C68.2072 1.51685 68.915 1.3146 69.8251 1.3146L73.87 1.3146C74.8307 1.3146 75.488 1.46628 75.8925 1.82021C76.297 2.12357 76.6509 2.83144 76.8532 3.7921L84.8418 37.6681L93.5891 3.7921C93.8927 2.78087 94.2464 2.12357 94.6 1.82021C95.0046 1.51685 95.6618 1.3146 96.5718 1.3146L101.275 1.3146C102.084 1.3146 102.538 1.71908 102.538 2.57863C102.538 2.83144 102.487 3.08424 102.437 3.38761C102.386 3.69097 102.285 4.09546 102.084 4.65164L89.8979 43.7355C89.5946 44.7467 89.2406 45.404 88.8362 45.7074C88.4316 46.0107 87.7744 46.213 86.9148 46.213L82.5665 46.213C81.6059 46.213 80.9486 46.0613 80.5441 45.7074C80.1396 45.3535 79.7857 44.6961 79.5835 43.6849L71.7465 11.0729L63.96 43.6344C63.7072 44.6455 63.4038 45.3028 62.9994 45.6568C62.5949 46.0107 61.887 46.1624 60.9769 46.1624L56.6286 46.1624L56.6286 46.1624L56.6286 46.1624ZM121.6 47.5275C118.971 47.5275 116.342 47.2242 113.814 46.6175C111.285 46.0106 109.314 45.3534 107.999 44.595C107.19 44.1399 106.634 43.6343 106.432 43.1793C106.229 42.7242 106.128 42.2185 106.128 41.7635L106.128 39.1849C106.128 38.1231 106.533 37.6175 107.291 37.6175C107.595 37.6175 107.898 37.6681 108.201 37.7692C108.505 37.8704 108.96 38.0725 109.465 38.2748C111.185 39.0333 113.055 39.64 115.027 40.0445C117.049 40.4489 119.021 40.6512 121.044 40.6512C124.229 40.6512 126.706 40.095 128.425 38.9826C130.145 37.8704 131.055 36.2524 131.055 34.1794C131.055 32.7636 130.6 31.6007 129.69 30.6401C128.78 29.6795 127.061 28.8199 124.583 28.0109L117.252 25.7356C113.561 24.5727 110.83 22.8536 109.162 20.5784C107.494 18.3537 106.634 15.8762 106.634 13.247C106.634 11.1235 107.089 9.25273 107.999 7.63474C108.909 6.01678 110.123 4.60106 111.639 3.48872C113.156 2.32582 114.875 1.46627 116.897 0.85954C118.92 0.252806 121.044 0 123.268 0C124.381 0 125.544 0.0505612 126.656 0.202244C127.819 0.353928 128.881 0.556173 129.943 0.758418C130.954 1.01123 131.915 1.26403 132.825 1.5674C133.735 1.87076 134.443 2.17413 134.948 2.4775C135.656 2.88199 136.162 3.28647 136.465 3.74153C136.768 4.14602 136.92 4.70219 136.92 5.41005L136.92 7.78642C136.92 8.84821 136.515 9.40436 135.757 9.40436C135.353 9.40436 134.695 9.20218 133.835 8.79765C130.954 7.48306 127.718 6.82576 124.128 6.82576C121.246 6.82576 118.971 7.28081 117.404 8.24147C115.836 9.20209 115.027 10.6685 115.027 12.7415C115.027 14.1571 115.533 15.3706 116.544 16.3313C117.555 17.2919 119.425 18.2525 122.105 19.1121L129.285 21.3874C132.925 22.5503 135.555 24.1683 137.123 26.2413C138.69 28.3143 139.448 30.6906 139.448 33.3198C139.448 35.4939 138.993 37.4658 138.134 39.1849C137.224 40.904 136.01 42.4208 134.443 43.6343C132.875 44.8984 131.005 45.8085 128.83 46.4657C126.555 47.1735 124.178 47.5275 121.6 47.5275L121.6 47.5275L121.6 47.5275L121.6 47.5275Z" transform="translate(6.2855806 0)" id="Shape" fill="#252F3E" fill-rule="evenodd" stroke="none" />
                              <g id="Group#1" transform="translate(0 56.6752)">
                                <path d="M137.442 12.4164C120.807 24.7027 96.6391 31.2252 75.8582 31.2252C46.7348 31.2252 20.4935 20.4556 0.673485 2.55691C-0.893916 1.14119 0.521802 -0.78014 2.39257 0.332212C23.8305 12.7703 50.2741 20.3039 77.6278 20.3039C96.0827 20.3039 116.358 16.4613 135.015 8.5737C137.795 7.30967 140.172 10.3939 137.442 12.4164L137.442 12.4164L137.442 12.4164L137.442 12.4164Z" transform="translate(0 3.008749)" id="Shape#1" fill="#FF9900" fill-rule="evenodd" stroke="none" />
                                <path d="M20.838 7.53756C18.7145 4.80723 6.78198 6.22296 1.3719 6.88026C-0.246055 7.08251 -0.498851 5.66679 0.967421 4.60499C10.4729 -2.06909 26.0964 -0.147761 27.9166 2.07693C29.7368 4.35219 27.411 19.9756 18.5122 27.4587C17.147 28.6216 15.8324 28.0149 16.4392 26.498C18.4616 21.4925 22.9615 10.2173 20.838 7.53756L20.838 7.53756L20.838 7.53756L20.838 7.53756Z" transform="translate(123.53068 0)" id="Shape#2" fill="#FF9900" fill-rule="evenodd" stroke="none" />
                              </g>
                            </g>
                          </g>
                        </g>
                      </g>
                    </g>
                  </g>
                </g>
              </g>
            </g>
          </g>
          <g id="Amazon-Web-Services" transform="translate(163.73456 17.96909)">
            <g id="Amazon-Web">
              <path d="M180.671 0L180.671 24.3164L183.338 24.3164C183.611 24.3164 183.826 24.2564 183.985 24.1364C184.143 24.0164 184.255 23.8146 184.32 23.5309L184.5 22.4018C184.773 22.7291 185.059 23.0264 185.359 23.2936C185.659 23.5609 185.984 23.7873 186.333 23.9727C186.682 24.1582 187.069 24.3027 187.495 24.4064C187.92 24.51 188.389 24.5618 188.902 24.5618C190.004 24.5618 190.999 24.3409 191.888 23.8991C192.777 23.4573 193.535 22.8436 194.163 22.0582C194.79 21.2727 195.273 20.3455 195.611 19.2764C195.949 18.2073 196.118 17.0455 196.118 15.7909C196.118 14.4164 195.968 13.2 195.668 12.1418C195.368 11.0836 194.943 10.1945 194.392 9.47455C193.841 8.75455 193.186 8.20636 192.428 7.83C191.67 7.45364 190.833 7.26546 189.916 7.26546C188.793 7.26546 187.811 7.47546 186.971 7.89546C186.131 8.31546 185.378 8.88 184.713 9.58909L184.713 0L180.671 0L180.671 0ZM23.0891 24.3164L19.6854 24.3164C19.3036 24.3164 18.99 24.2209 18.7445 24.03C18.4991 23.8391 18.3218 23.6018 18.2127 23.3182L16.4455 18.4909L6.64363 18.4909L4.87636 23.3182C4.7891 23.5691 4.61727 23.7982 4.36091 24.0055C4.10455 24.2127 3.79091 24.3164 3.41999 24.3164L0 24.3164L9.29454 0.654547L13.7945 0.654547L23.0891 24.3164L23.0891 24.3164ZM130.615 0.654547L126.916 0.654547L134.264 24.3164L138.24 24.3164L143.46 8.14909C143.525 7.94182 143.594 7.71818 143.665 7.47818C143.735 7.23818 143.804 6.98182 143.869 6.70909C143.935 6.98182 144.003 7.23818 144.074 7.47818C144.145 7.71818 144.213 7.94182 144.278 8.14909L149.449 24.3164L153.425 24.3164L160.773 0.654547L157.32 0.654547C156.949 0.654547 156.633 0.752728 156.371 0.949093C156.109 1.14546 155.94 1.38 155.864 1.65273L151.838 15.8073C151.751 16.1455 151.666 16.5109 151.585 16.9036C151.503 17.2964 151.424 17.7055 151.347 18.1309C151.173 17.28 150.965 16.5055 150.725 15.8073L146.111 1.65273C146.013 1.34727 145.838 1.10455 145.587 0.924547C145.336 0.744546 145.02 0.654547 144.638 0.654547L143.345 0.654547C142.975 0.654547 142.661 0.758183 142.405 0.965455C142.148 1.17273 141.976 1.40182 141.889 1.65273L137.242 15.8073C137.122 16.1564 137.01 16.5355 136.906 16.9445C136.803 17.3536 136.707 17.7873 136.62 18.2455C136.544 17.7873 136.465 17.3536 136.383 16.9445C136.301 16.5355 136.211 16.1564 136.113 15.8073L132.087 1.65273C132 1.34727 131.828 1.10455 131.572 0.924547C131.315 0.744546 130.996 0.654547 130.615 0.654547L130.615 0.654547ZM7.77273 15.3818L15.3164 15.3818L12.4364 7.51091C12.3055 7.16182 12.1609 6.75 12.0027 6.27545C11.8445 5.80091 11.6891 5.28546 11.5364 4.72909C11.3836 5.28546 11.2336 5.80364 11.0864 6.28364C10.9391 6.76364 10.7945 7.18364 10.6527 7.54364L7.77273 15.3818L7.77273 15.3818ZM64.1945 24.3164L66.0109 24.3164L66.0109 13.7127C66.0109 12.7636 65.8718 11.8909 65.5936 11.0945C65.3155 10.2982 64.9091 9.61364 64.3745 9.04091C63.84 8.46818 63.1882 8.02091 62.4191 7.69909C61.65 7.37727 60.7745 7.21637 59.7927 7.21637C57.0655 7.21637 54.7364 8.1 52.8055 9.86728L53.5418 11.16C53.6618 11.3673 53.82 11.5418 54.0164 11.6836C54.2127 11.8255 54.4473 11.8964 54.72 11.8964C55.0473 11.8964 55.3473 11.82 55.62 11.6673C55.8927 11.5145 56.19 11.3427 56.5118 11.1518C56.8336 10.9609 57.2127 10.7891 57.6491 10.6364C58.0855 10.4836 58.6309 10.4073 59.2854 10.4073C60.1909 10.4073 60.8809 10.6793 61.3555 11.2234C61.83 11.7675 62.0673 12.6057 62.0673 13.738L62.0673 14.7273C60.1582 14.7273 58.56 14.8915 57.2727 15.2198C55.9855 15.5482 54.9545 15.9614 54.18 16.4594C53.4055 16.9574 52.8518 17.5156 52.5191 18.134C52.1864 18.7524 52.02 19.379 52.02 20.014C52.02 20.7691 52.14 21.4313 52.38 22.0005C52.62 22.5698 52.9555 23.0459 53.3864 23.429C53.8173 23.8121 54.3327 24.0994 54.9327 24.2909C55.5327 24.4824 56.1873 24.5782 56.8964 24.5782C57.4964 24.5782 58.0418 24.5291 58.5327 24.4309C59.0236 24.3327 59.4873 24.1855 59.9236 23.9891C60.36 23.7927 60.7827 23.55 61.1918 23.2609C61.6009 22.9718 62.0182 22.6364 62.4436 22.2545L62.8036 23.4491C62.9127 23.7982 63.0764 24.03 63.2945 24.1445C63.5127 24.2591 63.8127 24.3164 64.1945 24.3164L64.1945 24.3164ZM25.2982 24.3164L25.2982 7.52727L27.7691 7.52727C28.2927 7.52727 28.6364 7.77273 28.8 8.26364L29.0618 9.50727C29.3564 9.18 29.6645 8.88 29.9864 8.60727C30.3082 8.33455 30.6518 8.1 31.0173 7.90364C31.3827 7.70727 31.7755 7.55182 32.1954 7.43727C32.6155 7.32273 33.0764 7.26546 33.5782 7.26546C34.6364 7.26546 35.5064 7.55182 36.1882 8.12455C36.87 8.69727 37.38 9.45818 37.7182 10.4073C37.98 9.85091 38.3073 9.37364 38.7 8.97546C39.0927 8.57727 39.5236 8.25273 39.9927 8.00182C40.4618 7.75091 40.9609 7.56546 41.49 7.44546C42.0191 7.32546 42.5509 7.26546 43.0854 7.26546C44.0127 7.26546 44.8364 7.40728 45.5564 7.69091C46.2764 7.97455 46.8818 8.38909 47.3727 8.93455C47.8636 9.48 48.2373 10.1455 48.4936 10.9309C48.75 11.7164 48.8782 12.6164 48.8782 13.6309L48.8782 24.3164L44.8364 24.3164L44.8364 13.6309C44.8364 12.5618 44.6018 11.7573 44.1327 11.2173C43.6636 10.6773 42.9764 10.4073 42.0709 10.4073C41.6564 10.4073 41.2718 10.4782 40.9173 10.62C40.5627 10.7618 40.2518 10.9664 39.9845 11.2336C39.7173 11.5009 39.5073 11.8364 39.3545 12.24C39.2018 12.6436 39.1255 13.1073 39.1255 13.6309L39.1255 24.3164L35.0673 24.3164L35.0673 13.6309C35.0673 12.5073 34.8409 11.6891 34.3882 11.1764C33.9355 10.6636 33.2673 10.4073 32.3836 10.4073C31.8054 10.4073 31.2627 10.5518 30.7554 10.8409C30.2482 11.13 29.7764 11.5255 29.34 12.0273L29.34 24.3164L25.2982 24.3164L25.2982 24.3164ZM95.9318 7.87091C94.9118 7.46727 93.7746 7.26546 92.52 7.26546C91.2655 7.26546 90.1255 7.46727 89.1 7.87091C88.0745 8.27455 87.1991 8.84727 86.4736 9.58909C85.7482 10.3309 85.1864 11.2364 84.7882 12.3055C84.39 13.3745 84.1909 14.5691 84.1909 15.8891C84.1909 17.22 84.39 18.42 84.7882 19.4891C85.1864 20.5582 85.7482 21.4691 86.4736 22.2218C87.1991 22.9745 88.0745 23.5527 89.1 23.9564C90.1255 24.36 91.2655 24.5618 92.52 24.5618C93.7746 24.5618 94.9118 24.36 95.9318 23.9564C96.9518 23.5527 97.8218 22.9745 98.5418 22.2218C99.2618 21.4691 99.8182 20.5582 100.211 19.4891C100.604 18.42 100.8 17.22 100.8 15.8891C100.8 14.5691 100.604 13.3745 100.211 12.3055C99.8182 11.2364 99.2618 10.3309 98.5418 9.58909C97.8218 8.84727 96.9518 8.27455 95.9318 7.87091L95.9318 7.87091ZM103.958 7.52727L106.429 7.52727C106.953 7.52727 107.296 7.77273 107.46 8.26364L107.738 9.58909C108.076 9.24 108.434 8.92364 108.81 8.64C109.186 8.35637 109.585 8.11091 110.005 7.90364C110.425 7.69637 110.875 7.53818 111.355 7.42909C111.835 7.32 112.358 7.26546 112.925 7.26546C113.842 7.26546 114.655 7.42091 115.364 7.73182C116.073 8.04273 116.665 8.47909 117.139 9.04091C117.614 9.60273 117.974 10.2736 118.219 11.0536C118.465 11.8336 118.587 12.6927 118.587 13.6309L118.587 24.3164L114.545 24.3164L114.545 13.6309C114.545 12.6055 114.308 11.8118 113.834 11.25C113.359 10.6882 112.647 10.4073 111.698 10.4073C111 10.4073 110.345 10.5655 109.735 10.8818C109.124 11.1982 108.545 11.6291 108 12.1745L108 24.3164L103.958 24.3164L103.958 7.52727L103.958 7.52727ZM170.067 7.26546C171.125 7.26546 172.099 7.43455 172.988 7.77273C173.877 8.11091 174.644 8.60455 175.287 9.25364C175.931 9.90273 176.433 10.6991 176.793 11.6427C177.153 12.5864 177.333 13.6636 177.333 14.8745C177.333 15.18 177.319 15.4336 177.292 15.6355C177.265 15.8373 177.215 15.9955 177.145 16.11C177.074 16.2245 176.978 16.3064 176.858 16.3555C176.738 16.4045 176.585 16.4291 176.4 16.4291L166.025 16.4291C166.145 18.1527 166.609 19.4182 167.416 20.2255C168.224 21.0327 169.293 21.4364 170.624 21.4364C171.278 21.4364 171.843 21.36 172.317 21.2073C172.792 21.0545 173.206 20.8855 173.561 20.7C173.915 20.5145 174.226 20.3455 174.494 20.1927C174.761 20.04 175.02 19.9636 175.271 19.9636C175.435 19.9636 175.576 19.9964 175.696 20.0618C175.816 20.1273 175.92 20.22 176.007 20.34L177.185 21.8127C176.738 22.3364 176.236 22.7755 175.68 23.13C175.124 23.4845 174.543 23.7682 173.937 23.9809C173.332 24.1936 172.715 24.3436 172.088 24.4309C171.461 24.5182 170.853 24.5618 170.264 24.5618C169.096 24.5618 168.011 24.3682 167.007 23.9809C166.004 23.5936 165.131 23.0209 164.389 22.2627C163.647 21.5045 163.064 20.5664 162.638 19.4482C162.213 18.33 162 17.0345 162 15.5618C162 14.4164 162.185 13.3391 162.556 12.33C162.927 11.3209 163.459 10.4427 164.152 9.69546C164.845 8.94818 165.69 8.35637 166.688 7.92C167.686 7.48364 168.813 7.26546 170.067 7.26546L170.067 7.26546ZM82.1291 9.19637C82.1291 9.48 82.0773 9.75546 81.9736 10.0227C81.87 10.29 81.7473 10.5164 81.6055 10.7018L73.62 21.2073L81.9 21.2073L81.9 24.3164L68.9236 24.3164L68.9236 22.6309C68.9236 22.4455 68.9673 22.2245 69.0545 21.9682C69.1418 21.7118 69.2782 21.4691 69.4636 21.24L77.5145 10.62L69.3982 10.62L69.3982 7.52727L82.1291 7.52727L82.1291 9.19637L82.1291 9.19637ZM170.149 10.1618C168.971 10.1618 168.049 10.4945 167.384 11.16C166.718 11.8255 166.293 12.7691 166.107 13.9909L173.7 13.9909C173.7 13.4673 173.629 12.9736 173.487 12.51C173.345 12.0464 173.127 11.64 172.833 11.2909C172.538 10.9418 172.167 10.6664 171.72 10.4645C171.273 10.2627 170.749 10.1618 170.149 10.1618L170.149 10.1618ZM95.6209 20.0455C94.95 20.9836 93.9164 21.4527 92.52 21.4527C91.1018 21.4527 90.0546 20.9809 89.3782 20.0373C88.7018 19.0936 88.3636 17.7218 88.3636 15.9218C88.3636 14.1218 88.7018 12.7445 89.3782 11.79C90.0546 10.8355 91.1018 10.3582 92.52 10.3582C93.9164 10.3582 94.95 10.8327 95.6209 11.7818C96.2918 12.7309 96.6273 14.1109 96.6273 15.9218C96.6273 17.7327 96.2918 19.1073 95.6209 20.0455L95.6209 20.0455ZM186.374 10.9391C186.968 10.5845 187.685 10.4073 188.525 10.4073C189.06 10.4073 189.537 10.5055 189.957 10.7018C190.377 10.8982 190.735 11.2091 191.029 11.6345C191.324 12.06 191.55 12.6136 191.708 13.2955C191.866 13.9773 191.945 14.8091 191.945 15.7909C191.945 16.7618 191.853 17.6045 191.667 18.3191C191.482 19.0336 191.217 19.6255 190.874 20.0946C190.53 20.5636 190.113 20.9127 189.622 21.1418C189.131 21.3709 188.58 21.4855 187.969 21.4855C187.336 21.4855 186.75 21.3736 186.21 21.15C185.67 20.9264 185.171 20.5309 184.713 19.9636L184.713 12.4364C185.225 11.7927 185.779 11.2936 186.374 10.9391L186.374 10.9391ZM59.3018 21.6836C58.9527 21.7588 58.5709 21.7964 58.1564 21.7964C57.48 21.7964 56.9318 21.6425 56.5118 21.3348C56.0918 21.0272 55.8818 20.5163 55.8818 19.8021C55.8818 19.4395 55.9827 19.1044 56.1845 18.7968C56.3864 18.4892 56.7273 18.2201 57.2073 17.9893C57.6873 17.7585 58.3227 17.5689 59.1136 17.4206C59.9045 17.2723 60.8891 17.1982 62.0673 17.1982L62.0673 20.0084C61.7727 20.309 61.4809 20.5695 61.1918 20.7896C60.9027 21.0098 60.6027 21.195 60.2918 21.3454C59.9809 21.4957 59.6509 21.6084 59.3018 21.6836L59.3018 21.6836Z" id="Shape" fill="#252F3E" fill-rule="evenodd" stroke="none" />
            </g>
            <g id="Services" transform="translate(0.490903 39.140003)">
              <path d="M72.36 2.58546C72.36 2.93455 72.2891 3.26182 72.1473 3.56728C72.0055 3.87273 71.8173 4.14 71.5827 4.36909C71.3482 4.59819 71.0727 4.78091 70.7564 4.91728C70.44 5.05364 70.1018 5.12181 69.7418 5.12181C69.3927 5.12181 69.0627 5.05364 68.7518 4.91728C68.4409 4.78091 68.1709 4.59819 67.9418 4.36909C67.7127 4.14 67.53 3.87273 67.3936 3.56728C67.2573 3.26182 67.1891 2.93455 67.1891 2.58546C67.1891 2.22546 67.2573 1.88727 67.3936 1.57091C67.53 1.25454 67.7127 0.98182 67.9418 0.752727C68.1709 0.523637 68.4409 0.340909 68.7518 0.204544C69.0627 0.0681825 69.3927 0 69.7418 0C70.1018 0 70.44 0.0681825 70.7564 0.204544C71.0727 0.340909 71.3482 0.523637 71.5827 0.752727C71.8173 0.98182 72.0055 1.25454 72.1473 1.57091C72.2891 1.88727 72.36 2.22546 72.36 2.58546L72.36 2.58546ZM14.0646 5.41636C14.2227 5.31818 14.3618 5.14909 14.4818 4.90909L15.5618 2.83091C14.7327 2.04545 13.7291 1.43454 12.5509 0.998182C11.3727 0.561818 10.0855 0.343638 8.68909 0.343638C7.45637 0.343638 6.36 0.534547 5.4 0.916363C4.44 1.29818 3.63001 1.80545 2.97 2.43818C2.31 3.07091 1.80818 3.79637 1.46455 4.61454C1.12091 5.43273 0.949097 6.27273 0.949097 7.13455C0.949097 8.21455 1.10456 9.12272 1.41546 9.85909C1.72637 10.5955 2.13819 11.2091 2.65091 11.7C3.16365 12.1909 3.74728 12.5891 4.40183 12.8945C5.05637 13.2 5.72182 13.4618 6.39819 13.68C7.07454 13.8982 7.74001 14.1 8.39455 14.2855C9.0491 14.4709 9.63274 14.6973 10.1455 14.9645C10.6582 15.2318 11.07 15.5618 11.3809 15.9545C11.6918 16.3473 11.8473 16.8545 11.8473 17.4764C11.8473 18.5891 11.5036 19.4427 10.8164 20.0373C10.1291 20.6318 9.15819 20.9291 7.90364 20.9291C7.08546 20.9291 6.38455 20.8173 5.80092 20.5936C5.21727 20.37 4.71 20.1218 4.27909 19.8491C3.84818 19.5764 3.47455 19.3282 3.15818 19.1045C2.84182 18.8809 2.54727 18.7691 2.27454 18.7691C2.06727 18.7691 1.87909 18.8209 1.71001 18.9245C1.54092 19.0282 1.39637 19.1564 1.27637 19.3091L0 21.42C0.45818 21.8891 0.979101 22.3145 1.56274 22.6964C2.14637 23.0782 2.77365 23.4055 3.44455 23.6782C4.11546 23.9509 4.81637 24.1609 5.54728 24.3082C6.27819 24.4555 7.02 24.5291 7.77273 24.5291C9.08182 24.5291 10.2436 24.33 11.2582 23.9318C12.2727 23.5336 13.1318 22.9882 13.8355 22.2955C14.5391 21.6027 15.0736 20.79 15.4391 19.8573C15.8046 18.9245 15.9873 17.9236 15.9873 16.8545C15.9873 15.8727 15.8318 15.0382 15.5209 14.3509C15.21 13.6636 14.7982 13.0827 14.2855 12.6082C13.7727 12.1336 13.1891 11.7409 12.5346 11.43C11.88 11.1191 11.2118 10.8464 10.53 10.6118C9.84819 10.3773 9.18001 10.1564 8.52546 9.94909C7.87091 9.74181 7.28728 9.50727 6.77456 9.24546C6.26182 8.98363 5.85001 8.66728 5.53909 8.29636C5.22819 7.92545 5.07273 7.46182 5.07273 6.90546C5.07273 6.4691 5.14909 6.06818 5.30182 5.70273C5.45455 5.33728 5.68637 5.02364 5.99727 4.76182C6.30819 4.5 6.69001 4.29545 7.14274 4.14818C7.59547 4.00091 8.12728 3.92727 8.73818 3.92727C9.41455 3.92727 10.0009 4.01182 10.4973 4.18091C10.9936 4.35 11.4273 4.53818 11.7982 4.74546C12.1691 4.95273 12.4909 5.14091 12.7636 5.31C13.0364 5.47909 13.2818 5.56364 13.5 5.56364C13.7182 5.56364 13.9064 5.51455 14.0646 5.41636L14.0646 5.41636ZM36.6218 24.2673L36.6218 7.47819L38.9945 7.47819C39.4091 7.47819 39.6982 7.55455 39.8618 7.70728C40.0255 7.86 40.1345 8.12182 40.1891 8.49273L40.4346 10.5218C41.0345 9.48545 41.7382 8.66728 42.5455 8.06727C43.3527 7.46727 44.2582 7.16727 45.2618 7.16727C46.0909 7.16727 46.7782 7.35818 47.3236 7.74L46.8 10.7673C46.7673 10.9636 46.6964 11.1027 46.5873 11.1845C46.4782 11.2664 46.3309 11.3073 46.1455 11.3073C45.9818 11.3073 45.7582 11.2691 45.4746 11.1927C45.1909 11.1164 44.8146 11.0782 44.3455 11.0782C43.5055 11.0782 42.7855 11.31 42.1855 11.7736C41.5855 12.2373 41.0782 12.9164 40.6636 13.8109L40.6636 24.2673L36.6218 24.2673L36.6218 24.2673ZM28.9882 7.72364C28.0991 7.38546 27.1255 7.21636 26.0673 7.21636C24.8127 7.21636 23.6864 7.43455 22.6882 7.87091C21.69 8.30727 20.8445 8.89909 20.1518 9.64636C19.4591 10.3936 18.9273 11.2718 18.5564 12.2809C18.1855 13.29 18 14.3673 18 15.5127C18 16.9855 18.2127 18.2809 18.6382 19.3991C19.0636 20.5173 19.6473 21.4555 20.3891 22.2136C21.1309 22.9718 22.0036 23.5445 23.0073 23.9318C24.0109 24.3191 25.0964 24.5127 26.2636 24.5127C26.8527 24.5127 27.4609 24.4691 28.0882 24.3818C28.7155 24.2945 29.3318 24.1445 29.9373 23.9318C30.5427 23.7191 31.1236 23.4355 31.68 23.0809C32.2364 22.7264 32.7382 22.2873 33.1855 21.7636L32.0073 20.2909C31.92 20.1709 31.8164 20.0782 31.6964 20.0127C31.5764 19.9473 31.4345 19.9145 31.2709 19.9145C31.02 19.9145 30.7609 19.9909 30.4937 20.1436C30.2264 20.2964 29.9155 20.4655 29.5609 20.6509C29.2064 20.8364 28.7918 21.0055 28.3173 21.1582C27.8427 21.3109 27.2782 21.3873 26.6236 21.3873C25.2927 21.3873 24.2236 20.9836 23.4164 20.1764C22.6091 19.3691 22.1455 18.1036 22.0255 16.38L32.4 16.38C32.5855 16.38 32.7382 16.3555 32.8582 16.3064C32.9782 16.2573 33.0736 16.1755 33.1445 16.0609C33.2155 15.9464 33.2645 15.7882 33.2918 15.5864C33.3191 15.3846 33.3327 15.1309 33.3327 14.8255C33.3327 13.6145 33.1527 12.5373 32.7927 11.5936C32.4327 10.65 31.9309 9.85363 31.2873 9.20455C30.6436 8.55546 29.8773 8.06182 28.9882 7.72364L28.9882 7.72364ZM87.7664 11.3891C87.8809 11.3018 87.9982 11.1818 88.1182 11.0291L89.1818 9.55637C88.4291 8.80364 87.5809 8.22545 86.6373 7.82182C85.6937 7.41818 84.5946 7.21636 83.34 7.21636C82.02 7.21636 80.8527 7.43455 79.8382 7.87091C78.8236 8.30727 77.9727 8.91 77.2855 9.67909C76.5982 10.4482 76.0773 11.3591 75.7227 12.4118C75.3682 13.4645 75.1909 14.6073 75.1909 15.84C75.1909 17.2146 75.39 18.4391 75.7882 19.5136C76.1864 20.5882 76.7264 21.4964 77.4082 22.2382C78.09 22.98 78.8891 23.5445 79.8055 23.9318C80.7218 24.3191 81.6982 24.5127 82.7346 24.5127C83.3237 24.5127 83.9182 24.4691 84.5182 24.3818C85.1182 24.2945 85.6991 24.1445 86.2609 23.9318C86.8228 23.7191 87.3655 23.4355 87.8891 23.0809C88.4128 22.7264 88.8982 22.2873 89.3455 21.7636L88.1836 20.2909C88.02 20.04 87.7746 19.9145 87.4473 19.9145C87.1964 19.9145 86.97 19.9936 86.7682 20.1518C86.5664 20.31 86.3291 20.4846 86.0564 20.6755C85.7837 20.8664 85.4482 21.0409 85.05 21.1991C84.6518 21.3573 84.1309 21.4364 83.4873 21.4364C82.8437 21.4364 82.2655 21.3136 81.7527 21.0682C81.24 20.8227 80.8037 20.4627 80.4436 19.9882C80.0836 19.5136 79.8082 18.9273 79.6173 18.2291C79.4264 17.5309 79.3309 16.7346 79.3309 15.84C79.3309 14.9782 79.4182 14.2064 79.5927 13.5245C79.7673 12.8427 80.0318 12.2618 80.3864 11.7818C80.7409 11.3018 81.1855 10.9336 81.72 10.6773C82.2545 10.4209 82.8764 10.2927 83.5855 10.2927C84.1418 10.2927 84.6082 10.3555 84.9845 10.4809C85.3609 10.6064 85.6855 10.7482 85.9582 10.9064C86.2309 11.0645 86.4655 11.2064 86.6618 11.3318C86.8582 11.4573 87.06 11.52 87.2673 11.52C87.4855 11.52 87.6518 11.4764 87.7664 11.3891L87.7664 11.3891ZM98.8691 7.21636C99.9273 7.21636 100.901 7.38546 101.79 7.72364C102.679 8.06182 103.445 8.55546 104.089 9.20455C104.733 9.85363 105.235 10.65 105.595 11.5936C105.955 12.5373 106.135 13.6145 106.135 14.8255C106.135 15.1309 106.121 15.3846 106.094 15.5864C106.066 15.7882 106.017 15.9464 105.946 16.0609C105.875 16.1755 105.78 16.2573 105.66 16.3064C105.54 16.3555 105.387 16.38 105.202 16.38L94.8273 16.38C94.9473 18.1036 95.4109 19.3691 96.2182 20.1764C97.0255 20.9836 98.0946 21.3873 99.4255 21.3873C100.08 21.3873 100.645 21.3109 101.119 21.1582C101.594 21.0055 102.008 20.8364 102.363 20.6509C102.717 20.4655 103.028 20.2964 103.295 20.1436C103.563 19.9909 103.822 19.9145 104.073 19.9145C104.236 19.9145 104.378 19.9473 104.498 20.0127C104.618 20.0782 104.722 20.1709 104.809 20.2909L105.987 21.7636C105.54 22.2873 105.038 22.7264 104.482 23.0809C103.925 23.4355 103.345 23.7191 102.739 23.9318C102.134 24.1445 101.517 24.2945 100.89 24.3818C100.263 24.4691 99.6546 24.5127 99.0655 24.5127C97.8982 24.5127 96.8127 24.3191 95.8091 23.9318C94.8055 23.5445 93.9327 22.9718 93.1909 22.2136C92.4491 21.4555 91.8655 20.5173 91.44 19.3991C91.0146 18.2809 90.8018 16.9855 90.8018 15.5127C90.8018 14.3673 90.9873 13.29 91.3582 12.2809C91.7291 11.2718 92.2609 10.3936 92.9537 9.64636C93.6464 8.89909 94.4918 8.30727 95.49 7.87091C96.4882 7.43455 97.6145 7.21636 98.8691 7.21636L98.8691 7.21636ZM119.045 11.1191C119.165 11.0482 119.28 10.9255 119.389 10.7509L120.305 9.29455C119.673 8.67273 118.882 8.17091 117.933 7.78909C116.984 7.40728 115.931 7.21636 114.775 7.21636C113.738 7.21636 112.825 7.35545 112.034 7.63363C111.243 7.91181 110.583 8.28273 110.054 8.74637C109.525 9.21 109.124 9.75273 108.851 10.3745C108.578 10.9964 108.442 11.6509 108.442 12.3382C108.442 13.08 108.559 13.7127 108.794 14.2364C109.028 14.76 109.339 15.2018 109.726 15.5618C110.114 15.9218 110.555 16.2191 111.052 16.4536C111.548 16.6882 112.055 16.8927 112.574 17.0673C113.092 17.2418 113.599 17.4027 114.095 17.55C114.592 17.6973 115.034 17.8636 115.421 18.0491C115.808 18.2346 116.119 18.4527 116.354 18.7036C116.588 18.9545 116.705 19.2764 116.705 19.6691C116.705 19.9309 116.654 20.1846 116.55 20.43C116.446 20.6755 116.283 20.8909 116.059 21.0764C115.835 21.2618 115.552 21.4118 115.208 21.5264C114.865 21.6409 114.453 21.6982 113.973 21.6982C113.362 21.6982 112.857 21.6273 112.459 21.4855C112.061 21.3436 111.715 21.1909 111.42 21.0273C111.125 20.8636 110.866 20.7109 110.643 20.5691C110.419 20.4273 110.182 20.3564 109.931 20.3564C109.68 20.3564 109.473 20.4055 109.309 20.5036C109.145 20.6018 109.004 20.7436 108.884 20.9291L107.951 22.4673C108.278 22.7618 108.657 23.0345 109.088 23.2855C109.519 23.5364 109.988 23.7545 110.495 23.94C111.003 24.1255 111.532 24.27 112.083 24.3736C112.634 24.4773 113.198 24.5291 113.776 24.5291C114.856 24.5291 115.814 24.39 116.648 24.1118C117.483 23.8336 118.184 23.4464 118.751 22.95C119.318 22.4536 119.749 21.8645 120.044 21.1827C120.338 20.5009 120.485 19.7564 120.485 18.9491C120.485 18.2727 120.368 17.6945 120.134 17.2145C119.899 16.7345 119.588 16.3227 119.201 15.9791C118.814 15.6355 118.375 15.3518 117.884 15.1282C117.393 14.9046 116.891 14.7055 116.378 14.5309C115.865 14.3564 115.364 14.1955 114.873 14.0482C114.382 13.9009 113.943 13.7345 113.555 13.5491C113.168 13.3636 112.857 13.1482 112.623 12.9027C112.388 12.6573 112.271 12.3546 112.271 11.9945C112.271 11.4491 112.5 11.0073 112.958 10.6691C113.416 10.3309 114.044 10.1618 114.84 10.1618C115.353 10.1618 115.797 10.2164 116.174 10.3255C116.55 10.4346 116.885 10.5573 117.18 10.6936C117.475 10.83 117.734 10.9527 117.957 11.0618C118.181 11.1709 118.391 11.2255 118.587 11.2255C118.773 11.2255 118.925 11.19 119.045 11.1191L119.045 11.1191ZM54.7364 24.2673L58.4018 24.2673L65.0618 7.47819L61.8709 7.47819C61.5982 7.47819 61.3636 7.54909 61.1673 7.69091C60.9709 7.83273 60.8346 8.01273 60.7582 8.23091L57.4364 17.1982C57.24 17.7218 57.0791 18.2345 56.9536 18.7364C56.8282 19.2382 56.7164 19.74 56.6182 20.2418C56.52 19.74 56.4082 19.2382 56.2827 18.7364C56.1573 18.2345 56.0018 17.7218 55.8164 17.1982L52.5764 8.23091C52.5 8.01273 52.3609 7.83273 52.1591 7.69091C51.9573 7.54909 51.7091 7.47819 51.4145 7.47819L48.06 7.47819L54.7364 24.2673L54.7364 24.2673ZM71.7546 7.47819L71.7546 24.2673L67.7127 24.2673L67.7127 7.47819L71.7546 7.47819L71.7546 7.47819ZM23.3836 11.1109C24.0491 10.4455 24.9709 10.1127 26.1491 10.1127C26.7491 10.1127 27.2727 10.2136 27.72 10.4155C28.1673 10.6173 28.5382 10.8927 28.8327 11.2418C29.1273 11.5909 29.3455 11.9973 29.4873 12.4609C29.6291 12.9245 29.7 13.4182 29.7 13.9418L22.1073 13.9418C22.2927 12.72 22.7182 11.7764 23.3836 11.1109L23.3836 11.1109ZM98.9509 10.1127C97.7727 10.1127 96.8509 10.4455 96.1855 11.1109C95.52 11.7764 95.0946 12.72 94.9091 13.9418L102.502 13.9418C102.502 13.4182 102.431 12.9245 102.289 12.4609C102.147 11.9973 101.929 11.5909 101.635 11.2418C101.34 10.8927 100.969 10.6173 100.522 10.4155C100.075 10.2136 99.5509 10.1127 98.9509 10.1127L98.9509 10.1127Z" id="Shape" fill="#252F3E" fill-rule="evenodd" stroke="none" />
            </g>
          </g>
        </g>
      </g>
    </g>
  </g>
</svg>