<?xml version="1.0" encoding="utf-8"?>
<svg width="353px" height="100px" viewbox="0 0 353 100" version="1.1" xmlns:xlink="http://www.w3.org/1999/xlink" xmlns="http://www.w3.org/2000/svg">
  <defs>
    <path d="M0 0L352.5 0L352.5 100L0 100L0 0Z" id="path_1" />
    <path d="M0 0L352.5 0L352.5 99.5625L0 99.5625L0 0Z" id="path_2" />
    <path d="M0 0L156.25 0L156.25 156.25L0 156.25L0 0L0 0Z" id="path_3" />
    <clipPath id="mask_1">
      <use xlink:href="#path_1" />
    </clipPath>
    <clipPath id="mask_2">
      <use xlink:href="#path_2" />
    </clipPath>
    <clipPath id="mask_3">
      <use xlink:href="#path_3" />
    </clipPath>
  </defs>
  <g id="svg">
    <path d="M0 0L352.5 0L352.5 100L0 100L0 0Z" id="Background" fill="none" fill-rule="evenodd" stroke="none" />
    <g clip-path="url(#mask_1)">
      <g id="Mask-group">
        <path d="M0 0L352.5 0L352.5 99.5625L0 99.5625L0 0Z" id="artboard_1" fill="none" fill-rule="evenodd" stroke="none" />
        <g clip-path="url(#mask_2)">
          <g id="Artboard" transform="translate(5.625 -30.625)">
            <g id="Amazon-Web-Services-icon">
              <path d="M0 0L156.25 0L156.25 156.25L0 156.25L0 0L0 0Z" id="Background" fill="none" fill-rule="evenodd" stroke="none" />
              <g id="Mask-group">
                <path d="M0 0L156.25 0L156.25 156.25L0 156.25L0 0L0 0Z" id="path_1" fill="none" fill-rule="evenodd" stroke="none" />
                <g clip-path="url(#mask_3)">
                  <g id="Group" transform="translate(-0.002270341 35.807274)">
                    <path d="M37.5716 34.2741C37.5716 36.2174 37.7799 37.7897 38.1445 38.9453C38.5612 40.1009 39.0788 41.3607 39.8079 42.7246C40.0684 43.1445 40.1725 43.5644 40.1725 43.9323C40.1725 44.4564 39.86 44.9804 39.1862 45.5078L35.9114 47.7116C35.4427 48.0273 34.9772 48.1836 34.5606 48.1836C34.0397 48.1836 33.5221 47.9199 33.0013 47.4479C32.2721 46.6601 31.6504 45.8203 31.1296 44.9804C30.6087 44.0886 30.0911 43.0924 29.5183 41.8847C25.4655 46.7122 20.3711 49.1276 14.2383 49.1276C9.87306 49.1276 6.39 47.8678 3.8444 45.3483C1.29882 42.8287 0 39.4694 0 35.2702C0 30.8106 1.55924 27.1875 4.72982 24.4596C7.90038 21.7317 12.1094 20.3646 17.4609 20.3646C19.2285 20.3646 21.0482 20.5208 22.9688 20.7845C24.8893 21.0482 26.8653 21.4681 28.9453 21.9401L28.9453 18.1087C28.9453 14.1211 28.1153 11.3379 26.5039 9.71031C24.8405 8.08269 22.0345 7.29494 18.0339 7.29494C16.2142 7.29494 14.3457 7.50325 12.4219 7.9785C10.4981 8.4505 8.62956 9.02669 6.80988 9.76237C5.97982 10.1302 5.35482 10.3386 4.99023 10.4459C4.62565 10.5501 4.36523 10.6022 4.16016 10.6022C3.43099 10.6022 3.06966 10.0781 3.06966 8.97462L3.06966 6.403C3.06966 5.56316 3.17383 4.9349 3.43424 4.56706C3.69466 4.19922 4.16341 3.83138 4.88932 3.46354C6.709 2.51954 8.89 1.73177 11.4388 1.10026C13.9844 0.416671 16.6862 0.104172 19.5442 0.104172C25.7292 0.104172 30.2506 1.52019 33.1608 4.35547C36.0189 7.19075 37.4739 11.4941 37.4739 17.2656L37.4739 34.2708L37.5716 34.2708L37.5716 34.2741L37.5716 34.2741ZM16.4714 42.2494C18.1869 42.2494 19.9544 41.9336 21.8229 41.3053C23.6947 40.6771 25.3581 39.5215 26.7611 37.9459C27.5911 36.9499 28.2161 35.8464 28.5286 34.5866C28.8411 33.3268 29.0495 31.8034 29.0495 30.0196L29.0495 27.8157C27.5423 27.4479 25.931 27.1322 24.2676 26.9238C22.6042 26.7155 20.9928 26.6081 19.3815 26.6081C15.8984 26.6081 13.3529 27.2917 11.6374 28.7077C9.92188 30.1237 9.09181 32.1191 9.09181 34.7428C9.09181 37.2103 9.71681 39.0462 11.0156 40.306C12.2624 41.6211 14.082 42.2494 16.4714 42.2494L16.4714 42.2494L16.4714 42.2494ZM58.2031 47.9199C57.2689 47.9199 56.6439 47.7637 56.2272 47.3958C55.8105 47.0801 55.4492 46.3476 55.1367 45.3483L42.9232 4.77865C42.6107 3.73047 42.4544 3.04688 42.4544 2.67904C42.4544 1.8392 42.8711 1.36719 43.7012 1.36719L48.7956 1.36719C49.7819 1.36719 50.459 1.52344 50.8236 1.89128C51.2402 2.20704 51.5494 2.93946 51.8619 3.93881L60.5924 38.6849L68.6981 3.93881C68.9581 2.89064 69.2706 2.20704 69.6844 1.89129C70.1006 1.57553 70.8269 1.36719 71.7644 1.36719L75.9212 1.36719C76.9075 1.36719 77.5844 1.52345 78.0013 1.89129C78.4181 2.20704 78.7794 2.93946 78.9875 3.93881L87.1975 39.1048L96.1881 3.93881C96.5006 2.89064 96.865 2.20704 97.2262 1.89129C97.6431 1.57553 98.3169 1.3672 99.2544 1.3672L104.089 1.3672C104.919 1.3672 105.387 1.78712 105.387 2.67905C105.387 2.94272 105.335 3.20314 105.283 3.51889C105.231 3.83465 105.127 4.25457 104.919 4.83074L92.3956 45.4004C92.0831 46.4486 91.7188 47.1322 91.3056 47.4479C90.8919 47.7637 90.215 47.972 89.3294 47.972L84.86 47.972C83.8737 47.972 83.1969 47.8158 82.78 47.4479C82.3631 47.0801 82.0019 46.3997 81.7937 45.3483L73.74 11.4941L65.7387 45.2962C65.4787 46.3444 65.1662 47.028 64.7525 47.3958C64.3356 47.7637 63.61 47.9199 62.6725 47.9199L58.2031 47.9199L58.2031 47.9199L58.2031 47.9199ZM124.981 49.3359C122.279 49.3359 119.577 49.0202 116.979 48.3919C114.381 47.7637 112.354 47.0801 111.003 46.2923C110.173 45.8203 109.599 45.2962 109.391 44.8242C109.183 44.3522 109.079 43.8281 109.079 43.3561L109.079 40.6803C109.079 39.5768 109.496 39.0527 110.274 39.0527C110.586 39.0527 110.899 39.1048 111.208 39.209C111.52 39.3131 111.986 39.5247 112.506 39.7331C114.274 40.5208 116.194 41.1491 118.223 41.569C120.302 41.9889 122.327 42.1972 124.408 42.1972C127.683 42.1972 130.228 41.6211 131.996 40.4655C133.763 39.3099 134.698 37.6302 134.698 35.4785C134.698 34.0104 134.229 32.8027 133.294 31.8034C132.36 30.8073 130.592 29.9154 128.047 29.0755L120.511 26.7122C116.719 25.5046 113.912 23.7207 112.198 21.3574C110.482 19.0495 109.599 16.4779 109.599 13.7467C109.599 11.5429 110.068 9.59962 111.003 7.91994C111.937 6.24023 113.187 4.77213 114.743 3.61653C116.302 2.40885 118.069 1.51692 120.146 0.888662C122.226 0.263673 124.408 0 126.696 0C127.839 0 129.033 0.0520825 130.179 0.208334C131.374 0.364585 132.464 0.576172 133.558 0.784506C134.596 1.04818 135.586 1.30859 136.52 1.62435C137.454 1.94011 138.184 2.25261 138.704 2.56836C139.434 2.98828 139.951 3.40821 140.264 3.88021C140.576 4.30013 140.732 4.8763 140.732 5.61198L140.732 8.07944C140.732 9.18294 140.316 9.75912 139.538 9.75912C139.121 9.75912 138.448 9.55081 137.562 9.13087C134.599 7.76694 131.272 7.08331 127.584 7.08331C124.622 7.08331 122.285 7.55531 120.674 8.55144C119.063 9.5475 118.232 11.0709 118.232 13.2227C118.232 14.6907 118.753 15.9505 119.792 16.9499C120.83 17.9459 122.754 18.9453 125.507 19.8372L132.887 22.2005C136.628 23.4082 139.333 25.0879 140.941 27.2396C142.549 29.3913 143.33 31.8587 143.33 34.5866C143.33 36.8424 142.861 38.89 141.979 40.6738C141.045 42.4577 139.795 44.0332 138.187 45.293C136.576 46.6048 134.652 47.5488 132.419 48.2324C130.072 48.9681 127.63 49.3359 124.981 49.3359L124.981 49.3359L124.981 49.3359Z" transform="translate(6.4638715 0)" id="Shape" fill="#252F3E" fill-rule="evenodd" stroke="none" />
                    <path d="M141.266 16.0141C124.169 28.7679 99.3288 35.5388 77.9675 35.5388C48.0362 35.5388 21.0635 24.3604 0.692413 5.77966C-0.918918 4.31156 0.536162 2.31612 2.45999 3.47171C24.4945 16.3819 51.6723 24.2041 79.7875 24.2041C98.7556 24.2041 119.596 20.2165 138.769 12.0264C141.63 10.7146 144.071 13.9144 141.266 16.0141L141.266 16.0141L141.266 16.0141ZM148.384 7.82719C146.2 4.99189 133.938 6.46325 128.378 7.14356C126.714 7.35194 126.454 5.88382 127.961 4.7803C137.73 -2.14679 153.788 -0.1546 155.66 2.1566C157.532 4.51989 155.139 20.7374 145.995 28.5043C144.592 29.7119 143.241 29.0804 143.863 27.5082C145.943 22.3129 150.569 10.6071 148.384 7.82719L148.384 7.82719L148.384 7.82719Z" transform="translate(0 58.82973)" id="Shape#1" fill="#FF9900" fill-rule="evenodd" stroke="none" />
                  </g>
                </g>
              </g>
            </g>
            <g id="Amazon-Web-Servives" transform="translate(162.59001 48.555)">
              <g id="Amazon-Web">
                <path d="M165.615 0L165.615 22.29L168.06 22.29C168.31 22.29 168.507 22.235 168.652 22.125C168.797 22.015 168.9 21.83 168.96 21.57L169.125 20.535C169.375 20.835 169.637 21.1075 169.913 21.3525C170.187 21.5975 170.485 21.805 170.805 21.975C171.125 22.145 171.48 22.2775 171.87 22.3725C172.26 22.4675 172.69 22.515 173.16 22.515C174.17 22.515 175.082 22.3125 175.897 21.9075C176.712 21.5025 177.407 20.94 177.982 20.22C178.557 19.5 179 18.65 179.31 17.67C179.62 16.69 179.775 15.625 179.775 14.475C179.775 13.215 179.637 12.1 179.362 11.13C179.087 10.16 178.697 9.345 178.192 8.685C177.687 8.025 177.087 7.5225 176.392 7.1775C175.697 6.8325 174.93 6.66 174.09 6.66C173.06 6.66 172.16 6.8525 171.39 7.2375C170.62 7.6225 169.93 8.14 169.32 8.79L169.32 0L165.615 0L165.615 0ZM21.165 22.29L18.045 22.29C17.695 22.29 17.4075 22.2025 17.1825 22.0275C16.9575 21.8525 16.795 21.635 16.695 21.375L15.075 16.95L6.08999 16.95L4.46999 21.375C4.38999 21.605 4.23248 21.815 3.9975 22.005C3.76249 22.195 3.475 22.29 3.13499 22.29L0 22.29L8.51999 0.599999L12.645 0.599999L21.165 22.29L21.165 22.29ZM119.73 0.599999L116.34 0.599999L123.075 22.29L126.72 22.29L131.505 7.47C131.565 7.28 131.627 7.075 131.692 6.855C131.757 6.635 131.82 6.4 131.88 6.15C131.94 6.4 132.003 6.635 132.067 6.855C132.132 7.075 132.195 7.28 132.255 7.47L136.995 22.29L140.64 22.29L147.375 0.599999L144.21 0.599999C143.87 0.599999 143.58 0.69 143.34 0.87C143.1 1.05 142.945 1.265 142.875 1.515L139.185 14.49C139.105 14.8 139.027 15.135 138.952 15.495C138.877 15.855 138.805 16.23 138.735 16.62C138.575 15.84 138.385 15.13 138.165 14.49L133.935 1.515C133.845 1.235 133.685 1.0125 133.455 0.847499C133.225 0.682499 132.935 0.599999 132.585 0.599999L131.4 0.599999C131.06 0.599999 130.772 0.695 130.537 0.885C130.302 1.075 130.145 1.285 130.065 1.515L125.805 14.49C125.695 14.81 125.592 15.1575 125.497 15.5325C125.402 15.9075 125.315 16.305 125.235 16.725C125.165 16.305 125.092 15.9075 125.017 15.5325C124.942 15.1575 124.86 14.81 124.77 14.49L121.08 1.515C121 1.235 120.842 1.0125 120.607 0.847499C120.372 0.682499 120.08 0.599999 119.73 0.599999L119.73 0.599999ZM7.125 14.1L14.04 14.1L11.4 6.885C11.28 6.565 11.1475 6.1875 11.0025 5.7525C10.8575 5.3175 10.715 4.845 10.575 4.335C10.435 4.845 10.2975 5.32 10.1625 5.76C10.0275 6.2 9.895 6.585 9.76499 6.915L7.125 14.1L7.125 14.1ZM58.845 22.29L60.51 22.29L60.51 12.57C60.51 11.7 60.3825 10.9 60.1275 10.17C59.8725 9.44 59.5 8.8125 59.01 8.2875C58.52 7.7625 57.9225 7.3525 57.2175 7.0575C56.5125 6.7625 55.71 6.615 54.81 6.615C52.31 6.615 50.175 7.425 48.405 9.045L49.08 10.23C49.19 10.42 49.335 10.58 49.515 10.71C49.695 10.84 49.91 10.905 50.16 10.905C50.46 10.905 50.735 10.835 50.985 10.695C51.235 10.555 51.5075 10.3975 51.8025 10.2225C52.0975 10.0475 52.445 9.89 52.845 9.75C53.245 9.61 53.745 9.54 54.345 9.54C55.175 9.54 55.8075 9.78938 56.2425 10.2881C56.6775 10.7869 56.895 11.5552 56.895 12.5932L56.895 13.5C55.145 13.5 53.68 13.6505 52.5 13.9515C51.32 14.2525 50.375 14.6313 49.665 15.0878C48.955 15.5443 48.4475 16.0559 48.1425 16.6228C47.8375 17.1897 47.685 17.7641 47.685 18.3462C47.685 19.0384 47.795 19.6453 48.015 20.1671C48.235 20.6889 48.5425 21.1254 48.9375 21.4766C49.3325 21.8278 49.805 22.0911 50.355 22.2667C50.905 22.4422 51.505 22.53 52.155 22.53C52.705 22.53 53.205 22.485 53.655 22.395C54.105 22.305 54.53 22.17 54.93 21.99C55.33 21.81 55.7175 21.5875 56.0925 21.3225C56.4675 21.0575 56.85 20.75 57.24 20.4L57.57 21.495C57.67 21.815 57.82 22.0275 58.02 22.1325C58.22 22.2375 58.495 22.29 58.845 22.29L58.845 22.29ZM23.19 22.29L23.19 6.9L25.455 6.9C25.935 6.9 26.25 7.125 26.4 7.575L26.64 8.715C26.91 8.415 27.1925 8.14 27.4875 7.89C27.7825 7.64 28.0975 7.425 28.4325 7.245C28.7675 7.065 29.1275 6.9225 29.5125 6.8175C29.8975 6.7125 30.32 6.66 30.78 6.66C31.75 6.66 32.5475 6.9225 33.1725 7.4475C33.7975 7.9725 34.265 8.67 34.575 9.54C34.815 9.03 35.115 8.5925 35.475 8.2275C35.835 7.8625 36.23 7.565 36.66 7.335C37.09 7.105 37.5475 6.935 38.0325 6.825C38.5175 6.715 39.005 6.66 39.495 6.66C40.345 6.66 41.1 6.79 41.76 7.05C42.42 7.31 42.975 7.69 43.425 8.19C43.875 8.69 44.2175 9.3 44.4525 10.02C44.6875 10.74 44.805 11.565 44.805 12.495L44.805 22.29L41.1 22.29L41.1 12.495C41.1 11.515 40.885 10.7775 40.455 10.2825C40.025 9.7875 39.395 9.54 38.565 9.54C38.185 9.54 37.8325 9.605 37.5075 9.735C37.1825 9.865 36.8975 10.0525 36.6525 10.2975C36.4075 10.5425 36.215 10.85 36.075 11.22C35.935 11.59 35.865 12.015 35.865 12.495L35.865 22.29L32.145 22.29L32.145 12.495C32.145 11.465 31.9375 10.715 31.5225 10.245C31.1075 9.775 30.495 9.54 29.685 9.54C29.155 9.54 28.6575 9.6725 28.1925 9.9375C27.7275 10.2025 27.295 10.565 26.895 11.025L26.895 22.29L23.19 22.29L23.19 22.29ZM87.9375 7.215C87.0025 6.845 85.96 6.66 84.81 6.66C83.66 6.66 82.615 6.845 81.675 7.215C80.735 7.585 79.9325 8.11 79.2675 8.79C78.6025 9.47 78.0875 10.3 77.7225 11.28C77.3575 12.26 77.175 13.355 77.175 14.565C77.175 15.785 77.3575 16.885 77.7225 17.865C78.0875 18.845 78.6025 19.68 79.2675 20.37C79.9325 21.06 80.735 21.59 81.675 21.96C82.615 22.33 83.66 22.515 84.81 22.515C85.96 22.515 87.0025 22.33 87.9375 21.96C88.8725 21.59 89.67 21.06 90.33 20.37C90.99 19.68 91.5 18.845 91.86 17.865C92.22 16.885 92.4 15.785 92.4 14.565C92.4 13.355 92.22 12.26 91.86 11.28C91.5 10.3 90.99 9.47 90.33 8.79C89.67 8.11 88.8725 7.585 87.9375 7.215L87.9375 7.215ZM95.295 6.9L97.56 6.9C98.04 6.9 98.355 7.125 98.505 7.575L98.76 8.79C99.07 8.47 99.3975 8.18 99.7425 7.92C100.087 7.66 100.452 7.435 100.837 7.245C101.222 7.055 101.635 6.91 102.075 6.81C102.515 6.71 102.995 6.66 103.515 6.66C104.355 6.66 105.1 6.8025 105.75 7.0875C106.4 7.3725 106.942 7.7725 107.377 8.2875C107.812 8.8025 108.142 9.4175 108.367 10.1325C108.592 10.8475 108.705 11.635 108.705 12.495L108.705 22.29L105 22.29L105 12.495C105 11.555 104.782 10.8275 104.347 10.3125C103.912 9.7975 103.26 9.54 102.39 9.54C101.75 9.54 101.15 9.685 100.59 9.975C100.03 10.265 99.5 10.66 99 11.16L99 22.29L95.295 22.29L95.295 6.9L95.295 6.9ZM155.895 6.66C156.865 6.66 157.757 6.815 158.572 7.125C159.387 7.435 160.09 7.8875 160.68 8.4825C161.27 9.0775 161.73 9.8075 162.06 10.6725C162.39 11.5375 162.555 12.525 162.555 13.635C162.555 13.915 162.542 14.1475 162.517 14.3325C162.492 14.5175 162.447 14.6625 162.382 14.7675C162.317 14.8725 162.23 14.9475 162.12 14.9925C162.01 15.0375 161.87 15.06 161.7 15.06L152.19 15.06C152.3 16.64 152.725 17.8 153.465 18.54C154.205 19.28 155.185 19.65 156.405 19.65C157.005 19.65 157.522 19.58 157.957 19.44C158.392 19.3 158.772 19.145 159.097 18.975C159.422 18.805 159.707 18.65 159.952 18.51C160.197 18.37 160.435 18.3 160.665 18.3C160.815 18.3 160.945 18.33 161.055 18.39C161.165 18.45 161.26 18.535 161.34 18.645L162.42 19.995C162.01 20.475 161.55 20.8775 161.04 21.2025C160.53 21.5275 159.997 21.7875 159.442 21.9825C158.887 22.1775 158.322 22.315 157.747 22.395C157.172 22.475 156.615 22.515 156.075 22.515C155.005 22.515 154.01 22.3375 153.09 21.9825C152.17 21.6275 151.37 21.1025 150.69 20.4075C150.01 19.7125 149.475 18.8525 149.085 17.8275C148.695 16.8025 148.5 15.615 148.5 14.265C148.5 13.215 148.67 12.2275 149.01 11.3025C149.35 10.3775 149.837 9.5725 150.472 8.8875C151.107 8.2025 151.882 7.66 152.797 7.26C153.712 6.86 154.745 6.66 155.895 6.66L155.895 6.66ZM75.285 8.43C75.285 8.69 75.2375 8.9425 75.1425 9.1875C75.0475 9.4325 74.935 9.64 74.805 9.81L67.485 19.44L75.075 19.44L75.075 22.29L63.18 22.29L63.18 20.745C63.18 20.575 63.22 20.3725 63.3 20.1375C63.38 19.9025 63.505 19.68 63.675 19.47L71.055 9.735L63.615 9.735L63.615 6.9L75.285 6.9L75.285 8.43L75.285 8.43ZM155.97 9.315C154.89 9.315 154.045 9.62 153.435 10.23C152.825 10.84 152.435 11.705 152.265 12.825L159.225 12.825C159.225 12.345 159.16 11.8925 159.03 11.4675C158.9 11.0425 158.7 10.67 158.43 10.35C158.16 10.03 157.82 9.7775 157.41 9.5925C157 9.4075 156.52 9.315 155.97 9.315L155.97 9.315ZM87.6525 18.375C87.0375 19.235 86.09 19.665 84.81 19.665C83.51 19.665 82.55 19.2325 81.93 18.3675C81.31 17.5025 81 16.245 81 14.595C81 12.945 81.31 11.6825 81.93 10.8075C82.55 9.9325 83.51 9.495 84.81 9.495C86.09 9.495 87.0375 9.93 87.6525 10.8C88.2675 11.67 88.575 12.935 88.575 14.595C88.575 16.255 88.2675 17.515 87.6525 18.375L87.6525 18.375ZM170.842 10.0275C171.387 9.7025 172.045 9.54 172.815 9.54C173.305 9.54 173.742 9.63 174.127 9.81C174.512 9.99 174.84 10.275 175.11 10.665C175.38 11.055 175.587 11.5625 175.732 12.1875C175.877 12.8125 175.95 13.575 175.95 14.475C175.95 15.365 175.865 16.1375 175.695 16.7925C175.525 17.4475 175.282 17.99 174.967 18.42C174.652 18.85 174.27 19.17 173.82 19.38C173.37 19.59 172.865 19.695 172.305 19.695C171.725 19.695 171.187 19.5925 170.692 19.3875C170.197 19.1825 169.74 18.82 169.32 18.3L169.32 11.4C169.79 10.81 170.297 10.3525 170.842 10.0275L170.842 10.0275ZM54.36 19.8766C54.04 19.9455 53.69 19.98 53.31 19.98C52.69 19.98 52.1875 19.839 51.8025 19.5569C51.4175 19.2749 51.225 18.8065 51.225 18.1519C51.225 17.8195 51.3175 17.5124 51.5025 17.2304C51.6875 16.9485 52 16.7017 52.44 16.4901C52.88 16.2786 53.4625 16.1048 54.1875 15.9689C54.9125 15.833 55.815 15.765 56.895 15.765L56.895 18.341C56.625 18.6166 56.3575 18.8553 56.0925 19.0571C55.8275 19.2589 55.5525 19.4287 55.2675 19.5666C54.9825 19.7044 54.68 19.8077 54.36 19.8766L54.36 19.8766Z" id="Shape" fill="#252F3E" fill-rule="evenodd" stroke="none" />
              </g>
              <g id="Servives" transform="translate(0.45000073 36.295006)">
                <path d="M66.33 2.37C66.33 2.69 66.265 2.99 66.135 3.27C66.005 3.55 65.8325 3.795 65.6175 4.005C65.4025 4.215 65.15 4.3825 64.86 4.5075C64.57 4.6325 64.26 4.695 63.93 4.695C63.61 4.695 63.3075 4.6325 63.0225 4.5075C62.7375 4.3825 62.49 4.215 62.28 4.005C62.07 3.795 61.9025 3.55 61.7775 3.27C61.6525 2.99 61.59 2.69 61.59 2.37C61.59 2.04 61.6525 1.73 61.7775 1.44C61.9025 1.15 62.07 0.899997 62.28 0.689998C62.49 0.479999 62.7375 0.3125 63.0225 0.187497C63.3075 0.0624991 63.61 0 63.93 0C64.26 0 64.57 0.0624991 64.86 0.187497C65.15 0.3125 65.4025 0.479999 65.6175 0.689998C65.8325 0.899997 66.005 1.15 66.135 1.44C66.265 1.73 66.33 2.04 66.33 2.37L66.33 2.37ZM12.8925 4.965C13.0375 4.875 13.165 4.72 13.275 4.5L14.265 2.595C13.505 1.875 12.585 1.315 11.505 0.914998C10.425 0.514998 9.245 0.314999 7.96499 0.314999C6.83498 0.314999 5.82998 0.489998 4.94999 0.839996C4.07 1.19 3.32748 1.655 2.72249 2.235C2.1175 2.815 1.65749 3.48 1.34249 4.23C1.02749 4.98 0.869999 5.75 0.869999 6.54C0.869999 7.53 1.0125 8.3625 1.29749 9.0375C1.58249 9.7125 1.95999 10.275 2.43 10.725C2.89999 11.175 3.43498 11.54 4.035 11.82C4.63499 12.1 5.245 12.34 5.86498 12.54C6.48498 12.74 7.09499 12.925 7.69499 13.095C8.29498 13.265 8.82999 13.4725 9.29998 13.7175C9.76999 13.9625 10.1475 14.265 10.4325 14.625C10.7175 14.985 10.86 15.45 10.86 16.02C10.86 17.04 10.545 17.8225 9.91499 18.3675C9.28499 18.9125 8.39498 19.185 7.24499 19.185C6.495 19.185 5.85249 19.0825 5.3175 18.8775C4.78249 18.6725 4.31749 18.445 3.9225 18.195C3.52749 17.945 3.18499 17.7175 2.89499 17.5125C2.605 17.3075 2.335 17.205 2.085 17.205C1.89499 17.205 1.72249 17.2525 1.5675 17.3475C1.41249 17.4425 1.27998 17.56 1.16999 17.7L0 19.635C0.419998 20.065 0.897484 20.455 1.43249 20.805C1.96749 21.155 2.5425 21.455 3.15748 21.705C3.77249 21.955 4.415 22.1475 5.08499 22.2825C5.75499 22.4175 6.43499 22.485 7.125 22.485C8.32499 22.485 9.38999 22.3025 10.32 21.9375C11.25 21.5725 12.0375 21.0725 12.6825 20.4375C13.3275 19.8025 13.8175 19.0575 14.1525 18.2025C14.4875 17.3475 14.655 16.43 14.655 15.45C14.655 14.55 14.5125 13.785 14.2275 13.155C13.9425 12.525 13.565 11.9925 13.095 11.5575C12.625 11.1225 12.09 10.7625 11.49 10.4775C10.89 10.1925 10.2775 9.9425 9.6525 9.7275C9.0275 9.5125 8.41499 9.31 7.815 9.12C7.21498 8.93 6.67999 8.715 6.20998 8.475C5.73999 8.235 5.36249 7.945 5.0775 7.605C4.7925 7.265 4.64998 6.84 4.64998 6.33C4.64998 5.93 4.72 5.5625 4.86 5.2275C5 4.8925 5.2125 4.605 5.49749 4.365C5.78249 4.125 6.13249 3.9375 6.54749 3.8025C6.96249 3.6675 7.44999 3.6 8.00999 3.6C8.62999 3.6 9.1675 3.6775 9.6225 3.8325C10.0775 3.9875 10.475 4.16 10.815 4.35C11.155 4.54 11.45 4.7125 11.7 4.8675C11.95 5.0225 12.175 5.1 12.375 5.1C12.575 5.1 12.7475 5.055 12.8925 4.965L12.8925 4.965ZM33.57 22.245L33.57 6.855L35.745 6.855C36.125 6.855 36.39 6.925 36.54 7.065C36.69 7.205 36.79 7.445 36.84 7.785L37.065 9.645C37.615 8.695 38.26 7.945 39 7.395C39.74 6.845 40.57 6.57 41.49 6.57C42.25 6.57 42.88 6.745 43.38 7.095L42.9 9.87C42.87 10.05 42.805 10.1775 42.705 10.2525C42.605 10.3275 42.47 10.365 42.3 10.365C42.15 10.365 41.945 10.33 41.685 10.26C41.425 10.19 41.08 10.155 40.65 10.155C39.88 10.155 39.22 10.3675 38.67 10.7925C38.12 11.2175 37.655 11.84 37.275 12.66L37.275 22.245L33.57 22.245L33.57 22.245ZM26.5725 7.08C25.7575 6.77 24.865 6.615 23.895 6.615C22.745 6.615 21.7125 6.815 20.7975 7.215C19.8825 7.615 19.1075 8.1575 18.4725 8.8425C17.8375 9.5275 17.35 10.3325 17.01 11.2575C16.67 12.1825 16.5 13.17 16.5 14.22C16.5 15.57 16.695 16.7575 17.085 17.7825C17.475 18.8075 18.01 19.6675 18.69 20.3625C19.37 21.0575 20.17 21.5825 21.09 21.9375C22.01 22.2925 23.005 22.47 24.075 22.47C24.615 22.47 25.1725 22.43 25.7475 22.35C26.3225 22.27 26.8875 22.1325 27.4425 21.9375C27.9975 21.7425 28.53 21.4825 29.04 21.1575C29.55 20.8325 30.01 20.43 30.42 19.95L29.34 18.6C29.26 18.49 29.165 18.405 29.055 18.345C28.945 18.285 28.815 18.255 28.665 18.255C28.435 18.255 28.1975 18.325 27.9525 18.465C27.7075 18.605 27.4225 18.76 27.0975 18.93C26.7725 19.1 26.3925 19.255 25.9575 19.395C25.5225 19.535 25.005 19.605 24.405 19.605C23.185 19.605 22.205 19.235 21.465 18.495C20.725 17.755 20.3 16.595 20.19 15.015L29.7 15.015C29.87 15.015 30.01 14.9925 30.12 14.9475C30.23 14.9025 30.3175 14.8275 30.3825 14.7225C30.4475 14.6175 30.4925 14.4725 30.5175 14.2875C30.5425 14.1025 30.555 13.87 30.555 13.59C30.555 12.48 30.39 11.4925 30.06 10.6275C29.73 9.7625 29.27 9.0325 28.68 8.4375C28.09 7.8425 27.3875 7.39 26.5725 7.08L26.5725 7.08ZM92.325 6.615C93.295 6.615 94.1875 6.77 95.0025 7.08C95.8175 7.39 96.52 7.8425 97.11 8.4375C97.7 9.0325 98.16 9.7625 98.49 10.6275C98.82 11.4925 98.985 12.48 98.985 13.59C98.985 13.87 98.9725 14.1025 98.9475 14.2875C98.9225 14.4725 98.8775 14.6175 98.8125 14.7225C98.7475 14.8275 98.66 14.9025 98.55 14.9475C98.44 14.9925 98.3 15.015 98.13 15.015L88.62 15.015C88.73 16.595 89.155 17.755 89.895 18.495C90.635 19.235 91.615 19.605 92.835 19.605C93.435 19.605 93.9525 19.535 94.3875 19.395C94.8225 19.255 95.2025 19.1 95.5275 18.93C95.8525 18.76 96.1375 18.605 96.3825 18.465C96.6275 18.325 96.865 18.255 97.095 18.255C97.245 18.255 97.375 18.285 97.485 18.345C97.595 18.405 97.69 18.49 97.77 18.6L98.85 19.95C98.44 20.43 97.98 20.8325 97.47 21.1575C96.96 21.4825 96.4275 21.7425 95.8725 21.9375C95.3175 22.1325 94.7525 22.27 94.1775 22.35C93.6025 22.43 93.045 22.47 92.505 22.47C91.435 22.47 90.44 22.2925 89.52 21.9375C88.6 21.5825 87.8 21.0575 87.12 20.3625C86.44 19.6675 85.905 18.8075 85.515 17.7825C85.125 16.7575 84.93 15.57 84.93 14.22C84.93 13.17 85.1 12.1825 85.44 11.2575C85.78 10.3325 86.2675 9.5275 86.9025 8.8425C87.5375 8.1575 88.3125 7.615 89.2275 7.215C90.1425 6.815 91.175 6.615 92.325 6.615L92.325 6.615ZM110.82 10.1925C110.93 10.1275 111.035 10.015 111.135 9.855L111.975 8.52C111.395 7.95 110.67 7.49 109.8 7.14C108.93 6.79 107.965 6.615 106.905 6.615C105.955 6.615 105.117 6.7425 104.392 6.9975C103.667 7.2525 103.062 7.5925 102.577 8.0175C102.092 8.4425 101.725 8.94 101.475 9.51C101.225 10.08 101.1 10.68 101.1 11.31C101.1 11.99 101.207 12.57 101.422 13.05C101.637 13.53 101.922 13.935 102.277 14.265C102.632 14.595 103.037 14.8675 103.492 15.0825C103.947 15.2975 104.412 15.485 104.887 15.645C105.362 15.805 105.827 15.9525 106.282 16.0875C106.737 16.2225 107.142 16.375 107.497 16.545C107.852 16.715 108.137 16.915 108.352 17.145C108.567 17.375 108.675 17.67 108.675 18.03C108.675 18.27 108.627 18.5025 108.532 18.7275C108.437 18.9525 108.287 19.15 108.082 19.32C107.877 19.49 107.617 19.6275 107.302 19.7325C106.987 19.8375 106.61 19.89 106.17 19.89C105.61 19.89 105.147 19.825 104.782 19.695C104.417 19.565 104.1 19.425 103.83 19.275C103.56 19.125 103.322 18.985 103.117 18.855C102.912 18.725 102.695 18.66 102.465 18.66C102.235 18.66 102.045 18.705 101.895 18.795C101.745 18.885 101.615 19.015 101.505 19.185L100.65 20.595C100.95 20.865 101.297 21.115 101.692 21.345C102.087 21.575 102.517 21.775 102.982 21.945C103.447 22.115 103.932 22.2475 104.437 22.3425C104.942 22.4375 105.46 22.485 105.99 22.485C106.98 22.485 107.857 22.3575 108.622 22.1025C109.387 21.8475 110.03 21.4925 110.55 21.0375C111.07 20.5825 111.465 20.0425 111.735 19.4175C112.005 18.7925 112.14 18.11 112.14 17.37C112.14 16.75 112.032 16.22 111.817 15.78C111.602 15.34 111.317 14.9625 110.962 14.6475C110.607 14.3325 110.205 14.0725 109.755 13.8675C109.305 13.6625 108.845 13.48 108.375 13.32C107.905 13.16 107.445 13.0125 106.995 12.8775C106.545 12.7425 106.142 12.59 105.787 12.42C105.432 12.25 105.147 12.0525 104.932 11.8275C104.717 11.6025 104.61 11.325 104.61 10.995C104.61 10.495 104.82 10.09 105.24 9.78C105.66 9.47 106.235 9.315 106.965 9.315C107.435 9.315 107.842 9.365 108.187 9.465C108.532 9.565 108.84 9.6775 109.11 9.8025C109.38 9.9275 109.617 10.04 109.822 10.14C110.027 10.24 110.22 10.29 110.4 10.29C110.57 10.29 110.71 10.2575 110.82 10.1925L110.82 10.1925ZM50.175 22.245L53.535 22.245L59.64 6.855L56.715 6.855C56.465 6.855 56.25 6.92 56.07 7.05C55.89 7.18 55.765 7.345 55.695 7.545L52.65 15.765C52.47 16.245 52.3225 16.715 52.2075 17.175C52.0925 17.635 51.99 18.095 51.9 18.555C51.81 18.095 51.7075 17.635 51.5925 17.175C51.4775 16.715 51.335 16.245 51.165 15.765L48.195 7.545C48.125 7.345 47.9975 7.18 47.8125 7.05C47.6275 6.92 47.4 6.855 47.13 6.855L44.055 6.855L50.175 22.245L50.175 22.245ZM65.775 6.855L65.775 22.245L62.07 22.245L62.07 6.855L65.775 6.855L65.775 6.855ZM74.31 22.245L77.67 22.245L83.775 6.855L80.85 6.855C80.6 6.855 80.385 6.92 80.205 7.05C80.025 7.18 79.9 7.345 79.83 7.545L76.785 15.765C76.605 16.245 76.4575 16.715 76.3425 17.175C76.2275 17.635 76.125 18.095 76.035 18.555C75.945 18.095 75.8425 17.635 75.7275 17.175C75.6125 16.715 75.47 16.245 75.3 15.765L72.33 7.545C72.26 7.345 72.1325 7.18 71.9475 7.05C71.7625 6.92 71.535 6.855 71.265 6.855L68.19 6.855L74.31 22.245L74.31 22.245ZM21.435 10.185C22.045 9.575 22.89 9.27 23.97 9.27C24.52 9.27 25 9.3625 25.41 9.5475C25.82 9.7325 26.16 9.985 26.43 10.305C26.7 10.625 26.9 10.9975 27.03 11.4225C27.16 11.8475 27.225 12.3 27.225 12.78L20.265 12.78C20.435 11.66 20.825 10.795 21.435 10.185L21.435 10.185ZM92.4 9.27C91.32 9.27 90.475 9.575 89.865 10.185C89.255 10.795 88.865 11.66 88.695 12.78L95.655 12.78C95.655 12.3 95.59 11.8475 95.46 11.4225C95.33 10.9975 95.13 10.625 94.86 10.305C94.59 9.985 94.25 9.7325 93.84 9.5475C93.43 9.3625 92.95 9.27 92.4 9.27L92.4 9.27Z" id="Shape" fill="#252F3E" fill-rule="evenodd" stroke="none" />
              </g>
            </g>
          </g>
        </g>
      </g>
    </g>
  </g>
</svg>