<?xml version="1.0" encoding="utf-8"?>
<svg width="170px" height="100px" viewbox="0 0 170 100" version="1.1" xmlns:xlink="http://www.w3.org/1999/xlink" xmlns="http://www.w3.org/2000/svg">
  <defs>
    <path d="M0 0L169.577 0L169.577 100L0 100L0 0Z" id="path_1" />
    <clipPath id="mask_1">
      <use xlink:href="#path_1" />
    </clipPath>
  </defs>
  <g id="aws">
    <path d="M0 0L169.577 0L169.577 100L0 100L0 0Z" id="Background" fill="none" fill-rule="evenodd" stroke="none" />
    <g clip-path="url(#mask_1)">
      <path d="M40.2114 36.3181C40.2114 38.3759 40.4339 40.0445 40.8232 41.268C41.2681 42.4916 41.8243 43.8264 42.603 45.2725C42.881 45.7174 42.9923 46.1624 42.9923 46.5517C42.9923 47.1079 42.6586 47.664 41.9356 48.2202L38.4316 50.5561C37.9311 50.8898 37.4305 51.0567 36.9856 51.0567C36.4294 51.0567 35.8732 50.7786 35.3171 50.278C34.5384 49.4438 33.871 48.5539 33.3148 47.664C32.7587 46.7185 32.2025 45.6618 31.5907 44.3826C27.2525 49.4994 21.802 52.0578 15.2392 52.0578C10.5673 52.0578 6.84094 50.723 4.11569 48.0534C1.39044 45.3837 0 41.8242 0 37.3748C0 32.6474 1.66852 28.8098 5.06119 25.9177C8.45385 23.0256 12.9589 21.5795 18.6875 21.5795C20.5785 21.5795 22.5251 21.7464 24.5829 22.0245C26.6408 22.3025 28.7542 22.7475 30.9789 23.248L30.9789 19.188C30.9789 14.9611 30.089 12.0133 28.3649 10.2892C26.5851 8.56507 23.5818 7.73081 19.2993 7.73081C17.3526 7.73081 15.3504 7.95328 13.2926 8.45384C11.2347 8.95439 9.2325 9.56618 7.28589 10.3448C6.39601 10.7341 5.7286 10.9566 5.33928 11.0679C4.94996 11.1791 4.67187 11.2347 4.4494 11.2347C3.67076 11.2347 3.28143 10.6785 3.28143 9.51057L3.28143 6.78532C3.28143 5.89544 3.39267 5.22803 3.67076 4.83871C3.94884 4.44939 4.4494 4.06007 5.22804 3.67075C7.17465 2.66964 9.51059 1.83538 12.2358 1.16797C14.9611 0.444947 17.8532 0.111243 20.9122 0.111243C27.5306 0.111243 32.3694 1.61291 35.4839 4.61624C38.5429 7.61958 40.1002 12.1802 40.1002 18.2981L40.1002 36.3181L40.2114 36.3181ZM17.6307 44.7719C19.4661 44.7719 21.3571 44.4382 23.3593 43.7708C25.3615 43.1034 27.1413 41.8798 28.643 40.2113C29.5329 39.1546 30.2003 37.9866 30.534 36.6518C30.8677 35.317 31.0901 33.7041 31.0901 31.8131L31.0901 29.4772C29.4772 29.0878 27.7531 28.7541 25.9733 28.5317C24.1936 28.3092 22.4694 28.198 20.7453 28.198C17.0189 28.198 14.2937 28.921 12.4583 30.4227C10.6229 31.9243 9.73305 34.0378 9.73305 36.8186C9.73305 39.4327 10.4005 41.3793 11.7909 42.7141C13.1257 44.1045 15.0723 44.7719 17.6307 44.7719L17.6307 44.7719ZM62.2915 50.7786C61.2904 50.7786 60.623 50.6118 60.178 50.2225C59.7331 49.8888 59.3438 49.1101 59.0101 48.0534L45.94 5.06118C45.6063 3.94884 45.4394 3.22581 45.4394 2.83649C45.4394 1.94661 45.8844 1.44606 46.7743 1.44606L52.2248 1.44606C53.2815 1.44606 54.0045 1.61291 54.3938 2.00223C54.8388 2.33593 55.1725 3.11458 55.5062 4.1713L64.8499 40.99L73.5262 4.17131C73.8043 3.05896 74.138 2.33593 74.5829 2.00223C75.0279 1.66853 75.8065 1.44606 76.8076 1.44606L81.257 1.44606C82.3138 1.44606 83.0368 1.61291 83.4817 2.00223C83.9267 2.33593 84.316 3.11458 84.5385 4.17131L93.326 41.4349L102.948 4.17131C103.282 3.05896 103.671 2.33593 104.06 2.00223C104.505 1.66853 105.228 1.44606 106.229 1.44606L111.402 1.44606C112.292 1.44606 112.792 1.89099 112.792 2.83649C112.792 3.11458 112.736 3.39266 112.681 3.72637C112.625 4.06007 112.514 4.50501 112.292 5.1168L98.8877 48.109C98.554 49.2214 98.1647 49.9444 97.7198 50.2781C97.2748 50.6118 96.5518 50.8343 95.6063 50.8343L90.8232 50.8343C89.7665 50.8343 89.0434 50.6674 88.5985 50.2781C88.1536 49.8888 87.7643 49.1657 87.5418 48.0534L78.9211 12.1802L70.356 47.9978C70.0779 49.1101 69.7442 49.8331 69.2993 50.2225C68.8544 50.6118 68.0757 50.7786 67.0746 50.7786L62.2915 50.7786ZM133.76 52.2803C130.868 52.2803 127.976 51.9466 125.195 51.2792C122.414 50.6117 120.245 49.8887 118.799 49.0545C117.909 48.5539 117.297 47.9977 117.075 47.4972C116.852 46.9966 116.741 46.4404 116.741 45.9399L116.741 43.1034C116.741 41.9354 117.186 41.3793 118.02 41.3793C118.354 41.3793 118.688 41.4349 119.021 41.5461C119.355 41.6574 119.856 41.8798 120.412 42.1023C122.303 42.9366 124.361 43.604 126.53 44.0489C128.754 44.4938 130.923 44.7163 133.148 44.7163C136.652 44.7163 139.377 44.1045 141.268 42.8809C143.159 41.6574 144.16 39.8776 144.16 37.5973C144.16 36.04 143.66 34.7608 142.659 33.7041C141.658 32.6474 139.767 31.7019 137.041 30.812L128.977 28.3092C124.917 27.03 121.913 25.139 120.078 22.6362C118.243 20.1891 117.297 17.4638 117.297 14.5717C117.297 12.2358 117.798 10.178 118.799 8.39821C119.8 6.61846 121.135 5.06117 122.803 3.83759C124.472 2.5584 126.363 1.6129 128.587 0.945494C130.812 0.278087 133.148 0 135.595 0C136.819 0 138.098 0.0556173 139.322 0.222469C140.601 0.389321 141.769 0.61179 142.937 0.83426C144.049 1.11235 145.106 1.39043 146.107 1.72414C147.108 2.05784 147.887 2.39154 148.443 2.72525C149.222 3.17019 149.778 3.61512 150.111 4.11568C150.445 4.56062 150.612 5.17241 150.612 5.95105L150.612 8.56506C150.612 9.73303 150.167 10.3448 149.333 10.3448C148.888 10.3448 148.165 10.1224 147.219 9.67741C144.049 8.23136 140.49 7.50834 136.541 7.50834C133.371 7.50834 130.868 8.00889 129.144 9.06562C127.42 10.1223 126.53 11.7353 126.53 14.0156C126.53 15.5728 127.086 16.9077 128.198 17.9644C129.311 19.0211 131.368 20.0778 134.316 21.0233L142.214 23.5261C146.218 24.8053 149.11 26.5851 150.835 28.8654C152.559 31.1457 153.393 33.7597 153.393 36.6518C153.393 39.0433 152.892 41.2124 151.947 43.1034C150.946 44.9944 149.611 46.6629 147.887 47.9977C146.163 49.3882 144.105 50.3893 141.713 51.1123C139.21 51.8909 136.596 52.2803 133.76 52.2803L133.76 52.2803Z" transform="translate(7.897522 -1.5258789E-05)" id="Shape" fill="#252F3E" fill-rule="evenodd" stroke="none" />
      <g id="Group" transform="translate(0.9833832 62.34271)">
        <path d="M151.186 13.658C132.888 27.173 106.303 34.3477 83.444 34.3477C51.4083 34.3477 22.5429 22.5012 0.740834 2.8126C-0.983307 1.25531 0.573982 -0.858151 2.63183 0.365431C26.2136 14.0473 55.3015 22.3343 85.3906 22.3343C105.691 22.3343 127.994 18.1074 148.516 9.43107C151.575 8.04064 154.189 11.4333 151.186 13.658L151.186 13.658Z" transform="translate(0 3.3096235)" id="Shape" fill="#FF9900" fill-rule="evenodd" stroke="none" />
        <path d="M22.9218 8.29131C20.5859 5.28796 7.46018 6.84525 1.5091 7.56828C-0.270653 7.79075 -0.54874 6.23346 1.06416 5.06549C11.5202 -2.276 28.706 -0.162543 30.7083 2.28462C32.7105 4.78741 30.1521 21.9732 20.3634 30.2046C18.8617 31.4838 17.4157 30.8164 18.0831 29.1478C20.3078 23.6417 25.2577 11.239 22.9218 8.29131L22.9218 8.29131Z" transform="translate(135.88374 0)" id="Shape" fill="#FF9900" fill-rule="evenodd" stroke="none" />
      </g>
    </g>
  </g>
</svg>