<?xml version="1.0" encoding="utf-8"?>
<svg width="540px" height="100px" viewbox="0 0 540 100" version="1.1" xmlns:xlink="http://www.w3.org/1999/xlink" xmlns="http://www.w3.org/2000/svg">
  <defs>
    <path d="M0 0L539.766 0L539.766 100L0 100L0 0Z" id="path_1" />
    <path d="M0 0L146.199 0L146.199 146.199L0 146.199L0 0L0 0Z" id="path_2" />
    <clipPath id="mask_1">
      <use xlink:href="#path_1" />
    </clipPath>
    <clipPath id="mask_2">
      <use xlink:href="#path_2" />
    </clipPath>
  </defs>
  <g id="svg">
    <g id="Mask-group">
      <path d="M0 0L539.766 0L539.766 100L0 100L0 0Z" id="artboard_1" fill="none" fill-rule="evenodd" stroke="none" />
      <g clip-path="url(#mask_1)">
        <g id="Artboard" transform="translate(7.017544 -27.485382)">
          <g id="Amazon-Web-Services-icon">
            <path d="M0 0L146.199 0L146.199 146.199L0 146.199L0 0L0 0Z" id="Background" fill="none" fill-rule="evenodd" stroke="none" />
            <g id="Mask-group">
              <path d="M0 0L146.199 0L146.199 146.199L0 146.199L0 0L0 0Z" id="path_1" fill="none" fill-rule="evenodd" stroke="none" />
              <g clip-path="url(#mask_2)">
                <g id="Group" transform="translate(-0.0021466038 33.503914)">
                  <path d="M35.1547 32.0694C35.1547 33.8877 35.3496 35.3588 35.6908 36.4401C36.0806 37.5213 36.5649 38.7001 37.2472 39.9763C37.4909 40.3692 37.5883 40.7621 37.5883 41.1063C37.5883 41.5966 37.2959 42.087 36.6654 42.5804L33.6013 44.6425C33.1628 44.9379 32.7272 45.0841 32.3374 45.0841C31.85 45.0841 31.3657 44.8374 30.8784 44.3957C30.1961 43.6587 29.6144 42.8728 29.1271 42.087C28.6397 41.2525 28.1554 40.3204 27.6194 39.1904C23.8274 43.7074 19.0606 45.9674 13.3223 45.9674C9.23795 45.9674 5.97895 44.7887 3.5971 42.4312C1.21527 40.0737 0 36.9305 0 33.0013C0 28.8286 1.45894 25.4386 4.42556 22.8862C7.39216 20.3339 11.3304 19.0546 16.3377 19.0546C17.9916 19.0546 19.6942 19.2008 21.4912 19.4475C23.2882 19.6942 25.1371 20.0871 27.0833 20.5288L27.0833 16.9439C27.0833 13.2127 26.3067 10.6085 24.7989 9.08567C23.2426 7.56275 20.6171 6.82567 16.8738 6.82567C15.1712 6.82567 13.4229 7.02058 11.6228 7.46526C9.82275 7.9069 8.07444 8.44602 6.37181 9.13439C5.59515 9.47854 5.01036 9.67351 4.66922 9.77404C4.32809 9.87146 4.08443 9.92023 3.89254 9.92023C3.21028 9.92023 2.8722 9.42982 2.8722 8.39731L2.8722 5.99111C2.8722 5.2053 2.96966 4.61746 3.21333 4.27328C3.45699 3.9291 3.89559 3.58492 4.5748 3.24075C6.27743 2.35747 8.31813 1.62038 10.703 1.02949C13.0848 0.389873 15.6128 0.0974756 18.287 0.0974756C24.0741 0.0974756 28.3047 1.4224 31.0277 4.0753C33.7019 6.72819 35.0633 10.7547 35.0633 16.155L35.0633 32.0663L35.1547 32.0663L35.1547 32.0694L35.1547 32.0694ZM15.4118 39.5316C17.0169 39.5316 18.6708 39.2361 20.4191 38.6483C22.1704 38.0604 23.7268 36.9792 25.0396 35.505C25.8163 34.573 26.4011 33.5405 26.6935 32.3617C26.9858 31.183 27.1808 29.7575 27.1808 28.0885L27.1808 26.0264C25.7706 25.6823 24.2629 25.3868 22.7065 25.1919C21.1501 24.997 19.6424 24.8964 18.1347 24.8964C14.8757 24.8964 12.4939 25.5361 10.8888 26.861C9.28362 28.1859 8.50696 30.053 8.50696 32.5079C8.50696 34.8167 9.09175 36.5345 10.307 37.7132C11.4736 38.9438 13.1761 39.5316 15.4118 39.5316L15.4118 39.5316L15.4118 39.5316ZM54.4591 44.8374C53.5849 44.8374 53.0001 44.6912 52.6102 44.347C52.2204 44.0515 51.8823 43.3663 51.5899 42.4312L40.162 4.47126C39.8696 3.49051 39.7234 2.85089 39.7234 2.50671C39.7234 1.72089 40.1133 1.27925 40.89 1.27925L45.6567 1.27925C46.5795 1.27925 47.2131 1.42545 47.5542 1.76963C47.9441 2.06507 48.2335 2.75037 48.5258 3.68544L56.6947 36.1964L64.2789 3.68545C64.5222 2.7047 64.8146 2.06508 65.2018 1.76963C65.5912 1.47419 66.2708 1.27925 67.1479 1.27925L71.0374 1.27925C71.9602 1.27925 72.5936 1.42546 72.9836 1.76963C73.3737 2.06508 73.7117 2.75038 73.9064 3.68545L81.5883 36.5893L90.0006 3.68545C90.293 2.7047 90.6339 2.06508 90.9719 1.76963C91.362 1.47419 91.9924 1.27926 92.8696 1.27926L97.393 1.27926C98.1696 1.27926 98.6082 1.67216 98.6082 2.50672C98.6082 2.75343 98.5591 2.99709 98.5105 3.29254C98.462 3.58798 98.3643 3.98089 98.1696 4.52L86.452 42.4799C86.1596 43.4606 85.8187 44.1003 85.4322 44.3957C85.045 44.6912 84.4117 44.8861 83.583 44.8861L79.4012 44.8861C78.4784 44.8861 77.845 44.7399 77.455 44.3957C77.0649 44.0516 76.7269 43.415 76.5322 42.4312L68.9965 10.7548L61.5099 42.3825C61.2667 43.3632 60.9743 44.0028 60.5871 44.347C60.1971 44.6912 59.5181 44.8374 58.6409 44.8374L54.4591 44.8374L54.4591 44.8374L54.4591 44.8374ZM116.941 46.1623C114.413 46.1623 111.885 45.8668 109.454 45.279C107.023 44.6912 105.126 44.0515 103.862 43.3144C103.085 42.8728 102.549 42.3825 102.354 41.9408C102.16 41.4991 102.062 41.0088 102.062 40.5671L102.062 38.0634C102.062 37.0309 102.452 36.5406 103.18 36.5406C103.472 36.5406 103.764 36.5893 104.054 36.6868C104.346 36.7842 104.782 36.9822 105.269 37.1771C106.923 37.9142 108.72 38.502 110.618 38.895C112.564 39.2879 114.458 39.4828 116.405 39.4828C119.469 39.4828 121.851 38.9437 123.505 37.8625C125.158 36.7812 126.033 35.2095 126.033 33.1963C126.033 31.8226 125.594 30.6926 124.72 29.7575C123.846 28.8256 122.192 27.991 119.81 27.2051L112.759 24.9939C109.211 23.8639 106.585 22.1948 104.98 19.9836C103.375 17.8241 102.549 15.4179 102.549 12.8625C102.549 10.8004 102.988 8.98211 103.862 7.41047C104.736 5.83881 105.906 4.46515 107.362 3.38389C108.82 2.25389 110.474 1.41934 112.418 0.831497C114.364 0.246712 116.405 0 118.546 0C119.615 0 120.733 0.0487322 121.805 0.194932C122.923 0.341132 123.943 0.539108 124.967 0.734041C125.938 0.980754 126.864 1.22442 127.738 1.51986C128.612 1.8153 129.295 2.1077 129.782 2.40315C130.464 2.79605 130.949 3.18896 131.241 3.63061C131.533 4.02352 131.68 4.56262 131.68 5.25098L131.68 7.55971C131.68 8.59222 131.289 9.13135 130.561 9.13135C130.172 9.13135 129.542 8.93643 128.713 8.54351C125.941 7.26731 122.828 6.62766 119.377 6.62766C116.606 6.62766 114.419 7.0693 112.911 8.00134C111.404 8.93333 110.627 10.3588 110.627 12.3721C110.627 13.7457 111.114 14.9244 112.086 15.8595C113.057 16.7915 114.857 17.7266 117.434 18.5612L124.339 20.7724C127.839 21.9024 130.37 23.474 131.874 25.4873C133.379 27.5006 134.11 29.8094 134.11 32.3618C134.11 34.4725 133.671 36.3883 132.846 38.0574C131.972 39.7265 130.802 41.2006 129.298 42.3794C127.79 43.6068 125.99 44.4901 123.901 45.1298C121.705 45.8181 119.42 46.1623 116.941 46.1623L116.941 46.1623L116.941 46.1623Z" transform="translate(6.0480847 0)" id="Shape" fill="#252F3E" fill-rule="evenodd" stroke="none" />
                  <path d="M132.178 14.9839C116.181 26.9174 92.9392 33.2526 72.952 33.2526C44.9461 33.2526 19.7085 22.7933 0.647872 5.40787C-0.859807 4.03421 0.501672 2.16713 2.30174 3.24839C22.9188 15.3281 48.3483 22.6471 74.655 22.6471C92.4029 22.6471 111.902 18.916 129.842 11.2528C132.519 10.0253 134.804 13.0194 132.178 14.9839L132.178 14.9839L132.178 14.9839ZM138.839 7.32368C136.795 4.67077 125.322 6.04749 120.12 6.68404C118.563 6.87901 118.32 5.50533 119.73 4.4728C128.87 -2.00869 143.895 -0.144655 145.647 2.01787C147.398 4.22913 145.159 19.4033 136.604 26.6706C135.291 27.8006 134.027 27.2098 134.609 25.7387C136.555 20.8775 140.883 9.9248 138.839 7.32368L138.839 7.32368L138.839 7.32368Z" transform="translate(0 55.04529)" id="Shape#1" fill="#FF9900" fill-rule="evenodd" stroke="none" />
                </g>
              </g>
            </g>
          </g>
          <g id="Amazon-Web-Services" transform="translate(152.15904 59.113457)">
            <path d="M206.615 0L206.615 27.8082L209.665 27.8082C209.977 27.8082 210.224 27.7396 210.405 27.6023C210.586 27.4651 210.713 27.2343 210.788 26.9099L210.994 25.6187C211.306 25.993 211.634 26.3329 211.977 26.6386C212.32 26.9442 212.691 27.2031 213.09 27.4152C213.489 27.6273 213.932 27.7926 214.419 27.9111C214.905 28.0296 215.442 28.0889 216.028 28.0889C217.288 28.0889 218.426 27.8363 219.443 27.331C220.46 26.8257 221.327 26.124 222.044 25.2257C222.762 24.3275 223.314 23.2671 223.701 22.0444C224.087 20.8218 224.281 19.4932 224.281 18.0585C224.281 16.4866 224.109 15.0955 223.766 13.8854C223.423 12.6752 222.936 11.6585 222.306 10.8351C221.676 10.0117 220.928 9.3848 220.061 8.95438C219.194 8.52398 218.236 8.30877 217.188 8.30877C215.903 8.30877 214.781 8.54893 213.82 9.02924C212.859 9.50955 211.998 10.1552 211.237 10.9661L211.237 0L206.615 0L206.615 0ZM316.07 3.01287C316.07 3.41209 315.989 3.78635 315.827 4.13567C315.665 4.48499 315.45 4.79064 315.181 5.05263C314.913 5.31462 314.598 5.52359 314.236 5.67953C313.874 5.83548 313.488 5.91345 313.076 5.91345C312.677 5.91345 312.299 5.83548 311.944 5.67953C311.588 5.52359 311.28 5.31462 311.018 5.05263C310.756 4.79064 310.547 4.48499 310.391 4.13567C310.235 3.78635 310.157 3.41209 310.157 3.01287C310.157 2.60117 310.235 2.21442 310.391 1.85263C310.547 1.49084 310.756 1.17895 311.018 0.916959C311.28 0.65497 311.588 0.446003 311.944 0.29006C312.299 0.134112 312.677 0.0561407 313.076 0.0561407C313.488 0.0561407 313.874 0.134112 314.236 0.29006C314.598 0.446003 314.913 0.65497 315.181 0.916959C315.45 1.17895 315.665 1.49084 315.827 1.85263C315.989 2.21442 316.07 2.60117 316.07 3.01287L316.07 3.01287ZM249.881 5.67017C249.743 5.94464 249.584 6.13801 249.404 6.25029C249.223 6.36257 249.007 6.41871 248.758 6.41871C248.508 6.41871 248.228 6.32203 247.916 6.12865C247.604 5.93529 247.236 5.72008 246.812 5.48304C246.388 5.246 245.892 5.0308 245.324 4.83743C244.756 4.64405 244.086 4.54737 243.312 4.54737C242.614 4.54737 242.005 4.63158 241.488 4.8C240.97 4.96842 240.533 5.20234 240.178 5.50175C239.822 5.80117 239.557 6.15984 239.382 6.57778C239.208 6.99571 239.12 7.45419 239.12 7.95322C239.12 8.58948 239.298 9.11969 239.654 9.54386C240.009 9.96803 240.48 10.3298 241.067 10.6292C241.653 10.9287 242.32 11.1969 243.069 11.4339C243.818 11.671 244.582 11.9236 245.361 12.1918C246.141 12.46 246.905 12.7719 247.654 13.1275C248.402 13.483 249.07 13.9322 249.656 14.4749C250.243 15.0175 250.713 15.6819 251.069 16.4678C251.425 17.2538 251.602 18.2082 251.602 19.331C251.602 20.5536 251.393 21.6982 250.975 22.7649C250.557 23.8316 249.946 24.761 249.142 25.5532C248.337 26.3454 247.354 26.9692 246.194 27.4246C245.034 27.8799 243.705 28.1076 242.208 28.1076C241.347 28.1076 240.499 28.0234 239.663 27.855C238.827 27.6865 238.026 27.4464 237.258 27.1345C236.491 26.8226 235.774 26.4483 235.106 26.0117C234.439 25.575 233.843 25.0885 233.319 24.552L234.779 22.138C234.916 21.9634 235.081 21.8168 235.275 21.6982C235.468 21.5797 235.683 21.5205 235.92 21.5205C236.232 21.5205 236.569 21.6483 236.931 21.9041C237.293 22.1598 237.72 22.4437 238.213 22.7556C238.706 23.0674 239.286 23.3513 239.953 23.607C240.621 23.8628 241.422 23.9906 242.358 23.9906C243.793 23.9906 244.903 23.6507 245.689 22.9708C246.475 22.2908 246.868 21.3146 246.868 20.0421C246.868 19.331 246.69 18.7509 246.335 18.3018C245.979 17.8526 245.508 17.4752 244.922 17.1696C244.335 16.8639 243.668 16.6051 242.919 16.393C242.171 16.1809 241.41 15.9501 240.636 15.7006C239.863 15.4511 239.102 15.1517 238.353 14.8023C237.605 14.453 236.937 13.9977 236.351 13.4363C235.765 12.8749 235.294 12.1731 234.938 11.331C234.582 10.4889 234.405 9.45029 234.405 8.21521C234.405 7.22963 234.601 6.26901 234.994 5.33333C235.387 4.39766 235.961 3.56803 236.716 2.84444C237.471 2.12086 238.397 1.54074 239.495 1.10409C240.593 0.667447 241.846 0.449124 243.256 0.449124C244.853 0.449124 246.325 0.698636 247.673 1.19766C249.02 1.69669 250.168 2.39532 251.116 3.29357L249.881 5.67017L249.881 5.67017ZM26.4047 27.8082L22.5123 27.8082C22.0756 27.8082 21.717 27.699 21.4363 27.4807C21.1556 27.2624 20.9528 26.991 20.8281 26.6667L18.807 21.1462L7.59766 21.1462L5.57661 26.6667C5.47682 26.9536 5.28033 27.2156 4.98714 27.4526C4.69396 27.6897 4.3353 27.8082 3.91112 27.8082L0 27.8082L10.6293 0.748537L15.7754 0.748537L26.4047 27.8082L26.4047 27.8082ZM149.371 0.748537L145.142 0.748537L153.544 27.8082L158.091 27.8082L164.061 9.3193C164.136 9.08226 164.214 8.82651 164.295 8.55205C164.376 8.27758 164.454 7.98441 164.529 7.67252C164.604 7.98441 164.682 8.27758 164.763 8.55205C164.844 8.82651 164.922 9.08226 164.996 9.3193L170.91 27.8082L175.457 27.8082L183.86 0.748537L179.911 0.748537C179.487 0.748537 179.125 0.860819 178.826 1.08538C178.526 1.30994 178.333 1.57817 178.246 1.89006L173.642 18.0772C173.542 18.4639 173.446 18.8819 173.352 19.331C173.258 19.7801 173.168 20.248 173.081 20.7345C172.881 19.7614 172.644 18.8756 172.37 18.0772L167.092 1.89006C166.98 1.54074 166.781 1.26316 166.494 1.05731C166.207 0.851463 165.845 0.748537 165.408 0.748537L163.93 0.748537C163.506 0.748537 163.147 0.867056 162.854 1.10409C162.561 1.34113 162.364 1.60312 162.264 1.89006L156.95 18.0772C156.812 18.4764 156.685 18.9099 156.566 19.3778C156.448 19.8456 156.338 20.3415 156.239 20.8655C156.151 20.3415 156.061 19.8456 155.967 19.3778C155.874 18.9099 155.771 18.4764 155.659 18.0772L151.055 1.89006C150.955 1.54074 150.759 1.26316 150.466 1.05731C150.172 0.851463 149.807 0.748537 149.371 0.748537L149.371 0.748537ZM8.8889 17.5906L17.5158 17.5906L14.2222 8.58948C14.0725 8.19025 13.9072 7.7193 13.7263 7.17661C13.5454 6.63392 13.3676 6.04444 13.193 5.40819C13.0183 6.04444 12.8468 6.63704 12.6784 7.18597C12.5099 7.73489 12.3446 8.21521 12.1825 8.6269L8.8889 17.5906L8.8889 17.5906ZM73.4129 27.8082L75.4901 27.8082L75.4901 15.6819C75.4901 14.5965 75.331 13.5984 75.0129 12.6877C74.6948 11.777 74.23 10.9942 73.6187 10.3392C73.0074 9.68421 72.262 9.17271 71.3825 8.80468C70.5029 8.43665 69.5018 8.25263 68.379 8.25263C65.2601 8.25263 62.5965 9.26315 60.3883 11.2842L61.2304 12.7626C61.3677 12.9996 61.5485 13.1992 61.7731 13.3614C61.9977 13.5236 62.2659 13.6047 62.5778 13.6047C62.9521 13.6047 63.2951 13.5174 63.607 13.3427C63.9189 13.168 64.2589 12.9715 64.6269 12.7532C64.9949 12.5349 65.4285 12.3384 65.9275 12.1637C66.4265 11.9891 67.0503 11.9018 67.7988 11.9018C68.8343 11.9018 69.6234 12.2129 70.1661 12.8351C70.7088 13.4573 70.9801 14.4159 70.9801 15.7108L70.9801 16.8421C68.7969 16.8421 66.9692 17.0299 65.4971 17.4054C64.025 17.781 62.846 18.2535 61.9602 18.823C61.0745 19.3925 60.4413 20.0308 60.0608 20.738C59.6803 21.4452 59.4901 22.1619 59.4901 22.888C59.4901 23.7516 59.6273 24.5088 59.9018 25.1598C60.1762 25.8108 60.5598 26.3553 61.0526 26.7934C61.5454 27.2315 62.1349 27.5601 62.8211 27.7791C63.5072 27.9981 64.2558 28.1076 65.0667 28.1076C65.7528 28.1076 66.3766 28.0515 66.938 27.9392C67.4994 27.8269 68.0296 27.6585 68.5287 27.4339C69.0277 27.2094 69.5111 26.9318 69.979 26.6012C70.4468 26.2706 70.924 25.8869 71.4105 25.4503L71.8222 26.8164C71.947 27.2156 72.1341 27.4807 72.3836 27.6117C72.6331 27.7427 72.9762 27.8082 73.4129 27.8082L73.4129 27.8082ZM275.2 8.60819L277.913 8.60819C278.388 8.60819 278.718 8.69552 278.905 8.87017C279.092 9.04483 279.217 9.34425 279.28 9.76842L279.56 12.0889C280.246 10.9037 281.051 9.96803 281.974 9.28187C282.897 8.59571 283.933 8.25263 285.081 8.25263C286.029 8.25263 286.815 8.47096 287.439 8.9076L286.84 12.3696C286.802 12.5941 286.721 12.7532 286.596 12.8468C286.472 12.9403 286.303 12.9871 286.091 12.9871C285.904 12.9871 285.648 12.9435 285.324 12.8561C285 12.7688 284.569 12.7251 284.033 12.7251C283.072 12.7251 282.249 12.9903 281.563 13.5205C280.876 14.0507 280.296 14.8273 279.822 15.8503L279.822 27.8082L275.2 27.8082L275.2 8.60819L275.2 8.60819ZM28.931 27.8082L28.931 8.60819L31.7567 8.60819C32.3556 8.60819 32.7486 8.88889 32.9357 9.45029L33.2351 10.8725C33.5719 10.4982 33.9244 10.1552 34.2924 9.84328C34.6604 9.53138 35.0534 9.26316 35.4713 9.0386C35.8893 8.81403 36.3384 8.63626 36.8187 8.50526C37.299 8.37427 37.8261 8.30877 38.4 8.30877C39.6101 8.30877 40.6051 8.63626 41.3848 9.29123C42.1645 9.9462 42.7478 10.8164 43.1345 11.9018C43.4339 11.2655 43.8082 10.7197 44.2573 10.2643C44.7064 9.80896 45.1992 9.43782 45.7357 9.15088C46.2721 8.86394 46.8429 8.65185 47.448 8.51462C48.053 8.37739 48.6612 8.30877 49.2725 8.30877C50.3329 8.30877 51.2749 8.47096 52.0982 8.79532C52.9216 9.11969 53.614 9.59376 54.1754 10.2175C54.7368 10.8413 55.1641 11.6023 55.4573 12.5006C55.7505 13.3988 55.8971 14.4281 55.8971 15.5883L55.8971 27.8082L51.2749 27.8082L51.2749 15.5883C51.2749 14.3657 51.0066 13.4456 50.4702 12.8281C49.9337 12.2105 49.1478 11.9018 48.1123 11.9018C47.6382 11.9018 47.1984 11.9828 46.793 12.145C46.3875 12.3072 46.032 12.5411 45.7263 12.8468C45.4207 13.1524 45.1805 13.5361 45.0059 13.9977C44.8312 14.4593 44.7439 14.9895 44.7439 15.5883L44.7439 27.8082L40.1029 27.8082L40.1029 15.5883C40.1029 14.3033 39.844 13.3676 39.3263 12.7813C38.8086 12.1949 38.0444 11.9018 37.0339 11.9018C36.3727 11.9018 35.7521 12.0671 35.1719 12.3977C34.5918 12.7283 34.0522 13.1805 33.5532 13.7544L33.5532 27.8082L28.931 27.8082L28.931 27.8082ZM109.708 9.00117C108.541 8.53957 107.241 8.30877 105.806 8.30877C104.371 8.30877 103.067 8.53957 101.895 9.00117C100.722 9.46277 99.7209 10.1177 98.8912 10.9661C98.0616 11.8144 97.4191 12.8499 96.9637 14.0725C96.5084 15.2951 96.2807 16.6612 96.2807 18.1708C96.2807 19.6928 96.5084 21.0651 96.9637 22.2877C97.4191 23.5103 98.0616 24.552 98.8912 25.4129C99.7209 26.2737 100.722 26.9349 101.895 27.3965C103.067 27.8581 104.371 28.0889 105.806 28.0889C107.241 28.0889 108.541 27.8581 109.708 27.3965C110.874 26.9349 111.869 26.2737 112.692 25.4129C113.516 24.552 114.152 23.5103 114.601 22.2877C115.05 21.0651 115.275 19.6928 115.275 18.1708C115.275 16.6612 115.05 15.2951 114.601 14.0725C114.152 12.8499 113.516 11.8144 112.692 10.9661C111.869 10.1177 110.874 9.46277 109.708 9.00117L109.708 9.00117ZM118.887 8.60819L121.712 8.60819C122.311 8.60819 122.704 8.88889 122.891 9.45029L123.209 10.9661C123.596 10.5669 124.005 10.2051 124.435 9.8807C124.866 9.55633 125.321 9.27563 125.801 9.0386C126.281 8.80156 126.796 8.62066 127.345 8.49591C127.894 8.37115 128.493 8.30877 129.142 8.30877C130.189 8.30877 131.119 8.48655 131.93 8.84211C132.741 9.19766 133.418 9.69668 133.96 10.3392C134.503 10.9817 134.915 11.7489 135.195 12.6409C135.476 13.5329 135.616 14.5154 135.616 15.5883L135.616 27.8082L130.994 27.8082L130.994 15.5883C130.994 14.4156 130.723 13.508 130.18 12.8655C129.637 12.223 128.823 11.9018 127.738 11.9018C126.94 11.9018 126.191 12.0826 125.492 12.4444C124.794 12.8062 124.133 13.299 123.509 13.9228L123.509 27.8082L118.887 27.8082L118.887 8.60819L118.887 8.60819ZM194.489 8.30877C195.699 8.30877 196.812 8.50214 197.829 8.88889C198.846 9.27563 199.722 9.84016 200.458 10.5825C201.195 11.3248 201.768 12.2355 202.18 13.3146C202.592 14.3938 202.798 15.6257 202.798 17.0105C202.798 17.3598 202.782 17.6499 202.751 17.8807C202.72 18.1115 202.664 18.2924 202.582 18.4234C202.501 18.5544 202.392 18.648 202.255 18.7041C202.118 18.7602 201.943 18.7883 201.731 18.7883L189.867 18.7883C190.004 20.7595 190.534 22.2066 191.457 23.1298C192.38 24.053 193.603 24.5146 195.125 24.5146C195.874 24.5146 196.519 24.4273 197.062 24.2526C197.605 24.078 198.079 23.8846 198.484 23.6725C198.89 23.4604 199.245 23.2671 199.551 23.0924C199.857 22.9177 200.153 22.8304 200.44 22.8304C200.627 22.8304 200.789 22.8678 200.926 22.9427C201.064 23.0175 201.182 23.1236 201.282 23.2608L202.629 24.945C202.118 25.5439 201.544 26.046 200.908 26.4515C200.271 26.8569 199.607 27.1813 198.915 27.4246C198.222 27.6678 197.517 27.8394 196.8 27.9392C196.083 28.039 195.387 28.0889 194.713 28.0889C193.379 28.0889 192.137 27.8674 190.989 27.4246C189.842 26.9817 188.844 26.3267 187.995 25.4596C187.147 24.5926 186.48 23.5197 185.993 22.2409C185.506 20.9622 185.263 19.4807 185.263 17.7965C185.263 16.4865 185.475 15.2546 185.899 14.1006C186.324 12.9466 186.932 11.9423 187.724 11.0877C188.516 10.2331 189.483 9.55633 190.625 9.05731C191.766 8.55828 193.054 8.30877 194.489 8.30877L194.489 8.30877ZM266.47 8.88889C265.453 8.50214 264.34 8.30877 263.13 8.30877C261.695 8.30877 260.407 8.55828 259.266 9.05731C258.124 9.55633 257.157 10.2331 256.365 11.0877C255.573 11.9423 254.965 12.9466 254.54 14.1006C254.116 15.2546 253.904 16.4865 253.904 17.7965C253.904 19.4807 254.147 20.9622 254.634 22.2409C255.12 23.5197 255.788 24.5926 256.636 25.4596C257.485 26.3267 258.483 26.9817 259.63 27.4246C260.778 27.8674 262.02 28.0889 263.354 28.0889C264.028 28.0889 264.724 28.039 265.441 27.9392C266.158 27.8394 266.863 27.6678 267.556 27.4246C268.248 27.1813 268.912 26.8569 269.549 26.4515C270.185 26.046 270.759 25.5439 271.27 24.945L269.923 23.2608C269.823 23.1236 269.704 23.0175 269.567 22.9427C269.43 22.8678 269.268 22.8304 269.081 22.8304C268.794 22.8304 268.497 22.9177 268.192 23.0924C267.886 23.2671 267.531 23.4604 267.125 23.6725C266.72 23.8846 266.246 24.078 265.703 24.2526C265.16 24.4273 264.515 24.5146 263.766 24.5146C262.244 24.5146 261.021 24.053 260.098 23.1298C259.175 22.2066 258.645 20.7595 258.508 18.7883L270.372 18.7883C270.584 18.7883 270.759 18.7602 270.896 18.7041C271.033 18.648 271.142 18.5544 271.223 18.4234C271.305 18.2924 271.361 18.1115 271.392 17.8807C271.423 17.6499 271.439 17.3598 271.439 17.0105C271.439 15.6257 271.233 14.3938 270.821 13.3146C270.409 12.2355 269.835 11.3248 269.099 10.5825C268.363 9.84016 267.487 9.27563 266.47 8.88889L266.47 8.88889ZM333.689 13.0807C333.82 12.9809 333.954 12.8437 334.091 12.669L335.308 10.9848C334.447 10.124 333.477 9.46277 332.398 9.00117C331.318 8.53957 330.062 8.30877 328.627 8.30877C327.117 8.30877 325.782 8.55828 324.622 9.05731C323.462 9.55633 322.489 10.2456 321.703 11.1251C320.917 12.0047 320.321 13.0464 319.916 14.2503C319.51 15.4542 319.308 16.761 319.308 18.1708C319.308 19.7427 319.535 21.1431 319.991 22.3719C320.446 23.6008 321.064 24.6394 321.843 25.4877C322.623 26.3361 323.537 26.9817 324.585 27.4246C325.633 27.8674 326.749 28.0889 327.935 28.0889C328.608 28.0889 329.288 28.039 329.974 27.9392C330.66 27.8394 331.325 27.6678 331.967 27.4246C332.61 27.1813 333.23 26.8569 333.829 26.4515C334.428 26.046 334.983 25.5439 335.495 24.945L334.166 23.2608C333.979 22.9739 333.698 22.8304 333.324 22.8304C333.037 22.8304 332.778 22.9209 332.547 23.1018C332.317 23.2826 332.045 23.4823 331.733 23.7006C331.421 23.9189 331.038 24.1185 330.582 24.2994C330.127 24.4803 329.531 24.5708 328.795 24.5708C328.059 24.5708 327.398 24.4304 326.812 24.1497C326.225 23.869 325.726 23.4573 325.315 22.9146C324.903 22.3719 324.588 21.7014 324.37 20.9029C324.151 20.1045 324.042 19.1938 324.042 18.1708C324.042 17.1852 324.142 16.3025 324.341 15.5228C324.541 14.7431 324.844 14.0787 325.249 13.5298C325.655 12.9809 326.163 12.5598 326.774 12.2667C327.386 11.9735 328.097 11.8269 328.908 11.8269C329.544 11.8269 330.077 11.8986 330.508 12.0421C330.938 12.1856 331.309 12.3478 331.621 12.5287C331.933 12.7096 332.201 12.8717 332.426 13.0152C332.65 13.1587 332.881 13.2304 333.118 13.2304C333.368 13.2304 333.558 13.1805 333.689 13.0807L333.689 13.0807ZM346.386 8.30877C347.596 8.30877 348.71 8.50214 349.726 8.88889C350.743 9.27563 351.619 9.84016 352.356 10.5825C353.092 11.3248 353.665 12.2355 354.077 13.3146C354.489 14.3938 354.695 15.6257 354.695 17.0105C354.695 17.3598 354.679 17.6499 354.648 17.8807C354.617 18.1115 354.561 18.2924 354.48 18.4234C354.398 18.5544 354.289 18.648 354.152 18.7041C354.015 18.7602 353.84 18.7883 353.628 18.7883L341.764 18.7883C341.901 20.7595 342.431 22.2066 343.354 23.1298C344.278 24.053 345.5 24.5146 347.022 24.5146C347.771 24.5146 348.416 24.4273 348.959 24.2526C349.502 24.078 349.976 23.8846 350.381 23.6725C350.787 23.4604 351.142 23.2671 351.448 23.0924C351.754 22.9177 352.05 22.8304 352.337 22.8304C352.524 22.8304 352.686 22.8678 352.823 22.9427C352.961 23.0175 353.079 23.1236 353.179 23.2608L354.526 24.945C354.015 25.5439 353.441 26.046 352.805 26.4515C352.168 26.8569 351.504 27.1813 350.812 27.4246C350.119 27.6678 349.414 27.8394 348.697 27.9392C347.98 28.039 347.284 28.0889 346.611 28.0889C345.276 28.0889 344.034 27.8674 342.887 27.4246C341.739 26.9817 340.741 26.3267 339.892 25.4596C339.044 24.5926 338.377 23.5197 337.89 22.2409C337.404 20.9622 337.16 19.4807 337.16 17.7965C337.16 16.4865 337.372 15.2546 337.796 14.1006C338.221 12.9466 338.829 11.9423 339.621 11.0877C340.413 10.2331 341.38 9.55633 342.522 9.05731C343.663 8.55828 344.951 8.30877 346.386 8.30877L346.386 8.30877ZM369.46 12.7719C369.597 12.6908 369.728 12.5505 369.853 12.3509L370.901 10.6854C370.177 9.97427 369.272 9.40039 368.187 8.96374C367.102 8.52709 365.898 8.30877 364.575 8.30877C363.39 8.30877 362.345 8.46783 361.441 8.78597C360.536 9.10409 359.782 9.52827 359.177 10.0585C358.572 10.5887 358.113 11.2094 357.801 11.9205C357.489 12.6316 357.333 13.3801 357.333 14.1661C357.333 15.0144 357.467 15.738 357.736 16.3368C358.004 16.9357 358.359 17.4409 358.802 17.8526C359.245 18.2643 359.75 18.6043 360.318 18.8725C360.886 19.1407 361.466 19.3747 362.058 19.5743C362.651 19.7739 363.231 19.9579 363.799 20.1263C364.366 20.2947 364.872 20.485 365.315 20.6971C365.757 20.9092 366.113 21.1587 366.381 21.4456C366.649 21.7326 366.784 22.1006 366.784 22.5497C366.784 22.8491 366.724 23.1392 366.606 23.4199C366.487 23.7006 366.3 23.947 366.044 24.1591C365.789 24.3711 365.464 24.5427 365.071 24.6737C364.678 24.8047 364.207 24.8702 363.658 24.8702C362.96 24.8702 362.383 24.7891 361.927 24.6269C361.472 24.4647 361.076 24.2901 360.739 24.1029C360.402 23.9158 360.106 23.7411 359.85 23.5789C359.595 23.4168 359.323 23.3357 359.036 23.3357C358.749 23.3357 358.512 23.3918 358.325 23.5041C358.138 23.6164 357.976 23.7786 357.839 23.9906L356.772 25.7497C357.146 26.0865 357.58 26.3984 358.072 26.6854C358.565 26.9723 359.102 27.2218 359.682 27.4339C360.262 27.646 360.867 27.8113 361.497 27.9298C362.127 28.0483 362.773 28.1076 363.434 28.1076C364.669 28.1076 365.764 27.9485 366.718 27.6304C367.672 27.3123 368.474 26.8694 369.123 26.3018C369.772 25.7341 370.264 25.0604 370.601 24.2807C370.938 23.501 371.106 22.6495 371.106 21.7263C371.106 20.9528 370.972 20.2916 370.704 19.7427C370.436 19.1938 370.08 18.7228 369.637 18.3298C369.194 17.9368 368.692 17.6125 368.131 17.3567C367.57 17.101 366.996 16.8733 366.409 16.6737C365.823 16.4741 365.249 16.2901 364.688 16.1216C364.126 15.9532 363.624 15.763 363.181 15.5509C362.738 15.3388 362.383 15.0924 362.115 14.8117C361.846 14.531 361.712 14.1848 361.712 13.7731C361.712 13.1493 361.974 12.6441 362.498 12.2573C363.022 11.8706 363.74 11.6772 364.65 11.6772C365.237 11.6772 365.745 11.7396 366.175 11.8643C366.606 11.9891 366.989 12.1294 367.326 12.2854C367.663 12.4413 367.959 12.5817 368.215 12.7064C368.471 12.8312 368.711 12.8936 368.936 12.8936C369.148 12.8936 369.322 12.853 369.46 12.7719L369.46 12.7719ZM93.9228 10.517C93.9228 10.8413 93.8636 11.1563 93.745 11.462C93.6265 11.7676 93.4862 12.0265 93.324 12.2386L84.1918 24.2526L93.6608 24.2526L93.6608 27.8082L78.8211 27.8082L78.8211 25.8807C78.8211 25.6686 78.871 25.416 78.9708 25.1228C79.0706 24.8296 79.2265 24.552 79.4386 24.2901L88.6456 12.145L79.3637 12.145L79.3637 8.60819L93.9228 8.60819L93.9228 10.517L93.9228 10.517ZM295.916 27.8082L300.108 27.8082L307.724 8.60819L304.075 8.60819C303.763 8.60819 303.495 8.68928 303.27 8.85146C303.046 9.01364 302.89 9.21949 302.802 9.46901L299.004 19.724C298.779 20.3228 298.595 20.9092 298.451 21.483C298.308 22.0569 298.18 22.6308 298.068 23.2047C297.956 22.6308 297.828 22.0569 297.684 21.483C297.541 20.9092 297.363 20.3228 297.151 19.724L293.446 9.46901C293.358 9.21949 293.199 9.01364 292.968 8.85146C292.738 8.68928 292.454 8.60819 292.117 8.60819L288.281 8.60819L295.916 27.8082L295.916 27.8082ZM315.378 27.8082L310.756 27.8082L310.756 8.60819L315.378 8.60819L315.378 27.8082L315.378 27.8082ZM194.582 11.6211C193.235 11.6211 192.181 12.0016 191.42 12.7626C190.659 13.5236 190.172 14.6027 189.96 16L198.643 16C198.643 15.4012 198.562 14.8366 198.4 14.3064C198.238 13.7762 197.988 13.3115 197.651 12.9123C197.315 12.5131 196.89 12.198 196.379 11.9673C195.867 11.7365 195.269 11.6211 194.582 11.6211L194.582 11.6211ZM260.061 12.7626C260.822 12.0016 261.876 11.6211 263.223 11.6211C263.91 11.6211 264.508 11.7365 265.02 11.9673C265.531 12.198 265.956 12.5131 266.292 12.9123C266.629 13.3115 266.879 13.7762 267.041 14.3064C267.203 14.8366 267.284 15.4012 267.284 16L258.601 16C258.813 14.6027 259.3 13.5236 260.061 12.7626L260.061 12.7626ZM346.48 11.6211C345.132 11.6211 344.078 12.0016 343.317 12.7626C342.556 13.5236 342.069 14.6027 341.857 16L350.54 16C350.54 15.4012 350.459 14.8366 350.297 14.3064C350.135 13.7762 349.885 13.3115 349.549 12.9123C349.212 12.5131 348.788 12.198 348.276 11.9673C347.765 11.7365 347.166 11.6211 346.48 11.6211L346.48 11.6211ZM109.352 22.924C108.585 23.9969 107.403 24.5333 105.806 24.5333C104.184 24.5333 102.986 23.9938 102.213 22.9146C101.439 21.8355 101.053 20.2667 101.053 18.2082C101.053 16.1497 101.439 14.5747 102.213 13.483C102.986 12.3914 104.184 11.8456 105.806 11.8456C107.403 11.8456 108.585 12.3883 109.352 13.4737C110.119 14.5591 110.503 16.1372 110.503 18.2082C110.503 20.2791 110.119 21.8511 109.352 22.924L109.352 22.924ZM213.137 12.5099C213.817 12.1045 214.637 11.9018 215.598 11.9018C216.209 11.9018 216.755 12.014 217.235 12.2386C217.715 12.4632 218.124 12.8187 218.461 13.3053C218.798 13.7918 219.057 14.425 219.237 15.2047C219.418 15.9844 219.509 16.9357 219.509 18.0585C219.509 19.1688 219.403 20.1326 219.191 20.9497C218.979 21.7669 218.676 22.4437 218.283 22.9801C217.89 23.5166 217.413 23.9158 216.851 24.1778C216.29 24.4398 215.66 24.5708 214.961 24.5708C214.238 24.5708 213.567 24.4429 212.95 24.1871C212.332 23.9314 211.761 23.4791 211.237 22.8304L211.237 14.2222C211.824 13.4862 212.457 12.9154 213.137 12.5099L213.137 12.5099ZM67.8176 24.7974C67.4183 24.8833 66.9817 24.9263 66.5076 24.9263C65.7341 24.9263 65.1072 24.7504 64.6269 24.3985C64.1466 24.0467 63.9064 23.4624 63.9064 22.6456C63.9064 22.231 64.0218 21.8478 64.2526 21.4961C64.4834 21.1443 64.8733 20.8365 65.4222 20.5725C65.9712 20.3086 66.6979 20.0918 67.6023 19.9222C68.5068 19.7526 69.6328 19.6678 70.9801 19.6678L70.9801 22.8816C70.6433 23.2254 70.3096 23.5233 69.979 23.775C69.6484 24.0268 69.3053 24.2386 68.9497 24.4105C68.5942 24.5825 68.2168 24.7114 67.8176 24.7974L67.8176 24.7974Z" id="Shape" fill="#252F3E" fill-rule="evenodd" stroke="none" />
          </g>
        </g>
      </g>
    </g>
  </g>
</svg>