<?xml version="1.0" encoding="utf-8"?>
<svg width="631px" height="165px" viewbox="0 0 631 165" version="1.1" xmlns:xlink="http://www.w3.org/1999/xlink" xmlns="http://www.w3.org/2000/svg">
  <defs>
    <path d="M0 0L165 0L165 165L0 165L0 0Z" id="path_1" />
    <clipPath id="mask_1">
      <use xlink:href="#path_1" />
    </clipPath>
  </defs>
  <g id="Azure-icon">
    <path d="M0 0L165 0L165 165L0 165L0 0Z" id="Background" fill="none" fill-rule="evenodd" stroke="none" />
    <g clip-path="url(#mask_1)">
      <path d="M151.25 117.982L93.9022 17.7856L71.5275 62.8444L110.918 108.494L37.8125 116.796L151.25 117.982ZM38.1288 42.9825L0 107.312L32.4569 104.05L89.4884 0L38.1288 42.9825Z" transform="translate(6.8749695 19.518158)" id="Shape" fill="#035BDA" fill-rule="evenodd" stroke="none" />
    </g>
  </g>
  <g id="Microsoft-Azure" fill="#035BDA" transform="translate(165 44)">
    <path d="M72.928 21.156Q73.344 20.26 73.344 19.236Q73.344 18.18 72.928 17.252Q72.512 16.324 71.824 15.652Q71.136 14.98 70.208 14.58Q69.28 14.18 68.224 14.18Q67.2 14.18 66.288 14.58Q65.376 14.98 64.704 15.652Q64.032 16.324 63.632 17.252Q63.232 18.18 63.232 19.236Q63.232 20.26 63.632 21.156Q64.032 22.052 64.704 22.724Q65.376 23.396 66.288 23.796Q67.2 24.196 68.224 24.196Q69.28 24.196 70.208 23.796Q71.136 23.396 71.824 22.724Q72.512 22.052 72.928 21.156ZM239.904 34.756L239.904 61.636L247.808 61.636L247.808 34.724L256.096 34.724L256.096 29.092L247.552 29.092L247.552 26.916Q247.552 25.092 247.952 23.86Q248.352 22.628 249.12 21.876Q249.888 21.124 250.992 20.82Q252.096 20.516 253.504 20.516Q254.56 20.516 255.36 20.292Q256.16 20.068 256.224 19.14L256.384 15.172Q254.432 14.564 252.16 14.564Q249.312 14.564 247.04 15.396Q244.768 16.228 243.184 17.796Q241.6 19.364 240.752 21.604Q239.904 23.844 239.904 26.66L239.904 29.092L235.008 29.092L235.008 32.324Q235.008 33.188 235.568 33.668Q236.128 34.148 237.056 34.308L239.904 34.756ZM28.912 44.564Q28.448 43.46 27.904 42.436L14.08 16.74Q13.824 16.26 13.536 15.972Q13.248 15.684 12.912 15.556Q12.576 15.428 12.16 15.396Q11.744 15.364 11.168 15.364L4.672 15.364L4.672 61.636L12.256 61.636L12.256 31.748Q12.256 30.884 12.208 29.876Q12.16 28.868 12.032 27.812L26.208 54.148Q26.688 55.044 27.456 55.54Q28.224 56.036 29.248 56.036L30.432 56.036Q31.456 56.036 32.224 55.54Q32.992 55.044 33.472 54.148L47.456 27.908Q47.36 28.932 47.312 29.924Q47.264 30.916 47.264 31.748L47.264 61.636L54.848 61.636L54.848 15.364L48.352 15.364Q47.776 15.364 47.36 15.396Q46.944 15.428 46.608 15.556Q46.272 15.684 46 15.972Q45.728 16.26 45.472 16.74L31.776 42.372Q31.232 43.396 30.752 44.516Q30.272 45.636 29.824 46.788Q29.376 45.668 28.912 44.564ZM332.512 61.636L339.168 61.636L320.992 15.364L312.192 15.364L294.016 61.636L300.704 61.636Q301.792 61.636 302.544 61.028Q303.296 60.42 303.552 59.684L307.008 50.244L326.176 50.244L329.632 59.684Q329.952 60.516 330.672 61.076Q331.392 61.636 332.512 61.636ZM271.712 62.148Q267.456 62.148 265.152 59.732Q262.848 57.316 262.848 53.06L262.848 34.724L259.52 34.724Q258.88 34.724 258.416 34.308Q257.952 33.892 257.952 33.06L257.952 29.924L263.232 29.06L264.896 20.1Q265.024 19.46 265.488 19.108Q265.952 18.756 266.656 18.756L270.752 18.756L270.752 29.092L279.392 29.092L279.392 34.724L270.752 34.724L270.752 52.516Q270.752 54.052 271.52 54.916Q272.288 55.78 273.568 55.78Q274.304 55.78 274.8 55.604Q275.296 55.428 275.664 55.236Q276.032 55.044 276.32 54.868Q276.608 54.692 276.896 54.692Q277.248 54.692 277.472 54.868Q277.696 55.044 277.952 55.396L280.32 59.236Q278.592 60.676 276.352 61.412Q274.112 62.148 271.712 62.148ZM323.968 44.164L309.216 44.164L314.848 28.836Q315.264 27.78 315.696 26.372Q316.128 24.964 316.576 23.332Q317.024 24.964 317.488 26.356Q317.952 27.748 318.336 28.772L323.968 44.164ZM111.616 28.804L111.616 61.636L119.52 61.636L119.52 41.188Q120.736 38.564 122.496 37.204Q124.256 35.844 126.72 35.844Q128.096 35.844 128.928 36.068Q129.76 36.292 130.24 36.292Q130.784 36.292 131.104 36.052Q131.424 35.812 131.52 35.236L132.544 29.316Q130.944 28.196 128.512 28.196Q125.568 28.196 123.2 29.956Q120.832 31.716 119.072 34.756L118.592 30.788Q118.432 29.7 117.952 29.252Q117.472 28.804 116.256 28.804L111.616 28.804ZM409.92 28.804L414.56 28.804Q415.776 28.804 416.256 29.252Q416.736 29.7 416.896 30.788L417.376 34.756Q419.136 31.716 421.504 29.956Q423.872 28.196 426.816 28.196Q429.248 28.196 430.848 29.316L429.824 35.236Q429.728 35.812 429.408 36.052Q429.088 36.292 428.544 36.292Q428.064 36.292 427.232 36.068Q426.4 35.844 425.024 35.844Q422.56 35.844 420.8 37.204Q419.04 38.564 417.824 41.188L417.824 61.636L409.92 61.636L409.92 28.804ZM104.16 35.748Q103.808 36.196 103.472 36.452Q103.136 36.708 102.496 36.708Q101.888 36.708 101.312 36.34Q100.736 35.972 99.936 35.508Q99.136 35.044 98.032 34.676Q96.928 34.308 95.296 34.308Q93.216 34.308 91.648 35.06Q90.08 35.812 89.04 37.22Q88 38.628 87.488 40.628Q86.976 42.628 86.976 45.156Q86.976 47.78 87.536 49.828Q88.096 51.876 89.152 53.268Q90.208 54.66 91.712 55.38Q93.216 56.1 95.104 56.1Q96.992 56.1 98.16 55.636Q99.328 55.172 100.128 54.612Q100.928 54.052 101.52 53.588Q102.112 53.124 102.848 53.124Q103.808 53.124 104.288 53.86L106.56 56.74Q105.248 58.276 103.712 59.316Q102.176 60.356 100.528 60.98Q98.88 61.604 97.12 61.86Q95.36 62.116 93.632 62.116Q90.592 62.116 87.904 60.98Q85.216 59.844 83.216 57.668Q81.216 55.492 80.048 52.34Q78.88 49.188 78.88 45.156Q78.88 41.54 79.92 38.452Q80.96 35.364 82.976 33.108Q84.992 30.852 87.968 29.572Q90.944 28.292 94.816 28.292Q98.496 28.292 101.264 29.476Q104.032 30.66 106.24 32.868L104.16 35.748ZM151.776 28.292Q155.456 28.292 158.448 29.476Q161.44 30.66 163.552 32.836Q165.664 35.012 166.816 38.148Q167.968 41.284 167.968 45.156Q167.968 49.06 166.816 52.196Q165.664 55.332 163.552 57.54Q161.44 59.748 158.448 60.932Q155.456 62.116 151.776 62.116Q148.096 62.116 145.088 60.932Q142.08 59.748 139.952 57.54Q137.824 55.332 136.656 52.196Q135.488 49.06 135.488 45.156Q135.488 41.284 136.656 38.148Q137.824 35.012 139.952 32.836Q142.08 30.66 145.088 29.476Q148.096 28.292 151.776 28.292ZM192.96 35.924Q193.312 35.716 193.632 35.204L195.424 32.356Q193.568 30.532 190.784 29.412Q188 28.292 184.608 28.292Q181.568 28.292 179.248 29.108Q176.928 29.924 175.376 31.284Q173.824 32.644 173.024 34.468Q172.224 36.292 172.224 38.308Q172.224 40.484 172.912 42.02Q173.6 43.556 174.736 44.612Q175.872 45.668 177.328 46.356Q178.784 47.044 180.304 47.556Q181.824 48.068 183.28 48.5Q184.736 48.932 185.872 49.476Q187.008 50.02 187.696 50.756Q188.384 51.492 188.384 52.644Q188.384 53.412 188.08 54.132Q187.776 54.852 187.12 55.396Q186.464 55.94 185.456 56.276Q184.448 56.612 183.04 56.612Q181.248 56.612 180.08 56.196Q178.912 55.78 178.048 55.3Q177.184 54.82 176.528 54.404Q175.872 53.988 175.136 53.988Q174.4 53.988 173.92 54.276Q173.44 54.564 173.088 55.108L171.264 58.116Q172.224 58.98 173.488 59.716Q174.752 60.452 176.24 60.996Q177.728 61.54 179.344 61.844Q180.96 62.148 182.656 62.148Q185.824 62.148 188.272 61.332Q190.72 60.516 192.384 59.06Q194.048 57.604 194.912 55.604Q195.776 53.604 195.776 51.236Q195.776 49.252 195.088 47.844Q194.4 46.436 193.264 45.428Q192.128 44.42 190.688 43.764Q189.248 43.108 187.744 42.596Q186.24 42.084 184.8 41.652Q183.36 41.22 182.224 40.676Q181.088 40.132 180.4 39.412Q179.712 38.692 179.712 37.636Q179.712 36.036 181.056 35.044Q182.4 34.052 184.736 34.052Q186.24 34.052 187.344 34.372Q188.448 34.692 189.312 35.092Q190.176 35.492 190.832 35.812Q191.488 36.132 192.064 36.132Q192.608 36.132 192.96 35.924ZM216.128 28.292Q219.808 28.292 222.8 29.476Q225.792 30.66 227.904 32.836Q230.016 35.012 231.168 38.148Q232.32 41.284 232.32 45.156Q232.32 49.06 231.168 52.196Q230.016 55.332 227.904 57.54Q225.792 59.748 222.8 60.932Q219.808 62.116 216.128 62.116Q212.448 62.116 209.44 60.932Q206.432 59.748 204.304 57.54Q202.176 55.332 201.008 52.196Q199.84 49.06 199.84 45.156Q199.84 41.284 201.008 38.148Q202.176 35.012 204.304 32.836Q206.432 30.66 209.44 29.476Q212.448 28.292 216.128 28.292ZM455.344 29.284Q452.736 28.292 449.632 28.292Q445.952 28.292 443.024 29.572Q440.096 30.852 438.064 33.044Q436.032 35.236 434.944 38.196Q433.856 41.156 433.856 44.516Q433.856 48.836 435.104 52.116Q436.352 55.396 438.528 57.62Q440.704 59.844 443.648 60.98Q446.592 62.116 450.016 62.116Q451.744 62.116 453.584 61.86Q455.424 61.604 457.2 60.98Q458.976 60.356 460.608 59.316Q462.24 58.276 463.552 56.74L461.248 53.86Q460.992 53.508 460.64 53.316Q460.288 53.124 459.808 53.124Q459.072 53.124 458.288 53.572Q457.504 54.02 456.464 54.564Q455.424 55.108 454.032 55.556Q452.64 56.004 450.72 56.004Q446.816 56.004 444.448 53.636Q442.08 51.268 441.728 46.212L462.016 46.212Q462.56 46.212 462.912 46.068Q463.264 45.924 463.472 45.588Q463.68 45.252 463.76 44.66Q463.84 44.068 463.84 43.172Q463.84 39.62 462.784 36.852Q461.728 34.084 459.84 32.18Q457.952 30.276 455.344 29.284ZM72.16 61.636L72.16 28.804L64.256 28.804L64.256 61.636L72.16 61.636ZM367.232 32.068Q367.232 32.9 366.928 33.684Q366.624 34.468 366.208 35.012L350.592 55.556L366.784 55.556L366.784 61.636L341.408 61.636L341.408 58.34Q341.408 57.796 341.664 57.044Q341.92 56.292 342.464 55.62L358.208 34.852L342.336 34.852L342.336 28.804L367.232 28.804L367.232 32.068ZM380.768 49.668L380.768 28.804L372.864 28.804L372.864 49.668Q372.864 52.42 373.584 54.708Q374.304 56.996 375.712 58.66Q377.12 60.324 379.184 61.236Q381.248 62.148 383.936 62.148Q385.568 62.148 386.992 61.812Q388.416 61.476 389.648 60.884Q390.88 60.292 391.968 59.444Q393.056 58.596 394.08 57.572L394.624 60.196Q395.104 61.636 396.64 61.636L401.472 61.636L401.472 28.804L393.568 28.804L393.568 52.548Q391.968 54.148 390.176 55.06Q388.384 55.972 386.336 55.972Q383.552 55.972 382.16 54.324Q380.768 52.676 380.768 49.668ZM444.384 35.908Q446.336 33.956 449.792 33.956Q451.552 33.956 452.864 34.548Q454.176 35.14 455.04 36.164Q455.904 37.188 456.32 38.548Q456.736 39.908 456.736 41.444L441.888 41.444Q442.432 37.86 444.384 35.908ZM151.776 56.036Q155.872 56.036 157.84 53.284Q159.808 50.532 159.808 45.22Q159.808 39.908 157.84 37.124Q155.872 34.34 151.776 34.34Q147.616 34.34 145.632 37.14Q143.648 39.94 143.648 45.22Q143.648 50.5 145.632 53.268Q147.616 56.036 151.776 56.036ZM216.128 56.036Q220.224 56.036 222.192 53.284Q224.16 50.532 224.16 45.22Q224.16 39.908 222.192 37.124Q220.224 34.34 216.128 34.34Q211.968 34.34 209.984 37.14Q208 39.94 208 45.22Q208 50.5 209.984 53.268Q211.968 56.036 216.128 56.036Z" />
  </g>
</svg>