<?xml version="1.0" encoding="utf-8"?>
<svg width="329px" height="100px" viewbox="0 0 329 100" version="1.1" xmlns:xlink="http://www.w3.org/1999/xlink" xmlns="http://www.w3.org/2000/svg">
  <defs>
    <path d="M0 0L328.652 0L328.652 100L0 100L0 0Z" id="path_1" />
    <path d="M0 0L328.315 0L328.315 100L0 100L0 0Z" id="path_2" />
    <path d="M0 0L117.416 0L117.416 117.416L0 117.416L0 0L0 0Z" id="path_3" />
    <clipPath id="mask_1">
      <use xlink:href="#path_1" />
    </clipPath>
    <clipPath id="mask_2">
      <use xlink:href="#path_2" />
    </clipPath>
    <clipPath id="mask_3">
      <use xlink:href="#path_3" />
    </clipPath>
  </defs>
  <g id="svg">
    <path d="M0 0L328.652 0L328.652 100L0 100L0 0Z" id="Background" fill="none" fill-rule="evenodd" stroke="none" />
    <g clip-path="url(#mask_1)">
      <g id="Mask-group">
        <path d="M0 0L328.315 0L328.315 100L0 100L0 0Z" id="artboard_1" fill="none" fill-rule="evenodd" stroke="none" />
        <g clip-path="url(#mask_2)">
          <g id="Artboard" transform="translate(5.407304 -7.8651686)">
            <g id="Microsoft-Azure" transform="translate(119.38428 47.72753)">
              <path d="M28.7595 2.93932C28.8764 2.68764 28.9348 2.41798 28.9348 2.13034C28.9348 1.83371 28.8764 1.55506 28.7595 1.29438C28.6427 1.03371 28.4876 0.808986 28.2944 0.620223C28.1011 0.431459 27.8742 0.280899 27.6135 0.168537C27.3528 0.0561789 27.0741 0 26.7775 0C26.4899 0 26.218 0.0561789 25.9618 0.168537C25.7056 0.280899 25.4832 0.431459 25.2944 0.620223C25.1056 0.808986 24.9551 1.03371 24.8427 1.29438C24.7303 1.55506 24.6742 1.83371 24.6742 2.13034C24.6742 2.41798 24.7303 2.68764 24.8427 2.93932C24.9551 3.19101 25.1056 3.41124 25.2944 3.6C25.4832 3.78876 25.7056 3.93933 25.9618 4.05168C26.218 4.16404 26.4899 4.22023 26.7775 4.22023C27.0741 4.22023 27.3528 4.16404 27.6135 4.05168C27.8742 3.93933 28.1011 3.78876 28.2944 3.6C28.4876 3.41124 28.6427 3.19101 28.7595 2.93932L28.7595 2.93932ZM99.1146 8.66966L99.1146 19.9955L102.445 19.9955L102.445 8.65618L105.937 8.65618L105.937 6.28314L102.337 6.28314L102.337 5.36629C102.337 4.85393 102.393 4.42472 102.506 4.07865C102.618 3.73258 102.782 3.45393 102.998 3.24269C103.213 3.03146 103.476 2.88314 103.787 2.79775C104.097 2.71236 104.449 2.66966 104.845 2.66966C105.142 2.66966 105.402 2.6382 105.627 2.57528C105.852 2.51236 105.973 2.35056 105.991 2.08988L106.058 0.417975C105.51 0.247188 104.917 0.161799 104.279 0.161799C103.479 0.161799 102.76 0.278649 102.121 0.512357C101.483 0.746065 100.942 1.08315 100.497 1.52359C100.052 1.96404 99.7101 2.49888 99.4719 3.12809C99.2337 3.7573 99.1146 4.46741 99.1146 5.25843L99.1146 6.28314L97.0517 6.28314L97.0517 7.64494C97.0517 7.88764 97.1303 8.0764 97.2876 8.21123C97.4449 8.34606 97.6539 8.43595 97.9146 8.4809L99.1146 8.66966L99.1146 8.66966ZM10.2135 12.8022C10.0831 12.4921 9.94157 12.1933 9.78876 11.9056L3.96404 1.07865C3.89214 0.94382 3.81573 0.835954 3.73484 0.755057C3.65393 0.674156 3.5663 0.615731 3.47191 0.579774C3.37753 0.543817 3.27191 0.521349 3.15505 0.512357C3.0382 0.503369 2.89888 0.498877 2.73708 0.498877L0 0.498877L0 19.9955L3.19551 19.9955L3.19551 7.40225C3.19551 7.15955 3.18876 6.89663 3.17529 6.61348C3.1618 6.33034 3.13708 6.04045 3.10113 5.74382L9.07416 16.8404C9.20899 17.0921 9.38427 17.2876 9.6 17.427C9.81573 17.5663 10.0674 17.636 10.3551 17.636L10.8539 17.636C11.1416 17.636 11.3933 17.5663 11.609 17.427C11.8247 17.2876 12 17.0921 12.1348 16.8404L18.027 5.78427C18 6.07191 17.9798 6.35505 17.9663 6.63371C17.9528 6.91236 17.9461 7.16854 17.9461 7.40225L17.9461 19.9955L21.1416 19.9955L21.1416 0.498877L18.4045 0.498877C18.2427 0.498877 18.1034 0.503369 17.9865 0.512357C17.8697 0.521349 17.764 0.543817 17.6697 0.579774C17.5753 0.615731 17.4899 0.674156 17.4135 0.755057C17.3371 0.835954 17.2629 0.94382 17.191 1.07865L11.4202 11.8786C11.2674 12.1663 11.1236 12.4674 10.9888 12.782C10.8539 13.0966 10.7236 13.4157 10.5978 13.7393C10.4719 13.4247 10.3438 13.1124 10.2135 12.8022L10.2135 12.8022ZM138.135 19.9955L140.939 19.9955L133.281 0.498877L129.573 0.498877L121.915 19.9955L124.733 19.9955C125.038 19.9955 125.297 19.9101 125.508 19.7393C125.719 19.5685 125.861 19.3798 125.933 19.173L127.389 15.1955L135.465 15.1955L136.921 19.173C137.011 19.4067 137.157 19.6022 137.36 19.7595C137.562 19.9169 137.82 19.9955 138.135 19.9955L138.135 19.9955ZM112.517 20.2112C111.321 20.2112 110.4 19.8719 109.753 19.1933C109.106 18.5146 108.782 17.5775 108.782 16.382L108.782 8.65618L107.38 8.65618C107.2 8.65618 107.045 8.59775 106.915 8.4809C106.784 8.36405 106.719 8.18876 106.719 7.95505L106.719 6.63371L108.944 6.26966L109.645 2.49438C109.681 2.3146 109.764 2.17528 109.894 2.0764C110.025 1.97753 110.189 1.92809 110.387 1.92809L112.112 1.92809L112.112 6.28314L115.753 6.28314L115.753 8.65618L112.112 8.65618L112.112 16.1528C112.112 16.5843 112.22 16.9214 112.436 17.164C112.652 17.4067 112.939 17.5281 113.299 17.5281C113.506 17.5281 113.679 17.5034 113.818 17.4539C113.957 17.4045 114.079 17.3528 114.182 17.2989C114.285 17.2449 114.378 17.1933 114.458 17.1438C114.539 17.0944 114.62 17.0697 114.701 17.0697C114.8 17.0697 114.881 17.0944 114.944 17.1438C115.007 17.1933 115.074 17.2674 115.146 17.3663L116.144 18.9843C115.658 19.3888 115.101 19.6944 114.472 19.9011C113.843 20.1079 113.191 20.2112 112.517 20.2112L112.517 20.2112ZM134.535 12.6337L128.319 12.6337L130.692 6.17528C130.809 5.87865 130.928 5.53258 131.049 5.13708C131.171 4.74157 131.294 4.31461 131.42 3.85618C131.546 4.31461 131.674 4.73932 131.804 5.13033C131.935 5.52135 132.054 5.86067 132.162 6.14831L134.535 12.6337L134.535 12.6337ZM45.0607 6.16179L45.0607 19.9955L48.391 19.9955L48.391 11.3798C48.7326 10.6427 49.1506 10.0831 49.645 9.70112C50.1393 9.3191 50.7326 9.12809 51.4247 9.12809C51.8112 9.12809 52.1213 9.15955 52.355 9.22247C52.5888 9.28539 52.773 9.31685 52.9079 9.31685C53.0607 9.31685 53.182 9.28314 53.2719 9.21573C53.3618 9.14831 53.4202 9.0337 53.4472 8.87191L53.8786 6.37753C53.4292 6.06292 52.8629 5.90562 52.1798 5.90562C51.3528 5.90562 50.6067 6.15281 49.9416 6.64719C49.2764 7.14157 48.6966 7.81573 48.2023 8.66966L48 6.99775C47.9551 6.69213 47.8652 6.4764 47.7303 6.35056C47.5955 6.22472 47.3573 6.16179 47.0157 6.16179L45.0607 6.16179L45.0607 6.16179ZM170.751 6.16179L172.706 6.16179C173.047 6.16179 173.285 6.22472 173.42 6.35056C173.555 6.4764 173.645 6.69213 173.69 6.99775L173.892 8.66966C174.387 7.81573 174.966 7.14157 175.631 6.64719C176.297 6.15281 177.043 5.90562 177.87 5.90562C178.553 5.90562 179.119 6.06292 179.569 6.37753L179.137 8.87191C179.11 9.0337 179.052 9.14831 178.962 9.21573C178.872 9.28314 178.751 9.31685 178.598 9.31685C178.463 9.31685 178.279 9.28539 178.045 9.22247C177.811 9.15955 177.501 9.12809 177.115 9.12809C176.422 9.12809 175.829 9.3191 175.335 9.70112C174.84 10.0831 174.422 10.6427 174.081 11.3798L174.081 19.9955L170.751 19.9955L170.751 6.16179L170.751 6.16179ZM41.9191 9.08764C41.8202 9.21348 41.7236 9.31236 41.6292 9.38427C41.5348 9.45618 41.3978 9.49213 41.218 9.49213C41.0472 9.49213 40.8809 9.44044 40.7191 9.33708C40.5573 9.23371 40.364 9.11685 40.1393 8.98651C39.9146 8.85618 39.6472 8.73933 39.3371 8.63596C39.027 8.53258 38.6427 8.4809 38.1843 8.4809C37.6 8.4809 37.0877 8.58651 36.6472 8.79775C36.2067 9.00899 35.8404 9.31236 35.5483 9.70786C35.2562 10.1034 35.0382 10.582 34.8944 11.1438C34.7506 11.7056 34.6786 12.3416 34.6786 13.0517C34.6786 13.7888 34.7573 14.4449 34.9146 15.0202C35.0719 15.5955 35.2989 16.0787 35.5955 16.4697C35.8921 16.8607 36.2517 17.1573 36.6742 17.3596C37.0966 17.5618 37.573 17.6629 38.1034 17.6629C38.6337 17.6629 39.0629 17.5978 39.391 17.4674C39.7191 17.3371 39.9955 17.1933 40.2202 17.036C40.4449 16.8787 40.6404 16.7348 40.8068 16.6045C40.973 16.4742 41.1596 16.409 41.3663 16.409C41.636 16.409 41.8382 16.5124 41.973 16.7191L42.9303 17.9326C42.5618 18.364 42.1618 18.7258 41.7303 19.018C41.2989 19.3101 40.8517 19.5438 40.3888 19.7191C39.9259 19.8944 39.4472 20.018 38.9528 20.0899C38.4584 20.1618 37.9685 20.1978 37.4831 20.1978C36.6292 20.1978 35.8247 20.0382 35.0697 19.7191C34.3146 19.4 33.6562 18.9348 33.0944 18.3236C32.5326 17.7124 32.0876 16.964 31.7596 16.0787C31.4315 15.1933 31.2674 14.1843 31.2674 13.0517C31.2674 12.036 31.4135 11.0944 31.7056 10.227C31.9977 9.35955 32.427 8.60899 32.9933 7.97528C33.5595 7.34157 34.2607 6.84494 35.0966 6.48539C35.9326 6.12584 36.8944 5.94607 37.982 5.94607C39.0157 5.94607 39.9213 6.11236 40.6989 6.44494C41.4764 6.77753 42.1753 7.25393 42.7955 7.87416L41.9191 9.08764L41.9191 9.08764ZM61.982 5.94607C63.0157 5.94607 63.9528 6.11236 64.7933 6.44494C65.6337 6.77753 66.3506 7.24944 66.9438 7.86067C67.5371 8.47191 67.9955 9.21798 68.3191 10.0989C68.6427 10.9798 68.8045 11.964 68.8045 13.0517C68.8045 14.1483 68.6427 15.1371 68.3191 16.018C67.9955 16.8989 67.5371 17.6494 66.9438 18.2697C66.3506 18.8899 65.6337 19.3663 64.7933 19.6989C63.9528 20.0315 63.0157 20.1978 61.982 20.1978C60.9483 20.1978 60.009 20.0315 59.1641 19.6989C58.3191 19.3663 57.5978 18.8899 57 18.2697C56.4022 17.6494 55.9393 16.8989 55.6112 16.018C55.2831 15.1371 55.1191 14.1483 55.1191 13.0517C55.1191 11.964 55.2831 10.9798 55.6112 10.0989C55.9393 9.21798 56.4022 8.47191 57 7.86067C57.5978 7.24944 58.3191 6.77753 59.1641 6.44494C60.009 6.11236 60.9483 5.94607 61.982 5.94607L61.982 5.94607ZM79.3348 9.1618C79.4337 9.10337 79.5281 9.00224 79.618 8.85843L80.373 7.65842C79.8517 7.14606 79.2 6.73258 78.418 6.41797C77.6359 6.10337 76.7685 5.94607 75.8157 5.94607C74.9618 5.94607 74.209 6.06068 73.5573 6.28989C72.9056 6.5191 72.3618 6.82472 71.9258 7.20674C71.4899 7.58876 71.1596 8.03595 70.9348 8.54831C70.7101 9.06067 70.5978 9.6 70.5978 10.1663C70.5978 10.7775 70.6944 11.2989 70.8877 11.7303C71.0809 12.1618 71.3371 12.5258 71.6562 12.8225C71.9753 13.1191 72.3393 13.364 72.7483 13.5573C73.1573 13.7506 73.5753 13.9191 74.0022 14.0629C74.4292 14.2067 74.8472 14.3393 75.2562 14.4607C75.6652 14.582 76.0292 14.7191 76.3483 14.8719C76.6674 15.0247 76.9236 15.2045 77.1169 15.4112C77.3101 15.618 77.4067 15.8831 77.4067 16.2067C77.4067 16.4225 77.364 16.6315 77.2786 16.8337C77.1933 17.036 77.0584 17.2135 76.8742 17.3663C76.6899 17.5191 76.4562 17.6427 76.173 17.7371C75.8899 17.8315 75.5506 17.8787 75.1551 17.8787C74.6517 17.8787 74.2359 17.8202 73.9079 17.7034C73.5798 17.5865 73.2944 17.4607 73.0517 17.3258C72.809 17.191 72.5955 17.0652 72.4112 16.9483C72.227 16.8315 72.0315 16.773 71.8247 16.773C71.618 16.773 71.4472 16.8135 71.3124 16.8944C71.1775 16.9753 71.0607 17.0921 70.9618 17.2449L70.1933 18.5124C70.4629 18.7551 70.7753 18.9798 71.1303 19.1865C71.4854 19.3933 71.8719 19.573 72.2899 19.7258C72.7079 19.8786 73.1438 19.9978 73.5977 20.0831C74.0517 20.1685 74.5168 20.2112 74.9933 20.2112C75.8831 20.2112 76.6719 20.0966 77.3595 19.8674C78.0472 19.6382 78.6247 19.3191 79.0921 18.9101C79.5595 18.5011 79.9146 18.0157 80.1573 17.4539C80.4 16.8921 80.5213 16.2787 80.5213 15.6135C80.5213 15.0562 80.4247 14.5798 80.2314 14.1843C80.0382 13.7888 79.782 13.4494 79.4629 13.1663C79.1438 12.8831 78.782 12.6494 78.3775 12.4652C77.973 12.2809 77.5595 12.1169 77.1371 11.973C76.7146 11.8292 76.3011 11.6966 75.8966 11.5753C75.4921 11.4539 75.1303 11.3169 74.8112 11.164C74.4921 11.0112 74.2359 10.8337 74.0427 10.6315C73.8494 10.4292 73.7528 10.1798 73.7528 9.88314C73.7528 9.43371 73.9416 9.06966 74.3191 8.79101C74.6966 8.51236 75.2135 8.37303 75.8697 8.37303C76.2921 8.37303 76.6584 8.41798 76.9685 8.50786C77.2786 8.59775 77.5551 8.69888 77.7978 8.81123C78.0405 8.92359 78.2539 9.02472 78.4382 9.11461C78.6225 9.20449 78.7955 9.24944 78.9573 9.24944C79.1101 9.24944 79.236 9.22022 79.3348 9.1618L79.3348 9.1618ZM89.0966 5.94607C90.1303 5.94607 91.0674 6.11236 91.9079 6.44494C92.7483 6.77753 93.4652 7.24944 94.0584 7.86067C94.6517 8.47191 95.1101 9.21798 95.4337 10.0989C95.7573 10.9798 95.9191 11.964 95.9191 13.0517C95.9191 14.1483 95.7573 15.1371 95.4337 16.018C95.1101 16.8989 94.6517 17.6494 94.0584 18.2697C93.4652 18.8899 92.7483 19.3663 91.9079 19.6989C91.0674 20.0315 90.1303 20.1978 89.0966 20.1978C88.0629 20.1978 87.1236 20.0315 86.2787 19.6989C85.4337 19.3663 84.7124 18.8899 84.1146 18.2697C83.5169 17.6494 83.0539 16.8989 82.7258 16.018C82.3978 15.1371 82.2337 14.1483 82.2337 13.0517C82.2337 11.964 82.3978 10.9798 82.7258 10.0989C83.0539 9.21798 83.5169 8.47191 84.1146 7.86067C84.7124 7.24944 85.4337 6.77753 86.2787 6.44494C87.1236 6.11236 88.0629 5.94607 89.0966 5.94607L89.0966 5.94607ZM189.89 6.36404C189.157 6.08539 188.355 5.94607 187.483 5.94607C186.449 5.94607 185.521 6.12584 184.699 6.48539C183.876 6.84494 183.18 7.33258 182.609 7.94832C182.038 8.56404 181.6 9.28764 181.294 10.1191C180.989 10.9506 180.836 11.8382 180.836 12.782C180.836 13.9955 181.011 15.0629 181.362 15.9843C181.712 16.9056 182.193 17.6786 182.804 18.3034C183.416 18.9281 184.135 19.4 184.962 19.7191C185.789 20.0382 186.683 20.1978 187.645 20.1978C188.13 20.1978 188.631 20.1618 189.148 20.0899C189.665 20.018 190.173 19.8944 190.672 19.7191C191.171 19.5438 191.649 19.3101 192.108 19.018C192.566 18.7258 192.98 18.364 193.348 17.9326L192.378 16.7191C192.306 16.6202 192.22 16.5438 192.121 16.4899C192.022 16.436 191.906 16.409 191.771 16.409C191.564 16.409 191.351 16.4719 191.13 16.5978C190.91 16.7236 190.654 16.8629 190.362 17.0157C190.07 17.1685 189.728 17.3079 189.337 17.4337C188.946 17.5595 188.481 17.6225 187.942 17.6225C186.845 17.6225 185.964 17.2899 185.299 16.6247C184.634 15.9595 184.252 14.9169 184.153 13.4966L192.701 13.4966C192.854 13.4966 192.98 13.4764 193.079 13.436C193.178 13.3955 193.256 13.3281 193.315 13.2337C193.373 13.1393 193.413 13.009 193.436 12.8427C193.458 12.6764 193.47 12.4674 193.47 12.2157C193.47 11.218 193.321 10.3303 193.025 9.55281C192.728 8.77528 192.315 8.1191 191.784 7.58427C191.254 7.04944 190.622 6.64269 189.89 6.36404L189.89 6.36404ZM28.436 19.9955L28.436 6.16179L25.1056 6.16179L25.1056 19.9955L28.436 19.9955L28.436 19.9955ZM152.764 7.53708C152.764 7.77078 152.721 7.99775 152.636 8.21798C152.551 8.4382 152.449 8.62472 152.333 8.77753L145.753 17.4337L152.575 17.4337L152.575 19.9955L141.883 19.9955L141.883 18.6067C141.883 18.4539 141.919 18.2719 141.991 18.0607C142.063 17.8494 142.175 17.6494 142.328 17.4607L148.962 8.71011L142.274 8.71011L142.274 6.16179L152.764 6.16179L152.764 7.53708L152.764 7.53708ZM158.467 14.9528L158.467 6.16179L155.137 6.16179L155.137 14.9528C155.137 15.7258 155.238 16.4337 155.44 17.0764C155.643 17.7191 155.942 18.2742 156.337 18.7416C156.733 19.209 157.22 19.5708 157.8 19.827C158.38 20.0831 159.047 20.2112 159.802 20.2112C160.261 20.2112 160.69 20.164 161.09 20.0697C161.49 19.9753 161.863 19.8449 162.209 19.6786C162.555 19.5124 162.881 19.3101 163.187 19.0719C163.492 18.8337 163.789 18.5708 164.076 18.2831L164.306 19.3888C164.44 19.7933 164.724 19.9955 165.155 19.9955L167.191 19.9955L167.191 6.16179L163.861 6.16179L163.861 16.1663C163.411 16.6157 162.935 16.9685 162.431 17.2247C161.928 17.4809 161.389 17.609 160.813 17.609C160.031 17.609 159.445 17.3775 159.054 16.9146C158.663 16.4517 158.467 15.7978 158.467 14.9528L158.467 14.9528ZM185.272 9.15506C185.82 8.60674 186.58 8.33258 187.551 8.33258C188.045 8.33258 188.476 8.41573 188.845 8.58202C189.213 8.74831 189.519 8.97528 189.762 9.26292C190.005 9.55056 190.184 9.88539 190.301 10.2674C190.418 10.6494 190.476 11.0562 190.476 11.4876L184.22 11.4876C184.373 10.4809 184.724 9.70337 185.272 9.15506L185.272 9.15506ZM61.982 17.636C63.1326 17.636 63.9843 17.2494 64.5371 16.4764C65.0899 15.7034 65.3663 14.5708 65.3663 13.0787C65.3663 11.5865 65.0899 10.4494 64.5371 9.66742C63.9843 8.88539 63.1326 8.49438 61.982 8.49438C60.8135 8.49438 59.9506 8.88764 59.3933 9.67415C58.836 10.4607 58.5573 11.5955 58.5573 13.0787C58.5573 14.5618 58.836 15.6921 59.3933 16.4697C59.9506 17.2472 60.8135 17.636 61.982 17.636L61.982 17.636ZM89.0966 17.636C90.2472 17.636 91.0989 17.2494 91.6517 16.4764C92.2045 15.7034 92.4809 14.5708 92.4809 13.0787C92.4809 11.5865 92.2045 10.4494 91.6517 9.66742C91.0989 8.88539 90.2472 8.49438 89.0966 8.49438C87.9281 8.49438 87.0652 8.88764 86.5079 9.67415C85.9506 10.4607 85.6719 11.5955 85.6719 13.0787C85.6719 14.5618 85.9506 15.6921 86.5079 16.4697C87.0652 17.2472 87.9281 17.636 89.0966 17.636L89.0966 17.636Z" id="Shape" fill="#000000" fill-rule="evenodd" stroke="none" />
            </g>
            <g id="Azure-icon">
              <path d="M0 0L117.416 0L117.416 117.416L0 117.416L0 0L0 0Z" id="Background" fill="none" fill-rule="evenodd" stroke="none" />
              <g id="Mask-group">
                <path d="M0 0L117.416 0L117.416 117.416L0 117.416L0 0L0 0Z" id="path_1" fill="none" fill-rule="evenodd" stroke="none" />
                <g clip-path="url(#mask_3)">
                  <g id="Group" transform="translate(4.892311 13.889287)">
                    <path d="M112.893 88.0618L70.0888 13.2752L53.3882 46.9071L82.7893 80.9803L28.2233 87.1764L112.893 88.0618L112.893 88.0618ZM28.4593 32.0822L0 80.0978L24.2258 77.6629L66.7944 0L28.4593 32.0822L28.4593 32.0822Z" id="Shape" fill="#035BDA" fill-rule="evenodd" stroke="none" />
                  </g>
                </g>
              </g>
            </g>
          </g>
        </g>
      </g>
    </g>
  </g>
</svg>