<?xml version="1.0" encoding="utf-8"?>
<svg width="262px" height="100px" viewbox="0 0 262 100" version="1.1" xmlns:xlink="http://www.w3.org/1999/xlink" xmlns="http://www.w3.org/2000/svg">
  <defs>
    <path d="M0 0L261.25 0L261.25 100L0 100L0 0Z" id="path_1" />
    <path d="M0 0L125 0L125 125L0 125L0 0L0 0Z" id="path_2" />
    <clipPath id="mask_1">
      <use xlink:href="#path_1" />
    </clipPath>
    <clipPath id="mask_2">
      <use xlink:href="#path_2" />
    </clipPath>
  </defs>
  <g id="svg">
    <g id="Mask-group">
      <path d="M0 0L261.25 0L261.25 100L0 100L0 0Z" id="artboard_1" fill="none" fill-rule="evenodd" stroke="none" />
      <g clip-path="url(#mask_1)">
        <g id="Artboard" transform="translate(0 -10)">
          <g id="Azure-icon">
            <path d="M0 0L125 0L125 125L0 125L0 0L0 0Z" id="Background" fill="none" fill-rule="evenodd" stroke="none" />
            <g id="Mask-group">
              <path d="M0 0L125 0L125 125L0 125L0 0L0 0Z" id="path_1" fill="none" fill-rule="evenodd" stroke="none" />
              <g clip-path="url(#mask_2)">
                <g id="Group" transform="translate(5.2083206 14.786491)">
                  <path d="M114.583 89.3803L71.138 13.474L54.1875 47.6094L84.0286 82.1928L28.6459 88.4818L114.583 89.3803L114.583 89.3803ZM28.8854 32.5625L0 81.2969L24.5885 78.8255L67.7943 0L28.8854 32.5625L28.8854 32.5625Z" id="Shape" fill="#035BDA" fill-rule="evenodd" stroke="none" />
                </g>
              </g>
            </g>
          </g>
          <g id="Microsoft-Azure" transform="translate(125.24902 30.458986)">
            <g id="Microsoft" transform="translate(2.3437502 0)">
              <path d="M117.642 3.10546C117.183 2.8418 116.66 2.70996 116.074 2.70996C114.424 2.70996 113.599 3.64256 113.599 5.50776L113.599 7.54389L117.085 7.54389L117.085 10.21L113.613 10.21L113.613 22.5439L110.215 22.5439L110.215 10.21L107.651 10.21L107.651 7.54389L110.215 7.54389L110.215 5.11226C110.215 3.53025 110.732 2.28271 111.768 1.36963C112.803 0.456543 114.097 0 115.65 0C116.489 0 117.153 0.0927711 117.642 0.278313L117.642 3.10546L117.642 3.10546ZM29.0625 4.39452C28.5059 4.39452 28.0298 4.21386 27.6342 3.85254C27.2387 3.49121 27.041 3.03223 27.041 2.47559C27.041 1.91895 27.2387 1.45508 27.6342 1.08399C28.0298 0.712888 28.5059 0.527339 29.0625 0.527339C29.6386 0.527339 30.1269 0.712888 30.5274 1.08399C30.9278 1.45508 31.128 1.91895 31.128 2.47559C31.128 3.00293 30.9278 3.45459 30.5274 3.83056C30.1269 4.20654 29.6386 4.39452 29.0625 4.39452L29.0625 4.39452ZM22.5586 22.5439L19.1016 22.5439L19.1016 8.95014C19.1016 7.83689 19.1699 6.4746 19.3066 4.86327L19.2481 4.86327C19.0332 5.78126 18.8427 6.44043 18.6767 6.84076L12.4072 22.5439L10.0049 22.5439L3.7207 6.95802C3.54492 6.49901 3.35938 5.80076 3.16406 4.86327L3.10547 4.86327C3.18359 5.7031 3.22266 7.07518 3.22266 8.97951L3.22266 22.5439L0 22.5439L0 1.53809L4.90723 1.53809L10.4297 15.5274C10.8496 16.6016 11.1231 17.4023 11.25 17.9296L11.3232 17.9296C11.6846 16.8261 11.9775 16.0058 12.2021 15.4688L17.8271 1.53809L22.5586 1.53809L22.5586 22.5439L22.5586 22.5439ZM124.79 22.8809C125.874 22.8809 126.748 22.7148 127.412 22.3828L127.412 19.6875C126.992 20.0195 126.494 20.1855 125.918 20.1855C125.166 20.1855 124.629 19.9951 124.307 19.6143C123.985 19.2334 123.823 18.5987 123.823 17.71L123.823 10.21L127.412 10.21L127.412 7.54389L123.823 7.54389L123.823 3.10546L120.425 4.07226L120.425 7.54389L117.92 7.54389L117.92 10.21L120.425 10.21L120.425 18.6914C120.425 21.4844 121.88 22.8809 124.79 22.8809L124.79 22.8809ZM41.6601 22.8955C43.3008 22.8955 44.7217 22.5488 45.9229 21.8555L45.9229 18.8965C44.8389 19.7656 43.6865 20.2001 42.4659 20.2001C41.0108 20.2001 39.8511 19.7509 38.9869 18.8525C38.1226 17.9541 37.6905 16.7285 37.6905 15.1758C37.6905 13.6035 38.1494 12.3316 39.0674 11.3599C39.9854 10.3882 41.1621 9.90239 42.5976 9.90239C43.7793 9.90239 44.8926 10.293 45.9375 11.0743L45.9375 7.91014C44.8926 7.43164 43.6865 7.19239 42.3194 7.19239C39.8584 7.19239 37.8931 7.94189 36.4234 9.44089C34.9536 10.94 34.2187 12.9248 34.2187 15.3955C34.2187 17.6123 34.9023 19.4166 36.2695 20.8081C37.6367 22.1997 39.4336 22.8955 41.6601 22.8955L41.6601 22.8955ZM61.5015 20.7935C62.8833 22.1948 64.7315 22.8955 67.0459 22.8955C69.4287 22.8955 71.3257 22.1753 72.7369 20.7349C74.1479 19.2945 74.8535 17.378 74.8535 14.9854C74.8535 12.544 74.1992 10.6348 72.8906 9.25776C71.582 7.88085 69.7559 7.19239 67.4121 7.19239C64.9707 7.19239 63.0298 7.90039 61.5894 9.31639C60.1489 10.7324 59.4287 12.7002 59.4287 15.2198C59.4287 17.5342 60.1197 19.3921 61.5015 20.7935L61.5015 20.7935ZM77.3731 22.0751L77.3731 18.9258C78.6426 19.8926 80.044 20.376 81.5771 20.376C83.6279 20.376 84.6534 19.7705 84.6534 18.5595C84.6534 18.2178 84.5654 17.9273 84.3896 17.688C84.2139 17.4488 83.9771 17.2363 83.6793 17.0508C83.3814 16.8653 83.0298 16.6993 82.6245 16.5528C82.2193 16.4063 81.7676 16.2402 81.2695 16.0546C80.6543 15.8106 80.1002 15.5518 79.607 15.2783C79.1138 15.0048 78.7037 14.6948 78.3765 14.3481C78.0493 14.0015 77.8027 13.6084 77.6367 13.1689C77.4707 12.7295 77.3877 12.2168 77.3877 11.6309C77.3877 10.9082 77.5586 10.271 77.9004 9.71926C78.2422 9.16751 78.7012 8.70364 79.2774 8.32764C79.8535 7.95164 80.5078 7.66843 81.2402 7.47801C81.9726 7.2876 82.7295 7.19239 83.5107 7.19239C84.8975 7.19239 86.1377 7.40235 87.2315 7.82226L87.2315 10.7959C86.1768 10.0732 84.9659 9.71189 83.5986 9.71189C83.169 9.71189 82.7808 9.75585 82.4341 9.84376C82.0874 9.93168 81.792 10.0538 81.5479 10.21C81.3037 10.3663 81.1133 10.5542 80.9766 10.7739C80.8399 10.9936 80.7715 11.2353 80.7715 11.499C80.7715 11.8213 80.8399 12.0947 80.9766 12.3194C81.1133 12.544 81.3159 12.7417 81.5845 12.9126C81.8531 13.0835 82.1753 13.2397 82.5512 13.3814C82.9272 13.523 83.3594 13.6768 83.8476 13.8428C84.4922 14.1064 85.0708 14.375 85.5835 14.6484C86.0962 14.9219 86.5332 15.232 86.8945 15.5786C87.2558 15.9253 87.5341 16.3257 87.7295 16.7798C87.9248 17.2338 88.0225 17.7734 88.0225 18.3984C88.0225 19.1601 87.8467 19.8242 87.4951 20.3906C87.1435 20.9571 86.6748 21.4258 86.0889 21.7969C85.5029 22.168 84.8267 22.4438 84.0601 22.6245C83.2934 22.8052 82.4853 22.8955 81.6357 22.8955C79.9952 22.8955 78.5743 22.6221 77.3731 22.0751L77.3731 22.0751ZM92.3511 20.7935C93.7329 22.1948 95.5811 22.8955 97.8955 22.8955C100.278 22.8955 102.175 22.1753 103.586 20.7349C104.998 19.2945 105.703 17.378 105.703 14.9854C105.703 12.544 105.049 10.6348 103.74 9.25776C102.432 7.88085 100.605 7.19239 98.2617 7.19239C95.8203 7.19239 93.8794 7.90039 92.439 9.31639C90.9986 10.7324 90.2784 12.7002 90.2784 15.2198C90.2784 17.5342 90.9693 19.3921 92.3511 20.7935L92.3511 20.7935ZM57.9932 10.7813C57.5831 10.459 56.9922 10.2979 56.2207 10.2979C55.2149 10.2979 54.3751 10.752 53.7012 11.6601C53.0274 12.5684 52.6905 13.8038 52.6905 15.3663L52.6905 22.5439L49.292 22.5439L49.292 7.54389L52.6905 7.54389L52.6905 10.6348L52.749 10.6348C53.0811 9.58009 53.5913 8.75735 54.2797 8.16651C54.9682 7.57568 55.7373 7.28026 56.587 7.28026C57.2022 7.28026 57.6709 7.37305 57.9932 7.55864L57.9932 10.7813L57.9932 10.7813ZM30.7471 22.5439L27.3486 22.5439L27.3486 7.54389L30.7471 7.54389L30.7471 22.5439L30.7471 22.5439ZM64.0576 11.2939C64.8291 10.3662 65.8789 9.90239 67.207 9.90239C68.5449 9.90239 69.5727 10.3516 70.2905 11.25C71.0083 12.1484 71.3672 13.4228 71.3672 15.0733C71.3672 16.7138 71.0083 17.9785 70.2905 18.8671C69.5727 19.7558 68.5449 20.2001 67.207 20.2001C65.8984 20.2001 64.8535 19.7485 64.0722 18.8453C63.291 17.9419 62.9004 16.7041 62.9004 15.1319C62.9004 13.501 63.2861 12.2216 64.0576 11.2939L64.0576 11.2939ZM94.9072 11.2939C95.6787 10.3662 96.7285 9.90239 98.0566 9.90239C99.3945 9.90239 100.422 10.3516 101.14 11.25C101.858 12.1484 102.217 13.4228 102.217 15.0733C102.217 16.7138 101.858 17.9785 101.14 18.8671C100.422 19.7558 99.3945 20.2001 98.0566 20.2001C96.748 20.2001 95.7031 19.7485 94.9219 18.8453C94.1406 17.9419 93.75 16.7041 93.75 15.1319C93.75 13.501 94.1358 12.2216 94.9072 11.2939L94.9072 11.2939Z" id="Shape" fill="#035BDA" fill-rule="evenodd" stroke="none" />
            </g>
            <g id="Azure" transform="translate(0 41.53813)">
              <path d="M19.5996 21.0057L15.7764 21.0057L13.8867 15.6591L5.625 15.6591L3.80859 21.0057L0 21.0057L7.86621 0L11.792 0L19.5996 21.0057L19.5996 21.0057ZM12.9638 12.8174L10.0488 4.43838C9.96094 4.16496 9.86816 3.72554 9.77052 3.12013L9.71192 3.12013C9.62402 3.67671 9.52637 4.11613 9.41896 4.43838L6.5332 12.8174L12.9638 12.8174L12.9638 12.8174ZM67.1191 14.4286L77.3437 14.4286L77.3437 13.125C77.3437 10.7813 76.7822 8.95017 75.6592 7.63175C74.5361 6.31342 72.9492 5.65425 70.8985 5.65425C68.8476 5.65425 67.1313 6.38913 65.7495 7.85888C64.3676 9.32854 63.6767 11.2304 63.6767 13.5644C63.6767 16.0351 64.3042 17.9516 65.5591 19.3139C66.8139 20.6762 68.5449 21.3574 70.752 21.3574C72.9981 21.3574 74.8047 20.9277 76.1719 20.0682L76.1719 17.329C74.834 18.2861 73.3643 18.7646 71.7627 18.7646C70.3369 18.7646 69.2163 18.3886 68.4008 17.6366C67.5854 16.8847 67.1582 15.8154 67.1191 14.4286L67.1191 14.4286ZM62.2412 9.24313C61.8311 8.92087 61.2402 8.75975 60.4687 8.75975C59.4629 8.75975 58.6231 9.21383 57.9492 10.122C57.2754 11.0302 56.9385 12.2656 56.9385 13.8281L56.9385 21.0057L53.5401 21.0057L53.5401 6.00575L56.9385 6.00575L56.9385 9.09663L56.9971 9.09663C57.3291 8.04196 57.8394 7.21921 58.5279 6.62838C59.2164 6.03754 59.9854 5.74213 60.835 5.74213C61.4502 5.74213 61.919 5.83492 62.2412 6.0205L62.2412 9.24313L62.2412 9.24313ZM33.1787 7.42675L25.0781 18.3545L33.1495 18.3545L33.1495 21.0057L20.3174 21.0057L20.3174 19.7314L28.5937 8.65713L21.1084 8.65713L21.1084 6.00575L33.1787 6.00575L33.1787 7.42675L33.1787 7.42675ZM45.7177 21.0058L49.1162 21.0058L49.1162 6.00575L45.7177 6.00575L45.7177 14.6338C45.7177 15.8349 45.393 16.8066 44.7436 17.5488C44.0942 18.2909 43.2666 18.662 42.2607 18.662C40.1806 18.662 39.1406 17.3144 39.1406 14.6191L39.1406 6.00575L35.7422 6.00575L35.7422 14.9706C35.7422 19.2285 37.5147 21.3574 41.0596 21.3574C43.1397 21.3574 44.6729 20.4492 45.6592 18.6328L45.7177 18.6328L45.7177 21.0058L45.7177 21.0058ZM73.1982 9.17725C73.7647 9.85592 74.0527 10.8056 74.0625 12.0264L67.1191 12.0264C67.2754 10.874 67.6929 9.94133 68.3716 9.2285C69.0503 8.51559 69.8779 8.15913 70.8545 8.15913C71.8506 8.15913 72.6318 8.4985 73.1982 9.17725L73.1982 9.17725Z" id="Shape" fill="#035BDA" fill-rule="evenodd" stroke="none" />
            </g>
          </g>
        </g>
      </g>
    </g>
  </g>
</svg>