<?xml version="1.0" encoding="utf-8"?>
<svg width="475px" height="100px" viewbox="0 0 475 100" version="1.1" xmlns:xlink="http://www.w3.org/1999/xlink" xmlns="http://www.w3.org/2000/svg">
  <defs>
    <path d="M0 0L193.75 0L193.75 100L0 100L0 0Z" id="path_1" />
    <path d="M0 0L191.25 0L191.25 98.75L0 98.75L0 0Z" id="path_2" />
    <path d="M0 0L375 0L375 187.5L0 187.5L0 0L0 0Z" id="path_3" />
    <path d="M0 0L542.077 0L542.077 701.512L0 701.512L0 0L0 0Z" id="path_4" />
    <path d="M0 0L78.2113 0L78.2113 55.0722L1.19209e-05 55.0722L0 0L0 0Z" id="path_5" />
    <path d="M0 0L40.6558 0L40.6558 40.6203L0 40.6203L0 0L0 0Z" id="path_6" />
    <path d="M0 0L188.134 0L188.134 54.7551L0 54.7551L0 0L0 0Z" id="path_7" />
    <path d="M0 0L176.6 0L176.6 65.3837L0 65.3837L0 0L0 0Z" id="path_8" />
    <path d="M0 0L293.75 0L293.75 56.25L0 56.25L0 0Z" transform="translate(181.25 18.75)" id="path_9" />
    <path d="M0 0L293.75 0L293.75 52.5L0 52.5L0 0Z" id="path_10" />
    <path d="M0 0L888.1 0L888.1 1149.31L0 1149.31L0 0L0 0Z" id="path_11" />
    <path d="M0 0L542.077 0L542.077 701.513L0 701.513L0 0L0 0Z" id="path_12" />
    <path d="M0 0L176.6 0L176.6 65.3838L0 65.3838L0 0L0 0Z" id="path_13" />
    <clipPath id="mask_1">
      <use xlink:href="#path_1" />
    </clipPath>
    <clipPath id="mask_2">
      <use xlink:href="#path_2" />
    </clipPath>
    <clipPath id="mask_3">
      <use xlink:href="#path_3" />
    </clipPath>
    <clipPath id="mask_4">
      <use xlink:href="#path_4" />
    </clipPath>
    <clipPath id="mask_5">
      <use xlink:href="#path_5" />
    </clipPath>
    <clipPath id="mask_6">
      <use xlink:href="#path_6" />
    </clipPath>
    <clipPath id="mask_7">
      <use xlink:href="#path_7" />
    </clipPath>
    <clipPath id="mask_8">
      <use xlink:href="#path_8" />
    </clipPath>
    <clipPath id="mask_9">
      <use xlink:href="#path_9" />
    </clipPath>
    <clipPath id="mask_10">
      <use xlink:href="#path_10" />
    </clipPath>
    <clipPath id="mask_11">
      <use xlink:href="#path_11" />
    </clipPath>
    <clipPath id="mask_12">
      <use xlink:href="#path_12" />
    </clipPath>
    <clipPath id="mask_13">
      <use xlink:href="#path_13" />
    </clipPath>
  </defs>
  <g id="Group">
    <path d="M0 0L193.75 0L193.75 100L0 100L0 0Z" id="Background" fill="none" fill-rule="evenodd" stroke="none" />
    <g clip-path="url(#mask_1)">
      <g id="Mask-group">
        <path d="M0 0L191.25 0L191.25 98.75L0 98.75L0 0Z" id="slice_1" fill="none" fill-rule="evenodd" stroke="none" />
        <g clip-path="url(#mask_2)">
          <g id="Slice" transform="translate(-91.874985 -17.499996)">
            <path d="M0 0L191.25 0L191.25 98.75L0 98.75L0 0Z" transform="translate(91.87501 17.499996)" id="slice_1" fill="none" fill-rule="evenodd" stroke="none" />
            <g id="apache_cassandra-ar21">
              <path d="M0 0L375 0L375 187.5L0 187.5L0 0L0 0Z" id="Background" fill="none" fill-rule="evenodd" stroke="none" />
              <g id="Mask-group">
                <path d="M0 0L375 0L375 187.5L0 187.5L0 0L0 0Z" id="path_1" fill="none" fill-rule="evenodd" stroke="none" />
                <g clip-path="url(#mask_3)">
                  <g id="Group" transform="translate(-21.25926 -130.19138)">
                    <g id="Mask-group">
                      <path d="M0 0L888.1 0L888.1 1149.31L0 1149.31L0 0L0 0Z" id="Shape" fill="none" fill-rule="evenodd" stroke="none" />
                    </g>
                    <g id="Group" transform="translate(78.98438 91.46347)">
                      <g id="Mask-group#1">
                        <path d="M0 0L542.077 0L542.077 701.512L0 701.512L0 0L0 0Z" id="Shape#1" fill="none" fill-rule="evenodd" stroke="none" />
                        <g id="Mask-group">
                          <path d="M0 0L542.077 0L542.077 701.512L0 701.512L0 0L0 0Z" id="path_3" fill="none" fill-rule="evenodd" stroke="none" />
                          <g clip-path="url(#mask_4)">
                            <g id="Group" transform="translate(66.753044 65.01926)">
                              <g id="Group#1">
                                <path d="M120.031 24.8992C121.434 41.243 95.7131 56.7984 62.5819 59.6409C29.4506 62.4832 1.46541 51.5362 0.0553042 35.1924C-1.35481 18.8487 24.3735 3.29139 57.5049 0.449055C90.6362 -2.39327 118.621 8.55369 120.031 24.8992" id="Shape#2" fill="#BBE6FB" fill-rule="evenodd" stroke="none" />
                              </g>
                            </g>
                          </g>
                        </g>
                      </g>
                      <g id="Mask-group#2">
                        <path d="M0 0L542.077 0L542.077 701.512L0 701.512L0 0L0 0Z" id="Shape#3" fill="none" fill-rule="evenodd" stroke="none" />
                        <g id="Mask-group">
                          <path d="M0 0L542.077 0L542.077 701.512L0 701.512L0 0L0 0Z" id="path_3" fill="none" fill-rule="evenodd" stroke="none" />
                          <g clip-path="url(#mask_4)">
                            <g id="Group" transform="translate(85.038795 67.37881)">
                              <g id="Group#2">
                                <g id="Mask-group#3">
                                  <path d="M0 0L78.2113 0L78.2113 55.0722L1.19209e-05 55.0722L0 0L0 0Z" id="Shape#4" fill="none" fill-rule="evenodd" stroke="none" />
                                  <g id="Mask-group">
                                    <path d="M0 0L78.2113 0L78.2113 55.0722L1.19209e-05 55.0722L0 0L0 0Z" id="path_4" fill="none" fill-rule="evenodd" stroke="none" />
                                    <g clip-path="url(#mask_5)">
                                      <g id="Group" transform="translate(0 9.3877316E-05)">
                                        <g id="Group#3" opacity="0.35">
                                          <path d="M40.1916 0.00610501C27.5538 -0.199364 12.7654 4.81835 1.76175 9.51725C0.59402 12.8772 -0.00150204 16.4093 0 19.9664C0 39.3536 17.5059 55.0721 39.1013 55.0721C60.6967 55.0721 78.2025 39.3536 78.2025 19.9664C78.2025 13.8308 76.445 8.06638 73.3638 3.04866C64.5594 1.68018 52.4601 0.214244 40.1926 0.00696331" id="Shape#5" fill="#FFFFFF" fill-rule="evenodd" stroke="none" />
                                        </g>
                                      </g>
                                    </g>
                                  </g>
                                </g>
                              </g>
                            </g>
                          </g>
                        </g>
                      </g>
                      <g id="Mask-group#4">
                        <path d="M0 0L542.077 0L542.077 701.512L0 701.512L0 0L0 0Z" id="Shape#6" fill="none" fill-rule="evenodd" stroke="none" />
                        <g id="Mask-group">
                          <path d="M0 0L542.077 0L542.077 701.512L0 701.512L0 0L0 0Z" id="path_3" fill="none" fill-rule="evenodd" stroke="none" />
                          <g clip-path="url(#mask_4)">
                            <g id="Group" transform="translate(92.65178 67.34644)">
                              <g id="Group#4">
                                <path d="M31.4883 0.0341304C24.4909 -0.392782 12.4324 3.25826 2.37647 6.89869C0.806385 10.5968 -0.00187755 14.5737 5.96047e-06 18.5914C5.96047e-06 35.5783 15.4014 49.3489 31.6938 49.3489C47.8791 49.3489 62.199 35.5561 63.3875 18.5914C63.7738 13.067 61.8818 7.86144 59.2317 3.37428C48.8065 1.53812 37.7435 0.415886 31.4883 0.0349887" id="Shape#7" fill="#FFFFFF" fill-rule="evenodd" stroke="none" />
                              </g>
                            </g>
                          </g>
                        </g>
                      </g>
                      <g id="Mask-group#5">
                        <path d="M0 0L542.077 0L542.077 701.512L0 701.512L0 0L0 0Z" id="Shape#8" fill="none" fill-rule="evenodd" stroke="none" />
                        <g id="Mask-group">
                          <path d="M0 0L542.077 0L542.077 701.512L0 701.512L0 0L0 0Z" id="path_3" fill="none" fill-rule="evenodd" stroke="none" />
                          <g clip-path="url(#mask_4)">
                            <g id="Group" transform="translate(92.65264 67.35103)">
                              <g id="Group#5">
                                <path d="M13.5325 16.3565C14.3917 14.4557 15.6911 13.5247 16.9514 11.9314C16.8115 11.554 16.5051 10.3193 16.5051 9.89231C16.507 7.98238 18.0549 6.4345 19.9648 6.43263C20.4017 6.43306 20.8346 6.51669 21.2402 6.67888C26.9666 2.31478 34.5052 0.4122 42.0819 2.10573C42.7679 2.26304 43.4474 2.44715 44.1191 2.65753C36.6319 1.61946 28.1934 4.27139 22.4519 8.90469C22.6273 9.31831 23.1136 10.5008 23.1136 10.9774C23.1136 12.8879 21.8771 13.3529 19.9665 13.3529C19.5426 13.3525 19.1223 13.2745 18.7265 13.1226C17.4297 14.8641 15.8407 18.1714 15.063 20.2547C18.2376 23.0944 21.1056 24.1236 24.8434 25.5204C24.8346 25.3433 24.9719 25.1776 24.9719 24.9961C24.9719 19.2361 30.0428 14.5549 35.8046 14.5549C40.9667 14.5549 45.2413 18.3087 46.0757 23.2334C48.6514 21.5948 51.1421 20.3388 53.0403 17.9189C52.5974 17.3875 52.1191 15.849 52.1191 15.0961C52.1191 13.3627 53.5257 11.9569 55.2591 11.9569C55.5044 11.9569 55.7401 11.9924 55.9695 12.0455C56.9331 10.0649 57.6524 7.96575 58.1254 5.80103C49.1174 -0.86868 31.6885 0.0418887 31.6885 0.0418887C31.6885 0.0418887 17.8195 -0.681805 8.43056 3.89483C9.05681 8.41213 10.8628 12.7257 13.5271 16.3662M56.578 13.7586C57.0853 14.2043 57.511 14.7351 57.8357 15.3273C58.6772 16.833 56.9881 18.2281 55.2547 18.2281C55.0817 18.2251 54.9092 18.2076 54.7392 18.1758C52.7861 21.2281 49.3654 25.1422 46.3264 27.1218C50.9854 27.8853 55.3804 29.7525 58.8774 32.6356C61.4239 28.0739 63.3769 21.4752 63.3769 15.8888C63.3769 11.6372 61.4966 8.50694 58.6577 6.21641C58.5089 8.49813 57.291 11.6904 56.578 13.7683M18.7601 42.6561C20.3129 38.369 24.1322 35.0457 27.7451 32.1227C27.2164 31.3991 26.4236 29.6072 26.0932 28.7587C21.6866 27.4186 17.7876 24.9101 14.7556 21.5894L14.683 21.8764C14.1301 24.3714 13.9983 26.9412 14.2933 29.4797C16.4425 29.8824 18.0001 31.7589 18.0001 33.9456C18.0001 35.2742 16.8442 37.1759 15.947 38.0076C16.9213 40.1121 17.5874 41.1272 18.753 42.656M18.4873 46.2548C16.6273 44.4124 15.3544 40.7401 14.1524 38.4336C13.924 38.4707 13.693 38.4902 13.4616 38.4921C10.9496 38.4921 8.31806 36.384 8.91325 33.9447C9.24275 32.5948 10.1746 31.7126 11.6919 30.9747C11.3376 28.1784 11.2525 24.1589 11.9018 21.2519C12.0789 20.4193 12.4819 20.0296 12.7433 19.2386C9.97087 15.1819 8.18163 9.84969 8.18163 4.57771C8.18163 4.38459 8.1905 4.19419 8.19581 4.00193C3.51198 6.35094 0 10.0516 0 15.8771C0 28.763 7.42256 41.4044 18.4642 46.3584L18.4882 46.2539M45.639 28.4504C44.2217 32.5088 40.3537 35.4239 35.8072 35.4239C33.4716 35.4251 31.2039 34.6387 29.3705 33.1917C25.715 36.0385 22.3996 41.0394 20.7132 45.3779C21.4696 46.1927 21.9975 46.8615 22.8452 47.5922C25.4023 48.2583 28.9241 47.5922 31.692 47.5922C42.8258 47.5922 52.6869 42.6391 58.3406 33.9535C54.5814 31.3494 50.1474 28.8728 45.639 28.4601" id="Shape#9" fill="#373535" fill-rule="evenodd" stroke="none" />
                              </g>
                            </g>
                          </g>
                        </g>
                      </g>
                      <g id="Mask-group#6">
                        <path d="M0 0L542.077 0L542.077 701.512L0 701.512L0 0L0 0Z" id="Shape#10" fill="none" fill-rule="evenodd" stroke="none" />
                        <g id="Mask-group">
                          <path d="M0 0L542.077 0L542.077 701.512L0 701.512L0 0L0 0Z" id="path_3" fill="none" fill-rule="evenodd" stroke="none" />
                          <g clip-path="url(#mask_4)">
                            <g id="Group" transform="translate(92.3648 68.847015)">
                              <g id="Group#6">
                                <path d="M13.5351 16.3672C14.3811 14.4923 15.4534 12.728 16.7283 11.1138C16.3333 10.0519 16.4827 8.86419 17.1281 7.93319C17.7736 7.00219 18.8337 6.44575 19.9665 6.44325C20.4034 6.44369 20.8363 6.52731 21.242 6.6895C26.9683 2.32541 34.5069 0.422786 42.0836 2.11632C42.7696 2.27368 43.4493 2.45774 44.1209 2.66816C36.6336 1.63005 28.8975 3.92592 23.157 8.55838C23.3324 8.97113 23.428 9.42644 23.428 9.90206C23.426 11.8121 21.8782 13.3599 19.9683 13.3618C19.5443 13.3614 19.1241 13.2834 18.7283 13.1316C17.4315 14.8729 16.3721 16.7968 15.5927 18.8711C18.3191 21.8092 21.6654 24.1324 25.4024 25.5293C25.3935 25.3522 25.3758 25.175 25.3758 24.9935C25.3758 19.2335 30.0437 14.5638 35.8054 14.5638C40.9676 14.5638 45.2422 18.3175 46.0766 23.2423C48.6523 21.6037 50.9411 19.4991 52.8383 17.0704C52.3767 16.5159 52.123 15.8176 52.1209 15.0961C52.1209 13.3627 53.5274 11.957 55.2609 11.957C55.5062 11.957 55.7418 11.9924 55.9713 12.0456C56.9349 10.0649 57.6542 7.96575 58.1271 5.80103C49.1191 -0.86868 31.6902 0.0418887 31.6902 0.0418887C31.6902 0.0418887 17.8212 -0.681761 8.43231 3.89488C9.05857 8.41213 10.8646 12.7258 13.5289 16.3662M57.353 12.7763C57.9908 13.3502 58.3982 14.1731 58.3982 15.0969C58.3982 16.8303 56.9916 18.2369 55.2582 18.2369C55.0853 18.2339 54.9128 18.2164 54.7427 18.1846C52.7884 21.2377 50.2036 23.8374 47.1616 25.8091C51.6523 26.5131 55.8715 28.41 59.3787 31.3016C61.9253 26.74 63.3806 21.484 63.3806 15.8879C63.3806 11.6363 61.5001 8.50606 58.6613 6.2155C58.5179 8.45044 58.078 10.6564 57.353 12.7754M19.5272 42.1822C21.0799 37.8951 23.7788 34.0466 27.3908 31.1245C26.8579 30.396 26.4225 29.6009 26.0959 28.7595C21.7429 27.4331 17.8288 24.9563 14.7663 21.5904L14.6937 21.8773C14.1396 24.3721 14.0075 26.9421 14.3031 29.4805C16.4111 29.8738 18.0099 31.7215 18.0099 33.9465C18.0111 35.2144 17.4804 36.4249 16.5468 37.283C17.3662 39.0155 18.3651 40.6572 19.5272 42.1813M18.7628 44.6995C16.9027 42.8571 15.3562 40.7429 14.1551 38.4373C13.9266 38.4739 13.6956 38.4932 13.4642 38.4948C10.9523 38.4949 8.91594 36.4577 8.91594 33.9474C8.91681 32.2054 9.91356 30.6171 11.4819 29.8588C11.1283 26.9878 11.2711 24.0773 11.9044 21.2547C12.0816 20.4239 12.3172 19.6125 12.5776 18.8189C9.80525 14.7639 8.1825 9.86138 8.1825 4.57961C8.1825 4.3865 8.19138 4.1961 8.19581 4.00565C3.51198 6.35288 0 10.0553 0 15.88C0 28.7676 7.69538 39.8483 18.738 44.8031L18.7619 44.6986M45.6443 28.4434C44.2271 32.5019 40.3591 35.4169 35.8125 35.4169C33.4769 35.4181 31.2092 34.6317 29.3758 33.1848C25.7203 36.0316 22.9612 39.912 21.2765 44.2513C22.0321 45.0662 22.8399 45.8324 23.6884 46.5542C26.2464 47.2204 28.9294 47.5773 31.6973 47.5773C42.8312 47.5773 52.6187 41.82 58.2733 33.1441C54.5142 30.5399 50.1528 28.8571 45.6443 28.4452" id="Shape#11" fill="#1287B1" fill-rule="evenodd" stroke="none" />
                              </g>
                            </g>
                          </g>
                        </g>
                      </g>
                      <g id="Mask-group#7">
                        <path d="M0 0L542.077 0L542.077 701.512L0 701.512L0 0L0 0Z" id="Shape#12" fill="none" fill-rule="evenodd" stroke="none" />
                        <g id="Mask-group">
                          <path d="M0 0L542.077 0L542.077 701.512L0 701.512L0 0L0 0Z" id="path_3" fill="none" fill-rule="evenodd" stroke="none" />
                          <g clip-path="url(#mask_4)">
                            <g id="Group" transform="translate(107.354294 74.06798)">
                              <g id="Group#7">
                                <g id="Mask-group#8">
                                  <path d="M0 0L40.6558 0L40.6558 40.6203L0 40.6203L0 0L0 0Z" id="Shape#13" fill="none" fill-rule="evenodd" stroke="none" />
                                  <g id="Mask-group">
                                    <path d="M0 0L40.6558 0L40.6558 40.6203L0 40.6203L0 0L0 0Z" id="path_5" fill="none" fill-rule="evenodd" stroke="none" />
                                    <g clip-path="url(#mask_6)">
                                      <g id="Group" transform="translate(0.0018119814 0.00705719)">
                                        <g id="Group#8">
                                          <path d="M31.0171 20.5343L40.654 18.2358L30.9816 17.7424L38.8533 11.7264L29.9214 14.9284L35.9914 6.51644L27.6078 12.0966L30.5308 2.24976L24.7734 10.3659L24.6424 0.108957L20.854 9.24456L17.6954 0L17.8664 10.8903L12.4075 1.12929L15.3615 11.4944L6.50669 5.05495L13.4421 13.7708L2.45884 9.72813L11.1348 16.1471L0.00975132 16.489L11.3845 19.4244L0 21.8868L11.2375 22.7017L1.75998 28.7691L11.5183 25.2314L4.74761 33.8054L13.3039 26.8966L10.2233 38.4113L16.8283 29.0471L15.9027 40.1066L19.6521 30.0799L22.8434 40.6177L23.6193 30.0481L28.3563 39.0649L25.5574 28.7504L34.2315 35.4697L28.6318 26.9028L38.1483 30.6104L30.8719 23.4598L40.6292 24.2269L31.0171 20.5343L31.0171 20.5343Z" id="Shape#14" fill="#FFFFFF" fill-rule="evenodd" stroke="none" />
                                        </g>
                                      </g>
                                    </g>
                                  </g>
                                </g>
                              </g>
                            </g>
                          </g>
                        </g>
                      </g>
                      <g id="Mask-group#9">
                        <path d="M0 0L542.077 0L542.077 701.512L0 701.512L0 0L0 0Z" id="Shape#15" fill="none" fill-rule="evenodd" stroke="none" />
                        <g id="Mask-group">
                          <path d="M0 0L542.077 0L542.077 701.512L0 701.512L0 0L0 0Z" id="path_3" fill="none" fill-rule="evenodd" stroke="none" />
                          <g clip-path="url(#mask_4)">
                            <g id="Group" transform="translate(35.78683 56.01549)">
                              <g id="Group#9">
                                <g id="Mask-group#10" transform="translate(0 2.277328)">
                                  <path d="M0 0L188.134 0L188.134 54.7551L0 54.7551L0 0L0 0Z" id="Shape#16" fill="none" fill-rule="evenodd" stroke="none" />
                                  <g id="Mask-group">
                                    <path d="M0 0L188.134 0L188.134 54.7551L0 54.7551L0 0L0 0Z" id="path_6" fill="none" fill-rule="evenodd" stroke="none" />
                                    <g clip-path="url(#mask_7)">
                                      <g id="Group" transform="translate(-0.002652407 -0.008916855)">
                                        <g id="Group#10" opacity="0.35">
                                          <path d="M0.00265241 54.764C29.8878 24.8789 53.756 15.6538 75.4175 11.4509C78.2838 10.8929 78.8263 4.63071 78.8263 4.63071C78.8263 4.63071 79.2275 9.24369 81.2338 9.84513C83.24 10.4466 85.8456 2.62451 85.8456 2.62451C85.8456 2.62451 83.4394 9.645 85.8456 10.0471C88.2525 10.4493 92.6663 3.22681 92.6663 3.22681C92.6663 3.22681 90.8619 9.44475 92.0656 9.84513C93.2694 10.2454 99.2844 0.810481 99.2844 0.810481C99.2844 0.810481 95.6738 7.02844 99.0838 7.63075C102.494 8.233 107.469 3.37916 107.469 3.37916C107.469 3.37916 103.558 7.81238 105.301 8.42438C112.724 11.0329 118.729 1.38712 118.729 1.38712C118.729 1.38712 117.338 5.61657 113.728 10.2295C121.548 12.2348 127.368 0.450849 127.368 0.450849L121.558 12.2339C124.566 13.8398 136.602 0 136.602 0C136.602 0 130.384 10.8309 126.773 13.0364C128.779 14.6414 135.999 8.22325 135.999 8.22325C135.999 8.22325 130.183 15.4421 132.389 15.8443C135.598 18.4518 147.431 2.40746 147.431 2.40746C147.431 2.40746 142.819 11.8336 135.999 19.2544C141.699 22.1064 155.856 3.81055 155.856 3.81055C155.856 3.81055 155.455 9.62725 145.225 18.8531C152.847 17.8504 162.674 3.40929 162.674 3.40929C162.674 3.40929 159.064 14.2402 150.439 21.8612C157.923 21.0818 169.893 2.60682 169.893 2.60682C169.893 2.60682 165.281 15.4431 155.854 22.8639C166.284 25.1704 181.326 9.62638 181.326 9.62638C181.326 9.62638 175.41 20.6584 167.686 25.1713C176.311 28.4804 188.145 14.8416 188.145 14.8416C188.145 14.8416 176.311 33.0942 157.458 32.2909C151.273 32.0278 132.569 13.5237 92.4731 15.0418C39.522 17.0489 28.2908 39.5026 0 54.7551" id="Shape#17" fill="#373535" fill-rule="evenodd" stroke="none" />
                                        </g>
                                      </g>
                                    </g>
                                  </g>
                                </g>
                                <path d="M0.00975132 54.7622C29.8949 24.8772 53.7622 15.653 75.4238 11.4492C78.2913 10.8912 78.8344 4.62894 78.8344 4.62894C78.8344 4.62894 79.2344 9.23487 81.2419 9.84337C83.2488 10.4519 85.8538 2.62451 85.8538 2.62451C85.8538 2.62451 83.4469 9.64494 85.8538 10.0453C88.26 10.4456 92.6738 3.22504 92.6738 3.22504C92.6738 3.22504 90.8694 9.443 92.0719 9.84331C93.2738 10.2436 99.2925 0.808669 99.2925 0.808669C99.2925 0.808669 95.6819 7.02662 99.0919 7.62894C102.502 8.23125 107.478 3.37734 107.478 3.37734C107.478 3.37734 103.566 7.81056 105.309 8.42256C112.732 11.0302 118.734 1.38531 118.734 1.38531C118.734 1.38531 117.344 5.61476 113.734 10.2277C121.556 12.2339 127.375 0.449037 127.375 0.449037L121.547 12.234C124.556 13.8283 136.589 0 136.589 0C136.589 0 130.373 10.8292 126.763 13.0356C128.768 14.6405 135.989 8.22237 135.989 8.22237C135.989 8.22237 130.172 15.4429 132.378 15.8433C135.588 18.4519 147.42 2.4066 147.42 2.4066C147.42 2.4066 142.814 11.8336 135.989 19.2535C141.689 22.1056 155.846 3.80964 155.846 3.80964C155.846 3.80964 155.444 9.62719 145.214 18.8532C152.836 17.8496 162.664 3.40838 162.664 3.40838C162.664 3.40838 159.054 14.2393 150.428 21.8612C157.913 21.0817 169.883 2.60682 169.883 2.60682C169.883 2.60682 165.271 15.4431 155.844 22.8639C166.273 25.1703 181.316 9.62719 181.316 9.62719C181.316 9.62719 175.399 20.6574 167.676 25.1702C176.301 28.4794 188.134 14.8407 188.134 14.8407C188.134 14.8407 176.301 33.0933 157.446 32.2899C151.262 32.026 132.55 13.5121 92.4613 15.0409C39.5114 17.0462 28.2801 39.5097 0 54.7525" transform="translate(1.2152375 0)" id="Shape#18" fill="#373535" fill-rule="evenodd" stroke="none" />
                              </g>
                            </g>
                          </g>
                        </g>
                      </g>
                      <g id="Mask-group#11">
                        <path d="M0 0L542.077 0L542.077 701.512L0 701.512L0 0L0 0Z" id="Shape#19" fill="none" fill-rule="evenodd" stroke="none" />
                        <g id="Mask-group">
                          <path d="M0 0L542.077 0L542.077 701.512L0 701.512L0 0L0 0Z" id="path_3" fill="none" fill-rule="evenodd" stroke="none" />
                          <g clip-path="url(#mask_4)">
                            <g id="Group" transform="translate(34.402412 89.74297)">
                              <g id="Group#11">
                                <g id="Mask-group#12" transform="translate(0.60230505 1.804328)">
                                  <path d="M0 0L176.6 0L176.6 65.3837L0 65.3837L0 0L0 0Z" id="Shape#20" fill="none" fill-rule="evenodd" stroke="none" />
                                  <g id="Mask-group">
                                    <path d="M0 0L176.6 0L176.6 65.3837L0 65.3837L0 0L0 0Z" id="path_7" fill="none" fill-rule="evenodd" stroke="none" />
                                    <g clip-path="url(#mask_8)">
                                      <g id="Group" transform="translate(0 0.0009357929)">
                                        <g id="Group#12" opacity="0.35">
                                          <path d="M0 24.7681C15.7946 32.6911 30.2368 23.5652 48.4379 28.6946C62.276 32.5954 79.1244 37.4041 101.988 34.0941C124.853 30.7841 144.409 20.8576 153.738 3.10628C156.645 -4.81499 168.478 4.91316 168.478 4.91316C168.478 4.91316 159.854 1.30288 160.063 3.00876C160.273 4.7147 172.999 10.6297 172.999 10.6297C172.999 10.6297 161.468 7.01944 162.169 9.72625C162.87 12.4331 176.608 23.2649 176.608 23.2649C176.608 23.2649 161.065 11.4313 159.761 13.0345C158.458 14.6377 166.379 21.1586 166.379 21.1586C166.379 21.1586 153.242 13.0345 148.629 15.4304C145.311 17.1515 162.27 28.2791 162.27 28.2791C162.27 28.2791 151.238 19.8539 148.629 22.0612C146.021 24.2684 161.065 42.3182 161.065 42.3182C161.065 42.3182 144.005 23.8646 142.304 24.7681C140.604 25.6716 147.016 34.4963 147.016 34.4963C147.016 34.4963 138.602 25.2694 136.288 26.8744C133.973 28.4794 148.321 52.4459 148.321 52.4459C148.321 52.4459 132.776 27.8771 126.359 31.9869C136.439 54.1004 132.677 57.2599 132.677 57.2599C132.677 57.2599 131.391 34.7 118.837 35.2969C112.519 35.5981 121.845 52.1438 121.845 52.1438C121.845 52.1438 113.253 37.0313 107.545 37.3324C118.081 57.2617 114.325 65.3812 114.325 65.3812C114.325 65.3812 116.068 48.352 101.778 38.8754C107.192 43.6876 98.38 65.3812 98.38 65.3812C98.38 65.3812 106.132 33.4059 92.6625 39.5175C90.5338 40.4786 92.5119 55.4627 92.5119 55.4627C92.5119 55.4627 89.8044 38.3129 85.745 39.2164C83.3769 39.7417 70.7013 62.9837 70.7013 62.9837C70.7013 62.9837 81.0819 37.8621 77.9225 38.9152C75.6213 39.6832 71.3038 50.0473 71.3038 50.0473C71.3038 50.0473 73.4088 39.817 71.3038 39.2164C69.1981 38.6158 57.4637 50.0473 57.4637 50.0473C57.4637 50.0473 66.1881 39.817 64.6844 37.7116C62.4044 34.5202 59.7241 34.3706 56.562 35.6061C51.9561 37.4042 45.732 45.8347 45.732 45.8347C45.732 45.8347 51.9287 37.2987 50.8455 34.1012C49.1067 28.9639 31.2908 44.0216 31.2908 44.0216C31.2908 44.0216 41.8205 34.1012 39.4131 31.9869C37.0056 29.8727 23.9391 30.5325 19.8576 30.521C7.82381 30.4838 3.65369 27.6601 0.000870228 24.7672" id="Shape#21" fill="#373535" fill-rule="evenodd" stroke="none" />
                                        </g>
                                      </g>
                                    </g>
                                  </g>
                                </g>
                                <path d="M0 24.7682C15.7946 32.6912 30.2359 23.5654 48.4371 28.6956C62.2751 32.5946 79.1244 37.4043 101.989 34.0942C124.854 30.7841 144.417 20.8567 153.736 3.10719C156.644 -4.81494 168.477 4.91145 168.477 4.91145C168.477 4.91145 159.853 1.30202 160.063 3.0071C160.271 4.71213 172.999 10.6281 172.999 10.6281C172.999 10.6281 161.466 7.01863 162.168 9.72638C162.869 12.4341 176.609 23.2641 176.609 23.2641C176.609 23.2641 161.064 11.4306 159.762 13.0356C158.46 14.6405 166.381 21.1578 166.381 21.1578C166.381 21.1578 153.243 13.0356 148.631 15.4297C145.312 17.1516 162.27 28.2783 162.27 28.2783C162.27 28.2783 151.238 19.8638 148.631 22.0604C146.024 24.257 161.067 42.3174 161.067 42.3174C161.067 42.3174 144.016 23.8646 142.312 24.7672C140.608 25.6698 147.026 34.4945 147.026 34.4945C147.026 34.4945 138.601 25.2685 136.295 26.8735C133.989 28.4784 148.329 52.445 148.329 52.445C148.329 52.445 132.784 27.8744 126.367 31.9869C136.447 54.0996 132.685 57.259 132.685 57.259C132.685 57.259 131.399 34.6991 118.845 35.2969C112.527 35.5981 121.853 52.1439 121.853 52.1439C121.853 52.1439 113.261 37.0304 107.554 37.3315C118.091 57.2714 114.333 65.3813 114.333 65.3813C114.333 65.3813 116.076 48.3511 101.786 38.8745C107.2 43.6876 98.3881 65.3813 98.3881 65.3813C98.3881 65.3813 106.142 33.4059 92.6719 39.5176C90.5438 40.4795 92.5219 55.4627 92.5219 55.4627C92.5219 55.4627 89.8113 38.3148 85.7525 39.2164C83.3844 39.7417 70.7081 62.9838 70.7081 62.9838C70.7081 62.9838 81.0894 37.8621 77.93 38.9162C75.6288 39.6823 71.3106 50.0464 71.3106 50.0464C71.3106 50.0464 73.4169 39.8179 71.3106 39.2164C69.2044 38.615 57.4717 50.0464 57.4717 50.0464C57.4717 50.0464 66.1963 39.8179 64.6906 37.7115C62.4106 34.5201 59.7304 34.3722 56.5683 35.607C51.9624 37.4051 45.7373 45.8347 45.7373 45.8347C45.7373 45.8347 51.934 37.2979 50.8516 34.1012C49.112 28.9639 31.297 44.0216 31.297 44.0216C31.297 44.0216 41.8268 34.1012 39.4193 31.9878C37.0118 29.8744 23.9453 30.5334 19.8638 30.5211C7.83 30.4829 3.6608 27.6601 0.00797513 24.7673" id="Shape#22" fill="#373535" fill-rule="evenodd" stroke="none" />
                              </g>
                            </g>
                          </g>
                        </g>
                      </g>
                    </g>
                  </g>
                </g>
              </g>
            </g>
          </g>
        </g>
      </g>
    </g>
    <path d="M0 0L293.75 0L293.75 56.25L0 56.25L0 0Z" transform="translate(181.25 18.75)" id="Background" fill="none" fill-rule="evenodd" stroke="none" />
    <g id="Mask-group" transform="translate(181.25 18.75)">
      <path d="M0 0L293.75 0L293.75 52.5L0 52.5L0 0Z" id="slice_1" fill="none" fill-rule="evenodd" stroke="none" />
      <g clip-path="url(#mask_10)">
        <g id="Slice-2" transform="translate(-37.5 -116.25001)">
          <path d="M0 0L293.75 0L293.75 52.5L0 52.5L0 0Z" transform="translate(37.5 116.25001)" id="slice_1" fill="none" fill-rule="evenodd" stroke="none" />
          <g id="apache_cassandra-ar21">
            <path d="M0 0L375 0L375 187.5L0 187.5L0 0L0 0Z" id="Background" fill="none" fill-rule="evenodd" stroke="none" />
            <g id="Mask-group">
              <path d="M0 0L375 0L375 187.5L0 187.5L0 0L0 0Z" id="path_1" fill="none" fill-rule="evenodd" stroke="none" />
              <g clip-path="url(#mask_3)">
                <g id="Group" transform="translate(-21.25926 -130.19138)">
                  <g id="Mask-group">
                    <path d="M0 0L888.1 0L888.1 1149.31L0 1149.31L0 0L0 0Z" id="Shape" fill="none" fill-rule="evenodd" stroke="none" />
                    <g id="Mask-group">
                      <path d="M0 0L888.1 0L888.1 1149.31L0 1149.31L0 0L0 0Z" id="path_2" fill="none" fill-rule="evenodd" stroke="none" />
                      <g clip-path="url(#mask_11)">
                        <g id="Group" transform="translate(70.29775 249.63756)">
                          <g id="Group">
                            <path d="M18.9476 15.7229C21.5945 15.7229 24.1021 16.3499 25.3573 17.6037C25.5662 19.5554 23.8234 22.6899 22.7089 22.6899C21.3855 22.2023 20.1317 21.9208 18.5993 21.9208C12.2607 21.9208 9.12338 28.4698 9.12338 34.9477C9.12338 38.9876 10.5164 41.4271 13.7235 41.4271C17.1366 41.4271 20.6193 39.1285 22.5696 37.3871C23.0573 37.7354 23.6841 38.8498 23.6841 40.1036C23.6841 41.4968 23.2662 42.8202 22.0124 44.0741C19.7834 46.303 16.0221 48.1836 10.5876 48.1836C4.31861 48.1836 0 44.6312 0 36.3423C0 25.4762 7.17444 15.7361 18.8649 15.7361L18.9476 15.7229L18.9476 15.7229ZM39.4261 41.0789C42.8392 41.0789 49.0399 35.0856 50.7813 23.6651C50.851 22.9686 50.9206 22.7596 51.0599 22.0631C50.1413 21.7424 49.1756 21.5776 48.2026 21.5754C45.6254 21.5754 42.9785 22.3416 40.6103 25.5458C38.1723 28.9589 37.1275 33.2079 37.1275 36.6223C37.1275 39.5465 37.9634 41.0803 39.3564 41.0803L39.4261 41.0789L39.4261 41.0789ZM28.2088 37.9445C28.2088 33.8348 29.6019 26.6589 34.826 21.4347C39.2839 16.8374 44.717 15.7215 49.6639 15.7215C52.9377 15.7215 57.3956 16.7664 60.1818 17.325C59.4853 20.3898 57.8136 31.9526 57.0474 38.6394C56.6991 41.4981 56.5597 45.4671 56.6991 46.9298C54.4005 47.905 50.0819 48.1836 48.8963 48.1836C48.2723 48.1836 48.1301 45.3278 48.3405 42.6112C48.4156 41.6807 48.508 40.7518 48.6177 39.8248C45.9011 44.3526 40.5377 48.1836 34.8956 48.1836C30.8557 48.1836 28.2204 44.8401 28.2204 38.014L28.2088 37.9445L28.2088 37.9445ZM77.5131 15.7231C80.3687 15.7231 83.085 16.7678 84.3406 18.0913C84.2706 20.0431 82.7381 23.3154 80.2988 22.4099C79.2544 22.0618 78.2094 21.7859 76.8162 21.7859C74.9356 21.7859 73.3337 22.6218 73.3337 24.3618C73.3337 25.6852 74.3087 26.6619 78.9756 29.9342C82.3206 32.3721 83.6438 34.5315 83.6438 37.5963C83.6438 42.6826 78.8362 48.1853 70.4775 48.1853C67.0644 48.1853 64.0681 46.8618 63.0769 45.4687C61.8231 43.3791 62.7981 39.2695 64.1944 39.9645C66.005 40.8701 69.0006 41.8467 71.4381 41.8467C73.7369 41.8467 75.2 40.8018 75.2 39.4087C75.2 38.2261 74.155 37.1798 69.9063 34.1846C66.3506 31.5378 65.2375 29.0998 65.2375 26.3136C65.2375 20.5323 70.1712 15.7247 77.4275 15.7247L77.5131 15.7231L77.5131 15.7231ZM101.544 15.7231C104.402 15.7231 107.116 16.7678 108.371 18.0913C108.302 20.0431 106.771 23.3154 104.331 22.4099C103.287 22.0618 102.242 21.7859 100.849 21.7859C98.9681 21.7859 97.3662 22.6218 97.3662 24.3618C97.3662 25.6852 98.3412 26.6619 103.008 29.9342C106.351 32.3721 107.675 34.5315 107.675 37.5963C107.675 42.6826 102.867 48.1853 94.5088 48.1853C91.0956 48.1853 88.1006 46.8618 87.125 45.4687C85.8713 43.3791 86.8469 39.2695 88.24 39.9645C90.0506 40.8701 93.0456 41.8467 95.4837 41.8467C97.7825 41.8467 99.245 40.8018 99.245 39.4087C99.245 38.2261 98.2006 37.1798 93.9512 34.1846C90.3988 31.5378 89.2844 29.0998 89.2844 26.3136C89.2844 20.5323 94.23 15.7247 101.474 15.7247L101.544 15.7231L101.544 15.7231ZM123.482 41.079C126.897 41.079 133.096 35.0857 134.837 23.6651C134.907 22.9687 134.978 22.7596 135.117 22.0631C134.198 21.7428 133.232 21.578 132.259 21.5756C129.681 21.5756 127.034 22.3418 124.665 25.5459C122.227 28.959 121.182 33.208 121.182 36.6225C121.182 39.5466 122.018 41.0804 123.412 41.0804L123.482 41.079L123.482 41.079ZM112.265 37.9445C112.265 33.8348 113.658 26.6589 118.882 21.4348C123.34 16.8375 128.773 15.7216 133.72 15.7216C136.994 15.7216 141.454 16.7664 144.241 17.3251C143.544 20.3899 141.872 31.9527 141.106 38.6395C140.758 41.4982 140.619 45.4672 140.758 46.93C138.459 47.9051 134.141 48.1838 132.957 48.1838C132.333 48.1838 132.191 45.3279 132.399 42.6113C132.469 41.7057 132.608 40.3823 132.678 39.8251C129.961 44.3526 124.598 48.1838 118.956 48.1838C114.914 48.1838 112.281 44.8403 112.281 38.0141L112.265 37.9445L112.265 37.9445ZM159.981 24.7783C163.174 19.6238 167.365 15.7231 173.216 15.7231C178.161 15.7231 179.763 20.3204 178.875 26.8679L176.993 38.361C176.506 41.7755 176.157 44.8388 176.228 46.93C174.417 47.8356 169.122 48.1838 167.938 48.1838C167.451 48.1838 167.379 44.3528 168.007 40.3113L170.306 27.4252C170.654 25.3936 170.585 22.9673 168.634 22.9673C166.056 22.9673 159.927 27.0783 156.861 43.9363C156.651 45.3294 156.095 46.1653 155.327 46.6528C154.282 47.2812 152.054 47.8384 147.527 47.908C148.364 43.6591 149.687 34.9494 150.662 28.5426C151.566 22.6916 151.916 18.9288 151.707 17.4661C152.892 17.0481 159.107 15.7247 159.787 15.7247C160.556 15.7247 160.694 17.8839 159.997 23.1254L159.787 24.7943L159.981 24.7783L159.981 24.7783ZM195.367 41.0267C198.415 41.0267 204.633 35.3136 206.373 25.2136C206.446 24.6565 206.653 23.6116 206.808 22.9833C205.901 22.1474 204.719 21.5901 202.838 21.5901C195.8 21.5901 192.68 30.0068 192.68 36.0813C192.68 39.3551 193.798 41.0268 195.327 41.0268L195.367 41.0267L195.367 41.0267ZM190.77 48.2012C186.313 48.2012 183.526 44.2308 183.526 37.4046C183.526 26.1191 190.56 15.7391 202.403 15.7391C204.492 15.7391 206.373 16.2963 207.557 16.9929C208.184 13.7887 209.647 3.89624 209.734 0.972269C211.683 0.62399 215.863 0 217.744 0C218.513 0 218.722 0.76475 218.441 2.50616L213.216 37.4786C212.863 40.6466 212.717 43.8343 212.781 47.0213C210.554 47.9965 206.024 48.2055 204.843 48.2055C204.353 48.2055 204.074 45.0013 204.215 42.1455L204.424 39.7076C200.941 45.4193 196.134 48.2055 190.841 48.2055L190.77 48.2012L190.77 48.2012ZM231.586 25.7693C235.28 17.5487 239.666 15.7376 242.524 15.7376C243.431 15.7376 244.823 16.2948 245.449 16.9913C245.729 19.29 243.918 23.8873 242.315 25.6287C241.477 25.2107 240.436 24.7928 239.25 24.7928C236.881 24.7928 232.212 28.4859 229.288 44.3833C229.077 45.7082 228.661 46.2653 227.895 46.6136C226.711 47.3102 222.042 47.8674 219.815 47.937C220.857 42.2238 222.668 30.5915 223.366 23.7639C223.575 22.0224 223.656 18.8183 223.505 17.5646C224.829 16.9378 230.054 15.7536 231.237 15.7536C231.865 15.7536 232.354 19.5846 231.375 25.7854L231.586 25.7693L231.586 25.7693ZM256.173 41.079C259.589 41.079 265.787 35.0857 267.53 23.6651C267.598 22.9687 267.669 22.7596 267.809 22.0631C266.89 21.7426 265.924 21.5778 264.951 21.5756C262.374 21.5756 259.727 22.3418 257.357 25.5459C254.919 28.959 253.874 33.208 253.874 36.6225C253.874 39.5466 254.711 41.0804 256.105 41.0804L256.173 41.079L256.173 41.079ZM244.956 37.9445C244.956 33.8348 246.349 26.6589 251.573 21.4348C256.031 16.8375 261.464 15.7216 266.411 15.7216C269.685 15.7216 274.142 16.7664 276.932 17.3251C276.236 20.3899 274.562 31.9527 273.797 38.6395C273.449 41.4982 273.308 45.4672 273.449 46.93C271.151 47.9051 266.832 48.1838 265.646 48.1838C265.022 48.1838 264.882 45.3279 265.089 42.6113C265.164 41.6808 265.258 40.752 265.369 39.8251C262.651 44.3526 257.289 48.1838 251.646 48.1838C247.604 48.1838 244.971 44.8403 244.971 38.0141L244.956 37.9445L244.956 37.9445Z" id="Shape#1" fill="#373535" fill-rule="evenodd" stroke="none" />
                          </g>
                        </g>
                      </g>
                    </g>
                  </g>
                  <g id="Group#1" transform="translate(78.98438 91.46346)">
                    <g id="Mask-group#1">
                      <path d="M0 0L542.077 0L542.077 701.513L0 701.513L0 0L0 0Z" id="Shape#2" fill="none" fill-rule="evenodd" stroke="none" />
                    </g>
                    <g id="Mask-group#2">
                      <path d="M0 0L542.077 0L542.077 701.513L0 701.513L0 0L0 0Z" id="Shape#3" fill="none" fill-rule="evenodd" stroke="none" />
                    </g>
                    <g id="Mask-group#3">
                      <path d="M0 0L542.077 0L542.077 701.513L0 701.513L0 0L0 0Z" id="Shape#4" fill="none" fill-rule="evenodd" stroke="none" />
                    </g>
                    <g id="Mask-group#4">
                      <path d="M0 0L542.077 0L542.077 701.513L0 701.513L0 0L0 0Z" id="Shape#5" fill="none" fill-rule="evenodd" stroke="none" />
                    </g>
                    <g id="Mask-group#5">
                      <path d="M0 0L542.077 0L542.077 701.513L0 701.513L0 0L0 0Z" id="Shape#6" fill="none" fill-rule="evenodd" stroke="none" />
                    </g>
                    <g id="Mask-group#6">
                      <path d="M0 0L542.077 0L542.077 701.513L0 701.513L0 0L0 0Z" id="Shape#7" fill="none" fill-rule="evenodd" stroke="none" />
                    </g>
                    <g id="Mask-group#7">
                      <path d="M0 0L542.077 0L542.077 701.513L0 701.513L0 0L0 0Z" id="Shape#8" fill="none" fill-rule="evenodd" stroke="none" />
                    </g>
                    <g id="Mask-group#8">
                      <path d="M0 0L542.077 0L542.077 701.513L0 701.513L0 0L0 0Z" id="Shape#9" fill="none" fill-rule="evenodd" stroke="none" />
                      <g id="Mask-group">
                        <path d="M0 0L542.077 0L542.077 701.513L0 701.513L0 0L0 0Z" id="path_3" fill="none" fill-rule="evenodd" stroke="none" />
                        <g clip-path="url(#mask_12)">
                          <g id="Group" transform="translate(34.40241 89.74298)">
                            <g id="Group#2">
                              <g id="Mask-group#9" transform="translate(0.602305 1.8043221)">
                                <path d="M0 0L176.6 0L176.6 65.3838L0 65.3838L0 0L0 0Z" id="Shape#10" fill="none" fill-rule="evenodd" stroke="none" />
                                <g id="Mask-group">
                                  <path d="M0 0L176.6 0L176.6 65.3838L0 65.3838L0 0L0 0Z" id="path_4" fill="none" fill-rule="evenodd" stroke="none" />
                                  <g clip-path="url(#mask_13)">
                                    <g id="Group" transform="translate(0 0.00093579304)">
                                      <g id="Group#3" opacity="0.35">
                                        <path d="M0 24.7681C15.7946 32.6911 30.2368 23.5653 48.4379 28.6946C62.276 32.5954 79.1244 37.4041 101.988 34.0941C124.853 30.7841 144.409 20.8576 153.738 3.10628C156.645 -4.81499 168.478 4.91316 168.478 4.91316C168.478 4.91316 159.854 1.30288 160.063 3.00877C160.273 4.7147 172.999 10.6298 172.999 10.6298C172.999 10.6298 161.468 7.01944 162.169 9.72625C162.87 12.4331 176.608 23.2649 176.608 23.2649C176.608 23.2649 161.065 11.4313 159.761 13.0345C158.458 14.6378 166.379 21.1586 166.379 21.1586C166.379 21.1586 153.242 13.0345 148.629 15.4304C145.311 17.1515 162.27 28.2791 162.27 28.2791C162.27 28.2791 151.238 19.8539 148.629 22.0612C146.021 24.2684 161.065 42.3182 161.065 42.3182C161.065 42.3182 144.005 23.8646 142.304 24.7681C140.604 25.6716 147.016 34.4963 147.016 34.4963C147.016 34.4963 138.602 25.2694 136.288 26.8744C133.973 28.4794 148.321 52.4459 148.321 52.4459C148.321 52.4459 132.776 27.8771 126.359 31.9869C136.439 54.1004 132.677 57.2599 132.677 57.2599C132.677 57.2599 131.391 34.7 118.837 35.2969C112.519 35.5981 121.845 52.1438 121.845 52.1438C121.845 52.1438 113.253 37.0313 107.545 37.3324C118.081 57.2618 114.325 65.3813 114.325 65.3813C114.325 65.3813 116.068 48.352 101.778 38.8754C107.192 43.6876 98.38 65.3813 98.38 65.3813C98.38 65.3813 106.132 33.4059 92.6625 39.5175C90.5338 40.4786 92.5119 55.4628 92.5119 55.4628C92.5119 55.4628 89.8044 38.3129 85.745 39.2164C83.3769 39.7417 70.7012 62.9838 70.7012 62.9838C70.7012 62.9838 81.0819 37.8621 77.9225 38.9153C75.6213 39.6832 71.3038 50.0473 71.3038 50.0473C71.3038 50.0473 73.4088 39.817 71.3038 39.2164C69.1981 38.6158 57.4637 50.0473 57.4637 50.0473C57.4637 50.0473 66.1881 39.817 64.6844 37.7116C62.4044 34.5202 59.7241 34.3706 56.562 35.6061C51.9561 37.4042 45.732 45.8347 45.732 45.8347C45.732 45.8347 51.9287 37.2987 50.8454 34.1012C49.1067 28.9639 31.2907 44.0216 31.2907 44.0216C31.2907 44.0216 41.8205 34.1012 39.4131 31.9869C37.0056 29.8727 23.9391 30.5325 19.8576 30.521C7.82381 30.4838 3.65369 27.6601 0.000870228 24.7673" id="Shape#11" fill="#373535" fill-rule="evenodd" stroke="none" />
                                      </g>
                                    </g>
                                  </g>
                                </g>
                              </g>
                              <path d="M0 24.7682C15.7946 32.6912 30.2359 23.5654 48.4371 28.6956C62.2751 32.5946 79.1244 37.4042 101.989 34.0942C124.854 30.7841 144.417 20.8567 153.736 3.10718C156.644 -4.81494 168.477 4.91145 168.477 4.91145C168.477 4.91145 159.853 1.30202 160.063 3.0071C160.271 4.71212 172.999 10.6281 172.999 10.6281C172.999 10.6281 161.466 7.01862 162.168 9.72637C162.869 12.4341 176.609 23.2641 176.609 23.2641C176.609 23.2641 161.064 11.4306 159.762 13.0356C158.46 14.6405 166.381 21.1578 166.381 21.1578C166.381 21.1578 153.243 13.0356 148.631 15.4297C145.312 17.1516 162.27 28.2783 162.27 28.2783C162.27 28.2783 151.238 19.8637 148.631 22.0604C146.024 24.257 161.067 42.3174 161.067 42.3174C161.067 42.3174 144.016 23.8646 142.312 24.7672C140.608 25.6697 147.026 34.4945 147.026 34.4945C147.026 34.4945 138.601 25.2685 136.295 26.8735C133.989 28.4784 148.329 52.445 148.329 52.445C148.329 52.445 132.784 27.8744 126.367 31.9869C136.447 54.0996 132.685 57.259 132.685 57.259C132.685 57.259 131.399 34.6991 118.845 35.2969C112.527 35.5981 121.853 52.1439 121.853 52.1439C121.853 52.1439 113.261 37.0304 107.554 37.3315C118.091 57.2714 114.333 65.3812 114.333 65.3812C114.333 65.3812 116.076 48.3511 101.786 38.8745C107.2 43.6876 98.3881 65.3812 98.3881 65.3812C98.3881 65.3812 106.142 33.4059 92.6719 39.5176C90.5438 40.4795 92.5219 55.4627 92.5219 55.4627C92.5219 55.4627 89.8113 38.3147 85.7525 39.2164C83.3844 39.7417 70.7081 62.9837 70.7081 62.9837C70.7081 62.9837 81.0894 37.8621 77.93 38.9162C75.6288 39.6823 71.3106 50.0464 71.3106 50.0464C71.3106 50.0464 73.4169 39.8179 71.3106 39.2164C69.2044 38.615 57.4717 50.0464 57.4717 50.0464C57.4717 50.0464 66.1963 39.8179 64.6906 37.7115C62.4106 34.5201 59.7304 34.3722 56.5683 35.607C51.9624 37.4051 45.7373 45.8347 45.7373 45.8347C45.7373 45.8347 51.934 37.2979 50.8516 34.1012C49.112 28.9639 31.297 44.0216 31.297 44.0216C31.297 44.0216 41.8268 34.1012 39.4193 31.9878C37.0118 29.8744 23.9453 30.5334 19.8638 30.5211C7.83 30.4829 3.6608 27.6601 0.0079751 24.7672" id="Shape#12" fill="#373535" fill-rule="evenodd" stroke="none" />
                            </g>
                          </g>
                        </g>
                      </g>
                    </g>
                  </g>
                </g>
              </g>
            </g>
          </g>
        </g>
      </g>
    </g>
  </g>
</svg>