<?xml version="1.0" encoding="utf-8"?>
<svg width="302px" height="104px" viewbox="0 0 302 104" version="1.1" xmlns:xlink="http://www.w3.org/1999/xlink" xmlns="http://www.w3.org/2000/svg">
  <g id="layer1" transform="translate(1.7716522 1.7716535)">
    <g id="g5189">
      <path d="M0 0L297.738 0L297.738 100L0 100L0 0Z" id="rect5183" fill="#FFFFFF" fill-opacity="0" fill-rule="evenodd" stroke="none" />
      <path d="M29.7684 37.4323L14.1778 37.4323C12.5969 37.4323 11.0328 37.2045 9.48553 36.7488C6.49186 35.8025 4.12048 33.6295 2.37138 30.2297C0.790461 27.1454 0 23.5529 0 19.4522C0 15.4917 0.706365 11.9868 2.11911 8.93753C3.66638 5.57287 5.86958 3.27718 8.72868 2.05044C10.9487 1.10416 13.2191 0.630999 15.5401 0.630958L29.6674 0.630958L29.6674 7.67575L14.9851 7.67575C12.5969 7.67578 10.8646 9.02518 9.78823 11.7239C8.9473 13.8269 8.52687 16.5782 8.52687 19.9779C8.52687 22.8519 9.06505 25.2878 10.1414 27.2856C11.386 29.6339 13.1351 30.808 15.3887 30.808L29.7683 30.7554L29.7683 37.4323M55.7337 37.59L43.4227 37.59C40.429 37.59 37.8222 36.2581 35.6022 33.5944C33.4158 30.8956 32.3226 27.7938 32.3226 24.2889C32.3226 20.4686 33.5167 17.174 35.9049 14.4051C38.3267 11.6012 41.0176 10.1993 43.9777 10.1992L55.6832 10.1992L55.6832 15.8246L47.1059 15.8246C46.0295 15.8246 45.1045 15.9297 44.3309 16.14C43.5908 16.3153 42.9013 16.6833 42.2622 17.2441C41.0849 18.2955 40.4963 19.715 40.4963 21.5025L55.6328 21.5025L55.6328 27.1804L40.5468 27.1804C40.5467 28.0216 40.6308 28.7401 40.799 29.3359C41.0008 29.8967 41.3877 30.475 41.9595 31.0708C42.5313 31.6316 43.204 32.0172 43.9777 32.2274C44.7849 32.4027 45.7604 32.4904 46.9041 32.4904L55.7337 32.4904L55.7337 37.5899M84.5055 37.4322L77.4923 37.4322L77.4923 19.5047C77.4923 19.0491 77.3914 18.646 77.1896 18.2955C76.9877 17.91 76.7018 17.542 76.3318 17.1915C75.6591 16.5957 74.8855 16.2978 74.0109 16.2977L67.1491 16.2977L67.1491 37.4322L60.1358 37.4322L60.1358 10.1992L73.5568 10.1992C75.945 10.1993 77.6773 10.3395 78.7537 10.6198C80.4355 11.0404 81.7809 11.9692 82.7901 13.4062C83.9337 15.0886 84.5055 16.9286 84.5055 18.9264L84.5055 37.4323M104.648 15.8772L97.8366 15.8772L97.8366 28.2319C97.8366 29.3534 98.2066 30.2822 98.9466 31.0183C99.7875 31.7543 100.898 32.1223 102.277 32.1223L104.345 32.1223L104.345 37.4322L97.8366 37.4322C95.8857 37.4322 94.2207 36.6962 92.8416 35.2242C92.0343 34.3479 91.513 33.384 91.2775 32.3326C91.042 31.2811 90.9243 30.0369 90.9243 28.5999L90.9243 15.8771L86.4843 15.8771L86.4843 10.1993L90.9243 10.1993L90.9243 0.630916L97.8366 0.630916L97.8366 10.1993L104.648 10.1993L104.648 15.8771M145.822 18.9789C145.821 26.1289 143.921 31.2461 140.12 34.3304C137.026 36.8188 132.518 38.0631 126.598 38.0631C120.039 38.0631 115.195 36.6261 112.067 33.7521C108.636 30.5976 106.921 25.5331 106.921 18.5583C106.921 12.8454 108.451 8.3942 111.512 5.20476C114.842 1.73494 119.82 2.74933e-05 126.447 0C133.746 2.74933e-05 138.892 1.66486 141.886 4.99444C144.51 7.93856 145.821 12.6001 145.822 18.9789M136.841 18.7686C136.84 15.1586 136.016 12.2846 134.368 10.1466C132.518 7.76331 129.777 6.57167 126.144 6.57162C122.579 6.57164 119.888 7.85093 118.071 10.4095C116.558 12.5475 115.801 15.3339 115.801 18.7686C115.801 22.7292 116.406 25.6558 117.617 27.5484C119.299 30.177 122.41 31.4913 126.951 31.4913C130.786 31.4913 133.477 30.2121 135.024 27.6535C136.235 25.6558 136.84 22.6941 136.84 18.7686M186.208 26.0238C186.208 29.2483 185.182 31.9646 183.13 34.1727C181.079 36.3808 178.472 37.4848 175.31 37.4848L150.335 37.4322L150.335 30.808L170.92 30.808C172.3 30.808 173.46 30.475 174.402 29.809C175.478 29.038 176.016 27.9865 176.016 26.6547C176.016 23.5353 173.897 21.9757 169.659 21.9757L159.265 21.9757C156.272 21.9757 153.648 21.0118 151.394 19.0841C149.141 17.1565 148.014 14.7031 148.014 11.7239C148.014 8.42931 149.107 5.76562 151.294 3.73274C153.514 1.6649 156.423 0.630958 160.022 0.630916L183.887 0.630916L183.887 6.9397L162.848 6.9397C161.906 6.93972 160.947 7.36032 159.972 8.20145C159.03 9.00761 158.559 9.97144 158.559 11.093C158.559 12.3548 159.013 13.4237 159.921 14.3C160.863 15.1411 161.99 15.5617 163.302 15.5617L174.755 15.5617C178.32 15.5617 181.112 16.5255 183.131 18.4532C185.182 20.3459 186.208 22.8694 186.208 26.0238" transform="translate(100 30.119562)" id="text5083-9" fill="#000000" fill-rule="evenodd" stroke="none" />
      <g id="g3664" transform="translate(9.47067 11.785855)">
        <g id="g12802" transform="translate(0 25.689598)">
          <g id="g12804">
            <g id="g12806" transform="translate(0.08627775 0.12901272)">
              <path d="M31.6327 9.00442L34.4245 11.7674L31.6327 14.5303L11.9832 14.5303L11.9832 23.7364L0 11.7674L11.9832 0L11.9832 9.00442L31.6327 9.00442L31.6327 9.00442Z" id="path12808" fill="#932279" fill-rule="evenodd" stroke="none" />
            </g>
            <g id="Mask-group">
              <g id="g4431">
                <path d="M33.0551 9.55509L35.8128 11.8217L33.0551 14.0883L12.2907 14.0883L12.2907 23.7678L0 11.8217L12.2907 0L12.2907 9.55509L33.0551 9.55509L33.0551 9.55509Z" id="path4433" fill="none" fill-rule="evenodd" stroke="none" />
              </g>
            </g>
          </g>
        </g>
        <g id="g12768" transform="translate(25.818184 0)">
          <g id="g12770">
            <g id="g12772" transform="translate(0 0.08588937)">
              <path d="M14.7986 31.4903L12.0231 34.2695L9.24771 31.4903L9.24771 11.9293L0 11.9293L12.0231 0L23.8437 11.9293L14.7986 11.9293L14.7986 31.4903L14.7986 31.4903Z" id="path12774" fill="#EFA724" fill-rule="evenodd" stroke="none" />
            </g>
            <g id="Mask-group" transform="translate(0.09800147 0)">
              <g id="g4431">
                <path d="M14.277 32.9063L12.0001 35.6517L9.7233 32.9063L9.7233 12.2353L0 12.2353L12.0001 0L23.8753 12.2353L14.277 12.2353L14.277 32.9063L14.277 32.9063Z" id="path4433" fill="none" fill-rule="evenodd" stroke="none" />
              </g>
            </g>
          </g>
        </g>
        <g id="g12780" transform="translate(39.784428 25.701984)">
          <g id="g12782" transform="translate(1.3020097 0)">
            <path d="M2.79182 14.732L0 11.969L2.79182 9.20609L22.4413 9.20609L22.4413 0L34.4245 11.969L22.4413 23.7364L22.4413 14.732L2.79182 14.732L2.79182 14.732Z" id="path12784" fill="#262577" fill-rule="evenodd" stroke="none" />
          </g>
          <g id="Mask-group" transform="translate(0 0.09753887)">
            <g id="g4431">
              <path d="M2.75768 14.2128L0 11.9461L2.75768 9.67956L23.5221 9.67956L23.5221 0L35.8128 11.9461L23.5221 23.7678L23.5221 14.2128L2.75768 14.2128L2.75768 14.2128Z" id="path4433" fill="none" fill-rule="evenodd" stroke="none" />
            </g>
          </g>
        </g>
        <g id="g12790" transform="translate(25.805666 39.605328)">
          <g id="g12792">
            <g id="g12794" transform="translate(0.12958233 1.2962548)">
              <path d="M9.04512 2.77924L11.8205 0L14.596 2.77924L14.596 22.3402L23.8437 22.3402L11.8205 34.2695L0 22.3402L9.04512 22.3402L9.04512 2.77924L9.04512 2.77924Z" id="path12796" fill="#9CCD2A" fill-rule="evenodd" stroke="none" />
            </g>
            <g id="Mask-group">
              <g id="g4431">
                <path d="M9.59828 2.74537L11.8752 0L14.152 2.74537L14.152 23.4164L23.8753 23.4164L11.8752 35.6517L0 23.4164L9.59828 23.4164L9.59828 2.74537L9.59828 2.74537Z" id="path4433" fill="none" fill-rule="evenodd" stroke="none" />
              </g>
            </g>
          </g>
        </g>
        <g id="g12742" transform="translate(11.365133 11.314048)">
          <path d="M0 0L23.8753 0L23.8753 23.768L0 23.768L0 0L0 0Z" id="rect12744" fill="#9CCD2A" fill-rule="evenodd" stroke="#FFFFFF" stroke-width="3.543307" />
          <path d="M0 0L23.8753 0L23.8753 23.768L0 23.768L0 0L0 0Z" transform="translate(28.991503 0)" id="rect12746" fill="#932279" fill-rule="evenodd" stroke="#FFFFFF" stroke-width="3.543307" />
          <path d="M0 0L23.8753 0L23.8753 23.7679L0 23.7679L0 0L0 0Z" transform="translate(28.991503 28.861053)" id="rect12748" fill="#EFA724" fill-rule="evenodd" stroke="#FFFFFF" stroke-width="3.543307" />
          <path d="M0 0L23.8753 0L23.8753 23.7679L0 23.7679L0 0L0 0Z" transform="translate(0 28.861053)" id="rect12750" fill="#262577" fill-rule="evenodd" stroke="#FFFFFF" stroke-width="3.543307" />
        </g>
        <path d="M0 16.8065L16.8824 0L33.7649 16.8064L16.8824 33.6129L0 16.8065L0 16.8065Z" transform="translate(0.41600567 20.822172)" id="rect12760" fill="none" fill-rule="evenodd" stroke="#FFFFFF" stroke-width="3.543307" />
        <path d="M0 16.8064L16.8824 0L33.7649 16.8064L16.8824 33.6129L0 16.8064L0 16.8064Z" transform="translate(20.916142 0.41432446)" id="rect12762" fill="none" fill-rule="evenodd" stroke="#FFFFFF" stroke-width="3.543068" />
        <path d="M0 16.8064L16.8824 0L33.7649 16.8064L16.8824 33.6129L0 16.8064L0 16.8064Z" transform="translate(41.416187 20.822117)" id="rect12764" fill="none" fill-rule="evenodd" stroke="#FFFFFF" stroke-width="3.543307" />
        <path d="M0 16.8065L16.8824 0L33.7649 16.8065L16.8824 33.6129L0 16.8065L0 16.8065Z" transform="translate(20.916033 41.22996)" id="rect12766" fill="none" fill-rule="evenodd" stroke="#FFFFFF" stroke-width="3.543307" />
      </g>
    </g>
  </g>
</svg>