<?xml version="1.0" encoding="utf-8"?>
<svg width="149px" height="100px" viewbox="0 0 149 100" version="1.1" xmlns:xlink="http://www.w3.org/1999/xlink" xmlns="http://www.w3.org/2000/svg">
  <defs>
    <path d="M0 0L148.837 0L148.837 100L0 100L0 0Z" id="path_1" />
    <path d="M0 0L148.837 0L148.837 98.8372L0 98.8372L0 0Z" id="path_2" />
    <path d="M0 0L148.837 0L148.837 148.837L0 148.837L0 0L0 0Z" id="path_3" />
    <rect width="152" height="103" id="artboard_1" />
    <rect width="148.83722" height="100" id="slice_1" />
    <clipPath id="clip_1">
      <use xlink:href="#slice_1" clip-rule="evenodd" />
    </clipPath>
    <clipPath id="clip_2">
      <use xlink:href="#artboard_1" clip-rule="evenodd" />
    </clipPath>
    <clipPath id="mask_1">
      <use xlink:href="#path_1" />
    </clipPath>
    <clipPath id="mask_2">
      <use xlink:href="#path_2" />
    </clipPath>
    <clipPath id="mask_3">
      <use xlink:href="#path_3" />
    </clipPath>
  </defs>
  <g id="Slice" clip-path="url(#clip_1)">
    <use xlink:href="#slice_1" stroke="none" fill="none" />
    <g id="Artboard" clip-path="url(#clip_2)" transform="translate(-2 -2)">
      <g id="svg" transform="translate(2 2)">
        <path d="M0 0L148.837 0L148.837 100L0 100L0 0Z" id="Background" fill="none" fill-rule="evenodd" stroke="none" />
        <g clip-path="url(#mask_1)">
          <g id="Mask-group">
            <path d="M0 0L148.837 0L148.837 98.8372L0 98.8372L0 0Z" id="slice_1" fill="none" fill-rule="evenodd" stroke="none" />
            <g clip-path="url(#mask_2)">
              <g id="Slice" transform="translate(0 -24.883728)">
                <path d="M0 0L148.837 0L148.837 98.8372L0 98.8372L0 0Z" transform="translate(0 24.883728)" id="slice_1" fill="none" fill-rule="evenodd" stroke="none" />
                <g id="devto">
                  <path d="M0 0L148.837 0L148.837 148.837L0 148.837L0 0L0 0Z" id="Background" fill="none" fill-rule="evenodd" stroke="none" />
                  <g id="Mask-group">
                    <path d="M0 0L148.837 0L148.837 148.837L0 148.837L0 0L0 0Z" id="path_1" fill="none" fill-rule="evenodd" stroke="none" />
                    <g clip-path="url(#mask_3)">
                      <g id="Group" transform="translate(0 24.883728)">
                        <path d="M2.14854e-06 90.4651L2.14854e-06 8.60465C2.14854e-06 7.44186 0.23256 6.27907 0.697677 5.34884C1.16279 4.18605 1.86047 3.25581 2.55814 2.55814C3.48837 1.62791 4.4186 1.16279 5.34884 0.697674C6.51163 0.232558 7.44186 0 8.60465 0L140 0C141.163 0 142.326 0.232558 143.256 0.697674C144.419 1.16279 145.349 1.86047 146.047 2.55814C146.977 3.48837 147.442 4.4186 147.907 5.34884C148.372 6.51163 148.605 7.44186 148.605 8.60465L148.605 90.2326C148.605 91.3953 148.372 92.5581 147.907 93.4884C147.442 94.6512 146.744 95.5814 146.047 96.2791C145.116 97.2093 144.186 97.6744 143.256 98.1395C142.093 98.6047 141.163 98.8372 140 98.8372L8.83721 98.8372C7.67442 98.8372 6.51163 98.6047 5.5814 98.1395C4.4186 97.6744 3.48837 96.9767 2.7907 96.2791C1.86047 95.3488 1.39535 94.4186 0.930233 93.4884C0.232558 92.5581 0 91.6279 0 90.4651L2.14854e-06 90.4651L2.14854e-06 90.4651Z" id="Shape" fill="#0A0A0A" fill-rule="evenodd" stroke="none" />
                        <path d="M63.4884 10.4651C65.1163 16.2791 67.4419 25.5814 69.0698 31.3954C71.3954 40.4651 72.093 42.3256 74.1861 44.4186C75.5814 45.814 77.2093 46.7442 78.3721 46.7442C80.6977 46.7442 83.4884 44.4186 84.6512 41.8605C85.3488 40 95.8139 1.39535 95.8139 0.46512C95.8139 0.23256 93.7209 1.40071e-06 91.3953 0.23256L86.7442 0.46512L82.5581 16.0465C80 26.0465 78.3721 31.1628 78.1395 30.2326C77.4419 28.6047 70.2326 0.697674 70.2326 0.46512C70.2326 0.232565 68.1395 0.23256 65.5814 0.23256L60.9302 0.23256L63.4884 10.4651L63.4884 10.4651ZM33.7209 2.09301C32.3256 3.95349 32.093 4.88372 32.093 23.7209L32.093 43.2558L33.9535 45.1163C35.5814 46.9767 36.0465 46.9767 45.5814 46.9767L55.3488 46.9767L55.3488 39.0698L47.907 38.8372L40.6977 38.3721L40.6977 27.4419L45.3488 27.2093L49.7674 26.9767L49.7674 19.0698L40.2326 19.0698L40.2326 8.13954L55.5814 8.13954L55.5814 0L45.3488 0C35.3488 0 35.1163 0 33.7209 2.09302L33.7209 2.09301L33.7209 2.09301ZM16.9767 9.53488C18.6046 10.9302 18.8372 11.1628 18.8372 23.0232C18.8372 34.4186 18.8372 35.1163 17.2093 36.7442C16.0465 37.907 14.6512 38.3721 12.093 38.3721L8.60464 38.3721L8.37209 23.2558L8.13953 8.13953L11.6279 8.13953C14.186 8.13953 15.8139 8.60464 16.9767 9.53488L16.9767 9.53488L16.9767 9.53488ZM0 23.4884L0 46.7442L8.13953 46.7442C17.2093 46.7442 21.1628 45.5814 23.7209 42.093C26.5116 38.6046 26.9767 35.5814 26.7442 21.6279C26.5116 9.30231 26.2791 8.37208 24.8837 5.81394C22.093 1.39533 19.0698 0.232544 8.83721 0.232544L0 0.232544L0 23.4884L0 23.4884Z" transform="translate(29.069763 27.906982)" id="Shape#1" fill="#FFFFFF" fill-rule="evenodd" stroke="none" />
                      </g>
                    </g>
                  </g>
                </g>
              </g>
            </g>
          </g>
        </g>
      </g>
    </g>
  </g>
</svg>