<?xml version="1.0" encoding="utf-8"?>
<svg width="667px" height="220px" viewbox="0 0 667 220" version="1.1" xmlns:xlink="http://www.w3.org/1999/xlink" xmlns="http://www.w3.org/2000/svg">
  <defs>
    <path d="M0 0L377.583 0L377.583 122.459L0 122.459L0 0Z" id="path_1" />
    <path d="M0 0L622.502 0L622.502 147.972L0 147.972L0 0L0 0Z" id="path_2" />
    <path d="M0 0L288.8 0L288.8 288.8L0 288.8L0 0Z" id="path_3" />
    <rect width="667" height="220" id="artboard_1" />
    <clipPath id="clip_1">
      <use xlink:href="#artboard_1" clip-rule="evenodd" />
    </clipPath>
    <clipPath id="mask_1">
      <use xlink:href="#path_1" />
    </clipPath>
    <clipPath id="mask_2">
      <use xlink:href="#path_2" />
    </clipPath>
    <clipPath id="mask_3">
      <use xlink:href="#path_3" />
    </clipPath>
  </defs>
  <g id="Artboard" clip-path="url(#clip_1)">
    <g id="svg" transform="translate(292.1536 43.655975)">
      <g id="Mask-group">
        <path d="M0 0L377.583 0L377.583 122.459L0 122.459L0 0Z" id="slice_1" fill="none" fill-rule="evenodd" stroke="none" />
        <g clip-path="url(#mask_1)">
          <g id="Slice" transform="translate(-260.22614 -20.409897)">
            <path d="M0 0L377.583 0L377.583 122.459L0 122.459L0 0Z" transform="translate(260.22614 20.409897)" id="slice_1" fill="none" fill-rule="evenodd" stroke="none" />
            <g id="Docker_(container_engine)_logo">
              <path d="M0 0L622.502 0L622.502 147.972L0 147.972L0 0L0 0Z" id="Background" fill="none" fill-rule="evenodd" stroke="none" />
              <g id="Mask-group">
                <path d="M0 0L622.502 0L622.502 147.972L0 147.972L0 0L0 0Z" id="path_1" fill="none" fill-rule="evenodd" stroke="none" />
                <g clip-path="url(#mask_2)">
                  <g id="Group" transform="translate(31.893295 0.00048828125)">
                    <path d="M203.495 72.8904L203.24 46.8088L202.474 0.215897M228.858 20.2953L202.604 46.8088L228.988 72.9768M53.1089 47.1543C53.2355 41.561 51.6097 35.8457 48.3157 31.2203C43.5691 24.5551 35.8869 20.0047 27.459 19.9067C26.8971 19.9067 26.341 19.9067 25.7749 19.9499C22.4432 20.1557 19.2166 20.6186 16.3613 21.8066C-2.41637 29.6195 -5.74343 55.6951 10.1 67.4928C23.8203 77.7092 43.7779 73.5378 50.6906 57.9496C52.1515 54.6555 53.1088 50.5029 53.1088 47.1542L53.1088 0M179.805 23.0157C175.917 20.5035 171.381 19.5972 166.894 19.6044C166.407 19.6044 165.907 19.6287 165.468 19.6476C152.496 20.2055 140.466 29.3732 140.466 47.1542C140.466 68.1767 163.008 79.5227 179.848 69.6086M255.502 67.32C268.771 55.9542 295.359 33.1634 295.359 33.1634C295.359 33.1634 294.389 31.3295 293.761 30.4862C288.396 23.2861 280.199 19.6908 271.566 19.6908C250.228 19.6908 234.234 47.2814 255.502 67.32C256.975 68.7075 258.997 69.7942 261.246 70.7313C269.049 73.985 279.733 73.7182 285.513 69.4359M96.7192 19.7772C96.1144 19.7882 95.513 19.8523 94.9056 19.8635C78.726 20.1608 67.0602 36.9662 70.5944 52.552C74.0383 67.7399 90.6309 76.7334 104.967 71.7677C121.66 67.3906 128.469 46.3689 119.303 32.1703C114.29 24.4046 105.793 19.6047 96.7192 19.7772L96.7192 19.7772L96.7192 19.7772ZM342.379 20.2953C335.827 20.3128 329.446 22.6075 324.718 27.0317C317.261 33.1866 315.641 40.9588 315.736 50.7815L315.952 73.1064" transform="translate(242.868 42.670807)" id="path12" fill="none" fill-rule="evenodd" stroke="#394D54" stroke-width="10.5" stroke-linecap="round" stroke-linejoin="round" />
                    <path d="M118.617 46.6688L141.952 46.6688L141.952 70.5226L153.751 70.5226C159.199 70.5226 164.803 69.5519 169.963 67.8035C172.498 66.9438 175.344 65.7474 177.845 64.2428C174.552 59.9421 172.87 54.5117 172.375 49.1589C171.702 41.8783 173.171 32.4018 178.098 26.7036L180.551 23.8665L183.474 26.2161C190.834 32.1286 197.022 40.3902 198.113 49.8081C206.974 47.2017 217.378 47.8181 225.188 52.3261L228.393 54.175L226.706 57.4668C220.1 70.3591 206.291 74.3526 192.79 73.6459C172.587 123.965 128.603 147.788 75.2725 147.788C47.7203 147.788 22.4416 137.488 8.04684 113.043C7.20288 111.525 6.48015 109.937 5.71366 108.377C0.847807 97.6167 -0.768314 85.8289 0.328045 74.051L0.657056 70.523L20.6107 70.523L20.6107 46.6693L43.9454 46.6693L43.9454 23.3346L90.6146 23.3346L90.6146 0L118.616 0L118.616 46.6693" id="path14" fill="#394D54" fill-rule="evenodd" stroke="none" />
                  </g>
                </g>
              </g>
            </g>
          </g>
        </g>
      </g>
    </g>
    <g id="Docker-icon" transform="translate(-1.136589 -38.799995)">
      <path d="M0 0L288.8 0L288.8 288.8L0 288.8L0 0Z" id="Background" fill="none" fill-rule="evenodd" stroke="none" />
      <g clip-path="url(#mask_3)">
        <path d="M228.954 36.1C231.307 25.6611 228.4 13.357 213.912 0C190.363 21.317 197.096 43.4825 204.887 54.15C204.887 54.15 203.889 60.1667 180.821 60.1667C157.753 60.1667 0.320676 60.1667 0.320676 60.1667C0.320676 60.1667 -10.7079 156.433 96.5873 156.433C190.405 156.433 216.758 84.2153 221.902 65.7261C224.032 66.0149 226.421 66.2014 228.954 66.1833C241.872 66.081 258.616 59.1378 265.054 33.1879C247.979 27.2736 237.01 29.951 228.954 36.1L228.954 36.1Z" transform="translate(11.712677 84.233345)" id="Shape" fill="#03A9F4" fill-rule="evenodd" stroke="none" />
        <path d="M0 0C4.42225 28.513 22.9716 72.2 95.2739 72.2C168.587 72.2 200.704 28.0978 213.694 0L0 0L0 0Z" transform="translate(13.026131 168.46661)" id="Shape" fill="#0288D1" fill-rule="evenodd" stroke="none" />
        <path d="M92.6025 41.7437C87.0672 39.8063 62.086 35.1855 57.6337 0C32.3095 11.209 9.87335 8.27292 0 6.0648C13.008 25.4926 37.1228 42.1167 81.7003 42.1167C85.4487 42.1167 89.0647 41.9723 92.6025 41.7437L92.6025 41.7437Z" transform="translate(26.599648 198.54996)" id="Shape" fill="#81D4FA" fill-rule="evenodd" stroke="none" />
        <path d="M12.0333 0C5.3875 0 0 5.38751 0 12.0333C0 18.6792 5.3875 24.0667 12.0333 24.0667C18.6792 24.0667 24.0667 18.6792 24.0667 12.0333C24.0667 5.3875 18.6792 0 12.0333 0L12.0333 0Z" transform="translate(96.266624 180.49997)" id="Shape" fill="#FFFFFF" fill-rule="evenodd" stroke="none" />
        <path d="M77.6992 45.7086C79.0469 48.747 77.8195 52.7 74.6307 53.6386C54.7697 59.4928 37.6523 60.2689 24.7104 60.2689C20.8357 56.5446 17.5265 52.5736 14.7468 48.4582C30.2999 48.4582 55.1186 47.7362 69.7632 42.6461C72.9039 41.5511 76.3515 42.6581 77.6992 45.7086L77.6992 45.7086ZM0 6.01667C0 6.01667 11.2812 6.76875 18.05 0C29.3312 10.1561 53.789 6.54613 60.1667 0C66.5624 10.1561 101.91 8.27292 108.3 0C115.821 8.65197 148.16 10.5292 156.433 0C159.315 8.79035 197.461 11.2752 204.567 0C210.95 6.54613 235.029 11.6603 248.555 0C251.948 7.1478 264.733 6.01667 264.733 6.01667L264.733 12.0333L0 12.0333M90.25 36.1C90.25 39.4212 92.9455 42.1166 96.2667 42.1166C99.5879 42.1166 102.283 39.4212 102.283 36.1C102.283 32.7788 99.5879 30.0833 96.2667 30.0833C92.9455 30.0833 90.25 32.7788 90.25 36.1L90.25 36.1Z" transform="translate(12.03331 156.4332)" id="Shape" fill="#37474F" fill-rule="evenodd" stroke="none" />
        <path d="M30.0833 60.1667L0 60.1667L0 30.0833L30.0833 30.0833L30.0833 60.1667L30.0833 60.1667ZM90.25 30.0833L60.1667 30.0833L60.1667 60.1667L90.25 60.1667L90.25 30.0833L90.25 30.0833ZM150.417 30.0833L120.333 30.0833L120.333 60.1667L150.417 60.1667L150.417 30.0833L150.417 30.0833ZM60.1666 0L30.0833 0L30.0833 30.0833L60.1666 30.0833L60.1666 0L60.1666 0ZM120.333 0L90.25 0L90.25 30.0833L120.333 30.0833L120.333 0L120.333 0Z" transform="translate(36.099983 84.233345)" id="Shape" fill="#01579B" fill-rule="evenodd" stroke="none" />
        <path d="M30.0833 90.25L0 90.25L0 60.1667L30.0833 60.1667L30.0833 90.25L30.0833 90.25ZM90.25 60.1667L60.1667 60.1667L60.1667 90.25L90.25 90.25L90.25 60.1667L90.25 60.1667ZM90.25 0L60.1667 0L60.1667 30.0833L90.25 30.0833L90.25 0L90.25 0ZM60.1667 30.0833L30.0833 30.0833L30.0833 60.1667L60.1667 60.1667L60.1667 30.0833L60.1667 30.0833Z" transform="translate(66.18331 54.15)" id="Shape" fill="#0288D1" fill-rule="evenodd" stroke="none" />
      </g>
    </g>
  </g>
</svg>