<?xml version="1.0" encoding="utf-8"?>
<svg width="456px" height="100px" viewbox="0 0 456 100" version="1.1" xmlns:xlink="http://www.w3.org/1999/xlink" xmlns="http://www.w3.org/2000/svg">
  <defs>
    <path d="M0 0L455.555 0L455.555 100L0 100L0 0Z" id="path_1" />
    <clipPath id="mask_1">
      <use xlink:href="#path_1" />
    </clipPath>
  </defs>
  <g id="elasticsearch">
    <path d="M0 0L455.555 0L455.555 100L0 100L0 0Z" id="Background" fill="none" fill-rule="evenodd" stroke="none" />
    <g clip-path="url(#mask_1)">
      <path d="M0 0L347.778 0L347.778 45.5556L0 45.5556L0 0Z" transform="translate(112.2222 21.666666)" id="Rectangle" fill="none" fill-rule="evenodd" stroke="none" />
      <g id="Group" transform="translate(106.88889 21.666666)">
        <path d="M14.3333 29.7778C9.88888 29.7778 6.33333 28.4444 3.77777 25.8889C1.22221 23.3333 0 19.6667 0 15.1111C0 10.4444 1.22223 6.66667 3.55555 4C5.88887 1.33333 9.11111 0 13.2222 0C17 0 20 1.11111 22.2222 3.44444C24.4444 5.77777 25.5555 8.88889 25.5555 13L25.5555 16.3333L6.33333 16.3333C6.44445 19.1111 7.22222 21.2222 8.55555 22.7778C9.88888 24.3333 12 25 14.5555 25C16.2222 25 17.8889 24.8889 19.3333 24.5556C20.7778 24.2222 22.3333 23.6667 24.1111 23L24.1111 28C22.6667 28.6667 21.1111 29.2222 19.5555 29.5556C18 29.8889 16.2222 29.7778 14.3333 29.7778L14.3333 29.7778ZM13.1111 4.66667C11.1111 4.66667 9.55554 5.33334 8.44443 6.55556C7.33332 7.77778 6.55555 9.55555 6.33333 12L19.4444 12C19.4444 9.66667 18.8889 7.77778 17.7778 6.55556C16.6667 5.33334 15.1111 4.66667 13.1111 4.66667L13.1111 4.66667Z" transform="translate(0 11.22223)" id="Shape" fill="#000000" fill-rule="evenodd" stroke="none" />
        <path d="M6.11111 40.5556L0 40.5556L0 0L6.11111 0L6.11111 40.5556L6.11111 40.5556Z" transform="translate(32.44442 0)" id="Shape" fill="#000000" fill-rule="evenodd" stroke="none" />
        <path d="M20.1111 29.1111L18.8889 25.1111L18.6667 25.1111C17.3333 26.8889 15.8889 28.1111 14.4444 28.6667C13 29.2222 11.2222 29.6667 9.00001 29.6667C6.22223 29.6667 4.00001 28.8889 2.33334 27.3333C0.666673 25.7778 0 23.6667 0 20.8889C0 17.8889 1.11111 15.6667 3.33333 14.2222C5.55556 12.7778 8.88889 11.8889 13.4445 11.7778L18.4445 11.6667L18.4445 10.1111C18.4445 8.22222 18 6.88888 17.1111 5.99999C16.2222 5.11111 14.8889 4.66666 13.1111 4.66666C11.6667 4.66666 10.2222 4.88888 8.88889 5.33333C7.55556 5.77777 6.22223 6.33333 5 6.88889L3 2.55555C4.55554 1.77778 6.22221 1.1111 8.11111 0.666665C10 0.222227 11.6667 0 13.3333 0C17 0 19.7778 0.777774 21.6667 2.44444C23.5556 4.11111 24.4444 6.55555 24.4444 10L24.4444 29.1111L20.1111 29.1111L20.1111 29.1111ZM11 24.8889C13.2222 24.8889 15 24.2222 16.3333 23C17.6667 21.7778 18.3333 20 18.3333 17.7778L18.3333 15.3334L14.6667 15.4445C11.7778 15.5556 9.66668 16 8.33335 16.8889C7.00002 17.7778 6.33335 19.1111 6.33335 20.8889C6.33335 22.2222 6.66668 23.2223 7.44446 23.8889C8.22223 24.5556 9.44446 24.8889 11 24.8889L11 24.8889Z" transform="translate(45.22216 11.444431)" id="Shape" fill="#000000" fill-rule="evenodd" stroke="none" />
        <path d="M21.3333 21.3333C21.3333 24.1111 20.3333 26.3333 18.2222 27.7778C16.1111 29.2222 13.2222 30 9.44448 30C5.55559 30 2.55559 29.4445 0.222253 28.2222L0.222253 22.8889C3.55559 24.4444 6.7778 25.2222 9.66668 25.2222C13.4444 25.2222 15.3334 24.1111 15.3334 21.7778C15.3334 21 15.1111 20.4444 14.6667 20C14.2222 19.5555 13.5556 19 12.5556 18.4444C11.5556 17.8889 10.2222 17.3333 8.55557 16.6667C5.22223 15.3333 3.00001 14.1111 1.77778 12.7778C0.555555 11.4444 0 9.77778 0 7.77778C0 5.33334 0.999993 3.44444 3 2C5 0.555564 7.66666 0 11.1111 0C14.4444 0 17.6667 0.666665 20.6667 2.11111L18.6667 6.66667C15.5556 5.33334 13 4.77778 10.7778 4.77778C7.55557 4.77778 5.88891 5.66667 5.88891 7.55556C5.88891 8.44445 6.33335 9.22223 7.11114 9.88889C7.88893 10.5556 9.7778 11.3333 12.6667 12.4445C15 13.3333 16.7778 14.2222 17.8889 15C19 15.7778 19.7778 16.6667 20.3334 17.6667C21.1111 18.7778 21.3333 19.8889 21.3333 21.3333L21.3333 21.3333Z" transform="translate(76.22218 10.999993)" id="Shape" fill="#000000" fill-rule="evenodd" stroke="none" />
        <path d="M14.1111 30.6667C15.5555 30.6667 17.1111 30.4444 18.5555 30L18.5555 34.5556C17.8889 34.8889 17 35.1111 15.8889 35.3333C14.7778 35.5555 13.6667 35.6667 12.5555 35.6667C6.77775 35.6667 3.88889 32.5556 3.88889 26.5556L3.88889 11L0 11L0 8.33333L4.22221 6.11111L6.33331 0L10.1111 0L10.1111 6.44445L18.3333 6.44445L18.3333 11.1111L10.1111 11.1111L10.1111 26.5556C10.1111 28 10.4444 29.1111 11.2222 29.7778C12 30.4444 13 30.6667 14.1111 30.6667L14.1111 30.6667Z" transform="translate(100.77773 5.444437)" id="Shape" fill="#000000" fill-rule="evenodd" stroke="none" />
        <path d="M0 3.44445C0 2.33334 0.33332 1.55557 0.888876 0.888892C1.44443 0.222219 2.33331 0 3.44442 0C4.55553 0 5.33332 0.333337 5.99996 0.888892C6.6666 1.44445 6.88884 2.33334 6.88884 3.44445C6.88884 4.44445 6.55552 5.33334 5.99996 5.88889C5.44441 6.44445 4.55553 6.77778 3.44442 6.77778C2.33331 6.77778 1.44443 6.44445 0.888876 5.88889C0.33332 5.33334 0 4.44445 0 3.44445L0 3.44445ZM6.55555 39.8889L0.444438 39.8889L0.444438 11.1111L6.55555 11.1111L6.55555 39.8889L6.55555 39.8889Z" transform="translate(124.77774 0.6666565)" id="Shape" fill="#000000" fill-rule="evenodd" stroke="none" />
        <path d="M13.3333 29.8889C9 29.8889 5.66667 28.6667 3.44445 26.1111C1.22223 23.5556 0 19.8889 0 15.1111C0 10.2222 1.22223 6.55556 3.55557 3.88889C5.88891 1.22222 9.33336 0 13.7778 0C16.7778 0 19.5556 0.555556 22 1.66667L20.1111 6.55556C17.5556 5.55556 15.4444 5 13.6667 5C8.66669 5 6.22223 8.33333 6.22223 14.8889C6.22223 18.1111 6.8889 20.5556 8.11113 22.2222C9.33336 23.8889 11.2222 24.6667 13.5556 24.6667C16.3333 24.6667 18.8889 24 21.3333 22.6667L21.3333 28C20.2222 28.6667 19.1111 29.1111 17.7778 29.3333C16.4444 29.5555 15.1111 29.8889 13.3333 29.8889L13.3333 29.8889Z" transform="translate(138.33328 11.111112)" id="Shape" fill="#000000" fill-rule="evenodd" stroke="none" />
        <path d="M21.3333 21.3333C21.3333 24.1111 20.3333 26.3333 18.2222 27.7778C16.1111 29.2222 13.2222 30 9.44444 30C5.55556 30 2.55554 29.4445 0.222236 28.2222L0.222236 22.8889C3.55557 24.4444 6.77778 25.2222 9.66668 25.2222C13.4445 25.2222 15.3334 24.1111 15.3334 21.7778C15.3334 21 15.1111 20.4444 14.6667 20C14.2222 19.5555 13.5556 19 12.5556 18.4444C11.5556 17.8889 10.2222 17.3333 8.55557 16.6667C5.22224 15.3333 3.00001 14.1111 1.77778 12.7778C0.555556 11.4444 0 9.77778 0 7.77778C0 5.33334 0.999993 3.44444 3.00001 2C5.00003 0.555564 7.66669 0 11.1111 0C14.4444 0 17.6667 0.666665 20.6667 2.11111L18.6667 6.66667C15.5556 5.33334 13 4.77778 10.7778 4.77778C7.55558 4.77778 5.88891 5.66667 5.88891 7.55556C5.88891 8.44445 6.33335 9.22223 7.11114 9.88889C7.88893 10.5556 9.7778 11.3333 12.6667 12.4445C15 13.3333 16.7778 14.2222 17.8889 15C19 15.7778 19.7778 16.6667 20.3334 17.6667C21.1111 18.7778 21.3333 19.8889 21.3333 21.3333L21.3333 21.3333Z" transform="translate(164.44441 10.999993)" id="Shape" fill="#000000" fill-rule="evenodd" stroke="none" />
        <path d="M14.3333 29.7778C9.88888 29.7778 6.33331 28.4444 3.77777 25.8889C1.22223 23.3333 0 19.6667 0 15.1111C0 10.4444 1.22223 6.66667 3.55557 4C5.88891 1.33333 9.11112 0 13.2222 0C17 0 20 1.11111 22.2223 3.44444C24.4445 5.77777 25.5556 8.88889 25.5556 13L25.5556 16.3333L6.33338 16.3333C6.4445 19.1111 7.22226 21.2222 8.5556 22.7778C9.88895 24.3333 12.0001 25 14.5556 25C16.2223 25 17.8889 24.8889 19.3334 24.5556C20.7778 24.2222 22.3334 23.6667 24.1111 23L24.1111 28C22.6667 28.6667 21.1111 29.2222 19.5556 29.5556C18 29.8889 16.3333 29.7778 14.3333 29.7778L14.3333 29.7778ZM13.2222 4.66667C11.2222 4.66667 9.66665 5.33334 8.55553 6.55556C7.44442 7.77778 6.66663 9.55555 6.44443 12L19.5555 12C19.5555 9.66667 19 7.77778 17.8889 6.55556C16.7777 5.33334 15.1111 4.66667 13.2222 4.66667L13.2222 4.66667Z" transform="translate(190.66661 11.22223)" id="Shape" fill="#000000" fill-rule="evenodd" stroke="none" />
        <path d="M20.1111 29.1111L18.8889 25.1111L18.6667 25.1111C17.3333 26.8889 15.8889 28.1111 14.4444 28.6667C13 29.2222 11.2222 29.6667 9.00001 29.6667C6.22223 29.6667 4.00001 28.8889 2.33334 27.3333C0.666673 25.7778 0 23.6667 0 20.8889C0 17.8889 1.11111 15.6667 3.33333 14.2222C5.55555 12.7778 8.88889 11.8889 13.4445 11.7778L18.4444 11.6667L18.4444 10.1111C18.4444 8.22222 18 6.88888 17.1111 5.99999C16.2222 5.11111 14.8889 4.66666 13.1111 4.66666C11.6667 4.66666 10.2222 4.88888 8.88889 5.33333C7.55558 5.77777 6.22223 6.33333 5 6.88889L3.00001 2.55555C4.55556 1.77778 6.22223 1.1111 8.11113 0.666665C10 0.222227 11.6667 0 13.3334 0C17 0 19.7778 0.777774 21.6667 2.44444C23.5556 4.11111 24.4445 6.55555 24.4445 10L24.4445 29.1111L20.1111 29.1111L20.1111 29.1111ZM11 24.8889C13.2222 24.8889 15 24.2222 16.3333 23C17.6667 21.7778 18.3333 20 18.3333 17.7778L18.3333 15.3334L14.6667 15.4445C11.7778 15.5556 9.66668 16 8.33333 16.8889C6.99999 17.7778 6.33335 19.1111 6.33335 20.8889C6.33335 22.2222 6.66667 23.2223 7.44446 23.8889C8.22225 24.5556 9.55556 24.8889 11 24.8889L11 24.8889Z" transform="translate(220.99991 11.444431)" id="Shape" fill="#000000" fill-rule="evenodd" stroke="none" />
        <path d="M14.6667 0C15.8889 0 16.8889 0.111109 17.6667 0.222219L17.1111 5.88888C16.2222 5.66667 15.3333 5.55555 14.4445 5.55555C12 5.55555 10 6.33332 8.44446 7.99999C6.88891 9.66665 6.11112 11.6667 6.11112 14.2222L6.11112 29.3333L0 29.3333L0 0.555556L4.77777 0.555556L5.55556 5.66667L5.88888 5.66667C6.88887 4 8.1111 2.55555 9.66665 1.55556C11.2222 0.555564 12.8889 0 14.6667 0L14.6667 0Z" transform="translate(253.99997 11.22223)" id="Shape" fill="#000000" fill-rule="evenodd" stroke="none" />
        <path d="M13.3333 29.8889C9.00001 29.8889 5.66668 28.6667 3.44445 26.1111C1.22223 23.5556 0 19.8889 0 15.1111C0 10.2222 1.22223 6.55556 3.55557 3.88889C5.88891 1.22222 9.33336 0 13.7778 0C16.7778 0 19.5556 0.555556 22 1.66667L20.1111 6.55556C17.5556 5.55556 15.4444 5 13.6667 5C8.66669 5 6.22223 8.33333 6.22223 14.8889C6.22223 18.1111 6.88891 20.5556 8.11114 22.2222C9.33336 23.8889 11.2222 24.6667 13.5556 24.6667C16.3334 24.6667 18.8889 24 21.3334 22.6667L21.3334 28C20.2222 28.6667 19.1111 29.1111 17.7778 29.3333C16.4444 29.5555 15.1111 29.8889 13.3333 29.8889L13.3333 29.8889Z" transform="translate(275.33328 11.111112)" id="Shape" fill="#000000" fill-rule="evenodd" stroke="none" />
        <path d="M25.2222 40.5556L19.1111 40.5556L19.1111 22.7778C19.1111 20.5556 18.6667 18.8889 17.7778 17.7778C16.8889 16.6667 15.4444 16.1111 13.5556 16.1111C11 16.1111 9.11112 16.8889 7.88889 18.4444C6.66666 20 6.11111 22.5556 6.11111 26.1111L6.11111 40.5556L0 40.5556L0 0L6.11111 0L6.11111 10.3333C6.11111 12 5.99999 13.7778 5.77779 15.6667L6.22223 15.6667C7.1111 14.3333 8.22221 13.2222 9.66668 12.4445C11.1111 11.6667 12.8889 11.3333 14.8889 11.3333C21.8889 11.3333 25.3333 14.8889 25.3333 21.8889L25.3333 40.5556L25.2222 40.5556Z" transform="translate(303.55545 0)" id="Shape" fill="#000000" fill-rule="evenodd" stroke="none" />
      </g>
      <g id="Elasticsearch_1_" transform="translate(10.88887 5)">
        <g id="Group" transform="translate(0 31.11111)">
          <path d="M23.2222 0L0 0C0.111109 0.555555 0.333337 1.11111 0.444446 1.55556C1.22222 4.22223 1.66667 7 1.88889 9.88889C2 11 2 12.2222 2 13.3333C2 14.4444 2 15.6667 1.88889 16.7778C1.66667 19.6667 1.22223 22.4445 0.444446 25.1111C0.333337 25.6667 0.111109 26.2222 0 26.6667L23.2222 26.6667C30.5556 26.6667 36.4444 20.6667 36.4444 13.3333C36.4444 5.99999 30.5555 0 23.2222 0L23.2222 0Z" transform="translate(37.88889 0)" id="Shape" fill="#00A9E5" fill-rule="evenodd" stroke="none" />
          <path d="M39.7778 16.7778C39.8889 15.6667 39.8889 14.4444 39.8889 13.3333C39.8889 12.2222 39.8889 11 39.7778 9.88889C39.5556 7 39.1111 4.22223 38.3333 1.55556C38.2222 1 38 0.444446 37.8889 0L2 0C0.666673 4.22223 0 8.66667 0 13.3333C0 18 0.666665 22.4444 2 26.6667L37.8889 26.6667C38 26.1111 38.2222 25.5555 38.3333 25.1111C39.1111 22.4444 39.5556 19.6667 39.7778 16.7778L39.7778 16.7778Z" id="Shape" fill="#353535" fill-rule="evenodd" stroke="none" />
        </g>
        <g id="Group" transform="translate(3.6666863 62.22222)">
          <path d="M45.2222 0L16.3333 0C15.4444 2 14.4444 3.88889 13.3333 5.66667C11.6667 8.44445 9.66666 10.8889 7.44444 13.2222C6.66666 14 5.88888 14.6667 5.11111 15.4445C3.55555 16.8889 1.77778 18.1111 0 19.3333C7 24 15.4444 26.6667 24.4444 26.6667C39.8889 26.6667 53.4444 18.7778 61.4444 6.8889C57.3333 2.66666 51.5555 0 45.2222 0L45.2222 0Z" transform="translate(16.22221 0)" id="Shape" fill="#00BFB3" fill-rule="evenodd" stroke="none" />
          <path d="M29.5555 5.66667C30.6667 3.88889 31.6667 2 32.5555 0L0 0C3.44444 7.88889 9.11111 14.6667 16.3333 19.3333C18.1111 18.1111 19.7778 16.8889 21.4444 15.4444C22.2222 14.7778 23 14 23.7778 13.2222C25.8889 11 27.8889 8.44445 29.5555 5.66667L29.5555 5.66667Z" id="Shape" fill="#019B8F" fill-rule="evenodd" stroke="none" />
        </g>
        <g id="Group" transform="translate(3.5555685 0)">
          <path d="M23.7778 6.11111C23 5.33334 22.2222 4.66666 21.4444 3.88889C19.8889 2.44444 18.1111 1.22222 16.3333 0C9.22222 4.66666 3.55555 11.4444 0 19.3333L32.5555 19.3333C31.6667 17.3333 30.6667 15.4444 29.5555 13.6667C28 10.8889 26 8.33333 23.7778 6.11111L23.7778 6.11111Z" transform="translate(0 7.33334)" id="Shape" fill="#F9B110" fill-rule="evenodd" stroke="none" />
          <path d="M24.4444 0C15.4444 0 7 2.66667 0 7.33333C1.77778 8.55555 3.44444 9.77777 5.11111 11.2222C5.88888 11.8889 6.66667 12.6667 7.44444 13.4444C9.66666 15.7778 11.6667 18.2222 13.3333 21C14.4444 22.7778 15.4444 24.6667 16.3333 26.6667L45.2222 26.6667C51.5555 26.6667 57.3333 24 61.4444 19.7778C53.4444 7.88889 39.8889 0 24.4444 0L24.4444 0Z" transform="translate(16.333326 0)" id="Shape" fill="#FED10A" fill-rule="evenodd" stroke="none" />
        </g>
      </g>
    </g>
  </g>
</svg>