<?xml version="1.0" encoding="utf-8"?>
<svg width="385px" height="100px" viewbox="0 0 385 100" version="1.1" xmlns:xlink="http://www.w3.org/1999/xlink" xmlns="http://www.w3.org/2000/svg">
  <defs>
    <path d="M0 0L464 0L464 100L0 100L0 0Z" id="path_1" />
    <path d="M0 0L463.547 0L463.547 100L0 100L0 0L0 0Z" id="path_2" />
    <rect width="385" height="100" id="slice_1" />
    <clipPath id="clip_1">
      <use xlink:href="#slice_1" clip-rule="evenodd" />
    </clipPath>
    <clipPath id="mask_1">
      <use xlink:href="#path_1" />
    </clipPath>
    <clipPath id="mask_2">
      <use xlink:href="#path_2" />
    </clipPath>
  </defs>
  <g id="Slice" clip-path="url(#clip_1)">
    <use xlink:href="#slice_1" stroke="none" fill="none" />
    <g id="elasticsearch" transform="translate(-4 3.8146973E-06)">
      <path d="M0 0L464 0L464 100L0 100L0 0Z" id="Background" fill="none" fill-rule="evenodd" stroke="none" />
      <g clip-path="url(#mask_1)">
        <path d="M0 0L463.547 0L463.547 100L0 100L0 0L0 0Z" id="Background" fill="none" fill-rule="evenodd" stroke="none" />
        <g id="Mask-group">
          <path d="M0 0L463.547 0L463.547 100L0 100L0 0L0 0Z" id="path_1" fill="none" fill-rule="evenodd" stroke="none" />
          <g clip-path="url(#mask_2)">
            <g id="Group" transform="translate(11.0799055 4.9999995)">
              <path d="M0 0L353.879 0L353.879 45.5556L0 45.5556L0 0L0 0Z" transform="translate(103.11112 16.666666)" id="Rectangle" fill="none" fill-rule="evenodd" stroke="none" />
              <g id="Group#1" transform="translate(0 31.11111)">
                <path d="M23.6296 0L0 0C0.11306 0.555553 0.339184 1.11111 0.452244 1.55556C1.24366 4.22223 1.69591 7 1.92203 9.88889C2.03509 11 2.03509 12.2222 2.03509 13.3333C2.03509 14.4444 2.03509 15.6667 1.92203 16.7778C1.69591 19.6667 1.24367 22.4445 0.452244 25.1111C0.339184 25.6667 0.11306 26.2222 0 26.6667L23.6296 26.6667C31.0917 26.6667 37.0838 20.6667 37.0838 13.3333C37.0838 5.99999 31.0916 0 23.6296 0L23.6296 0L23.6296 0Z" transform="translate(38.553616 0)" id="Shape#13" fill="#00A9E5" fill-rule="evenodd" stroke="none" />
                <path d="M40.4757 16.7778C40.5887 15.6667 40.5887 14.4444 40.5887 13.3333C40.5887 12.2222 40.5887 11 40.4757 9.88889C40.2496 7 39.7973 4.22223 39.0058 1.55556C38.8928 1 38.6667 0.444447 38.5536 0L2.03509 0C0.678369 4.22223 0 8.66667 0 13.3333C0 18 0.678361 22.4444 2.03509 26.6667L38.5536 26.6667C38.6667 26.1111 38.8928 25.5555 39.0058 25.1111C39.7973 22.4444 40.2496 19.6667 40.4757 16.7778L40.4757 16.7778L40.4757 16.7778Z" id="Shape#14" fill="#353535" fill-rule="evenodd" stroke="none" />
              </g>
              <g id="Group#2" transform="translate(3.7310145 62.22221)">
                <path d="M46.0156 0L16.6199 0C15.7154 2 14.6978 3.88889 13.5672 5.66667C11.8714 8.44445 9.83625 10.8889 7.57504 13.2222C6.78362 14 5.9922 14.6667 5.20078 15.4445C3.61793 16.8889 1.80897 18.1111 0 19.3333C7.12281 24 15.7154 26.6667 24.8732 26.6667C40.5887 26.6667 54.382 18.7778 62.5224 6.8889C58.3391 2.66666 52.46 0 46.0156 0L46.0156 0L46.0156 0Z" transform="translate(16.506813 0)" id="Shape#15" fill="#00BFB3" fill-rule="evenodd" stroke="none" />
                <path d="M30.074 5.66667C31.2047 3.8889 32.2223 2 33.1267 0L0 0C3.50487 7.8889 9.27096 14.6667 16.6198 19.3333C18.4288 18.1111 20.1248 16.8889 21.8206 15.4444C22.6121 14.7778 23.4035 14 24.195 13.2222C26.3431 11 28.3782 8.44445 30.074 5.66667L30.074 5.66667L30.074 5.66667Z" id="Shape#16" fill="#019B8F" fill-rule="evenodd" stroke="none" />
              </g>
              <g id="Group#3" transform="translate(3.617948 0)">
                <path d="M24.195 6.11111C23.4035 5.33334 22.6121 4.66666 21.8206 3.88889C20.2378 2.44444 18.4288 1.22222 16.6199 0C9.38402 4.66666 3.61793 11.4444 0 19.3333L33.1267 19.3333C32.2223 17.3333 31.2047 15.4444 30.074 13.6667C28.4912 10.8889 26.4561 8.33333 24.195 6.11111L24.195 6.11111L24.195 6.11111Z" transform="translate(0 7.3333406)" id="Shape#17" fill="#F9B110" fill-rule="evenodd" stroke="none" />
                <path d="M24.8733 0C15.7154 0 7.12281 2.66667 0 7.33333C1.80897 8.55555 3.50487 9.77777 5.20078 11.2222C5.99219 11.8889 6.78363 12.6667 7.57505 13.4444C9.83625 15.7778 11.8714 18.2222 13.5672 21C14.6978 22.7778 15.7154 24.6667 16.6198 26.6667L46.0156 26.6667C52.46 26.6667 58.3392 24 62.5224 19.7778C54.382 7.88889 40.5887 0 24.8733 0L24.8733 0L24.8733 0Z" transform="translate(16.61988 0)" id="Shape#18" fill="#FED10A" fill-rule="evenodd" stroke="none" />
              </g>
            </g>
          </g>
        </g>
      </g>
    </g>
    <g id="Elasticsearch" transform="translate(99.7939 21.875004)">
      <path d="M36.96 10.688L36.96 46.352L31.032 46.352L31.032 10.688L36.96 10.688ZM258.504 10.688L258.504 46.352L264.432 46.352L264.432 28.544Q265.632 27.344 266.976 26.648Q268.32 25.952 269.856 25.952Q271.944 25.952 272.988 27.188Q274.032 28.424 274.032 30.68L274.032 46.352L279.96 46.352L279.96 30.68Q279.96 28.616 279.42 26.9Q278.88 25.184 277.836 23.948Q276.792 22.712 275.232 22.028Q273.672 21.344 271.656 21.344Q269.328 21.344 267.6 22.184Q265.872 23.024 264.432 24.392L264.432 10.688L258.504 10.688ZM115.536 14.552Q115.536 15.32 115.224 15.992Q114.912 16.664 114.396 17.168Q113.88 17.672 113.184 17.972Q112.488 18.272 111.696 18.272Q110.928 18.272 110.244 17.972Q109.56 17.672 109.056 17.168Q108.552 16.664 108.252 15.992Q107.952 15.32 107.952 14.552Q107.952 13.76 108.252 13.064Q108.552 12.368 109.056 11.864Q109.56 11.36 110.244 11.06Q110.928 10.76 111.696 10.76Q112.488 10.76 113.184 11.06Q113.88 11.36 114.396 11.864Q114.912 12.368 115.224 13.064Q115.536 13.76 115.536 14.552ZM25.392 11.648L25.392 16.784L10.008 16.784L10.008 26.408L22.128 26.408L22.128 31.376L10.008 31.376L10.008 41.192L25.392 41.192L25.392 46.352L3.504 46.352L3.504 11.648L25.392 11.648ZM92.928 44.924Q94.656 46.736 97.848 46.736Q99.648 46.736 101.328 46.184Q103.008 45.632 104.304 44.552L102.528 41.672Q102.336 41.408 102.168 41.276Q102 41.144 101.736 41.144Q101.52 41.144 101.304 41.276Q101.088 41.408 100.812 41.552Q100.536 41.696 100.164 41.828Q99.792 41.96 99.24 41.96Q98.28 41.96 97.704 41.312Q97.128 40.664 97.128 39.512L97.128 26.168L103.608 26.168L103.608 21.944L97.128 21.944L97.128 14.192L94.056 14.192Q93.528 14.192 93.18 14.456Q92.832 14.72 92.736 15.2L91.488 21.92L87.528 22.568L87.528 24.92Q87.528 25.544 87.876 25.856Q88.224 26.168 88.704 26.168L91.2 26.168L91.2 39.92Q91.2 43.112 92.928 44.924ZM60.288 46.352L62.952 46.352L62.952 30.8Q62.952 28.712 62.34 26.96Q61.728 25.208 60.552 23.948Q59.376 22.688 57.684 21.98Q55.992 21.272 53.832 21.272Q47.832 21.272 43.584 25.16L44.664 27.056Q44.928 27.512 45.36 27.824Q45.792 28.136 46.392 28.136Q47.112 28.136 47.712 27.8Q48.312 27.464 49.02 27.044Q49.728 26.624 50.688 26.288Q51.648 25.952 53.088 25.952Q55.08 25.952 56.124 27.149Q57.168 28.346 57.168 30.8371L57.168 32.288Q52.968 32.288 50.136 33.0104Q47.304 33.7329 45.6 34.8284Q43.896 35.924 43.164 37.2845Q42.432 38.645 42.432 40.0419Q42.432 41.7031 42.96 42.9554Q43.488 44.2077 44.436 45.0506Q45.384 45.8934 46.704 46.3147Q48.024 46.736 49.584 46.736Q50.904 46.736 51.984 46.52Q53.064 46.304 54.024 45.872Q54.984 45.44 55.884 44.804Q56.784 44.168 57.72 43.328L58.248 45.08Q58.488 45.848 58.968 46.1Q59.448 46.352 60.288 46.352ZM210.168 46.352L207.504 46.352Q206.664 46.352 206.184 46.1Q205.704 45.848 205.464 45.08L204.936 43.328Q204 44.168 203.1 44.804Q202.2 45.44 201.24 45.872Q200.28 46.304 199.2 46.52Q198.12 46.736 196.8 46.736Q195.24 46.736 193.92 46.3147Q192.6 45.8934 191.652 45.0506Q190.704 44.2077 190.176 42.9554Q189.648 41.7031 189.648 40.0419Q189.648 38.645 190.38 37.2845Q191.112 35.924 192.816 34.8284Q194.52 33.7329 197.352 33.0104Q200.184 32.288 204.384 32.288L204.384 30.8371Q204.384 28.346 203.34 27.149Q202.296 25.952 200.304 25.952Q198.864 25.952 197.904 26.288Q196.944 26.624 196.236 27.044Q195.528 27.464 194.928 27.8Q194.328 28.136 193.608 28.136Q193.008 28.136 192.576 27.824Q192.144 27.512 191.88 27.056L190.8 25.16Q195.048 21.272 201.048 21.272Q203.208 21.272 204.9 21.98Q206.592 22.688 207.768 23.948Q208.944 25.208 209.556 26.96Q210.168 28.712 210.168 30.8L210.168 46.352ZM216 21.728L216 46.352L221.928 46.352L221.928 31.016Q222.84 29.048 224.16 28.028Q225.48 27.008 227.328 27.008Q228.36 27.008 228.984 27.176Q229.608 27.344 229.968 27.344Q230.376 27.344 230.616 27.164Q230.856 26.984 230.928 26.552L231.696 22.112Q230.496 21.272 228.672 21.272Q226.464 21.272 224.688 22.592Q222.912 23.912 221.592 26.192L221.232 23.216Q221.112 22.4 220.752 22.064Q220.392 21.728 219.48 21.728L216 21.728ZM83.4 26.528Q83.16 26.912 82.896 27.068Q82.632 27.224 82.224 27.224Q81.792 27.224 81.3 26.984Q80.808 26.744 80.16 26.444Q79.512 26.144 78.684 25.904Q77.856 25.664 76.728 25.664Q74.976 25.664 73.968 26.408Q72.96 27.152 72.96 28.352Q72.96 29.144 73.476 29.684Q73.992 30.224 74.844 30.632Q75.696 31.04 76.776 31.364Q77.856 31.688 78.984 32.072Q80.112 32.456 81.192 32.948Q82.272 33.44 83.124 34.196Q83.976 34.952 84.492 36.008Q85.008 37.064 85.008 38.552Q85.008 40.328 84.36 41.828Q83.712 43.328 82.464 44.42Q81.216 45.512 79.38 46.124Q77.544 46.736 75.168 46.736Q73.896 46.736 72.684 46.508Q71.472 46.28 70.356 45.872Q69.24 45.464 68.292 44.912Q67.344 44.36 66.624 43.712L67.992 41.456Q68.256 41.048 68.616 40.832Q68.976 40.616 69.528 40.616Q70.08 40.616 70.572 40.928Q71.064 41.24 71.712 41.6Q72.36 41.96 73.236 42.272Q74.112 42.584 75.456 42.584Q76.512 42.584 77.268 42.332Q78.024 42.08 78.516 41.672Q79.008 41.264 79.236 40.724Q79.464 40.184 79.464 39.608Q79.464 38.744 78.948 38.192Q78.432 37.64 77.58 37.232Q76.728 36.824 75.636 36.5Q74.544 36.176 73.404 35.792Q72.264 35.408 71.172 34.892Q70.08 34.376 69.228 33.584Q68.376 32.792 67.86 31.64Q67.344 30.488 67.344 28.856Q67.344 27.344 67.944 25.976Q68.544 24.608 69.708 23.588Q70.872 22.568 72.612 21.956Q74.352 21.344 76.632 21.344Q79.176 21.344 81.264 22.184Q83.352 23.024 84.744 24.392L83.4 26.528ZM138.132 27.464Q138.384 27.272 138.648 26.936L140.208 24.776Q138.552 23.12 136.476 22.232Q134.4 21.344 131.64 21.344Q128.736 21.344 126.504 22.304Q124.272 23.264 122.76 24.956Q121.248 26.648 120.468 28.964Q119.688 31.28 119.688 33.992Q119.688 37.016 120.564 39.38Q121.44 41.744 122.94 43.376Q124.44 45.008 126.456 45.86Q128.472 46.712 130.752 46.712Q132.048 46.712 133.368 46.52Q134.688 46.328 135.924 45.86Q137.16 45.392 138.312 44.612Q139.464 43.832 140.448 42.68L138.744 40.52Q138.384 39.968 137.664 39.968Q137.112 39.968 136.668 40.316Q136.224 40.664 135.624 41.084Q135.024 41.504 134.148 41.852Q133.272 42.2 131.856 42.2Q130.44 42.2 129.312 41.66Q128.184 41.12 127.392 40.076Q126.6 39.032 126.18 37.496Q125.76 35.96 125.76 33.992Q125.76 32.096 126.144 30.596Q126.528 29.096 127.308 28.04Q128.088 26.984 129.264 26.42Q130.44 25.856 132 25.856Q133.224 25.856 134.052 26.132Q134.88 26.408 135.48 26.756Q136.08 27.104 136.512 27.38Q136.944 27.656 137.4 27.656Q137.88 27.656 138.132 27.464ZM158.856 26.528Q158.616 26.912 158.352 27.068Q158.088 27.224 157.68 27.224Q157.248 27.224 156.756 26.984Q156.264 26.744 155.616 26.444Q154.968 26.144 154.14 25.904Q153.312 25.664 152.184 25.664Q150.432 25.664 149.424 26.408Q148.416 27.152 148.416 28.352Q148.416 29.144 148.932 29.684Q149.448 30.224 150.3 30.632Q151.152 31.04 152.232 31.364Q153.312 31.688 154.44 32.072Q155.568 32.456 156.648 32.948Q157.728 33.44 158.58 34.196Q159.432 34.952 159.948 36.008Q160.464 37.064 160.464 38.552Q160.464 40.328 159.816 41.828Q159.168 43.328 157.92 44.42Q156.672 45.512 154.836 46.124Q153 46.736 150.624 46.736Q149.352 46.736 148.14 46.508Q146.928 46.28 145.812 45.872Q144.696 45.464 143.748 44.912Q142.8 44.36 142.08 43.712L143.448 41.456Q143.712 41.048 144.072 40.832Q144.432 40.616 144.984 40.616Q145.536 40.616 146.028 40.928Q146.52 41.24 147.168 41.6Q147.816 41.96 148.692 42.272Q149.568 42.584 150.912 42.584Q151.968 42.584 152.724 42.332Q153.48 42.08 153.972 41.672Q154.464 41.264 154.692 40.724Q154.92 40.184 154.92 39.608Q154.92 38.744 154.404 38.192Q153.888 37.64 153.036 37.232Q152.184 36.824 151.092 36.5Q150 36.176 148.86 35.792Q147.72 35.408 146.628 34.892Q145.536 34.376 144.684 33.584Q143.832 32.792 143.316 31.64Q142.8 30.488 142.8 28.856Q142.8 27.344 143.4 25.976Q144 24.608 145.164 23.588Q146.328 22.568 148.068 21.956Q149.808 21.344 152.088 21.344Q154.632 21.344 156.72 22.184Q158.808 23.024 160.2 24.392L158.856 26.528ZM179.676 22.088Q177.72 21.344 175.392 21.344Q172.632 21.344 170.436 22.304Q168.24 23.264 166.716 24.908Q165.192 26.552 164.376 28.772Q163.56 30.992 163.56 33.512Q163.56 36.752 164.496 39.212Q165.432 41.672 167.064 43.34Q168.696 45.008 170.904 45.86Q173.112 46.712 175.68 46.712Q176.976 46.712 178.356 46.52Q179.736 46.328 181.068 45.86Q182.4 45.392 183.624 44.612Q184.848 43.832 185.832 42.68L184.104 40.52Q183.912 40.256 183.648 40.112Q183.384 39.968 183.024 39.968Q182.472 39.968 181.884 40.304Q181.296 40.64 180.516 41.048Q179.736 41.456 178.692 41.792Q177.648 42.128 176.208 42.128Q173.28 42.128 171.504 40.352Q169.728 38.576 169.464 34.784L184.68 34.784Q185.088 34.784 185.352 34.676Q185.616 34.568 185.772 34.316Q185.928 34.064 185.988 33.62Q186.048 33.176 186.048 32.504Q186.048 29.84 185.256 27.764Q184.464 25.688 183.048 24.26Q181.632 22.832 179.676 22.088ZM252.912 26.936Q252.648 27.272 252.396 27.464Q252.144 27.656 251.664 27.656Q251.208 27.656 250.776 27.38Q250.344 27.104 249.744 26.756Q249.144 26.408 248.316 26.132Q247.488 25.856 246.264 25.856Q244.704 25.856 243.528 26.42Q242.352 26.984 241.572 28.04Q240.792 29.096 240.408 30.596Q240.024 32.096 240.024 33.992Q240.024 35.96 240.444 37.496Q240.864 39.032 241.656 40.076Q242.448 41.12 243.576 41.66Q244.704 42.2 246.12 42.2Q247.536 42.2 248.412 41.852Q249.288 41.504 249.888 41.084Q250.488 40.664 250.932 40.316Q251.376 39.968 251.928 39.968Q252.648 39.968 253.008 40.52L254.712 42.68Q253.728 43.832 252.576 44.612Q251.424 45.392 250.188 45.86Q248.952 46.328 247.632 46.52Q246.312 46.712 245.016 46.712Q242.736 46.712 240.72 45.86Q238.704 45.008 237.204 43.376Q235.704 41.744 234.828 39.38Q233.952 37.016 233.952 33.992Q233.952 31.28 234.732 28.964Q235.512 26.648 237.024 24.956Q238.536 23.264 240.768 22.304Q243 21.344 245.904 21.344Q248.664 21.344 250.74 22.232Q252.816 23.12 254.472 24.776L252.912 26.936ZM114.648 21.728L114.648 46.352L108.72 46.352L108.72 21.728L114.648 21.728ZM171.456 27.056Q172.92 25.592 175.512 25.592Q176.832 25.592 177.816 26.036Q178.8 26.48 179.448 27.248Q180.096 28.016 180.408 29.036Q180.72 30.056 180.72 31.208L169.584 31.208Q169.992 28.52 171.456 27.056ZM53.112 42.4906Q52.344 42.656 51.432 42.656Q49.944 42.656 49.02 41.9791Q48.096 41.3022 48.096 39.731Q48.096 38.9334 48.54 38.2567Q48.984 37.58 50.04 37.0722Q51.096 36.5645 52.836 36.2382Q54.576 35.912 57.168 35.912L57.168 40.0336Q56.52 40.6951 55.884 41.1794Q55.248 41.6637 54.564 41.9945Q53.88 42.3252 53.112 42.4906ZM198.648 42.656Q199.56 42.656 200.328 42.4906Q201.096 42.3252 201.78 41.9945Q202.464 41.6637 203.1 41.1794Q203.736 40.6951 204.384 40.0336L204.384 35.912Q201.792 35.912 200.052 36.2382Q198.312 36.5645 197.256 37.0722Q196.2 37.58 195.756 38.2567Q195.312 38.9334 195.312 39.731Q195.312 41.3022 196.236 41.9791Q197.16 42.656 198.648 42.656Z" />
    </g>
  </g>
</svg>