<?xml version="1.0" encoding="utf-8"?>
<svg width="300px" height="100px" viewbox="0 0 300 100" version="1.1" xmlns:xlink="http://www.w3.org/1999/xlink" xmlns="http://www.w3.org/2000/svg">
  <defs>
    <path d="M0 0L300 0L300 100L0 100L0 0Z" id="path_1" />
    <path d="M0 0L352.941 0L352.941 176.471L0 176.471L0 0L0 0Z" id="path_2" />
    <clipPath id="mask_1">
      <use xlink:href="#path_1" />
    </clipPath>
    <clipPath id="mask_2">
      <use xlink:href="#path_2" />
    </clipPath>
  </defs>
  <g id="svg">
    <g id="Mask-group">
      <path d="M0 0L300 0L300 100L0 100L0 0Z" id="slice_1" fill="none" fill-rule="evenodd" stroke="none" />
      <g clip-path="url(#mask_1)">
        <g id="Slice" transform="translate(-29.411764 -41.176468)">
          <path d="M0 0L300 0L300 100L0 100L0 0Z" transform="translate(29.411764 41.176468)" id="slice_1" fill="none" fill-rule="evenodd" stroke="none" />
          <g id="firebase-ar21">
            <path d="M0 0L352.941 0L352.941 176.471L0 176.471L0 0L0 0Z" id="Background" fill="none" fill-rule="evenodd" stroke="none" />
            <g id="Mask-group">
              <path d="M0 0L352.941 0L352.941 176.471L0 176.471L0 0L0 0Z" id="path_1" fill="none" fill-rule="evenodd" stroke="none" />
              <g clip-path="url(#mask_2)">
                <g id="Group" transform="translate(35.062515 45.348953)">
                  <g id="Group">
                    <path d="M0 75.0803L0.563238 74.2915L27.2007 23.7479L27.257 23.2127L15.5149 1.15625C14.5306 -0.691314 11.7609 -0.224382 11.4383 1.84392L0 75.0803L0 75.0803Z" id="Shape" fill="#FFC24A" fill-rule="evenodd" stroke="none" />
                    <path d="M0 74.1335L0.425809 73.3029L26.7815 23.2889L15.0716 1.14273C14.0979 -0.685737 11.6261 -0.219599 11.3043 1.82721L0 74.1335L0 74.1335Z" transform="translate(0.33242562 0.34515366)" id="D" fill="#FFA712" fill-rule="evenodd" stroke="none" />
                    <g id="Group#1" transform="translate(0.33242562 0.34515366)">
                      <path d="M0 74.1335L0.425809 73.3029L26.7815 23.2889L15.0716 1.14273C14.0979 -0.685737 11.6261 -0.219599 11.3043 1.82721L0 74.1335L0 74.1335Z" id="D#1" fill="none" fill-rule="evenodd" stroke="none" />
                    </g>
                    <path d="M8.64488 26.8365L17.3879 17.8825L8.6425 1.187C7.81212 -0.39341 5.49415 -0.397922 4.67279 1.187L0 10.1012L0 10.8599L8.64488 26.8365L8.64488 26.8365Z" transform="translate(27.172329 13.0598345)" id="Shape#1" fill="#F4BD62" fill-rule="evenodd" stroke="none" />
                    <path d="M8.40427 26.127L16.9041 17.4219L8.40427 1.23653C7.59721 -0.302225 5.63635 -0.460876 4.83779 1.07735L0.140611 10.1242L0 10.5869L8.40427 26.127L8.40427 26.127Z" transform="translate(27.25696 13.396319)" id="C" fill="#FFA50E" fill-rule="evenodd" stroke="none" />
                    <g id="Group#2" transform="translate(27.25696 13.396319)">
                      <path d="M8.40427 26.127L16.9041 17.4219L8.40427 1.23653C7.59721 -0.302225 5.63635 -0.460876 4.83779 1.07735L0.140611 10.1242L0 10.5869L8.40427 26.127L8.40427 26.127Z" id="C#1" fill="none" fill-rule="evenodd" stroke="none" />
                    </g>
                    <path d="M27.197 0L0 51.9709L0.25522 51.7141L1.18272 51.3374L35.2682 17.3786L35.6997 16.2034L27.197 0L27.197 0Z" transform="translate(0 23.109278)" id="Shape#2" fill="#F6820C" fill-rule="evenodd" stroke="none" />
                    <path d="M36.9088 73.2318L67.7571 56.0273L58.9503 1.77246C58.6744 0.07505 56.5924 -0.59617 55.3774 0.62104L0 56.1059L30.6712 73.2306C32.6097 74.3126 34.9703 74.3132 36.9091 73.2321" transform="translate(0 18.974298)" id="Shape#3" fill="#FDE068" fill-rule="evenodd" stroke="none" />
                    <path d="M67.1359 55.6224L58.3938 1.78138C58.1206 0.096711 56.3879 -0.600238 55.1823 0.607684L0 55.7391L30.3341 72.6921C32.2576 73.7659 34.6003 73.7665 36.5247 72.6938L67.1359 55.6224L67.1359 55.6224Z" transform="translate(0.34489352 19.23545)" id="Shape#4" fill="#FCCA3F" fill-rule="evenodd" stroke="none" />
                    <path d="M36.9088 17.1622C34.9724 18.2436 32.6091 18.243 30.6709 17.1606L0.246732 0.282276L0 0.543078L30.6712 17.6678C32.6094 18.7503 34.97 18.7503 36.9091 17.6692L67.7574 0.46481L67.6818 0L36.9088 17.1622L36.9088 17.1622Z" transform="translate(0 74.5372)" id="Shape#5" fill="#EEAB37" fill-rule="evenodd" stroke="none" />
                  </g>
                  <path d="M5.25 41.3182L0 41.3182L0 0.459362L23.8235 0.459362L23.8235 5.47994L5.25 5.47994L5.25 18.8917L22.0294 18.8917L22.0294 23.8035L5.25 23.8035L5.25 41.3182L5.25 41.3182ZM33.0529 6.33582C32.3294 7.05935 31.4559 7.42406 30.4294 7.42406C29.4418 7.44115 28.4915 7.04694 27.8059 6.33582C27.0977 5.64823 26.7041 4.69926 26.7176 3.7123C26.7006 2.72466 27.0948 1.77436 27.8059 1.08877C28.4935 0.380623 29.4424 -0.0130036 30.4294 0.000532936C31.4171 -0.0165378 32.3674 0.377649 33.0529 1.08877C33.7612 1.77638 34.1547 2.72533 34.1412 3.7123C34.1582 4.69994 33.7641 5.65023 33.0529 6.33582L33.0529 6.33582L33.0529 6.33582ZM33.0529 41.3182L27.8029 41.3182L27.8029 13.3564L33.0529 13.3564L33.0529 41.3182L33.0529 41.3182ZM44.3853 41.3182L39.1324 41.3182L39.1324 13.3564L44.1529 13.3564L44.1529 17.9211L44.3794 17.9211C44.9088 16.4005 46.0059 15.1446 47.6618 14.1564C49.3177 13.1682 50.8971 12.6711 52.4853 12.6711C54.0735 12.6711 55.3588 12.9005 56.4265 13.3564L54.4265 18.2682C53.7412 17.9741 52.8088 17.8682 51.6324 17.8682C49.7294 17.8682 48.0441 18.6182 46.5824 20.1211C45.1206 21.6241 44.3853 23.5917 44.3853 26.027L44.3853 41.3212L44.3853 41.3182L44.3853 41.3182ZM70.2324 42.2006C66.0088 42.2006 62.5765 40.7947 59.9324 37.9771C57.2882 35.1594 55.9618 31.6065 55.9618 27.3064C55.9618 23.2358 57.2441 19.7358 59.7853 16.8064C62.3265 13.877 65.6676 12.4123 69.6294 12.4123C73.7471 12.4123 77.0941 13.7652 79.5882 16.4652C82.0824 19.1653 83.3235 22.7799 83.3235 27.3093L83.2647 28.2799L61.2059 28.2799C61.3588 31.0947 62.3 33.3212 64.0294 34.9565C65.65 36.5485 67.8371 37.4309 70.1088 37.4094C73.8735 37.4094 76.4235 35.8124 77.7559 32.6153L82.4618 34.5565C81.5794 36.7241 80.0441 38.5418 77.953 40.0065C75.8618 41.4712 73.2912 42.2035 70.2471 42.2035L70.2324 42.2006L70.2324 42.2006ZM77.7618 23.9652C77.6441 22.3682 76.9147 20.8476 75.5647 19.4005C74.2147 17.9535 72.2059 17.2329 69.5441 17.2329C67.6029 17.2329 65.9206 17.8417 64.4941 19.0564C63.0677 20.2711 62.0882 21.9094 61.5529 23.9682L77.7294 23.9682L77.7618 23.9652L77.7618 23.9652ZM102.359 42.2006C100.226 42.2006 98.3147 41.7447 96.6235 40.83C94.9324 39.9153 93.6647 38.7771 92.8 37.4065L92.603 37.4065L92.603 41.2888L87.5824 41.2888L87.5824 0.459362L92.8324 0.459362L92.8324 13.3564L92.603 17.2388L92.8324 17.2388C93.6706 15.8682 94.9353 14.727 96.6559 13.8152C98.3765 12.9035 100.262 12.4446 102.391 12.4446C106.009 12.4446 109.156 13.8711 111.75 16.7241C114.344 19.577 115.691 23.1152 115.691 27.3123C115.691 31.5094 114.379 35.0771 111.75 37.9006C109.121 40.7241 106.006 42.18 102.391 42.18L102.359 42.2006L102.359 42.2006ZM101.476 37.4065C103.912 37.4065 106.006 36.4829 107.753 34.6418C109.5 32.8006 110.376 30.3535 110.376 27.3093C110.376 24.2652 109.5 21.8211 107.753 19.977C106.006 18.1329 103.909 17.2123 101.476 17.2123C99.0771 17.1653 96.7756 18.1636 95.1706 19.9476C93.4412 21.8005 92.5735 24.227 92.5735 27.3093C92.5735 30.3918 93.4382 32.8447 95.1706 34.6712C96.9029 36.4976 99.0029 37.4123 101.476 37.4123L101.476 37.4065L101.476 37.4065ZM129.456 42.2006C126.515 42.2006 124.006 41.3182 122.009 39.6329C120.012 37.9476 119.009 35.6565 119.009 32.8682C119.009 29.8241 120.185 27.4388 122.547 25.7064C124.909 23.9741 127.818 23.1094 131.282 23.1094C134.365 23.1094 136.894 23.6799 138.871 24.8211L138.871 24.0211C138.871 21.9623 138.165 20.3211 136.759 19.0858C135.353 17.8505 133.621 17.2329 131.565 17.2329C130.041 17.2329 128.662 17.5946 127.426 18.3211C126.251 18.9729 125.35 20.0265 124.888 21.2888L120.094 19.2359C120.741 17.5594 122.015 16.0123 123.918 14.5888C125.821 13.1653 128.329 12.4476 131.447 12.4476C135.024 12.4476 137.991 13.4947 140.35 15.5858C142.709 17.677 143.888 20.627 143.888 24.43L143.888 41.3212L138.897 41.3212L138.897 37.4388L138.668 37.4388C136.574 40.6329 133.512 42.2329 129.479 42.2329L129.456 42.2006L129.456 42.2006ZM130.338 37.4065C132.506 37.4065 134.476 36.5976 136.244 34.98C138.012 33.3624 138.897 31.4506 138.897 29.2446C137.415 28.027 135.191 27.4211 132.221 27.4211C129.671 27.4211 127.75 27.9741 126.456 29.077C125.162 30.18 124.515 31.4741 124.515 32.9594C124.515 34.33 125.103 35.4123 126.285 36.2123C127.468 37.0124 128.815 37.4123 130.338 37.4123L130.338 37.4065L130.338 37.4065ZM159.162 42.2006C156.044 42.2006 153.465 41.4359 151.426 39.9182C149.441 38.4606 147.892 36.4874 146.947 34.2124L151.653 32.2712C153.135 35.8006 155.668 37.5212 159.241 37.5212C160.876 37.5212 162.218 37.1594 163.265 36.4329C164.312 35.7065 164.835 34.7565 164.835 33.58C164.835 31.7565 163.562 30.5212 161.012 29.8741L155.365 28.5035C153.576 28.0476 151.882 27.1799 150.285 25.9064C148.688 24.6329 147.897 22.9741 147.897 20.7741C147.897 18.3035 148.991 16.2946 151.179 14.7535C153.368 13.2123 155.965 12.4417 158.974 12.4417C161.444 12.4417 163.679 13.03 165.591 14.1241C167.503 15.2182 168.921 16.8535 169.759 18.9476L165.194 20.83C164.165 18.3594 162.035 17.1241 158.803 17.1241C157.244 17.1241 155.929 17.4182 154.862 18.0947C153.794 18.7711 153.265 19.6153 153.265 20.7182C153.265 22.3152 154.5 23.4005 156.971 23.9711L162.506 25.2829C165.129 25.8917 167.071 26.9388 168.329 28.4211C169.588 29.9035 170.212 31.58 170.212 33.4418C170.212 35.9535 169.182 38.0447 167.129 39.7182C165.076 41.3918 162.429 42.23 159.197 42.23L159.162 42.2006L159.162 42.2006ZM187.124 42.2006C182.9 42.2006 179.465 40.7947 176.824 37.9771C174.182 35.1594 172.853 31.6065 172.853 27.3064C172.853 23.2358 174.135 19.7358 176.676 16.8064C179.218 13.877 182.559 12.4123 186.521 12.4123C190.638 12.4123 193.985 13.7652 196.479 16.4652C198.974 19.1653 200.215 22.7799 200.215 27.3093L200.215 28.2799L178.156 28.2799C178.303 31.0947 179.25 33.3212 180.979 34.9565C182.599 36.5479 184.785 37.4303 187.056 37.4094C190.821 37.4094 193.371 35.8124 194.703 32.6153L199.409 34.5565C198.526 36.7241 196.991 38.5418 194.9 40.0065C192.809 41.4712 190.238 42.2035 187.194 42.2035L187.124 42.2006L187.124 42.2006ZM194.653 23.9652C194.535 22.3682 193.806 20.8476 192.456 19.4005C191.106 17.9535 189.097 17.2329 186.435 17.2329C184.585 17.2003 182.787 17.8505 181.385 19.0593C179.959 20.277 178.979 21.9123 178.444 23.9711L194.621 23.9711L194.653 23.9652L194.653 23.9652Z" transform="translate(85.86397 25.794624)" id="Shape#6" fill="#63666A" fill-rule="evenodd" stroke="none" />
                </g>
              </g>
            </g>
          </g>
        </g>
      </g>
    </g>
  </g>
</svg>