<?xml version="1.0" encoding="utf-8"?>
<svg width="269px" height="100px" viewbox="0 0 269 100" version="1.1" xmlns:xlink="http://www.w3.org/1999/xlink" xmlns="http://www.w3.org/2000/svg">
  <defs>
    <linearGradient x1="-107.45541" y1="-75.01669" x2="-107.43591" y2="-75.0456" id="gradient_1">
      <stop offset="0" stop-color="#1A237E" stop-opacity="0.4" />
      <stop offset="1" stop-color="#1A237E" stop-opacity="0" />
    </linearGradient>
    <radialGradient gradientUnits="objectBoundingBox" cx="-2731.336%" cy="-899.4521%" fx="-2731.336%" fy="-899.4521%" r="5.881048%" gradientTransform="translate(-27.313358,-8.994521),scale(1,0.80754703),scale(1,1.238316),translate(27.313358,8.994521)" id="gradient_2">
      <stop offset="0%" stop-color="#FFFFFF" stop-opacity="0.101960786" />
      <stop offset="100%" stop-color="#FFFFFF" stop-opacity="0" />
    </radialGradient>
    <path d="M0 0L268.421 0L268.421 100L0 100L0 0Z" id="path_1" />
    <path d="M0 0L263.158 0L263.158 131.579L0 131.579L0 0L0 0Z" id="path_2" />
    <path d="M71.4067 40.8026L47.6045 64.6134L71.4067 88.4242L44.2078 88.4242L34.0008 78.2172L20.3971 64.6134L44.2078 40.8026L71.4067 40.8026L71.4067 40.8026L71.4067 40.8026ZM44.2078 0L0 44.2079L13.6037 57.8116L71.4067 1.88225e-06L44.2078 1.88225e-06L44.2078 0L44.2078 0Z" id="path_3" />
    <clipPath id="mask_1">
      <use xlink:href="#path_1" />
    </clipPath>
    <clipPath id="mask_2">
      <use xlink:href="#path_2" />
    </clipPath>
    <clipPath id="mask_3">
      <use xlink:href="#path_3" />
    </clipPath>
  </defs>
  <g id="svg">
    <g id="Mask-group">
      <path d="M0 0L268.421 0L268.421 100L0 100L0 0Z" id="slice_1" fill="none" fill-rule="evenodd" stroke="none" />
      <g clip-path="url(#mask_1)">
        <g id="Slice" transform="translate(0 -13.157894)">
          <path d="M0 0L268.421 0L268.421 100L0 100L0 0Z" transform="translate(-0 13.157894)" id="slice_1" fill="none" fill-rule="evenodd" stroke="none" />
          <g id="flutter-seeklogo.com">
            <path d="M0 0L263.158 0L263.158 131.579L0 131.579L0 0L0 0Z" id="Background" fill="none" fill-rule="evenodd" stroke="none" />
            <g id="Mask-group">
              <path d="M0 0L263.158 0L263.158 131.579L0 131.579L0 0L0 0Z" id="path_1" fill="none" fill-rule="evenodd" stroke="none" />
              <g clip-path="url(#mask_2)">
                <g id="Group" transform="translate(9.037459 19.661911)">
                  <g id="Group">
                    <g id="Group#1">
                      <g id="Mask-group">
                        <path d="M71.4067 40.8026L47.6045 64.6134L71.4067 88.4242L44.2078 88.4242L34.0008 78.2172L20.3971 64.6134L44.2078 40.8026L71.4067 40.8026L71.4067 40.8026L71.4067 40.8026ZM44.2078 0L0 44.2079L13.6037 57.8116L71.4067 1.88225e-06L44.2078 1.88225e-06L44.2078 0L44.2078 0Z" id="SVGID_1_" fill="none" fill-rule="evenodd" stroke="none" />
                        <g id="Mask-group">
                          <path d="M71.4067 40.8026L47.6045 64.6134L71.4067 88.4242L44.2078 88.4242L34.0008 78.2172L20.3971 64.6134L44.2078 40.8026L71.4067 40.8026L71.4067 40.8026L71.4067 40.8026ZM44.2078 0L0 44.2079L13.6037 57.8116L71.4067 1.88225e-06L44.2078 1.88225e-06L44.2078 0L44.2078 0Z" id="path_2" fill="none" fill-rule="evenodd" stroke="none" />
                          <g clip-path="url(#mask_3)">
                            <g id="Group" transform="translate(20.40557 40.80269)">
                              <g id="Group#2">
                                <path d="M13.5953 37.4145L51.0012 0L23.8022 0L0 23.8108L13.5953 37.4145L13.5953 37.4145L13.5953 37.4145Z" id="Shape" fill="#39CEFD" fill-rule="evenodd" stroke="none" />
                              </g>
                            </g>
                          </g>
                        </g>
                      </g>
                    </g>
                    <g id="Group#3">
                      <g id="Mask-group#1">
                        <path d="M71.4067 40.8026L47.6045 64.6134L71.4067 88.4242L44.2078 88.4242L34.0008 78.2172L20.3971 64.6134L44.2078 40.8026L71.4067 40.8026L71.4067 40.8026L71.4067 40.8026ZM44.2078 0L0 44.2079L13.6037 57.8116L71.4067 1.88225e-06L44.2078 1.88225e-06L44.2078 0L44.2078 0Z" id="SVGID_3_" fill="none" fill-rule="evenodd" stroke="none" />
                        <g id="Mask-group">
                          <path d="M71.4067 40.8026L47.6045 64.6134L71.4067 88.4242L44.2078 88.4242L34.0008 78.2172L20.3971 64.6134L44.2078 40.8026L71.4067 40.8026L71.4067 40.8026L71.4067 40.8026ZM44.2078 0L0 44.2079L13.6037 57.8116L71.4067 1.88225e-06L44.2078 1.88225e-06L44.2078 0L44.2078 0Z" id="path_2" fill="none" fill-rule="evenodd" stroke="none" />
                          <g clip-path="url(#mask_3)">
                            <g id="Group">
                              <path d="M0 44.2079L44.2078 0L71.4067 0L13.6037 57.8116L0 44.2079L0 44.2079L0 44.2079Z" id="Shape#1" fill="#39CEFD" fill-rule="evenodd" stroke="none" />
                            </g>
                          </g>
                        </g>
                      </g>
                    </g>
                    <g id="Group#4">
                      <g id="Mask-group#2">
                        <path d="M71.4067 40.8026L47.6045 64.6134L71.4067 88.4242L44.2078 88.4242L34.0008 78.2172L20.3971 64.6134L44.2078 40.8026L71.4067 40.8026L71.4067 40.8026L71.4067 40.8026ZM44.2078 0L0 44.2079L13.6037 57.8116L71.4067 1.88225e-06L44.2078 1.88225e-06L44.2078 0L44.2078 0Z" id="SVGID_5_" fill="none" fill-rule="evenodd" stroke="none" />
                        <g id="Mask-group">
                          <path d="M71.4067 40.8026L47.6045 64.6134L71.4067 88.4242L44.2078 88.4242L34.0008 78.2172L20.3971 64.6134L44.2078 40.8026L71.4067 40.8026L71.4067 40.8026L71.4067 40.8026ZM44.2078 0L0 44.2079L13.6037 57.8116L71.4067 1.88225e-06L44.2078 1.88225e-06L44.2078 0L44.2078 0Z" id="path_2" fill="none" fill-rule="evenodd" stroke="none" />
                          <g clip-path="url(#mask_3)">
                            <g id="Group" transform="translate(34.000767 64.61347)">
                              <path d="M10.207 23.8022L37.4059 23.8022L13.6037 0L0 13.6037L10.207 23.8022L10.207 23.8022L10.207 23.8022Z" id="Shape#2" fill="#03569B" fill-rule="evenodd" stroke="none" />
                            </g>
                          </g>
                        </g>
                      </g>
                    </g>
                    <g id="Group#5">
                      <g id="Mask-group#3">
                        <path d="M71.4067 40.8026L47.6045 64.6134L71.4067 88.4242L44.2078 88.4242L34.0008 78.2172L20.3971 64.6134L44.2078 40.8026L71.4067 40.8026L71.4067 40.8026L71.4067 40.8026ZM44.2078 0L0 44.2079L13.6037 57.8116L71.4067 1.88225e-06L44.2078 1.88225e-06L44.2078 0L44.2078 0Z" id="SVGID_7_" fill="none" fill-rule="evenodd" stroke="none" />
                        <g id="Mask-group">
                          <path d="M71.4067 40.8026L47.6045 64.6134L71.4067 88.4242L44.2078 88.4242L34.0008 78.2172L20.3971 64.6134L44.2078 40.8026L71.4067 40.8026L71.4067 40.8026L71.4067 40.8026ZM44.2078 0L0 44.2079L13.6037 57.8116L71.4067 1.88225e-06L44.2078 1.88225e-06L44.2078 0L44.2078 0Z" id="path_2" fill="none" fill-rule="evenodd" stroke="none" />
                          <g clip-path="url(#mask_3)">
                            <g id="Group" transform="translate(34.000767 64.61347)">
                              <path d="M13.6037 0L0 13.6037L20.1757 6.61458L13.6037 0L13.6037 0L13.6037 0Z" id="Shape#3" fill="url(#gradient_1)" fill-rule="evenodd" stroke="none" />
                            </g>
                          </g>
                        </g>
                      </g>
                    </g>
                    <g id="Group#6">
                      <g id="Mask-group#4">
                        <path d="M71.4067 40.8026L47.6045 64.6134L71.4067 88.4242L44.2078 88.4242L34.0008 78.2172L20.3971 64.6134L44.2078 40.8026L71.4067 40.8026L71.4067 40.8026L71.4067 40.8026ZM44.2078 0L0 44.2079L13.6037 57.8116L71.4067 1.88225e-06L44.2078 1.88225e-06L44.2078 0L44.2078 0Z" id="SVGID_10_" fill="none" fill-rule="evenodd" stroke="none" />
                        <g id="Mask-group">
                          <path d="M71.4067 40.8026L47.6045 64.6134L71.4067 88.4242L44.2078 88.4242L34.0008 78.2172L20.3971 64.6134L44.2078 40.8026L71.4067 40.8026L71.4067 40.8026L71.4067 40.8026ZM44.2078 0L0 44.2079L13.6037 57.8116L71.4067 1.88225e-06L44.2078 1.88225e-06L44.2078 0L44.2078 0Z" id="path_2" fill="none" fill-rule="evenodd" stroke="none" />
                          <g clip-path="url(#mask_3)">
                            <g id="Group" transform="translate(20.40557 51.00123)">
                              <g id="Group#7">
                                <path d="M0 13.6037L13.6037 0L27.2074 13.6037L13.6037 27.2159L0 13.6037L0 13.6037L0 13.6037Z" id="Shape#4" fill="#16B9FD" fill-rule="evenodd" stroke="none" />
                              </g>
                            </g>
                          </g>
                        </g>
                      </g>
                    </g>
                    <path d="M71.4067 40.8026L47.6045 64.6134L71.4067 88.4242L44.2078 88.4242L34.0008 78.2172L20.3971 64.6134L44.2078 40.8026L71.4067 40.8026L71.4067 40.8026L71.4067 40.8026ZM44.2078 0L0 44.2079L13.6037 57.8116L71.4067 1.88225e-06L44.2078 1.88225e-06L44.2078 0L44.2078 0Z" id="Shape#5" fill="url(#gradient_2)" fill-rule="evenodd" stroke="none" />
                  </g>
                  <g id="Group#8" transform="translate(86.598724 23.701288)">
                    <path d="M0 0L23.8383 0L23.8383 4.54063L4.99468 4.54063L4.99468 18.6166L22.022 18.6166L22.022 23.1572L4.99468 23.1572L4.99468 40.8657L0.227035 40.8657L0.227035 0L0 0L0 0Z" id="Shape#6" fill="#808080" fill-rule="evenodd" stroke="none" />
                    <path d="M0 0L4.76765 0L4.76765 41.0926L0 41.0926L0 0L0 0L0 0Z" transform="translate(29.514051 0)" id="Shape#7" fill="#808080" fill-rule="evenodd" stroke="none" />
                    <path d="M10.8975 30.1951C7.265 30.1951 4.76766 29.06 2.72438 27.0167C0.908129 24.9734 0 22.022 0 18.3895L0 0L4.76766 0L4.76766 17.7084C4.76766 20.4328 5.44875 22.4761 6.58391 23.8383C7.94609 25.2005 9.53532 25.8816 11.8056 25.8816C13.3949 25.8816 14.9841 25.4275 16.1192 24.5193C17.4814 23.6113 18.3895 22.4761 19.0707 21.1139C19.7517 19.7517 20.2058 18.1625 20.2058 16.5733L20.2058 1.25483e-05L24.9734 1.25483e-05L24.9734 29.2871L20.4328 29.2871L20.4328 24.9734L20.2058 24.9734C19.2976 26.3357 18.1625 27.6978 16.3463 28.6059C14.757 29.7411 12.9408 30.1951 10.8975 30.1951L10.8975 30.1951L10.8975 30.1951Z" transform="translate(41.319675 11.805618)" id="Shape#8" fill="#808080" fill-rule="evenodd" stroke="none" />
                    <path d="M13.6218 37.9142C12.4867 37.9142 11.3516 37.6872 10.2164 37.2332C9.30828 36.7791 8.40017 36.325 7.71908 35.644C7.03796 34.9628 6.35689 34.0547 5.90282 33.1466C5.44873 32.2384 5.22172 31.1033 5.22172 29.7411L5.22172 12.4867L0 12.4867L0 8.17312L5.22172 8.17312L5.22172 0L9.98937 0L9.98937 8.17312L17.0274 8.17312L17.0274 12.4867L9.98937 12.4867L9.98937 28.3789C9.98937 29.9682 10.2164 31.1033 10.8975 32.0115C11.5786 32.9195 12.7137 33.3736 14.0759 33.3736C15.211 33.3736 16.3462 33.1466 17.2543 32.4654L17.2543 37.2332C16.5733 37.4601 16.1192 37.6872 15.4382 37.9142C15.4382 37.9142 14.53 37.9142 13.6218 37.9142L13.6218 37.9142L13.6218 37.9142Z" transform="translate(71.741844 3.632508)" id="Shape#9" fill="#808080" fill-rule="evenodd" stroke="none" />
                    <path d="M13.1678 37.9142C12.0327 37.9142 10.8975 37.6872 9.76237 37.2332C8.85424 36.7791 7.94612 36.325 7.26501 35.644C6.58393 34.9628 5.90282 34.0547 5.44875 33.1466C4.99466 32.2384 4.76765 31.1033 4.76765 29.7411L4.76765 12.4867L0 12.4867L0 8.17312L5.22174 8.17312L5.22174 0L9.98939 0L9.98939 8.17312L17.0274 8.17312L17.0274 12.4867L9.98939 12.4867L9.98939 28.3789C9.98939 29.9682 10.2164 31.1033 10.8975 32.0115C11.5786 32.9195 12.7138 33.3736 14.0759 33.3736C15.211 33.3736 16.3463 33.1466 17.2543 32.4654L17.2543 37.2332C16.5733 37.4601 16.1192 37.6872 15.4382 37.9142C14.9841 37.9142 14.0759 37.9142 13.1678 37.9142L13.1678 37.9142L13.1678 37.9142Z" transform="translate(92.85575 3.632508)" id="Shape#10" fill="#808080" fill-rule="evenodd" stroke="none" />
                    <path d="M14.53 30.8763C11.8056 30.8763 9.30828 30.1951 7.038 28.833C4.76767 27.4708 3.17847 25.6545 1.81626 23.3842C0.681104 21.1139 0 18.3895 0 15.4382C0 12.7137 0.681104 9.98937 1.81626 7.71905C2.95141 5.44875 4.76767 3.40546 6.81094 2.04328C8.85423 0.681092 11.3516 0 14.303 0C17.2543 0 19.7517 0.681092 21.795 2.04328C23.8383 3.40546 25.4275 4.99468 26.5626 7.265C27.6979 9.5353 28.3789 12.0326 28.3789 14.9841C28.3789 15.6651 28.3789 16.1192 28.1518 16.5733L4.76767 16.5733C4.9947 18.8436 5.44877 20.6599 6.35689 22.2491C7.26501 23.8383 8.62722 24.9734 9.98939 25.6545C11.5786 26.3357 12.9408 26.7897 14.53 26.7897C18.3895 26.7897 21.1139 24.9734 23.1572 21.568L27.2438 23.6113C25.8816 25.8816 24.2924 27.9249 22.0221 29.287C20.2058 30.1951 17.7084 30.8763 14.53 30.8763L14.53 30.8763L14.53 30.8763L14.53 30.8763ZM22.9301 12.2597C22.9301 11.1245 22.4761 9.76234 21.795 8.6272C21.1139 7.49204 20.2058 6.35688 18.8436 5.44875C17.4815 4.54063 15.8922 4.08657 13.849 4.08657C11.5786 4.08657 9.53532 4.76766 7.94611 6.35688C6.35691 7.71907 5.44877 9.76234 4.76767 12.2597L22.9301 12.2597L22.9301 12.2597L22.9301 12.2597Z" transform="translate(113.06152 11.124521)" id="Shape#11" fill="#808080" fill-rule="evenodd" stroke="none" />
                    <path d="M0 0.681094L4.54063 0.681094L4.54063 5.44875L4.76765 5.44875C5.44873 3.85953 6.35685 2.49734 8.17311 1.58922C9.76233 0.454062 11.5786 0 13.3949 0C14.757 0 15.8922 0.22703 16.8003 0.681092L16.8003 5.9028C15.6651 5.22171 14.303 4.99468 12.7137 4.99468C11.3516 4.99468 9.98936 5.44875 8.85421 6.12984C7.71906 7.03796 6.81092 7.94608 5.9028 9.30828C5.2217 10.6705 4.76765 12.0326 4.76765 13.6218L4.76765 29.9682L0 29.9682L0 0.681094L0 0.681094L0 0.681094Z" transform="translate(146.88919 11.124526)" id="Shape#12" fill="#808080" fill-rule="evenodd" stroke="none" />
                  </g>
                </g>
              </g>
            </g>
          </g>
        </g>
      </g>
    </g>
  </g>
</svg>