<?xml version="1.0" encoding="utf-8"?>
<svg width="414px" height="100px" viewbox="0 0 414 100" version="1.1" xmlns:xlink="http://www.w3.org/1999/xlink" xmlns="http://www.w3.org/2000/svg">
  <defs>
    <path d="M0 0L414 0L414 100L0 100L0 0Z" id="path_1" />
    <path d="M0 0L274.047 0L274.047 48L0 48L0 0L0 0Z" id="path_2" />
    <path d="M0 0L273.656 0L273.656 47.8326L0 47.8326L0 0L0 0Z" id="path_3" />
    <path d="M0 0L361.116 0L361.116 55.8139L0 55.8139L0 0L0 0L0 0Z" id="path_4" />
    <path d="M0 0L118 0L118 100L0 100L0 0L0 0Z" id="path_5" />
    <path d="M0 0L117.1 0L117.1 99.5L0 99.5L0 0L0 0Z" id="path_6" />
    <path d="M0 0L647 0L647 100L0 100L0 0L0 0L0 0Z" id="path_7" />
    <clipPath id="mask_1">
      <use xlink:href="#path_1" />
    </clipPath>
    <clipPath id="mask_2">
      <use xlink:href="#path_2" />
    </clipPath>
    <clipPath id="mask_3">
      <use xlink:href="#path_3" />
    </clipPath>
    <clipPath id="mask_4">
      <use xlink:href="#path_4" />
    </clipPath>
    <clipPath id="mask_5">
      <use xlink:href="#path_5" />
    </clipPath>
    <clipPath id="mask_6">
      <use xlink:href="#path_6" />
    </clipPath>
    <clipPath id="mask_7">
      <use xlink:href="#path_7" />
    </clipPath>
  </defs>
  <g id="gcp">
    <g id="Mask-group">
      <path d="M0 0L414 0L414 100L0 100L0 0Z" id="artboard_1" fill="none" fill-rule="evenodd" stroke="none" />
      <g clip-path="url(#mask_1)">
        <g id="Artboard">
          <g id="svg" transform="translate(128.95361 26)">
            <path d="M0 0L274.047 0L274.047 48L0 48L0 0L0 0Z" id="Background" fill="none" fill-rule="evenodd" stroke="none" />
            <g id="Mask-group">
              <path d="M0 0L274.047 0L274.047 48L0 48L0 0L0 0Z" id="path_1" fill="none" fill-rule="evenodd" stroke="none" />
              <g clip-path="url(#mask_2)">
                <g id="Group">
                  <g id="Mask-group">
                    <path d="M0 0L273.656 0L273.656 47.8326L0 47.8326L0 0L0 0Z" id="slice_1" fill="none" fill-rule="evenodd" stroke="none" />
                    <g id="Mask-group">
                      <path d="M0 0L273.656 0L273.656 47.8326L0 47.8326L0 0L0 0Z" id="path_2" fill="none" fill-rule="evenodd" stroke="none" />
                      <g clip-path="url(#mask_3)">
                        <g id="Group" transform="translate(-74.28836 -7.9813995)">
                          <g id="Slice">
                            <path d="M0 0L273.656 0L273.656 47.8326L0 47.8326L0 0L0 0Z" transform="translate(74.28836 7.9813995)" id="slice_1#1" fill="none" fill-rule="evenodd" stroke="none" />
                            <path d="M0 0L361.116 0L361.116 55.8139L0 55.8139L0 0L0 0L0 0Z" id="Background#1" fill="none" fill-rule="evenodd" stroke="none" />
                            <g id="Mask-group#1">
                              <path d="M0 0L361.116 0L361.116 55.8139L0 55.8139L0 0L0 0L0 0Z" id="path_1#1" fill="none" fill-rule="evenodd" stroke="none" />
                              <g id="Mask-group">
                                <path d="M0 0L361.116 0L361.116 55.8139L0 55.8139L0 0L0 0L0 0Z" id="path_3" fill="none" fill-rule="evenodd" stroke="none" />
                                <g clip-path="url(#mask_4)">
                                  <g id="Group">
                                    <g id="Group">
                                      <path d="M0 0L360.798 0L360.798 55.8139L0 55.8139L0 0L0 0L0 0L0 0Z" id="Background#2" fill="none" fill-rule="evenodd" stroke="none" />
                                      <g id="Mask-group#2" transform="translate(74.27109 7.9718475)">
                                        <path d="M18.6792 36.8985C13.7417 36.9614 8.99152 35.011 5.52296 31.4966C1.94299 28.1292 -0.0600891 23.4143 0.00137329 18.4999C-0.0576477 13.586 1.94501 8.87207 5.52293 5.50326C8.97465 1.95218 13.727 -0.0351582 18.6791 0.00156784C23.3959 -0.0612984 27.941 1.76965 31.2971 5.08462L27.7489 8.69257C25.319 6.34431 22.0579 5.05421 18.6792 5.10455C15.1354 5.06103 11.7361 6.50751 9.31033 9.09125C6.79073 11.5909 5.40106 15.011 5.46317 18.5597C5.43365 22.0672 6.82086 25.438 9.31044 27.9086C14.4434 33.0239 22.7164 33.121 27.9682 28.1278C29.5317 26.4155 30.491 24.2379 30.6991 21.9285L18.7389 21.9285L18.7389 16.8255L35.6625 16.8255C35.8288 17.8532 35.8956 18.8946 35.8619 19.9351C36.0746 24.2872 34.4972 28.5367 31.4964 31.6959C28.1573 35.1725 23.4967 37.0642 18.6792 36.8986L18.6792 36.8985L18.6792 36.8985L18.6792 36.8985L18.6792 36.8985ZM58.0281 33.5098C53.309 38.0333 45.8632 38.0333 41.1443 33.5098C38.8587 31.2938 37.6076 28.2204 37.6958 25.0381C37.6101 21.8562 38.8608 18.7838 41.1443 16.5664C45.8673 12.0531 53.3049 12.0531 58.0281 16.5664C60.3115 18.7838 61.5623 21.8562 61.4763 25.0381C61.5595 28.2234 60.3009 31.2972 58.008 33.5098L58.0281 33.5098L58.0281 33.5098L58.0281 33.5098L58.0281 33.5098ZM44.8719 30.1809C46.0929 31.485 47.7996 32.225 49.5861 32.225C51.3726 32.225 53.0793 31.485 54.3004 30.1809C55.6312 28.8056 56.3498 26.951 56.294 25.0381C56.3531 23.1187 55.6342 21.2568 54.3004 19.8753C53.0635 18.585 51.3536 17.8555 49.5662 17.8555C47.7788 17.8555 46.0688 18.585 44.8319 19.8753C43.4982 21.2568 42.7793 23.1187 42.8386 25.0381C42.7877 26.9539 43.5139 28.8089 44.8519 30.1809L44.8719 30.1809L44.8719 30.1809L44.8719 30.1809L44.8719 30.1809ZM83.9816 33.5099C79.2625 38.0333 71.817 38.0333 67.0979 33.5099C64.8123 31.2938 63.561 28.2204 63.6491 25.0381C63.5637 21.8562 64.814 18.7838 67.0979 16.5664C71.817 12.0429 79.2625 12.0429 83.9816 16.5664C86.265 18.7838 87.5157 21.8562 87.4298 25.0381C87.518 28.2204 86.2672 31.2938 83.9816 33.5099L83.9816 33.5099L83.9816 33.5099L83.9816 33.5099L83.9816 33.5099ZM70.8251 30.1809C72.0463 31.485 73.7531 32.225 75.5397 32.225C77.3263 32.225 79.0326 31.485 80.2538 30.1809C81.5844 28.8056 82.3033 26.951 82.2475 25.0381C82.3066 23.1187 81.5877 21.2568 80.2538 19.8753C79.017 18.585 77.3068 17.8555 75.5196 17.8555C73.7325 17.8555 72.0223 18.585 70.7855 19.8753C69.4515 21.2568 68.7327 23.1187 68.7924 25.0381C68.741 26.9539 69.4672 28.8089 70.8056 30.1809L70.8251 30.1809L70.8251 30.1809L70.8251 30.1809L70.8251 30.1809ZM101.044 47.5431C98.6556 47.6191 96.3126 46.8733 94.4065 45.4301C92.7148 44.1581 91.382 42.4684 90.5397 40.5265L95.0847 38.6328C95.5792 39.7933 96.3528 40.8136 97.3368 41.6029C98.3905 42.452 99.7122 42.8973 101.065 42.8587C102.8 42.9643 104.495 42.3094 105.709 41.0647C106.91 39.6161 107.503 37.7585 107.364 35.8819L107.364 34.1677L107.184 34.1677C105.644 35.9969 103.332 36.9939 100.945 36.8587C97.9189 36.8678 95.0277 35.6101 92.9715 33.3902C90.7412 31.1892 89.5094 28.171 89.563 25.0381C89.5072 21.8871 90.7379 18.8495 92.9715 16.6261C95.0227 14.3969 97.9155 13.1313 100.945 13.1378C102.213 13.1356 103.466 13.4147 104.613 13.955C105.605 14.3884 106.49 15.0349 107.204 15.8488L107.383 15.8488L107.383 13.955L112.327 13.955L112.327 35.1843C112.59 38.5784 111.444 41.9309 109.158 44.4534C106.981 46.5358 104.055 47.65 101.044 47.5431L101.044 47.5431L101.044 47.5431L101.044 47.5431L101.044 47.5431ZM101.403 32.2341C103.127 32.272 104.777 31.5415 105.909 30.2408C107.138 28.8314 107.787 27.0073 107.723 25.1378C107.796 23.2367 107.148 21.3781 105.909 19.9351C104.779 18.632 103.127 17.9011 101.403 17.9418C99.6346 17.9055 97.9351 18.6316 96.739 19.9351C95.4207 21.3263 94.704 23.1816 94.7459 25.0979C94.7046 26.9964 95.4218 28.8329 96.739 30.2009C97.9295 31.517 99.629 32.2577 101.403 32.2341L101.403 32.2341L101.403 32.2341L101.403 32.2341L101.403 32.2341ZM121.118 1.33711L121.118 36.1809L115.915 36.1809L115.915 1.33711L121.118 1.33711L121.118 1.33711L121.118 1.33711L121.118 1.33711ZM135.39 36.8985C132.241 36.9795 129.199 35.7443 126.998 33.4899C124.765 31.2528 123.548 28.1978 123.63 25.0381C123.51 21.8713 124.683 18.7919 126.879 16.5065C128.949 14.3238 131.844 13.1152 134.852 13.1776C136.22 13.1632 137.576 13.4277 138.839 13.955C139.976 14.4139 141.012 15.0912 141.889 15.9484C142.642 16.6751 143.31 17.4842 143.882 18.3604C144.344 19.1001 144.738 19.8808 145.058 20.6926L145.596 22.0481L129.649 28.6062C130.636 30.8745 132.919 32.3008 135.39 32.1943C137.78 32.2007 139.997 30.952 141.231 28.9052L145.217 31.5962C144.2 33.0518 142.898 34.286 141.39 35.2242C139.597 36.3571 137.511 36.9392 135.39 36.8986L135.39 36.8985L135.39 36.8985L135.39 36.8985L135.39 36.8985ZM128.732 24.6793L139.337 20.274C139.01 19.4972 138.426 18.8567 137.682 18.46C136.85 17.9899 135.908 17.7492 134.951 17.7623C133.33 17.8044 131.789 18.4849 130.666 19.6561C129.305 20.9585 128.596 22.8004 128.732 24.6793L128.732 24.6793L128.732 24.6793L128.732 24.6793L128.732 24.6793Z" id="Shape#4" fill="#5F6368" fill-rule="evenodd" stroke="none" />
                                        <path d="M16.7088 33.6152C12.2379 33.6924 7.92877 31.9435 4.77634 28.7723C1.6239 25.601 -0.0993652 21.2816 0.00442505 16.8113C-0.0993347 12.3409 1.62396 8.02147 4.7764 4.85023C7.92889 1.67899 12.238 -0.0699196 16.7088 0.00727654C21.2457 -0.134554 25.5989 1.80347 28.5294 5.26973L25.6589 8.06043C23.505 5.35117 20.187 3.83292 16.7287 3.97405C13.4121 3.89933 10.2084 5.18077 7.85828 7.52221C5.41364 9.98048 4.1059 13.3474 4.25031 16.8113C4.1059 20.2751 5.41364 23.6421 7.85822 26.1003C10.2084 28.4417 13.4121 29.7232 16.7287 29.6485C20.5878 29.6917 24.2564 27.9748 26.6955 24.984L29.5659 27.8544C28.063 29.6516 26.1762 31.0889 24.0444 32.0604C21.7464 33.1213 19.2395 33.6527 16.7088 33.6152L16.7088 33.6152L16.7088 33.6152L16.7088 33.6152L16.7088 33.6152Z" transform="translate(160.04352 2.934494)" id="Shape#5" fill="#5F6368" fill-rule="evenodd" stroke="none" />
                                        <path d="M4 32.1927L0 32.1927L0 0L4 0L4 32.1927L4 32.1927L4 32.1927L4 32.1927Z" transform="translate(193.19739 4.197586)" id="Shape#6" fill="#5F6368" fill-rule="evenodd" stroke="none" />
                                        <path d="M3.19452 3.35213C7.69501 -1.11738 14.9589 -1.11738 19.4593 3.35213C21.5947 5.60668 22.7426 8.61985 22.6485 11.7237C22.7426 14.8276 21.5947 17.8408 19.4593 20.0953C14.9589 24.5648 7.69501 24.5648 3.19452 20.0953C1.05917 17.8408 -0.0886841 14.8276 0.00534058 11.7237C-0.0886841 8.61985 1.05917 5.60668 3.19452 3.35213L3.19452 3.35213L3.19452 3.35213L3.19452 3.35213L3.19452 3.35213ZM6.2641 17.5041C7.57797 18.8926 9.40533 19.6793 11.3169 19.6793C13.2285 19.6793 15.056 18.8926 16.3698 17.5041C17.8266 15.941 18.595 13.8584 18.5026 11.7237C18.595 9.589 17.8266 7.50653 16.3698 5.94335C15.056 4.55481 13.2285 3.76816 11.3169 3.76816C9.40533 3.76816 7.57797 4.55481 6.2641 5.94335C4.80734 7.50647 4.03894 9.589 4.13129 11.7237C4.04971 13.8545 4.82501 15.9291 6.28403 17.4842L6.2641 17.5041L6.2641 17.5041L6.2641 17.5041L6.2641 17.5041Z" transform="translate(201.42462 13.10437)" id="Shape#7" fill="#5F6368" fill-rule="evenodd" stroke="none" />
                                        <path d="M19.5106 22.0067L15.5239 22.0067L15.5239 18.9568L15.4043 18.9568C14.6947 20.1152 13.6904 21.0644 12.494 21.7077C11.2524 22.4272 9.84259 22.8055 8.40759 22.804C6.04727 22.9654 3.74243 22.0405 2.14844 20.2923C0.638397 18.3824 -0.1203 15.9858 0.0155334 13.5548L0.0155334 0L4.14178 0L4.14178 12.7974C4.14178 16.9036 5.95575 18.9568 9.58368 18.9568C11.2192 19.0078 12.7785 18.2653 13.7697 16.9635C14.8392 15.608 15.4094 13.9257 15.3844 12.1993L15.3844 0L19.5106 0L19.5106 22.0067L19.5106 22.0067L19.5106 22.0067L19.5106 22.0067Z" transform="translate(227.9859 13.825485)" id="Shape#8" fill="#5F6368" fill-rule="evenodd" stroke="none" />
                                        <path d="M10.4695 32.9103C7.63678 32.9197 4.94177 31.6888 3.09412 29.5415C1.0275 27.259 -0.0791931 24.2673 0.00442505 21.1894C-0.0792236 18.1113 1.0275 15.1197 3.09412 12.8372C4.94183 10.6899 7.63684 9.45901 10.4695 9.46844C12.0378 9.44366 13.587 9.81382 14.9745 10.5449C16.1938 11.1584 17.2264 12.0877 17.9646 13.2359L18.1439 13.2359L17.9646 10.186L17.9646 0L22.0909 0L22.0909 32.1927L18.1041 32.1927L18.1041 29.1429L17.9247 29.1429C17.1866 30.291 16.154 31.2203 14.9347 31.8339C13.5589 32.5584 12.0243 32.9284 10.4695 32.9103L10.4695 32.9103L10.4695 32.9103L10.4695 32.9103L10.4695 32.9103ZM11.1473 28.1429C13.0339 28.1703 14.8416 27.3863 16.1107 25.99C17.5124 24.394 18.2287 22.3099 18.1041 20.1894C18.2287 18.0689 17.5124 15.9847 16.1107 14.3887C14.8339 12.9854 13.0246 12.1855 11.1273 12.1855C9.2301 12.1855 7.42072 12.9854 6.14392 14.3887C4.73764 15.9741 4.02042 18.0542 4.15057 20.1695C4.02042 22.2847 4.73767 24.3647 6.14392 25.9502C7.41504 27.3717 9.24054 28.1717 11.1473 28.1429L11.1473 28.1429L11.1473 28.1429L11.1473 28.1429L11.1473 28.1429Z" transform="translate(251.54254 4.081299)" id="Shape#9" fill="#5F6368" fill-rule="evenodd" stroke="none" />
                                      </g>
                                    </g>
                                  </g>
                                </g>
                              </g>
                            </g>
                          </g>
                        </g>
                      </g>
                    </g>
                  </g>
                </g>
              </g>
            </g>
          </g>
          <g id="svg-2">
            <path d="M0 0L118 0L118 100L0 100L0 0L0 0Z" id="Background#3" fill="none" fill-rule="evenodd" stroke="none" />
            <g id="Mask-group">
              <path d="M0 0L118 0L118 100L0 100L0 0L0 0Z" id="path_4" fill="none" fill-rule="evenodd" stroke="none" />
              <g clip-path="url(#mask_5)">
                <g id="Group">
                  <g id="Mask-group#3">
                    <path d="M0 0L117.1 0L117.1 99.5L0 99.5L0 0L0 0Z" id="slice_1#2" fill="none" fill-rule="evenodd" stroke="none" />
                    <g id="Mask-group">
                      <path d="M0 0L117.1 0L117.1 99.5L0 99.5L0 0L0 0Z" id="path_5" fill="none" fill-rule="evenodd" stroke="none" />
                      <g clip-path="url(#mask_6)">
                        <g id="Group" transform="translate(-3.7000122 -0.5)">
                          <g id="Slice-2">
                            <path d="M0 0L117.1 0L117.1 99.5L0 99.5L0 0L0 0Z" transform="translate(3.7000122 0.5)" id="slice_1#3" fill="none" fill-rule="evenodd" stroke="none" />
                            <path d="M0 0L647 0L647 100L0 100L0 0L0 0L0 0Z" id="Background#4" fill="none" fill-rule="evenodd" stroke="none" />
                            <g id="Mask-group#4">
                              <path d="M0 0L647 0L647 100L0 100L0 0L0 0L0 0Z" id="path_1#2" fill="none" fill-rule="evenodd" stroke="none" />
                              <g id="Mask-group">
                                <path d="M0 0L647 0L647 100L0 100L0 0L0 0L0 0Z" id="path_6" fill="none" fill-rule="evenodd" stroke="none" />
                                <g clip-path="url(#mask_7)">
                                  <g id="Group">
                                    <g id="Group#1">
                                      <path d="M0 0L646.429 0L646.429 100L0 100L0 0L0 0L0 0L0 0Z" id="Background#5" fill="none" fill-rule="evenodd" stroke="none" />
                                      <g id="Mask-group#5" transform="translate(3.7312632 0.51380825)">
                                        <path d="M60.1786 25.9505L63.75 25.9505L73.9286 15.7719L74.4286 11.4505C62.574 0.987208 46.1569 -2.6131 31.0116 1.92904C15.8663 6.47117 4.14002 18.5118 0 33.7719C1.13394 33.3071 2.39005 33.2318 3.57143 33.5576L23.9286 30.2005C23.9286 30.2005 24.9643 28.4862 25.5 28.5933C34.5554 18.6482 49.7948 17.4892 60.25 25.9505L60.1786 25.9505L60.1786 25.9505L60.1786 25.9505L60.1786 25.9505Z" transform="translate(14.125884 0)" id="Shape" fill="#EA4335" fill-rule="evenodd" stroke="none" />
                                        <path d="M46.75 22.2857C44.4104 13.6701 39.6068 5.9248 32.9286 0L18.6429 14.2857C24.6752 19.2147 28.1114 26.6399 27.9643 34.4286L27.9643 36.9643C34.9862 36.9643 40.6786 42.6567 40.6786 49.6786C40.6786 56.7005 34.9862 62.3929 27.9643 62.3929L2.53571 62.3929L0 64.9643L0 80.2143L2.53571 82.75L27.9643 82.75C42.5441 82.8635 55.478 73.4156 59.804 59.4919C64.13 45.5682 58.8272 30.4543 46.75 22.2857L46.75 22.2857L46.75 22.2857L46.75 22.2857L46.75 22.2857Z" transform="translate(55.804443 11.486207)" id="Shape#1" fill="#4285F4" fill-rule="evenodd" stroke="none" />
                                        <path d="M19.9643 21.5L45.3929 21.5L45.3929 1.14286L19.9643 1.14286C18.1526 1.14245 16.3622 0.752701 14.7143 0L11.1429 1.10714L0.892857 11.2857L0 14.8571C5.74797 19.1975 12.7617 21.5313 19.9643 21.5L19.9643 21.5L19.9643 21.5L19.9643 21.5L19.9643 21.5Z" transform="translate(12.91162 72.59334)" id="Shape#2" fill="#34A853" fill-rule="evenodd" stroke="none" />
                                        <path d="M32.8759 0.000207901C18.7512 0.0845795 6.23918 9.13036 1.73137 22.5167C-2.77643 35.903 1.71511 50.6747 12.9116 59.2859L27.6616 44.5359C22.5082 42.2076 19.5119 36.7554 20.3091 31.1569C21.1063 25.5583 25.5054 21.1592 31.104 20.362C36.7025 19.5648 42.1547 22.561 44.483 27.7145L59.233 12.9645C52.9573 4.76011 43.2053 -0.0366173 32.8759 0.000207901L32.8759 0.000207901L32.8759 0.000207901L32.8759 0.000207901L32.8759 0.000207901Z" transform="translate(0 28.057404)" id="Shape#3" fill="#FBBC05" fill-rule="evenodd" stroke="none" />
                                      </g>
                                    </g>
                                  </g>
                                </g>
                              </g>
                            </g>
                          </g>
                        </g>
                      </g>
                    </g>
                  </g>
                </g>
              </g>
            </g>
          </g>
        </g>
      </g>
    </g>
  </g>
</svg>