<?xml version="1.0" encoding="utf-8"?>
<svg width="647px" height="100px" viewbox="0 0 647 100" version="1.1" xmlns:xlink="http://www.w3.org/1999/xlink" xmlns="http://www.w3.org/2000/svg">
  <defs>
    <path d="M0 0L646.429 0L646.429 100L0 100L0 0Z" id="path_1" />
    <clipPath id="mask_1">
      <use xlink:href="#path_1" />
    </clipPath>
  </defs>
  <g id="cloud-logo">
    <path d="M0 0L646.429 0L646.429 100L0 100L0 0Z" id="Background" fill="none" fill-rule="evenodd" stroke="none" />
    <g clip-path="url(#mask_1)">
      <path d="M60.1786 25.9505L63.75 25.9505L73.9286 15.7719L74.4286 11.4505C62.574 0.987203 46.1569 -2.6131 31.0116 1.92904C15.8663 6.47117 4.14002 18.5118 0 33.7719C1.13394 33.3071 2.39005 33.2318 3.57143 33.5576L23.9286 30.2005C23.9286 30.2005 24.9643 28.4862 25.5 28.5933C34.5554 18.6482 49.7948 17.4892 60.25 25.9505L60.1786 25.9505Z" transform="translate(17.857155 0.5138197)" id="Shape" fill="#EA4335" fill-rule="evenodd" stroke="none" />
      <path d="M46.75 22.2857C44.4104 13.6701 39.6068 5.9248 32.9286 0L18.6429 14.2857C24.6752 19.2147 28.1114 26.6399 27.9643 34.4286L27.9643 36.9643C34.9862 36.9643 40.6786 42.6567 40.6786 49.6786C40.6786 56.7005 34.9862 62.3929 27.9643 62.3929L2.53571 62.3929L0 64.9643L0 80.2143L2.53571 82.75L27.9643 82.75C42.5441 82.8635 55.478 73.4156 59.804 59.4919C64.13 45.5682 58.8272 30.4543 46.75 22.2857L46.75 22.2857Z" transform="translate(59.535713 12.000012)" id="Shape" fill="#4285F4" fill-rule="evenodd" stroke="none" />
      <path d="M19.9643 21.5L45.3929 21.5L45.3929 1.14286L19.9643 1.14286C18.1526 1.14245 16.3622 0.752701 14.7143 0L11.1429 1.10714L0.892857 11.2857L0 14.8571C5.74797 19.1975 12.7617 21.5313 19.9643 21.5L19.9643 21.5Z" transform="translate(16.642876 73.10715)" id="Shape" fill="#34A853" fill-rule="evenodd" stroke="none" />
      <path d="M32.8759 0.000211171C18.7512 0.0845841 6.23918 9.13036 1.73137 22.5167C-2.77643 35.903 1.71511 50.6747 12.9116 59.2859L27.6616 44.5359C22.5082 42.2076 19.5119 36.7554 20.3091 31.1569C21.1063 25.5583 25.5054 21.1592 31.104 20.362C36.7025 19.5648 42.1547 22.561 44.483 27.7145L59.233 12.9645C52.9573 4.76011 43.2053 -0.0366143 32.8759 0.000211171L32.8759 0.000211171Z" transform="translate(3.7312622 28.571217)" id="Shape" fill="#FBBC05" fill-rule="evenodd" stroke="none" />
      <path d="M33.4668 66.1099C24.6205 66.2226 16.1098 62.7281 9.89533 56.4314C3.4812 50.3981 -0.107656 41.9507 0.00246593 33.1457C-0.103283 24.3416 3.48482 15.8958 9.89526 9.86001C16.0796 3.49765 24.5942 -0.0629927 33.4667 0.00280738C41.9177 -0.109825 50.061 3.17063 56.0739 9.10995L49.7168 15.5742C45.3632 11.3669 39.5204 9.05546 33.4668 9.14566C27.1175 9.06768 21.0272 11.6593 16.681 16.2885C12.1667 20.7671 9.67691 26.8948 9.78817 33.2528C9.7353 39.537 12.2207 45.5764 16.6812 50.003C25.8778 59.1678 40.7002 59.3419 50.1096 50.3957C52.911 47.3278 54.6297 43.4263 55.0025 39.2885L33.5739 39.2885L33.5739 30.1457L63.8953 30.1457C64.1933 31.987 64.3129 33.8528 64.2525 35.7171C64.6336 43.5145 61.8074 51.1282 56.4311 56.7885C50.4484 63.0174 42.0982 66.4068 33.4668 66.11L33.4668 66.1099ZM103.967 60.0385C95.5119 68.143 82.1716 68.143 73.7168 60.0385C69.6217 56.068 67.3803 50.5616 67.5382 44.8599C67.3847 39.1591 69.6255 33.6544 73.7168 29.6814C82.1789 21.5951 95.5046 21.5951 103.967 29.6814C108.058 33.6544 110.299 39.1591 110.145 44.8599C110.294 50.567 108.039 56.0742 103.931 60.0385L103.967 60.0385ZM80.3954 54.0742C82.5831 56.4106 85.641 57.7364 88.8418 57.7364C92.0426 57.7364 95.1004 56.4106 97.2882 54.0742C99.6725 51.61 100.96 48.2873 100.86 44.8599C100.966 41.421 99.678 38.0851 97.2882 35.6099C95.0721 33.2982 92.0085 31.9911 88.8061 31.9911C85.6037 31.9911 82.54 33.2982 80.3239 35.6099C77.9342 38.0851 76.6462 41.421 76.7525 44.8599C76.6613 48.2924 77.9624 51.6159 80.3596 54.0742L80.3954 54.0742ZM150.467 60.0385C142.012 68.1431 128.672 68.1431 120.217 60.0385C116.122 56.068 113.88 50.5616 114.038 44.86C113.885 39.1591 116.125 33.6544 120.217 29.6814C128.672 21.5768 142.012 21.5768 150.467 29.6814C154.558 33.6544 156.799 39.1591 156.645 44.86C156.803 50.5616 154.562 56.068 150.467 60.0385L150.467 60.0385ZM126.895 54.0742C129.083 56.4106 132.141 57.7364 135.342 57.7364C138.543 57.7364 141.6 56.4106 143.788 54.0742C146.172 51.61 147.46 48.2873 147.36 44.8599C147.466 41.421 146.178 38.0851 143.788 35.6099C141.572 33.2982 138.508 31.9911 135.306 31.9911C132.104 31.9911 129.04 33.2982 126.824 35.6099C124.434 38.0851 123.146 41.421 123.253 44.8599C123.161 48.2924 124.462 51.6159 126.86 54.0742L126.895 54.0742ZM181.038 85.1814C176.758 85.3175 172.56 83.9813 169.145 81.3957C166.114 79.1167 163.726 76.0892 162.217 72.61L170.36 69.2171C171.246 71.2964 172.632 73.1244 174.395 74.5385C176.283 76.0599 178.651 76.8577 181.074 76.7885C184.183 76.9777 187.221 75.8043 189.395 73.5742C191.547 70.9788 192.609 67.6506 192.36 64.2885L192.36 61.2171L192.038 61.2171C189.279 64.4944 185.137 66.2808 180.86 66.0385C175.438 66.0549 170.258 63.8014 166.574 59.8242C162.578 55.8806 160.371 50.4731 160.467 44.86C160.367 39.2144 162.572 33.7721 166.574 29.7885C170.249 25.7945 175.432 23.5269 180.86 23.5385C183.132 23.5346 185.376 24.0347 187.431 25.0028C189.209 25.7792 190.794 26.9376 192.074 28.3957L192.395 28.3957L192.395 25.0028L201.253 25.0028L201.253 63.0385C201.724 69.1196 199.67 75.1263 195.574 79.6457C191.674 83.3766 186.432 85.373 181.038 85.1814L181.038 85.1814ZM181.681 57.7528C184.769 57.8207 187.726 56.5119 189.753 54.1814C191.956 51.6562 193.118 48.388 193.003 45.0385C193.135 41.6325 191.974 38.3025 189.753 35.7171C187.729 33.3824 184.77 32.0728 181.681 32.1457C178.512 32.0806 175.467 33.3816 173.324 35.7171C170.962 38.2096 169.678 41.5337 169.753 44.9671C169.679 48.3685 170.964 51.6589 173.324 54.1099C175.457 56.468 178.502 57.795 181.681 57.7528L181.681 57.7528ZM217.003 2.39566L217.003 64.8242L207.681 64.8242L207.681 2.39566L217.003 2.39566ZM242.574 66.1099C236.931 66.255 231.482 64.0419 227.538 60.0028C223.538 55.9946 221.356 50.5211 221.503 44.86C221.289 39.186 223.39 33.6688 227.324 29.5742C231.034 25.6635 236.22 23.498 241.61 23.6099C244.061 23.5841 246.491 24.058 248.753 25.0028C250.79 25.825 252.646 27.0384 254.217 28.5742C255.566 29.8763 256.764 31.3258 257.788 32.8957C258.617 34.2211 259.322 35.6198 259.895 37.0742L260.86 39.5028L232.288 51.2528C234.057 55.3169 238.146 57.8723 242.574 57.6814C246.855 57.693 250.828 55.4556 253.038 51.7885L260.181 56.6099C258.358 59.2179 256.025 61.4291 253.324 63.11C250.111 65.1398 246.374 66.1828 242.574 66.11L242.574 66.1099ZM230.645 44.2171L249.645 36.3242C249.06 34.9325 248.013 33.7849 246.681 33.0742C245.19 32.2319 243.501 31.8006 241.788 31.8242C238.882 31.8995 236.122 33.1188 234.11 35.2171C231.671 37.5507 230.401 40.8507 230.645 44.2171L230.645 44.2171Z" transform="translate(133.06902 14.2829075)" id="Shape" fill="#5F6368" fill-rule="evenodd" stroke="none" />
      <path d="M29.9365 60.2273C21.9262 60.3656 14.2057 57.2321 8.55762 51.5503C2.9095 45.8685 -0.17801 38.1295 0.00792912 30.1202C-0.177983 22.1107 2.90958 14.3718 8.5577 8.68999C14.2059 3.00819 21.9263 -0.12527 29.9366 0.0130364C38.0651 -0.241074 45.8646 3.23121 51.1151 9.4416L45.9722 14.4416C42.113 9.58751 36.1684 6.86732 29.9722 7.12017C24.0299 6.9863 18.2901 9.28222 14.0794 13.4773C9.69944 17.8817 7.35637 23.9141 7.61512 30.1202C7.35637 36.3262 9.69941 42.3587 14.0793 46.763C18.2901 50.9581 24.0299 53.2541 29.9722 53.1202C36.8864 53.1977 43.4593 50.1215 47.8294 44.763L52.9722 49.9059C50.2795 53.1258 46.899 55.7009 43.0794 57.4416C38.9623 59.3424 34.4708 60.2944 29.9365 60.2273L29.9365 60.2273Z" transform="translate(419.81357 20.165539)" id="Shape" fill="#5F6368" fill-rule="evenodd" stroke="none" />
      <path d="M7.39291 57.6786L0 57.6786L0 0L7.39291 0L7.39291 57.6786Z" transform="translate(479.2143 21.428574)" id="Shape" fill="#5F6368" fill-rule="evenodd" stroke="none" />
      <path d="M5.72389 6.00626C13.7877 -2.00209 26.803 -2.00209 34.8667 6.00626C38.6928 10.0459 40.7495 15.4448 40.581 21.0063C40.7495 26.5677 38.6928 31.9666 34.8667 36.0063C26.803 44.0146 13.7877 44.0146 5.72389 36.0063C1.89781 31.9666 -0.158909 26.5677 0.00959123 21.0063C-0.158909 15.4448 1.89781 10.0459 5.72389 6.00626L5.72389 6.00626ZM11.2239 31.3634C13.578 33.8513 16.8523 35.2608 20.2774 35.2608C23.7026 35.2608 26.9769 33.8513 29.331 31.3634C31.9412 28.5626 33.318 24.8312 33.1525 21.0063C33.318 17.1813 31.9412 13.45 29.331 10.6491C26.9769 8.1612 23.7026 6.75169 20.2774 6.75169C16.8523 6.75169 13.578 8.1612 11.2239 10.6491C8.61368 13.4499 7.23691 17.1813 7.40241 21.0063C7.2562 24.8241 8.6454 28.5414 11.2596 31.3277L11.2239 31.3634Z" transform="translate(493.95477 38.386597)" id="Shape" fill="#5F6368" fill-rule="evenodd" stroke="none" />
      <path d="M34.9565 39.4286L27.8136 39.4286L27.8136 33.9643L27.5993 33.9643C26.328 36.0397 24.5286 37.7404 22.385 38.8929C20.1605 40.1821 17.6346 40.8598 15.0636 40.8571C10.8347 41.1464 6.7052 39.4893 3.8493 36.3571C1.14381 32.9352 -0.21553 28.6412 0.0278473 24.2857L0.0278473 0L7.42073 0L7.42073 22.9286C7.42073 30.2857 10.6707 33.9643 17.1707 33.9643C20.101 34.0557 22.8947 32.7253 24.6707 30.3929C26.5869 27.9644 27.6084 24.9502 27.5636 21.8571L27.5636 0L34.9565 0L34.9565 39.4286Z" transform="translate(541.54364 39.67857)" id="Shape" fill="#5F6368" fill-rule="evenodd" stroke="none" />
      <path d="M18.7579 58.9643C13.6825 58.9811 8.85403 56.7757 5.54358 52.9286C1.84087 48.839 -0.141907 43.479 0.00790188 37.9643C-0.141961 32.4495 1.84087 27.0895 5.54358 23C8.85409 19.1528 13.6826 16.9474 18.7579 16.9643C21.5676 16.9199 24.3433 17.5831 26.8293 18.8929C29.014 19.9922 30.8639 21.6571 32.1865 23.7143L32.5079 23.7143L32.1865 18.25L32.1865 0L39.5794 0L39.5794 57.6786L32.4365 57.6786L32.4365 52.2143L32.1151 52.2143C30.7926 54.2714 28.9426 55.9364 26.758 57.0357C24.2931 58.3338 21.5435 58.9967 18.7579 58.9643L18.7579 58.9643ZM19.9722 52.2143C23.3525 52.2635 26.5911 50.8588 28.865 48.3571C31.3764 45.4976 32.6596 41.7635 32.4365 37.9643C32.6596 34.1651 31.3764 30.431 28.865 27.5714C26.5774 25.0572 23.3357 23.6241 19.9364 23.6241C16.5372 23.6241 13.2955 25.0572 11.0079 27.5714C8.48825 30.412 7.20319 34.1388 7.43643 37.9286C7.20319 41.7184 8.48831 45.4451 11.0079 48.2857C13.2853 50.8327 16.5559 52.266 19.9721 52.2143L19.9722 52.2143Z" transform="translate(583.84937 21.428574)" id="Shape" fill="#5F6368" fill-rule="evenodd" stroke="none" />
    </g>
  </g>
</svg>