<?xml version="1.0" encoding="utf-8"?>
<svg width="203px" height="100px" viewbox="0 0 203 100" version="1.1" xmlns:xlink="http://www.w3.org/1999/xlink" xmlns="http://www.w3.org/2000/svg">
  <defs>
    <path d="M0 0L202.08 0L202.08 100L0 100L0 0Z" id="path_1" />
    <path d="M0 0L249.996 0L249.996 125L0 125L0 0L0 0Z" id="path_2" />
    <clipPath id="mask_1">
      <use xlink:href="#path_1" />
    </clipPath>
    <clipPath id="mask_2">
      <use xlink:href="#path_2" />
    </clipPath>
  </defs>
  <g id="git">
    <g id="Mask-group">
      <path d="M0 0L202.08 0L202.08 100L0 100L0 0Z" id="artboard_1" fill="none" fill-rule="evenodd" stroke="none" />
      <g clip-path="url(#mask_1)">
        <g id="Artboard" transform="translate(-16.666391 -14.583333)">
          <g id="git">
            <path d="M0 0L249.996 0L249.996 125L0 125L0 0L0 0Z" id="Background" fill="none" fill-rule="evenodd" stroke="none" />
            <g id="Mask-group">
              <path d="M0 0L249.996 0L249.996 125L0 125L0 0L0 0Z" id="path_1" fill="none" fill-rule="evenodd" stroke="none" />
              <g clip-path="url(#mask_2)">
                <g id="Group" transform="translate(18.816221 20.666145)">
                  <path d="M16.3539 22.9792C12.8123 22.9792 10.1707 24.7188 10.1707 28.9063C10.1707 32.0313 11.9102 34.25 16.1601 34.25C19.7643 34.25 22.2121 32.125 22.2121 28.775C22.2121 24.9729 20.0247 22.9792 16.3539 22.9792L16.3539 22.9792L16.3539 22.9792ZM9.27068 52.5417C8.43111 53.5708 7.59571 54.6667 7.59571 55.9271C7.59571 58.5 10.8769 59.2771 15.3872 59.2771C19.1226 59.2771 24.21 59.0167 24.21 55.5417C24.21 53.4792 21.7621 53.35 18.6684 53.1563L9.29358 52.5146L9.27068 52.5417L9.27068 52.5417ZM28.3329 23.1708C29.4891 24.6563 30.7162 26.7125 30.7162 29.6771C30.7162 36.8229 25.0913 41.0104 16.9997 41.0104C14.9164 41.0104 13.0935 40.75 11.9102 40.4313L9.78525 43.8167L16.0977 44.2021C27.2433 44.9104 33.8057 45.2354 33.8057 53.7958C33.8057 61.2042 27.3058 65.3833 16.0977 65.3833C4.44159 65.3833 0 62.4208 0 57.3104C0 54.4146 1.29165 52.8667 3.54161 50.7396C1.41664 49.8438 0.708314 48.2313 0.708314 46.4938C0.708314 45.0771 1.41663 43.7854 2.57704 42.5875L6.56864 38.7229C3.41245 37.1813 1.02706 33.8271 1.02706 29.0875C1.02706 21.6813 5.9228 16.5958 15.7768 16.5958C18.5476 16.5958 20.2226 16.8521 21.7038 17.2417L34.2619 17.2417L34.2619 22.7146L28.3349 23.1646M45.5888 11.4667C41.9431 11.4667 39.7931 9.34167 39.7931 5.66667C39.7931 1.99167 41.9181 0 45.5888 0C49.3242 0 51.4492 2 51.4492 5.66667C51.4492 9.33334 49.3242 11.4667 45.5909 11.4667L45.5888 11.4667L45.5888 11.4667ZM37.2557 50.1708L37.2557 45.0875L40.5431 44.6375C41.4431 44.5083 41.5743 44.3146 41.5743 43.3458L41.5743 24.4167C41.5743 23.7083 41.3806 23.2583 40.7348 23.0625L37.2557 21.8396L37.964 16.6271L51.2971 16.6271L51.2971 43.3563C51.2971 44.3875 51.3596 44.5146 52.3283 44.6479L55.6095 45.0979L55.6095 50.1771L37.2494 50.1771M81.1028 47.6771C78.332 49.0313 74.2738 50.2813 70.603 50.2813C62.9365 50.2813 60.0407 47.1938 60.0407 39.9125L60.0407 23.0375C60.0407 22.6521 60.0407 22.3917 59.5198 22.3917L55.0408 22.3917L55.0408 16.6625C60.7073 16.0375 62.9635 13.1833 63.6719 6.1625L69.7905 6.1625L69.7905 15.3083C69.7905 15.7562 69.7905 15.9541 70.3072 15.9541L79.3904 15.9541L79.3904 22.3917L69.7697 22.3917L69.7697 37.7563C69.7697 41.5583 70.6738 43.0375 74.1446 43.0375C75.9487 43.0375 77.7904 42.5875 79.3612 42.0083L81.1007 47.675" transform="translate(114.8899 11.083852)" id="Shape" fill="#362701" fill-rule="evenodd" stroke="none" />
                  <path d="M86.7446 40.2713L48.1369 1.66719C45.9161 -0.555729 42.3099 -0.555729 40.085 1.66719L32.0705 9.68385L42.237 19.8505C44.6016 19.0526 47.3098 19.5901 49.189 21.4694C51.0196 23.3031 51.6433 26.0208 50.7952 28.4694L60.595 38.2694C62.9388 37.4527 65.6991 37.984 67.5949 39.8735C69.3093 41.5842 69.9793 44.0804 69.352 46.4198C68.7247 48.7592 66.8956 50.5854 64.5554 51.209C62.2173 51.8358 59.7226 51.1671 58.0118 49.4548C56.0222 47.4631 55.5326 44.5381 56.5389 42.086L47.4244 32.9715L47.4244 57.0235C48.0494 57.3444 48.6786 57.7673 49.2161 58.3048C51.8619 60.9506 51.8619 65.2381 49.2161 67.8881C47.9461 69.1596 46.2226 69.8742 44.4255 69.8742C42.6283 69.8742 40.905 69.1596 39.635 67.8881C36.9892 65.236 36.9892 60.9506 39.635 58.3048C40.2698 57.6702 41.0239 57.1677 41.8537 56.8256L41.8537 32.5546C41.0724 32.2212 40.2912 31.734 39.635 31.0963C37.6902 29.1527 37.1138 26.226 38.1767 23.69L28.1518 13.663L1.66261 40.09C-0.554202 42.3173 -0.554202 45.9171 1.66261 48.1442L40.2725 86.7483C42.4933 88.9713 46.0994 88.9713 48.3244 86.7483L86.7446 48.3256C88.9612 46.0983 88.9612 42.4985 86.7446 40.2715" id="Shape#1" fill="#F03C2E" fill-rule="evenodd" stroke="none" />
                </g>
              </g>
            </g>
          </g>
        </g>
      </g>
    </g>
  </g>
</svg>