<?xml version="1.0" encoding="utf-8"?>
<svg width="282px" height="100px" viewbox="0 0 282 100" version="1.1" xmlns:xlink="http://www.w3.org/1999/xlink" xmlns="http://www.w3.org/2000/svg">
  <defs>
    <linearGradient x1="0" y1="0.5" x2="1" y2="0.5" id="gradient_1">
      <stop offset="0" stop-color="#4C4C4C" />
      <stop offset="1" stop-color="#343434" />
    </linearGradient>
    <path d="M0 0L282 0L282 100L0 100L0 0L0 0Z" id="path_1" />
    <path d="M0 0L167.125 0L167.125 59.4222L0 59.4222L0 0L0 0L0 0Z" id="path_2" />
    <path d="M0 0L100 0L100 100L0 100L0 0L0 0L0 0Z" id="path_3" />
    <clipPath id="mask_1">
      <use xlink:href="#path_1" />
    </clipPath>
    <clipPath id="mask_2">
      <use xlink:href="#path_2" />
    </clipPath>
    <clipPath id="mask_3">
      <use xlink:href="#path_3" />
    </clipPath>
  </defs>
  <g id="github">
    <path d="M0 0L282 0L282 100L0 100L0 0L0 0Z" id="Background" fill="none" fill-rule="evenodd" stroke="none" />
    <g id="Mask-group">
      <path d="M0 0L282 0L282 100L0 100L0 0L0 0Z" id="path_1" fill="none" fill-rule="evenodd" stroke="none" />
      <g clip-path="url(#mask_1)">
        <g id="Group">
          <g id="github" transform="translate(100 21)">
            <path d="M0 0L167.125 0L167.125 59.4222L0 59.4222L0 0L0 0L0 0Z" id="Background#1" fill="none" fill-rule="evenodd" stroke="none" />
            <g id="Mask-group" transform="translate(10 0)">
              <path d="M0 0L167.125 0L167.125 59.4222L0 59.4222L0 0L0 0L0 0Z" id="path_1#1" fill="none" fill-rule="evenodd" stroke="none" />
              <g id="Mask-group">
                <path d="M0 0L167.125 0L167.125 59.4222L0 59.4222L0 0L0 0L0 0Z" id="path_2" fill="none" fill-rule="evenodd" stroke="none" />
                <g clip-path="url(#mask_2)">
                  <g id="Group" transform="translate(0 7.427517)">
                    <g id="Group">
                      <path d="M71.22 37.2506L68.7441 37.2506C69.8583 37.2506 70.6009 40.627 71.7151 40.9645L72.458 40.9645L71.22 37.588L71.22 37.2506L71.22 37.2506L71.22 37.2506ZM68.8332 37.2914C68.4878 37.2951 67.6188 37.4771 66.7014 37.4771C63.8046 37.4771 62.8019 36.1401 62.8019 34.3946L62.8019 22.7664L68.7069 22.7664C69.0412 22.7664 69.3012 22.4693 69.3012 22.0608L69.3012 15.7472C69.3012 15.4129 69.0041 15.1158 68.7069 15.1158L62.8019 15.1158L62.8019 7.27948C62.8019 6.98237 62.6162 6.79668 62.2819 6.79668L54.2599 6.79668C53.9257 6.79668 53.74 6.98237 53.74 7.27948L53.74 15.3386C53.74 15.3386 49.6918 16.3414 49.4319 16.3785C49.1347 16.4528 48.9491 16.7128 48.9491 17.0099L48.9491 22.0608C48.9491 22.4693 49.2462 22.7664 49.5804 22.7664L53.7028 22.7664L53.7028 34.948C53.7028 44.0099 60.0164 44.9383 64.3245 44.9383C66.2929 44.9383 68.6698 44.307 69.0412 44.1213C69.264 44.047 69.3754 43.787 69.3754 43.527L69.3754 37.9562C69.386 37.6296 69.155 37.3448 68.8332 37.2877L68.8332 37.2914L68.8332 37.2914L68.8332 37.2914ZM156.838 29.1172C156.838 22.395 154.126 21.5037 151.267 21.8008C149.038 21.9493 147.256 23.0635 147.256 23.0635L147.256 36.1364C147.256 36.1364 149.075 37.3991 151.787 37.4734C155.612 37.5848 156.838 36.2107 156.838 29.1171L156.838 29.1172L156.838 29.1172L156.838 29.1172ZM165.862 28.5229C165.862 41.2616 161.74 44.9012 154.535 44.9012C148.444 44.9012 145.176 41.8187 145.176 41.8187C145.176 41.8187 145.027 43.527 144.842 43.7499C144.73 43.9727 144.545 44.047 144.322 44.047L138.825 44.047C138.454 44.047 138.12 43.7499 138.12 43.4156L138.194 2.15432C138.194 1.82007 138.491 1.52296 138.825 1.52296L146.736 1.52296C147.07 1.52296 147.367 1.82007 147.367 2.15432L147.367 16.1557C147.367 16.1557 150.413 14.1873 154.869 14.1873L154.832 14.113C159.289 14.113 165.862 15.7843 165.862 28.5229L165.862 28.5229L165.862 28.5229L165.862 28.5229ZM133.477 15.1158L125.678 15.1158C125.269 15.1158 125.047 15.4129 125.047 15.8214L125.047 36.025C125.047 36.025 123.004 37.4734 120.219 37.4734C117.433 37.4734 116.616 36.2107 116.616 33.4253L116.616 15.7843C116.616 15.45 116.319 15.1529 115.985 15.1529L108.037 15.1529C107.703 15.1529 107.406 15.45 107.406 15.7843L107.406 34.7623C107.406 42.9328 111.974 44.9755 118.25 44.9755C123.413 44.9755 127.609 42.1158 127.609 42.1158C127.609 42.1158 127.795 43.5642 127.906 43.787C127.981 43.9727 128.241 44.1213 128.501 44.1213L133.477 44.1213C133.886 44.1213 134.109 43.8242 134.109 43.4899L134.183 15.7472C134.183 15.4129 133.886 15.1158 133.477 15.1158L133.477 15.1158L133.477 15.1158L133.477 15.1158ZM45.458 15.0787L37.5474 15.0787C37.2131 15.0787 36.916 15.4129 36.916 15.8214L36.916 43.0814C36.916 43.8242 37.3988 44.0841 38.0302 44.0841L45.1609 44.0841C45.9036 44.0841 46.0893 43.7499 46.0893 43.0814L46.0893 15.71C46.0893 15.3758 45.7922 15.0786 45.458 15.0786L45.458 15.0787L45.458 15.0787L45.458 15.0787ZM41.5584 2.52571C38.6987 2.52571 36.4332 4.79118 36.4332 7.65087C36.4332 10.5106 38.6987 12.776 41.5584 12.776C44.3438 12.776 46.6093 10.5106 46.6093 7.65087C46.6093 4.79118 44.3438 2.52571 41.5584 2.52571L41.5584 2.52571L41.5584 2.52571L41.5584 2.52571ZM102.8 1.59723L94.9641 1.59723C94.6299 1.59723 94.3328 1.89435 94.3328 2.2286L94.3328 17.4184L82.0398 17.4184L82.0398 2.22859C82.0398 1.89434 81.7427 1.59723 81.4084 1.59723L73.4978 1.59723C73.1636 1.59723 72.8665 1.89434 72.8665 2.22859L72.8665 43.4899C72.8665 43.8242 73.2007 44.1213 73.4978 44.1213L81.4084 44.1213C81.7427 44.1213 82.0398 43.8242 82.0398 43.4899L82.0398 25.8489L94.3328 25.8489L94.2585 43.4899C94.2585 43.8242 94.5556 44.1213 94.8899 44.1213L102.8 44.1213C103.135 44.1213 103.432 43.8242 103.432 43.4899L103.432 2.22859C103.432 1.89434 103.135 1.59723 102.8 1.59723L102.8 1.59723L102.8 1.59723L102.8 1.59723ZM32.7194 19.8696L32.7194 41.1873C32.7194 41.3358 32.6822 41.5958 32.4965 41.6701C32.4965 41.6701 27.8542 44.9755 20.2036 44.9755C10.956 44.9755 0 42.0786 0 22.9892C0 3.89984 9.58183 -0.0368786 18.9408 0.000259399C27.0371 0.000259399 30.3053 1.82007 30.8253 2.15432C30.9738 2.34001 31.0481 2.48857 31.0481 2.67426L29.4883 9.28498C29.4883 9.61923 29.154 10.0278 28.7455 9.91635C27.4085 9.50782 25.403 8.69076 20.6864 8.69076C15.2269 8.69076 9.359 10.2506 9.359 22.5436C9.359 34.8365 14.9298 36.285 18.9408 36.285C22.3576 36.285 23.5832 35.8764 23.5832 35.8764L23.5832 27.3345L18.1238 27.3345C17.7152 27.3345 17.4181 27.0374 17.4181 26.7031L17.4181 19.8696C17.4181 19.5353 17.7152 19.2382 18.1238 19.2382L32.0137 19.2382C32.4222 19.2382 32.7194 19.5353 32.7194 19.8696L32.7194 19.8696L32.7194 19.8696L32.7194 19.8696Z" id="Shape" fill="#000000" fill-rule="evenodd" stroke="none" />
                    </g>
                  </g>
                </g>
              </g>
            </g>
          </g>
          <g id="Github-icon">
            <path d="M0 0L100 0L100 100L0 100L0 0L0 0L0 0Z" id="Background#2" fill="none" fill-rule="evenodd" stroke="none" />
            <g id="Mask-group#1">
              <path d="M0 0L100 0L100 100L0 100L0 0L0 0L0 0Z" id="path_2#1" fill="none" fill-rule="evenodd" stroke="none" />
              <g id="Mask-group">
                <path d="M0 0L100 0L100 100L0 100L0 0L0 0L0 0Z" id="path_3" fill="none" fill-rule="evenodd" stroke="none" />
                <g clip-path="url(#mask_3)">
                  <g id="Group" transform="translate(8.333313 8.333332)">
                    <g id="Group#1">
                      <path d="M41.6667 0C18.6542 0 0 18.6542 0 41.6667C0 60.1813 12.0854 75.8563 28.7917 81.2833L54.5417 81.2833C71.2479 75.8563 83.3333 60.1813 83.3333 41.6667C83.3333 18.6542 64.6792 0 41.6667 0L41.6667 0L41.6667 0L41.6667 0Z" id="Shape#1" fill="url(#gradient_1)" fill-rule="evenodd" stroke="none" />
                      <path d="M45.196 63.9583L45.1752 51.8792C45.1752 49.9229 44.7169 48.0125 43.8377 46.2813C55.5898 43.9208 61.3085 36.9729 61.3085 25.0792C61.3085 20.3813 59.9231 16.2333 57.1919 12.7458C57.4002 12.0854 57.5544 11.4021 57.6502 10.7021C58.0419 7.85 57.6023 5.98542 57.2481 4.48542L57.1919 4.24375C56.8044 2.58542 56.3398 1.40208 56.321 1.35208L56.0898 0.764585L55.8585 0.177086L55.2294 0.11042L54.5981 0.0437546C54.5981 0.0437546 54.1835 3.8147e-06 53.5544 3.8147e-06C52.6815 3.8147e-06 51.3877 0.0875034 50.1648 0.502089L49.7565 0.639587C48.2148 1.15834 46.7585 1.65 44.721 2.86667C44.1252 3.22292 43.4731 3.62917 42.7752 4.08334C39.621 3.30208 36.2273 2.90417 32.6752 2.90417C29.0877 2.90417 25.6648 3.30417 22.4898 4.09375C21.7835 3.63542 21.1273 3.225 20.5273 2.86667C18.4898 1.65 17.0335 1.16042 15.4919 0.639584L15.0835 0.502085C13.8648 0.0874996 12.569 0 11.696 0C11.0669 0 10.6523 0.0437489 10.6523 0.0437489L10.0231 0.110416L9.39813 0.174999L9.16479 0.760416L8.92938 1.35C8.90854 1.40417 8.44396 2.5875 8.05646 4.24792L8.00021 4.4875C7.64604 5.98541 7.20646 7.85208 7.59813 10.7021C7.69813 11.4229 7.85854 12.1292 8.07729 12.8083C5.40021 16.2792 4.04396 20.4042 4.04396 25.0792C4.04396 36.9437 9.76896 43.8875 21.5377 46.2667C21.1335 47.075 20.819 47.9292 20.596 48.8167C20.1856 48.9562 19.8085 49.05 19.4752 49.1021C18.9794 49.1771 18.4606 49.2146 17.9356 49.2146C16.5065 49.2146 15.3835 48.9354 14.946 48.675C14.294 48.2875 13.1294 47.1604 12.0002 45.5125C11.0356 44.1062 9.53146 42.2667 7.85021 41.4979C6.39605 40.8333 4.85646 40.4521 3.62313 40.4521C3.33563 40.4521 3.07105 40.4729 2.8398 40.5104C1.76271 40.6812 0.862713 41.2729 0.373129 42.1354C-0.0497875 42.8792 -0.116453 43.7458 0.189795 44.5125C0.646046 45.6542 1.96271 46.5646 2.98771 47.1271C3.49188 47.4042 4.58146 48.4167 5.21688 49.4375C5.69396 50.2042 5.9148 50.75 6.22105 51.5042C6.4023 51.9521 6.60229 52.4396 6.87313 53.0292C7.8523 55.1583 10.9085 57.0375 11.2544 57.2437C12.9335 58.25 15.7565 58.5729 17.8315 58.6667L18.0877 58.6729C18.0877 58.6729 18.0898 58.6729 18.0898 58.6729C18.5898 58.6729 19.2773 58.625 20.1815 58.525L20.1815 63.9687C20.1856 65.0708 19.0627 65.3208 17.5773 65.2979L18.7169 65.6812C23.0815 67.2417 27.769 68.1333 32.6752 68.1333C37.5815 68.1333 42.269 67.2417 46.6398 65.6833L48.1044 65.1375C46.6231 65.0875 45.2085 64.8458 45.196 63.9583L45.196 63.9583L45.196 63.9583L45.196 63.9583Z" transform="translate(8.991455 15.200001)" id="Shape#2" fill="#000000" fill-opacity="0.050980393" fill-rule="evenodd" stroke="none" />
                      <path d="M45.7667 64.5854C44.9208 64.6834 43.0979 64.3584 43.0979 62.9292L43.0979 50.8375C43.0979 48.5583 42.4146 46.3563 41.1479 44.4792C53.4708 42.4854 59.2292 35.9521 59.2292 24.0375C59.2292 19.3771 57.8 15.3 54.9813 11.9083C55.2667 11.1479 55.4667 10.3458 55.5813 9.51876C55.9458 6.86043 55.5479 5.17293 55.1979 3.68334L55.1417 3.44168C54.7708 1.85626 54.3333 0.739592 54.3146 0.693758L54.0833 0.106258L53.4521 0.0395927C53.4521 0.0395927 53.0812 9.53674e-06 52.5167 9.53674e-06C51.7229 9.53674e-06 50.55 0.0770931 49.4625 0.447927L49.0542 0.585426C47.5667 1.08751 46.1604 1.56043 44.2188 2.71876C43.5271 3.13126 42.7563 3.61668 41.925 4.1646C38.7313 3.32917 35.275 2.90417 31.6396 2.90417C27.9688 2.90417 24.4833 3.33125 21.2667 4.175C20.4271 3.62292 19.6521 3.13542 18.9563 2.71875C17.0146 1.56042 15.6083 1.08542 14.1208 0.585417L13.7125 0.447918C12.6271 0.0791664 11.4521 0 10.6583 0C10.0938 0 9.72292 0.0395832 9.72292 0.0395832L9.09375 0.106249L8.85833 0.695833C8.83958 0.741667 8.40208 1.85833 8.03125 3.44375L7.975 3.68542C7.62292 5.175 7.225 6.86042 7.59167 9.51875C7.70833 10.3667 7.91667 11.1875 8.2125 11.9646C5.44792 15.3396 4.04792 19.3958 4.04792 24.0375C4.04792 35.9188 9.81042 42.45 22.1438 44.4667C21.3208 45.6958 20.7458 47.0813 20.45 48.5583C19.7625 48.8292 19.1396 49.0083 18.5938 49.0917C18.0458 49.175 17.475 49.2167 16.8979 49.2167C15.4604 49.2167 14.0792 48.9479 13.3771 48.5313C12.4604 47.9875 11.175 46.6271 10.1021 45.0625C9.37292 44 7.92083 42.1104 6.37708 41.4063C5.05417 40.8021 3.67292 40.4542 2.58333 40.4542C2.35417 40.4542 2.14583 40.4708 1.9625 40.5C1.2 40.6208 0.570831 41.025 0.237499 41.6125C-0.0291691 42.0792 -0.0729179 42.6188 0.114582 43.0875C0.487499 44.0209 1.86875 44.8583 2.44583 45.175C3.14375 45.5583 4.36041 46.725 5.05833 47.85C5.58125 48.6917 5.82916 49.3021 6.14375 50.0729C6.32083 50.5084 6.51458 50.9834 6.77708 51.5563C7.46667 53.0542 9.59583 54.6229 10.7458 55.3125C12.3167 56.2542 15.2333 56.5167 16.8333 56.5875L17.0646 56.5917C17.6875 56.5917 18.7312 56.4979 20.1792 56.3104L20.1792 62.9292C20.1792 64.5521 18.1146 64.6167 17.6083 64.6167C17.5437 64.6167 18.6563 65 18.6563 65C22.7458 66.3417 27.1021 67.0917 31.6396 67.0917C36.1771 67.0917 40.5333 66.3417 44.6208 65.0021C44.6208 65.0021 45.8313 64.5771 45.7667 64.5854L45.7667 64.5854L45.7667 64.5854L45.7667 64.5854Z" transform="translate(10.0271 16.241663)" id="Shape#3" fill="#000000" fill-opacity="0.07058824" fill-rule="evenodd" stroke="none" />
                      <path d="M57.1424 22.9961C57.1424 18.1836 55.5133 14.1919 52.732 11.0627C53.0341 10.3857 53.3487 9.47733 53.5049 8.33566C53.8633 5.73149 53.4403 4.169 53.082 2.63983C52.7237 1.11066 52.3008 0.0356617 52.3008 0.0356617C52.3008 0.0356617 50.3799 -0.160171 48.7528 0.393995C47.1258 0.94816 45.7258 1.37108 43.707 2.57524C42.7633 3.13775 41.8132 3.75441 41.0612 4.25441C37.8466 3.36275 34.3112 2.90441 30.5924 2.90441C26.8403 2.90441 23.2737 3.36483 20.0362 4.26275C19.282 3.76066 18.3258 3.13983 17.3758 2.57316C15.357 1.369 13.957 0.946081 12.3299 0.391914C10.7028 -0.162252 8.78201 0.0335808 8.78201 0.0335808C8.78201 0.0335808 8.35909 1.10858 8.00076 2.63775C7.64242 4.16691 7.21951 5.72941 7.57784 8.33358C7.73825 9.50441 8.06326 10.4294 8.37367 11.1107C5.6445 14.2211 4.04451 18.1877 4.04451 22.994C4.04451 35.4586 10.7778 41.1482 23.0466 42.6502C21.6153 44.1628 20.6549 46.1002 20.332 48.2565C19.5258 48.6107 18.5966 48.944 17.7028 49.0773C15.4028 49.4252 12.9716 49.0773 11.8008 48.3836C10.6299 47.6898 9.24034 46.1273 8.19868 44.6065C7.31951 43.3232 6.05076 41.8336 4.90076 41.3086C3.38201 40.6148 1.90492 40.3544 1.08201 40.4836C0.257008 40.6148 -0.132578 41.2211 0.0403404 41.6565C0.213257 42.0898 1.03826 42.7419 1.90701 43.219C2.77576 43.6961 4.12159 44.9982 4.90284 46.2565C5.77367 47.6607 5.94451 48.4711 6.68201 50.0752C7.20076 51.2044 8.97576 52.6148 10.2403 53.3732C11.3258 54.0252 13.4945 54.3961 15.8403 54.5023C16.6508 54.5398 18.5653 54.3023 20.1799 54.0732L20.1799 61.8857C20.1799 63.2169 18.9612 64.2294 17.6987 63.9961C21.7508 65.3586 26.0778 66.0502 30.5924 66.0502C35.1049 66.0502 39.432 65.3586 43.4883 64.0002C42.2278 64.2315 41.0091 63.219 41.0091 61.8877L41.0091 49.7961C41.0091 47.0273 39.9112 44.5252 38.1487 42.6607C50.3278 41.1982 57.1424 35.644 57.1424 22.9961L57.1424 22.9961L57.1424 22.9961L57.1424 22.9961ZM4.29726 43.5571C3.7535 43.2057 3.46044 42.5564 3.64404 42.0983C3.82765 41.6403 4.42084 41.5557 4.9646 41.9071C5.50836 42.2584 5.80142 42.9078 5.61782 43.3658C5.43421 43.8239 4.84102 43.9084 4.29726 43.5571L4.29726 43.5571L4.29726 43.5571L4.29726 43.5571ZM7.36929 44.9952C7.07158 45.3312 6.43206 45.2243 5.93956 44.7585C5.44706 44.2927 5.28901 43.6399 5.58672 43.3039C5.88443 42.9679 6.52395 43.0748 7.01645 43.5406C7.50896 44.0064 7.667 44.6592 7.36929 44.9952L7.36929 44.9952L7.36929 44.9952L7.36929 44.9952ZM8.92459 47.4969C8.53529 47.7389 7.87503 47.5137 7.45138 46.9928C7.02774 46.4718 7.00103 45.85 7.39032 45.608C7.77961 45.3661 8.43988 45.5912 8.86352 46.1122C9.28335 46.6331 9.31388 47.2549 8.92459 47.4969L8.92459 47.4969L8.92459 47.4969L8.92459 47.4969ZM11.0173 49.4818C10.8035 49.9014 10.1961 49.9202 9.66309 49.5267C9.13009 49.1333 8.86978 48.4738 9.0836 48.0541C9.29743 47.6345 9.90481 47.6158 10.4378 48.0092C10.9708 48.4026 11.2311 49.0621 11.0173 49.4818L11.0173 49.4818L11.0173 49.4818L11.0173 49.4818ZM12.7107 51.6373C12.1358 51.5307 11.7093 50.9851 11.7579 50.4191C11.8038 49.853 12.3085 49.4839 12.8808 49.5905C13.4557 49.6972 13.8822 50.2427 13.8337 50.8088C13.7878 51.3707 13.2857 51.744 12.7107 51.6373L12.7107 51.6373L12.7107 51.6373L12.7107 51.6373ZM16.1095 52.0897C15.5347 52.0389 15.0864 51.5309 15.1092 50.9604C15.132 50.3898 15.6157 49.9639 16.1906 50.0147C16.7654 50.0655 17.2137 50.5735 17.1909 51.144C17.1681 51.7185 16.6844 52.1405 16.1095 52.0897L16.1095 52.0897L16.1095 52.0897L16.1095 52.0897ZM19.307 51.7065C18.7315 51.7065 18.2653 51.2394 18.2653 50.6648C18.2653 50.0903 18.7315 49.6232 19.307 49.6232C19.8825 49.6232 20.3487 50.0903 20.3487 50.6648C20.3487 51.2394 19.8802 51.7065 19.307 51.7065L19.307 51.7065L19.307 51.7065L19.307 51.7065Z" transform="translate(11.07428 17.283087)" id="Shape#4" fill="#FFFFFF" fill-rule="evenodd" stroke="none" />
                    </g>
                  </g>
                </g>
              </g>
            </g>
          </g>
        </g>
      </g>
    </g>
  </g>
</svg>