<?xml version="1.0" encoding="utf-8"?>
<svg width="329px" height="101px" viewbox="0 0 329 101" version="1.1" xmlns:xlink="http://www.w3.org/1999/xlink" xmlns="http://www.w3.org/2000/svg">
  <defs>
    <linearGradient x1="0.5" y1="1.2254721" x2="0.5" y2="0.31285274" id="gradient_1">
      <stop offset="0" stop-color="#FCEE1F" />
      <stop offset="1" stop-color="#F15B2A" />
    </linearGradient>
    <path d="M0 0L328 0L328 100L0 100L0 0Z" id="path_1" />
    <clipPath id="mask_1">
      <use xlink:href="#path_1" />
    </clipPath>
  </defs>
  <g id="Group-2" transform="translate(0.05000305 0.19999695)">
    <path d="M0 0L328 0L328 100L0 100L0 0Z" id="Background" fill="none" fill-rule="evenodd" stroke="none" />
  </g>
  <g id="Group" transform="translate(102.73781 27.799995)">
    <path d="M43.9286 23.4184C43.4694 35.5102 33.8265 45 21.8878 45C9.33673 45 0 34.898 0 22.5C0 10.102 10.102 0 22.5 0C28.0102 0 33.5204 2.44898 38.1122 6.73469L34.5918 11.1735C31.0714 8.11225 26.7857 5.96939 22.5 5.96939C13.4694 5.96939 5.96939 13.3163 5.96939 22.5C5.96939 31.8367 13.0102 39.0306 21.8878 39.0306C29.8469 39.0306 36.1224 33.2143 37.5 25.5612L19.2857 25.5612L19.2857 20.2041L43.9286 20.2041L43.9286 23.4184L43.9286 23.4184Z" id="Shape" fill="#565656" fill-rule="evenodd" stroke="none" />
    <path d="M16.0714 5.81634L12.7041 5.81634C9.03061 5.81634 5.96938 8.87756 5.96938 12.551L5.96938 30L0 30L0 0L4.89796 0L4.89796 2.44898C6.58163 0.765306 9.03061 0 11.9388 0L18.3673 0L16.0714 5.81634L16.0714 5.81634Z" transform="translate(48.673454 14.540802)" id="Shape" fill="#565656" fill-rule="evenodd" stroke="none" />
    <path d="M30.8907 30.4592L25.6866 30.4592L25.6866 26.6326C21.707 30.4592 15.5846 32.2959 9.30904 29.5408C4.7172 27.551 1.19679 23.2653 0.278424 18.2143C-1.55831 8.57142 5.94169 0 15.4315 0C19.4111 0 23.0845 1.68367 25.6866 4.28571L25.6866 0.459177L30.8907 0.459177L30.8907 30.4592L30.8907 30.4592ZM24.7682 17.7551C26.1458 11.6326 21.5539 6.12244 15.5846 6.12244C10.3805 6.12244 6.24782 10.4082 6.24782 15.4592C6.24782 21.2755 11.2988 25.7143 17.2682 24.7959C20.7886 24.1837 23.8499 21.2755 24.7682 17.7551L24.7682 17.7551Z" transform="translate(66.609314 14.081636)" id="Shape" fill="#565656" fill-rule="evenodd" stroke="none" />
    <path d="M5.81633 10.2551L5.81633 11.9388L15.3061 11.9388L15.3061 17.1428L5.81633 17.1428L5.81633 41.7857L0 41.7857L0 10.4082C0 3.82653 4.74489 0 10.7143 0L17.9081 0L15.4592 5.66326L10.7143 5.66326C7.95919 5.5102 5.81633 7.65306 5.81633 10.2551L5.81633 10.2551Z" transform="translate(103.62242 2.755104)" id="Shape" fill="#565656" fill-rule="evenodd" stroke="none" />
    <path d="M30.7376 30.4592L25.6866 30.4592L25.6866 26.6326C21.707 30.4592 15.5846 32.2959 9.30905 29.5408C4.71721 27.551 1.1968 23.2653 0.27843 18.2143C-1.5583 8.57142 5.94169 0 15.4315 0C19.4111 0 23.0846 1.68367 25.6866 4.28571L25.6866 0.459177L30.8907 0.459177L30.8907 30.4592L30.7376 30.4592L30.7376 30.4592ZM24.6152 17.7551C25.9927 11.6326 21.4009 6.12244 15.4315 6.12244C10.2274 6.12244 6.09476 10.4082 6.09476 15.4592C6.09476 21.2755 11.1458 25.7143 17.1152 24.7959C20.7886 24.1837 23.6968 21.2755 24.6152 17.7551L24.6152 17.7551Z" transform="translate(120.02765 14.081636)" id="Shape" fill="#565656" fill-rule="evenodd" stroke="none" />
    <path d="M25.4082 12.8571L25.4082 30.4592L19.4388 30.4592L19.4388 12.7041C19.4388 9.03061 16.3775 5.96939 12.7041 5.96939C8.87755 5.96939 5.96939 9.03061 5.96939 12.7041L5.96939 30.4592L0 30.4592L0 0.459188L4.89795 0.459188L4.89795 3.06122C7.04081 1.07142 9.94897 0 12.8571 0C19.898 0.153059 25.4082 5.81632 25.4082 12.8571L25.4082 12.8571Z" transform="translate(157.34688 14.081636)" id="Shape" fill="#565656" fill-rule="evenodd" stroke="none" />
    <path d="M30.7376 30.4592L25.6866 30.4592L25.6866 26.6326C21.707 30.4592 15.5845 32.2959 9.30904 29.5408C4.7172 27.551 1.19679 23.2653 0.27843 18.2143C-1.5583 8.57142 5.94169 0 15.4315 0C19.4111 0 23.0845 1.68367 25.6866 4.28571L25.6866 0.459177L30.8906 0.459177L30.8906 30.4592L30.7376 30.4592L30.7376 30.4592ZM24.6152 17.7551C25.9927 11.6326 21.4009 6.12244 15.4315 6.12244C10.2274 6.12244 6.09476 10.4082 6.09476 15.4592C6.09476 21.2755 11.1458 25.7143 17.1152 24.7959C20.7886 24.1837 23.6968 21.2755 24.6152 17.7551L24.6152 17.7551Z" transform="translate(187.22151 14.081636)" id="Shape" fill="#565656" fill-rule="evenodd" stroke="none" />
  </g>
  <path d="M91.8367 44.2768C91.6593 42.591 91.3931 40.6389 90.8607 38.5093C90.3283 36.3798 89.441 34.0728 88.2875 31.5883C87.0453 29.1925 85.5368 26.6193 83.496 24.2236C82.6974 23.2476 81.8101 22.3603 80.9228 21.3842C82.3425 15.7941 79.2369 10.9139 79.2369 10.9139C73.8243 10.559 70.4525 12.5998 69.2103 13.4871C69.0328 13.3984 68.7666 13.3097 68.5892 13.2209C67.7019 12.866 66.7258 12.5111 65.7498 12.1562C64.7737 11.89 63.7977 11.5351 62.8217 11.3576C61.8456 11.0914 60.7808 10.9139 59.7161 10.7365C59.5386 10.7365 59.3611 10.6477 59.1837 10.6477C56.8767 3.19432 50.1331 0 50.1331 0C42.4135 4.96894 40.9051 11.6238 40.9051 11.6238C40.9051 11.6238 40.9051 11.8012 40.8163 11.9787C40.3727 12.0674 40.0177 12.2449 39.5741 12.3336C39.0417 12.5111 38.4206 12.6886 37.8882 12.9547C37.3558 13.2209 36.7347 13.3984 36.2023 13.6646C35.0488 14.197 33.984 14.7294 32.8305 15.3505C31.7658 15.9716 30.701 16.5927 29.7249 17.3026C29.5475 17.2138 29.4587 17.1251 29.4587 17.1251C19.0772 13.1322 9.84916 17.9237 9.84916 17.9237C9.05058 29.0151 14.0195 35.9361 14.9956 37.1783C14.7294 37.8882 14.5519 38.5093 14.2857 39.2192C13.4871 41.7036 12.9547 44.2768 12.5998 46.9388C12.5111 47.2937 12.5111 47.7374 12.4224 48.0923C2.8394 52.795 0 62.5555 0 62.5555C7.9858 71.7835 17.3913 72.3159 17.3913 72.3159L17.3913 72.3159C18.5448 74.4454 19.9645 76.4862 21.4729 78.3496C22.0941 79.1482 22.8039 79.858 23.5138 80.6566C20.5856 88.9973 23.9574 96.0071 23.9574 96.0071C32.9193 96.362 38.7755 92.1029 40.0177 91.1269C40.9051 91.3931 41.7924 91.6593 42.6797 91.9255C45.4303 92.6353 48.2698 93.079 51.0204 93.1677C51.7303 93.1677 52.4401 93.1677 53.15 93.1677L53.5049 93.1677L53.7711 93.1677L54.2147 93.1677L54.6584 93.1677L54.6584 93.1677C58.8288 99.2014 66.2822 100 66.2822 100C71.5173 94.4099 71.8722 88.9973 71.8722 87.7551L71.8722 87.7551C71.8722 87.7551 71.8722 87.7551 71.8722 87.6664C71.8722 87.5776 71.8722 87.4889 71.8722 87.4889L71.8722 87.4889C71.8722 87.4002 71.8722 87.3114 71.8722 87.2227C72.937 86.4241 74.0018 85.6255 75.0666 84.7382C77.1961 82.8749 78.9707 80.6566 80.5679 78.3496C80.7453 78.1721 80.8341 77.9059 81.0115 77.7285C86.9565 78.0834 91.1269 74.0018 91.1269 74.0018C90.1509 67.7906 86.6016 64.7737 85.8918 64.2413L85.8918 64.2413C85.8918 64.2413 85.8918 64.2413 85.803 64.1526L85.7143 64.0639L85.7143 64.0639L85.6256 63.9752C85.6256 63.6202 85.7143 63.2653 85.7143 62.8217C85.803 62.1118 85.803 61.4907 85.803 60.7808L85.803 60.2484L85.803 59.9823L85.803 59.8935C85.803 59.7161 85.803 59.8048 85.803 59.7161L85.803 59.2724L85.803 58.74C85.803 58.5626 85.803 58.3851 85.803 58.2076C85.803 58.0302 85.803 57.8527 85.7143 57.6752L85.6256 57.1429L85.5368 56.6105C85.4481 55.9006 85.2706 55.2795 85.1819 54.5697C84.5608 51.9077 83.496 49.3345 82.165 47.1162C80.7453 44.8092 79.0595 42.8572 77.1074 41.0825C75.1553 39.3966 73.0257 37.9769 70.7187 37.0009C68.4117 35.9361 66.1047 35.315 63.709 35.0488C62.5555 34.8714 61.3132 34.8714 60.1597 34.8714L59.7161 34.8714L59.6273 34.8714L59.4499 34.8714L59.2724 34.8714L58.8288 34.8714C58.6513 34.8714 58.4738 34.8714 58.3851 34.8714C57.764 34.9601 57.1429 35.0488 56.6105 35.1375C54.2147 35.5812 51.9965 36.4685 50.0444 37.622C48.0923 38.7755 46.4064 40.284 44.9867 41.9698C43.567 43.6557 42.5022 45.4304 41.7924 47.3824C41.0825 49.2458 40.6389 51.2866 40.5501 53.15C40.5501 53.5936 40.5501 54.126 40.5501 54.5697C40.5501 54.6584 40.5501 54.8359 40.5501 54.9246L40.5501 55.2795C40.5501 55.5457 40.5501 55.7232 40.6389 55.9894C40.7276 56.9654 40.9051 57.8527 41.1713 58.74C41.7036 60.5147 42.5022 62.1118 43.567 63.5315C44.6318 64.9512 45.7853 66.016 47.1162 66.9033C48.4472 67.7906 49.7782 68.4117 51.1979 68.8554C52.6176 69.299 53.9485 69.4765 55.1908 69.3878C55.3682 69.3878 55.5457 69.3878 55.6344 69.3878C55.7232 69.3878 55.8119 69.3878 55.9006 69.3878C55.9894 69.3878 56.0781 69.3878 56.1668 69.3878C56.3443 69.3878 56.433 69.3878 56.6105 69.3878L56.6992 69.3878L56.7879 69.3878C56.8767 69.3878 56.9654 69.3878 57.0541 69.3878C57.2316 69.3878 57.4091 69.299 57.4978 69.299C57.6753 69.299 57.764 69.2103 57.9415 69.2103C58.2076 69.1216 58.5626 69.0328 58.8288 68.9441C59.3611 68.7666 59.8935 68.5005 60.4259 68.323C60.9583 68.0568 61.402 67.7906 61.7569 67.5244C61.8456 67.4357 62.0231 67.347 62.1118 67.2582C62.5555 66.9033 62.6442 66.2822 62.2893 65.8385C61.9344 65.4836 61.402 65.3949 60.9583 65.5723C60.8696 65.661 60.7808 65.661 60.6034 65.7498C60.2484 65.9272 59.8048 66.1047 59.4499 66.1934C59.0062 66.2822 58.5626 66.4596 58.1189 66.5484C57.8527 66.5484 57.6752 66.6371 57.409 66.6371C57.3203 66.6371 57.1429 66.6371 57.0541 66.6371C56.9654 66.6371 56.7879 66.6371 56.6992 66.6371C56.6105 66.6371 56.433 66.6371 56.3443 66.6371C56.1668 66.6371 56.0781 66.6371 55.9006 66.6371C55.9006 66.6371 55.8119 66.6371 55.9006 66.6371L55.8119 66.6371L55.7232 66.6371C55.6344 66.6371 55.6344 66.6371 55.5457 66.6371C55.457 66.6371 55.2795 66.6371 55.1908 66.5484C54.2147 66.3709 53.1499 66.1047 52.1739 65.661C51.1979 65.2174 50.2218 64.5963 49.4232 63.7977C48.5359 62.9991 47.8261 62.1118 47.205 61.047C46.5838 59.9823 46.2289 58.8288 46.0515 57.6752C45.9627 57.0541 45.874 56.433 45.9627 55.8119C45.9627 55.6344 45.9627 55.457 45.9627 55.2795C45.9627 55.3682 45.9627 55.2795 45.9627 55.2795L45.9627 55.1908L45.9627 55.102C45.9627 55.0133 45.9627 54.9246 45.9627 54.8358C45.9627 54.4809 46.0515 54.2147 46.1402 53.8598C46.5838 51.1979 47.9148 48.6247 49.9556 46.6726C50.488 46.1402 51.0204 45.6965 51.6415 45.3416C52.2626 44.898 52.8838 44.543 53.5049 44.2768C54.126 44.0107 54.8358 43.7445 55.5457 43.567C56.2555 43.3895 56.9654 43.2121 57.6752 43.2121C58.0302 43.2121 58.3851 43.1233 58.74 43.1233C58.8287 43.1233 58.9175 43.1233 59.0062 43.1233L59.2724 43.1233L59.4499 43.1233C59.5386 43.1233 59.4499 43.1233 59.4499 43.1233L59.5386 43.1233L59.8048 43.1233C60.6034 43.2121 61.402 43.3008 62.1118 43.4783C63.6202 43.8332 65.1287 44.3656 66.5484 45.1642C69.3878 46.7613 71.7835 49.1571 73.2032 52.0852C73.913 53.5049 74.4454 55.1021 74.7116 56.7879C74.8003 57.2316 74.8003 57.5865 74.8891 58.0302L74.8891 58.2964L74.8891 58.5626C74.8891 58.6513 74.8891 58.74 74.8891 58.8288C74.8891 58.9175 74.8891 59.0062 74.8891 59.0949L74.8891 59.3611L74.8891 59.6273C74.8891 59.8048 74.8891 60.1597 74.8891 60.3372C74.8891 60.7808 74.8003 61.2245 74.8003 61.6682C74.7116 62.1118 74.7116 62.5555 74.6229 62.9991C74.5342 63.4428 74.4454 63.8864 74.3567 64.3301C74.1792 65.2174 73.8243 66.016 73.5581 66.9033C72.937 68.5892 72.0497 70.1863 70.9849 71.606C68.8554 74.5342 65.9272 76.9299 62.6442 78.4383C60.9583 79.1482 59.2724 79.7693 57.4978 80.0355C56.6105 80.213 55.7231 80.3017 54.8358 80.3017L54.6584 80.3017L54.4809 80.3017L54.2147 80.3017L53.7711 80.3017L53.5049 80.3017C53.5936 80.3017 53.5049 80.3017 53.5049 80.3017L53.4162 80.3017C52.9725 80.3017 52.4401 80.3017 51.9965 80.213C50.0444 80.0355 48.181 79.6806 46.3177 79.1482C44.4543 78.6158 42.6797 77.906 40.9938 77.0187C37.622 75.244 34.6051 72.6708 32.2094 69.7427C31.0559 68.2343 29.9911 66.6371 29.1038 64.9512C28.2165 63.2653 27.5954 61.4907 27.063 59.7161C26.5306 57.9415 26.2644 56.0781 26.1757 54.2148L26.1757 53.8598L26.1757 53.7711L26.1757 53.6824L26.1757 53.5049L26.1757 53.2387L26.1757 53.15L26.1757 53.0612L26.1757 52.8838L26.1757 52.4401L26.1757 52.3514L26.1757 52.3514L26.1757 52.1739C26.1757 51.9077 26.1757 51.7303 26.1757 51.4641C26.1757 50.5768 26.2644 49.6007 26.4419 48.6247C26.5306 47.6486 26.7081 46.7613 26.8855 45.7853C27.063 44.8092 27.3292 43.9219 27.5954 42.9459C28.1278 41.0825 28.7489 39.3079 29.5475 37.622C31.1446 34.2502 33.1854 31.2334 35.5812 28.8376C36.2023 28.2165 36.8234 27.6841 37.5333 27.1517C37.7995 26.8855 38.4206 26.3532 39.1304 25.9095C39.8403 25.4658 40.5501 25.0222 41.3487 24.6673C41.7036 24.4898 42.0586 24.3123 42.5022 24.1349C42.6797 24.0461 42.8572 23.9574 43.1233 23.8687C43.3008 23.7799 43.4783 23.6912 43.7445 23.6025C44.543 23.2476 45.3416 22.9814 46.1402 22.7152C46.3177 22.6264 46.5838 22.6264 46.7613 22.5377C46.9388 22.449 47.205 22.449 47.3824 22.3602C47.8261 22.2715 48.181 22.1828 48.6247 22.0053C48.8021 21.9166 49.0683 21.9166 49.2458 21.8279C49.4232 21.8279 49.6894 21.7391 49.8669 21.7391C50.0444 21.7391 50.3105 21.6504 50.488 21.6504L50.8429 21.5617L51.1979 21.4729C51.3753 21.4729 51.6415 21.3842 51.819 21.3842C52.0852 21.3842 52.2626 21.2955 52.5288 21.2955C52.7063 21.2955 53.0612 21.2067 53.2387 21.2067C53.4161 21.2067 53.5049 21.2067 53.6823 21.118L53.9485 21.118L54.126 21.118L54.3035 21.118C54.5696 21.118 54.7471 21.118 55.0133 21.0293L55.3682 21.0293C55.3682 21.0293 55.457 21.0293 55.3682 21.0293L55.457 21.0293L55.6344 21.0293C55.8119 21.0293 56.0781 21.0293 56.2555 21.0293C57.0541 21.0293 57.8527 21.0293 58.6513 21.0293C60.2484 21.118 61.8456 21.2955 63.354 21.5617C66.3709 22.0941 69.299 23.0701 71.8722 24.4011C74.4454 25.6433 76.8411 27.2405 78.7933 28.9264C78.882 29.0151 79.0594 29.1038 79.1482 29.2813C79.2369 29.37 79.4144 29.4587 79.5031 29.6362C79.7693 29.8137 79.9468 30.0799 80.213 30.2573C80.4791 30.4348 80.6566 30.701 80.9228 30.8784C81.1003 31.1446 81.3665 31.3221 81.5439 31.5883C82.4312 32.4756 83.2298 33.4516 83.9397 34.339C85.3594 36.2023 86.5129 38.0657 87.4002 39.8403C87.4889 39.929 87.4889 40.0177 87.5776 40.1952C87.6664 40.2839 87.6664 40.3727 87.7551 40.5501C87.8438 40.7276 87.9325 40.9938 88.11 41.1713C88.1987 41.3487 88.2875 41.6149 88.3762 41.7924C88.4649 41.9698 88.5537 42.236 88.6424 42.4135C88.9973 43.2121 89.2635 44.0107 89.5297 44.8092C89.9734 46.0515 90.2396 47.1162 90.5058 48.0036C90.5945 48.3585 90.9494 48.6247 91.3043 48.6247C91.748 48.6247 92.0142 48.2697 92.0142 47.8261C91.9255 46.7613 91.9255 45.6078 91.8367 44.2768L91.8367 44.2768Z" id="Shape" fill="url(#gradient_1)" fill-rule="evenodd" stroke="none" />
</svg>