<?xml version="1.0" encoding="utf-8"?>
<svg width="309px" height="100px" viewbox="0 0 309 100" version="1.1" xmlns:xlink="http://www.w3.org/1999/xlink" xmlns="http://www.w3.org/2000/svg">
  <defs>
    <path d="M0 0L308.824 0L308.824 100L0 100L0 0Z" id="path_1" />
    <path d="M0 0L330.876 0L330.876 165.438L0 165.438L0 0L0 0Z" id="path_2" />
    <clipPath id="mask_1">
      <use xlink:href="#path_1" />
    </clipPath>
    <clipPath id="mask_2">
      <use xlink:href="#path_2" />
    </clipPath>
  </defs>
  <g id="svg">
    <g id="Mask-group">
      <path d="M0 0L308.824 0L308.824 100L0 100L0 0Z" id="slice_1" fill="none" fill-rule="evenodd" stroke="none" />
      <g clip-path="url(#mask_1)">
        <g id="Slice" transform="translate(-11.764707 -33.085297)">
          <path d="M0 0L308.824 0L308.824 100L0 100L0 0Z" transform="translate(11.764707 33.085297)" id="slice_1" fill="none" fill-rule="evenodd" stroke="none" />
          <g id="graphql-ar21">
            <path d="M0 0L330.876 0L330.876 165.438L0 165.438L0 0L0 0Z" id="Background" fill="none" fill-rule="evenodd" stroke="none" />
            <g id="Mask-group">
              <path d="M0 0L330.876 0L330.876 165.438L0 165.438L0 0L0 0Z" id="path_1" fill="none" fill-rule="evenodd" stroke="none" />
              <g clip-path="url(#mask_2)">
                <g id="Group" transform="translate(13.52943 34.623528)">
                  <path d="M112.874 24.5412C111.305 24.5412 109.874 24.75 108.579 25.1676C107.324 25.552 106.224 26.199 105.279 27.1088C104.371 27.9814 103.638 29.1167 103.079 30.5147C102.556 31.9109 102.259 33.5774 102.188 35.5147C102.079 38.6579 102.079 41.8009 102.188 44.9441C102.259 46.8991 102.556 48.5656 103.079 49.9441C103.638 51.3403 104.371 52.4932 105.279 53.4029C106.221 54.2756 107.321 54.9226 108.579 55.3441C109.874 55.7285 111.305 55.9206 112.874 55.9206C114.415 55.9206 115.846 55.7118 117.168 55.2941C118.489 54.8391 119.624 54.1785 120.574 53.3118C121.554 52.4038 122.324 51.2509 122.885 49.8529C123.444 48.4568 123.724 46.8156 123.724 44.9294L123.724 42.2588L114.597 42.2588C113.829 42.2588 113.444 41.8668 113.444 41.0824L113.444 40.3471C113.444 39.5626 113.829 39.1706 114.597 39.1706L125.803 39.1706C126.587 39.1706 126.979 39.5626 126.979 40.3471L126.979 44.9559C126.979 47.0538 126.666 48.9756 126.038 50.7206C125.411 52.4324 124.485 53.9185 123.262 55.1794C122.076 56.4344 120.589 57.4118 118.803 58.1118C117.038 58.7744 115.048 59.1059 112.832 59.1059C110.562 59.1059 108.571 58.7744 106.862 58.1118C105.15 57.4138 103.701 56.4529 102.515 55.2294C101.362 54.0079 100.471 52.5588 99.8441 50.8824C99.25 49.1706 98.9185 47.2844 98.85 45.2235C98.7794 43.655 98.7441 41.9962 98.7441 40.2471C98.7441 38.4824 98.7794 36.8235 98.85 35.2706C98.9206 33.2118 99.2697 31.3432 99.8971 29.6647C100.524 27.9529 101.415 26.4863 102.568 25.2647C103.754 24.0431 105.203 23.1 106.915 22.4353C108.626 21.7373 110.599 21.3882 112.832 21.3882C115.244 21.3882 117.305 21.7549 119.015 22.4882C120.726 23.2216 122.124 24.1039 123.206 25.1353C124.288 26.149 125.092 27.2147 125.618 28.3324C126.141 29.45 126.421 30.3756 126.456 31.1088C126.491 31.4226 126.403 31.6844 126.191 31.8941C125.981 32.0706 125.702 32.1588 125.353 32.1588L124.2 32.1588C123.886 32.1588 123.659 32.0903 123.518 31.9529C123.38 31.7765 123.241 31.4971 123.1 31.1147C122.821 30.3303 122.429 29.5462 121.924 28.7618C121.433 27.9774 120.773 27.2794 119.941 26.6676C119.104 26.0402 118.109 25.5333 116.956 25.1471C115.803 24.7627 114.44 24.5706 112.868 24.5706L112.874 24.5412L112.874 24.5412ZM137.603 34.9618C138.858 32.55 141.232 31.3441 144.726 31.3441L146.668 31.3441C147.436 31.3441 147.821 31.7285 147.821 32.4971L147.821 33.2324C147.821 34.0009 147.436 34.3853 146.668 34.3853L144.415 34.3853C142.317 34.3853 140.658 34.9962 139.438 36.2176C138.217 37.4391 137.606 39.0979 137.606 41.1941L137.606 57.4294C137.606 57.7785 137.483 58.0579 137.238 58.2677C137.029 58.4774 136.749 58.5824 136.4 58.5824L135.562 58.5824C134.793 58.5824 134.409 58.1979 134.409 57.4294L134.409 32.5471C134.409 32.1979 134.514 31.9185 134.724 31.7088C134.933 31.4638 135.213 31.3412 135.562 31.3412L136.4 31.3412C136.749 31.3412 137.029 31.4638 137.238 31.7088C137.483 31.9185 137.606 32.1979 137.606 32.5471L137.606 34.9588L137.603 34.9618L137.603 34.9618ZM169.956 58.5971C169.187 58.5971 168.803 58.2126 168.803 57.4441L168.803 54.9824C168.489 55.4726 168.071 55.9626 167.547 56.4529C167.057 56.9432 166.446 57.3794 165.715 57.7618C164.981 58.1462 164.099 58.4597 163.068 58.7029C162.054 58.9815 160.868 59.1206 159.509 59.1206C158.254 59.1206 157.048 58.9285 155.891 58.5441C154.774 58.1265 153.779 57.5676 152.906 56.8676C152.069 56.1697 151.388 55.3491 150.865 54.4059C150.374 53.4647 150.129 52.4353 150.129 51.3176C150.129 50.1315 150.374 49.0656 150.865 48.1206C151.388 47.1794 152.104 46.3588 153.012 45.6588C153.92 44.9256 155.002 44.3324 156.259 43.8794C157.553 43.3891 158.968 43.0403 160.503 42.8324L168.779 41.6794L168.779 39.8471C168.779 37.9609 168.203 36.4941 167.05 35.4471C165.932 34.4 164.134 33.8765 161.656 33.8765C159.701 33.8765 158.181 34.2609 157.097 35.0294C156.05 35.7626 155.389 36.5668 155.115 37.4412C154.977 37.8588 154.803 38.1559 154.591 38.3324C154.415 38.4697 154.17 38.5382 153.856 38.5382L153.121 38.5382C152.807 38.5382 152.527 38.4332 152.282 38.2235C152.073 37.9785 151.968 37.6991 151.968 37.3853C151.968 36.895 152.142 36.2844 152.491 35.5529C152.84 34.8197 153.399 34.1038 154.168 33.4059C154.952 32.7079 155.965 32.1147 157.206 31.6265C158.427 31.1029 159.914 30.8412 161.665 30.8412C163.724 30.8412 165.418 31.1206 166.747 31.6794C168.108 32.2382 169.174 32.9715 169.944 33.8794C170.713 34.7521 171.236 35.7294 171.515 36.8118C171.829 37.8941 171.985 38.9597 171.985 40.0088L171.985 57.45C171.985 58.2185 171.601 58.6029 170.832 58.6029L169.941 58.6029L169.956 58.5971L169.956 58.5971ZM160.056 56.0824C161.242 56.0824 162.36 55.8903 163.409 55.5059C164.491 55.0882 165.434 54.4774 166.238 53.6735C167.023 52.8891 167.65 51.8765 168.121 50.6353C168.576 49.4138 168.803 47.9823 168.803 46.3412L168.803 44.5618L162.047 45.5029C156.251 46.2874 153.353 48.1382 153.353 51.0559C153.353 51.9285 153.545 52.6794 153.929 53.3088C154.347 53.9362 154.871 54.4597 155.5 54.8794C156.127 55.2971 156.843 55.6109 157.647 55.8206C158.431 55.9971 159.235 56.0853 160.059 56.0853L160.056 56.0824L160.056 56.0824ZM192.279 59.1206C190.079 59.1206 188.281 58.7285 186.885 57.9441C185.489 57.1597 184.354 56.1824 183.479 55.0118L183.479 67.4235C183.479 68.1921 183.095 68.5765 182.326 68.5765L181.435 68.5765C180.667 68.5765 180.282 68.1921 180.282 67.4235L180.282 32.4971C180.282 31.7285 180.667 31.3441 181.435 31.3441L182.326 31.3441C183.095 31.3441 183.479 31.7285 183.479 32.4971L183.479 34.9588C184.352 33.7726 185.487 32.795 186.885 32.0265C188.281 31.2421 190.079 30.85 192.279 30.85C194.305 30.85 196.016 31.2168 197.412 31.95C198.843 32.6479 199.996 33.5912 200.871 34.7794C201.743 35.9324 202.371 37.2597 202.753 38.7618C203.171 40.2285 203.416 41.7303 203.488 43.2676C203.524 43.7912 203.541 44.3676 203.541 44.9971C203.541 45.6244 203.524 46.2009 203.488 46.7265C203.418 48.2676 203.173 49.7874 202.753 51.2853C202.369 52.7521 201.741 54.0794 200.871 55.2676C199.998 56.4206 198.845 57.3638 197.412 58.0971C196.016 58.795 194.305 59.1441 192.279 59.1441L192.279 59.1206L192.279 59.1206ZM183.479 43.0912C183.444 43.6147 183.426 44.295 183.426 45.1324C183.426 45.9697 183.444 46.65 183.479 47.1735C183.515 48.2206 183.689 49.2862 184.003 50.3706C184.352 51.4176 184.876 52.3609 185.574 53.2C186.271 54.0373 187.154 54.7353 188.221 55.2941C189.268 55.8176 190.524 56.0794 191.991 56.0794C193.532 56.0794 194.807 55.8176 195.815 55.2941C196.862 54.7706 197.7 54.0726 198.329 53.2C198.992 52.2921 199.463 51.2626 199.741 50.1118C200.055 48.9256 200.247 47.7029 200.318 46.4441C200.353 45.4638 200.353 44.4862 200.318 43.5118C200.247 42.2568 200.055 41.0509 199.741 39.8941C199.463 38.7412 198.992 37.7285 198.329 36.8559C197.702 35.9479 196.864 35.2324 195.815 34.7088C194.801 34.15 193.526 33.8706 191.991 33.8706C190.489 33.8706 189.215 34.15 188.168 34.7088C187.121 35.2676 186.238 36.0009 185.521 36.9088C184.858 37.7815 184.351 38.7588 184 39.8412C183.686 40.9235 183.512 42.0059 183.476 43.0882L183.479 43.0912L183.479 43.0912ZM213.871 34.9618C214.812 33.7403 215.947 32.745 217.276 31.9765C218.598 31.2079 220.396 30.8235 222.671 30.8235C224.451 30.8235 226.005 31.1206 227.332 31.7147C228.654 32.3088 229.754 33.1294 230.632 34.1765C231.54 35.2235 232.221 36.4638 232.674 37.8971C233.129 39.3285 233.356 40.8824 233.356 42.5588L233.356 57.4353C233.356 58.2038 232.971 58.5882 232.203 58.5882L231.321 58.5882C230.552 58.5882 230.168 58.2038 230.168 57.4353L230.168 42.8176C230.168 40.0235 229.487 37.8412 228.126 36.2706C226.766 34.6626 224.776 33.8588 222.156 33.8588C219.642 33.8588 217.634 34.6432 216.132 36.2118C214.63 37.7803 213.879 39.9832 213.879 42.8206L213.879 57.4382C213.879 58.2068 213.495 58.5912 212.726 58.5912L211.835 58.5912C211.067 58.5912 210.682 58.2068 210.682 57.4382L210.682 22.5412C210.682 21.7726 211.067 21.3882 211.835 21.3882L212.726 21.3882C213.495 21.3882 213.879 21.7726 213.879 22.5412L213.879 34.9529L213.871 34.9618L213.871 34.9618ZM254.724 21.3971C256.749 21.3971 258.6 21.6941 260.276 22.2882C261.953 22.8824 263.384 23.7902 264.571 25.0118C265.792 26.198 266.735 27.7 267.4 29.5176C268.098 31.2979 268.482 33.4109 268.553 35.8559C268.624 37.4244 268.659 38.8912 268.659 40.2559C268.659 41.6168 268.624 43.0832 268.553 44.6559C268.376 49.65 267.102 53.3168 264.729 55.6559L268.082 60.3706C268.118 60.4412 268.153 60.5097 268.188 60.5765C268.224 60.6471 268.241 60.7697 268.241 60.9441C268.241 61.2226 268.136 61.4676 267.926 61.6794C267.717 61.8891 267.471 61.9941 267.191 61.9941L266.038 61.9941C265.654 61.9941 265.323 61.8374 265.044 61.5235C264.766 61.245 264.538 61 264.362 60.7882L262.05 57.5912C259.952 58.605 257.507 59.1118 254.715 59.1118C250.35 59.1118 246.98 57.9421 244.606 55.6029C242.267 53.2638 241.026 49.6147 240.885 44.6559C240.815 43.0874 240.779 41.6206 240.779 40.2559C240.779 38.895 240.815 37.4285 240.885 35.8559C240.956 33.4109 241.323 31.2979 241.985 29.5176C242.683 27.7019 243.626 26.2 244.815 25.0117C246.036 23.7902 247.468 22.8823 249.109 22.2882C250.785 21.6941 252.654 21.397 254.715 21.397L254.724 21.3971L254.724 21.3971ZM254.724 24.5441C253.257 24.5441 251.894 24.7716 250.635 25.2265C249.38 25.6441 248.28 26.3245 247.335 27.2676C246.394 28.2088 245.643 29.4147 245.082 30.8853C244.559 32.3521 244.262 34.0971 244.191 36.1206C244.156 36.905 244.121 37.6382 244.085 38.3206C244.085 38.9832 244.085 39.6303 244.085 40.2618C244.085 40.8891 244.085 41.55 244.085 42.2441C244.121 42.9068 244.156 43.6226 244.191 44.3912C244.262 46.45 244.559 48.2147 245.082 49.6853C245.641 51.1168 246.374 52.3029 247.282 53.2441C248.224 54.1853 249.324 54.8832 250.582 55.3382C251.837 55.7559 253.214 55.9647 254.712 55.9647C256.214 55.9647 257.59 55.7559 258.841 55.3382C260.096 54.8832 261.179 54.1853 262.088 53.2441C263.029 52.3029 263.763 51.1168 264.288 49.6853C264.847 48.2185 265.161 46.4538 265.229 44.3912C265.265 43.6226 265.282 42.9068 265.282 42.2441C265.282 41.5462 265.282 40.8853 265.282 40.2618C265.282 39.6344 265.282 38.9874 265.282 38.3206C265.282 37.6579 265.265 36.9244 265.229 36.1206C265.159 34.095 264.845 32.35 264.288 30.8853C263.765 29.4185 263.031 28.2127 262.088 27.2676C261.147 26.3265 260.047 25.6461 258.788 25.2265C257.533 24.7716 256.171 24.5441 254.7 24.5441L254.724 24.5441L254.724 24.5441ZM280.291 55.4441L298.362 55.4441C299.147 55.4441 299.538 55.8362 299.538 56.6206L299.538 57.4059C299.538 58.1744 299.147 58.5588 298.362 58.5588L278.144 58.5588C277.376 58.5588 276.991 58.1744 276.991 57.4059L276.991 23.0706C276.991 22.302 277.376 21.9176 278.144 21.9176L279.138 21.9176C279.907 21.9176 280.291 22.302 280.291 23.0706L280.291 55.4412L280.291 55.4441L280.291 55.4441ZM3.52941 70.1882L0 68.147L39.3471 0L42.8765 2.04118L3.52941 70.1882L3.52941 70.1882Z" transform="translate(4.255856 3.1294205)" id="Shape" fill="#E10098" fill-rule="evenodd" stroke="none" />
                  <path d="M0 0L78.6941 0L78.6941 4.07941L0 4.07941L0 0L0 0Z" transform="translate(3.4529295 65.83529)" id="Shape#1" fill="#E10098" fill-rule="evenodd" stroke="none" />
                  <path d="M39.3647 85.4882L0 62.7618L2.04118 59.2324L41.4029 81.9529L39.3647 85.4882L39.3647 85.4882ZM73.5588 26.2529L34.1971 3.52941L36.2382 0L75.6 22.7265L73.5588 26.2529L73.5588 26.2529Z" transform="translate(5.0088325 5.36471)" id="Shape#2" fill="#E10098" fill-rule="evenodd" stroke="none" />
                  <path d="M2.04118 26.2294L0 22.7L39.3941 0L41.4353 3.52941L2.04118 26.2294L2.04118 26.2294Z" transform="translate(5.0176287 5.376479)" id="Shape#3" fill="#E10098" fill-rule="evenodd" stroke="none" />
                  <path d="M71.2677 70.1882L31.9177 2.04118L35.4471 0L74.7941 68.147L71.2677 70.1882L71.2677 70.1882ZM0 22.2412L4.07353 22.2412L4.07353 67.6941L0 67.6941L0 22.2412L0 22.2412ZM68.4 22.2412L72.4794 22.2412L72.4794 67.6941L68.3971 67.6941L68.4 22.2412L68.4 22.2412Z" transform="translate(6.573487 3.1294093)" id="Shape#4" fill="#E10098" fill-rule="evenodd" stroke="none" />
                  <path d="M1.78236 22.8529L0 19.7647L34.2353 0L36.0177 3.08823L1.78236 22.8529L1.78236 22.8529Z" transform="translate(41.894085 66.27353)" id="Shape#5" fill="#E10098" fill-rule="evenodd" stroke="none" />
                  <path d="M84.4588 72.15C82.0876 76.2512 76.8435 77.6579 72.7382 75.2941C68.6371 72.9229 67.2303 67.6788 69.5941 63.5735C71.9653 59.4724 77.2094 58.0656 81.3147 60.4294C85.4441 62.7824 86.8441 68.0765 84.4618 72.15M16.0118 32.6206C13.6407 36.7218 8.39653 38.1285 4.29118 35.7647C0.189957 33.3935 -1.21683 28.1495 1.14706 24.0441C3.51812 19.9429 8.76229 18.5361 12.8676 20.9C16.9706 23.2529 18.3676 28.5471 16.0147 32.6206M1.17353 72.15C-1.1853 68.0471 0.214702 62.8147 4.32059 60.4294C8.42353 58.0706 13.6559 59.4706 16.0412 63.5765C18.4 67.6794 17 72.9118 12.8941 75.2971C8.76471 77.6559 3.53235 76.2559 1.17353 72.15M69.6235 32.6206C67.2647 28.5176 68.6647 23.2853 72.7706 20.9C76.8735 18.5412 82.1059 19.9412 84.4912 24.0471C86.85 28.15 85.45 33.3824 81.3441 35.7676C77.2388 38.1315 71.9947 36.7247 69.6235 32.6235M42.8088 96.2118C38.0676 96.2118 34.2353 92.3794 34.2353 87.6382C34.2353 82.8971 38.0765 79.0647 42.8088 79.0647C47.5412 79.0647 51.3824 82.8971 51.3824 87.6382C51.3741 92.37 47.5403 96.2038 42.8088 96.2118M42.8088 17.1471C38.0676 17.1471 34.2353 13.3147 34.2353 8.57353C34.2353 3.83235 38.0765 0 42.8088 0C47.5412 0 51.3824 3.83235 51.3824 8.57353C51.3865 10.8482 50.4844 13.0312 48.8759 14.64C47.2671 16.2488 45.0841 17.1509 42.8091 17.1471" id="Shape#6" fill="#E10098" fill-rule="evenodd" stroke="none" />
                </g>
              </g>
            </g>
          </g>
        </g>
      </g>
    </g>
  </g>
</svg>