<?xml version="1.0" encoding="utf-8"?>
<svg width="386px" height="101px" viewbox="0 0 386 101" version="1.1" xmlns:xlink="http://www.w3.org/1999/xlink" xmlns="http://www.w3.org/2000/svg">
  <defs>
    <path d="M0 0L384.911 0L384.911 100L0 100L0 0Z" id="path_1" />
    <path d="M33.7209 15.7355L26.6883 16.8784L20.271 19.6913L14.8207 23.1198L9.6342 29.4491L6.70409 32.5523L3.87094 33.5966L3.12158 31.7652L4.43181 29.8739L4.72619 27.2068L5.60382 27.2422L6.56277 28.1168L6.30411 25.4L5.24117 24.687L5.27342 23.6516L2.75545 25.0761L0.475345 27.7662L0 30.1706L0.974965 32.0959L1.88442 35.3668L3.73397 36.2425L5.67962 36.147L7.5244 35.0751L6.29383 41.3165L7.5244 48.2611L6.16975 51.4677L1.73281 56.2483L2.52166 59.1044L4.62349 62.4142L8.58684 65.2033L10.689 65.491L13.0262 65.5702L11.5681 71.5565L16.9305 73.7543L23.6116 74.6333L25.897 73.139L26.0728 69.0953L28.6223 64.8757L28.7981 61.5351L34.9516 61.9748L40.6655 61.4472L34.9516 64.8757L35.9186 69.0073L39.5227 74.6333L43.0391 76.1278L45.852 74.985L46.9949 72.6994L52.8846 68.2162L54.0274 69.1832L63.2577 69.5347L65.1038 68.0404L65.2796 65.403L64.6643 64.2604L64.2247 57.1399L61.1479 50.9864L61.6752 48.2611L63.5215 49.2281L68.708 54.0632L71.2572 54.2388L74.0702 53.096L76.8834 50.9864L78.2898 46.4151L86.5531 46.9425L91.5638 45.0085L95.6075 41.2286L98.5084 35.7783L99.2119 29.3612L98.5964 21.889L97.0141 15.2082L95.4317 13.0984L93.2342 12.3949L89.3661 16.6146L85.8499 17.8453L82.7731 12.7467L79.6964 9.93366L78.026 8.87876L71.3452 3.34053L65.9828 0.439617L60.6203 0L54.3791 1.0549L48.9288 3.0768L45.1488 6.15353L42.16 9.75785L39.0833 10.6369" id="path_2" />
    <clipPath id="mask_1">
      <use xlink:href="#path_1" />
    </clipPath>
    <clipPath id="mask_2">
      <use xlink:href="#path_2" />
    </clipPath>
  </defs>
  <g id="Hadoop_logo" transform="translate(0.108 0.108)">
    <path d="M0 0L384.911 0L384.911 100L0 100L0 0Z" id="Background" fill="none" fill-rule="evenodd" stroke="none" />
    <g clip-path="url(#mask_1)">
      <g id="g10" transform="translate(5.797755 -69.40436)">
        <path d="M219.23 68.9301C226.52 68.9301 233.811 68.9301 241.101 68.9301C242.004 64.8221 242.907 60.7145 243.81 56.6067C250.051 56.6067 256.495 56.647 262.737 56.647C265.785 56.647 268.483 55.7003 270.881 54.0805C273.774 52.1254 275.934 49.1296 276.746 45.4334C278.118 39.1813 279.499 32.9302 280.879 26.6799C281.666 23.1114 282.69 19.0818 280.131 15.8588C277.778 12.8932 274.654 12.6627 271.225 12.6627C246.532 12.6898 221.838 12.6621 197.145 12.6621C194.652 12.6621 192.564 13.4682 190.385 14.5916C188.341 13.1465 186.497 12.6621 183.991 12.6621C172.693 12.6621 161.395 12.6621 150.097 12.6621C151.022 8.4977 151.948 4.33339 152.873 0.16929C145.572 0.16929 138.27 0.16929 130.968 0.16929C130.066 4.23193 129.163 8.29455 128.26 12.3572C121.839 12.3572 115.417 12.3572 108.996 12.3572C106.335 12.3572 103.779 13.1921 101.548 14.6256C99.3846 13.28 97.7165 12.6957 95.154 12.6957C73.9585 12.6957 52.7634 12.6957 31.568 12.6957C32.5386 8.47537 33.5093 4.25453 34.4795 0.033697C27.1894 0.0226032 19.8992 0.011306 12.6088 0C8.40588 18.7985 4.20293 37.597 0 56.3953C7.28343 56.3974 14.5668 56.3994 21.8498 56.4014C24.0409 46.7808 26.2316 37.16 28.4224 27.5393C30.8867 27.5393 33.3511 27.5393 35.816 27.5393C36.6959 27.5393 36.5228 28.0405 36.3752 28.7028C34.3031 37.9356 32.2306 47.1687 30.1587 56.4014C78.4437 56.4014 126.729 56.4016 175.015 56.4016C177.473 56.4016 179.396 55.8934 181.609 54.7651C183.789 56.2219 185.716 56.7059 188.38 56.6829L221.93 56.4014C221.03 60.5777 220.13 64.7539 219.23 68.9301L219.23 68.9301ZM124.621 27.5795C122.472 27.5795 120.323 27.5795 118.173 27.5795C117.042 27.5795 116.737 28.0953 116.513 29.1094C115.705 32.7301 114.898 36.3515 114.091 39.9718C113.861 41.0125 114.387 41.1826 115.298 41.1826C117.39 41.1826 119.482 41.1826 121.574 41.1826C122.59 36.6483 123.606 32.1141 124.621 27.5795L124.621 27.5795ZM161.609 27.842C163.905 27.842 166.2 27.842 168.496 27.842C169.822 27.842 169.749 28.5371 169.511 29.6106C168.722 33.1572 167.933 36.7044 167.144 40.2512C166.869 41.4897 166.098 41.4686 165.034 41.4686C162.697 41.4686 160.361 41.4686 158.025 41.4686C156.995 41.4686 156.986 40.8599 157.169 40.0275C157.955 36.4815 158.742 32.9352 159.526 29.3892C159.816 28.0752 160.334 27.842 161.609 27.842L161.609 27.842ZM206.947 27.842C209.242 27.842 211.538 27.842 213.834 27.842C215.159 27.842 215.087 28.5371 214.848 29.6106C214.06 33.1572 213.27 36.7044 212.482 40.2512C212.207 41.4897 211.435 41.4686 210.371 41.4686C208.035 41.4686 205.699 41.4686 203.362 41.4686C202.333 41.4686 202.324 40.8599 202.507 40.0275C203.292 36.4815 204.079 32.9352 204.864 29.3892C205.154 28.0752 205.671 27.842 206.947 27.842L206.947 27.842ZM247.378 41.5707C249.527 41.5707 251.676 41.5707 253.826 41.5707C254.957 41.5707 255.262 41.0548 255.487 40.0408C256.294 36.4201 257.101 32.7987 257.908 29.1784C258.139 28.1377 257.612 27.9676 256.701 27.9676C254.609 27.9676 252.518 27.9676 250.426 27.9676C249.41 32.5018 248.394 37.0362 247.378 41.5707" transform="translate(91.55381 94.67646)" id="path20" fill="#000000" fill-rule="evenodd" stroke="none" />
        <path d="M14.6036 -3.36513e-11L42.0744 -3.36513e-11C46.3615 -3.36513e-11 49.0916 3.508 48.1421 7.79414L43.2477 29.8876C42.2982 34.1741 38.0135 37.6816 33.7269 37.6816L6.25626 37.6816C1.96976 37.6816 -0.761044 34.1745 0.188611 29.8876L5.08287 7.79413C6.03276 3.50698 10.3166 -8.8467e-06 14.6036 -8.8467e-06L14.6036 -3.36513e-11ZM19.5831 8.86998L33.1653 8.86998C35.4346 8.86998 36.8791 10.7263 36.3768 12.994L33.7863 24.6881C33.2838 26.9556 31.0162 28.8119 28.7476 28.8119L15.1652 28.8119C12.8966 28.8119 11.4515 26.956 11.9539 24.6881L14.5444 12.994C15.0469 10.7254 17.3137 8.86998 19.5831 8.86998" transform="translate(233.51646 110.50811)" id="path22" fill="#1F1917" fill-rule="evenodd" stroke="none" />
        <path d="M14.6036 -3.36513e-11L42.0747 -3.36513e-11C46.362 -3.36513e-11 49.092 3.508 48.1424 7.79414L43.2483 29.8876C42.2985 34.1741 38.0138 37.6816 33.7271 37.6816L6.25628 37.6816C1.96971 37.6816 -0.761079 34.1745 0.188629 29.8876L5.08289 7.79413C6.03277 3.50698 10.3166 -8.8467e-06 14.6036 -8.8467e-06L14.6036 -3.36513e-11ZM19.5831 8.86998L33.1658 8.86998C35.4351 8.86998 36.8795 10.7263 36.377 12.994L33.7865 24.6881C33.284 26.9556 31.0166 28.8119 28.748 28.8119L15.1653 28.8119C12.8967 28.8119 11.4514 26.956 11.954 24.6881L14.5445 12.994C15.0469 10.7254 17.3137 8.86998 19.5831 8.86998" transform="translate(278.8001 110.50811)" id="path24" fill="#1F1917" fill-rule="evenodd" stroke="none" />
        <path d="M8.34733 0L41.3178 0C45.6049 0 48.3347 3.50879 47.3854 7.79414L42.4911 29.8876C41.5419 34.1726 37.2551 37.6839 32.9705 37.6816L0 37.6658L8.34733 0L8.34733 0ZM16.9662 8.86998L32.4088 8.86998C34.6779 8.86998 36.1222 10.7266 35.6201 12.994L33.0296 24.6881C32.5273 26.9545 30.2589 28.8119 27.9909 28.8119L12.5346 28.8119" transform="translate(322.57016 110.50811)" id="path26" fill="#1F1917" fill-rule="evenodd" stroke="none" />
        <path d="M39.2265 37.6816L6.25624 37.6816C1.96911 37.6816 -0.760902 34.1726 0.188611 29.8871L5.08279 7.79406C6.0321 3.50837 10.3187 -0.00246822 14.6038 0L47.5743 0.0154374L39.2265 37.6816L39.2265 37.6816ZM30.6076 28.8114L15.165 28.8114C12.896 28.8114 11.4516 26.9543 11.954 24.6878L14.5445 12.9933C15.0467 10.7266 17.3149 8.86933 19.5829 8.86933L35.0394 8.86933" transform="translate(190.49222 110.21169)" id="path30" fill="#1F1917" fill-rule="evenodd" stroke="none" />
        <path d="M13.0662 8.84667e-06L38.2668 8.84667e-06C42.5538 8.84667e-06 45.284 3.50736 44.3347 7.79415L40.7565 23.9456L30.1432 23.9456L32.5694 12.994C33.0715 10.7254 31.6259 8.86999 29.3579 8.86999L13.7442 8.86999C11.4766 8.86999 13.5094 10.7266 13.0075 12.994L10.6134 23.7993L0 23.7993L3.54592 7.79414C4.49544 3.50699 8.7791 0 13.0663 0" transform="translate(103.74339 110.508095)" id="path34" fill="#1F1917" fill-rule="evenodd" stroke="none" />
        <path d="M0 32.6071L7.24436 0L17.8289 0L10.573 32.6071" transform="translate(100.74978 115.28625)" id="path36" fill="#1F1917" fill-rule="evenodd" stroke="none" />
        <path d="M41.4969 37.6781L6.25643 37.6781C1.96987 37.6781 -0.760955 34.1698 0.188576 29.8836L1.60852 23.4731L1.61505 23.4731L1.88804 22.2403C2.83691 17.9545 7.12327 14.4444 11.4088 14.4462L36.0666 14.4573L36.4304 12.8204C36.8175 10.684 35.4707 8.95253 33.3529 8.86585L4.80891 8.86585L6.77386 0L42.1969 0.0100764C46.3954 0.0928369 49.0502 3.56613 48.1122 7.80167L47.4455 10.8107L47.4513 10.8107L46.6421 14.4618L46.6499 14.4618L42.4932 33.2178L42.4854 33.2178L41.4969 37.6781L41.4969 37.6781ZM14.1041 28.8079L32.8778 28.8079L34.0985 23.3157L15.6461 23.3157C15.5574 23.3067 15.4659 23.3015 15.3727 23.3015L15.3727 23.3015C13.8611 23.3015 12.3521 24.5378 12.0188 26.0492L12.0188 26.0492C11.6891 27.5431 12.6263 28.7677 14.1068 28.7969C14.1061 28.8005 14.1053 28.8045 14.1039 28.8079" transform="translate(145.20862 110.215164)" id="path42" fill="#1F1917" fill-rule="evenodd" stroke="none" />
        <path d="M14.6036 -3.36513e-11L42.0744 -3.36513e-11C46.3615 -3.36513e-11 49.0916 3.508 48.1421 7.79414L43.2477 29.8876C42.2982 34.1741 38.0135 37.6816 33.7269 37.6816L6.25626 37.6816C1.96976 37.6816 -0.761044 34.1745 0.188611 29.8876L5.08287 7.79413C6.03276 3.50698 10.3166 -8.8467e-06 14.6036 -8.8467e-06L14.6036 -3.36513e-11ZM19.5831 8.86998L33.1653 8.86998C35.4346 8.86998 36.8791 10.7263 36.3768 12.994L33.7863 24.6881C33.2838 26.9556 31.0162 28.8119 28.7476 28.8119L15.1652 28.8119C12.8966 28.8119 11.4515 26.956 11.9539 24.6881L14.5444 12.994C15.0469 10.7254 17.3137 8.86998 19.5831 8.86998" transform="translate(233.51646 110.50811)" id="path44" fill="#66CCFF" fill-rule="evenodd" stroke="none" />
        <path d="M14.6036 -3.36513e-11L42.0747 -3.36513e-11C46.362 -3.36513e-11 49.092 3.508 48.1424 7.79414L43.2483 29.8876C42.2985 34.1741 38.0138 37.6816 33.7271 37.6816L6.25628 37.6816C1.96971 37.6816 -0.761079 34.1745 0.188629 29.8876L5.08289 7.79413C6.03277 3.50698 10.3166 -8.8467e-06 14.6036 -8.8467e-06L14.6036 -3.36513e-11ZM19.5831 8.86998L33.1658 8.86998C35.4351 8.86998 36.8795 10.7263 36.377 12.994L33.7865 24.6881C33.284 26.9556 31.0166 28.8119 28.748 28.8119L15.1653 28.8119C12.8967 28.8119 11.4514 26.956 11.954 24.6881L14.5445 12.994C15.0469 10.7254 17.3137 8.86998 19.5831 8.86998" transform="translate(278.8001 110.50811)" id="path46" fill="#66CCFF" fill-rule="evenodd" stroke="none" />
        <path d="M11.1426 3.09633e-05L4.25772 31.018L2.79017 37.6673L0 50.2955L10.5628 50.2955L13.3711 37.6673L35.7649 37.6854C40.0496 37.6877 44.3275 34.1797 45.2768 29.8947L50.1687 7.80885C51.118 3.52352 48.3863 0 44.0992 0L11.1426 0L11.1426 3.09633e-05ZM19.7486 8.87784L35.2032 8.87784C37.4724 8.87784 38.9122 10.7414 38.4101 13.0087L35.8192 24.6948C35.3169 26.9613 33.0504 28.8257 30.7824 28.8257L15.3278 28.8257L19.7486 8.87784L19.7486 8.87784Z" transform="translate(319.78125 110.500755)" id="path48" fill="#66CCFF" fill-rule="evenodd" stroke="none" />
        <path d="M39.8126 0L37.0043 12.6282L14.6104 12.6101C10.3253 12.6078 6.04781 16.1152 5.0985 20.4009L0.188523 42.5048C-0.761008 46.7903 1.9709 50.2955 6.25805 50.2955L39.2328 50.2955L47.5852 12.6283L50.3753 3.53867e-05L39.8126 3.53867e-05L39.8126 0ZM19.5929 21.4879L35.0475 21.4879L30.6086 41.4177L15.1721 41.4177C12.9031 41.4177 11.4629 39.5715 11.9652 37.3049L14.5561 25.6007C15.0583 23.334 17.3249 21.4879 19.5929 21.4879L19.5929 21.4879Z" transform="translate(190.48398 97.60078)" id="path52" fill="#66CCFF" fill-rule="evenodd" stroke="none" />
        <path d="M11.1245 0L6.84862 19.2775L6.90295 19.2775L6.72177 20.0385C6.65399 20.259 6.59045 20.4837 6.54059 20.7088L2.98947 36.707L3.0257 36.707L0 50.2955L10.5628 50.2955L13.5885 36.707L13.6066 36.707L15.9981 25.9087C16.0022 25.8915 15.9947 25.8715 15.9981 25.8544L16.9222 21.7778L32.3406 21.7778C34.6086 21.7778 36.0676 23.6401 35.5656 25.9087L33.1378 36.852L30.1664 50.2955L40.7473 50.2955L43.7368 36.852L43.7549 36.852L47.3241 20.7089C48.2734 16.4221 45.5416 12.9 41.2546 12.9L18.8426 12.9L21.7053 2.654e-05L11.1244 2.654e-05L11.1245 0Z" transform="translate(100.75295 97.60078)" id="path56" fill="#66CCFF" fill-rule="evenodd" stroke="none" />
        <path d="M41.4969 37.6781L6.25643 37.6781C1.96987 37.6781 -0.760955 34.1698 0.188576 29.8836L1.60852 23.4731L1.61505 23.4731L1.88804 22.2403C2.83691 17.9545 7.12327 14.4444 11.4088 14.4462L36.0666 14.4573L36.4304 12.8204C36.8175 10.684 35.4707 8.95253 33.3529 8.86585L4.80891 8.86585L6.77386 0L42.1969 0.0100764C46.3954 0.0928369 49.0502 3.56613 48.1122 7.80167L47.4455 10.8107L47.4513 10.8107L46.6421 14.4618L46.6499 14.4618L42.4932 33.2178L42.4854 33.2178L41.4969 37.6781L41.4969 37.6781ZM14.1041 28.8079L32.8778 28.8079L34.0985 23.3157L15.6461 23.3157C15.5574 23.3067 15.4659 23.3015 15.3727 23.3015L15.3727 23.3015C13.8611 23.3015 12.3521 24.5378 12.0188 26.0492L12.0188 26.0492C11.6891 27.5431 12.6263 28.7677 14.1068 28.7969C14.1061 28.8005 14.1053 28.8045 14.1039 28.8079" transform="translate(145.20862 110.215164)" id="path64" fill="#66CCFF" fill-rule="evenodd" stroke="none" />
        <path d="M7.16384 48.7224C6.73039 49.9022 6.29635 51.0824 5.8629 52.2628C4.78944 53.3251 3.71606 54.3893 2.64232 55.4522C1.46864 56.6149 1.21622 56.6069 1.4919 58.2516C1.81563 60.1841 2.74479 62.1755 4.45528 63.8905C6.25359 65.6932 10.0295 68.2444 12.7465 67.0418C12.494 67.9548 12.1588 68.9121 11.732 69.8481C9.91009 73.8428 14.3503 74.6253 17.4577 75.4658C20.0401 76.1641 26.378 78.0248 27.2926 74.6307C27.7038 73.1035 27.7677 72.2828 27.6212 70.8247C28.4249 69.031 28.6815 68.745 29.3466 67.758C30.2594 66.4042 30.1938 65.8889 29.9942 64.2089C29.9555 63.8851 29.9085 63.5321 29.8541 63.161C32.9294 63.6237 35.8861 63.6181 38.8999 63.2442C37.9848 63.7773 37.0672 64.2442 35.857 64.8665C32.9846 66.3429 35.6914 70.6989 36.9294 72.6065C39.5275 76.6103 41.857 79.3649 46.2459 76.9899C47.7203 76.1918 47.8341 75.3417 48.7542 73.9678C49.2625 73.689 51.8819 71.4613 53.4397 70.2028C54.0301 70.9111 55.1603 71.0416 56.8741 71.1655C57.7366 71.2281 61.1186 71.2068 62.0151 71.2125C64.7046 71.2294 66.3187 70.9502 66.5291 68.0191C66.6287 66.6291 66.5691 66.3335 65.8852 65.1185C65.8439 63.5853 65.803 62.0517 65.7622 60.5187C65.7154 58.7917 65.3856 57.7323 64.7079 56.1188C64.0916 54.6535 63.7464 53.4028 63.0269 51.9818C63.1257 51.4247 63.2039 50.8498 63.2571 50.2492C64.1715 51.1299 65.0857 52.0112 66.0001 52.8921C67.7431 54.5711 69.1834 55.9424 71.8411 55.8168C74.6089 55.6864 77.7775 53.5059 78.589 50.8387C78.8595 49.9484 79.1292 49.0583 79.3998 48.1684C83.5738 48.9572 88.4518 48.7766 92.0861 46.8376C97.4312 43.9849 99.9321 38.2497 100.547 32.1829C101.044 27.2751 100.087 19.0221 97.7469 14.544C97.059 13.2272 93.952 11.561 92.59 12.9412C91.5639 13.9814 90.859 15.5659 89.7511 16.5125C88.893 17.2457 87.8301 17.6087 86.8987 17.9924C86.1776 16.0458 85.1412 14.5327 83.8723 13.0208C82.8632 11.8192 81.9124 11.2204 80.5817 10.3871C77.9521 8.7404 75.9116 6.66162 73.5189 4.68908C66.2786 -1.2808 60.061 -1.09772 51.0399 2.69921C46.7361 4.51094 44.6602 6.96955 42.0204 10.5007C40.4252 10.5839 39.3292 10.8929 37.643 12.381C36.3983 13.4795 35.2395 14.6096 34.1178 15.7805C25.6852 17.1244 20.4482 18.7314 14.9076 23.6432C12.653 25.6421 11.0141 27.8571 9.73567 30.3471C8.54887 31.6586 7.36888 33.003 5.80189 33.6063C4.69872 34.0306 4.71923 34.0295 4.33057 32.9919C5.64223 32.0062 5.62151 30.1507 5.7429 28.4713C6.57038 28.5107 6.88056 29.4389 7.44323 30.1491C7.77523 28.664 7.96771 26.3577 6.40479 25.5482C6.65895 24.8689 6.94652 24.1842 7.20988 23.4349C4.90454 23.8351 -2.99903 29.1624 1.21804 33.2255C1.49561 34.3536 1.71419 35.1308 2.0809 35.8936C3.04579 37.9003 5.21538 38.2441 7.10595 37.5068C6.58785 39.8822 6.48284 42.4668 6.79468 46.095C6.86947 46.9648 6.995 47.8423 7.16386 48.7224" transform="translate(4.5682507 76.04127)" id="path66" fill="#000000" fill-rule="evenodd" stroke="none" />
        <path d="M8.19858 49.4414C8.02457 49.9155 7.84977 50.3905 7.67555 50.8648L6.67384 50.4975C6.84807 50.0232 7.02294 49.5482 7.19687 49.0741L8.19858 49.4414L8.19858 49.4414ZM7.67555 50.8648C7.41632 51.5701 7.15665 52.2763 6.89756 52.9818L5.89593 52.6145C6.15494 51.909 6.41461 51.2027 6.67384 50.4975L7.67555 50.8648L7.67555 50.8648ZM6.97655 53.0801L6.83149 53.3779L6.39678 52.7981L6.97655 53.0801L6.97655 53.0801ZM6.77226 53.1757C6.20364 53.7386 5.63438 54.3025 5.06554 54.8658L4.31452 54.1107C4.88335 53.5473 5.45254 52.9834 6.02123 52.4205L6.77226 53.1757L6.77226 53.1757ZM5.06554 54.8658C4.56121 55.3654 4.05623 55.8656 3.55168 56.365L2.80065 55.6099C3.3052 55.1105 3.81011 54.6103 4.31452 54.1107L5.06554 54.8658L5.06554 54.8658ZM3.55168 56.3651C3.321 56.5933 3.24273 56.6687 3.1733 56.7357L2.4346 55.9636C2.58867 55.8153 2.75876 55.6514 2.80065 55.6099L3.55168 56.3651L3.55168 56.3651ZM3.1733 56.7357C2.49004 57.3934 2.35488 57.5239 2.55164 58.6991L1.49985 58.8746C1.20982 57.143 1.41216 56.9479 2.43459 55.9636L3.1733 56.7357L3.1733 56.7357ZM2.55164 58.6991C2.71028 59.6454 3.02495 60.611 3.51885 61.5508L2.57142 62.0475C2.02636 61.0105 1.67755 59.9357 1.49985 58.8746L2.55164 58.6991L2.55164 58.6991ZM3.51885 61.5508C3.97738 62.4237 4.58774 63.269 5.36674 64.0502L4.61151 64.8013C3.74706 63.9344 3.07365 63.0034 2.57142 62.0475L3.51885 61.5508L3.51885 61.5508ZM5.36674 64.0502C6.36344 65.0495 7.99051 66.2876 9.68389 66.931L9.30834 67.9286C7.45777 67.2255 5.69047 65.8827 4.61151 64.8013L5.36674 64.0502L5.36674 64.0502ZM9.68389 66.931C10.8618 67.3787 12.0623 67.5327 13.0655 67.0888L13.4953 68.0654C12.2012 68.6382 10.7254 68.4673 9.30834 67.9287L9.68389 66.931L9.68389 66.931ZM13.0655 67.0888L14.0961 66.6326L13.7958 67.7191L13.2804 67.5771L13.0655 67.0888L13.0655 67.0888ZM13.7958 67.7191C13.6619 68.2037 13.5051 68.7006 13.325 69.199L12.3192 68.8358C12.4901 68.3627 12.6386 67.8926 12.765 67.4352L13.7958 67.7191L13.7958 67.7191ZM13.325 69.199C13.1567 69.6639 12.9663 70.1351 12.7522 70.6046L11.7797 70.1621C11.9784 69.7263 12.1581 69.281 12.3192 68.8358L13.325 69.199L13.325 69.199ZM12.7522 70.6046C11.8497 72.5833 12.7955 73.6252 14.2615 74.2939L13.819 75.2664C11.8132 74.3517 10.5245 72.9146 11.7797 70.1621L12.7522 70.6046L12.7522 70.6046ZM14.2615 74.2939C15.1983 74.721 16.3319 75.0163 17.3853 75.2907L17.1183 76.3216C16.0114 76.0333 14.8205 75.7229 13.819 75.2664L14.2615 74.2939L14.2615 74.2939ZM17.3853 75.2907C17.6637 75.3628 17.9334 75.4333 18.1272 75.4857L17.856 76.5165C17.5706 76.4393 17.3442 76.3801 17.1183 76.3216L17.3853 75.2907L17.3853 75.2907ZM18.1272 75.4857C19.3975 75.8291 21.5938 76.459 23.568 76.5841L23.501 77.6524C21.4323 77.5212 19.1674 76.8711 17.856 76.5165L18.1272 75.4857L18.1272 75.4857ZM23.568 76.5841C25.3522 76.6971 26.9429 76.3966 27.3109 75.0304L28.3419 75.3016C27.7956 77.329 25.7592 77.7956 23.501 77.6524L23.568 76.5841L23.568 76.5841ZM27.3109 75.0304C27.5057 74.3067 27.6187 73.7477 27.6658 73.1935L28.734 73.2809C28.6831 73.8831 28.558 74.4985 28.3419 75.3016L27.3109 75.0304L27.3109 75.0304ZM27.6658 73.1935C27.713 72.6365 27.6937 72.0958 27.6251 71.4101L28.6851 71.3098C28.7623 72.0819 28.7847 72.6813 28.734 73.2809L27.6658 73.1935L27.6658 73.1935ZM27.6251 71.7228L27.6707 71.143L28.2049 71.6141L27.6251 71.7228L27.6251 71.7228ZM27.6668 71.143C28.3854 69.5388 28.6816 69.1055 29.2046 68.3395L30.0851 68.9406C29.6016 69.6487 29.3277 70.0497 28.6434 71.5769L27.6668 71.143L27.6668 71.143ZM29.2046 68.3395C29.2581 68.2612 29.3037 68.1946 29.4382 67.995L30.3228 68.5915C30.2889 68.6421 30.1776 68.805 30.0851 68.9406L29.2046 68.3395L29.2046 68.3395ZM29.4382 67.995C29.846 67.39 30.0336 66.9859 30.0936 66.5681L31.1495 66.7143C31.0636 67.3125 30.8271 67.8431 30.3228 68.5916L29.4382 67.995L29.4382 67.995ZM30.0936 66.5681C30.1562 66.1292 30.0931 65.6054 29.9981 64.8048L31.058 64.6836C31.1624 65.5627 31.232 66.1374 31.1495 66.7143L30.0936 66.5681L30.0936 66.5681ZM29.9981 64.8048C29.972 64.586 29.9504 64.413 29.9354 64.3001L30.9913 64.1666C31.0233 64.4067 31.0454 64.5762 31.058 64.6836L29.9981 64.8048L29.9981 64.8048ZM29.9354 64.3001C29.9235 64.2095 29.897 64.0273 29.86 63.7736L30.9159 63.619C30.9324 63.7327 30.9572 63.9099 30.9913 64.1666L29.9354 64.3001L29.9354 64.3001ZM29.86 63.7735L29.7559 63.0611L30.4673 63.1683L30.388 63.6963L29.86 63.7735L29.86 63.7735ZM30.4672 63.1683C31.9782 63.3955 33.461 63.5079 34.936 63.5176L34.9319 64.5858C33.407 64.576 31.8728 64.4595 30.3087 64.2242L30.4672 63.1683L30.4672 63.1683ZM34.936 63.5176C36.4155 63.527 37.8871 63.4336 39.3711 63.2495L39.4964 64.3095C37.9671 64.4991 36.4525 64.5955 34.9319 64.5858L34.936 63.5176L34.936 63.5176ZM39.3711 63.2495L39.9508 64.2427L39.4813 63.7795L39.3711 63.2495L39.3711 63.2495ZM39.7008 64.2427C38.8386 64.745 37.978 65.1876 36.88 65.7517L36.3919 64.8001C37.4756 64.2434 38.3248 63.8066 39.1667 63.3162L39.7008 64.2427L39.7008 64.2427ZM36.88 65.7517C36.7999 65.7928 36.7177 65.8351 36.635 65.8776L36.1468 64.926C36.2296 64.8835 36.3118 64.8412 36.3919 64.8001L36.88 65.7517L36.88 65.7517ZM36.635 65.8776C35.5065 66.4577 35.4962 67.6757 35.8947 68.9514L34.8767 69.2687C34.3306 67.5209 34.4033 65.8223 36.1468 64.926L36.635 65.8776L36.635 65.8776ZM35.8947 68.9515C36.3469 70.3994 37.3071 71.923 37.9098 72.8518L37.0166 73.432C36.3816 72.4534 35.3689 70.8447 34.8767 69.2687L35.8947 68.9515L35.8947 68.9515ZM37.9098 72.8518C39.1714 74.7962 40.3613 76.4333 41.7276 77.2706L41.1725 78.1803C39.6275 77.2335 38.3526 75.491 37.0166 73.432L37.9098 72.8518L37.9098 72.8518ZM41.7276 77.2706C43.0185 78.062 44.528 78.1353 46.5273 77.0535L47.0323 77.9968C44.6431 79.2899 42.7928 79.1735 41.1725 78.1803L41.7276 77.2706L41.7276 77.2706ZM46.5273 77.0535C47.4721 76.5422 47.7893 75.9869 48.2163 75.2385L49.147 75.7644C48.631 76.6683 48.2478 77.3388 47.0323 77.9968L46.5273 77.0535L46.5273 77.0535ZM48.2163 75.2385C48.3863 74.9408 48.5728 74.6146 48.8458 74.2068L49.7304 74.7993C49.5118 75.1257 49.321 75.4598 49.1469 75.7644L48.2163 75.2385L48.2163 75.2385ZM48.8458 74.2475L49.0892 74.0337L49.4256 74.6135L48.8458 74.2475L48.8458 74.2475ZM49.0315 74.0337C49.3434 73.8625 50.6756 72.762 51.9713 71.6913L52.6516 72.5135C51.3118 73.6208 49.9336 74.7592 49.5447 74.9725L49.0315 74.0337L49.0315 74.0337ZM51.9713 71.6913C52.6383 71.1403 53.2963 70.5966 53.6377 70.3209L54.3095 71.1553C53.6846 71.6603 53.1704 72.0849 52.6516 72.5134L51.9713 71.6913L51.9713 71.6913ZM53.6377 70.3209L54.0469 69.9903L54.3847 70.3959L53.9736 70.7381L53.6377 70.3209L53.6377 70.3209ZM54.3847 70.3959C54.5977 70.6514 54.9346 70.8094 55.3925 70.9191L55.1464 71.9582C54.4636 71.7949 53.9395 71.5325 53.5625 71.0804L54.3847 70.3959L54.3847 70.3959ZM55.3925 70.9191C55.9182 71.0448 56.6089 71.1065 57.4456 71.1666L57.3704 72.2349C56.4934 72.1716 55.7613 72.1053 55.1464 71.9582L55.3925 70.9191L55.3925 70.9191ZM57.4456 71.1666C58.1018 71.2141 60.198 71.2131 61.5516 71.2127L61.5516 72.2809C60.1686 72.2815 58.0272 72.2826 57.3704 72.2349L57.4456 71.1666L57.4456 71.1666ZM61.5516 71.2127C61.9809 71.2124 62.3376 71.2124 62.551 71.2137L62.5466 72.2819C62.3336 72.2807 61.9786 72.2809 61.5513 72.2809L61.5513 71.2127L61.5516 71.2127ZM62.551 71.2137C63.8124 71.2215 64.8124 71.1654 65.4727 70.7913L65.9985 71.7219C65.1271 72.2156 63.9746 72.2908 62.5469 72.2819L62.5513 71.2137L62.551 71.2137ZM65.4727 70.7913C66.076 70.4494 66.4386 69.776 66.5288 68.5168L67.5971 68.592C67.4773 70.2633 66.9271 71.1958 65.9985 71.7219L65.4727 70.7913L65.4727 70.7913ZM66.5288 68.5168C66.575 67.8699 66.5859 67.484 66.5132 67.1534L67.5564 66.9236C67.6593 67.3916 67.65 67.8493 67.5971 68.592L66.5288 68.5168L66.5288 68.5168ZM66.5132 67.1534C66.4405 66.8222 66.2692 66.4789 65.9517 65.9147L66.8865 65.3929C67.2525 66.0434 67.4536 66.4561 67.5564 66.9236L66.5132 67.1534L66.5132 67.1534ZM65.9574 66.2336L65.885 65.6817L66.4648 65.6538L65.9574 66.2336L65.9574 66.2336ZM65.885 65.6664C65.8644 64.8999 65.8435 64.1329 65.8233 63.3664L66.8916 63.3413C66.9117 64.1078 66.9327 64.8749 66.9532 65.6414L65.885 65.6664L65.885 65.6664ZM65.8233 63.3664C65.803 62.6 65.7821 61.8328 65.7619 61.0666L66.8302 61.0415C66.8503 61.8078 66.8712 62.5749 66.8916 63.3413L65.8233 63.3664L65.8233 63.3664ZM65.7619 61.0666C65.7398 60.2436 65.6508 59.5832 65.4881 58.941L66.523 58.6821C66.7061 59.4042 66.8057 60.1378 66.8302 61.0415L65.7619 61.0666L65.7619 61.0666ZM65.4881 58.941C65.3239 58.294 65.0795 57.6469 64.7493 56.8608L65.7342 56.4474C66.0814 57.2743 66.341 57.9644 66.523 58.6821L65.4881 58.941L65.4881 58.941ZM64.7493 56.8608C64.5155 56.3049 64.3152 55.7648 64.119 55.2354L65.1208 54.8681C65.3077 55.3726 65.4986 55.8875 65.7342 56.4474L64.7493 56.8608L64.7493 56.8608ZM65.1997 54.866L65.1997 54.8724L64.6199 55.4458L65.1997 54.866L65.1997 54.866ZM64.1191 55.2374C63.8138 54.4141 63.5175 53.6153 63.0829 52.757L64.0385 52.2772C64.4948 53.1779 64.8032 54.0091 65.1208 54.866L64.1191 55.2374L64.1191 55.2374ZM63.0878 53.005L63.0348 52.4253L63.6146 52.5857L63.0878 53.005L63.0878 53.005ZM63.0348 52.4253C63.0874 52.1274 63.1316 51.8509 63.165 51.6004L64.221 51.734C64.1774 52.06 64.1324 52.3501 64.0866 52.6089L63.0348 52.4253L63.0348 52.4253ZM63.165 51.6004C63.1953 51.373 63.2261 51.0883 63.2569 50.7407L64.3251 50.8283C64.3027 51.0809 64.2674 51.385 64.2209 51.734L63.165 51.6004L63.165 51.6004ZM63.2569 50.7407L63.3563 49.6238L64.1604 50.3985L63.791 50.7845L63.2569 50.7407L63.2569 50.7407ZM64.1604 50.3985C64.6834 50.9022 65.2069 51.4067 65.7299 51.9107L64.9911 52.6827C64.4681 52.1788 63.9447 51.6742 63.4217 51.1705L64.1604 50.3985L64.1604 50.3985ZM65.7299 51.9107L66.9033 53.0413L66.1646 53.8134L64.9911 52.6827L65.7299 51.9107L65.7299 51.9107ZM66.9033 53.0413C67.7503 53.8574 68.524 54.5988 69.3827 55.1053L68.8403 56.0277C67.8789 55.4605 67.0602 54.6764 66.1646 53.8134L66.9033 53.0413L66.9033 53.0413ZM69.3827 55.1053C70.2085 55.5926 71.1399 55.8751 72.3499 55.818L72.4001 56.8863C70.9526 56.9547 69.8344 56.6143 68.8403 56.0278L69.3827 55.1053L69.3827 55.1053ZM72.3499 55.818C73.6556 55.7566 75.0659 55.1961 76.2383 54.3313L76.8727 55.1908C75.5374 56.1758 73.916 56.8147 72.4001 56.8863L72.3499 55.818L72.3499 55.818ZM76.2383 54.3313C77.3571 53.506 78.2491 52.4111 78.6115 51.2196L79.6341 51.5286C79.2013 52.9514 78.1645 54.2378 76.8727 55.1908L76.2383 54.3313L76.2383 54.3313ZM78.6115 51.2196C78.7364 50.8083 78.8615 50.3966 78.9862 49.9856L80.0088 50.2945C79.8842 50.7056 79.759 51.1173 79.6341 51.5286L78.6115 51.2196L78.6115 51.2196ZM78.9862 49.9856C79.1312 49.5069 79.2771 49.0276 79.4224 48.5492L80.445 48.8582C80.2997 49.3366 80.1539 49.8159 80.0088 50.2945L78.9862 49.9856L78.9862 49.9856ZM79.4224 48.5492L79.5616 48.0911L80.0317 48.18L79.9337 48.7037L79.4224 48.5492L79.4224 48.5492ZM80.0316 48.18C82.1947 48.5888 84.5501 48.7316 86.8138 48.4943L86.9182 49.5544C84.5514 49.8025 82.092 49.6536 79.8357 49.2273L80.0316 48.18L80.0316 48.18ZM86.8138 48.4943C88.8026 48.2858 90.7207 47.7809 92.3695 46.9012L92.8703 47.8445C91.0989 48.7898 89.0448 49.3313 86.9182 49.5544L86.8138 48.4943L86.8138 48.4943ZM92.3695 46.9012C94.7846 45.6123 96.5983 43.7085 97.9042 41.4463L98.8307 41.9764C97.4275 44.407 95.4748 46.4546 92.8703 47.8445L92.3695 46.9012L92.3695 46.9012ZM97.9042 41.4489L97.9042 41.4442L98.484 42.0239L97.9042 41.4486L97.9042 41.4489ZM97.9042 41.4442C99.3965 38.8594 100.232 35.8095 100.551 32.6679L101.611 32.7681C101.277 36.0616 100.399 39.2619 98.8307 41.9783L97.9042 41.4442L97.9042 41.4442ZM100.551 32.6679C100.81 30.1076 100.666 26.6158 100.13 23.2388L101.182 23.072C101.732 26.5353 101.878 30.1265 101.611 32.7681L100.551 32.6679L100.551 32.6679ZM100.13 23.2388C99.6576 20.26 98.8801 17.3792 97.807 15.3255L98.7546 14.8329C99.8805 16.9881 100.692 19.9849 101.182 23.072L100.13 23.2388L100.13 23.2388ZM97.807 15.3255C97.7231 15.1645 97.5834 14.9888 97.404 14.8118L98.151 14.0479C98.4086 14.3025 98.6173 14.5697 98.7545 14.8329L97.807 15.3255L97.807 15.3255ZM97.404 14.8118C96.9461 14.36 96.2657 13.9321 95.5611 13.6897L95.9074 12.6798C96.7633 12.9742 97.5916 13.496 98.151 14.0479L97.404 14.8118L97.404 14.8118ZM95.5611 13.6897C94.9074 13.4647 94.2486 13.4027 93.7781 13.6486L93.2855 12.7012C94.0446 12.3045 95.0006 12.3679 95.9074 12.6798L95.5611 13.6897L95.5611 13.6897ZM93.7781 13.6486C93.6796 13.7 93.5875 13.7669 93.5058 13.8499L92.7419 13.103C92.9055 12.9372 93.0885 12.8039 93.2855 12.7012L93.7781 13.6486L93.7781 13.6486ZM93.5058 13.8499C93.069 14.2927 92.6857 14.8524 92.3015 15.4136L91.421 14.8126C91.836 14.2061 92.2503 13.6013 92.7419 13.103L93.5058 13.8499L93.5058 13.8499ZM92.3015 15.4136C91.7962 16.1518 91.2885 16.8932 90.6313 17.4546L89.9386 16.6407C90.4944 16.166 90.9588 15.4876 91.421 14.8126L92.3015 15.4136L92.3015 15.4136ZM90.6313 17.4546C89.8269 18.142 88.8942 18.5161 88.0281 18.8635L87.6316 17.8704C88.4193 17.5547 89.2673 17.2143 89.9386 16.6407L90.6313 17.4546L90.6313 17.4546ZM88.0281 18.8635C87.8771 18.9239 87.729 18.9835 87.6349 19.0221L87.2302 18.0331C87.3962 17.965 87.5143 17.9175 87.6316 17.8704L88.0281 18.8635L88.0281 18.8635ZM87.6349 19.0221L87.1248 19.2323L86.9317 18.7113L87.4326 18.5276L87.6349 19.0221L87.6349 19.0221ZM86.9317 18.7113C86.5864 17.7786 86.1626 16.9456 85.672 16.1624L86.5775 15.5951C87.1024 16.4328 87.5581 17.3303 87.9334 18.344L86.9317 18.7113L86.9317 18.7113ZM85.672 16.1624C85.1763 15.371 84.6143 14.6336 83.9971 13.8982L84.8151 13.2137C85.4664 13.9898 86.058 14.7657 86.5775 15.5951L85.672 16.1624L85.672 16.1624ZM83.9971 13.8982C83.5203 13.3304 83.0576 12.9051 82.5581 12.5247L83.2048 11.6775C83.7652 12.1044 84.2831 12.5801 84.8152 13.2137L83.9971 13.8982L83.9971 13.8982ZM82.5581 12.5247C82.0595 12.1448 81.4929 11.7888 80.8318 11.3751L81.3992 10.4695C82.0685 10.8886 82.6431 11.2496 83.2047 11.6775L82.5581 12.5247L82.5581 12.5247ZM80.8318 11.3751C78.9694 10.2089 77.4083 8.83944 75.8157 7.44225L76.5167 6.63702C78.0757 8.00477 79.6039 9.34521 81.3992 10.4695L80.8318 11.3751L80.8318 11.3751ZM75.8157 7.44225C75.1452 6.85435 74.4688 6.26081 73.7125 5.63734L74.393 4.81108C75.0928 5.38818 75.8082 6.01556 76.5167 6.63702L75.8157 7.44225L75.8157 7.44225ZM73.7125 5.63734C70.1849 2.72867 66.9179 1.31939 63.4475 1.10082L63.5145 0.0325801C67.218 0.265725 70.6808 1.75038 74.393 4.81108L73.7125 5.63734L73.7125 5.63734ZM63.4475 1.10082C59.9515 0.880781 56.2157 1.85988 51.7804 3.72683L51.367 2.74201C55.9523 0.811945 59.8366 -0.198751 63.5145 0.0325801L63.4475 1.10082L63.4475 1.10082ZM51.7804 3.72682C49.6901 4.60649 48.1432 5.64146 46.801 6.88269L46.0791 6.09796C47.5103 4.77434 49.154 3.67341 51.3671 2.742L51.7804 3.72682L51.7804 3.72682ZM46.801 6.88269C45.4486 8.13333 44.2858 9.61082 42.982 11.3551L42.1265 10.7167C43.462 8.93001 44.6581 7.41209 46.0791 6.09796L46.801 6.88269L46.801 6.88269ZM43.134 11.3824L42.9296 11.6016L42.591 11.6157L42.5543 11.0359L43.134 11.3824L43.134 11.3824ZM42.5813 11.57C41.8385 11.6086 41.2165 11.6984 40.5979 11.9458L40.2015 10.9527C40.9504 10.6532 41.6746 10.5459 42.5271 10.5018L42.5813 11.57L42.5813 11.57ZM40.5979 11.9458C39.9699 12.1967 39.3226 12.6169 38.5296 13.3168L37.8242 12.5156C38.7168 11.7278 39.4617 11.2485 40.2014 10.9527L40.5979 11.9458L40.5979 11.9458ZM38.5296 13.3168C37.9189 13.8556 37.3237 14.4077 36.7395 14.9728L35.9966 14.2049C36.5829 13.6377 37.1902 13.0748 37.8242 12.5156L38.5296 13.3168L38.5296 13.3168ZM36.9478 15.1655L36.9447 15.1688L36.368 14.589L36.9478 15.1657L36.9478 15.1655ZM36.7374 14.975C36.1588 15.5346 35.5936 16.1049 35.0377 16.6852L34.2657 15.9465C34.8308 15.3565 35.4069 14.7753 35.9987 14.203L36.7374 14.975L36.7374 14.975ZM35.2315 16.7231L34.777 16.8956L34.6517 16.3158L35.2315 16.7231L35.2315 16.7231ZM34.7351 16.8418C30.5597 17.5071 27.176 18.2374 24.1539 19.408L23.7701 18.4104C26.8599 17.2138 30.3115 16.4682 34.5683 15.7899L34.7351 16.8418L34.7351 16.8418ZM24.1539 19.408C21.1579 20.5685 18.5137 22.1682 15.7942 24.5792L15.0888 23.778C17.9094 21.2773 20.6552 19.6169 23.7701 18.4104L24.1539 19.408L24.1539 19.408ZM15.7942 24.5792C14.6923 25.556 13.742 26.5842 12.913 27.6697L12.0658 27.023C12.9391 25.8792 13.9363 24.7995 15.0888 23.778L15.7942 24.5792L15.7942 24.5792ZM12.913 27.6697C12.0837 28.7556 11.3711 29.9054 10.7453 31.1245L9.79375 30.6404C10.446 29.3698 11.1928 28.1664 12.0658 27.023L12.913 27.6697L12.913 27.6697ZM10.8493 31.2757L10.7527 31.4622L10.2695 30.8824L10.8493 31.2757L10.8493 31.2757ZM10.666 31.2393C10.0586 31.9104 9.45234 32.5908 8.80212 33.1761L8.08849 32.379C8.71624 31.8137 9.29399 31.1655 9.87304 30.5256L10.666 31.2393L10.666 31.2393ZM8.80212 33.1761C8.12052 33.7897 7.3816 34.3115 6.52759 34.6404L6.14385 33.6428C6.85647 33.3683 7.4919 32.916 8.08849 32.379L8.80212 33.1761L8.80212 33.1761ZM6.91553 34.7214L6.90939 34.7214L6.33575 34.1416L6.91553 34.7214L6.91553 34.7214ZM6.52556 34.6404C5.84019 34.9038 5.50515 35.0358 5.12555 34.875L5.53886 33.8901C5.5561 33.8974 5.72829 33.8032 6.14588 33.6428L6.52556 34.6404L6.52556 34.6404ZM5.12928 34.9623L5.12345 34.9597L5.70322 34.3825L5.12928 34.9622L5.12928 34.9623ZM5.12344 34.8729C4.72311 34.703 4.61136 34.3741 4.36358 33.7128L5.36528 33.3414C5.50595 33.7173 5.50312 33.8761 5.54088 33.8922L5.12344 34.8729L5.12344 34.8729ZM4.36358 33.7128L4.22429 33.3408L4.54519 33.0994L4.86443 33.5271L4.36358 33.7128L4.36358 33.7128ZM4.54519 33.0994C5.52675 32.3618 5.6198 30.8931 5.70916 29.4784L6.7774 29.5454C6.67303 31.1995 6.56397 32.9176 5.18367 33.9548L4.54519 33.0994L4.54519 33.0994ZM5.70916 29.4813C5.72069 29.2952 5.73257 29.1101 5.74264 28.9689L6.81088 29.0446C6.79689 29.239 6.78703 29.3944 6.7774 29.5487L5.70916 29.4813L5.70916 29.4813ZM5.74264 28.9885L5.78202 28.4478L6.32242 28.4733L6.29642 29.0276L5.74264 28.9885L5.74264 28.9885ZM6.30184 28.4724C7.18295 28.5143 7.58437 29.136 8.01739 29.8065L7.12004 30.3826C6.84334 29.9541 6.58658 29.5565 6.25169 29.5407L6.30183 28.4724L6.30184 28.4724ZM8.01739 29.8065C8.1382 29.9937 8.26271 30.1864 8.39439 30.3526L7.55987 31.0161C7.39391 30.8065 7.25506 30.5916 7.12004 30.3826L8.01739 29.8065L8.01739 29.8065ZM8.49875 30.7991L8.25445 31.8922L7.55987 31.0161L7.9771 30.6843L8.49875 30.7991L8.49875 30.7991ZM7.45552 30.5695C7.6359 29.7628 7.77417 28.705 7.57879 27.8391L8.6179 27.6053C8.85661 28.6629 8.70355 29.883 8.49875 30.7991L7.45552 30.5695L7.45552 30.5695ZM7.57879 27.8391C7.45472 27.2885 7.18889 26.8152 6.69463 26.5592L7.18273 25.6077C7.99993 26.031 8.42845 26.7649 8.6179 27.6053L7.57879 27.8391L7.57879 27.8391ZM6.69463 26.5592L6.27227 26.3404L6.43779 25.8978L6.93865 26.0835L6.69463 26.5592L6.69463 26.5592ZM6.43779 25.8978C6.51671 25.6867 6.63158 25.3938 6.74964 25.0928L7.74272 25.4811C7.65032 25.7167 7.55763 25.9536 7.4395 26.2692L6.4378 25.8978L6.43779 25.8978ZM6.74964 25.0928C6.90705 24.691 7.06873 24.279 7.23882 23.7949L8.24872 24.1454C8.09668 24.5778 7.91716 25.0356 7.74272 25.4811L6.74964 25.0928L6.74964 25.0928ZM7.65401 23.4442L8.55006 23.2888L8.24872 24.1454L7.74374 23.9702L7.65402 23.4443L7.65401 23.4442ZM7.83353 24.4961C6.79921 24.6756 4.52134 25.9538 2.86783 27.67L2.09578 26.9313C3.89968 25.059 6.46185 23.6512 7.65402 23.4442L7.83353 24.4961L7.83353 24.4961ZM2.86782 27.67C2.26855 28.292 1.76052 28.9638 1.43969 29.6485L0.471685 29.2019C0.849842 28.395 1.42592 27.6267 2.09578 26.9313L2.86782 27.67L2.86782 27.67ZM1.43969 29.6485C1.13357 30.3014 0.993844 30.9696 1.10647 31.6184L0.0546083 31.7979C-0.0980189 30.9187 0.0782333 30.0411 0.471685 29.2019L1.43969 29.6485L1.43969 29.6485ZM1.10647 31.6184C1.20858 32.2078 1.52514 32.8003 2.12129 33.3746L1.38251 34.1467C0.609741 33.402 0.194914 32.6076 0.0546083 31.7979L1.10647 31.6184L1.10647 31.6184ZM2.16572 33.3746L2.33167 33.7631L1.7519 33.9544L2.16572 33.3746L2.16572 33.3746ZM2.26942 33.6333C2.40502 34.1851 2.52662 34.6516 2.65888 35.0732L1.6408 35.3904C1.50296 34.9511 1.37599 34.464 1.23445 33.888L2.26942 33.6333L2.26942 33.6333ZM2.65888 35.0732C2.78542 35.4765 2.92348 35.839 3.09669 36.1994L2.13281 36.6583C1.93946 36.256 1.78436 35.8477 1.6408 35.3904L2.65888 35.0732L2.65888 35.0732ZM3.09669 36.1994C3.48086 36.9984 4.08868 37.485 4.7892 37.7099L4.46379 38.728C3.49543 38.417 2.65787 37.7503 2.13281 36.6583L3.09669 36.1994L3.09669 36.1994ZM4.7892 37.7099C5.60646 37.9723 6.55736 37.8919 7.44565 37.5455L7.83396 38.5386C6.7234 38.9716 5.51848 39.0666 4.4638 38.728L4.7892 37.7099L4.7892 37.7099ZM7.44565 37.5455L8.37322 37.1838L8.16138 38.1547L7.63981 38.042L7.44565 37.5455L7.44565 37.5455ZM8.16138 38.1547C7.90976 39.309 7.75793 40.5188 7.70699 41.8851L6.63875 41.8477C6.69195 40.421 6.85218 39.15 7.11823 37.9295L8.16138 38.1547L8.16138 38.1547ZM7.70699 41.8851C7.65626 43.2518 7.708 44.7852 7.86273 46.5864L6.79442 46.674C6.63752 44.8472 6.5857 43.2736 6.63875 41.8477L7.70699 41.8851L7.70699 41.8851ZM7.86273 46.5864C7.90215 47.0449 7.9494 47.4673 8.00362 47.8535L6.9477 47.9953C6.88052 47.516 6.82878 47.0743 6.79442 46.674L7.86273 46.5864L7.86273 46.5864ZM8.00362 47.8535C8.06341 48.2791 8.13653 48.7147 8.2214 49.1574L7.1741 49.3579C7.08823 48.9103 7.0122 48.4558 6.9477 47.9953L8.00362 47.8535L8.00362 47.8535ZM8.27748 49.1574L8.2522 49.7372L7.69771 49.3621" transform="translate(4.034367 75.50595)" id="path68" fill="#000000" fill-rule="evenodd" stroke="none" />
        <path d="M33.7209 15.7355L26.6883 16.8783L20.271 19.6913L14.8207 23.1198L9.6342 29.4491L6.70409 32.5523L3.87094 33.5966L3.12158 31.7652L4.4318 29.8739L4.72618 27.2068L5.60382 27.2422L6.56277 28.1168L6.30411 25.4L5.24117 24.687L5.27342 23.6516L2.75545 25.0761L0.475343 27.7662L0 30.1706L0.974963 32.0959L1.88441 35.3668L3.73397 36.2425L5.67962 36.147L7.5244 35.0751L6.29382 41.3165L7.5244 48.2611L6.16975 51.4677L1.7328 56.2483L2.52166 59.1044L4.62349 62.4142L8.58684 65.2033L10.689 65.4909L13.0262 65.5702L11.5681 71.5565L16.9305 73.7543L23.6116 74.6333L25.897 73.139L26.0729 69.0953L28.6223 64.8757L28.7981 61.5351L34.9516 61.9748L40.6655 61.4472L34.9516 64.8757L35.9186 69.0073L39.5227 74.6333L43.0391 76.1278L45.852 74.985L46.9949 72.6994L52.8846 68.2162L54.0274 69.1832L63.2577 69.5347L65.1038 68.0404L65.2796 65.403L64.6643 64.2604L64.2247 57.1399L61.148 50.9864L61.6752 48.2611L63.5215 49.2281L68.708 54.0631L71.2572 54.2388L74.0702 53.096L76.8834 50.9864L78.2898 46.4151L86.5531 46.9425L91.5638 45.0085L95.6076 41.2286L98.5084 35.7783L99.2119 29.3612L98.5964 21.889L97.0142 15.2082L95.4317 13.0984L93.2342 12.3949L89.3661 16.6145L85.8499 17.8453L82.7731 12.7467L79.6964 9.93365L78.026 8.87876L71.3452 3.34053L65.9828 0.439617L60.6203 0L54.3791 1.0549L48.9288 3.0768L45.1488 6.15353L42.16 9.75784L39.0833 10.6369L33.7209 15.7355L33.7209 15.7355Z" transform="translate(5.2583194 76.937004)" id="path70" fill="#FFFF00" fill-rule="evenodd" stroke="#1F1917" stroke-width="0.216" />
        <path d="M6.6743 15.6387C0.650221 22.6647 1.98841 31.1863 3.65795 39.5348C2.76698 37.2837 1.87579 35.0328 0.984895 32.7817C0.6566 30.7181 0.3283 28.6545 0 26.591C0.0937083 24.4805 0.187558 22.3701 0.281483 20.2597C1.12556 18.2432 1.96972 16.2267 2.8138 14.2099C4.0801 12.3341 5.3464 10.4581 6.6127 8.58213C8.58234 6.94072 10.5521 5.2993 12.5217 3.65796C14.679 2.76699 16.8364 1.87579 18.9937 0.984829C21.526 0.656529 24.0586 0.3283 26.5912 0C24.2461 2.67306 21.9014 5.3464 19.5563 8.01945C13.908 9.85146 10.5769 11.0853 6.6743 15.6387" transform="translate(11.908557 92.89931)" id="path72" fill="#FFFFCC" fill-rule="evenodd" stroke="none" />
        <path d="M19.5565 0C15.3686 4.08582 13.0811 7.16732 10.416 11.9514C8.50965 15.3738 6.37129 18.6697 4.36708 22.0441C3.35327 23.7521 3.25754 25.1843 2.95454 27.1538C1.96971 25.9814 0.984895 24.809 0 23.6366C0.469041 22.2296 0.938003 20.8226 1.40704 19.4158C3.00157 16.555 4.59617 13.6941 6.19055 10.8335C9.56724 7.5036 12.9439 4.17395 16.3206 0.844149C17.3991 0.562666 18.4778 0.281395 19.5565 0" transform="translate(27.384789 87.130775)" id="path74" fill="#FFFFCC" fill-rule="evenodd" stroke="none" />
        <path d="M20.4006 0C17.0466 1.25761 11.4762 1.67177 11.0898 5.52156C10.8145 8.25549 11.2959 9.62918 12.9439 12.5217C8.87361 8.30991 7.86697 8.96173 0 10.2706C1.12556 8.67597 2.25112 7.08145 3.37669 5.48685C5.34633 4.26765 7.31626 3.04816 9.2859 1.8289C11.8183 1.26609 14.3509 0.703337 16.8834 0.140529C18.0558 0.093642 19.2282 0.0468166 20.4006 8.84667e-06" transform="translate(47.2226 77.00094)" id="path76" fill="#FFFFCC" fill-rule="evenodd" stroke="none" />
        <path d="M2.71805 6.19091C3.83477 6.88011 3.81077 7.37952 3.62402 7.85204C4.50492 7.49946 5.38559 7.14717 6.26648 6.79503C6.83722 6.02879 7.4077 5.26275 7.97835 4.4963C8.40195 3.40458 8.82556 2.31294 9.24914 1.22108C8.70785 0.814149 8.16678 0.407141 7.62542 0C5.25986 0.30199 2.89417 0.603979 0.528606 0.905969C0.352504 1.38421 0.176243 1.86245 0 2.34048C0.0505145 3.02005 0.100887 3.69939 0.151172 4.37896C0.377576 4.78162 0.60421 5.18449 0.830596 5.58692C1.1831 5.76318 1.53539 5.93943 1.88753 6.11546C2.16467 6.14075 2.44136 6.16605 2.71805 6.19091" transform="translate(74.1605 122.88399)" id="path78" fill="#CCCC00" fill-rule="evenodd" stroke="none" />
        <path d="M4.58008 0C1.0228 1.02692 1.05056 1.30978 0 4.83895C1.38684 2.61392 2.4136 1.49104 4.58008 0" transform="translate(71.63782 116.93817)" id="path80" fill="#CCCC00" fill-rule="evenodd" stroke="none" />
        <path d="M8.35326 1.76934e-05C7.72093 0.292161 7.10529 0.432824 6.71002 1.01136C5.85892 2.2565 5.12964 3.30394 3.72224 4.1781C3.01346 4.61851 2.28026 4.90369 1.52858 5.13784C0.905103 5.33177 0.530783 5.15864 0 5.5399C0.314888 5.59491 0.629635 5.64999 0.944524 5.70528C1.63872 5.70528 2.33287 5.70528 3.02701 5.70528C3.88282 5.17668 4.73851 4.64814 5.5941 4.11974C6.09764 3.59113 6.60075 3.06281 7.10405 2.53419C7.52041 1.68946 7.93683 0.844513 8.35326 0" transform="translate(91.51832 90.52758)" id="path82" fill="#CCCC00" fill-rule="evenodd" stroke="none" />
        <path d="M4.74263 8.30476C3.34298 12.1342 2.12031 15.4171 0 18.8844C2.71683 15.9574 4.36361 13.4695 5.91958 10.1603C6.52392 8.8749 6.63813 7.36639 8.32165 7.92741C8.39724 9.21096 8.66865 10.4943 8.74424 11.7778C9.65391 5.25719 12.2189 2.5305 18.1816 0C16.4954 0.201545 14.8092 0.402647 13.1232 0.60398C11.5377 0.956484 9.9522 1.30863 8.36667 1.66091C7.58643 2.79351 6.8062 3.92603 6.02618 5.0584C5.59823 6.14054 5.17051 7.22277 4.74263 8.30478" transform="translate(38.46315 90.11735)" id="path84" fill="#CCCC00" fill-rule="evenodd" stroke="none" />
        <path d="M22.1846 0C23.4704 6.0522 25.3218 11.8604 26.1261 18.0086C26.6484 22.0036 26.7055 23.923 24.6954 27.3695C22.4987 27.2275 21.1348 27.4753 19.01 28.1715C10.551 30.9445 5.6997 35.0215 0 26.8066C1.81948 27.6639 3.63918 28.5214 5.45851 29.3791C6.75561 29.1241 8.05271 28.8692 9.34982 28.6142C11.6399 27.2804 13.9301 25.9467 16.2203 24.6128C18.0071 24.2603 19.794 23.9082 21.5806 23.5559C22.1595 21.14 22.7382 18.7239 23.3171 16.3081C22.8892 13.1117 22.4613 9.9156 22.0336 6.71945C21.9835 5.20956 21.9331 3.69961 21.8826 2.18952C21.9835 1.45959 22.0842 0.729868 22.1846 8.84667e-06" transform="translate(32.57262 98.27115)" id="path86" fill="#CCCC00" fill-rule="evenodd" stroke="none" />
        <path d="M10.9475 6.87049C10.2369 11.7875 12.5835 14.4308 11.612 15.7885C11.3368 16.1731 10.9639 16.8438 10.5477 17.0277C9.06081 17.6845 7.01674 16.9048 6.87049 17.2894C5.23465 17.2894 3.59896 17.2894 1.96291 17.2894C1.30885 17.0123 0.654503 16.7355 0 16.4588C1.00664 15.2759 2.01341 14.093 3.02005 12.9104C4.00139 10.7712 4.98295 8.63184 5.96451 6.49291C6.59379 4.32868 7.22299 2.16444 7.85182 0C8.1791 0 8.50632 0 8.83338 0C9.53825 2.29019 10.2428 4.5803 10.9475 6.87049" transform="translate(58.381256 128.84848)" id="path88" fill="#CCCC00" fill-rule="evenodd" stroke="none" />
        <path d="M20.2382 0C20.6367 2.23264 21.329 2.76306 22.3792 4.92418C21.6801 8.44979 20.5572 12.6427 19.2059 15.7534C18.636 17.0653 18.176 17.7885 17.1713 18.8023C15.475 20.5153 13.7601 22.0075 11.8362 23.4921C10.4516 24.5596 9.48505 24.0242 7.77645 23.7822C7.04985 25.0995 6.8491 25.8312 5.51178 26.4999C3.45496 27.5283 1.61431 25.3121 0 24.0086C1.16542 25.829 2.33084 27.6493 3.49604 29.4696C4.30157 30.2246 5.10688 30.9796 5.91219 31.7347C6.59154 31.8352 7.2711 31.9358 7.95067 32.0367C8.85665 31.4829 9.76255 30.9292 10.6685 30.3756C11.1468 29.4696 11.625 28.5637 12.103 27.6578C13.1097 26.9027 14.1165 26.1478 15.1229 25.3926C16.3563 24.3357 17.5895 23.2787 18.8225 22.2218C19.6028 21.1143 20.3828 20.007 21.163 18.8997C21.8675 17.5911 22.5723 16.2823 23.2769 14.9737C24.1829 12.2559 25.0888 9.53782 25.995 6.8199C26.0704 5.78783 26.146 4.75612 26.2214 3.72448C25.0888 3.22095 23.9565 2.71763 22.8239 2.21431C21.9934 1.43408 21.0688 0.78002 20.2381 8.84667e-06" transform="translate(40.842247 121.42461)" id="path90" fill="#CCCC00" fill-rule="evenodd" stroke="none" />
        <path d="M0.0755859 5.81326C3.88616 5.81326 7.91031 5.60193 11.4004 4.00139C12.3881 2.51963 13.3629 1.30957 14.5715 0C13.4716 2.07733 13.1267 3.25152 12.835 5.58693C12.4573 6.14032 12.08 6.69415 11.7024 7.24784C8.83331 7.32343 5.96451 7.39879 3.09542 7.47438C2.16423 7.37357 1.23297 7.27291 0.301919 7.17239C0.201328 7.07158 0.100666 6.97092 0 6.8704C0.0252219 6.5179 0.0505145 6.16561 0.0755904 5.81325" transform="translate(33.91944 131.34)" id="path92" fill="#CCCC00" fill-rule="evenodd" stroke="none" />
        <path d="M14.8848 2.68045C14.7862 1.78723 14.6876 0.893655 14.589 0C13.938 3.91863 14.0945 6.54465 12.291 10.0549C10.9438 11.6159 9.28511 13.0363 7.38533 13.7964C7.54571 14.7588 7.59361 15.3601 7.50056 16.0658C7.16588 18.6039 2.08842 17.4827 0 17.3816C3.35103 18.2444 6.70206 19.107 10.0528 19.9698C10.8078 19.6679 11.5627 19.3659 12.3179 19.0639C12.5696 17.6043 12.8212 16.1445 13.0729 14.6849C13.7775 13.3763 14.4824 12.0675 15.1868 10.7591C15.3125 9.95358 15.4385 9.14828 15.5644 8.34304C15.3378 6.45551 15.1114 4.56798 14.8848 2.68045" transform="translate(18.581617 131.83034)" id="path94" fill="#CCCC00" fill-rule="evenodd" stroke="none" />
        <path d="M0.0750949 0C-0.0302777 1.90536 -0.153335 2.6998 0.686904 4.38267C1.75514 6.52167 3.06703 8.53118 4.22774 10.6453C4.3534 9.23582 4.47914 7.82654 4.6051 6.41732C3.09514 4.2781 1.58519 2.13894 0.0750949 8.84667e-06" transform="translate(27.7288 112.38969)" id="path96" fill="#CCCC00" fill-rule="evenodd" stroke="none" />
        <path d="M3.14992 0C2.82307 0.695658 2.49622 1.39146 2.16938 2.08704C3.06897 5.11695 3.86848 7.0363 5.58143 9.68326C5.28313 10.7558 5.05984 11.225 4.37346 12.0992C2.86597 11.8672 1.52742 11.8002 0 11.8048C1.68642 13.1134 3.37262 14.422 5.05861 15.7308C5.88892 15.5798 6.71952 15.4288 7.55005 15.2778C8.38044 14.4473 9.21097 13.6169 10.0416 12.7864C8.85846 10.9491 7.67579 9.11197 6.49312 7.2748C5.37865 4.84989 4.26417 2.42477 3.14992 0" transform="translate(9.155567 126.78304)" id="path98" fill="#CCCC00" fill-rule="evenodd" stroke="none" />
        <path d="M24.1366 0C25.1634 4.62038 26.4878 8.88346 26.365 13.6154C26.2142 19.4207 25.0827 26.7538 19.7038 30.2546C13.6802 34.1751 6.60915 32.3208 0 30.6411C2.69298 31.7483 5.38582 32.8554 8.07844 33.9629C10.5952 34.0888 13.1119 34.2145 15.6284 34.3405C17.3399 33.8369 19.0511 33.3336 20.7624 32.8305C22.0963 31.7231 23.4302 30.6158 24.7638 29.5085C25.7705 27.3946 26.7771 25.2805 27.7839 23.1666C28.1613 20.7252 28.5389 18.2841 28.9162 15.8432C28.6142 13.4521 28.3122 11.0615 28.0103 8.6707C27.4566 6.30492 26.9028 3.93916 26.3493 1.57381C25.6119 1.04912 24.8743 0.524643 24.1366 8.84667e-06" transform="translate(75.74602 89.52509)" id="path100" fill="#CCCC00" fill-rule="evenodd" stroke="none" />
        <path d="M3.5577 1.60134C0.822976 3.38118 -0.251061 4.16264 0.0486843 7.46128C0.321106 8.44921 0.593672 9.43737 0.866313 10.4252C1.2523 10.6866 1.6385 10.9477 2.02456 11.209C2.50157 11.3678 2.97858 11.5268 3.45559 11.6858C4.31859 11.4814 5.18166 11.277 6.04487 11.0725C6.48774 9.6984 6.93069 8.32434 7.37357 6.9502C6.14698 7.55208 4.92054 8.15403 3.6941 8.75591C3.41016 8.75591 3.12628 8.75591 2.84234 8.75591C2.52433 8.2676 2.20632 7.77927 1.88832 7.29096C2.27452 6.72315 2.66058 6.15532 3.04678 5.58751C3.25115 4.50861 3.45559 3.42966 3.65996 2.35098C3.92108 2.43049 4.18242 2.50977 4.44353 2.58928C4.76154 2.8393 5.07954 3.08904 5.39755 3.33886C5.35211 2.77104 5.30674 2.20322 5.26116 1.6354C5.04541 1.27203 4.82973 0.90865 4.61384 0.545202C4.39809 0.363377 4.18241 0.181834 3.96652 0C3.83027 0.533896 3.69409 1.06766 3.5577 1.60133" transform="translate(6.430931 101.69407)" id="path102" fill="#CCCC00" fill-rule="evenodd" stroke="none" />
        <path d="M0 8.84667e-06C2.4268 2.2536 5.40576 4.21258 7.34691 6.96688C8.09815 8.03324 8.93303 8.57844 7.33415 10.0843C9.02341 9.60174 9.65101 9.65414 11.0032 9.81807C13.463 10.1157 15.7686 13.6124 15.9157 16.1183C15.8867 16.3526 15.2324 16.8845 13.3305 17.4096C13.2927 17.4827 12.2571 17.2678 12.2828 17.3379C12.4805 17.8788 12.7446 17.9616 13.1479 18.2147C13.2354 18.8162 13.2917 19.7437 13.7013 20.4013C14.8982 20.3803 16.0677 20.5106 17.2397 20.7427C17.6341 21.3968 17.5745 22.0509 17.5417 22.7056C17.9946 22.6302 18.4477 22.5546 18.9006 22.4792C18.7747 21.4471 18.649 20.4155 18.5232 19.3838C18.9257 18.7042 19.3283 18.0246 19.7311 17.3453C19.1521 16.0367 18.5733 14.728 17.9946 13.4193C16.8872 12.3623 15.7799 11.3053 14.6726 10.2482C14.5662 10.2431 14.4592 10.2375 14.3528 10.2324C13.1074 9.46796 11.8623 8.70396 10.6172 7.93974C8.58605 6.27804 6.55496 4.6161 4.52385 2.95432C3.01578 1.9695 1.50793 0.984678 0 0" transform="translate(71.34133 77.30204)" id="path104" fill="#CCCC00" fill-rule="evenodd" stroke="none" />
        <path d="M9.22293 0C9.09494 0.223936 8.90159 0.581801 8.65388 0.829579C9.66479 1.78585 10.1635 2.42614 10.5239 3.77855C9.38106 4.34593 8.23848 4.91331 7.09566 5.48077C6.12867 6.40769 5.16167 7.33474 4.19475 8.26166C2.92207 7.57658 2.60486 7.05044 1.989 5.74435C1.27182 5.93416 0.59224 6.117 0 5.89966C0.375762 5.90255 0.60666 5.80863 0.981998 5.5765C1.59743 4.93715 2.21271 4.29788 2.82799 3.65853C3.91493 2.83538 5.00187 2.01225 6.08858 1.18927C6.79981 0.957351 7.51121 0.725595 8.22245 0.493901C8.49399 0.382141 8.95108 0.111972 9.22292 0" transform="translate(66.206764 95.904144)" id="path106" fill="#CCCC00" fill-rule="evenodd" stroke="none" />
        <path d="M8.97701 0C5.34125 1.95761 1.85897 3.92645 0 7.64434C0 2.92518 4.73829 0.847856 8.97701 0" transform="translate(69.607086 99.31454)" id="path108" fill="#CCCC00" fill-rule="evenodd" stroke="none" />
        <path d="M4.80782 8.84667e-06C2.10825 1.84073 0.199196 5.55534 0.439145 9.17567C-0.440303 6.04097 -0.12867 3.07883 2.57149 0.913578C3.0272 0.692101 3.48261 0.470625 3.93802 0.249228C4.22813 0.166176 4.51801 0.0831941 4.80782 0" transform="translate(64.077354 90.03145)" id="path110" fill="#CCCC00" fill-rule="evenodd" stroke="none" />
        <g id="g124" transform="translate(49.637604 0)">
          <g id="Mask-group">
            <path d="M33.7209 15.7355L26.6883 16.8784L20.271 19.6913L14.8207 23.1198L9.6342 29.4491L6.70409 32.5523L3.87094 33.5966L3.12158 31.7652L4.43181 29.8739L4.72619 27.2068L5.60382 27.2422L6.56277 28.1168L6.30411 25.4L5.24117 24.687L5.27342 23.6516L2.75545 25.0761L0.475345 27.7662L0 30.1706L0.974965 32.0959L1.88442 35.3668L3.73397 36.2425L5.67962 36.147L7.5244 35.0751L6.29383 41.3165L7.5244 48.2611L6.16975 51.4677L1.73281 56.2483L2.52166 59.1044L4.62349 62.4142L8.58684 65.2033L10.689 65.491L13.0262 65.5702L11.5681 71.5565L16.9305 73.7543L23.6116 74.6333L25.897 73.139L26.0728 69.0953L28.6223 64.8757L28.7981 61.5351L34.9516 61.9748L40.6655 61.4472L34.9516 64.8757L35.9186 69.0073L39.5227 74.6333L43.0391 76.1278L45.852 74.985L46.9949 72.6994L52.8846 68.2162L54.0274 69.1832L63.2577 69.5347L65.1038 68.0404L65.2796 65.403L64.6643 64.2604L64.2247 57.1399L61.1479 50.9864L61.6752 48.2611L63.5215 49.2281L68.708 54.0632L71.2572 54.2388L74.0702 53.096L76.8834 50.9864L78.2898 46.4151L86.5531 46.9425L91.5638 45.0085L95.6075 41.2286L98.5084 35.7783L99.2119 29.3612L98.5964 21.889L97.0141 15.2082L95.4317 13.0984L93.2342 12.3949L89.3661 16.6146L85.8499 17.8453L82.7731 12.7467L79.6964 9.93366L78.026 8.87876L71.3452 3.34053L65.9828 0.439617L60.6203 0L54.3791 1.0549L48.9288 3.0768L45.1488 6.15353L42.16 9.75785L39.0833 10.6369" id="path130" fill="none" fill-rule="evenodd" stroke="none" />
          </g>
        </g>
        <path d="M74.0455 42.7755C74.6034 42.4719 75.6164 42.0543 76.1743 41.7506C75.6004 41.8476 74.5713 42.0586 73.9974 42.1553C72.4642 42.4142 72.2839 42.7827 72.046 44.2922C71.9338 45.003 71.7793 45.8849 71.6672 46.596C71.9677 45.7921 72.3293 44.8578 72.6795 44.0911C73.0501 43.2803 73.2589 43.2038 74.0455 42.7755L74.0455 42.7755ZM45.5989 3.89935C46.8037 2.09211 47.4974 1.50423 49.3515 0.359307C46.8339 0.965755 46.354 1.43189 45.5989 3.89935L45.5989 3.89935ZM45.2024 7.88082C47.3107 3.64237 48.9071 2.08167 53.3213 0C48.3285 1.22376 46.8608 2.09401 45.2024 7.88082L45.2024 7.88082ZM0.0526626 29.9422C0.515323 27.8199 0.94653 27.0193 2.25509 25.277C0.132382 26.76 -0.144313 27.3692 0.0526626 29.9422L0.0526626 29.9422ZM47.3111 65.4637C47.2472 64.9487 47.1831 64.4333 47.1188 63.9182C47.0032 62.9851 47.0077 62.2268 47.0821 61.2876C47.1538 60.3786 47.2251 59.4696 47.2965 58.5603C47.0317 59.4844 46.5025 60.4084 46.2379 61.3324C46.1321 61.7022 46.0444 62.0013 45.9943 62.2778C42.0436 63.085 38.1217 63.1355 34.1701 62.4305C33.918 60.9676 33.6111 59.443 33.3537 58.3504C33.2756 59.5744 33.3259 62.958 33.3195 64.8525C33.3146 66.3205 33.2528 66.823 32.496 68.0716C31.7873 69.2407 31.4871 69.5059 30.4951 71.481C30.5775 72.7271 30.5791 73.5513 30.2479 74.7342C29.6972 76.7004 24.1425 75.1769 22.6769 74.7757C20.8724 74.2818 17.1415 73.5476 18.0798 71.1418C18.9056 69.0246 19.4288 66.7924 19.8323 63.8296C16.5261 59.0669 13.4512 52.5397 12.8613 46.7568C12.4033 42.2663 12.6781 39.5024 13.6498 36.7557C15.1895 32.4039 17.3433 28.6367 20.7997 25.6032C25.4618 21.5125 29.82 19.8693 36.6437 18.8307C35.0028 20.6675 33.3793 22.6101 31.6098 24.6928C29.8184 26.8016 28.7538 28.9312 27.6166 31.2374C26.0452 34.4228 26.0788 35.6349 28.162 38.4313C29.957 40.8412 30.9261 41.9263 31.7098 44.284C31.0625 45.6183 30.8272 46.7457 30.6095 48.5677C32.8074 50.97 34.4406 52.6163 36.5746 53.1236C38.6678 53.6211 40.416 53.5246 42.2885 52.5674C46.4479 50.4408 50.2963 47.6952 54.9881 47.5816C57.1587 42.2451 56.9393 37.7864 55.8971 32.6233C55.1855 29.0972 54.9002 25.7585 54.6787 22.1637C53.7987 25.8658 53.6337 29.1215 54.2864 32.809C55.0736 37.2531 55.6854 42.1629 53.4958 46.0686C49.2535 46.3934 45.6176 48.9744 41.7937 50.9548C40.2568 51.7511 38.6566 51.8285 36.9553 51.3616C35.3761 50.9279 34.3106 49.8833 32.6094 47.9212C32.5828 45.9513 33.0272 45.0421 33.9318 43.2583C35.3852 40.3934 36.9896 37.7266 38.7499 34.9075C36.5942 37.5097 34.5519 39.6834 32.8553 42.2993C32.2067 40.4515 31.2796 39.5135 29.7434 37.433C28.2429 35.4011 28.0857 34.5112 29.2076 32.1599C30.3356 29.7968 31.2923 27.7196 33.2123 25.6466C36.5298 22.0641 39.5688 18.0768 43.1967 14.5487C45.1664 12.6331 45.9662 12.6993 48.5791 12.3032C50.9405 11.9453 53.2465 11.4933 55.6549 10.9338C53.3255 11.1509 51.0741 11.2308 48.8065 11.2871C48.7829 11.2877 48.7597 11.2885 48.7362 11.2885C50.9672 8.43923 52.262 6.85159 55.8855 5.27721C64.8068 1.4025 70.4752 0.983466 77.4832 6.87442C79.2994 8.40119 80.8858 9.88337 82.7275 11.2006C82.0598 11.2577 81.4844 11.3775 80.7233 11.6764C81.6495 11.4999 82.7192 11.6749 83.6804 11.8506C83.9504 12.0256 84.2275 12.1963 84.5118 12.3639C85.8116 13.1298 86.5495 13.5528 87.4287 14.778C88.3581 16.0726 89.1326 17.3662 89.8155 18.7921C89.368 18.6323 88.9929 18.4972 88.6585 18.3977C88.4124 18.285 88.1447 18.2104 87.8608 18.1831C87.2985 18.129 86.7605 18.2673 86.3122 18.5432C86.2942 18.5516 86.2763 18.5598 86.258 18.5686C85.539 18.9186 84.4249 19.3178 83.6794 19.4389C84.0594 19.5701 84.9005 19.6192 85.2972 19.4623C85.3504 19.4411 85.4044 19.4251 85.4599 19.4117C85.281 19.7162 85.1641 20.0621 85.1281 20.4356C85.0805 20.9309 85.1812 21.4062 85.3942 21.819C85.3949 21.8204 85.3956 21.8219 85.3963 21.8233C85.4638 21.9817 85.5572 22.1279 85.6601 22.2331C85.3192 22.3584 84.9715 22.502 84.6131 22.6578C86.2754 22.4045 87.7744 22.3609 89.3972 22.5748C89.5042 23.0863 89.612 23.6282 89.7119 24.1796C89.5108 24.1956 89.3103 24.2108 89.1094 24.2266C89.0931 24.2281 89.0767 24.2295 89.0605 24.231C88.2928 23.6174 87.4374 23.7205 86.2688 23.9872C82.7152 24.7976 83.5503 26.7917 81.9153 29.7962C83.6128 27.7211 83.487 25.5501 86.2532 24.895C86.8979 24.7424 87.3367 24.5515 87.773 24.617C86.9877 25.0121 86.3083 25.6668 86.0389 26.4271C85.2796 28.5712 85.7512 30.3778 84.9171 32.3803C85.9504 30.5902 86.0126 28.843 86.9365 26.9596C87.2683 26.2829 88.4998 25.1999 89.2558 25.1832C89.4633 25.1789 89.6704 25.1744 89.8781 25.1699C90.0603 26.3617 90.171 27.5448 90.1003 28.5264C89.9715 30.3173 89.5062 32.9757 89.2277 33.9927C90.1636 32.7897 90.5899 30.2415 91.0009 28.4479C91.4291 26.58 91.321 24.3387 90.9463 22.3322C90.4321 19.579 93.2675 20.0268 94.9136 18.7294C96.1236 17.7753 96.9565 16.2523 98.066 15.1733C99.1665 14.1034 100.899 15.6756 101.331 16.7217C103.208 21.2621 104.063 28.4056 103.568 32.9826C103.011 38.1186 100.53 43.7255 96.0004 46.2542C90.2256 49.4772 83.4166 47.5081 77.6793 45.5752C76.4548 45.1627 75.6032 44.5614 74.5267 43.8833C74.8199 45.203 74.953 46.5997 74.5631 47.9178C73.9441 50.0089 72.9445 53.4304 75.7838 54.0614C76.8644 54.3015 77.3544 54.2668 78.88 53.4796C77.6452 53.7588 77.0227 53.6904 76.1741 53.5336C75.405 53.3919 74.9972 52.9032 74.7823 52.3272C75.051 52.5213 75.4892 52.6269 76.238 52.8072C78.3429 53.3145 80.3487 52.3015 80.7409 50.8417C80.9697 49.989 80.9307 49.5411 81.4153 48.3791C81.8506 48.5133 82.3011 48.6361 82.7629 48.7477C82.5025 49.5976 82.2416 50.4485 81.9809 51.2984C81.3044 53.5051 78.6688 55.2846 76.3416 55.2437C74.1902 55.2055 72.8264 53.8579 71.3413 52.5367C70.3181 51.6262 69.3335 50.7552 68.3574 49.8926C65.68 49.0478 63.5339 48.0606 61.049 46.2209C62.8173 48.2993 64.0171 49.4497 66.4833 50.4838C66.1244 54.1424 64.853 56.8099 63.7689 60.3113C63.2785 61.8948 59.4051 68.2385 58.3317 68.8571C57.5663 69.2979 52.7723 73.3361 51.8703 73.8686C51.1987 74.7608 50.6091 75.9932 49.5994 76.5269C46.5224 78.1539 44.5452 75.0385 42.8892 72.4071C42.135 71.2085 40.0417 67.756 41.8668 66.7887C43.5924 65.8746 44.5587 65.2218 46.3193 64.066C46.5779 64.5374 47.022 64.9922 47.3113 65.4633L47.3111 65.4637ZM58.0082 71.0419C56.4504 72.3004 53.8307 74.5281 53.3225 74.8072C52.4022 76.1808 52.2885 77.0309 50.8142 77.829C46.4251 80.204 44.0957 77.4496 41.4976 73.4457C40.2596 71.5379 37.5529 67.1821 40.4252 65.7055C41.6355 65.0834 42.5527 64.6171 43.4677 64.0842C40.4544 64.4581 37.497 64.4626 34.4219 63.9999C34.4763 64.371 34.5238 64.7241 34.5622 65.0479C34.7621 66.7281 34.8277 67.2433 33.9149 68.5971C33.2495 69.5844 32.9931 69.8701 32.1895 71.6638C32.3357 73.122 32.2722 73.9426 31.8608 75.4698C30.9462 78.8638 24.6084 77.0034 22.0259 76.3049C18.9186 75.4647 14.4783 74.6822 16.3003 70.6872C16.7272 69.7512 17.0625 68.7939 17.3147 67.8809C14.5977 69.0835 10.8218 66.5325 9.02352 64.7296C7.31304 63.0147 6.38387 61.0232 6.06014 59.0907C5.78446 57.4461 6.03688 57.454 7.21056 56.2913C8.28431 55.2284 9.35769 54.1643 10.4311 53.102C10.8646 51.922 11.2988 50.743 11.7321 49.5638C11.5632 48.6829 11.4377 47.8043 11.3629 46.9341C11.0511 43.3059 11.1559 40.7222 11.6742 38.347C9.78361 39.0847 7.61423 38.7392 6.64934 36.7327C6.28242 35.97 6.06384 35.193 5.78671 34.065C1.56935 30.0015 9.47256 24.6745 11.7781 24.2739C11.5145 25.0229 11.2257 25.708 10.9716 26.3874C12.5351 27.1968 12.3435 29.5032 12.0115 30.988C11.449 30.2782 11.1382 29.3501 10.3109 29.3102C10.1897 30.9895 10.2107 32.8451 8.89923 33.831C9.28747 34.8688 9.2671 34.8697 10.3705 34.4455C11.9375 33.8421 13.1175 32.4981 14.3046 31.1865C15.583 28.6963 17.2217 26.4811 19.4761 24.4824C25.016 19.5707 30.2524 17.9638 38.6842 16.6201C39.8065 15.4489 40.9663 14.3189 42.2112 13.22C43.8979 11.7317 44.993 11.4227 46.5882 11.3395C49.2278 7.8087 51.3047 5.34988 55.6083 3.53837C64.629 -0.25857 70.8468 -0.441643 78.0872 5.52823C80.4798 7.50077 82.5203 9.57955 85.1499 11.2263C86.4806 12.0595 87.4316 12.6585 88.4405 13.8599C89.7093 15.3719 90.7455 16.8838 91.4667 18.8299C92.3985 18.4464 93.4613 18.0851 94.3194 17.3517C95.4272 16.405 96.1321 14.8205 97.1582 13.7804C98.5202 12.4002 101.627 14.0664 102.315 15.3832C104.655 19.8612 105.612 28.1142 105.115 33.022C104.5 39.0889 101.999 44.8241 96.6543 47.6767C93.02 49.6158 88.1422 49.7964 83.9678 49.0073C83.6973 49.8975 83.4278 50.7876 83.1572 51.6777C82.3455 54.3451 79.1771 56.5253 76.4094 56.6561C73.7519 56.7815 72.3114 55.41 70.5685 53.7312C69.6541 52.8503 68.7392 51.97 67.8248 51.0891C67.7716 51.6892 67.6931 52.2646 67.5942 52.8216C68.3141 54.243 68.6599 55.4926 69.2759 56.9579C69.9538 58.5716 70.2838 59.6308 70.3304 61.3579C70.3713 62.891 70.4124 64.4246 70.4535 65.9577C71.1373 67.1727 71.1971 67.4683 71.0975 68.8587C70.8869 71.7889 69.273 72.0685 66.5833 72.0516C65.6872 72.0459 62.3048 72.0668 61.4426 72.0046C59.7287 71.8807 58.5988 71.7498 58.0082 71.0419L58.0082 71.0419ZM67.0776 55.0569C66.5365 56.9891 65.8092 58.8132 65.1453 60.9039C64.5171 62.883 61.2947 68.63 59.398 70.0228C59.7671 70.2977 60.4448 70.4054 61.6519 70.5095C62.5059 70.5832 65.8727 70.5989 66.7181 70.6134C68.5793 70.6459 69.2856 70.506 69.4738 68.3867C69.5658 67.3493 69.4847 67.1554 68.9657 66.2459C68.9197 64.6238 68.8737 63.0013 68.8281 61.3793C68.7847 59.8414 68.4896 58.9556 67.8849 57.5225C67.523 56.6648 67.3266 55.8642 67.0776 55.0569L67.0776 55.0569ZM10.3874 28.5117C10.8052 28.4643 11.0636 28.6835 11.3868 29.0064C11.327 28.2348 11.1844 27.6627 10.6427 27.3473C10.6047 27.4728 10.569 27.5982 10.5353 27.7256C10.4697 27.9739 10.4229 28.2377 10.3874 28.5117L10.3874 28.5117ZM13.0126 34.0868C12.7118 34.8649 12.4328 35.667 12.1701 36.4957C12.1265 36.6327 12.0848 36.7706 12.0441 36.9078C10.4549 37.5818 8.36526 38.0101 7.56531 36.3399C7.17686 35.5293 6.95763 34.7339 6.67434 33.7092C4.05716 30.9979 7.96941 27.4184 10.1004 26.1345C9.79201 26.7974 9.573 27.2993 9.42349 27.8159C8.77552 30.0552 9.71679 32.0536 7.68445 33.677C8.63956 35.6043 8.59557 36.3728 10.8177 35.4822C11.675 35.1388 12.3819 34.6566 13.0126 34.0868L13.0126 34.0868ZM12.4002 52.333C13.6048 56.4992 15.6563 60.5929 17.9306 64.0343C17.9304 64.0542 17.9302 64.0739 17.93 64.0942C17.7876 64.6859 17.6227 65.2625 17.2771 65.7253C15.6516 67.9001 11.5164 64.7077 10.3195 63.4857C9.01112 62.1498 8.13537 60.5676 7.92687 59.0839C7.77526 58.0015 7.92238 57.9753 8.67754 57.2096C9.69526 56.1793 10.714 55.1483 11.7313 54.1182C11.954 53.5229 12.1775 52.9282 12.4002 52.333L12.4002 52.333ZM89.3762 18.8939C89.6082 19.1231 89.7953 19.3961 89.9244 19.6981C89.9946 19.6336 90.0698 19.5725 90.1484 19.5146C90.0531 19.3 89.9562 19.0884 89.8572 18.8799C89.6924 18.8835 89.5324 18.8881 89.3762 18.8939L89.3762 18.8939ZM69.4641 26.3878C69.2521 25.9433 69.1506 25.4742 69.1469 25.011C68.3667 25.6342 67.5184 26.2251 66.6382 26.5665C67.8535 25.4812 69.5044 22.9216 70.7006 22.1136C72.0581 21.1963 73.9004 21.3749 75.4831 20.6427C74.9427 21.1337 74.2503 21.5293 73.5452 21.9059C74.3219 22.1902 74.9931 22.7654 75.376 23.5682C75.5375 23.9068 75.634 24.2603 75.6731 24.614C76.7364 24.2648 77.7806 24.0995 78.6625 24.1122C75.5077 24.9978 72.152 27.069 69.8382 29.8117C70.0981 29.0964 70.4613 28.4509 70.8988 27.8745C70.2924 27.5575 69.7805 27.0507 69.4641 26.3878L69.4641 26.3878ZM54.8345 14.975C53.0924 15.6548 51.5034 16.1649 49.8051 16.5916C48.2555 18.6282 47.3115 19.6833 46.9549 22.4131C46.5354 19.7277 46.4481 19.2291 47.6433 17.2247C47.2969 17.4007 46.9748 17.6428 46.5132 18.0374C44.8435 19.4652 42.6669 25.0759 41.7967 27.082C42.3491 24.6675 44.077 18.6323 45.8566 16.8732C47.027 15.7162 47.2924 15.7427 48.9426 15.5866C50.9082 15.4003 52.8699 15.1971 54.8345 14.975L54.8345 14.975ZM91.1967 20.8294C92.6099 20.9631 93.4179 21.1813 94.6833 20.5553C97.0421 19.3881 98.7777 17.4825 99.903 15.2034C99.2146 17.9225 97.8291 20.2331 94.9554 21.258C93.544 21.7608 92.634 21.2415 91.1967 20.8294L91.1967 20.8294ZM64.0742 21.095C64.6066 18.7371 65.552 16.4652 69.2141 14.7075C64.3603 15.9229 63.4503 17.9614 64.0742 21.095L64.0742 21.095ZM1.13634 33.7939C1.55276 29.0783 2.46982 27.0427 5.82019 23.4941C1.61784 26.4551 0.569171 27.8007 1.13634 33.7939" transform="translate(0 75.20212)" id="path136" fill="#000000" fill-rule="evenodd" stroke="none" />
        <path d="M0.132903 1.95211C-0.191486 1.27378 0.0985607 0.456362 0.778551 0.132769C1.4587 -0.191179 2.27778 0.0982666 2.60217 0.777054C2.63295 0.841334 2.65746 0.907498 2.6774 0.973813C2.02797 1.45554 1.43246 2.02357 0.93342 2.6814C0.596946 2.54625 0.299522 2.30049 0.132903 1.95211" transform="translate(69.96437 100.39687)" id="path138" fill="#FFFFCC" fill-rule="evenodd" stroke="none" />
        <path d="M0.00358289 0.926911C0.0578659 0.364891 0.537124 -0.0495037 1.09899 0.00477941C1.66081 0.0592129 2.07563 0.561438 2.02156 1.12353C2.01004 1.2431 1.97764 1.35528 1.92916 1.45856C1.41477 1.54611 0.900492 1.69707 0.370507 1.89187C0.148827 1.66503 -0.027575 1.25093 0.00358289 0.926911" transform="translate(85.28947 95.5436)" id="path140" fill="#FFFFCC" fill-rule="evenodd" stroke="none" />
      </g>
    </g>
  </g>
</svg>