<?xml version="1.0" encoding="utf-8"?>
<svg width="255px" height="101px" viewbox="0 0 255 101" version="1.1" xmlns:xlink="http://www.w3.org/1999/xlink" xmlns="http://www.w3.org/2000/svg">
  <defs>
    <path d="M0 0L253.846 0L253.846 100L0 100L0 0Z" id="path_1" />
    <path d="M0 0L251.538 0L251.538 98.4615L0 98.4615L0 0Z" id="path_2" />
    <path d="M0 0L307.692 0L307.692 153.846L0 153.846L0 0L0 0Z" id="path_3" />
    <clipPath id="mask_1">
      <use xlink:href="#path_1" />
    </clipPath>
    <clipPath id="mask_2">
      <use xlink:href="#path_2" />
    </clipPath>
    <clipPath id="mask_3">
      <use xlink:href="#path_3" />
    </clipPath>
  </defs>
  <g id="svg" transform="translate(0.32452393 0.3244934)">
    <path d="M0 0L253.846 0L253.846 100L0 100L0 0Z" id="Background" fill="none" fill-rule="evenodd" stroke="none" />
    <g clip-path="url(#mask_1)">
      <g id="Mask-group">
        <path d="M0 0L251.538 0L251.538 98.4615L0 98.4615L0 0Z" id="slice_1" fill="none" fill-rule="evenodd" stroke="none" />
        <g clip-path="url(#mask_2)">
          <g id="Slice" transform="translate(-35.64102 -27.692308)">
            <path d="M0 0L251.538 0L251.538 98.4615L0 98.4615L0 0Z" transform="translate(35.64102 27.692308)" id="slice_1" fill="none" fill-rule="evenodd" stroke="none" />
            <g id="apache_hive-ar21">
              <path d="M0 0L307.692 0L307.692 153.846L0 153.846L0 0L0 0Z" id="Background" fill="none" fill-rule="evenodd" stroke="none" />
              <g id="Mask-group">
                <path d="M0 0L307.692 0L307.692 153.846L0 153.846L0 0L0 0Z" id="path_1" fill="none" fill-rule="evenodd" stroke="none" />
                <g clip-path="url(#mask_3)">
                  <g id="Group" transform="translate(35.705666 27.81766)">
                    <path d="M0 4.89064e-06L0 51.2821L15.3667 51.2821L15.3667 27.7123L18.5359 27.7605L18.5359 51.2821L34.0744 51.2821L34.0744 4.89064e-06L18.5359 4.89064e-06L18.5359 19.0259L15.3667 19.0259L15.3667 8.55862e-06L0 4.89064e-06L0 4.89064e-06ZM53.2051 4.89064e-06L38.2359 4.89064e-06L38.2359 51.2821L53.2051 51.2821L53.2051 4.89064e-06L53.2051 4.89064e-06ZM55.6564 3.66798e-06L67.4513 51.2821L85.2974 51.2821L97.0923 3.66798e-06L81.2513 3.66798e-06L77.3462 21.9438C77.0205 22.7841 75.918 22.7841 75.7205 21.9438L71.8051 0L55.6564 3.66798e-06L55.6564 3.66798e-06ZM130.015 4.89064e-06L100.328 4.89064e-06L100.328 51.2821L130.038 51.2821L130.038 37.8377L113.518 37.722L113.518 31.9577L121.39 31.9577L121.39 18.6037L113.518 18.6037L113.518 13.4465L130.038 13.4465L130.015 4.89064e-06L130.015 4.89064e-06Z" transform="translate(110.448166 17.807981)" id="Shape" fill="#000000" fill-rule="evenodd" stroke="#FDEE21" stroke-width="0.649" />
                    <g id="Group">
                      <path d="M56.3733 12.9655C55.4959 10.559 25.2695 -1.19148 24.8843 0.0986208C19.3342 1.54543 17.0754 7.94248 13.2575 11.9945L4.77916 11.509C1.04446 16.3117 -0.915429 21.2189 0.419009 26.319C5.20585 32.8044 10.7626 38.3231 14.2261 46.4682C14.4998 50.3079 30.8446 46.8708 34.3479 46.1108C29.5623 49.5367 25.3948 54.8464 27.1856 70.1395C28.8208 77.321 29.9392 85.3392 44.4403 93.4618C46.3492 94.531 50.299 95.7646 52.7413 96.6638C55.0772 97.7351 57.8082 98.1757 65.5136 95.8192C69.9723 93.8974 74.7864 92.7397 79.1497 90.8226L73.9054 91.0687C66.6833 91.2259 61.1069 91.7646 59.3882 89.7467L52.7418 78.2726L56.6167 70.7461C61.9795 71.2962 63.7595 75.6451 68.4862 77.3013L74.0574 73.1738C90.2408 82.7261 96.6774 67.12 98.5226 54.9654C98.3256 50.0203 87.8154 56.5154 88.4523 54.2041C88.6992 48.8882 84.3662 41.9333 81.5664 36.5144L84.8067 23.9779C86.2767 22.6673 78.0005 8.72238 71.2423 6.98325C65.3126 5.4561 56.3741 12.9656 56.3741 12.9656L56.3733 12.9655L56.3733 12.9655Z" transform="translate(0.9596913 0.68056035)" id="Shape#1" fill="#FDEE21" fill-rule="evenodd" stroke="none" />
                      <g id="Group#1" transform="translate(66.35039 40.290848)">
                        <path d="M0.908319 0.000347235C0.965304 1.34698 0.959837 2.98479 1.08999 4.00628C1.06753 4.78557 0.483342 4.81544 0 4.97728L3.1489 6.13062C3.77412 7.18254 4.27649 8.23477 4.78397 9.2868C5.37262 11.8748 4.93213 11.9487 4.5418 12.1394C3.39905 12.151 2.25961 12.1531 1.19597 11.9269C1.67235 12.1785 1.7772 12.3617 1.82769 12.6839C1.92069 13.2779 1.53822 14.0891 0.908319 14.8707C1.83965 15.3874 3.53754 15.893 4.79915 16.3728L6.23741 13.1711C5.58608 8.46772 3.61105 4.13356 0.908319 0L0.908319 0.000347235L0.908319 0.000347235ZM6.78559 15.7768C8.532 16.5047 10.9448 16.2913 14.2901 14.5672C14.7875 14.2135 15.2508 14.4248 14.3607 15.0069C9.973 18.9441 7.87295 16.9745 6.78569 15.7768L6.78559 15.7768L6.78559 15.7768Z" transform="translate(16.658192 0)" id="Shape#2" fill="#C8C037" fill-rule="evenodd" stroke="none" />
                        <path d="M31.2836 10.6074C31.8023 11.6007 31.488 12.4086 31.3138 13.2477C30.7721 17.5157 29.4421 20.8898 26.8326 24.4157C18.3447 38.0621 9.77528 29.5233 2.94298 23.966L0.116837 31.0474C-0.033139 31.6682 -0.658133 32.1515 3.75659 34.0949L8.25282 30.919C25.4002 43.9659 37.5513 12.6569 31.2831 10.6077L31.2836 10.6074L31.2836 10.6074ZM5.0108 22.8389C3.85403 22.9285 0.411107 24.2003 0.257707 24.9367L1.84207 22.3726L5.0108 22.8389L5.0108 22.8389ZM2.7611 8.33149C2.97308 8.33149 3.99056 8.60467 3.88139 8.54393C3.72526 8.45698 3.86395 9.9708 4.1842 10.7594L2.94275 13.4604C5.32067 10.7181 9.08077 10.9005 12.5714 10.547L10.9061 9.51516C11.1953 8.55031 10.8548 7.78685 10.6941 6.96595L2.7611 8.33149L2.7611 8.33149ZM8.60418 0.197684C6.0528 0.979844 3.61062 2.25764 1.97097 4.98154C3.22187 0.491837 3.47682 0.662217 3.88072 0.440436C5.6301 -0.341939 7.06287 0.145717 8.60418 0.197684L8.60418 0.197684L8.60418 0.197684Z" transform="translate(0 3.4438922)" id="Shape#3" fill="#C8C037" fill-rule="evenodd" stroke="none" />
                      </g>
                      <path d="M41.1067 95.7223C38.0215 99.1267 31.1379 95.4649 25.4214 93.5982C10.8952 84.361 8.05744 75.6654 7.85913 67.1351C7.11231 54.9156 10.8644 47.8154 15.6105 46.1344C12.4695 52.1895 11.0062 63.0585 12.4616 71.141C13.6371 75.6374 13.6616 83.2215 21.1852 87.281C24.8693 89.3551 23.8713 90.9697 26.3626 92.9123C29.0928 95.0413 36.7049 97.0649 41.1054 95.7226L41.1067 95.7223L41.1067 95.7223ZM45.7154 39.2521C40.4923 31.8441 33.1449 29.0649 24.8618 28.761C26.5221 28.2197 28.1823 27.938 29.8426 27.1374C30.2492 26.7103 30.1162 25.9585 29.9638 25.1952C21.9895 23.113 16.9567 20.5396 10.586 18.1543L27.7836 22.2816C39.3967 22.7229 38.4005 25.5903 45.7151 39.2513L45.7154 39.2521L45.7154 39.2521ZM51.3077 35.679C47.4477 30.1687 43.7038 23.4812 38.6233 19.228C26.3559 13.6911 14.2208 9.5789 0 5.83692L4.53895 0C19.6304 3.44487 33.8056 9.20941 46.5015 18.7133C48.6497 24.145 50.0823 29.5838 51.3077 35.6795L51.3077 35.679L51.3077 35.679ZM59.0895 25.9418C59.0895 25.9418 56.9254 21.0868 55.8718 19.233C53.4277 16.5245 52.1908 11.4771 47.1861 9.09887C48.7692 9.52626 49.8528 9.01705 53.0849 11.9471L58.1759 21.604L59.0895 25.9418L59.0895 25.9418ZM61.7813 34.3526C62.2805 30.1462 63.2282 23.4003 62.1405 20.7335L53.0187 8.58123C52.5138 8.11136 52.1503 7.47349 51.7538 6.97613C56.039 8.08662 60.5133 11.0668 66.5467 22.8323L61.7813 34.3526L61.7813 34.3526Z" transform="translate(20.223207 0.8341105)" id="Shape#4" fill="#FCF6A0" fill-rule="evenodd" stroke="none" />
                      <path d="M20.2126 22.9179C18.5053 21.5731 16.9839 16.8207 14.3968 15.8337C12.0035 15.6334 11.1243 14.8801 7.97548 15.5215C9.11743 14.9494 10.1958 14.217 11.4098 13.8251C12.232 13.631 13.0034 13.8461 13.7879 13.9542C13.9817 13.8626 14.1086 13.7487 14.0612 13.5766C10.8916 11.6179 4.38931 11.5899 0 10.4718C5.09431 10.6423 10.7306 10.3601 14.5592 11.5887C17.6378 14.3208 18.6379 19.4661 20.2126 22.9187L20.2126 22.9179L20.2126 22.9179ZM29.5464 0C30.2531 0.0641627 34.0567 6.08046 34.2351 7.08154C34.5515 9.26992 35.3315 11.7232 35.5413 14.013C34.9149 11.8169 34.2323 9.62108 33.379 7.42505C33.1282 6.82033 32.4987 5.45321 30.7454 3.51941C29.9292 2.15636 29.7538 1.08508 29.5467 0.00011493L29.5464 0L29.5464 0ZM43.1292 32.7679L40.8077 32.7679L43.3718 35.3321L43.1292 32.7679L43.1292 32.7679ZM31.3333 31.1441C29.6972 30.9428 28.0169 30.9162 26.3818 31.2756C25.7149 32.1715 25.669 33.0828 25.3774 33.9249C27.3667 31.7326 28.1559 31.5987 31.3333 31.1441L31.3333 31.1441L31.3333 31.1441ZM53.6502 42.4574C52.7387 43.2449 52.6487 43.9859 49.9564 44.8738C47.9931 45.3769 46.8838 44.5246 45.9595 43.378C47.3608 43.8128 47.5846 44.9585 51.3415 43.6741L53.6502 42.4574L53.6502 42.4574ZM45.4902 42.9133C44.8351 44.7154 44.1285 46.5374 43.4161 48.2241C41.72 50.2133 42.4428 49.0797 39.9038 52.1695C40.7164 50.9159 41.7728 49.7115 42.3259 48.4062C42.7133 47.5467 43.1982 46.6349 43.4123 45.871C42.739 45.5349 41.3608 45.5085 41.1741 45.629C38.9167 46.9605 38.5092 48.3695 37.1782 49.7415C38.1428 48.1995 38.9669 46.5164 40.0851 45.1287C40.2126 44.9485 41.0405 44.9136 41.5495 44.8072C40.7584 44.6705 39.2946 44.3872 39.1767 44.4002C37.7041 44.7541 36.8787 46.0367 35.7856 46.8887C36.5826 45.7379 37.3167 44.5397 38.329 43.5505C38.429 43.4341 41.1649 43.6738 42.5826 44.2395L42.6108 44.8036L43.4156 45.1285L44.0213 43.6113L45.4902 42.9133L45.4902 42.9133ZM27.6262 53.7974C27.2628 53.6667 24.0532 53.2387 24.0532 53.3385C22.8209 54.2536 22.634 55.1295 22.6606 55.8877C24.712 53.7831 24.6345 53.7772 27.6264 53.7977L27.6262 53.7974L27.6262 53.7974ZM25.1872 39.2697C25.1872 39.2697 27.5033 38.932 27.4582 39.1485C27.2903 39.9518 27.7415 41.9103 27.7913 41.6369L26.4892 42.6992C29.2162 41.3282 32.0864 41.6038 34.9977 41.3944C34.9977 41.3944 32.5464 40.7174 32.6964 40.6962C33.2431 40.6187 32.5508 38.14 32.3633 38.0864C32.8305 37.9285 33.2849 37.8095 33.7559 37.6918C30.2508 36.7746 28.2238 37.3151 25.187 39.27L25.1872 39.2697L25.1872 39.2697Z" transform="translate(43.771564 12.765626)" id="Shape#5" fill="#000000" fill-rule="evenodd" stroke="none" />
                      <path d="M5.05659 1.4264L4.5418 1.68432C4.46887 0.176532 2.84938 0.28708 1.48361 0.273181L0.363326 0C0.705221 0.315231 1.75714 0.290611 1.33227 0.970997C0.974754 1.16211 0.810301 1.98188 0.605618 2.67046L0 2.70077L3.23984 3.97538L3.93503 4.08159L5.60031 3.18628L5.05659 1.4264L5.05659 1.4264Z" transform="translate(83.94777 52.339077)" id="Shape#6" fill="#000000" fill-rule="evenodd" stroke="none" />
                      <path d="M2.41184 0.474774C2.08969 -0.181565 0.468744 -0.0883006 0.119263 0.336256C-0.164717 0.681463 0.101647 2.89518 0.46579 2.52184C0.99221 2.04535 1.67976 1.84591 2.50552 1.8845C2.60974 1.47545 2.57269 1.03379 2.41198 0.474627L2.41184 0.474774L2.41184 0.474774ZM15.0943 3.75226C15.2622 3.61936 15.6173 2.34961 15.5024 1.96917C15.2678 1.07156 13.6072 1.26045 13.6072 1.26045C13.2037 1.51564 12.8468 2.91513 12.995 3.37698C13.0656 3.76787 14.8263 3.89249 15.0941 3.75243L15.0943 3.75226L15.0943 3.75226Z" transform="translate(71.70175 52.375862)" id="Shape#7" fill="#FFFFFF" fill-rule="evenodd" stroke="none" />
                      <path d="M6.55649 44.8969L7.32692 44.9721C11.8936 47.2144 19.4131 50.539 30.2992 48.7523L32.0072 51.4403C27.2131 53.77 22.0566 53.2338 17.2258 53.3972L6.55649 44.8969L6.55649 44.8969ZM0 27.1705L2.28765 36.7744C8.41223 40.6028 18.8744 44.9879 27.5951 44.6341L25.669 40.2121C7.46515 36.3464 5.92546 31.4595 0.00147697 27.1697L0 27.1705L0 27.1705ZM5.69264 7.49992C6.80951 14.9422 8.30326 20.5833 14.7758 25.3106C18.7423 28.1633 22.6794 31.0039 27.4682 33.348C27.4682 33.348 27.0485 35.5328 26.6974 35.4941C12.4459 33.9097 2.0123 22.0938 0.747275 16.6964C1.97128 12.5559 3.72751 9.97005 5.69344 7.50002L5.69264 7.49992L5.69264 7.49992ZM12.542 3.28316C14.4412 11.5316 18.9694 19.8858 23.4714 27.4646C25.1213 29.5582 25.5532 30.4818 28.0962 31.7567C31.5333 32.8449 33.9638 32.5672 36.4587 32.4036C35.7751 31.1382 35.1674 29.8156 34.3826 28.6267C28.7962 24.2087 31.3779 20.1862 32.8618 17.6395C29.7556 16.8546 25.6398 15.1864 25.0728 12.9922C24.161 5.89549 24.6241 3.64408 25.5366 0C21.3313 0.88689 17.0689 1.7658 12.5444 3.28451L12.542 3.28316L12.542 3.28316Z" transform="translate(27.525043 40.535316)" id="Shape#8" fill="#000000" fill-rule="evenodd" stroke="none" />
                      <path d="M24.6371 0.00489064C23.2547 0.908077 21.9227 2.19943 20.4887 3.66721C18.1133 6.12605 16.5341 8.52446 14.1163 10.3028C13.6327 10.7199 12.2757 11.3912 10.5696 11.4909C9.76595 11.531 9.24238 11.6641 7.76562 11.4786C6.4632 10.7734 5.22587 11.232 4.01838 12.6753C2.6941 14.5785 1.0172 18.1955 0.319832 20.4706C-1.11615 26.2756 2.54674 31.0587 6.0608 34.7449C9.1869 37.7987 10.9891 39.7072 12.2725 42.5069C13.2443 44.3226 13.9643 46.8149 14.7437 48.5618C15.0247 49.1157 14.9663 49.1128 15.7238 49.2798C17.3573 49.6287 19.6232 49.6313 21.6404 49.8046C22.5131 49.8167 23.7117 49.7844 24.8474 49.6659C26.412 49.3703 28.2508 49.0808 29.7918 48.549C31.2977 48.1782 32.6392 47.6646 33.8487 47.1921C33.6926 47.7213 32.5405 48.2308 32.1085 48.9018C28.0092 54.771 26.8862 59.9915 27.6 68.2305C28.0036 71.8823 28.8418 74.9095 30.1064 78.3731C30.6849 79.9582 31.9164 82.4685 33.0964 84.1359C36.6067 89.0941 44.4556 95.4613 55.3838 97.9123C57.2905 98.1728 59.4541 98.0339 61.489 97.4918C66.8826 95.8569 77.8751 91.9903 77.8751 91.9903C77.8751 91.9903 68.1172 92.7974 63.6487 92.3554C62.6141 92.1936 61.4741 92.139 60.7533 91.4339C60.6326 91.2777 60.1933 90.3931 60.4767 90.3851C60.8636 90.3744 61.9746 89.9133 63.6908 89.7603C60.029 89.3662 60.0813 89.3708 59.8138 88.7039C59.3982 87.6685 58.762 86.2533 58.1072 85.0151C59.7161 85.1518 63.2785 85.3508 64.4874 84.1031C64.4874 84.1031 62.3792 84.3464 60.5164 84.128C59.8887 84.0544 58.8185 83.6726 58.4992 83.5546C57.6631 83.229 56.9744 83.1277 56.8138 82.9164C56.5236 82.1772 56.3267 81.9287 55.9761 80.9385C55.5015 79.6274 55.4638 78.1649 55.3723 76.8262C56.5908 78.3282 58.1436 79.5928 60.1995 80.2385C60.2256 80.1828 62.8661 81.3862 64.7838 80.7674L65.1828 80.6392C65.1828 80.6733 63.9123 80.7505 63.4461 80.5198C59.5462 78.8623 58.9592 77.4113 58.3297 76.6905L56.6456 74.1682C57.1577 73.1469 57.4474 73.1082 58.1272 73.0987C60.1785 73.3267 61.0731 73.5021 62.3218 73.2008C63.1659 74.9377 63.3938 76.6849 65.3151 77.949C71.7164 79.849 73.1072 77.3846 74.6574 75.2072C79.2631 78.5872 86.7608 79.6295 91.969 75.2659C98.5887 67.6059 100.685 55.5303 100.098 54.8408C99.271 53.4382 98.1861 51.9915 97.2549 52.1915C93.9349 53.098 92.7108 54.7821 89.4213 54.398C89.8131 54.3759 90.472 54.3654 90.4769 54.328C90.7305 51.5426 90.4564 50.1946 90.3344 49.9633C89.3359 47.7618 88.0254 45.4451 87.1115 43.7087C86.8759 43.3487 86.1841 40.6128 85.0249 39.5323C84.5279 39.1077 83.311 37.9885 83.311 37.9885L83.2077 39.1782C83.2077 39.1782 83.6836 39.25 83.8643 39.9869C84.5508 42.781 88.0456 49.3877 88.302 49.7041C89.5408 51.7036 88.4279 54.1944 89.3697 55.5921C89.46 55.7695 91.2908 55.5764 92.7097 55.6636C95.0428 55.1618 94.9433 54.1336 96.96 53.979C98.3177 53.8749 98.4538 56.4246 98.4359 56.6226C98.1828 59.438 97.3264 62.7113 96.0156 65.7008C93.2905 70.9513 90.2374 75.6669 85.9102 76.3244C80.6305 77.2469 77.8869 74.9387 75.0249 73.469L73.93 74.4026C70.2105 78.1067 65.7928 77.7777 63.9877 72.9382C63.0872 71.0608 61.9167 69.91 60.9133 68.2998L55.5923 72.1321C55.1495 73.0405 54.6049 74.4731 53.9433 76.0731C53.4833 77.1854 53.0977 79.0962 53.1228 80.6839C52.4408 81.8456 55.4854 86.5577 57.4079 89.4241L59.0718 91.8395C59.4533 92.829 60.289 93.7028 60.3395 93.8092C63.911 98.4672 55.8344 97.3946 54.1664 97.1141C50.8754 96.59 47.6567 95.2151 44.6308 93.3769L44.1059 93.0523C40.5103 90.7885 37.2018 87.8915 34.3887 85.0267C32.7113 83.1272 31.1141 79.2339 29.9346 76.4739C28.1667 69.8382 25.6293 58.3362 32.5023 49.62C32.9382 49.1218 33.4082 48.2923 33.8085 48.1269C35.8505 46.7456 38.0679 45.8044 40.4526 45.2818L40.2118 43.7359C39.0208 44.0064 35.0113 45.4731 33.8774 46.0872C31.2992 46.8346 29.1608 47.6149 25.8749 48.4377C24.8067 48.5685 23.7559 48.5708 22.7316 48.4315C20.3679 48.1105 16.3387 48.3974 16.0816 48.1585C14.4811 45.9264 14.0416 41.9274 12.5825 39.7869L12.5654 39.7656L12.547 39.7454C11.6956 38.6013 10.7033 37.6677 9.72608 36.6969C6.22639 33.2208 3.22998 29.8587 2.39254 26.2951C2.1817 25.2432 1.63876 24.1525 1.92733 21.0412L1.93268 21.026L1.9377 21.0107C2.77969 18.1031 4.14946 15.734 6.47426 13.3575C8.89354 13.3966 11.2882 13.4486 13.1535 13.8061C14.0083 13.9492 15.7889 14.1817 17.6269 14.8664C22.2793 16.5995 28.4264 19.4478 28.4264 19.4478C23.8121 16.9137 18.6526 13.6224 15.3943 12.9582C14.9095 12.8896 14.6116 12.6684 14.4678 12.2824C19.3683 9.40315 20.2647 6.01426 23.4879 2.97295C24.9609 2.33176 25.5353 2.00445 26.7869 1.86837C38.3626 3.69867 45.6485 8.30921 51.4151 11.3921C53.7549 12.6644 55.8826 13.6265 57.9128 14.7852C59.6936 15.371 65.0667 19.4276 66.6392 21.6147C68.2367 24.9875 69.4031 28.6308 70.4669 32.1451C71.2297 35.721 71.8987 37.1713 71.8987 37.1713C71.8987 37.1713 71.2505 34.1805 71.3585 33.6431C72.0308 33.8944 73.6197 34.3905 74.2785 34.3133C74.2785 34.3133 71.3359 32.7923 70.9505 31.4482C69.7133 27.1349 68.4726 20.4202 68.1379 20.0701C67.1949 18.8848 63.2628 15.8743 60.8508 14.4823C59.9385 13.9558 59.4454 13.6291 59.4069 13.3976C60.1772 12.6192 61.1277 11.5895 61.9823 10.9352C62.8003 10.3081 63.5436 9.6018 64.6849 9.17751C69.6951 6.92097 72.56 10.0457 73.2397 9.41298C73.2397 9.41298 72.1618 8.17756 72.6408 8.38087C73.131 8.64644 74.729 8.95962 74.9044 9.12167C76.7305 10.5501 81.5043 15.7709 84.3818 21.2796C85.0728 22.629 85.3538 23.5175 85.0331 25.1423C84.7118 26.7687 84.4631 27.6628 84.1126 28.749C83.7959 29.4749 82.0043 34.4459 82.0113 35.1138C81.6505 37.8413 83.181 41.2559 83.181 41.2559C83.1956 40.329 83.1241 39.8351 83.2082 39.1723L83.3113 37.988C83.3113 37.988 83.2459 37.6728 83.2577 37.548C83.3354 36.7287 83.5361 36.0403 83.5951 35.5713C84.1705 32.0092 85.1705 29.4449 86.3046 26.3192C86.6418 25.5303 87.0828 25.0917 87.0602 24.4911C87.079 23.4253 86.1251 21.9948 85.4361 20.5976C84.7408 19.1845 83.909 17.6115 82.8195 15.9524C80.3326 12.3766 78.2128 9.5788 74.3313 7.82654C73.2451 7.34995 68.9713 6.88405 67.4954 7.16097C65.7061 7.534 64.1654 7.90177 62.9367 8.6879C61.0051 9.9249 59.4869 11.8402 57.7056 12.9685C53.7669 10.9989 51.8661 9.52487 51.5115 9.32156C49.1708 8.06723 46.3602 6.61167 43.3367 5.23015C41.8872 3.87828 32.8862 0.644939 24.6417 0L24.6371 0.00489064L24.6371 0.00489064ZM75.0195 73.4677C72.592 71.5703 70.5487 69.6156 69.2015 67.6054C68.7618 69.971 67.1656 71.6559 65.932 73.3131C65.6864 73.7005 65.5095 74.2318 66.7187 75.9208C67.0446 76.3708 68.2238 76.4477 69.0197 76.4062C68.21 75.7941 66.9777 75.1464 66.7792 74.5854C68.2038 75.5541 69.5231 75.8341 70.7154 75.6779C70.989 75.6472 71.3264 75.3582 71.5879 74.9136C72.1195 73.7715 72.5354 73.4967 72.9562 73.1892L73.9249 74.4031L75.0195 73.4677L75.0195 73.4677Z" id="Shape#9" fill="#000000" fill-rule="evenodd" stroke="#000000" stroke-width="0.114" />
                    </g>
                  </g>
                </g>
              </g>
            </g>
          </g>
        </g>
      </g>
    </g>
  </g>
</svg>