<?xml version="1.0" encoding="utf-8"?>
<svg width="333px" height="101px" viewbox="0 0 333 101" version="1.1" xmlns:xlink="http://www.w3.org/1999/xlink" xmlns="http://www.w3.org/2000/svg">
  <defs>
    <path d="M0 0L332.468 0L332.468 100L0 100L0 0Z" id="path_1" />
    <clipPath id="mask_1">
      <use xlink:href="#path_1" />
    </clipPath>
  </defs>
  <g id="jenkins-official" transform="translate(0.2465 0.2465)">
    <path d="M0 0L332.468 0L332.468 100L0 100L0 0Z" id="Background" fill="none" fill-rule="evenodd" stroke="none" />
    <g clip-path="url(#mask_1)">
      <g id="Group" transform="translate(0 0.015094829)">
        <path d="M70.0519 35.8279C70.0519 55.6136 54.3701 71.6558 35.026 71.6558C15.6818 71.6558 2.47708e-06 55.6136 2.47708e-06 35.8279C2.47708e-06 16.0422 15.6818 0 35.026 0C54.3701 0 70.0519 16.039 70.0519 35.8279" transform="translate(1.0876594 12.280447)" id="Shape" fill="#D33833" fill-rule="evenodd" stroke="none" />
        <path d="M1.87013 42.4318C1.87013 42.4318 -0.665584 5.06981 33.7597 4.00325L31.3571 0L12.6769 6.27111L7.33929 12.4075L2.66883 21.3474L0 31.7533L0.800325 38.6916" transform="translate(0.6461032 14.549924)" id="Shape" fill="#EF3D3A" fill-rule="evenodd" stroke="none" />
        <path d="M12.1266 12.3409C5.98052 18.6282 2.17857 27.3084 2.17857 36.914C2.17857 46.5195 5.9789 55.2013 12.1266 61.487C18.2744 67.7727 26.7484 71.6526 36.1153 71.6526C45.4821 71.6526 53.9724 67.7565 60.1039 61.487C66.2354 55.2175 70.052 46.5195 70.052 36.9156C70.052 27.3117 66.2484 18.6299 60.1039 12.3425C53.9594 6.05519 45.4821 2.18019 36.1153 2.17694C26.7484 2.1737 18.2581 6.07305 12.1266 12.3425L12.1266 12.3409ZM10.5519 63.0065C4.03734 56.3295 0 47.0974 0 36.9156C0 26.7338 4.03734 17.5 10.5519 10.8214C17.0666 4.14286 26.1364 0 36.0974 0C46.0584 0 55.1136 4.13961 61.6412 10.8214C68.1688 17.5032 72.2094 26.7305 72.2094 36.9156C72.2094 47.1006 68.1721 56.3312 61.6412 63.0081C55.1104 69.6851 46.0568 73.8295 36.0974 73.8295C26.138 73.8295 17.099 69.6899 10.5519 63.0065" transform="translate(0 11.325906)" id="Shape" fill="#231F20" fill-rule="evenodd" stroke="none" />
        <g id="Group" transform="translate(8.676948 1.4736279)">
          <path d="M37.6477 46.8328L32.3101 47.6331L25.1023 48.4334L20.4318 48.5666L15.8961 48.4334L12.4269 47.3653L9.34253 44.0292L6.93993 37.224L6.40422 35.7565L3.2013 34.6899L1.33442 31.6218L0 27.2192L1.46753 23.349L4.93669 22.1477L7.73864 23.4821L9.07305 26.4172L10.6737 26.151L11.2094 25.4854L10.6737 22.4172L10.5406 18.5471L11.3409 13.2094L11.3084 10.1607L13.7435 6.2711L18.013 3.20292L25.4854 0L33.7581 1.2013L40.9627 6.40585L44.2987 11.7435L46.4334 15.6136L46.9692 25.2208L45.3685 33.4935L42.4334 40.8312L39.6315 44.7013" transform="translate(4.532466 0)" id="Shape" fill="#F0D6B7" fill-rule="evenodd" stroke="none" />
          <path d="M37.6445 24.9513L18.5633 25.75L18.5633 28.9529L20.164 40.1623L19.3636 41.0974L6.01948 36.5601L5.08442 34.9594L3.75 19.8815L0.665584 10.8068L0 8.67208L10.6737 1.33442L14.0097 0L16.9448 3.60389L19.4805 5.87175L22.4156 6.80519L23.75 7.20617L25.3506 14.1445L26.5519 15.612L29.6201 14.5438L27.4854 18.6802L39.0925 24.151L37.625 24.9513" transform="translate(0 44.965908)" id="Shape" fill="#335061" fill-rule="evenodd" stroke="none" />
          <path d="M0.543831 22.164L4.01299 20.9627L6.81493 22.2971L8.14935 25.2322L9.75 24.9659L10.151 23.3653L9.35065 20.2808L10.151 12.9432L9.48539 8.93994L11.888 6.13799L17.0925 2.00163L15.625 0L8.28734 3.6039L5.20292 6.00649L3.46916 9.74026L0.800323 13.3442L0 17.6136L0.535714 22.151" transform="translate(5.4772735 1.185053)" id="Shape" fill="#6D6B6D" fill-rule="evenodd" stroke="none" />
          <path d="M6.00162 9.15928C6.00162 9.15928 8.00325 4.22421 16.0097 1.82161C24.0162 -0.580981 16.4107 0.0845999 16.4107 0.0845999L7.73864 3.41902L4.4026 6.75506L2.93506 9.42389L6.01948 9.15765M2 20.7648C2 20.7648 -0.801948 11.4239 9.87337 10.0895L9.4724 8.48883L2.13474 10.2258L0 17.169L0.535714 21.7064L2.00325 20.7729" transform="translate(5.488637 1.6475402)" id="Shape" fill="#DCD9D8" fill-rule="evenodd" stroke="none" />
          <path d="M0 6.27012L1.74675 4.57694C1.74675 4.57694 2.53571 4.66784 2.66883 5.60291C2.80195 6.53797 3.20455 14.9438 8.93994 19.4828C9.46266 19.8967 4.67045 18.8334 4.67045 18.8334L0.400973 12.1776M24.5519 3.75226C24.5519 3.75226 24.8636 -0.306184 25.9529 0.0184914C27.0422 0.343172 27.0406 1.41947 27.0406 1.41947C27.0406 1.41947 24.3945 3.13051 24.5519 3.75226" transform="translate(11.758117 28.552937)" id="Shape" fill="#F7E4CD" fill-rule="evenodd" stroke="none" />
        </g>
        <path d="M19.0812 0C19.0812 0 16.8815 0.464283 16.6786 2.4026C16.4756 4.34091 19.0812 2.80358 19.4805 2.66883M2.93506 0.133118C2.93506 0.133118 0 0.534092 0 2.40098C0 4.26786 3.33604 4.13799 4.26948 3.33604" transform="translate(36.980522 18.952526)" id="Shape" fill="#F7E4CD" fill-rule="evenodd" stroke="none" />
        <g id="Group" transform="translate(8.696428 0.3548666)">
          <path d="M8.6737 27.4191C8.6737 27.4191 3.60227 24.3347 3.06981 27.286C2.53734 30.2373 1.33279 32.3558 3.87013 35.4256L2.13636 34.8899L0.535715 30.7535L0 26.7503L3.08442 23.5473L6.55357 23.8136L8.5552 25.4142L8.6737 27.4191M11.1088 18.997C11.1088 18.997 13.3766 7.25513 24.8523 4.98727C34.3003 3.12038 39.263 5.38824 41.1315 7.52298C41.1315 7.52298 32.7257 -2.48351 24.7354 0.584674C16.7451 3.65286 10.8588 9.25837 10.9919 12.8606L11.125 18.997M42.0503 8.85577C42.0503 8.85577 38.1818 8.72265 38.0471 12.1918C38.0471 12.1918 38.0471 12.7275 38.3133 13.2584C38.3133 13.2584 41.3977 9.78921 43.2484 11.6577M25.1023 13.6204C25.1023 13.6204 24.4529 8.29571 19.8961 11.3915C16.961 13.3931 17.2273 16.1967 17.7614 16.7292C18.2955 17.2616 18.151 18.3525 18.5731 17.6009C18.9951 16.8493 18.8458 14.4613 20.3133 13.7941C21.7808 13.1269 24.1867 12.3818 25.1185 13.622" transform="translate(4.383117 0)" id="Shape" fill="#F7E4CD" fill-rule="evenodd" stroke="none" />
          <path d="M16.9416 3.73539L4.39935 9.34091C4.39935 9.34091 9.6039 30.0065 6.93669 36.4253L5.06981 35.776L4.93669 27.9026L1.46753 12.9578L0 8.82143L13.0568 0L16.9269 3.73377M18.2321 15.1737L20.0114 17.3442L20.0114 25.3506L17.8782 25.3506L17.612 19.0795C17.612 18.4302 17.8782 15.9951 17.8782 15.9951M18.276 26.5519L12.2695 26.8182L14.0065 28.0195L18.276 28.6688" transform="translate(0 45.951557)" id="Shape" fill="#49728B" fill-rule="evenodd" stroke="none" />
          <g id="Group" transform="translate(38.82468 44.08142)">
            <path d="M0 0.133118L4.93506 0L6.13636 12.276L1.06655 12.9416L0 0.133118" transform="translate(0 26.954546)" id="Shape" fill="#335061" fill-rule="evenodd" stroke="none" />
            <path d="M0 27.0877L7.4724 26.6867L10.5568 18.5471C10.5568 18.1461 13.2256 7.33929 13.2256 7.33929L7.21915 1.06818L6.01785 0L2.81493 3.20292L2.81493 15.6104L0.0129848 27.0877" transform="translate(1.3344159 0)" id="Shape" fill="#335061" fill-rule="evenodd" stroke="none" />
          </g>
          <path d="M4.67046 26.1542L0 27.0877L0.649351 30.8247C2.38312 31.625 5.31981 29.4903 5.31981 29.4903M4.78734 2.80195L14.1266 9.74026L14.3929 6.53734L7.32143 0L4.80033 2.81818" transform="translate(38.824673 44.08143)" id="Shape" fill="#49728B" fill-rule="evenodd" stroke="none" />
          <path d="M4.36364 26.2711L1.60065 15.0617L0.227274 6.79058L0 0.649351L12.5033 0L20.2825 0L19.5747 13.9935L20.776 24.8019L20.6429 26.8036L10.5016 27.6039L4.36526 26.2695" transform="translate(18.54383 71.185326)" id="Shape" fill="#FFFFFF" fill-rule="evenodd" stroke="none" />
          <path d="M8.54058 0.801948C8.54058 0.801948 7.875 14.6786 9.875 24.5519C9.875 24.5519 5.87176 27.0877 0 27.7549L11.2078 27.3539L12.5422 26.5536L10.9416 4.67046L10.5406 0" transform="translate(28.550325 70.234024)" id="Shape" fill="#DCD9D8" fill-rule="evenodd" stroke="none" />
          <path d="M1.44481 14.8133L6.64935 13.3458L16.5227 12.8101L17.9903 8.27435L15.3214 0.400974L12.237 0L7.96754 1.33442L3.87013 3.33442L1.69481 2.93506L0 3.58441" transform="translate(43.74513 67.432076)" id="Shape" fill="#FFFFFF" fill-rule="evenodd" stroke="none" />
          <path d="M0 9.47078C0 9.47078 3.46916 7.87013 4.00325 8.00324L2.53572 0.665585L4.26948 0L5.47078 7.73864L13.6104 8.13961C13.6104 8.13961 15.211 5.0552 14.8117 1.86851L16.2792 6.13799L16.4123 8.54059L14.2776 11.7435L11.875 12.2792L7.87176 12.1461L6.53735 10.4123L1.86689 11.0779L0.399359 11.6136" transform="translate(45.09578 70.10415)" id="Shape" fill="#DCD9D8" fill-rule="evenodd" stroke="none" />
        </g>
        <path d="M6.00324 13.7257L3.06818 6.26948L0 1.86688C0 1.86688 0.66558 0 1.60065 0L4.66883 0L7.60389 1.06818L7.33766 6.00325L6.00324 13.7419" transform="translate(42.545456 56.731747)" id="Shape" fill="#FFFFFF" fill-rule="evenodd" stroke="none" />
        <path d="M6.82305 11.4773C6.82305 11.4773 3.08604 4.27273 3.08604 3.20455C3.08604 3.20455 3.75162 1.6039 4.68669 2.00325C5.62175 2.4026 7.62175 3.47078 7.62175 3.47078L7.62175 0.935067L3.08441 0L0 0.400974L5.20454 12.677L6.2711 12.8101" transform="translate(42.300327 56.44278)" id="Shape" fill="#DCD9D8" fill-rule="evenodd" stroke="none" />
        <path d="M7.16558 1.47078L3.46916 1.06818L0 0L0 1.2013L1.6948 3.07143L7.03247 5.47402" transform="translate(25.63961 48.83889)" id="Shape" fill="#FFFFFF" fill-rule="evenodd" stroke="none" />
        <g id="Group" transform="translate(26.443182 49.772842)">
          <path d="M0.397727 0.00162001C0.397727 0.00162001 4.53409 1.73864 5.86851 1.33604L6.00162 2.93507L2.26786 2.13636L0 0.535712L0.400972 0" transform="translate(0 0.9345565)" id="Shape" fill="#DCD9D8" fill-rule="evenodd" stroke="none" />
          <path d="M6.6396 7.3956C4.375 7.33066 2.32954 7.05956 0.538962 6.55469C0.660715 5.82092 0.433439 5.10014 0.615256 4.57092C1.11363 4.21378 1.9513 4.21702 2.70617 4.13261C2.05357 3.81118 1.13636 3.68456 0.384739 3.86962C0.368505 3.35988 0.137983 3.04495 0 2.64559C1.27273 2.19105 4.2776 -0.787849 5.96916 0.199162C6.77435 0.669945 7.11689 3.34852 7.17857 4.65046C7.23052 5.73163 7.08117 6.82092 6.63961 7.41021" transform="translate(20.788963 0)" id="Shape" fill="#D33833" fill-rule="evenodd" stroke="none" />
        </g>
        <path d="M6.63961 7.39559C4.375 7.33066 2.32954 7.05955 0.538962 6.55469C0.660716 5.82092 0.433439 5.10014 0.615256 4.57092C1.11363 4.21378 1.9513 4.21702 2.70617 4.13261C2.05357 3.81118 1.13636 3.68456 0.38474 3.86962C0.368505 3.35988 0.137983 3.04495 0 2.64559C1.27273 2.19105 4.2776 -0.787849 5.96916 0.199162C6.77435 0.669945 7.11689 3.34852 7.17857 4.65046C7.23052 5.73163 7.08117 6.82092 6.63961 7.41021L6.63961 7.39559Z" transform="translate(47.232143 49.772842)" id="Shape" fill="none" fill-rule="evenodd" stroke="#D33833" stroke-width="0.493" />
        <path d="M9.88846 3.1061L9.86898 3.62233C9.16281 4.08661 8.02157 4.08174 7.2456 4.47136C8.22708 4.50337 9.19005 4.74703 10.0687 5.18565L10.02 6.47948C8.7245 7.36584 7.54105 8.68727 6.01508 9.52006C5.2943 9.91291 2.76183 10.9259 1.99397 10.7473C1.56053 10.6467 1.51995 10.1077 1.34787 9.5996C0.977742 8.51194 0.127091 6.78142 0.0524149 5.14344C-0.0417387 3.07525 -0.251156 -0.39228 1.97774 0.0362941C3.77482 0.377199 5.86735 1.20512 7.25858 1.98435C8.10923 2.45025 8.60111 3.02331 9.8917 3.12396" transform="translate(33.157 50.361042)" id="Shape" fill="#D33833" fill-rule="evenodd" stroke="none" />
        <path d="M9.88846 3.1061L9.86898 3.62233C9.16281 4.08661 8.02157 4.08174 7.2456 4.47136C8.22708 4.50337 9.19005 4.74703 10.0687 5.18565L10.02 6.47948C8.7245 7.36584 7.54105 8.68727 6.01508 9.52006C5.2943 9.91291 2.76183 10.9259 1.99397 10.7473C1.56053 10.6467 1.51995 10.1077 1.34787 9.5996C0.977742 8.51194 0.127091 6.78142 0.0524149 5.14344C-0.0417387 3.07525 -0.251156 -0.39228 1.97774 0.0362941C3.77482 0.377199 5.86735 1.20512 7.25858 1.98435C8.10923 2.45025 8.60111 3.02331 9.8917 3.12396L9.88846 3.1061Z" transform="translate(33.157 50.361042)" id="Shape" fill="none" fill-rule="evenodd" stroke="#D33833" stroke-width="0.493" />
        <path d="M0.357546 2.87678C0.159499 1.75015 -0.0694027 1.42872 0.019886 0.446582C3.02313 -1.55666 3.58807 3.88814 0.357546 2.87678" transform="translate(43.976864 53.05789)" id="Shape" fill="#D33833" fill-rule="evenodd" stroke="none" />
        <path d="M0.357546 2.87678C0.159499 1.75015 -0.0694027 1.42872 0.019886 0.446582C3.02313 -1.55666 3.58807 3.88814 0.357546 2.87678L0.357546 2.87678Z" transform="translate(43.976864 53.05789)" id="Shape" fill="none" fill-rule="evenodd" stroke="#D33833" stroke-width="0.493" />
        <path d="M16.5389 7.99351C16.5389 7.99351 15.6038 6.65909 16.2727 6.25649C16.9415 5.8539 17.6071 6.25649 18.0097 5.60714C18.4123 4.95779 18.0097 4.53897 18.1428 3.74026C18.2759 2.94156 18.9431 2.8052 19.6103 2.67208C20.2775 2.53896 22.1461 2.2711 22.4123 2.93831L21.612 0.535712L20.0113 0L14.9415 2.93507L14.6753 4.4026L14.6753 7.34416M2.52592 12.4123L2.00644 6.17046C1.72398 3.06494 2.7532 3.60552 5.44475 3.60552C5.85547 3.60552 7.97722 4.09578 8.1282 4.40585C8.85547 5.89286 6.91066 5.56169 8.96586 6.68344C10.7029 7.62987 13.7662 6.10877 13.0649 4.00487C12.672 3.53734 11.0194 3.84253 10.4285 3.55032L7.3019 1.92695C5.9756 1.23864 2.91066 0.235392 1.4967 1.19643C-2.08609 3.63149 1.72398 9.71916 3.00157 12.263" transform="translate(32.16239 48.83889)" id="Shape" fill="#EF3D3A" fill-rule="evenodd" stroke="none" />
        <path d="M22.4156 2.16252C18.7792 1.31512 16.9724 3.68524 15.8701 6.13979C14.8864 5.90116 15.2776 4.56187 15.526 3.88006C16.1753 2.08947 18.8003 -0.292025 20.9432 0.0294004C21.8653 0.169008 23.1136 1.01154 22.4156 2.15927M40.1364 6.30538L40.3084 6.31188C41.1299 8.01967 41.8409 9.82811 42.8783 11.3346C42.1834 12.9515 37.6185 14.3833 37.6899 11.4969C38.6769 11.0651 40.3815 11.4093 41.2565 10.8573C40.75 9.46934 40.0227 8.2859 40.1201 6.32162M24.2792 6.35084C25.0584 7.77941 25.3133 9.28266 26.4221 10.3606C26.9205 10.8476 27.8912 11.4401 27.3961 12.7924C27.2825 13.1122 26.461 13.8232 25.987 13.9612C24.2549 14.4726 20.2159 14.0668 21.5844 11.906C23.0179 11.971 24.9448 12.8362 26.0162 11.7957C25.1932 10.497 23.7435 7.87844 24.2662 6.34597M39.4708 20.8752C36.862 22.5505 33.9513 24.3736 29.6769 23.9515C28.763 23.1398 28.4156 21.3898 29.3036 20.2226C29.7662 21.0343 29.4757 22.4953 30.7646 22.6966C33.1899 23.1122 36.013 21.2129 37.7581 20.5489C38.8409 18.7242 37.6656 18.0538 36.6899 16.8801C34.6932 14.4742 32.0179 11.4937 32.1153 7.89144C32.9221 7.30702 32.9919 8.7843 33.0893 9.05378C34.1315 11.4921 36.7532 14.6106 38.6672 16.6836C39.1542 17.1983 39.9107 17.6901 39.9984 18.0311C40.2468 19.0051 39.3523 20.2031 39.4562 20.8606M5.08929 19.1106C4.2711 18.643 4.0763 16.5878 3.11688 16.5132C1.74513 16.432 1.98052 19.1804 2 20.7891C1.05519 19.932 0.88961 17.2924 1.58279 15.919C0.792207 15.5294 0.438311 16.3476 0 16.6333C0.563311 12.5375 6.00649 14.7339 5.08766 19.0765M41.1494 22.583C39.9351 24.8947 38.2175 27.4401 34.6526 27.5148C34.5795 26.768 34.5227 25.6317 34.6558 25.182C37.3799 24.9223 39.0617 23.5343 41.1494 22.5846M24.0714 24.0814C26.3442 25.2762 30.5227 25.4044 33.612 25.3151C33.7776 25.9921 33.7744 26.8281 33.7808 27.6528C29.8101 27.8508 25.112 26.8687 24.0731 24.0814M23.6412 26.3102C25.2127 30.2551 30.6153 29.8005 35.1705 29.6934C34.9692 30.2064 34.5211 30.8102 33.9951 31.0294C32.5341 31.6236 28.5081 32.0749 26.4821 30.9969C25.1964 30.3151 24.3718 28.7697 23.6672 27.8638C23.3425 27.4255 21.6331 26.3102 23.6412 26.3086" transform="translate(15.766234 11.812733)" id="Shape" fill="#231F20" fill-rule="evenodd" stroke="none" />
        <path d="M5.79546 1.79331L0 10.9816C0.917212 8.28357 1.31007 3.76896 1.44805 0.3274C3.36688 -0.570327 5.01136 0.530322 5.7987 1.79169" transform="translate(49.26948 58.09915)" id="Shape" fill="#81B0C4" fill-rule="evenodd" stroke="none" />
        <path d="M5.53084 0C3.46591 0.413964 2.01461 2.43506 0 2.29221C1.10714 0.733769 3.04708 0.0730539 5.53084 0M6.43994 3.51225C4.7565 3.76396 2.77922 4.20948 1.07305 4.01566C1.88149 2.10271 4.99513 2.76217 6.43994 3.51225M7.02435 6.52218C5.13312 6.58951 2.78084 6.52757 0.985396 6.25286C2.04871 4.35689 5.80033 5.55265 7.02435 6.52218" transform="translate(59.457794 71.24798)" id="Shape" fill="#231F20" fill-rule="evenodd" stroke="none" />
        <path d="M2.26137 0.0241664C2.53247 2.40078 3.47402 4.80663 3.35715 7.41053C2.31169 7.7628 1.71104 8.07125 0.30844 8.06962L0 0.369937C0.68993 0.415396 1.70454 -0.121942 2.25974 0.0257814" transform="translate(49.241882 84.86668)" id="Shape" fill="#DCD9D8" fill-rule="evenodd" stroke="none" />
        <path d="M7.28409 0C6.33442 0.620131 5.52597 1.3961 4.61364 2.05682C2.59091 2.15747 1.48701 1.91721 0 0.754869C0.0243497 0.66234 0.173703 0.702925 0.162338 0.589291C2.32792 1.5552 5.08117 0.196427 7.26786 0.00162992" transform="translate(41.170456 49.876225)" id="Shape" fill="#F0D6B7" fill-rule="evenodd" stroke="none" />
        <path d="M0 5.3328C0.595779 2.75488 2.92695 1.42045 5.04383 0C7.22889 2.77273 8.55844 6.33928 10.0211 9.78085C6.56331 8.73864 3.03084 7.04708 0 5.33279" transform="translate(37.084415 59.304794)" id="Shape" fill="#81B0C4" fill-rule="evenodd" stroke="none" />
        <path d="M41.7244 85.235C41.6367 87.3454 41.9322 90.722 42.0328 92.9347C43.4338 92.9363 44.0345 92.6262 45.0815 92.2756C45.2 89.6733 44.2585 87.2658 43.9858 84.8892C43.4338 84.7431 42.416 85.2788 41.726 85.2334L41.7244 85.235ZM19.9013 73.2447C20.8267 81.7399 22.1643 88.8811 24.6189 96.4038C30.0669 98.0597 36.6351 98.2025 41.4533 96.709C40.5685 92.4623 40.9549 87.2934 40.4387 82.7642C40.0491 79.3584 40.2471 75.9298 39.713 72.4558C33.877 71.2415 25.6286 72.1717 19.903 73.2431L19.9013 73.2447ZM41.0913 72.511C41.0426 76.1603 41.2536 79.7593 41.5328 83.4119C42.9338 83.2009 43.8867 83.0613 45.1854 82.7756C44.7634 79.2593 44.8153 75.3016 43.9517 72.1912C42.9565 72.2009 42.0799 72.1798 41.088 72.5126L41.0913 72.511ZM48.1984 71.9233C47.5491 71.7707 46.7601 71.9168 46.1237 71.9298C46.4224 74.9038 47.1465 78.1863 47.4013 81.308C48.4013 81.3405 48.9354 80.8697 49.7552 80.7074C49.7991 77.9671 49.5166 74.1912 48.1968 71.9217L48.1984 71.9233ZM58.9614 81.7561C61.0442 81.2496 62.3543 78.6976 61.7698 76.0775C61.3802 74.3162 60.6822 70.9996 59.9354 69.873C59.3835 69.0402 57.89 67.9477 56.6984 68.7123C54.7585 69.9541 51.3413 70.3145 49.9289 71.8194C50.6384 74.1814 50.8591 77.4249 51.1513 80.4184C53.575 80.5694 56.5572 79.7528 58.5702 80.6197C57.1627 81.0743 55.3396 81.0791 54.1221 81.7431C55.1156 82.2236 57.4419 82.1262 58.9598 81.7593L58.9614 81.7561ZM39.5864 69.0856C38.1221 65.6441 36.7942 62.0775 34.6091 59.3048C32.4922 60.7253 30.1611 62.0597 29.5653 64.6376C32.5961 66.3519 36.1286 68.0434 39.5864 69.0856L39.5864 69.0856ZM43.1935 58.4282C43.0556 61.8697 42.6627 66.386 41.7455 69.0824C43.9338 66.2951 45.6984 63.0516 47.5409 59.8941C46.7552 58.6327 45.1107 57.5321 43.1903 58.4298L43.1935 58.4282ZM39.1026 56.9753C38.2747 56.886 37.5702 57.9282 36.4922 57.4785C36.2455 57.7512 36.0052 58.0467 35.7682 58.3145C38.1497 61.1847 39.2309 65.2545 41.0702 68.6262C42.0572 65.3876 41.9436 61.8405 42.1611 58.3015C40.8056 58.3876 40.0507 57.0759 39.1026 56.9753L39.1026 56.9753ZM36.4728 53.5045C36.3851 54.4866 36.6124 54.808 36.8104 55.9347C40.0572 56.9444 39.476 51.5028 36.4728 53.5045L36.4728 53.5045ZM32.89 52.3292C31.4987 51.5662 29.4062 50.7382 27.6091 50.3811C25.3802 49.9541 25.5897 53.4217 25.6838 55.4882C25.7585 57.1279 26.6091 58.8568 26.9793 59.9444C27.153 60.4525 27.1903 60.9915 27.6254 61.0921C28.3932 61.2545 30.9241 60.2593 31.6465 59.8649C33.1724 59.0337 34.3575 57.7123 35.6513 56.8243L35.7 55.5304C34.8214 55.0918 33.8585 54.8482 32.877 54.8162C33.653 54.4266 34.7926 54.4314 35.5004 53.9671L35.5198 53.4509C34.2293 53.3535 33.7374 52.7772 32.8867 52.3113L32.89 52.3292ZM19.5783 49.9136C18.4224 51.0856 22.8185 52.6847 24.2179 52.7707C24.2098 52.0288 24.64 51.3291 24.5539 50.7967C22.8916 50.5045 20.7065 50.6993 19.5783 49.9136L19.5783 49.9136ZM33.8088 50.4655C33.8039 50.5791 33.6546 50.5386 33.6465 50.6311C35.1335 51.7934 36.2374 52.0337 38.2601 51.933C39.1724 51.2707 39.9809 50.4964 40.9306 49.8762C38.7439 50.071 35.9906 51.4298 33.825 50.4639L33.8088 50.4655ZM46.8705 54.4266C46.8088 53.123 46.4646 50.4444 45.6611 49.9753C43.9728 48.9882 40.9663 51.9671 39.6919 52.4217C39.8299 52.821 40.0588 53.136 40.0767 53.6457C40.8299 53.4606 41.7455 53.5873 42.3981 53.9087C41.6432 53.9931 40.8072 53.9899 40.3072 54.347C40.1237 54.8762 40.3526 55.597 40.2309 56.3308C42.0215 56.834 44.0669 57.1051 46.3315 57.1717C46.7698 56.5986 46.9224 55.5093 46.8705 54.4119L46.8705 54.4266ZM17.6335 51.0499C17.2715 50.7902 14.8169 47.5986 14.4809 47.7301C10.0572 49.4785 5.90459 52.5077 2.19517 55.3714C5.73251 62.9639 7.16108 72.2642 7.41433 81.2285C11.4663 83.123 15.028 85.8551 20.5247 86.1408C19.8884 81.6376 19.3072 77.6214 18.9468 73.3811C17.5669 72.7967 15.5832 73.4071 14.2877 73.2025C14.2763 71.6441 16.2634 72.5207 16.4273 71.472C16.5523 70.6798 15.3348 70.6197 15.7293 69.3714C16.7406 69.7382 17.2715 70.5499 18.3494 70.8551C19.3348 68.6993 18.3364 64.886 18.4793 63.0856C18.5069 62.748 18.6481 61.2123 19.4046 61.4818C20.0767 61.7025 19.3689 65.5662 19.4273 67.2707C19.4922 68.8421 19.2374 70.3616 19.8737 71.3454C25.3333 70.5973 30.8295 70.147 36.338 69.9964C35.0718 69.4541 33.5702 68.9412 31.9224 68.011C31.0296 67.524 28.2147 66.459 27.9565 65.6116C27.5458 64.2593 29.0361 63.5402 29.291 62.3649C26.6091 63.8259 26.0848 60.9623 25.45 58.933C24.8754 57.0938 24.5474 55.7188 24.4062 54.6603C22.0961 53.5564 19.6254 52.4428 17.6367 51.0304L17.6335 51.0499ZM44.541 48.1149C48.2422 46.321 48.9241 54.8194 47.4582 57.558C47.6822 58.3746 48.4533 58.6879 48.7682 59.4217C46.7033 63.1197 44.4095 66.5727 42.3039 70.2285C43.8705 69.2545 46.1091 70.0548 47.9533 69.3243C48.627 69.058 49.1156 67.5142 49.6254 66.2804C51.0296 62.8843 52.5036 58.6019 53.1595 55.3616C53.3056 54.623 53.7114 53.0142 53.6205 52.3584C53.4582 51.1814 51.8624 50.3097 51.0507 49.5824C49.5539 48.2382 48.6124 47.0548 47.0507 45.7999C46.4013 46.735 45.0604 47.3616 44.5426 48.1213L44.541 48.1149ZM9.1903 15.3032C7.42731 17.2431 7.7942 20.8778 8.01011 23.4639C11.1968 21.459 15.4257 23.623 15.3867 27.0321C16.9078 26.9915 15.9549 25.1327 15.6789 23.9314C14.7796 20.0191 17.1935 15.7658 15.7877 12.1879C13.0604 12.3941 10.8153 13.5093 9.18868 15.3015L9.1903 15.3032ZM21.8039 4.04506C17.8104 5.17654 12.713 8.0759 11.0572 11.6619C12.3267 11.4769 13.2082 10.8373 14.4614 10.7577C14.9354 10.7253 15.5556 10.9558 16.101 10.8227C17.1854 10.5532 18.101 8.12298 18.9192 7.21876C19.7147 6.33564 20.6757 5.95739 21.3315 5.1522C21.7536 4.94928 22.3754 4.96227 22.3997 4.33077C22.2163 4.13597 22.0263 3.98661 21.8056 4.04831L21.8039 4.04506ZM42.5799 5.10837C38.437 2.7707 31.4273 1.01258 27.0182 3.20902C23.4468 4.98174 18.6578 7.91681 17.0182 11.6343C18.5491 15.2058 16.5637 18.5077 16.4387 22.1506C16.3737 24.0889 17.351 25.7804 17.4257 27.8892C16.9013 28.7529 15.2991 28.86 14.1952 28.7983C13.8218 26.9314 13.1692 24.834 11.2471 24.6262C8.52796 24.3291 6.53932 26.5791 6.41595 28.9314C6.25361 31.6977 8.54257 36.2804 11.7569 35.9606C13.0004 35.8373 13.3056 34.5921 14.6595 34.6051C15.3932 36.0694 13.5263 36.5304 13.3348 37.5759C13.2861 37.847 13.489 38.9038 13.6108 39.4006C14.1952 41.8162 15.4987 44.9412 16.7812 46.7788C18.4095 49.1116 21.6075 49.4623 25.0474 49.6912C25.6643 48.3681 27.9257 48.4769 29.4013 48.8227C27.6319 48.1246 25.9922 46.4249 24.6286 44.9233C23.0637 43.1993 21.4793 41.3519 21.3981 39.0954C24.3526 43.196 26.7974 46.7788 32.1724 48.5824C36.2406 49.946 40.9906 47.9574 44.1156 45.7626C45.4143 44.8503 46.1871 43.4022 47.1091 42.0775C50.5588 37.1165 52.1676 30.0321 51.8137 23.1701C51.6513 20.3389 51.6741 17.5175 50.726 15.6132C49.7325 13.6214 46.3754 11.8405 44.4111 13.6408C44.0474 11.7041 46.0458 10.5077 48.3932 11.2058C46.7211 9.04668 44.963 6.44928 42.5815 5.10675L42.5799 5.10837ZM50.2974 68.9817C53.5345 67.3746 59.5832 64.6506 61.6124 68.9882C62.3591 70.5873 63.2406 73.2902 63.6286 74.9395C64.1773 77.2675 63.0345 82.1636 60.6416 82.9428C58.528 83.6327 56.0604 83.5921 53.4987 83.0791C53.1984 82.8291 52.8494 82.3973 52.6319 81.9428C50.8137 81.873 49.1091 82.0402 47.6757 82.7869C47.812 84.1311 46.903 84.3454 46.0491 84.6246C45.416 87.1311 47.3153 90.4038 46.8608 92.6895C46.5361 94.3178 44.5345 94.5694 43.062 94.8746C43.0133 95.7788 43.127 96.5353 43.2276 97.2999C42.8916 98.5402 41.3819 99.248 39.9484 99.4201C35.2406 99.9882 28.0945 100.24 23.5685 98.6116C22.3056 95.511 21.312 91.7447 20.2569 88.2058C15.8559 88.6766 12.2845 86.2999 8.9192 84.7431C7.75361 84.2025 6.14322 83.9055 5.70491 82.9769C5.28283 82.0791 5.45491 80.3568 5.35102 78.7301C5.08478 74.5743 4.85589 70.5694 3.76011 66.3162C3.26822 64.4071 2.40946 62.7236 1.81205 60.8843C1.26011 59.1798 0.290951 57.0743 0.0393273 55.3746C-0.334049 52.8551 2.03608 52.7155 3.55394 51.6408C5.89809 49.9525 7.739 49.0191 10.278 47.4964C11.0296 47.0451 13.2974 45.9055 13.5572 45.3779C14.0702 44.3356 12.6773 42.8649 12.3039 42.0467C11.7147 40.7545 11.4078 39.6555 11.3234 38.3811C9.19355 38.0451 7.57829 36.7772 6.60264 35.3454C4.989 32.9801 3.8705 28.6035 5.2666 25.274C5.37537 25.011 5.92244 24.4947 6.00199 24.0938C6.16108 23.3016 5.70329 22.2464 5.67407 21.4022C5.51173 17.0743 6.40459 13.347 9.31855 12.0418C10.5004 7.33077 14.7341 5.76421 18.7211 3.42168C20.2114 2.54505 21.8543 1.98662 23.5523 1.36324C29.64 -0.877028 38.9809 -0.454944 44.0328 3.36648C46.1757 4.98662 49.601 8.40869 50.825 10.886C54.0604 17.4249 53.8283 28.3535 51.5669 36.308C51.2634 37.3762 50.8202 38.946 50.2033 40.2285C49.7731 41.1246 48.4387 42.9168 48.601 43.7074C48.7682 44.5256 51.6448 46.7106 52.2617 47.3048C53.3721 48.3762 55.4825 49.7983 55.6708 51.1522C55.8543 52.5905 55.0377 54.5613 54.6221 55.9493C53.2374 60.584 51.8851 64.8665 50.3153 68.998" transform="translate(7.5207376 0)" id="Shape" fill="#231F20" fill-rule="evenodd" stroke="none" />
        <path d="M0.0890955 0.309525C0.264418 0.0757589 1.23033 -0.279766 2.58098 0.37121C2.58098 0.37121 0.980328 0.637446 1.11344 3.30952L0.447861 3.1764C0.447861 3.1764 -0.242075 0.757574 0.0907155 0.311145" transform="translate(36.13331 36.594303)" id="Shape" fill="#F7E4CD" fill-rule="evenodd" stroke="none" />
        <path d="M1.46755 0.733769C1.46755 1.03055 1.28878 1.29811 1.01459 1.41168C0.740398 1.52525 0.424789 1.46248 0.214936 1.25262C0.005078 1.04276 -0.057701 0.727155 0.0558779 0.452968C0.169447 0.178775 0.43701 0 0.733784 0C1.13963 0 1.46755 0.329545 1.46755 0.733769M2.20132 4.13636C2.20132 4.43314 2.02254 4.7007 1.74835 4.81427C1.47416 4.92784 1.15855 4.86506 0.9487 4.65521C0.738847 4.44536 0.676068 4.12975 0.789642 3.85556C0.903216 3.58137 1.17077 3.40259 1.46755 3.4026C1.8734 3.4026 2.20132 3.73214 2.20132 4.13636" transform="translate(46.454525 59.11486)" id="Shape" fill="#1D1919" fill-rule="evenodd" stroke="none" />
        <path d="M0.00161505 53.8718L0.00161505 47.2581L3.66071 47.2581C3.77327 49.0222 4.18615 50.3171 4.89935 51.1429C5.63095 51.9686 6.70995 52.3815 8.13636 52.3815C9.95671 52.3815 11.2229 51.678 11.9351 50.2711C12.6667 48.8826 13.0325 46.2652 13.0325 42.4188L13.0325 5.17858L6.92695 5.17858L6.92695 1.77273L29.3036 1.77273L29.3036 5.18183L23.9237 5.18183L23.9237 42.6412C23.9237 47.2008 22.7695 50.5314 20.461 52.6331C18.1721 54.7349 14.5227 55.7857 9.51298 55.7857C7.95455 55.7857 6.38799 55.6261 4.81331 55.3068C3.23755 54.9876 1.63312 54.5092 0 53.8718L0.00161505 53.8718ZM54.5763 26.9237C54.5763 22.9843 54.2105 20.2262 53.4789 18.6494C52.7473 17.0541 51.4994 16.2565 49.7354 16.2565C48.0276 16.2565 46.7992 17.0357 46.0503 18.5942C45.3187 20.1526 44.9529 22.7608 44.9529 26.4188L44.9529 26.9253L54.5795 26.9253L54.5763 26.9237ZM65.5244 30.2727L44.9497 30.2727L44.9497 30.5C44.9497 34.3658 45.5314 37.1618 46.6948 38.888C47.8582 40.5958 49.7348 41.4497 52.3247 41.4497C54.4827 41.4497 56.2278 40.8772 57.5601 39.7321C58.8912 38.5871 59.7451 36.9259 60.1217 34.7484L64.7938 34.7484C63.9865 38.1445 62.382 40.6402 59.9805 42.2354C57.5779 43.8306 54.2192 44.6283 49.9042 44.6283C44.7256 44.6283 40.7484 43.2679 37.9724 40.5471C35.2127 37.809 33.8328 33.9058 33.8328 28.8377C33.8328 23.8842 35.2495 20.0189 38.0828 17.2419C40.9161 14.4648 44.8566 13.0763 49.9042 13.0763C54.8577 13.0763 58.6575 14.5401 61.3036 17.4675C63.9497 20.3755 65.3566 24.6504 65.5244 30.2922L65.5244 30.2727ZM70.1412 43.7955L70.1412 40.3896L74.3912 40.3896L74.3912 17.2825L70.1412 17.2825L70.1412 13.8766L84.3555 13.8766L84.3555 18.0974C85.546 16.3149 86.915 15.0298 88.4627 14.2419C90.0016 13.454 91.9497 13.0601 94.3068 13.0601C97.665 13.0601 100.197 14.0547 101.904 16.0438C103.63 18.0135 104.493 20.9221 104.493 24.7695L104.493 40.3912L108.771 40.3912L108.771 43.7955L90.914 43.7955L90.914 40.3896L94.5454 40.3896L94.5454 24.487C94.5454 21.9546 94.217 20.2002 93.5601 19.224C92.9107 18.2284 91.7943 17.7305 90.211 17.7305C88.2034 17.7305 86.7305 18.4719 85.7922 19.9546C84.8539 21.4178 84.3847 23.7538 84.3847 26.9627L84.3847 40.388L88.0438 40.388L88.0438 43.7971L70.1412 43.7971L70.1412 43.7955ZM130.007 43.7955L112.019 43.7955L112.019 40.3896L116.269 40.3896L116.269 3.37663L112.019 3.37663L112.019 0L126.234 0L126.234 28.1185L138.308 17.2825L134.734 17.2825L134.734 13.8766L148.37 13.8766L148.37 17.2825L142.825 17.2825L135.114 24.2062L147.722 40.3912L150.959 40.3912L150.959 43.7955L133.791 43.7955L133.791 40.3896L137.308 40.3896L129.005 29.7224L126.219 32.1997L126.219 40.3912L129.99 40.3912L129.99 43.7955L130.007 43.7955ZM155.31 5.4026C155.31 3.88312 155.835 2.60715 156.885 1.57468C157.935 0.524892 159.22 0 160.74 0C162.223 0 163.48 0.524892 164.511 1.57468C165.561 2.60714 166.086 3.88312 166.086 5.4026C166.086 6.88529 165.561 8.15152 164.511 9.20131C163.479 10.2338 162.222 10.75 160.74 10.75C159.221 10.75 157.936 10.2338 156.885 9.20131C155.835 8.16884 155.31 6.90261 155.31 5.4026L155.31 5.4026ZM166.187 40.3864L170.464 40.3864L170.464 43.7955L151.958 43.7955L151.958 40.3896L156.208 40.3896L156.208 17.2825L151.958 17.2825L151.958 13.8766L166.172 13.8766L166.172 40.3912L166.187 40.3864ZM173.94 43.7955L173.94 40.3896L178.19 40.3896L178.19 17.2825L173.94 17.2825L173.94 13.8766L188.154 13.8766L188.154 18.0974C189.345 16.3149 190.714 15.0298 192.261 14.2419C193.8 13.454 195.748 13.0601 198.106 13.0601C201.464 13.0601 203.996 14.0547 205.703 16.0438C207.429 18.0135 208.292 20.9221 208.292 24.7695L208.292 40.3912L212.57 40.3912L212.57 43.7955L194.713 43.7955L194.713 40.3896L198.344 40.3896L198.344 24.487C198.344 21.9546 198.016 20.2002 197.359 19.224C196.709 18.2284 195.593 17.7305 194.01 17.7305C192.002 17.7305 190.529 18.4719 189.591 19.9546C188.653 21.4178 188.183 23.7538 188.183 26.9627L188.183 40.388L191.843 40.388L191.843 43.7971L173.985 43.7971L173.94 43.7955ZM216.554 42.9221L216.554 34.5617L219.735 34.5617C219.998 36.7944 220.833 38.5016 222.24 39.6834C223.647 40.8469 225.561 41.4286 227.982 41.4286C230.008 41.4286 231.556 41.0823 232.625 40.3896C233.714 39.6753 234.258 38.6623 234.258 37.3507C234.258 36.1602 233.912 35.2316 233.219 34.5649C232.544 33.908 231.221 33.3355 229.25 32.8474L225.143 31.8085C222.048 31.0509 219.805 29.9524 218.416 28.513C217.027 27.0682 216.333 25.1201 216.333 22.6688C216.333 19.4221 217.458 17.0108 219.709 15.4351C221.961 13.8398 225.432 13.0422 230.123 13.0422C231.887 13.0422 233.764 13.1921 235.753 13.4919C237.761 13.7733 239.975 14.2235 242.396 14.8425L242.396 22.4042L239.214 22.4042C239.045 20.348 238.314 18.8095 237.019 17.789C235.742 16.7565 233.904 16.2403 231.503 16.2403C229.477 16.2403 227.939 16.5687 226.888 17.2257C225.856 17.875 225.339 18.8133 225.339 20.0406C225.339 21.0536 225.64 21.8512 226.24 22.4334C226.841 23.0146 227.92 23.5027 229.477 23.8977L233.558 24.9367C237.481 25.9324 240.186 27.1607 241.675 28.6218C243.176 30.085 243.927 32.1207 243.927 34.7289C243.927 38.1055 242.716 40.6012 240.295 42.2159C237.893 43.8112 234.149 44.6088 229.065 44.6088C227.208 44.6088 225.238 44.4681 223.156 44.1867C221.074 43.9053 218.869 43.4832 216.542 42.9205L216.554 42.9221Z" transform="translate(88.527596 27.350245)" id="Shape" fill="#000000" fill-rule="evenodd" stroke="none" />
      </g>
    </g>
  </g>
</svg>