<?xml version="1.0" encoding="utf-8"?>
<svg width="305px" height="100px" viewbox="0 0 305 100" version="1.1" xmlns:xlink="http://www.w3.org/1999/xlink" xmlns="http://www.w3.org/2000/svg">
  <defs>
    <path d="M0 0L304.241 0L304.241 99.8632L0 99.8632L0 0Z" id="path_1" />
    <clipPath id="mask_1">
      <use xlink:href="#path_1" />
    </clipPath>
  </defs>
  <g id="Group-8">
    <g id="Group-7" transform="translate(0 0.1368103)">
      <g id="Group-6">
        <g id="Group-5">
          <g id="Group-4">
            <g id="Group-3">
              <g id="Group-2">
                <path d="M0 0L304.241 0L304.241 99.8632L0 99.8632L0 0Z" id="Background" fill="none" fill-rule="evenodd" stroke="none" />
              </g>
            </g>
          </g>
        </g>
      </g>
    </g>
    <path d="M0 0L99.7716 0L99.7716 99.7715L0 99.7715L0 0L0 0Z" transform="translate(5.7455444 0)" id="Shape" fill="#D00000" fill-rule="evenodd" stroke="none" />
    <path d="M9.91792 56.9858L9.91792 38.4632L17.4391 30.9655L36.3073 58.8479L44.9494 58.9157L46.545 55.6586L24.5893 23.8077L44.8016 3.25828L43.6826 0L35.0583 0L9.91792 25.1335L9.91792 1.91874L8.08017 2.08739e-06L1.83803 2.08739e-06L0 1.91847L0 56.9051L1.9357 58.8722L7.95075 58.8482L9.91792 56.9858L9.91792 56.9858Z" transform="translate(32.925293 20.026535)" id="Shape" fill="#FFFFFF" fill-rule="evenodd" stroke="none" />
    <g id="Group" transform="translate(117.7713 22.762512)">
      <path d="M0.000243838 1.90498e-06L6.79931 1.90498e-06L6.79931 26.9503L7.045 26.9503L29.408 0L37.1082 0L20.3153 20.4788L39.7294 53.7365L32.1114 53.7365L16.0556 25.8037L6.79906 36.6984L6.79906 53.7368L0 53.7368L0 1.90498e-06L0.000243838 1.90498e-06ZM43.2518 33.9132C43.2518 30.6365 43.7569 27.7009 44.7674 25.1071C45.7774 22.5131 47.1155 20.315 48.7809 18.5128C50.4466 16.7108 52.3443 15.3317 54.4741 14.3762C56.604 13.4206 58.8157 12.9427 61.1094 12.9427C63.6213 12.9427 65.8742 13.3796 67.8675 14.2533C69.8607 15.1272 71.5262 16.3832 72.8643 18.0214C74.2021 19.6596 75.2264 21.6257 75.936 23.9193C76.6461 26.213 77.0009 28.7798 77.0009 31.6195C77.0009 33.0939 76.919 34.3226 76.7552 35.3057L49.8868 35.3057C50.16 39.6198 51.4843 43.0331 53.8599 45.545C56.2354 48.0571 59.3346 49.3133 63.1573 49.3133C65.0687 49.3133 66.8298 49.0264 68.4408 48.4531C70.0617 47.8749 71.6139 47.1194 73.069 46.2004L75.4446 50.6239C73.697 51.716 71.7584 52.6716 69.6285 53.4908C67.4987 54.3098 65.0687 54.7196 62.3381 54.7196C59.6622 54.7196 57.1638 54.2417 54.8429 53.2861C52.5218 52.3303 50.5013 50.9652 48.7809 49.1902C47.0608 47.4154 45.7092 45.2446 44.7262 42.678C43.7432 40.1112 43.2518 37.1898 43.2518 33.9132L43.2518 33.9132ZM71.103 30.8822C71.103 26.7865 70.243 23.6599 68.5227 21.5028C66.8023 19.3455 64.386 18.2671 61.2732 18.2671C59.8534 18.2671 58.5016 18.554 57.2182 19.1273C55.9348 19.7006 54.7745 20.5198 53.737 21.5847C52.6993 22.6496 51.8394 23.9603 51.1565 25.5166C50.4741 27.0731 50.0234 28.8617 49.8049 30.8822L71.1029 30.8822L71.103 30.8822ZM86.8307 13.9257L92.4013 13.9257L92.9746 21.1343L93.2203 21.1343C94.5856 18.6221 96.2375 16.6289 98.1761 15.1542C100.115 13.6798 102.231 12.9427 104.525 12.9427C106.108 12.9427 107.528 13.2156 108.784 13.7617L107.474 19.6596C106.818 19.4414 106.218 19.2776 105.672 19.1682C105.125 19.0591 104.443 19.0044 103.624 19.0044C101.931 19.0044 100.169 19.6871 98.3402 21.0524C96.5107 22.4174 94.9132 24.793 93.5479 28.179L93.5479 53.7365L86.831 53.7365L86.831 13.926L86.8307 13.9257ZM111.242 43.4154C111.242 39.0465 113.194 35.7014 117.099 33.3806C121.003 31.0597 127.215 29.435 135.736 28.5066C135.736 27.2507 135.611 26.0219 135.366 24.8204C135.119 23.6189 134.684 22.554 134.055 21.6257C133.426 20.6973 132.593 19.9465 131.558 19.373C130.519 18.7997 129.181 18.5128 127.543 18.5128C125.195 18.5128 123.024 18.9497 121.031 19.8236C119.037 20.6973 117.249 21.6803 115.665 22.7725L112.962 18.1033C114.819 16.9018 117.085 15.7412 119.761 14.6219C122.437 13.5025 125.386 12.9427 128.608 12.9427C133.469 12.9427 136.99 14.4308 139.175 17.4071C141.359 20.3834 142.451 24.356 142.451 29.3258L142.451 53.7365L136.882 53.7365L136.308 48.9854L136.145 48.9854C134.241 50.5636 132.166 51.9237 129.959 53.0404C127.748 54.1598 125.413 54.7196 122.956 54.7196C119.57 54.7196 116.771 53.7365 114.559 51.7707C112.348 49.8047 111.242 47.0196 111.242 43.4154L111.242 43.4154ZM117.877 42.9237C117.877 45.2174 118.546 46.8558 119.884 47.8386C121.222 48.8216 122.874 49.3133 124.84 49.3133C126.751 49.3133 128.567 48.8626 130.287 47.9615C132.007 47.0606 133.825 45.7362 135.736 43.9889L135.736 32.9301C132.403 33.3671 129.591 33.8857 127.297 34.4864C125.004 35.0872 123.161 35.7973 121.768 36.6163C120.375 37.4353 119.379 38.3774 118.778 39.4423C118.177 40.5072 117.877 41.6678 117.877 42.9237L117.877 42.9237ZM154.085 44.726C155.831 46.1457 157.62 47.2928 159.449 48.1665C161.278 49.0401 163.394 49.4771 165.797 49.4771C168.42 49.4771 170.385 48.8763 171.696 47.6748C173.007 46.4736 173.662 44.9989 173.662 43.2513C173.662 42.2138 173.389 41.3127 172.843 40.5482C172.297 39.7836 171.6 39.1147 170.752 38.5411C169.907 37.9679 168.938 37.4625 167.845 37.0258L164.568 35.7152C163.126 35.2143 161.704 34.6541 160.308 34.036C158.888 33.4078 157.62 32.6432 156.499 31.7423C155.382 30.841 154.466 29.7898 153.755 28.5885C153.046 27.387 152.691 25.9398 152.691 24.2469C152.691 22.6634 153.007 21.1752 153.632 19.7824C154.261 18.3899 155.162 17.1887 156.337 16.1784C157.512 15.1679 158.942 14.3761 160.638 13.8026C162.33 13.2293 164.241 12.9427 166.372 12.9427C168.883 12.9427 171.19 13.3796 173.292 14.2533C175.397 15.1272 177.211 16.1919 178.742 17.4481L175.545 21.7078C174.179 20.6701 172.76 19.8236 171.287 19.1682C169.811 18.5128 168.201 18.1852 166.454 18.1852C163.94 18.1852 162.097 18.7587 160.925 19.9055C159.75 21.0524 159.162 22.3902 159.162 23.9193C159.162 24.8476 159.409 25.6531 159.901 26.3358C160.39 27.0184 161.047 27.6192 161.867 28.1381C162.685 28.6567 163.627 29.1208 164.691 29.5306C165.757 29.9401 166.864 30.3633 168.01 30.8003C169.451 31.355 170.884 31.9284 172.31 32.5204C173.758 33.1211 175.055 33.8722 176.202 34.7731C177.348 35.6742 178.289 36.7801 179.026 38.0907C179.766 39.4016 180.133 40.9851 180.133 42.8418C180.133 44.4803 179.82 46.0091 179.191 47.4291C178.563 48.8491 177.635 50.105 176.406 51.1972C175.178 52.2893 173.647 53.1498 171.819 53.7775C169.99 54.4057 167.899 54.7196 165.553 54.7196C162.711 54.7196 160.009 54.2007 157.443 53.1632C154.875 52.1255 152.637 50.8149 150.725 49.2314L154.084 44.726L154.085 44.726Z" id="Shape" fill="#000000" fill-rule="evenodd" stroke="none" />
    </g>
  </g>
</svg>