<?xml version="1.0" encoding="utf-8"?>
<svg width="262px" height="100px" viewbox="0 0 262 100" version="1.1" xmlns:xlink="http://www.w3.org/1999/xlink" xmlns="http://www.w3.org/2000/svg">
  <defs>
    <path d="M0 0L101.946 0L101.946 100L0 100L0 0Z" id="path_1" />
    <clipPath id="mask_1">
      <use xlink:href="#path_1" />
    </clipPath>
  </defs>
  <g id="Group">
    <g id="Group-2">
      <g id="kibana">
        <path d="M0 0L101.946 0L101.946 100L0 100L0 0Z" id="Background" fill="none" fill-rule="evenodd" stroke="none" />
        <g clip-path="url(#mask_1)">
          <path d="M0 0L0 52.4688L38.0225 9.5C26.3588 3.26141 13.285 -0.0050962 2.81035e-05 5.96046e-06L0 0Z" transform="translate(11.150291 37.5)" id="Shape" fill="#343741" fill-rule="evenodd" stroke="none" />
          <path d="M0 0L0 37.5C13.2864 37.4997 26.3602 40.7716 38.0225 47.0156L79.6449 0L0 0Z" transform="translate(11.150291 0)" id="Shape" fill="#F04E98" fill-rule="evenodd" stroke="none" />
          <path d="M42.4189 0L0 47.9688L74.2769 47.9688C70.2241 28.6067 58.8401 11.4713 42.4189 0.0156403L42.4189 0Z" transform="translate(14.925461 52.03125)" id="Shape" fill="#00BFB3" fill-rule="evenodd" stroke="none" />
        </g>
      </g>
    </g>
    <g id="Group-3" transform="translate(108.06225 21)">
      <g id="Group">
        <g id="Kibana">
          <path d="M49.752 46.352L49.752 10.688L55.68 10.688L55.68 24.752Q57.144 23.192 58.992 22.268Q60.84 21.344 63.312 21.344Q65.328 21.344 66.996 22.172Q68.664 23 69.876 24.584Q71.088 26.168 71.748 28.496Q72.408 30.824 72.408 33.848Q72.408 36.608 71.664 38.96Q70.92 41.312 69.54 43.04Q68.16 44.768 66.204 45.74Q64.248 46.712 61.824 46.712Q60.696 46.712 59.76 46.484Q58.824 46.256 58.056 45.848Q57.288 45.44 56.628 44.852Q55.968 44.264 55.368 43.544L55.104 45.2Q54.96 45.824 54.612 46.088C54.38 46.264 54.064 46.352 53.664 46.352L49.752 46.352ZM43.56 15.992Q43.872 15.32 43.872 14.552Q43.872 13.76 43.56 13.064Q43.248 12.368 42.732 11.864Q42.216 11.36 41.52 11.06Q40.824 10.76 40.032 10.76Q39.264 10.76 38.58 11.06Q37.896 11.36 37.392 11.864Q36.888 12.368 36.588 13.064Q36.288 13.76 36.288 14.552Q36.288 15.32 36.588 15.992Q36.888 16.664 37.392 17.168Q37.896 17.672 38.58 17.972Q39.264 18.272 40.032 18.272Q40.824 18.272 41.52 17.972Q42.216 17.672 42.732 17.168Q43.248 16.664 43.56 15.992ZM11.688 26.192L10.176 26.192L10.176 11.624L3.72 11.624L3.72 46.352L10.176 46.352L10.176 31.088L12.216 31.088Q13.32 31.088 13.92 31.364Q14.52 31.64 15 32.264L24.816 45.08Q25.2 45.704 25.764 46.028C26.14 46.244 26.712 46.352 27.48 46.352L33.192 46.352L21.144 30.104Q20.544 29.288 19.908 28.76Q19.272 28.232 18.48 27.944Q19.056 27.656 19.56 27.2Q20.064 26.744 20.616 26.072L32.304 11.648L26.736 11.648Q25.728 11.648 25.068 11.948Q24.408 12.248 23.808 13.016L14.232 25.136Q13.8 25.688 13.2 25.94Q12.6 26.192 11.688 26.192ZM93.672 46.352L96.336 46.352L96.336 30.8Q96.336 28.712 95.724 26.96Q95.112 25.208 93.936 23.948Q92.76 22.688 91.068 21.98Q89.376 21.272 87.216 21.272Q81.216 21.272 76.968 25.16L78.048 27.056Q78.312 27.512 78.744 27.824Q79.176 28.136 79.776 28.136Q80.496 28.136 81.096 27.8Q81.696 27.464 82.404 27.044Q83.112 26.624 84.072 26.288Q85.032 25.952 86.472 25.952Q88.464 25.952 89.508 27.149Q90.552 28.346 90.552 30.8371L90.552 32.288Q86.352 32.288 83.52 33.0104Q80.688 33.7329 78.984 34.8284Q77.28 35.924 76.548 37.2845Q75.816 38.645 75.816 40.0419Q75.816 41.7031 76.344 42.9554Q76.872 44.2077 77.82 45.0506Q78.768 45.8934 80.088 46.3147Q81.408 46.736 82.968 46.736Q84.288 46.736 85.368 46.52Q86.448 46.304 87.408 45.872Q88.368 45.44 89.268 44.804Q90.168 44.168 91.104 43.328L91.632 45.08Q91.872 45.848 92.352 46.1Q92.832 46.352 93.672 46.352ZM146.088 46.352L148.752 46.352L148.752 30.8Q148.752 28.712 148.14 26.96Q147.528 25.208 146.352 23.948Q145.176 22.688 143.484 21.98Q141.792 21.272 139.632 21.272Q133.632 21.272 129.384 25.16L130.464 27.056Q130.728 27.512 131.16 27.824Q131.592 28.136 132.192 28.136Q132.912 28.136 133.512 27.8Q134.112 27.464 134.82 27.044Q135.528 26.624 136.488 26.288Q137.448 25.952 138.888 25.952Q140.88 25.952 141.924 27.149Q142.968 28.346 142.968 30.8371L142.968 32.288Q138.768 32.288 135.936 33.0104Q133.104 33.7329 131.4 34.8284Q129.696 35.924 128.964 37.2845Q128.232 38.645 128.232 40.0419Q128.232 41.7031 128.76 42.9554Q129.288 44.2077 130.236 45.0506Q131.184 45.8934 132.504 46.3147Q133.824 46.736 135.384 46.736Q136.704 46.736 137.784 46.52Q138.864 46.304 139.824 45.872Q140.784 45.44 141.684 44.804Q142.584 44.168 143.52 43.328L144.048 45.08Q144.288 45.848 144.768 46.1Q145.248 46.352 146.088 46.352ZM102.168 46.352L102.168 21.728L105.792 21.728Q106.944 21.728 107.304 22.808L107.712 24.752Q108.456 23.984 109.284 23.36Q110.112 22.736 111.036 22.28Q111.96 21.824 113.016 21.584Q114.072 21.344 115.32 21.344Q117.336 21.344 118.896 22.028Q120.456 22.712 121.5 23.948Q122.544 25.184 123.084 26.9Q123.624 28.616 123.624 30.68L123.624 46.352L117.696 46.352L117.696 30.68Q117.696 28.424 116.652 27.188Q115.608 25.952 113.52 25.952Q111.984 25.952 110.64 26.648Q109.296 27.344 108.096 28.544L108.096 46.352L102.168 46.352ZM42.984 46.352L42.984 21.728L37.056 21.728L37.056 46.352L42.984 46.352ZM61.272 25.952Q59.424 25.952 58.116 26.732Q56.808 27.512 55.68 28.928L55.68 39.968Q56.688 41.216 57.876 41.708Q59.064 42.2 60.456 42.2Q61.8 42.2 62.88 41.696Q63.96 41.192 64.716 40.16Q65.472 39.128 65.88 37.556Q66.288 35.984 66.288 33.848Q66.288 31.688 65.94 30.188Q65.592 28.688 64.944 27.752Q64.296 26.816 63.372 26.384Q62.448 25.952 61.272 25.952ZM86.496 42.4906Q85.728 42.656 84.816 42.656Q83.328 42.656 82.404 41.9791Q81.48 41.3022 81.48 39.731Q81.48 38.9334 81.924 38.2567Q82.368 37.58 83.424 37.0722Q84.48 36.5645 86.22 36.2382Q87.96 35.912 90.552 35.912L90.552 40.0336Q89.904 40.6951 89.268 41.1794Q88.632 41.6637 87.948 41.9945Q87.264 42.3252 86.496 42.4906ZM138.912 42.4906Q138.144 42.656 137.232 42.656Q135.744 42.656 134.82 41.9791Q133.896 41.3022 133.896 39.731Q133.896 38.9334 134.34 38.2567Q134.784 37.58 135.84 37.0722Q136.896 36.5645 138.636 36.2382Q140.376 35.912 142.968 35.912L142.968 40.0336Q142.32 40.6951 141.684 41.1794Q141.048 41.6637 140.364 41.9945Q139.68 42.3252 138.912 42.4906Z" />
        </g>
      </g>
    </g>
  </g>
</svg>