<?xml version="1.0" encoding="utf-8"?>
<svg width="565px" height="100px" viewbox="0 0 565 100" version="1.1" xmlns:xlink="http://www.w3.org/1999/xlink" xmlns="http://www.w3.org/2000/svg">
  <defs>
    <path d="M0 0L564.368 0L564.368 100L0 100L0 0Z" id="path_1" />
    <clipPath id="mask_1">
      <use xlink:href="#path_1" />
    </clipPath>
  </defs>
  <g id="kubernetes">
    <path d="M0 0L564.368 0L564.368 100L0 100L0 0Z" id="Background" fill="none" fill-rule="evenodd" stroke="none" />
    <g clip-path="url(#mask_1)">
      <path d="M89.0575 20.9816C88.4995 19.196 87.1603 17.7451 85.4862 16.8523L51.4468 0.558022C50.554 0.111604 49.5495 0 48.6567 0C47.7639 0 46.7594 0 45.8666 0.223209L11.8272 16.6291C10.1532 17.4103 8.92551 18.8612 8.47909 20.7584L0.108743 57.4763C-0.226071 59.3736 0.220347 61.2709 1.33639 62.8333L24.8849 91.9621C26.2242 93.3014 28.1215 94.1942 30.0187 94.3058L67.5179 94.3058C69.5267 94.529 71.424 93.6362 72.6517 91.9621L96.2002 62.8333C97.3163 61.2709 97.7627 59.3736 97.5395 57.4763L89.0575 20.9817L89.0575 20.9816Z" transform="translate(2.830185 2.830185)" id="path10349" fill="#326DE6" fill-rule="evenodd" stroke="none" />
      <path d="M72.1345 44.1052L72.1345 44.1052C72.0229 44.1052 71.9113 44.1052 71.9113 43.9935C71.9113 43.882 71.6881 43.882 71.4649 43.882C71.0185 43.7703 70.572 43.7703 70.1256 43.7703C69.9024 43.7703 69.6792 43.7703 69.456 43.6587L69.3444 43.6587C68.1168 43.5471 66.7775 43.3239 65.5498 42.9891C65.215 42.8775 64.8802 42.5427 64.7686 42.2079C64.8802 42.2079 64.7686 42.2079 64.7686 42.2079L64.7686 42.2079L63.8758 41.9847C64.3222 38.7481 64.099 35.4 63.4294 32.1635C62.6481 28.9269 61.3089 25.802 59.5232 23.0119L60.1928 22.3423L60.1928 22.3423L60.1928 22.2307C60.1928 21.8959 60.3044 21.4494 60.5276 21.2262C61.5321 20.3334 62.5365 19.6638 63.6526 18.9941L63.6526 18.9941C63.8758 18.8825 64.099 18.7709 64.3222 18.6593C64.7686 18.4361 65.1034 18.2129 65.5498 17.9897C65.6615 17.8781 65.773 17.8781 65.8847 17.7665C65.9963 17.6549 65.8847 17.6549 65.8847 17.5433L65.8847 17.5433C66.8891 16.7621 67.1123 15.4228 66.3311 14.4184C65.9963 13.9719 65.3266 13.6371 64.7686 13.6371C64.2106 13.6371 63.6526 13.8603 63.2062 14.1952L63.2062 14.1952L63.0945 14.3068C62.9829 14.4184 62.8713 14.53 62.7597 14.53C62.4249 14.8648 62.0901 15.1996 61.8669 15.5344C61.7553 15.7576 61.5321 15.8692 61.4205 15.9808L61.4205 15.9808C60.6392 16.8737 59.6348 17.7665 58.6304 18.4361C58.4072 18.5477 58.1839 18.6593 57.9607 18.6593C57.8491 18.6593 57.6259 18.6593 57.5143 18.5477L57.4027 18.5477L56.5099 19.1058C55.617 18.2129 54.6126 17.3201 53.7198 16.4272C49.5904 13.1907 44.4566 11.1818 39.2112 10.6238L39.0996 9.73097L39.0996 9.73097L39.0996 9.84258C38.7648 9.61937 38.6532 9.28456 38.5416 8.94974C38.5416 7.72209 38.5416 6.49444 38.7648 5.15519L38.7648 5.04359C38.7648 4.82038 38.8764 4.59717 38.8764 4.37396C38.988 3.92754 38.988 3.48112 39.0996 3.03471L39.0996 2.36508L39.0996 2.36508C39.2112 1.24903 38.3183 0.132988 37.2023 0.0213837C36.5327 -0.0902212 35.863 0.244593 35.305 0.802615C34.8586 1.24903 34.6354 1.80706 34.6354 2.36508L34.6354 2.36508L34.6354 2.9231C34.6354 3.36952 34.747 3.81594 34.8586 4.26235C34.9702 4.48556 34.9702 4.70877 34.9702 4.93198L34.9702 5.04359C35.1934 6.27124 35.1934 7.49889 35.1934 8.83814C35.0818 9.17295 34.9702 9.50777 34.6354 9.73097L34.6354 9.95418L34.6354 9.95418L34.5238 10.847C33.2961 10.9586 32.0685 11.1818 30.7292 11.405C25.4838 12.5211 20.6848 15.3112 17.0019 19.2174L16.3323 18.7709L16.2207 18.7709C16.1091 18.7709 15.9974 18.8825 15.7742 18.8825C15.551 18.8825 15.3278 18.7709 15.1046 18.6593C14.1002 17.8781 13.0957 16.9853 12.3145 16.0924L12.3145 16.0924C12.2029 15.8692 11.9797 15.7576 11.8681 15.646C11.5333 15.3112 11.3101 14.9764 10.9752 14.6416C10.8636 14.53 10.752 14.53 10.6404 14.4184C10.5288 14.3068 10.5288 14.3068 10.5288 14.3068L10.5288 14.3068C10.0824 13.9719 9.52439 13.7487 8.96636 13.7487C8.29674 13.7487 7.73872 13.9719 7.4039 14.53C6.73427 15.5344 6.95748 16.8737 7.85032 17.6549L7.85032 17.6549C7.96193 17.6549 7.96193 17.7665 7.96193 17.7665C7.96193 17.7665 8.18513 17.9897 8.29674 17.9897C8.63155 18.2129 9.07797 18.4361 9.52439 18.6593C9.7476 18.7709 9.97081 18.8825 10.194 18.9942L10.194 18.9942C11.3101 19.6638 12.4261 20.3334 13.3189 21.2262C13.5421 21.4494 13.7654 21.8959 13.6538 22.2307L13.6538 22.1191L13.6538 22.1191L14.3234 22.7887C14.2118 23.0119 14.1002 23.1235 13.9886 23.3467C10.5288 28.8153 9.07797 35.2884 10.0824 41.6499L9.18957 41.8731L9.18957 41.8731C9.18957 41.9847 9.07797 41.9847 9.07797 41.9847C8.96636 42.3195 8.63155 42.5427 8.29674 42.7659C7.06909 43.1007 5.84144 43.3239 4.50218 43.4355L4.50218 43.4355C4.27898 43.4355 4.05577 43.4355 3.83256 43.5471C3.38614 43.5471 2.93972 43.6587 2.4933 43.6587C2.3817 43.6587 2.27009 43.7703 2.04689 43.7703C1.93528 43.7703 1.93528 43.7703 1.82368 43.8819L1.82368 43.8819C0.596027 44.1052 -0.185204 45.2212 0.0380045 46.4488C0.0380045 46.4488 0.0380045 46.4488 0.0380045 46.4488C0.261213 47.4533 1.26565 48.1229 2.27009 48.0113C2.4933 48.0113 2.60491 48.0113 2.82812 47.8997L2.82812 47.8997C2.93972 47.8997 2.93972 47.8997 2.93972 47.7881C2.93972 47.6765 3.27454 47.7881 3.38614 47.7881C3.83256 47.6765 4.27898 47.4533 4.61379 47.3417C4.837 47.2301 5.06021 47.1185 5.28342 47.1185L5.39502 47.1185C6.62267 46.6721 7.73872 46.3372 9.07797 46.114L9.18957 46.114C9.52439 46.114 9.8592 46.2256 10.0824 46.4488C10.194 46.4488 10.194 46.5605 10.194 46.5605L10.194 46.5605L11.1985 46.4488C12.8725 51.5827 15.9974 56.1584 20.35 59.5066C21.3545 60.2878 22.2473 60.9574 23.3633 61.5155L22.8053 62.2967L22.8053 62.2967C22.8053 62.4083 22.9169 62.4083 22.9169 62.4083C23.1401 62.7431 23.1401 63.1895 23.0285 63.5243C22.5821 64.6404 21.9125 65.7564 21.2429 66.7609L21.2429 66.8725C21.1313 67.0957 21.0197 67.2073 20.7964 67.4305C20.5732 67.6537 20.35 68.1001 20.0152 68.5465C19.9036 68.6581 19.9036 68.7697 19.792 68.8814C19.792 68.8814 19.792 68.993 19.6804 68.993L19.6804 68.993C19.1224 70.109 19.5688 71.4483 20.5732 72.0063C20.7964 72.1179 21.1313 72.2295 21.3545 72.2295C22.2473 72.2295 23.0285 71.6715 23.4749 70.8902L23.4749 70.8902C23.4749 70.8902 23.4749 70.7786 23.5866 70.7786C23.5866 70.667 23.6982 70.5554 23.8098 70.4438C23.9214 69.9974 24.1446 69.6626 24.2562 69.2162L24.4794 68.5465L24.4794 68.5465C24.8142 67.3189 25.3722 66.2028 25.9302 65.0868C26.1535 64.752 26.4883 64.5288 26.8231 64.4172C26.9347 64.4172 26.9347 64.4172 26.9347 64.3056L26.9347 64.3056L27.3811 63.4127C30.506 64.6404 33.7426 65.1984 37.0907 65.1984C39.0996 65.1984 41.1085 64.9752 43.1173 64.4172C44.345 64.194 45.5726 63.7475 46.6887 63.4127L47.1351 64.194L47.1351 64.194C47.2467 64.194 47.2467 64.194 47.2467 64.3056C47.5815 64.4172 47.9163 64.6404 48.1395 64.9752C48.6976 66.0912 49.2556 67.2073 49.5904 68.4349L49.5904 68.5465L49.8136 69.2162C49.9252 69.6626 50.0368 70.109 50.26 70.4438C50.3716 70.5554 50.3716 70.667 50.4832 70.7786C50.4832 70.7786 50.4832 70.8902 50.5948 70.8902L50.5948 70.8902C51.0413 71.6715 51.8225 72.2295 52.7153 72.2295C53.0501 72.2295 53.2734 72.1179 53.6082 72.0063C54.0546 71.7831 54.501 71.3366 54.6126 70.7786C54.7242 70.2206 54.7242 69.6626 54.501 69.1046L54.501 69.1046C54.501 68.993 54.3894 68.993 54.3894 68.993C54.3894 68.8813 54.2778 68.7697 54.1662 68.6581C53.943 68.2117 53.7198 67.8769 53.385 67.5421C53.2734 67.3189 53.1618 67.2073 52.9385 66.9841L52.9385 66.7609C52.1573 65.7564 51.5993 64.6404 51.1529 63.5243C51.0413 63.1895 51.0413 62.7431 51.2645 62.4083C51.2645 62.2967 51.3761 62.2967 51.3761 62.2967L51.3761 62.2967L51.0413 61.4038C56.7331 57.9441 61.0857 52.5871 63.0945 46.2256L63.9874 46.3372L63.9874 46.3372C64.099 46.3372 64.099 46.2256 64.099 46.2256C64.3222 46.0024 64.657 45.8908 64.9918 45.8908L65.1034 45.8908C66.3311 46.114 67.5587 46.4488 68.6748 46.8953L68.7864 46.8953C69.0096 47.0069 69.2328 47.1185 69.456 47.1185C69.9024 47.3417 70.2372 47.5649 70.6837 47.6765C70.7953 47.6765 70.9069 47.7881 71.1301 47.7881C71.2417 47.7881 71.2417 47.7881 71.3533 47.8997L71.3533 47.8997C71.5765 48.0113 71.6881 48.0113 71.9113 48.0113C72.9157 48.0113 73.8086 47.3417 74.1434 46.4488C74.0318 45.2212 73.139 44.3283 72.1345 44.1051L72.1345 44.1052ZM39.8808 40.6454L36.8675 42.0963L33.8542 40.6454L33.0729 37.4089L35.1934 34.7304L38.5415 34.7304L40.662 37.4089L39.8808 40.6454L39.8808 40.6454ZM58.0723 33.3911C58.6304 35.7348 58.742 38.0785 58.5188 40.4222L47.9163 37.4089L47.9163 37.4089C46.9119 37.1857 46.3539 36.1812 46.5771 35.1768C46.6887 34.842 46.8003 34.6188 47.0235 34.3956L55.3938 26.8065C56.6215 28.8153 57.5143 31.0474 58.0723 33.3911L58.0723 33.3911ZM52.0457 22.6771L42.8941 29.1502C42.1129 29.5966 40.9968 29.485 40.4388 28.7037C40.2156 28.4805 40.104 28.2573 40.104 27.9225L39.4344 16.6504C44.345 17.2085 48.6976 19.3289 52.0457 22.6771L52.0457 22.6771L52.0457 22.6771ZM31.8453 16.9853L34.0774 16.5388L33.5193 27.6993L33.5193 27.6993C33.5193 28.7037 32.6265 29.485 31.6221 29.485C31.2872 29.485 31.064 29.3734 30.7292 29.2617L21.4661 22.6771C24.3678 19.887 27.9391 17.8781 31.8453 16.9853L31.8453 16.9853ZM18.2295 26.8064L26.4883 34.1723L26.4883 34.1723C27.2695 34.842 27.3811 35.958 26.7115 36.7392C26.4883 37.0741 26.265 37.1857 25.8186 37.2973L14.993 40.4222C14.6582 35.7348 15.7742 30.9358 18.2295 26.8064L18.2295 26.8064ZM16.3322 45.6676L27.3811 43.7703C28.2739 43.7703 29.1668 44.3284 29.2784 45.2212C29.39 45.556 29.39 46.0024 29.1668 46.3372L29.1668 46.3372L24.9258 56.6048C21.0196 54.0379 17.8947 50.1318 16.3322 45.6676L16.3322 45.6676ZM41.6665 59.5066C40.104 59.8414 38.5415 60.0646 36.8675 60.0646C34.5238 60.0646 32.0685 59.6182 29.8364 58.9485L35.305 49.0157C35.863 48.3461 36.7559 48.1229 37.5371 48.5693C37.8719 48.7925 38.0951 49.0157 38.4299 49.3506L38.4299 49.3506L43.787 59.0602C43.1173 59.1718 42.4477 59.2834 41.6665 59.5066L41.6665 59.5066ZM55.2822 49.797C53.6082 52.4755 51.2645 54.8192 48.5859 56.4932L44.2334 46.0024C44.0102 45.1096 44.4566 44.2168 45.2378 43.8819C45.5726 43.7703 45.9074 43.6587 46.2423 43.6587L57.4027 45.556C56.8447 47.1185 56.1751 48.5693 55.2822 49.797L55.2822 49.797Z" transform="translate(14.507797 14.750498)" id="path10351" fill="#FFFFFF" fill-rule="evenodd" stroke="none" />
      <g id="Group" transform="translate(130.94917 18.454819)">
        <path d="M412.602 54.1282C414.164 54.2398 415.839 54.0166 417.289 53.4586C418.182 53.0121 418.74 52.0077 418.629 51.0033C418.517 49.8872 417.847 48.8828 416.843 48.548C415.169 47.5435 413.272 46.6507 411.374 46.0927C409.477 45.423 407.803 44.6418 406.241 43.8606C404.79 43.191 403.562 42.2981 402.334 41.1821C401.218 40.066 400.437 38.8384 399.879 37.3875C399.21 35.7134 398.986 33.9278 398.986 32.1421C398.875 28.4591 400.549 24.8878 403.451 22.6557C406.464 20.312 410.482 19.196 415.615 19.196C418.071 19.196 420.638 19.4192 423.093 19.9772C424.99 20.312 426.887 20.7584 428.785 21.4281L426.664 30.9144C425.102 30.3564 423.651 30.0216 422.088 29.5752C420.303 29.1288 418.406 29.0172 416.62 29.0172C412.825 29.0172 410.928 30.0216 410.928 32.1421C410.928 32.5885 411.04 33.0349 411.151 33.4814C411.374 33.9278 411.709 34.2626 412.156 34.5974C412.602 34.9322 413.272 35.267 414.053 35.7134C414.834 36.1599 415.95 36.6063 417.289 37.0527C419.522 37.8339 421.754 38.8384 423.763 39.9544C425.325 40.7356 426.664 41.7401 427.78 43.0793C428.785 44.0838 429.454 45.3114 429.901 46.7623C430.347 48.3248 430.57 49.8872 430.57 51.4497C430.794 55.2442 429.008 58.9272 425.771 61.0477C422.647 63.1682 418.182 64.2842 412.379 64.2842C409.142 64.3958 406.017 64.061 402.893 63.2798C401.107 62.8333 399.433 62.2753 397.759 61.7173L399.768 51.8961C401.776 52.6773 403.897 53.347 406.017 53.7934C408.25 53.905 410.37 54.1282 412.602 54.1282M351.108 41.8517C350.996 38.5036 351.666 35.1554 352.782 32.0305C353.786 29.352 355.349 27.0083 357.358 24.8878C359.255 22.9905 361.376 21.5397 363.831 20.6468C366.286 19.6424 368.853 19.196 371.42 19.196C377.447 19.196 382.246 21.0933 385.705 24.7762C389.165 28.4591 390.951 33.9278 390.951 41.0705C390.951 41.7401 390.951 42.5213 390.839 43.4142C390.839 44.307 390.728 44.9766 390.728 45.6462L363.496 45.6462C363.719 47.9899 364.947 50.222 366.956 51.5613C369.411 53.1237 372.313 53.905 375.215 53.7934C377.335 53.7934 379.567 53.5702 381.688 53.2354C383.473 52.9005 385.259 52.3425 386.933 51.5613L388.607 61.3825C387.826 61.8289 386.933 62.0521 386.04 62.3869C384.813 62.7217 383.585 63.0565 382.357 63.1682C381.018 63.3913 379.679 63.6146 378.116 63.8378C376.665 63.9494 375.103 64.061 373.541 64.061C370.081 64.1726 366.733 63.6146 363.496 62.3869C360.818 61.3825 358.474 59.82 356.465 57.8111C354.568 55.8022 353.228 53.3469 352.336 50.78C351.554 47.7667 351.108 44.7534 351.108 41.8517M379.344 37.2759C379.344 36.2715 379.121 35.267 378.786 34.2626C378.563 33.2581 378.005 32.4769 377.447 31.6957C376.777 30.9144 375.996 30.2448 375.103 29.7984C373.987 29.2404 372.871 29.0172 371.643 29.0172C370.416 29.0172 369.299 29.2404 368.183 29.7984C367.291 30.2448 366.398 30.8028 365.728 31.5841C365.059 32.3653 364.5 33.2581 364.166 34.2626C363.831 35.267 363.608 36.2715 363.496 37.2759L379.344 37.2759M318.408 9.59798L330.461 7.7007L330.461 20.2004L344.97 20.2004L344.97 30.2448L330.461 30.2448L330.461 45.1998C330.349 47.3203 330.796 49.4408 331.8 51.2265C332.693 52.6773 334.479 53.4586 337.269 53.4586C338.608 53.4586 339.947 53.347 341.175 53.1237C342.514 52.9005 343.742 52.5657 344.97 52.1193L346.644 61.4941C345.081 62.1637 343.407 62.6101 341.733 63.0565C339.613 63.503 337.381 63.7262 335.148 63.7262C332.358 63.8378 329.568 63.3914 327.001 62.3869C324.992 61.6057 323.207 60.2664 321.868 58.704C320.528 57.0299 319.635 55.021 319.077 52.9005C318.519 50.4452 318.296 47.8783 318.408 45.423L318.408 9.59799M269.637 41.8517C269.525 38.5036 270.195 35.1554 271.311 32.0305C272.315 29.352 273.878 27.0083 275.886 24.8878C277.784 22.9905 279.904 21.5397 282.36 20.6468C284.815 19.6424 287.382 19.196 289.949 19.196C295.975 19.196 300.774 21.0933 304.234 24.7762C307.694 28.4592 309.479 33.9278 309.479 41.0705C309.479 41.7401 309.479 42.5213 309.368 43.4142C309.256 44.307 309.256 44.9766 309.256 45.6463L281.913 45.6463C282.136 47.9899 283.364 50.222 285.373 51.5613C287.828 53.1238 290.73 53.905 293.632 53.7934C295.752 53.7934 297.984 53.5702 300.105 53.2354C301.89 52.9006 303.676 52.3425 305.462 51.5613L307.136 61.3825C306.354 61.8289 305.462 62.0521 304.569 62.3869C303.341 62.7217 302.113 63.0566 300.886 63.1682C299.547 63.3914 298.207 63.6146 296.645 63.8378C295.194 63.9494 293.632 64.061 292.069 64.061C288.609 64.1726 285.261 63.6146 282.025 62.3869C279.346 61.3825 277.002 59.82 274.994 57.8111C273.096 55.8023 271.757 53.347 270.864 50.7801C269.971 47.7667 269.525 44.7534 269.637 41.8517M297.872 37.2759C297.872 36.2715 297.649 35.267 297.314 34.2626C297.091 33.2581 296.533 32.4769 295.975 31.6957C295.306 30.9144 294.524 30.2448 293.632 29.7984C292.515 29.2404 291.399 29.0172 290.172 29.0172C288.944 29.0172 287.828 29.2404 286.712 29.7984C285.819 30.2448 285.038 30.8028 284.368 31.5841C283.699 32.3653 283.141 33.2581 282.806 34.2626C282.471 35.267 282.248 36.2715 282.136 37.2759L297.872 37.2759M223.879 21.6513C226.446 20.9816 229.124 20.4236 231.803 19.9772C235.151 19.4192 238.611 19.196 241.959 19.196C244.972 19.0844 247.985 19.6424 250.887 20.6468C253.119 21.4281 255.128 22.7673 256.579 24.553C258.03 26.3387 259.034 28.4591 259.592 30.6912C260.262 33.2581 260.485 35.9366 260.485 38.6152L260.485 62.6101L248.543 62.6101L248.543 40.1776C248.543 36.2715 247.985 33.593 246.981 31.9189C245.976 30.3564 244.079 29.4636 241.289 29.4636C240.396 29.4636 239.503 29.4636 238.499 29.5752C237.494 29.5752 236.713 29.6868 235.932 29.7984L235.932 62.6101L223.879 62.6101L223.879 21.6513M215.397 30.9144C214.281 30.6912 213.053 30.3564 211.602 30.1332C210.04 29.7984 208.477 29.6868 206.915 29.6868C206.022 29.6868 205.129 29.7984 204.125 29.91C203.343 30.0216 202.562 30.1332 201.781 30.3564L201.781 62.8333L189.728 62.8333L189.728 22.4325C192.183 21.5397 194.75 20.87 197.317 20.312C200.553 19.5308 203.901 19.196 207.138 19.3076C207.919 19.3076 208.7 19.4192 209.482 19.4192C210.375 19.4192 211.267 19.5308 212.272 19.754C213.165 19.8656 214.058 19.9772 215.062 20.2004C215.843 20.312 216.624 20.5352 217.406 20.87L215.397 30.9144M140.51 41.8517C140.399 38.5036 141.068 35.1554 142.184 32.0305C143.189 29.352 144.751 27.0083 146.76 24.8878C148.657 22.9905 150.778 21.5397 153.233 20.6468C155.688 19.6424 158.255 19.196 160.822 19.196C166.849 19.196 171.648 21.0933 175.108 24.7762C178.567 28.4591 180.353 33.9278 180.353 40.9589C180.353 41.6285 180.353 42.4097 180.241 43.3026C180.13 44.1954 180.13 44.865 180.13 45.5346L152.787 45.5346C153.01 47.8783 154.237 50.1104 156.246 51.4497C158.702 53.0121 161.603 53.7934 164.505 53.6818C166.626 53.6818 168.858 53.4586 170.978 53.1237C172.764 52.7889 174.549 52.2309 176.224 51.5613L177.898 61.3825C177.116 61.8289 176.224 62.0521 175.331 62.3869C174.103 62.7217 172.875 63.0565 171.648 63.1682C170.309 63.3913 168.969 63.6146 167.407 63.8378C165.956 63.9494 164.394 64.061 162.831 64.061C159.371 64.1726 156.023 63.6146 152.787 62.3869C150.108 61.3825 147.764 59.82 145.756 57.8111C143.858 55.8022 142.519 53.3469 141.626 50.78C140.957 47.7667 140.51 44.865 140.51 41.8517M168.858 37.2759C168.858 36.2715 168.634 35.267 168.3 34.2626C168.076 33.2581 167.518 32.4769 166.96 31.6957C166.291 30.9144 165.51 30.2448 164.617 29.7984C163.501 29.2404 162.385 29.0172 161.157 29.0172C159.929 29.0172 158.813 29.2404 157.697 29.7984C156.804 30.2448 155.912 30.8028 155.242 31.5841C154.572 32.3653 154.014 33.2581 153.679 34.2626C153.345 35.267 153.121 36.2715 153.01 37.2759L168.858 37.2759M120.979 41.1821C120.979 33.3697 118.078 29.5752 112.386 29.5752C111.158 29.5752 109.93 29.6868 108.703 30.0216C107.698 30.2448 106.694 30.6912 105.801 31.2493L105.801 53.1237C106.359 53.2353 107.14 53.3469 108.033 53.4585C108.926 53.5702 109.93 53.5702 111.047 53.5702C113.948 53.7934 116.738 52.5657 118.524 50.222C120.198 47.5435 121.091 44.4186 120.979 41.1821M133.256 41.6285C133.256 44.7534 132.809 47.8783 131.693 50.8917C130.801 53.5702 129.35 55.9139 127.452 57.9227C125.443 59.9316 123.1 61.4941 120.533 62.4985C117.52 63.6146 114.395 64.061 111.158 64.061C109.707 64.061 108.145 63.9494 106.582 63.8378C105.02 63.7262 103.457 63.503 101.895 63.3914C100.444 63.1681 98.9932 62.9449 97.5424 62.6101C96.0915 62.3869 94.8639 62.0521 93.8594 61.6057L93.8594 1.89728L105.913 0L105.913 21.2049C107.252 20.6468 108.703 20.2004 110.154 19.8656C111.716 19.5308 113.279 19.4192 114.841 19.4192C117.631 19.4192 120.31 19.8656 122.877 21.0933C125.109 22.0977 127.118 23.6602 128.68 25.5574C130.354 27.6779 131.582 30.0216 132.251 32.5885C132.921 35.3786 133.256 38.5036 133.256 41.6285M82.3642 61.2709C79.7973 61.9405 77.1188 62.4985 74.4402 62.8333C71.0921 63.3914 67.6324 63.6146 64.2842 63.6146C61.1593 63.7262 58.146 63.1682 55.2442 62.1637C53.0121 61.2709 51.1149 59.9316 49.5524 58.146C48.1015 56.2487 47.0971 54.1282 46.5391 51.7845C45.8694 49.2176 45.6462 46.4275 45.6462 43.749L45.6462 20.2004L57.6995 20.2004L57.6995 42.4097C57.6995 46.3159 58.2576 49.106 59.262 50.7801C60.2664 52.4541 62.1637 53.347 64.9538 53.347C65.8467 53.347 66.7395 53.347 67.7439 53.2354C68.7484 53.1238 69.5296 53.1238 70.3109 52.9005L70.3109 20.2004L82.3642 20.2004L82.3642 61.2709M12.0533 35.6018C13.2809 34.2626 14.397 32.9233 15.7362 31.5841C16.9639 30.1332 18.1915 28.794 19.4192 27.4547C20.6468 26.0038 21.7629 24.7762 22.7673 23.5485C23.7718 22.3209 24.7762 21.2049 25.5574 20.312L39.8428 20.312C36.9411 23.5485 34.151 26.7851 31.4725 29.7984C28.6824 32.8117 25.7806 35.9366 22.5441 39.0616C24.3298 40.7356 26.0039 42.4097 27.5663 44.307C29.2404 46.3159 30.9145 48.3247 32.5885 50.5568C34.151 52.6773 35.7135 54.9094 37.0527 57.0299C38.392 59.1504 39.508 61.1593 40.4008 62.9449L26.5619 62.9449C25.6691 61.4941 24.6646 60.0432 23.5486 58.3692C22.4325 56.6951 21.2049 55.021 20.0888 53.2354C18.8612 51.5613 17.5219 49.8872 16.0711 48.3248C14.8434 46.8739 13.5041 45.5346 12.0533 44.4186L12.0533 63.0566L0 63.0566L0 1.89728L12.0533 0L12.0533 35.6018" id="path3003" fill="#042B35" fill-rule="evenodd" stroke="none" />
      </g>
      <g id="Type-something" transform="translate(212.843 167.80106)">
        <path d="M101.197 18.3018L99.7559 18.3018L99.7559 13.1162Q99.7559 10.3037 97.6641 10.3037Q96.6094 10.3037 95.8887 11.1167Q95.168 11.9297 95.168 13.2041L95.168 18.3018L93.7266 18.3018L93.7266 4.97754L95.168 4.97754L95.168 10.7959L95.2031 10.7959Q96.2402 9.09082 98.1563 9.09082Q101.197 9.09082 101.197 12.7559L101.197 18.3018ZM103.992 6.75293Q104.265 7.0166 104.651 7.0166Q105.047 7.0166 105.324 6.74414Q105.601 6.47168 105.601 6.08496Q105.601 5.68066 105.324 5.4126Q105.047 5.14453 104.651 5.14453Q104.265 5.14453 103.992 5.4126Q103.72 5.68066 103.72 6.08496Q103.72 6.48926 103.992 6.75293ZM9.10547 7.03418L5.4668 7.03418L5.4668 18.3018L3.99023 18.3018L3.99023 7.03418L0.360352 7.03418L0.360352 5.69824L9.10547 5.69824L9.10547 7.03418ZM90.457 18.4951Q91.292 18.4951 91.8018 18.2139L91.8018 16.9834Q91.4063 17.2822 90.8613 17.2822Q90.1494 17.2822 89.8418 16.8955Q89.5342 16.5088 89.5342 15.6035L89.5342 10.5322L91.8018 10.5322L91.8018 9.30176L89.5342 9.30176L89.5342 6.63867L88.0928 7.10449L88.0928 9.30176L86.5459 9.30176L86.5459 10.5322L88.0928 10.5322L88.0928 15.8584Q88.0928 18.4951 90.457 18.4951ZM21.041 17.001L21.0762 17.001Q22.0254 18.5127 23.7744 18.5127Q25.6816 18.5127 26.7803 17.1548Q27.8789 15.7969 27.8789 13.5381Q27.8789 11.5078 26.9033 10.2993Q25.9277 9.09082 24.1875 9.09082Q22.1396 9.09082 21.0762 10.8838L21.041 10.8838L21.041 9.30176L19.5996 9.30176L19.5996 22.4414L21.041 22.4414L21.041 17.001ZM37.415 14.1621L31.0605 14.1621Q31.0957 15.665 31.8691 16.4824Q32.6426 17.2998 33.9961 17.2998Q35.5166 17.2998 36.791 16.2979L36.791 17.6514Q35.6045 18.5127 33.6533 18.5127Q31.7461 18.5127 30.6563 17.2866Q29.5664 16.0605 29.5664 13.8369Q29.5664 11.7363 30.7573 10.4136Q31.9482 9.09082 33.7148 9.09082Q35.4814 9.09082 36.4482 10.2334Q37.415 11.376 37.415 13.4063L37.415 14.1621ZM43.9805 16.4297L43.9805 17.9766Q45 18.5127 46.3887 18.5127Q47.0918 18.5127 47.7334 18.3545Q48.375 18.1963 48.8672 17.8711Q49.3594 17.5459 49.6538 17.0537Q49.9482 16.5615 49.9482 15.8936Q49.9482 15.3486 49.7681 14.9531Q49.5879 14.5576 49.2539 14.2544Q48.9199 13.9512 48.4453 13.7095Q47.9707 13.4678 47.373 13.2393Q46.9248 13.0635 46.5732 12.9141Q46.2217 12.7646 45.9756 12.5801Q45.7295 12.3955 45.6021 12.1582Q45.4746 11.9209 45.4746 11.5693Q45.4746 11.2881 45.6021 11.0552Q45.7295 10.8223 45.9624 10.6553Q46.1953 10.4883 46.5205 10.396Q46.8457 10.3037 47.25 10.3037Q48.542 10.3037 49.5352 10.9541L49.5352 9.49512Q48.6123 9.09082 47.4434 9.09082Q46.7842 9.09082 46.1646 9.25781Q45.5449 9.4248 45.0615 9.75439Q44.5781 10.084 44.2881 10.5718Q43.998 11.0596 43.998 11.6924Q43.998 12.2109 44.1519 12.5977Q44.3057 12.9844 44.6089 13.2876Q44.9121 13.5908 45.3647 13.8325Q45.8174 14.0742 46.415 14.3115Q46.8457 14.4785 47.2192 14.6323Q47.5928 14.7861 47.8696 14.9795Q48.1465 15.1729 48.3091 15.4233Q48.4717 15.6738 48.4717 16.0342Q48.4717 17.2998 46.5732 17.2998Q45.1582 17.2998 43.9805 16.4297ZM55.9248 18.5127Q53.9297 18.5127 52.7388 17.2515Q51.5479 15.9902 51.5479 13.9072Q51.5479 11.6396 52.7871 10.3652Q54.0264 9.09082 56.1357 9.09082Q58.1484 9.09082 59.2778 10.3301Q60.4072 11.5693 60.4072 13.7666Q60.4072 15.9199 59.1899 17.2163Q57.9727 18.5127 55.9248 18.5127ZM74.0479 18.3018L75.4893 18.3018L75.4893 12.7559Q75.4893 9.09082 72.5186 9.09082Q70.5322 9.09082 69.5303 10.9541Q69.2754 10.1191 68.5898 9.60498Q67.9043 9.09082 66.9814 9.09082Q65.1445 9.09082 64.1865 10.7256L64.1514 10.7256L64.1514 9.30176L62.71 9.30176L62.71 18.3018L64.1514 18.3018L64.1514 13.1689Q64.1514 11.8945 64.7666 11.0991Q65.3818 10.3037 66.3311 10.3037Q68.3789 10.3037 68.3789 12.958L68.3789 18.3018L69.8203 18.3018L69.8203 13.1689Q69.8203 11.9912 70.4663 11.1475Q71.1123 10.3037 72.0352 10.3037Q73.125 10.3037 73.5864 10.9717Q74.0479 11.6396 74.0479 13.1338L74.0479 18.3018ZM85.4473 14.1621L79.0928 14.1621Q79.1279 15.665 79.9014 16.4824Q80.6748 17.2998 82.0283 17.2998Q83.5488 17.2998 84.8232 16.2979L84.8232 17.6514Q83.6367 18.5127 81.6855 18.5127Q79.7783 18.5127 78.6885 17.2866Q77.5986 16.0605 77.5986 13.8369Q77.5986 11.7363 78.7896 10.4136Q79.9805 9.09082 81.7471 9.09082Q83.5137 9.09082 84.4805 10.2334Q85.4473 11.376 85.4473 13.4063L85.4473 14.1621ZM115.743 18.3018L114.302 18.3018L114.302 13.1689Q114.302 10.3037 112.21 10.3037Q111.129 10.3037 110.421 11.1167Q109.714 11.9297 109.714 13.1689L109.714 18.3018L108.272 18.3018L108.272 9.30176L109.714 9.30176L109.714 10.7959L109.749 10.7959Q110.769 9.09082 112.702 9.09082Q114.179 9.09082 114.961 10.0444Q115.743 10.998 115.743 12.7998L115.743 18.3018ZM121.395 22.5381Q126.141 22.5381 126.141 17.5811L126.141 9.30176L124.699 9.30176L124.699 10.5498L124.664 10.5498Q123.785 9.09082 121.966 9.09082Q120.05 9.09082 118.947 10.4443Q117.844 11.7979 117.844 14.0918Q117.844 16.1133 118.868 17.313Q119.892 18.5127 121.57 18.5127Q123.636 18.5127 124.664 16.79L124.699 16.79L124.699 17.7744Q124.699 21.3076 121.377 21.3076Q119.997 21.3076 118.477 20.4639L118.477 21.9053Q119.725 22.5381 121.395 22.5381ZM18.0527 9.30176L13.9131 19.7432Q12.8057 22.5381 10.8018 22.5381Q10.2393 22.5381 9.86133 22.4238L9.86133 21.1318Q10.3271 21.29 10.7139 21.29Q11.8037 21.29 12.3486 19.9893L13.0693 18.2842L9.55371 9.30176L11.1533 9.30176L13.5879 16.2275Q13.6318 16.3594 13.7725 16.9131L13.8252 16.9131Q13.8691 16.7021 14.001 16.2451L16.5586 9.30176L18.0527 9.30176ZM103.913 18.3018L105.354 18.3018L105.354 9.30176L103.913 9.30176L103.913 18.3018ZM21.041 14.6279L21.041 13.3711Q21.041 12.0527 21.8057 11.1782Q22.5703 10.3037 23.8271 10.3037Q25.0137 10.3037 25.708 11.1563Q26.4023 12.0088 26.4023 13.5117Q26.4023 15.2959 25.6597 16.2979Q24.917 17.2998 23.6074 17.2998Q22.4912 17.2998 21.7661 16.522Q21.041 15.7441 21.041 14.6279ZM35.9385 12.9404Q35.9297 11.6924 35.3364 10.998Q34.7432 10.3037 33.6885 10.3037Q32.6689 10.3037 31.957 11.0332Q31.2451 11.7627 31.0781 12.9404L35.9385 12.9404ZM56.0303 10.3037Q54.6416 10.3037 53.833 11.2485Q53.0244 12.1934 53.0244 13.8545Q53.0244 15.4541 53.8418 16.377Q54.6592 17.2998 56.0303 17.2998Q57.4277 17.2998 58.1792 16.3945Q58.9307 15.4893 58.9307 13.8193Q58.9307 12.1318 58.1792 11.2178Q57.4277 10.3037 56.0303 10.3037ZM83.9707 12.9404Q83.9619 11.6924 83.3687 10.998Q82.7754 10.3037 81.7207 10.3037Q80.7012 10.3037 79.9893 11.0332Q79.2773 11.7627 79.1104 12.9404L83.9707 12.9404ZM124.699 12.9053L124.699 14.2324Q124.699 15.5771 123.939 16.4385Q123.179 17.2998 121.966 17.2998Q120.771 17.2998 120.045 16.3989Q119.32 15.498 119.32 13.9951Q119.32 12.2461 120.076 11.2749Q120.832 10.3037 122.168 10.3037Q123.249 10.3037 123.974 11.0684Q124.699 11.833 124.699 12.9053Z" />
      </g>
    </g>
  </g>
</svg>