<?xml version="1.0" encoding="utf-8"?>
<svg width="307px" height="106px" viewbox="0 0 307 106" version="1.1" xmlns:xlink="http://www.w3.org/1999/xlink" xmlns="http://www.w3.org/2000/svg">
  <defs>
    <path d="M0 0L268 0L268 103.876L0 103.876L0 0Z" transform="translate(0 1.6018181)" id="path_1" />
    <path d="M0 0L307 0L307 103.204L0 103.204L0 0Z" id="path_2" />
    <path d="M0 0L103.876 0L103.876 103.876L0 103.876L0 0L0 0Z" id="path_3" />
    <clipPath id="mask_1">
      <use xlink:href="#path_1" />
    </clipPath>
    <clipPath id="mask_2">
      <use xlink:href="#path_2" />
    </clipPath>
    <clipPath id="mask_3">
      <use xlink:href="#path_3" />
    </clipPath>
  </defs>
  <path d="M0 0L268 0L268 103.876L0 103.876L0 0Z" transform="translate(0 1.6018181)" id="Background" fill="none" fill-rule="evenodd" stroke="none" />
  <path d="M0 0L307 0L307 103.204L0 103.204L0 0Z" id="artboard_1" fill="none" fill-rule="evenodd" stroke="none" />
  <g clip-path="url(#mask_2)">
    <g id="Artboard" transform="translate(0 1.6018181)">
      <g id="logstash">
        <path d="M0 0L103.876 0L103.876 103.876L0 103.876L0 0L0 0Z" id="Background" fill="none" fill-rule="evenodd" stroke="none" />
        <path d="M0 0L103.876 0L103.876 103.876L0 103.876L0 0L0 0Z" id="path_1" fill="none" fill-rule="evenodd" stroke="none" />
        <g clip-path="url(#mask_3)">
          <g id="Group" transform="translate(8.115311 0)">
            <g id="Group">
              <path d="M0 0L35.7074 0L35.7074 38.9535L0 38.9535L0 0L0 0Z" transform="translate(51.937973 64.92247)" id="Shape" fill="#00BFB3" fill-rule="evenodd" stroke="none" />
              <path d="M3.24612 0L0 0L0 64.9225L42.1996 64.9225L42.1996 38.9535C42.1996 17.4401 24.7596 0 3.24612 0L3.24612 0L3.24612 0Z" id="Shape#1" fill="#FEC514" fill-rule="evenodd" stroke="none" />
              <path d="M0 0C0 21.5134 17.44 38.9535 38.9535 38.9535L42.1996 38.9535L42.1996 0L0 0L0 0Z" transform="translate(0 64.92247)" id="Shape#2" fill="#343741" fill-rule="evenodd" stroke="none" />
            </g>
          </g>
        </g>
      </g>
    </g>
    <g id="Group" transform="translate(111 24.539803)">
      <g id="Logstash">
        <path d="M165.768 10.688L165.768 46.352L171.696 46.352L171.696 28.544Q172.896 27.344 174.24 26.648Q175.584 25.952 177.12 25.952Q179.208 25.952 180.252 27.188Q181.296 28.424 181.296 30.68L181.296 46.352L187.224 46.352L187.224 30.68Q187.224 28.616 186.684 26.9Q186.144 25.184 185.1 23.948Q184.056 22.712 182.496 22.028Q180.936 21.344 178.92 21.344Q176.592 21.344 174.864 22.184Q173.136 23.024 171.696 24.392L171.696 10.688L165.768 10.688ZM23.856 41.024L9.96 41.024L9.96 11.648L3.504 11.648L3.504 46.352L23.856 46.352L23.856 41.024ZM109.176 46.736Q105.984 46.736 104.256 44.924Q102.528 43.112 102.528 39.92L102.528 26.168L100.032 26.168Q99.552 26.168 99.204 25.856Q98.856 25.544 98.856 24.92L98.856 22.568L102.816 21.92L104.064 15.2Q104.16 14.72 104.508 14.456Q104.856 14.192 105.384 14.192L108.456 14.192L108.456 21.944L114.936 21.944L114.936 26.168L108.456 26.168L108.456 39.512Q108.456 40.664 109.032 41.312Q109.608 41.96 110.568 41.96Q111.12 41.96 111.492 41.828Q111.864 41.696 112.14 41.552Q112.416 41.408 112.632 41.276Q112.848 41.144 113.064 41.144Q113.328 41.144 113.496 41.276Q113.664 41.408 113.856 41.672L115.632 44.552Q114.336 45.632 112.656 46.184Q110.976 46.736 109.176 46.736ZM136.296 46.352L138.96 46.352L138.96 30.8Q138.96 28.712 138.348 26.96Q137.736 25.208 136.56 23.948Q135.384 22.688 133.692 21.98Q132 21.272 129.84 21.272Q123.84 21.272 119.592 25.16L120.672 27.056Q120.936 27.512 121.368 27.824Q121.8 28.136 122.4 28.136Q123.12 28.136 123.72 27.8Q124.32 27.464 125.028 27.044Q125.736 26.624 126.696 26.288Q127.656 25.952 129.096 25.952Q131.088 25.952 132.132 27.149Q133.176 28.346 133.176 30.8371L133.176 32.288Q128.976 32.288 126.144 33.0104Q123.312 33.7329 121.608 34.8284Q119.904 35.924 119.172 37.2845Q118.44 38.645 118.44 40.0419Q118.44 41.7031 118.968 42.9554Q119.496 44.2077 120.444 45.0506Q121.392 45.8934 122.712 46.3147Q124.032 46.736 125.592 46.736Q126.912 46.736 127.992 46.52Q129.072 46.304 130.032 45.872Q130.992 45.44 131.892 44.804Q132.792 44.168 133.728 43.328L134.256 45.08Q134.496 45.848 134.976 46.1Q135.456 46.352 136.296 46.352ZM63.792 21.296Q65.376 21.296 66.768 21.62Q68.16 21.944 69.312 22.568L76.392 22.568L76.392 24.776Q76.392 25.328 76.104 25.64Q75.816 25.952 75.12 26.072L72.912 26.48Q73.152 27.104 73.284 27.8Q73.416 28.496 73.416 29.264Q73.416 31.088 72.684 32.564Q71.952 34.04 70.668 35.072Q69.384 36.104 67.62 36.668Q65.856 37.232 63.792 37.232Q62.4 37.232 61.08 36.968Q59.928 37.6692 59.928 38.5392Q59.928 39.2889 60.612 39.6393Q61.296 39.9897 62.412 40.1349Q63.528 40.28 64.944 40.28Q66.36 40.28 67.848 40.4004Q69.336 40.5207 70.752 40.8217Q72.168 41.1226 73.284 41.7729Q74.4 42.4231 75.084 43.5427Q75.768 44.6622 75.768 46.4199Q75.768 48.0575 74.964 49.5984Q74.16 51.1392 72.636 52.3432Q71.112 53.5471 68.904 54.2816Q66.696 55.016 63.864 55.016Q61.056 55.016 58.992 54.476Q56.928 53.936 55.572 53.036Q54.216 52.136 53.544 50.96Q52.872 49.784 52.872 48.512Q52.872 46.784 53.928 45.608Q54.984 44.432 56.856 43.736Q55.944 43.232 55.392 42.392Q54.84 41.552 54.84 40.208Q54.84 39.656 55.032 39.068Q55.224 38.48 55.62 37.904Q56.016 37.328 56.616 36.812Q57.216 36.296 58.032 35.888Q56.16 34.88 55.092 33.2Q54.024 31.52 54.024 29.264Q54.024 27.44 54.756 25.964Q55.488 24.488 56.796 23.444Q58.104 22.4 59.892 21.848Q61.68 21.296 63.792 21.296ZM43.5 22.232Q41.256 21.344 38.496 21.344Q35.736 21.344 33.48 22.232Q31.224 23.12 29.628 24.752Q28.032 26.384 27.156 28.736Q26.28 31.088 26.28 33.992Q26.28 36.92 27.156 39.272Q28.032 41.624 29.628 43.28Q31.224 44.936 33.48 45.824Q35.736 46.712 38.496 46.712Q41.256 46.712 43.5 45.824Q45.744 44.936 47.328 43.28Q48.912 41.624 49.776 39.272Q50.64 36.92 50.64 33.992Q50.64 31.088 49.776 28.736Q48.912 26.384 47.328 24.752Q45.744 23.12 43.5 22.232ZM94.224 27.068Q94.488 26.912 94.728 26.528L96.072 24.392Q94.68 23.024 92.592 22.184Q90.504 21.344 87.96 21.344Q85.68 21.344 83.94 21.956Q82.2 22.568 81.036 23.588Q79.872 24.608 79.272 25.976Q78.672 27.344 78.672 28.856Q78.672 30.488 79.188 31.64Q79.704 32.792 80.556 33.584Q81.408 34.376 82.5 34.892Q83.592 35.408 84.732 35.792Q85.872 36.176 86.964 36.5Q88.056 36.824 88.908 37.232Q89.76 37.64 90.276 38.192Q90.792 38.744 90.792 39.608Q90.792 40.184 90.564 40.724Q90.336 41.264 89.844 41.672Q89.352 42.08 88.596 42.332Q87.84 42.584 86.784 42.584Q85.44 42.584 84.564 42.272Q83.688 41.96 83.04 41.6Q82.392 41.24 81.9 40.928Q81.408 40.616 80.856 40.616Q80.304 40.616 79.944 40.832Q79.584 41.048 79.32 41.456L77.952 43.712Q78.672 44.36 79.62 44.912Q80.568 45.464 81.684 45.872Q82.8 46.28 84.012 46.508Q85.224 46.736 86.496 46.736Q88.872 46.736 90.708 46.124Q92.544 45.512 93.792 44.42Q95.04 43.328 95.688 41.828Q96.336 40.328 96.336 38.552Q96.336 37.064 95.82 36.008Q95.304 34.952 94.452 34.196Q93.6 33.44 92.52 32.948Q91.44 32.456 90.312 32.072Q89.184 31.688 88.104 31.364Q87.024 31.04 86.172 30.632Q85.32 30.224 84.804 29.684Q84.288 29.144 84.288 28.352Q84.288 27.152 85.296 26.408Q86.304 25.664 88.056 25.664Q89.184 25.664 90.012 25.904Q90.84 26.144 91.488 26.444Q92.136 26.744 92.628 26.984Q93.12 27.224 93.552 27.224Q93.96 27.224 94.224 27.068ZM159.408 26.528Q159.168 26.912 158.904 27.068Q158.64 27.224 158.232 27.224Q157.8 27.224 157.308 26.984Q156.816 26.744 156.168 26.444Q155.52 26.144 154.692 25.904Q153.864 25.664 152.736 25.664Q150.984 25.664 149.976 26.408Q148.968 27.152 148.968 28.352Q148.968 29.144 149.484 29.684Q150 30.224 150.852 30.632Q151.704 31.04 152.784 31.364Q153.864 31.688 154.992 32.072Q156.12 32.456 157.2 32.948Q158.28 33.44 159.132 34.196Q159.984 34.952 160.5 36.008Q161.016 37.064 161.016 38.552Q161.016 40.328 160.368 41.828Q159.72 43.328 158.472 44.42Q157.224 45.512 155.388 46.124Q153.552 46.736 151.176 46.736Q149.904 46.736 148.692 46.508Q147.48 46.28 146.364 45.872Q145.248 45.464 144.3 44.912Q143.352 44.36 142.632 43.712L144 41.456Q144.264 41.048 144.624 40.832Q144.984 40.616 145.536 40.616Q146.088 40.616 146.58 40.928Q147.072 41.24 147.72 41.6Q148.368 41.96 149.244 42.272Q150.12 42.584 151.464 42.584Q152.52 42.584 153.276 42.332Q154.032 42.08 154.524 41.672Q155.016 41.264 155.244 40.724Q155.472 40.184 155.472 39.608Q155.472 38.744 154.956 38.192Q154.44 37.64 153.588 37.232Q152.736 36.824 151.644 36.5Q150.552 36.176 149.412 35.792Q148.272 35.408 147.18 34.892Q146.088 34.376 145.236 33.584Q144.384 32.792 143.868 31.64Q143.352 30.488 143.352 28.856Q143.352 27.344 143.952 25.976Q144.552 24.608 145.716 23.588Q146.88 22.568 148.62 21.956Q150.36 21.344 152.64 21.344Q155.184 21.344 157.272 22.184Q159.36 23.024 160.752 24.392L159.408 26.528ZM63.792 33.44Q64.896 33.44 65.712 33.14Q66.528 32.84 67.068 32.312Q67.608 31.784 67.884 31.04Q68.16 30.296 68.16 29.408Q68.16 27.584 67.068 26.516Q65.976 25.448 63.792 25.448Q61.608 25.448 60.516 26.516Q59.424 27.584 59.424 29.408Q59.424 30.272 59.7 31.016Q59.976 31.76 60.516 32.3Q61.056 32.84 61.884 33.14Q62.712 33.44 63.792 33.44ZM43.044 40.088Q41.568 42.152 38.496 42.152Q35.376 42.152 33.888 40.076Q32.4 38 32.4 34.04Q32.4 30.08 33.888 27.98Q35.376 25.88 38.496 25.88Q41.568 25.88 43.044 27.968Q44.52 30.056 44.52 34.04Q44.52 38.024 43.044 40.088ZM129.12 42.4906Q128.352 42.656 127.44 42.656Q125.952 42.656 125.028 41.9791Q124.104 41.3022 124.104 39.731Q124.104 38.9334 124.548 38.2567Q124.992 37.58 126.048 37.0722Q127.104 36.5645 128.844 36.2382Q130.584 35.912 133.176 35.912L133.176 40.0336Q132.528 40.6951 131.892 41.1794Q131.256 41.6637 130.572 41.9945Q129.888 42.3252 129.12 42.4906ZM70.296 47.3859Q70.296 46.6509 69.864 46.1853Q69.432 45.7197 68.688 45.4623Q67.944 45.2049 66.948 45.0824Q65.952 44.96 64.836 44.96L62.532 44.96Q61.344 44.96 60.24 44.696Q59.232 45.248 58.62 46.004Q58.008 46.76 58.008 47.744Q58.008 48.392 58.332 48.956Q58.656 49.52 59.364 49.928Q60.072 50.336 61.2 50.564Q62.328 50.792 63.96 50.792Q65.616 50.792 66.816 50.5347Q68.016 50.2775 68.796 49.8241Q69.576 49.3707 69.936 48.7458Q70.296 48.1209 70.296 47.3859Z" />
      </g>
    </g>
  </g>
</svg>