<?xml version="1.0" encoding="utf-8"?>
<svg width="258px" height="100px" viewbox="0 0 258 100" version="1.1" xmlns:xlink="http://www.w3.org/1999/xlink" xmlns="http://www.w3.org/2000/svg">
  <defs>
    <path d="M0 0L100 0L100 100L0 100L0 0Z" id="path_1" />
    <rect width="257.5" height="100" id="artboard_1" />
    <clipPath id="clip_1">
      <use xlink:href="#artboard_1" clip-rule="evenodd" />
    </clipPath>
    <clipPath id="mask_1">
      <use xlink:href="#path_1" />
    </clipPath>
  </defs>
  <g id="Artboard" clip-path="url(#clip_1)">
    <g id="logstash">
      <path d="M0 0L100 0L100 100L0 100L0 0Z" id="Background" fill="none" fill-rule="evenodd" stroke="none" />
      <g clip-path="url(#mask_1)">
        <g id="Group" transform="translate(7.8125 0)">
          <path d="M0 0L34.375 0L34.375 37.5L0 37.5L0 0Z" transform="translate(49.99999 62.499992)" id="Shape" fill="#00BFB3" fill-rule="evenodd" stroke="none" />
          <path d="M3.125 0L0 0L0 62.5L40.625 62.5L40.625 37.5C40.625 16.7893 23.8357 0 3.125 0L3.125 0Z" id="Shape" fill="#FEC514" fill-rule="evenodd" stroke="none" />
          <path d="M0 0C0 20.7107 16.7893 37.5 37.5 37.5L40.625 37.5L40.625 0L0 0Z" transform="translate(0 62.499992)" id="Shape" fill="#343741" fill-rule="evenodd" stroke="none" />
        </g>
      </g>
    </g>
    <g id="Logstash" transform="translate(109.5 29)">
      <path d="M124.326 7.766L124.326 34.514L128.772 34.514L128.772 21.158Q129.672 20.258 130.68 19.736Q131.688 19.214 132.84 19.214Q134.406 19.214 135.189 20.141Q135.972 21.068 135.972 22.76L135.972 34.514L140.418 34.514L140.418 22.76Q140.418 21.212 140.013 19.925Q139.608 18.638 138.825 17.711Q138.042 16.784 136.872 16.271Q135.702 15.758 134.19 15.758Q132.444 15.758 131.148 16.388Q129.852 17.018 128.772 18.044L128.772 7.766L124.326 7.766ZM17.892 30.518L7.47 30.518L7.47 8.486L2.628 8.486L2.628 34.514L17.892 34.514L17.892 30.518ZM81.882 34.802Q79.488 34.802 78.192 33.443Q76.896 32.084 76.896 29.69L76.896 19.376L75.024 19.376Q74.664 19.376 74.403 19.142Q74.142 18.908 74.142 18.44L74.142 16.676L77.112 16.19L78.048 11.15Q78.12 10.79 78.381 10.592Q78.642 10.394 79.038 10.394L81.342 10.394L81.342 16.208L86.202 16.208L86.202 19.376L81.342 19.376L81.342 29.384Q81.342 30.248 81.774 30.734Q82.206 31.22 82.926 31.22Q83.34 31.22 83.619 31.121Q83.898 31.022 84.105 30.914Q84.312 30.806 84.474 30.707Q84.636 30.608 84.798 30.608Q84.996 30.608 85.122 30.707Q85.248 30.806 85.392 31.004L86.724 33.164Q85.752 33.974 84.492 34.388Q83.232 34.802 81.882 34.802ZM102.222 34.514L104.22 34.514L104.22 22.85Q104.22 21.284 103.761 19.97Q103.302 18.656 102.42 17.711Q101.538 16.766 100.269 16.235Q99 15.704 97.38 15.704Q92.88 15.704 89.694 18.62L90.504 20.042Q90.702 20.384 91.026 20.618Q91.35 20.852 91.8 20.852Q92.34 20.852 92.79 20.6Q93.24 20.348 93.771 20.033Q94.302 19.718 95.022 19.466Q95.742 19.214 96.822 19.214Q98.316 19.214 99.099 20.1117Q99.882 21.0095 99.882 22.8778L99.882 23.966Q96.732 23.966 94.608 24.5078Q92.484 25.0497 91.206 25.8713Q89.928 26.693 89.379 27.7134Q88.83 28.7337 88.83 29.7814Q88.83 31.0273 89.226 31.9666Q89.622 32.9058 90.333 33.5379Q91.044 34.17 92.034 34.486Q93.024 34.802 94.194 34.802Q95.184 34.802 95.994 34.64Q96.804 34.478 97.524 34.154Q98.244 33.83 98.919 33.353Q99.594 32.876 100.296 32.246L100.692 33.56Q100.872 34.136 101.232 34.325Q101.592 34.514 102.222 34.514ZM47.844 15.722Q49.032 15.722 50.076 15.965Q51.12 16.208 51.984 16.676L57.294 16.676L57.294 18.332Q57.294 18.746 57.078 18.98Q56.862 19.214 56.34 19.304L54.684 19.61Q54.864 20.078 54.963 20.6Q55.062 21.122 55.062 21.698Q55.062 23.066 54.513 24.173Q53.964 25.28 53.001 26.054Q52.038 26.828 50.715 27.251Q49.392 27.674 47.844 27.674Q46.8 27.674 45.81 27.476Q44.946 28.0019 44.946 28.6544Q44.946 29.2167 45.459 29.4795Q45.972 29.7423 46.809 29.8512Q47.646 29.96 48.708 29.96Q49.77 29.96 50.886 30.0503Q52.002 30.1406 53.064 30.3663Q54.126 30.592 54.963 31.0797Q55.8 31.5673 56.313 32.407Q56.826 33.2467 56.826 34.5649Q56.826 35.7931 56.223 36.9488Q55.62 38.1044 54.477 39.0074Q53.334 39.9103 51.678 40.4612Q50.022 41.012 47.898 41.012Q45.792 41.012 44.244 40.607Q42.696 40.202 41.679 39.527Q40.662 38.852 40.158 37.97Q39.654 37.088 39.654 36.134Q39.654 34.838 40.446 33.956Q41.238 33.074 42.642 32.552Q41.958 32.174 41.544 31.544Q41.13 30.914 41.13 29.906Q41.13 29.492 41.274 29.051Q41.418 28.61 41.715 28.178Q42.012 27.746 42.462 27.359Q42.912 26.972 43.524 26.666Q42.12 25.91 41.319 24.65Q40.518 23.39 40.518 21.698Q40.518 20.33 41.067 19.223Q41.616 18.116 42.597 17.333Q43.578 16.55 44.919 16.136Q46.26 15.722 47.844 15.722ZM32.625 16.424Q30.942 15.758 28.872 15.758Q26.802 15.758 25.11 16.424Q23.418 17.09 22.221 18.314Q21.024 19.538 20.367 21.302Q19.71 23.066 19.71 25.244Q19.71 27.44 20.367 29.204Q21.024 30.968 22.221 32.21Q23.418 33.452 25.11 34.118Q26.802 34.784 28.872 34.784Q30.942 34.784 32.625 34.118Q34.308 33.452 35.496 32.21Q36.684 30.968 37.332 29.204Q37.98 27.44 37.98 25.244Q37.98 23.066 37.332 21.302Q36.684 19.538 35.496 18.314Q34.308 17.09 32.625 16.424ZM70.668 20.051Q70.866 19.934 71.046 19.646L72.054 18.044Q71.01 17.018 69.444 16.388Q67.878 15.758 65.97 15.758Q64.26 15.758 62.955 16.217Q61.65 16.676 60.777 17.441Q59.904 18.206 59.454 19.232Q59.004 20.258 59.004 21.392Q59.004 22.616 59.391 23.48Q59.778 24.344 60.417 24.938Q61.056 25.532 61.875 25.919Q62.694 26.306 63.549 26.594Q64.404 26.882 65.223 27.125Q66.042 27.368 66.681 27.674Q67.32 27.98 67.707 28.394Q68.094 28.808 68.094 29.456Q68.094 29.888 67.923 30.293Q67.752 30.698 67.383 31.004Q67.014 31.31 66.447 31.499Q65.88 31.688 65.088 31.688Q64.08 31.688 63.423 31.454Q62.766 31.22 62.28 30.95Q61.794 30.68 61.425 30.446Q61.056 30.212 60.642 30.212Q60.228 30.212 59.958 30.374Q59.688 30.536 59.49 30.842L58.464 32.534Q59.004 33.02 59.715 33.434Q60.426 33.848 61.263 34.154Q62.1 34.46 63.009 34.631Q63.918 34.802 64.872 34.802Q66.654 34.802 68.031 34.343Q69.408 33.884 70.344 33.065Q71.28 32.246 71.766 31.121Q72.252 29.996 72.252 28.664Q72.252 27.548 71.865 26.756Q71.478 25.964 70.839 25.397Q70.2 24.83 69.39 24.461Q68.58 24.092 67.734 23.804Q66.888 23.516 66.078 23.273Q65.268 23.03 64.629 22.724Q63.99 22.418 63.603 22.013Q63.216 21.608 63.216 21.014Q63.216 20.114 63.972 19.556Q64.728 18.998 66.042 18.998Q66.888 18.998 67.509 19.178Q68.13 19.358 68.616 19.583Q69.102 19.808 69.471 19.988Q69.84 20.168 70.164 20.168Q70.47 20.168 70.668 20.051ZM119.556 19.646Q119.376 19.934 119.178 20.051Q118.98 20.168 118.674 20.168Q118.35 20.168 117.981 19.988Q117.612 19.808 117.126 19.583Q116.64 19.358 116.019 19.178Q115.398 18.998 114.552 18.998Q113.238 18.998 112.482 19.556Q111.726 20.114 111.726 21.014Q111.726 21.608 112.113 22.013Q112.5 22.418 113.139 22.724Q113.778 23.03 114.588 23.273Q115.398 23.516 116.244 23.804Q117.09 24.092 117.9 24.461Q118.71 24.83 119.349 25.397Q119.988 25.964 120.375 26.756Q120.762 27.548 120.762 28.664Q120.762 29.996 120.276 31.121Q119.79 32.246 118.854 33.065Q117.918 33.884 116.541 34.343Q115.164 34.802 113.382 34.802Q112.428 34.802 111.519 34.631Q110.61 34.46 109.773 34.154Q108.936 33.848 108.225 33.434Q107.514 33.02 106.974 32.534L108 30.842Q108.198 30.536 108.468 30.374Q108.738 30.212 109.152 30.212Q109.566 30.212 109.935 30.446Q110.304 30.68 110.79 30.95Q111.276 31.22 111.933 31.454Q112.59 31.688 113.598 31.688Q114.39 31.688 114.957 31.499Q115.524 31.31 115.893 31.004Q116.262 30.698 116.433 30.293Q116.604 29.888 116.604 29.456Q116.604 28.808 116.217 28.394Q115.83 27.98 115.191 27.674Q114.552 27.368 113.733 27.125Q112.914 26.882 112.059 26.594Q111.204 26.306 110.385 25.919Q109.566 25.532 108.927 24.938Q108.288 24.344 107.901 23.48Q107.514 22.616 107.514 21.392Q107.514 20.258 107.964 19.232Q108.414 18.206 109.287 17.441Q110.16 16.676 111.465 16.217Q112.77 15.758 114.48 15.758Q116.388 15.758 117.954 16.388Q119.52 17.018 120.564 18.044L119.556 19.646ZM47.844 24.83Q48.672 24.83 49.284 24.605Q49.896 24.38 50.301 23.984Q50.706 23.588 50.913 23.03Q51.12 22.472 51.12 21.806Q51.12 20.438 50.301 19.637Q49.482 18.836 47.844 18.836Q46.206 18.836 45.387 19.637Q44.568 20.438 44.568 21.806Q44.568 22.454 44.775 23.012Q44.982 23.57 45.387 23.975Q45.792 24.38 46.413 24.605Q47.034 24.83 47.844 24.83ZM32.283 29.816Q31.176 31.364 28.872 31.364Q26.532 31.364 25.416 29.807Q24.3 28.25 24.3 25.28Q24.3 22.31 25.416 20.735Q26.532 19.16 28.872 19.16Q31.176 19.16 32.283 20.726Q33.39 22.292 33.39 25.28Q33.39 28.268 32.283 29.816ZM96.84 31.618Q96.264 31.742 95.58 31.742Q94.464 31.742 93.771 31.2343Q93.078 30.7267 93.078 29.5483Q93.078 28.95 93.411 28.4425Q93.744 27.935 94.536 27.5542Q95.328 27.1734 96.633 26.9287Q97.938 26.684 99.882 26.684L99.882 29.7752Q99.396 30.2713 98.919 30.6346Q98.442 30.9978 97.929 31.2459Q97.416 31.4939 96.84 31.618ZM52.722 35.2894Q52.722 34.7382 52.398 34.389Q52.074 34.0398 51.516 33.8467Q50.958 33.6537 50.211 33.5618Q49.464 33.47 48.627 33.47L46.899 33.47Q46.008 33.47 45.18 33.272Q44.424 33.686 43.965 34.253Q43.506 34.82 43.506 35.558Q43.506 36.044 43.749 36.467Q43.992 36.89 44.523 37.196Q45.054 37.502 45.9 37.673Q46.746 37.844 47.97 37.844Q49.212 37.844 50.112 37.6511Q51.012 37.4581 51.597 37.1181Q52.182 36.7781 52.452 36.3094Q52.722 35.8407 52.722 35.2894Z" />
    </g>
  </g>
</svg>