<?xml version="1.0" encoding="utf-8"?>
<svg width="404px" height="100px" viewbox="0 0 404 100" version="1.1" xmlns:xlink="http://www.w3.org/1999/xlink" xmlns="http://www.w3.org/2000/svg">
  <defs>
    <path d="M0 0L403.343 0L403.343 100L0 100L0 0Z" id="path_1" />
    <clipPath id="mask_1">
      <use xlink:href="#path_1" />
    </clipPath>
  </defs>
  <g id="https___mariadb.com_wp-content_uploads_2019_11_mariadb-horizontal-blue">
    <path d="M0 0L403.343 0L403.343 100L0 100L0 0Z" id="Background" fill="none" fill-rule="evenodd" stroke="none" />
    <g clip-path="url(#mask_1)">
      <path d="M47.1222 0L56.5886 36.5467L49.4326 36.5467L43.1251 10.2229L31.2819 36.5467L25.2556 36.5467L13.4635 10.3762L6.9822 36.5467L0 36.5467L9.36413 0L15.5387 0L28.2917 28.2969L40.9988 0L47.1222 0Z" transform="translate(146.13066 34.052338)" id="Shape" fill="#003545" fill-rule="evenodd" stroke="none" />
      <path d="M24.9438 4.86097L24.9438 0.608261L31.8289 0.608261L31.8289 27.2848L24.9438 27.2848L24.9438 22.981C23.1241 26.0478 19.3774 27.8419 14.8231 27.8419C5.30566 27.8419 0 21.1562 0 13.4124C0 5.97526 5.06031 0 13.8009 0C18.8203 0 22.9708 1.72255 24.9438 4.86097L24.9438 4.86097ZM7.32979 13.7702C7.32979 18.6772 10.3966 22.8788 16.3872 22.8788C22.158 22.8788 25.2965 18.7896 25.2965 13.9184C25.2965 9.04723 22.0609 4.91208 16.0959 4.91208C10.3149 4.91208 7.32979 9.06257 7.32979 13.7702L7.32979 13.7702Z" transform="translate(204.6974 43.319366)" id="Shape" fill="#003545" fill-rule="evenodd" stroke="none" />
      <path d="M6.88509 27.286L0 27.286L0 0.609412L6.88509 0.609412L6.88509 6.57956C8.70476 2.49042 12.4003 0.00115041 16.4997 0.00115041C17.965 -0.0188395 19.4223 0.22173 20.8035 0.711639L19.3365 5.77195C18.147 5.45421 16.9231 5.28256 15.6921 5.26081C10.7289 5.26081 6.88508 9.00749 6.88508 14.5227L6.88509 27.286Z" transform="translate(245.1748 43.318207)" id="Shape" fill="#003545" fill-rule="evenodd" stroke="none" />
      <path d="M0.00205905 3.58316C-0.0193114 2.60712 0.367228 1.66636 1.06862 0.987278C1.77 0.308194 2.72275 -0.0477325 3.69762 0.00515542C4.69195 -0.0272512 5.65602 0.349976 6.3643 1.04861C7.07262 1.74724 7.46306 2.70603 7.44431 3.70072C7.44431 5.47439 6.22778 7.24294 3.69762 7.24294C2.71111 7.28626 1.75132 6.91584 1.04971 6.22101C0.348073 5.52618 -0.0316657 4.57003 0.00205905 3.58316L0.00205905 3.58316ZM0.303647 10.6216L7.18874 10.6216L7.18874 30.1115C7.18874 31.3229 7.44431 32.1867 8.45636 32.1867C8.89797 32.1752 9.33764 32.1239 9.77003 32.0334L10.8332 37.0426C9.38134 37.6033 7.83512 37.8792 6.27892 37.8553C3.39094 37.8553 0.303647 36.9915 0.303647 30.4642L0.303647 10.6216Z" transform="translate(269.41626 33.30603)" id="Shape" fill="#003545" fill-rule="evenodd" stroke="none" />
      <path d="M24.9489 4.86097L24.9489 0.608261L31.8289 0.608261L31.8289 27.2848L24.9489 27.2848L24.9489 22.981C23.1241 26.0478 19.3774 27.8419 14.8231 27.8419C5.30567 27.8419 0 21.1562 0 13.4124C0 5.97526 5.06541 0 13.8009 0C18.8203 0 22.9708 1.72255 24.9489 4.86097L24.9489 4.86097ZM7.3298 13.7702C7.3298 18.6772 10.3967 22.8788 16.3924 22.8788C22.1632 22.8788 25.3016 18.7896 25.3016 13.9184C25.3016 9.04723 22.0609 4.91208 16.101 4.91208C10.32 4.91208 7.3298 9.06257 7.3298 13.7702L7.3298 13.7702Z" transform="translate(282.432 43.319366)" id="Shape" fill="#003545" fill-rule="evenodd" stroke="none" />
      <path d="M0 0L16.5048 0C30.3721 0 37.3083 7.64159 37.2061 18.2734C37.3083 29.3089 29.6616 36.5467 17.7162 36.5467L0 36.5467L0 0ZM4.55427 3.24064L4.55427 33.3572L17.1182 33.3572C28.1538 33.3572 32.3553 25.9149 32.3553 18.1711C32.3553 9.41525 27.0906 3.24064 17.1182 3.24064L4.55427 3.24064Z" transform="translate(324.83643 34.052338)" id="Shape" fill="#003545" fill-rule="evenodd" stroke="none" />
      <path d="M20.9569 36.5518L0 36.5518L0 0L18.8816 0C26.1194 0 33.0045 1.36475 32.9023 9.46637C32.9023 15.1861 29.3601 16.7553 25.6134 17.3635C30.9293 17.8184 34.1188 21.2073 34.1188 26.6765C34.1648 34.8804 26.9781 36.5518 20.9569 36.5518L20.9569 36.5518ZM19.3877 15.9477C26.6254 15.9477 28.2458 13.167 28.2458 9.61971C28.2458 4.30893 25.0051 3.09242 19.3877 3.09242L4.35495 3.09242L4.35495 15.9477L19.3877 15.9477ZM19.587 19.0145L4.35495 19.0145L4.35495 33.4441L20.2668 33.4441C24.724 33.4441 29.4316 31.972 29.4316 26.3545C29.4112 19.8988 23.9931 19.035 19.587 19.035L19.587 19.0145Z" transform="translate(369.22406 34.052338)" id="Shape" fill="#003545" fill-rule="evenodd" stroke="none" />
      <path d="M152.934 0.512334C152.516 0.165244 151.985 -0.0165922 151.441 0.00119124C149.959 0.00119148 148.042 1.02348 147.015 1.53462C146.836 1.63174 146.698 1.7033 146.601 1.74419C144.876 2.59305 142.995 3.07681 141.075 3.16517C139.102 3.2265 137.4 3.34407 135.197 3.57408C122.071 4.93883 116.249 14.9572 110.622 24.6689C107.555 29.9439 104.396 35.403 100.056 39.6352C99.1588 40.5055 98.2042 41.3149 97.1989 42.058C92.7111 45.4009 87.0732 47.7675 82.6672 49.4543C78.4451 51.0644 73.8346 52.5211 69.3774 53.9217C65.2883 55.2046 61.4496 56.4211 57.9074 57.7348C56.3075 58.3277 54.9479 58.7571 53.7518 59.1813C50.5265 60.2547 48.1957 61.0317 44.8017 63.3574C43.4778 64.2621 42.1488 65.2435 41.2237 65.9846C38.532 68.1388 36.1499 70.6534 34.1444 73.4575C32.4244 76.0442 30.4371 78.4428 28.2151 80.6135C27.4995 81.3138 26.2267 81.6358 24.3202 81.6358C22.0865 81.6358 19.3774 81.1758 16.5099 80.6902C13.5606 80.1791 10.504 79.6679 7.88694 79.6679C5.75547 79.6679 4.13003 80.0104 2.9084 80.7209C2.9084 80.7209 0.863832 81.9169 0 83.4606L0.848497 83.844C2.16238 84.5517 3.38172 85.4224 4.47761 86.4355C5.61333 87.4875 6.87938 88.3893 8.24474 89.119C8.68094 89.2928 9.0761 89.5557 9.40503 89.8908C9.04723 90.4019 8.52075 91.092 7.97383 91.8127C4.94786 95.7689 3.18442 98.2684 4.19648 99.628C4.66804 99.8785 5.1961 100.004 5.72991 99.991C12.3237 99.991 15.8608 98.2735 20.3435 96.1063C21.6418 95.4776 22.981 94.8284 24.5144 94.1639C27.1315 93.0292 29.953 91.2197 32.938 89.2978C36.8943 86.7421 40.9834 84.1302 44.9448 82.8574C48.2086 81.863 51.6079 81.3852 55.0194 81.4416C59.2261 81.4416 63.622 82.0038 67.8747 82.5508C71.0489 82.9546 74.3304 83.3737 77.5506 83.573C78.8029 83.6497 79.9632 83.6855 81.0877 83.6855C82.5955 83.6917 84.1025 83.6115 85.6011 83.4453L85.9589 83.3226C88.2182 81.9323 89.2762 78.9523 90.3036 76.0746C90.963 74.2191 91.515 72.5528 92.3737 71.4743C92.4278 71.4221 92.4859 71.3742 92.5475 71.3312C92.6328 71.2835 92.7398 71.3027 92.8031 71.3772C92.8031 71.3772 92.8031 71.4027 92.8031 71.4538C92.2613 82.7296 87.7428 89.8805 83.1527 96.2392L80.0859 99.5258C80.0859 99.5258 84.3744 99.5258 86.8125 98.5853C95.7166 95.9222 102.443 90.0543 107.335 80.6953C108.541 78.2935 109.619 75.8298 110.565 73.3143C110.647 73.1048 111.424 72.7164 111.347 73.8C111.347 74.122 111.301 74.4747 111.276 74.8223L111.276 74.8223C111.276 75.042 111.245 75.2669 111.235 75.4919C111.107 77.0253 110.724 80.3835 110.724 80.3835L113.474 78.9114C120.119 74.7098 125.23 66.2657 129.094 53.114C130.709 47.6346 131.89 42.1909 132.933 37.3913C134.18 31.6511 135.259 26.693 136.511 24.7763C138.443 21.7656 141.392 19.7313 144.245 17.7583L145.41 16.9507C148.988 14.4307 152.566 11.5223 153.353 6.1042L153.353 5.98153C153.966 2.02021 153.481 0.987697 152.934 0.512334L152.934 0.512334Z" transform="translate(0 -0.021636963)" id="Shape" fill="#003545" fill-rule="evenodd" stroke="none" />
    </g>
  </g>
</svg>