<?xml version="1.0" encoding="utf-8"?>
<svg width="173px" height="100px" viewbox="0 0 173 100" version="1.1" xmlns:xlink="http://www.w3.org/1999/xlink" xmlns="http://www.w3.org/2000/svg">
  <defs>
    <path d="M0 0L172.131 0L172.131 100L0 100L0 0Z" id="path_1" />
    <path d="M0 0L645.902 0L645.902 100L0 100L0 0L0 0Z" id="path_2" />
    <clipPath id="mask_1">
      <use xlink:href="#path_1" />
    </clipPath>
    <clipPath id="mask_2">
      <use xlink:href="#path_2" />
    </clipPath>
  </defs>
  <g id="svg">
    <g id="Mask-group">
      <path d="M0 0L172.131 0L172.131 100L0 100L0 0Z" id="slice_1" fill="none" fill-rule="evenodd" stroke="none" />
      <g clip-path="url(#mask_1)">
        <g id="Slice">
          <path d="M0 0L172.131 0L172.131 100L0 100L0 0Z" id="slice_1" fill="none" fill-rule="evenodd" stroke="none" />
          <g id="medium">
            <path d="M0 0L645.902 0L645.902 100L0 100L0 0L0 0Z" id="Background" fill="none" fill-rule="evenodd" stroke="none" />
            <g id="Mask-group">
              <path d="M0 0L645.902 0L645.902 100L0 100L0 0L0 0Z" id="path_1" fill="none" fill-rule="evenodd" stroke="none" />
              <g clip-path="url(#mask_2)">
                <g id="Group" transform="translate(0.95082766 0.8655736)">
                  <path d="M96.5557 49.659C96.5557 76.5049 74.941 98.2688 48.277 98.2688C21.6131 98.2688 0 76.5115 0 49.659C0 22.8066 21.6148 1.05082 48.277 1.05082C74.9393 1.05082 96.5557 22.8131 96.5557 49.659M149.518 49.659C149.518 74.9312 138.71 95.4164 125.379 95.4164C112.048 95.4164 101.239 74.9246 101.239 49.659C101.239 24.3934 112.048 3.90164 125.379 3.90164C138.71 3.90164 149.518 24.3934 149.518 49.659M171.18 49.659C171.18 72.3016 167.379 90.6557 162.69 90.6557C158.002 90.6557 154.2 72.2951 154.2 49.659C154.2 27.0229 158.002 8.6623 162.692 8.6623C167.382 8.6623 171.18 27.018 171.18 49.659M304.421 5.26557L304.556 5.23607L304.556 4.19508L277.1 4.19508L251.607 64.1131L226.113 4.19508L196.526 4.19508L196.526 5.23607L196.659 5.26557C201.67 6.39672 204.215 8.08361 204.215 14.1672L204.215 85.3885C204.215 91.4721 201.661 93.159 196.649 94.2902L196.516 94.3197L196.516 95.3639L216.59 95.3639L216.59 94.323L216.457 94.2934C211.446 93.1623 208.902 91.4754 208.902 85.3918L208.902 18.2984L241.651 95.3639L243.508 95.3639L277.211 16.1492L277.211 87.1508C276.782 91.9557 274.261 93.4393 269.723 94.4639L269.589 94.4951L269.589 95.5279L304.556 95.5279L304.556 94.4951L304.421 94.4639C299.879 93.4393 297.297 91.9557 296.867 87.1508L296.844 14.1672L296.867 14.1672C296.867 8.08361 299.411 6.39672 304.421 5.26557M320.393 52.4459C320.966 39.6492 325.561 30.4131 333.272 30.2541C335.651 30.2934 337.646 31.0738 339.197 32.5754C342.492 35.7738 344.041 42.4574 343.802 52.4459L320.393 52.4459L320.393 52.4459ZM320.048 56.0525L361.031 56.0525L361.031 55.8803C360.915 46.0951 358.08 38.4836 352.615 33.2574C347.89 28.741 340.895 26.2557 333.548 26.2557L333.384 26.2557C329.57 26.2557 324.893 27.1803 321.566 28.8557C317.777 30.6098 314.436 33.2328 311.656 36.6754C307.18 42.2213 304.469 49.7164 303.81 58.1393C303.789 58.3918 303.771 58.6443 303.752 58.8967C303.734 59.1492 303.723 59.3754 303.711 59.6164C303.652 60.8007 303.633 61.9866 303.652 63.1721C304.097 82.2492 314.402 97.4951 332.705 97.4951C348.771 97.4951 358.126 85.7508 360.459 69.9869L359.28 69.5721C355.182 78.0443 347.821 83.1787 339.444 82.5525C328.008 81.6967 319.248 70.1016 320.043 56.0557M407.369 81.9049C406.025 85.0934 403.22 86.8475 399.461 86.8475C395.702 86.8475 392.266 84.2672 389.825 79.5787C387.202 74.5459 385.821 67.4311 385.821 59.0033C385.821 41.4623 391.277 30.1164 399.721 30.1164C403.257 30.1164 406.041 31.8705 407.369 34.9311L407.369 81.9049L407.369 81.9049ZM434.556 94.4099C429.544 93.2246 427 91.459 427 85.0656L427 0L396.552 8.97049L396.552 10.0689L396.739 10.0541C400.939 9.71475 403.789 10.2951 405.443 11.823C406.738 13.0197 407.369 14.8557 407.369 17.4393L407.369 29.1016C404.367 27.1852 400.797 26.2525 396.464 26.2525C387.677 26.2525 379.646 29.9525 373.854 36.6721C367.816 43.6754 364.625 53.2459 364.625 64.3459C364.623 84.1705 374.382 97.4951 388.907 97.4951C397.403 97.4951 404.239 92.8393 407.369 84.9869L407.369 95.5279L434.689 95.5279L434.689 94.4361L434.556 94.4099L434.556 94.4099ZM460.669 11.5689C460.669 5.37869 456.002 0.709838 449.81 0.709838C443.648 0.709838 438.826 5.48033 438.826 11.5689C438.826 17.6574 443.652 22.4279 449.81 22.4279C456.002 22.4279 460.669 17.759 460.669 11.5689M467.856 94.4098C462.844 93.2246 460.3 91.459 460.3 85.0656L460.279 85.0656L460.279 26.4541L432.957 34.2984L432.957 35.3639L433.121 35.3787C439.033 35.9049 440.651 37.941 440.651 44.8492L440.651 95.5279L467.995 95.5279L467.995 94.4361L467.856 94.4098L467.856 94.4098ZM537.864 94.4099C532.852 93.2246 530.308 91.459 530.308 85.0656L530.308 26.4541L504.295 34.0393L504.295 35.1082L504.449 35.1246C509.282 35.6328 510.679 37.7852 510.679 44.7246L510.679 81.7738C509.067 84.9623 506.044 86.8557 502.382 86.9836C496.443 86.9836 493.172 82.9721 493.172 75.6885L493.172 26.4557L465.851 34.3L465.851 35.3639L466.015 35.3787C471.926 35.9033 473.546 37.9393 473.546 44.8492L473.546 76.2049C473.531 78.3934 473.723 80.579 474.115 82.7325L474.607 84.8721C476.92 93.1607 482.98 97.4951 492.475 97.4951C500.518 97.4951 507.567 92.5164 510.672 84.7262L510.672 95.5459L537.993 95.5459L537.993 94.4541L537.864 94.4099L537.864 94.4099ZM644 95.5279L644 94.4344L643.867 94.4033C638.43 93.1492 636.311 90.7852 636.311 85.9721L636.311 46.1033C636.311 33.6721 629.329 26.2525 617.634 26.2525C609.11 26.2525 601.921 31.1787 599.154 38.8525C596.956 30.7213 590.63 26.2525 581.275 26.2525C573.059 26.2525 566.62 30.5885 563.857 37.9131L563.857 26.459L536.536 33.982L536.536 35.0541L536.7 35.0689C542.541 35.5869 544.229 37.682 544.229 44.4131L544.229 95.5279L569.721 95.5279L569.721 94.4361L569.587 94.4033C565.249 93.3836 563.849 91.5246 563.849 86.7541L563.849 41.0557C564.997 38.3754 567.31 35.2 571.882 35.2C577.561 35.2 580.439 39.1344 580.439 46.8852L580.439 95.5279L605.938 95.5279L605.938 94.4361L605.803 94.4033C601.466 93.3836 600.066 91.5246 600.066 86.7541L600.066 46.0984C600.077 44.5785 599.956 43.0603 599.705 41.561C600.921 38.6475 603.367 35.2 608.126 35.2C613.885 35.2 616.684 39.0213 616.684 46.8852L616.684 95.5279L644 95.5279L644 95.5279Z" id="Shape" fill="#000000" fill-rule="evenodd" stroke="none" />
                </g>
              </g>
            </g>
          </g>
        </g>
      </g>
    </g>
  </g>
</svg>