<?xml version="1.0" encoding="utf-8"?>
<svg width="348px" height="100px" viewbox="0 0 348 100" version="1.1" xmlns:xlink="http://www.w3.org/1999/xlink" xmlns="http://www.w3.org/2000/svg">
  <g id="mongodb-ar21">
    <path d="M0.0836245 0L2.74969 5.01415C3.33011 5.91863 4.00578 6.75831 4.76514 7.5188C6.99827 9.75192 9.12378 12.0927 11.0267 14.5998C15.5468 20.536 18.5969 27.1278 20.7762 34.265C22.0823 38.6237 22.7916 43.0899 22.8454 47.61C23.0656 61.1189 18.433 72.7199 9.06508 82.3618C7.54721 83.8901 5.90796 85.293 4.16344 86.5565C3.23399 86.5565 2.80106 85.8228 2.41949 85.1942C1.68572 83.9712 1.2748 82.6333 1.05711 81.2733C0.729355 79.6395 0.51167 78.0056 0.621737 76.3154L0.621737 75.5523C0.567928 75.3884 -0.249017 0.383999 0.0762954 0.00243409L0.0836245 0Z" transform="translate(22.06963 0.26969147)" id="Shape" fill="#599636" fill-rule="evenodd" stroke="none" />
    <path d="M22.1533 0.10826C22.0432 -0.111874 21.9331 0.0544503 21.8255 0.16207C21.8793 1.25051 21.4977 2.23133 20.896 3.15833C20.243 4.08779 19.3698 4.79221 18.499 5.55534C13.6512 9.75011 9.84044 14.8156 6.78792 20.4804C2.75703 28.1068 0.633961 36.2762 0.0371528 44.8834C-0.2319 47.9898 1.01552 58.9378 1.99879 62.0955C4.66485 70.485 9.45887 77.5097 15.696 83.6098C17.2223 85.0774 18.8561 86.4422 20.5438 87.7484C21.033 87.7484 21.0893 87.313 21.1969 86.9852C21.4115 86.2896 21.575 85.5792 21.6861 84.8597C22.1753 82.1374 22.4492 79.4126 22.7745 76.6903L22.1753 0.108269L22.1533 0.10826Z" id="Shape" fill="#6CAC48" fill-rule="evenodd" stroke="none" />
    <path d="M4.30239 14.9838C4.41246 13.7315 5.03617 12.6968 5.66477 11.6622C5.01171 11.3932 4.52008 10.8453 4.13851 10.2436C3.81076 9.69812 3.53926 9.0206 3.32157 8.4458C2.55844 6.15885 2.39212 3.76184 2.17688 1.41864L2.17688 0C1.90782 0.220134 1.84912 2.06926 1.84912 2.3432C1.68525 4.84783 1.35993 7.3011 0.870751 9.69567C0.706872 10.674 0.601699 11.6573 0 12.5281C0 12.6381 0 12.7482 0.0538112 12.9096C1.03218 15.7958 1.30612 18.7383 1.47245 21.7345L1.47245 22.823C1.47245 24.1291 1.41864 23.8576 2.50708 24.2905C2.94245 24.4544 3.43653 24.5107 3.86946 24.836C4.19722 24.836 4.25102 24.5669 4.25102 24.3468L4.08715 22.549L4.08715 17.5349C4.03334 16.6641 4.19722 15.7909 4.30728 14.974L4.30239 14.9838Z" transform="translate(20.524261 75.16403)" id="Shape" fill="#C2BFBF" fill-rule="evenodd" stroke="none" />
    <g id="Group" transform="translate(57.456585 18.734703)">
      <path d="M10.822 15.9991L10.822 23.5073C10.8136 23.8046 10.8306 24.1021 10.8726 24.3966C10.9703 25.2858 11.5161 25.8281 12.3186 26.0775C13.0674 26.2747 13.8281 26.4232 14.596 26.5222C15.0407 26.5728 15.1889 26.768 15.2395 27.2451C15.2901 28.9261 15.1419 29.1249 13.5116 29.0237C9.70866 28.8249 5.90212 28.7779 2.09921 29.0237L1.73771 29.0237C0.552021 29.0743 0.45441 28.9731 0.45441 27.7874C0.45441 27.5886 0.505025 27.3427 0.505025 27.1439C0.505025 26.7824 0.75085 26.6017 1.09788 26.6017C1.89316 26.5041 2.63061 26.3053 3.3753 26.157C4.41278 25.9112 5.00202 25.2678 5.10324 24.2303C5.24783 23.0952 5.24783 21.9095 5.24783 20.7708L5.29845 7.53289C5.33172 6.7491 4.90915 6.01665 4.21396 5.65312C3.32 5.15654 2.37454 4.75896 1.39433 4.46743C1.09789 4.36982 0.801465 4.32283 0.555668 4.17099C-0.167329 3.82396 -0.185412 3.18412 0.505052 2.78648C0.750877 2.64188 1.0473 2.54066 1.34372 2.49005C4.34171 2.04758 7.28723 1.30273 10.1352 0.26687C10.7281 0.0680417 10.8763 0.122263 10.9305 0.711503C10.9811 1.07299 10.9305 1.50678 10.8799 1.84659C10.7823 2.49005 10.7823 3.12989 10.7823 3.72635C10.7823 3.97217 10.8329 4.22159 11.0787 4.36981C11.3246 4.51803 11.574 4.36981 11.8017 4.22521C12.8392 3.42993 13.8767 2.69248 15.0118 2.05625C16.6385 1.16697 18.3737 0.375305 20.2535 0.129494C22.5309 -0.166939 24.501 0.425921 26.2326 1.90804C26.9485 2.54881 27.579 3.27899 28.1087 4.08061C28.604 4.80361 28.651 4.82168 29.2944 4.32644C31.1742 2.94192 33.1479 1.70922 35.2735 0.819952C37.4967 -0.119936 39.7705 -0.26453 42.0407 0.523525C44.3615 1.36219 45.9448 2.99253 46.8847 5.21571C47.68 6.99426 48.0198 8.83065 48.0198 10.7466L48.0198 23.9844C48.0198 24.8737 48.3813 25.4304 49.2561 25.8642C50.196 26.2257 51.2335 26.4065 52.2203 26.6053C52.8638 26.7499 52.8638 26.7499 52.8638 27.4006C52.7662 29.0273 52.618 29.1285 51.0346 29.0273C47.0697 28.8051 43.0955 28.8051 39.1306 29.0273C38.3354 29.0779 38.3354 29.0779 38.292 28.2862L38.292 28.0404C38.2414 26.7029 38.2414 26.7029 39.5283 26.4137L40.8116 26.0667C41.7066 25.856 42.3404 25.0593 42.3443 24.1399L42.4889 20.4346L42.3913 10.7538C42.3534 9.8894 42.1701 9.03761 41.8491 8.23415C40.6128 5.2193 37.898 4.13482 35.2771 4.43125C33.2997 4.63007 31.5718 5.41812 29.9415 6.55683C29.5944 6.80264 29.3486 7.09906 29.3992 7.59432C29.8439 10.7574 29.5438 13.9204 29.598 17.0799L29.598 23.9483C29.598 25.1846 30.0933 25.7775 31.279 26.0739L33.5564 26.5691C33.9034 26.6197 34.0986 26.7679 34.0986 27.162L34.0986 27.5235C34.048 28.908 33.9541 28.9694 32.5659 28.955C28.6148 28.7562 24.6601 28.8104 20.7595 28.955C19.422 29.0056 19.3136 28.8574 19.375 27.509C19.4256 26.7137 19.5196 26.6703 20.2643 26.5221L21.891 26.2257C23.337 25.9293 23.8684 25.387 23.966 23.8543L24.1106 20.543L24.013 10.6128C23.9154 9.37649 23.6515 8.19079 22.9755 7.0557C21.9886 5.22654 20.4451 4.29028 18.3303 4.18906C16.2047 4.04446 14.3286 4.83252 12.5464 5.81579C11.3101 6.53878 10.7679 7.39552 10.8655 8.83064L10.8655 16.0424L10.822 15.9991ZM103.896 16.2991L103.896 23.2651C103.904 23.7606 103.936 24.2553 103.993 24.7474C104.037 25.4211 104.52 25.9853 105.179 26.1317C106.032 26.3802 106.91 26.5294 107.796 26.5764C108.292 26.627 108.389 26.8222 108.44 27.2199L108.44 27.5669C108.389 29.2948 108.194 29.4937 106.513 29.3961C102.754 29.1502 99.0048 29.1972 95.2489 29.3961L93.8029 29.4467C93.5065 29.4467 93.4414 29.3021 93.3583 29.0996C93.2139 28.4155 93.2139 27.7088 93.3583 27.0247C93.4089 26.7282 93.6041 26.6632 93.9005 26.58C94.6235 26.4824 95.238 26.3342 95.9249 26.2185C97.1612 25.9221 97.6058 25.4232 97.6528 24.1435L97.7974 19.9936L97.7974 7.84019C97.7974 6.95091 97.4504 6.40868 96.6623 6.01103C95.7731 5.51578 94.8332 5.17236 93.8427 4.82533C93.5463 4.72773 93.2498 4.62651 93.004 4.4783C92.3606 4.03367 92.2811 3.39382 92.9064 2.89857C93.1869 2.66803 93.5314 2.52921 93.8933 2.50093C97.0564 2.00569 100.118 1.31523 103.082 0.12953C103.43 -0.0150712 103.578 0.078921 103.726 0.375347C103.874 0.671774 103.925 1.0188 103.871 1.36222L103.726 3.68301C103.726 3.97945 103.581 4.406 103.824 4.52168C104.12 4.7205 104.319 4.27587 104.565 4.16018C106.023 2.93659 107.635 1.90738 109.358 1.09833C110.891 0.375347 112.467 -0.0873614 114.249 0.0138557C117.56 0.212677 119.932 1.89362 121.461 4.80727C122.256 6.34 122.596 8.01733 122.744 9.74889L122.889 13.3638L122.939 24.2809C122.99 25.1196 123.286 25.6654 124.125 25.9619C124.994 26.2516 125.887 26.4669 126.793 26.6053C127.588 26.7029 127.632 26.8511 127.682 27.5922L127.682 27.838C127.585 29.519 127.483 29.566 125.802 29.4647C122.117 29.2671 118.423 29.2671 114.737 29.4647C114.242 29.5153 113.75 29.4647 113.291 29.5153C112.995 29.5153 112.796 29.4647 112.749 29.1683C112.651 28.5248 112.55 27.885 112.698 27.1909C112.749 26.8945 112.897 26.7463 113.24 26.6957L115.518 26.3342C116.313 26.1354 116.754 25.6112 116.855 24.8882L116.953 23.5037L116.902 13.1795C116.902 11.9938 116.852 10.8081 116.606 9.62236C116.013 7.0919 114.086 5.28444 111.473 5.03139C109.195 4.78557 107.135 5.37843 105.248 6.61112C104.308 7.20397 103.91 8.04263 103.91 9.08012L103.91 16.5413C103.91 16.3967 103.91 16.3967 103.961 16.3967L103.896 16.2991Z" transform="translate(0 14.740337)" id="Shape" fill="#47474A" fill-rule="evenodd" stroke="none" />
      <path d="M45.0432 17.0569C44.5009 13.4492 43.1634 10.2391 40.8426 7.42308C38.8204 4.93536 36.2031 2.99819 33.2332 1.79102C30.1243 0.507706 26.8094 0.110063 23.4511 0.012458C22.0666 -0.0381505 3.19665 0.258276 1.81213 0.012458C1.46509 -0.0381505 1.21928 0.0630665 1.01684 0.359493C0.771006 0.720991 0.521575 1.10056 0.373376 1.49458C-0.219477 2.83211 -0.219477 2.7309 1.21204 2.9261C2.39774 3.12492 3.53283 3.22253 4.67154 3.56955C5.70905 3.91659 6.45007 4.50943 6.69589 5.64452C6.7935 6.18676 6.89473 23.5746 6.89473 31.6793L6.69589 37.4632C6.6453 37.9078 6.5983 38.3525 6.45007 38.7465C6.25126 39.3393 5.90784 39.831 5.31498 40.084C4.66258 40.3909 3.95912 40.5748 3.23997 40.6263C1.90248 40.7708 1.70728 40.8251 1.26265 42.3072L1.11805 42.8494C1.02044 43.4929 1.06743 43.5905 1.7109 43.5905L16.4815 43.7351L22.2654 43.6375L26.2672 43.1423C30.8112 42.3036 34.8635 40.4238 38.3194 37.4126C40.2936 35.669 41.9052 33.5538 43.0621 31.1877C44.4467 28.4223 45.0395 25.4038 45.1877 22.3455C45.4336 20.6176 45.3323 18.8391 45.0431 17.0605L45.0432 17.0569ZM37.8784 24.0699C37.6796 27.2329 37.0397 30.2948 35.4094 33.0602C33.3344 36.6679 30.3702 39.1875 26.2708 40.0732C24.4923 40.4347 22.7137 40.6154 20.8484 40.3696C19.5109 40.225 18.2312 40.0732 16.9949 39.6285C14.7717 38.8332 13.98 37.4596 13.933 35.2906L13.8824 5.50354C13.8824 3.72498 14.6777 3.33457 15.9574 3.28035C17.8841 3.13575 19.8615 3.18275 21.7883 3.37796C23.8394 3.57633 25.8523 4.06312 27.7674 4.82394C29.1901 5.41693 30.5083 6.23468 31.6716 7.24593C34.3393 9.52335 36.1179 12.3791 37.0939 15.741C37.8892 18.4595 38.0338 21.2249 37.8892 23.9903L37.8784 24.0699ZM86.1016 28.9139C86.1016 28.6174 86.1016 28.3716 86.051 28.0752C85.6064 25.3568 84.1712 23.2818 81.9516 21.7021C80.5201 20.6646 78.8898 19.9741 77.2089 19.4789C76.9124 19.3813 76.6666 19.2801 76.3702 19.2331C76.4208 18.9873 76.569 18.9366 76.7172 18.886C77.7041 18.3908 78.644 17.8485 79.4827 17.1075C81.0154 15.8242 82.0131 14.2408 82.5445 12.3141C82.8409 11.2766 82.8409 10.2391 82.7433 9.15102C82.5801 6.57255 81.2524 4.2085 79.1356 2.72726C76.8582 1.04633 74.194 0.355873 71.4286 0.305264C66.0929 0.20766 60.7103 0.305264 55.3782 0.305264C53.8455 0.305264 52.3164 0.402869 50.733 0.160664C50.4366 0.110055 50.01 0.016063 49.7931 0.359485C49.4316 1.00295 48.9978 1.64279 48.8532 2.38385C48.8026 2.73089 48.9038 2.92609 49.2979 2.9767L52.7067 3.47194C54.0443 3.67076 54.9842 4.41182 55.0782 5.59752C55.1751 6.41694 55.2233 7.24138 55.2227 8.0665L55.1252 17.3027L55.0745 35.5798C55.0745 36.6643 54.9299 37.7054 54.7275 38.7899C54.6281 39.4931 54.126 40.073 53.4442 40.272C52.4573 40.5684 51.5174 40.8648 50.4799 40.8648C49.9088 40.8107 49.3762 41.1587 49.1966 41.7035C48.9978 42.1481 48.8351 42.6434 48.752 43.088C48.6544 43.6809 48.8026 43.8833 49.3954 43.811C49.8401 43.7604 66.1435 44.158 69.2053 43.8616C71.0345 43.6628 72.8203 43.417 74.6385 42.8747C77.7474 41.8879 80.6177 40.4527 82.8878 38.0307C84.7676 36.0534 85.8521 33.682 85.9497 30.9165C86.0943 30.2731 86.0943 29.6332 86.0943 28.9392L86.1016 28.9139ZM62.1418 8.67023L62.2864 4.71911C62.2864 3.97804 62.5828 3.63463 63.3239 3.4828C64.5096 3.23698 65.6953 3.3382 66.881 3.3852C68.0667 3.4828 69.2018 3.63101 70.3875 3.97804C72.5565 4.6215 74.241 5.85781 75.2315 7.92917C75.6809 8.87101 75.9166 9.90049 75.922 10.944C75.9726 12.3285 75.8714 13.6625 75.3291 14.9928C74.4904 16.8219 73.1601 18.0076 71.2297 18.3546C69.2994 18.7017 63.8191 18.5535 62.9805 18.5535C62.2394 18.5535 62.1852 18.4559 62.1852 17.7148L62.1852 13.0624C62.069 11.6156 62.0521 10.1626 62.1345 8.71362L62.1418 8.67023ZM78.1922 35.2472C77.3535 37.4704 75.8208 39.0068 73.6482 39.8382C72.4625 40.2828 71.2768 40.5612 70.0332 40.4817C68.5005 40.4311 66.9714 40.4817 65.4423 40.1852C63.3673 39.7406 62.4274 37.7632 62.2792 36.3317C62.0334 33.8121 62.1816 31.2419 62.1346 29.3657L62.1346 22.8444C62.1346 22.0491 62.2322 21.8069 63.0745 21.8069L67.7197 21.8575L70.8828 22.219C73.106 22.7142 75.1304 23.5565 76.7137 25.2808C77.997 26.6654 78.691 28.3427 78.8393 30.1718C78.9839 31.8998 78.8899 33.5807 78.2464 35.2111L78.1922 35.2472Z" transform="translate(203.54405 0)" id="Shape" fill="#C2BFBF" fill-rule="evenodd" stroke="none" />
      <path d="M97.9564 5.69775L99.2397 5.89657C100.624 5.94718 102.255 5.45194 102.746 3.52518C103.017 2.60485 103.017 1.62585 102.746 0.705528C102.45 0.705522 102.302 0.951339 102.153 1.05256C101.412 1.64541 100.574 1.99244 99.6844 2.09005C97.9058 2.28887 96.1272 2.18765 94.3993 1.54781L91.9773 0.709141C90.2881 0.155931 88.5104 -0.0770033 86.7357 0.0222961C84.2161 0.221125 81.8447 1.05979 79.6215 2.24549C77.2501 3.52879 75.5727 5.45555 74.7775 8.07638C74.3328 9.60911 74.2822 11.1852 74.481 12.7686C74.9763 16.3763 76.8524 18.8959 80.2107 20.2298C80.4095 20.2804 80.5577 20.3744 80.753 20.4286C81.1976 20.6744 81.2482 20.9239 80.8506 21.2673L79.6143 22.1059L76.65 23.9351C75.9089 24.3797 75.8113 24.7304 76.0571 25.5148C76.3511 26.4377 76.8985 27.2593 77.6369 27.8862C78.3148 28.4679 79.0827 28.9355 79.9107 29.2707C80.4529 29.5165 80.4529 29.6322 79.9612 30.066L77.1416 32.0904C76.2017 32.8134 75.2619 33.5364 74.4738 34.4618C73.3607 35.6528 72.9159 37.321 73.2881 38.9081C73.6555 40.623 74.5535 42.1787 75.8547 43.3545C77.1394 44.544 78.7016 45.3929 80.3987 45.8235C83.1641 46.6188 86.0307 46.6622 88.8468 46.1199C92.8955 45.3789 96.4381 43.5895 99.2216 40.5385C101.148 38.5141 102.284 36.1427 102.385 33.3086C102.607 29.9238 100.351 26.8739 97.0491 26.0968L94.3813 25.6016L86.2296 24.8786C85.3403 24.828 84.451 24.6797 83.71 24.2351C82.7701 23.6423 82.5243 22.5072 83.1171 21.7661C83.5618 21.2239 84.104 20.8768 84.7981 20.8262L86.3778 20.6816C89.5019 20.3638 92.4348 19.0275 94.7247 16.8787C95.9474 15.747 96.8215 14.2897 97.2443 12.6782C97.8371 10.5526 97.8371 8.34025 97.3419 6.17128C97.1973 5.62905 97.2443 5.57844 97.9347 5.67604L97.9564 5.69775ZM85.8464 30.3046C86.1428 30.3552 86.4392 30.3046 86.7356 30.3046C88.8106 30.4022 90.9362 30.5504 92.9606 31.0999C93.6215 31.2952 94.2658 31.5431 94.8873 31.841C96.8647 32.9255 97.6057 34.8052 97.3563 36.8296C97.0599 39.0528 95.8236 40.6325 93.8968 41.6736C92.6135 42.3966 91.1784 42.7111 89.6962 42.8593C89.154 42.9099 88.6587 42.8593 88.1165 42.8593C86.3886 42.9099 84.7076 42.7147 83.0773 42.0206C81.9422 41.576 81.0023 40.9362 80.1637 40.0433C78.4357 38.3153 77.6332 35.1523 80.2143 32.582C81.794 31.1361 83.5762 30.113 85.8464 30.3046L85.8464 30.3046ZM91.4784 14.8905C90.4409 17.5077 88.1671 18.2994 85.897 17.9524C83.822 17.656 82.2892 16.5209 81.306 14.6411C80.0227 12.1215 79.6793 9.5079 80.4167 6.78585C80.959 4.76148 82.1953 3.22875 84.3678 2.88172C87.1333 2.38647 89.7903 3.37696 91.1856 6.14239C91.9086 7.47992 92.2231 9.10663 92.2231 11.4274C92.1725 12.3673 91.9773 13.6506 91.482 14.8869L91.4784 14.8905ZM29.2364 11.5286C28.7918 8.86082 27.8049 6.43881 25.9758 4.41445C23.2573 1.39959 19.8015 0.0765221 15.8973 0.0656846C12.4884 0.0150761 9.28199 1.00557 6.41173 2.78412C3.59001 4.47268 1.52173 7.17737 0.631462 10.3429C-0.207201 13.2096 -0.163838 16.1268 0.486855 19.0369C2.2148 26.8451 8.24451 30.1998 15.4527 29.7081C17.5783 29.5636 19.6026 28.8695 21.5258 27.9296C24.3924 26.5921 26.4674 24.4701 27.8989 21.6541C29.034 19.3333 29.5256 16.8607 29.4786 14.0446L29.2328 11.525L29.2364 11.5286ZM22.2235 22.4964C21.5015 24.7677 19.5038 26.3965 17.1337 26.6463C14.9647 26.9427 12.9331 26.4005 11.1076 25.1136C9.78967 24.1441 8.72254 22.8737 7.99511 21.4083C5.97074 17.2583 5.62371 12.9132 6.65759 8.46679C6.99044 7.0907 7.7105 5.83876 8.73257 4.85908C10.5617 3.17814 12.6837 2.78411 15.0587 3.27935C17.3361 3.7746 19.0604 5.0073 20.4811 6.88706C21.9018 8.76682 22.5561 10.9358 22.9501 13.2132C23.1489 14.3483 23.1489 15.534 23.1959 16.2751C23.1959 18.6464 22.9971 20.613 22.256 22.5L22.2235 22.4964ZM137.178 11.9263C136.817 9.05965 135.747 6.44243 133.719 4.26985C131.051 1.35622 127.592 0.119905 123.742 0.0692967C120.43 0.0186882 117.369 0.958569 114.553 2.58891C111.389 4.46868 109.217 7.13288 108.378 10.7406C107.377 14.6765 107.797 18.8397 109.564 22.4964C111.191 25.9559 113.96 28.179 117.618 29.1659C121.667 30.2504 125.524 29.7588 129.276 27.9296C132.537 26.3499 134.858 23.8809 136.192 20.519C136.987 18.5416 137.276 16.4197 137.327 13.9471C137.377 13.5024 137.276 12.7107 137.182 11.9227L137.178 11.9263ZM130.361 21.8565C129.565 24.5243 127.892 26.2523 125.076 26.6499C123.001 26.9463 121.027 26.4511 119.245 25.2654C117.712 24.2279 116.628 22.8434 115.836 21.2167C114.947 19.4887 114.451 17.6596 114.256 15.7834C113.96 13.4627 113.96 11.1925 114.502 8.86807C114.605 8.40973 114.754 7.96287 114.947 7.53417C116.331 4.07467 119.393 2.49494 123.001 3.28662C125.423 3.82886 127.248 5.16639 128.633 7.19075C129.97 9.16812 130.61 11.3407 130.91 13.6976C131.055 14.6375 131.109 15.6244 131.055 16.4631C131.055 18.3898 130.91 20.1684 130.332 21.8963L130.361 21.8565Z" transform="translate(58.258377 14.666803)" id="Shape" fill="#47474A" fill-rule="evenodd" stroke="none" />
    </g>
  </g>
</svg>