<?xml version="1.0" encoding="utf-8"?>
<svg width="426px" height="100px" viewbox="0 0 426 100" version="1.1" xmlns:xlink="http://www.w3.org/1999/xlink" xmlns="http://www.w3.org/2000/svg">
  <defs>
    <path d="M0 0L425 0L425 100L0 100L0 0Z" id="path_1" />
    <clipPath id="mask_1">
      <use xlink:href="#path_1" />
    </clipPath>
  </defs>
  <g id="mysql-horizontal">
    <path d="M0 0L425 0L425 100L0 100L0 0Z" id="Background" fill="none" fill-rule="evenodd" stroke="none" />
    <g clip-path="url(#mask_1)">
      <g id="Group" transform="translate(-0.08810425 -0.39993286)">
        <path d="M94.3066 77.3269C88.7456 77.2021 84.3972 77.743 80.7595 79.2822C79.7142 79.6982 78.0417 79.6982 77.9163 81.0295C78.4599 81.5703 78.5435 82.4856 79.0452 83.2344C80.0025 84.8472 81.2332 86.2829 82.6829 87.4778L87.1568 90.6812C89.8745 92.3452 92.9268 93.3021 95.6028 94.9661C97.1498 95.923 98.655 97.1711 99.784 98.2111C100.537 98.7519 101.038 99.6672 102 100L102 99.792C101.498 99.1679 101.373 98.2527 100.871 97.5871L98.7805 95.5902C96.743 92.9059 94.3034 90.5487 91.547 88.6011C89.331 87.0618 84.439 84.9817 83.5191 82.444L83.3937 82.3192C84.9407 82.1943 86.7386 81.6119 88.202 81.1959C90.5853 80.5719 92.7177 80.6967 95.1846 80.0727L98.5296 79.1158L98.5296 78.4918C97.2752 77.2437 96.3554 75.5796 95.0592 74.4148C91.5052 71.3778 87.6167 68.3825 83.5609 65.8864C81.3867 64.5135 78.6271 63.5983 76.3274 62.4334C75.4912 62.0174 74.1114 61.8094 73.6096 61.1022C72.3553 59.5629 71.6445 57.566 70.7664 55.7771L65.0382 43.7125C63.7838 41.0084 63.0312 38.3043 61.4842 35.8082C55.0268 24.8818 45.7046 15.9085 34.5154 9.84856C31.9231 8.39248 28.8708 7.76845 25.6095 7.01962L20.383 6.7284C19.2541 6.22918 18.167 4.93952 17.1635 4.31549C13.1913 1.81938 2.94738 -3.58888 0.438668 3.56666C-1.44287 8.05967 3.24007 12.5111 4.82893 14.7992C5.99966 16.3801 7.54671 18.2105 8.38295 19.9994C8.88469 21.1643 9.01012 22.4123 9.51187 23.6604L13.1495 32.9376C13.9044 34.4286 14.7709 35.861 15.7419 37.2226C16.2854 37.9715 17.2889 38.3459 17.498 39.5939C16.5363 40.9668 16.4527 43.0469 15.9091 44.7942C13.4004 52.6154 14.3621 62.3502 17.9161 68.0913C19.045 69.8386 22.0973 73.6243 25.2332 72.1683C28.3691 70.9202 27.6583 66.968 28.5781 63.5151C28.7872 62.683 28.6618 62.1422 29.0799 61.5598L29.0799 61.6846L31.9231 67.4257C34.0973 70.837 37.8604 74.3732 40.9963 76.7029C42.6688 77.951 44.0068 80.1143 46.0974 80.8631L46.0974 80.6551L45.8047 80.6551C45.3866 80.031 44.7594 79.7398 44.2158 79.2822C42.8911 77.9967 41.6744 76.6053 40.5782 75.122C37.6261 71.1425 35.0108 66.9263 32.7593 62.5166C31.6304 60.3533 30.6687 58.0236 29.7489 55.8603C29.3308 55.0283 29.3308 53.7802 28.6199 53.3642C27.5746 54.9035 26.0276 56.1931 25.275 58.0652C23.937 61.0606 23.8116 64.7215 23.3098 68.5489C20.8011 68.1329 20.0485 65.8448 19.2122 63.8895C17.1216 58.9805 16.7872 50.9929 18.5851 45.3766C19.0868 43.9206 21.1774 39.3443 20.3412 37.9715C19.9231 36.6402 18.5433 35.8914 17.7488 34.8513C16.829 33.5201 15.8673 31.856 15.2401 30.3999C14.0276 26.4893 12.7732 22.1627 10.9753 18.2938C10.139 16.5049 8.67563 14.6744 7.46308 13.0103C6.16691 11.0966 4.70349 9.76536 3.65819 7.60206C3.28188 6.77002 2.82195 5.52196 3.3655 4.68992C3.49094 4.14909 3.78362 3.94108 4.32718 3.77468C5.24704 3.02584 7.79757 3.98269 8.71744 4.39871C11.3098 5.43875 13.4422 6.3956 15.6164 7.85167C16.5781 8.5589 17.6234 9.84856 18.8777 10.223L20.3412 10.223C22.5572 10.7222 25.0659 10.3478 27.1565 10.9718C30.836 12.1367 34.1809 13.884 37.1914 15.756C46.4185 21.6087 53.9209 29.7911 58.9336 39.4692C59.7699 41.05 60.1044 42.5061 60.8988 44.1702L65.6235 54.3626C67.087 57.6076 68.4668 60.9358 70.5574 63.6399C71.6027 65.096 75.7839 65.8448 77.6654 66.6352C79.0452 67.2593 81.2194 67.8001 82.4738 68.5905L89.4564 73.2915C90.5853 74.1236 93.6376 75.8709 94.2648 77.2437L94.3066 77.3269Z" id="Shape" fill="#00678C" fill-rule="evenodd" stroke="none" />
      </g>
      <path d="M0 49.6325L30.4039 49.6325C33.9659 49.6325 37.3582 48.8975 40.1145 47.5789C44.7153 45.4172 46.8992 42.5421 46.8992 38.7592L46.8992 30.8474C46.8992 27.821 44.3973 24.9027 39.3936 22.9356C36.5144 21.8936 33.4802 21.367 30.4251 21.3792L17.6614 21.3792C13.3785 21.3792 11.3643 20.0821 10.7919 17.1855C10.7071 16.8612 10.7071 16.537 10.7071 16.1911L10.7071 11.3273C10.7071 11.0679 10.7071 10.7436 10.7919 10.4194C11.3643 8.19282 12.488 7.60916 16.2196 7.17683L47.3444 7.17683L47.3444 0L17.725 0C13.4421 0 11.1523 0.259403 9.15929 0.907913C2.92587 2.85344 0.190775 6.00951 0.190775 11.5435L0.190775 17.8124C0.190775 22.6762 5.53371 26.805 14.6082 27.7562C15.5835 27.8426 16.6225 27.8426 17.6826 27.8426L28.6017 27.8426C29.0257 27.8426 29.4074 27.8426 29.7254 27.9291C33.0329 28.2533 34.4959 28.837 35.45 30.0908C36.0861 30.7393 36.2557 31.3229 36.2557 32.0795L36.2557 38.3485C36.2557 39.0834 35.768 40.0778 34.7715 40.8993C33.775 41.7207 32.2697 42.3044 30.2343 42.4124C29.8102 42.4124 29.5982 42.4989 29.1742 42.4989L0 42.4989L0 49.6325ZM112.689 37.1811C112.689 44.5309 118.117 48.6381 128.951 49.4596L132.026 49.6325L159.504 49.6325L159.504 42.4989L131.793 42.4989C125.432 42.4989 123.312 40.9425 123.312 37.1379L123.312 0.0216064L112.711 0.0216064L112.711 37.2028L112.689 37.1811ZM53.599 37.5054L53.599 11.9758C53.599 5.4907 58.1151 1.51318 66.9564 0.302636L69.7763 0.1297L89.8335 0.1297C90.8936 0.1297 91.7841 0.216166 92.8018 0.302636C101.622 1.5348 106.053 5.4907 106.053 11.9758L106.053 37.527C106.053 42.8016 104.187 45.6118 99.8197 47.4708L110.166 57.0255L97.9539 57.0255L89.5367 49.2866L81.0558 49.7838L69.7339 49.7838C67.8681 49.7838 65.7691 49.5677 63.3732 48.9624C56.6733 47.0601 53.3446 43.4284 53.3446 37.5054L53.599 37.5054ZM65.0058 36.9433C65.0058 37.2676 65.1754 37.5919 65.2602 38.0242C65.8327 40.9857 68.5678 42.6286 72.7658 42.6286L82.3067 42.6286L73.5715 34.5439L85.7839 34.5439L93.4591 41.6342C94.9432 40.8128 95.7913 39.6455 96.1306 38.1755C96.2154 37.8513 96.2154 37.4405 96.2154 37.0947L96.2154 12.6675C96.2154 12.3433 96.2154 12.019 96.1306 11.6731C95.5581 8.86294 92.823 7.30652 88.7098 7.30652L72.8082 7.30652C68.1437 7.30652 65.0482 9.36013 65.0482 12.6675L65.0058 36.9433Z" transform="translate(247.33813 22.568085)" id="Shape" fill="#CE8B2C" fill-rule="evenodd" stroke="none" />
      <path d="M0 50.6467L10.5163 50.6467L10.5163 8.19101L26.9267 45.1992C28.7925 49.6523 31.464 51.2952 36.6373 51.2952C41.8106 51.2952 44.3125 49.6523 46.2631 45.1992L62.5888 8.19101L62.5888 50.6467L73.1898 50.6467L73.1898 8.19101C73.1898 4.08379 71.5785 2.09503 68.1861 1.01418C60.1929 -1.45015 54.8288 0.689931 52.4117 6.20225L36.2981 42.7997L20.7781 6.20225C18.4459 0.689933 13.0181 -1.45014 4.94012 1.01419C1.63258 2.09503 1.5165e-05 4.04056 1.5165e-05 8.19101L0 50.6467ZM81.9039 16.1028L92.505 16.1028L92.505 39.4491C92.4202 40.7461 92.929 43.7293 98.8656 43.8157L121.594 43.8157L121.594 15.9299L132.195 15.9299L132.195 54.0838C132.195 63.4871 120.789 65.5408 115.446 65.6272L82.1583 65.6272L82.1583 58.4504L115.552 58.4504C122.336 57.7154 121.531 54.2567 121.531 53.0894L121.531 50.2792L99.12 50.2792C88.6886 50.1927 81.9887 45.5235 81.9039 40.1192L81.9039 16.1028Z" transform="translate(107.001114 21.597137)" id="Shape" fill="#00678C" fill-rule="evenodd" stroke="none" />
    </g>
  </g>
</svg>