<?xml version="1.0" encoding="utf-8"?>
<svg width="1422px" height="500px" viewbox="0 0 1422 500" version="1.1" xmlns:xlink="http://www.w3.org/1999/xlink" xmlns="http://www.w3.org/2000/svg">
  <defs>
    <path d="M0 0L500 0L500 500L0 500L0 0Z" id="path_1" />
    <clipPath id="mask_1">
      <use xlink:href="#path_1" />
    </clipPath>
  </defs>
  <g id="numpy">
    <path d="M0 0L500 0L500 500L0 500L0 0Z" id="Background" fill="none" fill-rule="evenodd" stroke="none" />
    <g clip-path="url(#mask_1)">
      <g id="Layer_1" transform="translate(56.369995 43.050003)">
        <path d="M145.06 34.91L75.9 0L0 37.88L71.03 73.55L145.06 34.91L145.06 34.91Z" transform="translate(19.5 49.180008)" id="Polygon" fill="#4DABCF" fill-rule="evenodd" stroke="none" />
        <path d="M73.86 0L146.37 36.6L71.14 74.38L0 38.65L73.86 0L73.86 0Z" transform="translate(122.40001 100.09)" id="Polygon" fill="#4DABCF" fill-rule="evenodd" stroke="none" />
        <path d="M64.79 0L139.28 37.35L72.66 70.81L0 34.16L64.79 0L64.79 0Z" transform="translate(228.31 49.710007)" id="Polygon" fill="#4DABCF" fill-rule="evenodd" stroke="none" />
        <path d="M133.4 33.62L66.34 0L0 33.1L69.1 67.95L133.4 33.62L133.4 33.62Z" transform="translate(127.64 0)" id="Polygon" fill="#4DABCF" fill-rule="evenodd" stroke="none" />
        <path d="M0 40.58L0 132.09L81.24 91.55L81.15 0L0 40.58L0 40.58Z" transform="translate(208.61002 281.81)" id="Polygon" fill="#4DABCF" fill-rule="evenodd" stroke="none" />
        <path d="M81.12 90.59L81.03 0L0 40.28L0 130.9L81.12 90.59L81.12 90.59Z" transform="translate(208.61002 159.27)" id="Polygon" fill="#4DABCF" fill-rule="evenodd" stroke="none" />
        <path d="M69.34 0L69.34 91.87L0.0499878 126.45L0 35L69.34 0L69.34 0Z" transform="translate(317.92 232.87999)" id="Polygon" fill="#4DABCF" fill-rule="evenodd" stroke="none" />
        <path d="M69.42 90.02L69.42 0L0 34.51L0.0599976 125.28L69.42 90.02L69.42 90.02Z" transform="translate(317.84 110.73999)" id="Polygon" fill="#4DABCF" fill-rule="evenodd" stroke="none" />
        <path d="M179.93 91.79L125.21 64.28L125.21 183.19C125.21 183.19 58.29 40.8 52.09 28.01C51.29 26.36 48 24.55 47.16 24.11C35.16 17.81 0 0 0 0L0 210.08L48.64 236.08L48.64 126.27C48.64 126.27 114.85 253.5 115.52 254.89C116.19 256.28 122.84 269.69 129.94 274.4C139.4 280.66 179.94 305.04 179.94 305.04L179.93 91.79Z" transform="translate(0 107.76001)" id="Shape" fill="#4D77CF" fill-rule="evenodd" stroke="none" />
      </g>
    </g>
  </g>
  <g id="NumPy" fill="#013243" transform="translate(464 77)">
    <path d="M41.328 68.888Q43.92 68.888 45.648 69.104Q47.376 69.32 48.744 69.968Q50.112 70.616 51.408 71.84Q52.704 73.064 54.288 75.08L163.584 214.328Q163.008 209.288 162.792 204.464Q162.576 199.64 162.576 195.464L162.576 68.888L196.704 68.888L196.704 277.112L176.688 277.112C173.616 277.112 171.072 276.632 169.056 275.672Q166.032 274.232 163.152 270.488L54.288 131.816Q54.72 136.424 54.936 140.96Q55.152 145.496 55.152 149.24L55.152 277.112L21.024 277.112L21.024 68.888L41.328 68.888ZM685.008 203.816L685.008 277.112L646.272 277.112L646.272 68.888L714.096 68.888Q734.976 68.888 750.24 73.784Q765.504 78.68 775.44 87.464Q785.376 96.248 790.128 108.488Q794.88 120.728 794.88 135.272Q794.88 150.392 789.84 162.992Q784.8 175.592 774.72 184.664Q764.64 193.736 749.52 198.776Q734.4 203.816 714.096 203.816L685.008 203.816ZM685.008 173.576L714.096 173.576Q724.752 173.576 732.672 170.912Q740.592 168.248 745.776 163.28Q750.96 158.312 753.552 151.184Q756.144 144.056 756.144 135.272Q756.144 126.92 753.552 120.152Q750.96 113.384 745.776 108.632Q740.592 103.88 732.672 101.36Q724.752 98.84 714.096 98.84L685.008 98.84L685.008 173.576ZM400.464 129.368L400.464 277.112L436.032 277.112L436.032 168.968Q441.792 162.344 448.488 158.528Q455.184 154.712 462.816 154.712Q474.48 154.712 480.456 161.48Q486.432 168.248 486.432 183.08L486.432 277.112L522.144 277.112L522.144 183.08Q522.144 176.168 524.16 170.84Q526.176 165.512 529.704 161.984Q533.232 158.456 537.912 156.584Q542.592 154.712 548.064 154.712Q560.016 154.712 566.208 161.84Q572.4 168.968 572.4 183.08L572.4 277.112L607.968 277.112L607.968 183.08Q607.968 169.688 604.584 159.32Q601.2 148.952 594.72 141.752Q588.24 134.552 578.736 130.808Q569.232 127.064 556.992 127.064Q549.936 127.064 542.952 128.648Q535.968 130.232 529.776 133.544Q523.584 136.856 518.4 142.112Q513.216 147.368 509.76 154.712Q505.296 142.184 496.296 134.624Q487.296 127.064 473.328 127.064Q466.704 127.064 461.16 128.576Q455.616 130.088 450.792 132.68Q445.968 135.272 441.72 138.872Q437.472 142.472 433.584 146.792L431.28 135.848Q429.12 129.368 422.208 129.368L400.464 129.368ZM269.28 129.368L269.28 223.256Q269.28 236.792 275.544 244.208Q281.808 251.624 294.336 251.624Q303.552 251.624 311.616 247.52Q319.68 243.416 326.88 236.216L326.88 129.368L362.448 129.368L362.448 277.112L340.704 277.112Q333.792 277.112 331.632 270.632L329.184 258.824Q324.576 263.432 319.68 267.248Q314.784 271.064 309.24 273.728Q303.696 276.392 297.288 277.904Q290.88 279.416 283.536 279.416Q271.44 279.416 262.152 275.312Q252.864 271.208 246.528 263.72Q240.192 256.232 236.952 245.936Q233.712 235.64 233.712 223.256L233.712 129.368L269.28 129.368ZM871.272 323.408Q873.792 321.464 875.376 317.72L955.872 129.368L927.36 129.368Q924.048 129.368 921.384 131.24Q918.72 133.112 917.568 135.992L887.904 212.456Q886.32 216.488 884.952 220.376Q883.584 224.264 882.432 228.44Q881.568 224.408 880.416 220.376Q879.264 216.344 877.68 212.6L846.144 135.992Q844.992 133.4 842.688 131.384Q840.384 129.368 836.064 129.368L804.96 129.368L864.72 266.168L837.072 325.352L863.568 325.352Q868.752 325.352 871.272 323.408Z" />
  </g>
</svg>