<?xml version="1.0" encoding="utf-8"?>
<svg width="294px" height="100px" viewbox="0 0 294 100" version="1.1" xmlns:xlink="http://www.w3.org/1999/xlink" xmlns="http://www.w3.org/2000/svg">
  <defs>
    <path d="M0 0L293.8 0L293.8 100L0 100L0 0Z" id="path_1" />
    <path d="M0 0L100 0L100 100L0 100L0 0L0 0Z" id="path_2" />
    <clipPath id="mask_1">
      <use xlink:href="#path_1" />
    </clipPath>
    <clipPath id="mask_2">
      <use xlink:href="#path_2" />
    </clipPath>
  </defs>
  <g id="numpy">
    <path d="M0 0L293.8 0L293.8 100L0 100L0 0Z" id="Background" fill="none" fill-rule="evenodd" stroke="none" />
    <g clip-path="url(#mask_1)">
      <g id="numpy">
        <path d="M0 0L100 0L100 100L0 100L0 0L0 0Z" id="Background" fill="none" fill-rule="evenodd" stroke="none" />
        <g id="Mask-group">
          <path d="M0 0L100 0L100 100L0 100L0 0L0 0Z" id="path_1" fill="none" fill-rule="evenodd" stroke="none" />
          <g clip-path="url(#mask_2)">
            <g id="Group" transform="translate(11.273999 8.610001)">
              <g id="Layer_1">
                <path d="M29.012 6.982L15.18 0L0 7.576L14.206 14.71L29.012 6.982L29.012 6.982L29.012 6.982Z" transform="translate(3.9 9.836001)" id="Polygon" fill="#4DABCF" fill-rule="evenodd" stroke="none" />
                <path d="M14.772 0L29.274 7.32L14.228 14.876L0 7.73L14.772 0L14.772 0L14.772 0Z" transform="translate(24.480001 20.018)" id="Polygon#1" fill="#4DABCF" fill-rule="evenodd" stroke="none" />
                <path d="M12.958 0L27.856 7.47L14.532 14.162L0 6.832L12.958 0L12.958 0L12.958 0Z" transform="translate(45.662 9.942001)" id="Polygon#2" fill="#4DABCF" fill-rule="evenodd" stroke="none" />
                <path d="M26.68 6.724L13.268 0L0 6.62L13.82 13.59L26.68 6.724L26.68 6.724L26.68 6.724Z" transform="translate(25.528 0)" id="Polygon#3" fill="#4DABCF" fill-rule="evenodd" stroke="none" />
                <path d="M0 8.116L0 26.418L16.248 18.31L16.23 0L0 8.116L0 8.116L0 8.116Z" transform="translate(41.722004 56.362)" id="Polygon#4" fill="#4DABCF" fill-rule="evenodd" stroke="none" />
                <path d="M16.224 18.118L16.206 0L0 8.056L0 26.18L16.224 18.118L16.224 18.118L16.224 18.118Z" transform="translate(41.722004 31.854002)" id="Polygon#5" fill="#4DABCF" fill-rule="evenodd" stroke="none" />
                <path d="M13.868 0L13.868 18.374L0.00999756 25.29L0 7L13.868 0L13.868 0L13.868 0Z" transform="translate(63.584003 46.576)" id="Polygon#6" fill="#4DABCF" fill-rule="evenodd" stroke="none" />
                <path d="M13.884 18.004L13.884 0L0 6.902L0.0119995 25.056L13.884 18.004L13.884 18.004L13.884 18.004Z" transform="translate(63.568 22.147999)" id="Polygon#7" fill="#4DABCF" fill-rule="evenodd" stroke="none" />
                <path d="M35.986 18.358L25.042 12.856L25.042 36.638C25.042 36.638 11.658 8.16 10.418 5.602C10.258 5.272 9.6 4.91 9.432 4.822C7.032 3.562 0 0 0 0L0 42.016L9.728 47.216L9.728 25.254C9.728 25.254 22.97 50.7 23.104 50.978C23.238 51.256 24.568 53.938 25.988 54.88C27.88 56.132 35.988 61.008 35.988 61.008L35.986 18.358L35.986 18.358Z" transform="translate(0 21.552002)" id="Shape" fill="#4D77CF" fill-rule="evenodd" stroke="none" />
              </g>
            </g>
          </g>
        </g>
      </g>
      <g id="NumPy" transform="translate(102.80481 29.1776)">
        <path d="M4.0608 0C4.4064 0 4.6944 0.0143982 4.9248 0.0432007C5.1552 0.0720001 5.3616 0.129602 5.54401 0.216C5.7264 0.302399 5.904 0.427197 6.07681 0.590399C6.2496 0.753601 6.4416 0.969598 6.65281 1.2384L28.512 29.088C28.4352 28.416 28.3824 27.7584 28.3536 27.1152C28.3248 26.472 28.3104 25.872 28.3104 25.3152L28.3104 0L35.136 0L35.136 41.6448L31.1328 41.6448C30.5184 41.6448 30.0096 41.5488 29.6064 41.3568C29.2032 41.1648 28.8096 40.8192 28.4256 40.32L6.65281 12.5856C6.7104 13.2 6.7536 13.8096 6.7824 14.4144C6.81121 15.0192 6.8256 15.5712 6.8256 16.0704L6.8256 41.6448L0 41.6448L0 0L4.0608 0L4.0608 0ZM132.797 26.9856L132.797 41.6448L125.05 41.6448L125.05 0L138.614 0C141.398 0 143.808 0.326398 145.843 0.979199C147.878 1.632 149.558 2.544 150.883 3.7152C152.208 4.8864 153.187 6.288 153.821 7.92C154.454 9.552 154.771 11.3376 154.771 13.2768C154.771 15.2928 154.435 17.1408 153.763 18.8208C153.091 20.5008 152.083 21.9456 150.739 23.1552C149.395 24.3648 147.715 25.3056 145.699 25.9776C143.683 26.6496 141.322 26.9856 138.614 26.9856L132.797 26.9856L132.797 26.9856ZM132.797 20.9376L138.614 20.9376C140.035 20.9376 141.274 20.76 142.33 20.4048C143.386 20.0496 144.259 19.5408 144.95 18.8784C145.642 18.216 146.16 17.4096 146.506 16.4592C146.851 15.5088 147.024 14.448 147.024 13.2768C147.024 12.1632 146.851 11.1552 146.506 10.2528C146.16 9.3504 145.642 8.5824 144.95 7.9488C144.259 7.3152 143.386 6.8304 142.33 6.4944C141.274 6.1584 140.035 5.9904 138.614 5.9904L132.797 5.9904L132.797 20.9376L132.797 20.9376ZM75.888 12.096L75.888 41.6448L83.0016 41.6448L83.0016 20.016C83.7696 19.1328 84.6 18.4368 85.4928 17.928C86.3856 17.4192 87.3408 17.1648 88.3584 17.1648C89.9136 17.1648 91.0896 17.616 91.8864 18.5184C92.6832 19.4208 93.0816 20.8608 93.0816 22.8384L93.0816 41.6448L100.224 41.6448L100.224 22.8384C100.224 21.9168 100.358 21.1008 100.627 20.3904C100.896 19.68 101.266 19.0896 101.736 18.6192C102.206 18.1488 102.754 17.7888 103.378 17.5392C104.002 17.2896 104.678 17.1648 105.408 17.1648C107.002 17.1648 108.211 17.64 109.037 18.5904C109.862 19.5408 110.275 20.9568 110.275 22.8384L110.275 41.6448L117.389 41.6448L117.389 22.8384C117.389 21.0528 117.163 19.4688 116.712 18.0864C116.261 16.704 115.603 15.5328 114.739 14.5728C113.875 13.6128 112.81 12.8832 111.542 12.384C110.275 11.8848 108.826 11.6352 107.194 11.6352C106.253 11.6352 105.317 11.7408 104.386 11.952C103.454 12.1632 102.576 12.4896 101.75 12.9312C100.925 13.3728 100.166 13.944 99.4752 14.6448C98.784 15.3456 98.208 16.1856 97.7472 17.1648C97.152 15.4944 96.2544 14.1552 95.0544 13.1472C93.8544 12.1392 92.3232 11.6352 90.4608 11.6352C89.5776 11.6352 88.7664 11.736 88.0272 11.9376C87.288 12.1392 86.5968 12.4128 85.9536 12.7584C85.3104 13.104 84.7056 13.5168 84.1392 13.9968C83.5728 14.4768 83.0304 15.0048 82.512 15.5808L82.0512 13.392C81.7632 12.528 81.1584 12.096 80.2368 12.096L75.888 12.096L75.888 12.096ZM49.6512 12.096L49.6512 30.8736C49.6512 32.6784 50.0688 34.0752 50.904 35.064C51.7392 36.0528 52.992 36.5472 54.6624 36.5472C55.8912 36.5472 57.0432 36.2736 58.1184 35.7264C59.1936 35.1792 60.2112 34.4256 61.1712 33.4656L61.1712 12.096L68.2848 12.096L68.2848 41.6448L63.936 41.6448C63.0144 41.6448 62.4096 41.2128 62.1216 40.3488L61.632 37.9872C61.0176 38.6016 60.384 39.1632 59.7312 39.672C59.0784 40.1808 58.3824 40.6128 57.6432 40.968C56.904 41.3232 56.1072 41.6016 55.2528 41.8032C54.3984 42.0048 53.4816 42.1056 52.5024 42.1056C50.8896 42.1056 49.464 41.832 48.2256 41.2848C46.9872 40.7376 45.9456 39.9648 45.1008 38.9664C44.256 37.968 43.6176 36.7824 43.1856 35.4096C42.7536 34.0368 42.5376 32.5248 42.5376 30.8736L42.5376 12.096L49.6512 12.096L49.6512 12.096ZM170.05 50.904C170.386 50.6448 170.659 50.2656 170.87 49.7664L186.97 12.096L181.267 12.096C180.826 12.096 180.427 12.2208 180.072 12.4704C179.717 12.72 179.462 13.0368 179.309 13.4208L173.376 28.7136C173.165 29.2512 172.968 29.7792 172.786 30.2976C172.603 30.816 172.435 31.3536 172.282 31.9104C172.166 31.3728 172.032 30.8352 171.878 30.2976C171.725 29.76 171.542 29.2416 171.331 28.7424L165.024 13.4208C164.87 13.0752 164.64 12.768 164.333 12.4992C164.026 12.2304 163.584 12.096 163.008 12.096L156.787 12.096L168.739 39.456L163.21 51.2928L168.509 51.2928C169.2 51.2928 169.714 51.1632 170.05 50.904L170.05 50.904Z" id="Shape" fill="#013243" fill-rule="evenodd" stroke="none" />
      </g>
    </g>
  </g>
</svg>