<?xml version="1.0" encoding="utf-8"?>
<svg width="341px" height="100px" viewbox="0 0 341 100" version="1.1" xmlns:xlink="http://www.w3.org/1999/xlink" xmlns="http://www.w3.org/2000/svg">
  <defs>
    <path d="M0 0L340.964 0L340.964 100L0 100L0 0Z" id="path_1" />
    <path d="M0 0L340.361 0L340.361 99.759L0 99.759L0 0Z" id="path_2" />
    <path d="M0 0L354.217 0L354.217 120.482L0 120.482L0 0L0 0Z" id="path_3" />
    <path d="M0 0L353.976 0L353.976 120.482L0 120.482L0 0L0 0L0 0Z" id="path_4" />
    <path d="M0 0L120.482 0L120.482 120.482L0 120.482L0 0L0 0L0 0L0 0Z" id="path_5" />
    <clipPath id="mask_1">
      <use xlink:href="#path_1" />
    </clipPath>
    <clipPath id="mask_2">
      <use xlink:href="#path_2" />
    </clipPath>
    <clipPath id="mask_3">
      <use xlink:href="#path_3" />
    </clipPath>
    <clipPath id="mask_4">
      <use xlink:href="#path_4" />
    </clipPath>
    <clipPath id="mask_5">
      <use xlink:href="#path_5" />
    </clipPath>
  </defs>
  <g id="svg">
    <path d="M0 0L340.964 0L340.964 100L0 100L0 0Z" id="Background" fill="none" fill-rule="evenodd" stroke="none" />
    <g clip-path="url(#mask_1)">
      <g id="Mask-group">
        <path d="M0 0L340.361 0L340.361 99.759L0 99.759L0 0Z" id="slice_1" fill="none" fill-rule="evenodd" stroke="none" />
        <g clip-path="url(#mask_2)">
          <g id="Slice" transform="translate(-13.855422 -10.361446)">
            <path d="M0 0L340.361 0L340.361 99.759L0 99.759L0 0Z" transform="translate(13.855422 10.361446)" id="slice_1" fill="none" fill-rule="evenodd" stroke="none" />
            <path d="M0 0L354.217 0L354.217 120.482L0 120.482L0 0L0 0Z" id="Background" fill="none" fill-rule="evenodd" stroke="none" />
            <g id="Mask-group">
              <path d="M0 0L354.217 0L354.217 120.482L0 120.482L0 0L0 0Z" id="path_1" fill="none" fill-rule="evenodd" stroke="none" />
              <g clip-path="url(#mask_3)">
                <g id="Group">
                  <g id="numpy">
                    <path d="M0 0L353.976 0L353.976 120.482L0 120.482L0 0L0 0L0 0Z" id="Background#1" fill="none" fill-rule="evenodd" stroke="none" />
                    <g id="Mask-group">
                      <path d="M0 0L353.976 0L353.976 120.482L0 120.482L0 0L0 0L0 0Z" id="path_1#1" fill="none" fill-rule="evenodd" stroke="none" />
                      <g id="Mask-group">
                        <path d="M0 0L353.976 0L353.976 120.482L0 120.482L0 0L0 0L0 0Z" id="path_2" fill="none" fill-rule="evenodd" stroke="none" />
                        <g clip-path="url(#mask_4)">
                          <g id="Group">
                            <g id="Group">
                              <g id="numpy#1">
                                <path d="M0 0L120.482 0L120.482 120.482L0 120.482L0 0L0 0L0 0L0 0Z" id="Background#2" fill="none" fill-rule="evenodd" stroke="none" />
                                <g id="Mask-group#1">
                                  <path d="M0 0L120.482 0L120.482 120.482L0 120.482L0 0L0 0L0 0L0 0Z" id="path_1#2" fill="none" fill-rule="evenodd" stroke="none" />
                                  <g id="Mask-group#2">
                                    <path d="M0 0L120.482 0L120.482 120.482L0 120.482L0 0L0 0L0 0L0 0Z" id="path_2#1" fill="none" fill-rule="evenodd" stroke="none" />
                                    <g id="Mask-group">
                                      <path d="M0 0L120.482 0L120.482 120.482L0 120.482L0 0L0 0L0 0L0 0Z" id="path_3" fill="none" fill-rule="evenodd" stroke="none" />
                                      <g clip-path="url(#mask_5)">
                                        <g id="Group" transform="translate(13.583132 10.373495)">
                                          <g id="Group#1">
                                            <g id="Group#2">
                                              <g id="Layer_1">
                                                <path d="M34.9542 8.41205L18.2892 0L0 9.12771L17.1157 17.7229L34.9542 8.41205L34.9542 8.41205L34.9542 8.41205L34.9542 8.41205L34.9542 8.41205Z" transform="translate(4.6987963 11.850606)" id="Polygon" fill="#4DABCF" fill-rule="evenodd" stroke="none" />
                                                <path d="M17.7976 0L35.2699 8.81928L17.1422 17.9229L0 9.31325L17.7976 0L17.7976 0L17.7976 0L17.7976 0L17.7976 0Z" transform="translate(29.49398 24.118073)" id="Polygon#1" fill="#4DABCF" fill-rule="evenodd" stroke="none" />
                                                <path d="M15.6121 0L33.5615 9L17.5084 17.0627L0 8.23132L15.6121 0L15.6121 0L15.6121 0L15.6121 0L15.6121 0Z" transform="translate(55.014458 11.978315)" id="Polygon#2" fill="#4DABCF" fill-rule="evenodd" stroke="none" />
                                                <path d="M32.1446 8.1012L15.9855 0L0 7.9759L16.6506 16.3735L32.1446 8.1012L32.1446 8.1012L32.1446 8.1012L32.1446 8.1012L32.1446 8.1012Z" transform="translate(30.756628 0)" id="Polygon#3" fill="#4DABCF" fill-rule="evenodd" stroke="none" />
                                                <path d="M0 9.77831L0 31.8289L19.5759 22.0602L19.5542 0L0 9.77831L0 9.77831L0 9.77831L0 9.77831L0 9.77831Z" transform="translate(50.267475 67.90603)" id="Polygon#4" fill="#4DABCF" fill-rule="evenodd" stroke="none" />
                                                <path d="M19.547 21.8289L19.5253 0L0 9.70603L0 31.5422L19.547 21.8289L19.547 21.8289L19.547 21.8289L19.547 21.8289L19.547 21.8289Z" transform="translate(50.267475 38.37832)" id="Polygon#5" fill="#4DABCF" fill-rule="evenodd" stroke="none" />
                                                <path d="M16.7084 0L16.7084 22.1373L0.0120416 30.4699L0 8.43373L16.7084 0L16.7084 0L16.7084 0L16.7084 0L16.7084 0Z" transform="translate(76.60724 56.11566)" id="Polygon#6" fill="#4DABCF" fill-rule="evenodd" stroke="none" />
                                                <path d="M16.7277 21.6916L16.7277 0L0 8.31566L0.0144591 30.188L16.7277 21.6916L16.7277 21.6916L16.7277 21.6916L16.7277 21.6916L16.7277 21.6916Z" transform="translate(76.58796 26.684338)" id="Polygon#7" fill="#4DABCF" fill-rule="evenodd" stroke="none" />
                                                <path d="M43.3566 22.1181L30.1711 15.4892L30.1711 44.1422C30.1711 44.1422 14.0458 9.83133 12.5518 6.7494C12.359 6.35181 11.5663 5.91566 11.3639 5.80964C8.47229 4.29157 0 2.29801e-06 0 2.29801e-06L0 50.6217L11.7205 56.8867L11.7205 30.4265C11.7205 30.4265 27.6747 61.0843 27.8361 61.4193C27.9976 61.7542 29.6 64.9855 31.3108 66.1205C33.5904 67.6289 43.359 73.5036 43.359 73.5036L43.3566 22.1181L43.3566 22.1181L43.3566 22.1181L43.3566 22.1181Z" transform="translate(0 25.966267)" id="Shape" fill="#4D77CF" fill-rule="evenodd" stroke="none" />
                                              </g>
                                            </g>
                                          </g>
                                        </g>
                                      </g>
                                    </g>
                                  </g>
                                </g>
                              </g>
                              <g id="NumPy" transform="translate(123.86122 35.153736)">
                                <path d="M4.89253 0C5.30892 0 5.6559 0.0173477 5.93349 0.0520499C6.21108 0.0867476 6.45976 0.156148 6.67953 0.26024C6.89928 0.364336 7.11325 0.514695 7.32146 0.711324C7.52964 0.907953 7.76096 1.16819 8.01543 1.49205L34.3518 35.0458C34.2593 34.2361 34.1957 33.4439 34.161 32.6689C34.1263 31.894 34.1089 31.1711 34.1089 30.5002L34.1089 0L42.3325 0L42.3325 50.1745L37.5094 50.1745C36.7692 50.1745 36.1561 50.0588 35.6704 49.8275C35.1846 49.5961 34.7104 49.1798 34.2477 48.5783L8.01543 15.1634C8.08482 15.9036 8.13687 16.6381 8.17157 17.3667C8.20628 18.0954 8.22361 18.7605 8.22361 19.3619L8.22361 50.1745L0 50.1745L0 0L4.89253 0L4.89253 0L4.89253 0L4.89253 0ZM159.996 32.5128L159.996 50.1745L150.663 50.1745L150.663 0L167.005 0C170.359 0 173.263 0.393252 175.714 1.17976C178.166 1.96627 180.19 3.06506 181.787 4.47615C183.383 5.88723 184.563 7.5759 185.327 9.54217C186.089 11.5084 186.471 13.6598 186.471 15.9961C186.471 18.4251 186.066 20.6516 185.257 22.6757C184.447 24.6998 183.233 26.4405 181.613 27.8978C179.994 29.3552 177.97 30.4887 175.541 31.2983C173.112 32.108 170.267 32.5128 167.005 32.5128L159.996 32.5128L159.996 32.5128L159.996 32.5128L159.996 32.5128ZM159.996 25.226L167.005 25.226C168.717 25.226 170.21 25.012 171.482 24.5841C172.754 24.1561 173.806 23.5431 174.639 22.7451C175.472 21.947 176.096 20.9754 176.513 19.8304C176.929 18.6853 177.137 17.4072 177.137 15.9961C177.137 14.6545 176.929 13.44 176.513 12.3528C176.096 11.2655 175.472 10.3402 174.639 9.57687C173.806 8.81349 172.754 8.2294 171.482 7.82458C170.21 7.41976 168.717 7.21735 167.005 7.21735L159.996 7.21735L159.996 25.226L159.996 25.226L159.996 25.226L159.996 25.226ZM91.4313 14.5735L91.4313 50.1745L100.002 50.1745L100.002 24.1157C100.927 23.0516 101.928 22.213 103.003 21.6C104.079 20.987 105.23 20.6805 106.456 20.6805C108.33 20.6805 109.747 21.2241 110.707 22.3113C111.667 23.3986 112.147 25.1335 112.147 27.5161L112.147 50.1745L120.752 50.1745L120.752 27.5161C120.752 26.4058 120.913 25.4226 121.237 24.5667C121.561 23.7108 122.007 22.9995 122.573 22.4328C123.14 21.866 123.8 21.4323 124.552 21.1316C125.304 20.8308 126.118 20.6805 126.998 20.6805C128.918 20.6805 130.375 21.253 131.37 22.3981C132.364 23.5431 132.861 25.2492 132.861 27.5161L132.861 50.1745L141.433 50.1745L141.433 27.5161C141.433 25.3648 141.16 23.4564 140.617 21.7908C140.074 20.1253 139.281 18.7142 138.24 17.5576C137.199 16.401 135.916 15.5219 134.388 14.9205C132.861 14.319 131.116 14.0183 129.149 14.0183C128.016 14.0183 126.888 14.1455 125.766 14.4C124.643 14.6545 123.586 15.0477 122.59 15.5798C121.596 16.1118 120.682 16.8 119.85 17.6443C119.017 18.4887 118.323 19.5007 117.768 20.6805C117.051 18.6679 115.969 17.0545 114.523 15.84C113.078 14.6255 111.233 14.0183 108.989 14.0183C107.925 14.0183 106.947 14.1398 106.057 14.3827C105.166 14.6255 104.333 14.9552 103.559 15.3716C102.784 15.788 102.055 16.2853 101.373 16.8636C100.69 17.4419 100.037 18.0781 99.412 18.7721L98.8569 16.1349C98.5099 15.094 97.7812 14.5735 96.6708 14.5735L91.4313 14.5735L91.4313 14.5735L91.4313 14.5735L91.4313 14.5735ZM59.8207 14.5735L59.8207 37.1971C59.8207 39.3716 60.3239 41.0545 61.3301 42.2458C62.3364 43.4371 63.8458 44.0328 65.8583 44.0328C67.3388 44.0328 68.7267 43.7031 70.0222 43.0439C71.3176 42.3846 72.5436 41.4766 73.7002 40.32L73.7002 14.5735L82.2708 14.5735L82.2708 50.1745L77.0313 50.1745C75.921 50.1745 75.1923 49.654 74.8453 48.613L74.2554 45.7677C73.5152 46.5079 72.7518 47.1846 71.9653 47.7976C71.1788 48.4106 70.3402 48.9311 69.4496 49.359C68.559 49.787 67.5991 50.1224 66.5696 50.3653C65.5403 50.6082 64.4357 50.7296 63.2559 50.7296C61.3128 50.7296 59.5952 50.4 58.1031 49.7407C56.6111 49.0814 55.3561 48.1504 54.3383 46.9475C53.3205 45.7446 52.5513 44.3161 52.0309 42.6622C51.5104 41.0082 51.2501 39.1865 51.2501 37.1971L51.2501 14.5735L59.8207 14.5735L59.8207 14.5735L59.8207 14.5735L59.8207 14.5735ZM204.88 61.3301C205.284 61.0178 205.613 60.561 205.867 59.9595L225.265 14.5735L218.394 14.5735C217.863 14.5735 217.382 14.7239 216.954 15.0246C216.526 15.3253 216.219 15.707 216.035 16.1696L208.887 34.5947C208.633 35.2424 208.395 35.8786 208.176 36.5031C207.955 37.1277 207.753 37.7754 207.569 38.4463C207.429 37.7986 207.267 37.1508 207.082 36.5031C206.898 35.8554 206.677 35.2308 206.423 34.6294L198.824 16.1696C198.639 15.7533 198.361 15.3831 197.992 15.0593C197.622 14.7354 197.089 14.5735 196.395 14.5735L188.9 14.5735L203.3 47.5374L196.639 61.7986L203.023 61.7986C203.855 61.7986 204.475 61.6424 204.88 61.3301L204.88 61.3301L204.88 61.3301L204.88 61.3301Z" id="Shape#1" fill="#013243" fill-rule="evenodd" stroke="none" />
                              </g>
                            </g>
                          </g>
                        </g>
                      </g>
                    </g>
                  </g>
                </g>
              </g>
            </g>
          </g>
        </g>
      </g>
    </g>
  </g>
</svg>