<?xml version="1.0" encoding="utf-8"?>
<svg width="579px" height="200px" viewbox="0 0 579 200" version="1.1" xmlns:xlink="http://www.w3.org/1999/xlink" xmlns="http://www.w3.org/2000/svg">
  <defs>
    <path d="M0 0L200 0L200 200L0 200L0 0Z" id="path_1" />
    <path d="M0 0L378.947 0L378.947 80L0 80L0 0Z" id="path_2" />
    <clipPath id="mask_1">
      <use xlink:href="#path_1" />
    </clipPath>
    <clipPath id="mask_2">
      <use xlink:href="#path_2" />
    </clipPath>
  </defs>
  <g id="Group">
    <g id="Openstack-icon">
      <path d="M0 0L200 0L200 200L0 200L0 0Z" id="Background" fill="none" fill-rule="evenodd" stroke="none" />
      <g clip-path="url(#mask_1)">
        <path d="M122.558 127.825L104.175 107.146C103.483 107.667 102.662 108.033 101.725 108.033L47.5583 111.904L47.5583 114.938L39.225 115.754L39.225 137.2L122.558 137.2L122.558 127.825L122.558 127.825ZM128.979 6.64583C122.558 1.5625 119.008 0 114.408 0L5.89167 8.03333C3.59167 8.03333 1.50833 8.96667 0 10.475L20.8333 31.3083C22.3417 29.8 24.425 28.8667 26.725 28.8667L143.392 20.5375C145.092 20.5375 146.671 21.0542 147.992 21.925L128.979 6.64583L128.979 6.64583Z" transform="translate(23.275024 16.966614)" id="Shape" fill="#D32F2F" fill-rule="evenodd" stroke="none" />
        <path d="M22.5708 0L0 1.69167L0 35.025L45.8333 37.2333L45.8333 20.2125L22.5708 0Z" transform="translate(129.16663 60.80829)" id="Shape" fill="#B71C1C" fill-rule="evenodd" stroke="none" />
        <path d="M125 55.8917L108.333 39.225L108.333 81.1542L125 97.8208L125 55.8917ZM0 5.89166L0 36.2292L20.8333 57.0625L20.8333 30.8958L20.8333 26.725C20.8333 24.4208 21.7667 22.3375 23.275 20.8333L2.44167 0C0.933333 1.50416 0 3.5875 0 5.89166L0 5.89166Z" transform="translate(20.833313 27.44165)" id="Shape" fill="#B71C1C" fill-rule="evenodd" stroke="none" />
        <path d="M136.458 45.575L108.346 46.7125L108.333 46.7L108.333 46.7125L108.333 50.1958L108.333 50.7792C108.333 52.1458 107.121 54.6 104.167 54.9458L124.233 73.8833C124.679 73.2209 154.167 69.1375 154.167 69.1375L154.167 60.7958L136.458 45.575L136.458 45.575ZM50 37.2375L0 37.2375L0 2.50834L26.7375 0L50 20.2167L50 37.2375ZM50 78.3875L0 78.3875L0 52.3375L26.7375 49.8292L50 70.0459L50 78.3875Z" transform="translate(20.833313 70.05414)" id="Shape" fill="#B71C1C" fill-rule="evenodd" stroke="none" />
        <path d="M20.8333 65.4333L0 45.1208L0 86.2292L20.8333 107.062L20.8333 65.4333ZM0 5.89166L0 36.2292L20.8333 57.0625L20.8333 30.8958L20.8333 26.725C20.8333 24.4208 21.7667 22.3375 23.275 20.8333L2.44167 0C0.933333 1.50416 0 3.5875 0 5.89166L0 5.89166ZM20.8333 143.392L20.8333 115.433L0 95.1167L0 118.392C0 122.992 0 126.725 4.16667 130.892L22.775 148.679C21.5792 147.238 20.8333 145.408 20.8333 143.392L20.8333 143.392Z" transform="translate(20.833313 27.44165)" id="Shape" fill="#B71C1C" fill-rule="evenodd" stroke="none" />
        <g id="Group" transform="translate(41.666687 37.50421)">
          <path d="M104.167 46.0708L104.167 87.7042L133.333 85.1L133.333 43.4667L104.167 46.0708ZM0 55.3708L0 97L29.1667 94.3958L29.1667 52.7667L0 55.3708ZM29.1667 44.3958L29.1667 37.4958C29.1667 35.1917 31.0333 33.3292 33.3333 33.3292L100 29.1625C102.304 29.1625 104.167 31.025 104.167 33.3292L104.167 37.7042L133.333 35.1L133.333 8.33333C133.333 3.73333 129.6 0 125 0L8.33333 8.32917C3.73333 8.32917 0 12.0625 0 16.6625L0 47L29.1667 44.3958L29.1667 44.3958ZM104.167 96.0708L104.167 104.162C104.167 106.467 102.304 108.329 100 108.329L33.3333 112.496C31.0333 112.496 29.1667 110.633 29.1667 108.329L29.1667 102.767L0 105.371L0 133.329C0 137.929 3.73333 141.663 8.33333 141.663L125 133.333C129.6 133.333 133.333 129.6 133.333 125L133.333 93.4667L104.167 96.0708L104.167 96.0708Z" id="Shape" fill="#F44336" fill-rule="evenodd" stroke="none" />
        </g>
      </g>
    </g>
    <g id="svg" transform="translate(200 65)">
      <path d="M0 0L378.947 0L378.947 80L0 80L0 0Z" id="Background" fill="none" fill-rule="evenodd" stroke="none" />
      <g clip-path="url(#mask_2)">
        <path d="M42.6893 40.4501L42.6893 39.6987C42.6893 25.9637 33.6803 16.0305 21.4329 16.0305C9.09537 16.0305 0 26.1741 0 39.8264L0 40.5778C0 54.3128 9.01646 64.1971 21.2638 64.1971C33.5938 64.2008 42.6931 54.144 42.6931 40.529L42.6893 40.4501L42.6893 40.4501ZM9.88055 40.2735L9.88055 39.7476C9.88055 31.0843 14.3437 24.7013 21.2526 24.7013C27.9886 24.7013 32.8011 31.1744 32.8011 39.834L32.8011 40.3599C32.8011 49.0194 28.338 55.4926 21.4291 55.4926C14.6931 55.4964 9.88055 48.9368 9.88055 40.2773L9.88055 40.2735L9.88055 40.2735ZM89.7512 40.6267L89.7512 39.4019C89.7512 23.7358 80.9979 15.9591 71.7297 15.9591C65.08 15.9591 61.0602 19.8099 58.2051 24.2693L58.2051 16.8307L48.3246 16.8307L48.3246 76.4072L58.2051 76.4072L58.2051 56.195C61.0038 60.3053 65.0274 64.0695 71.7297 64.0695C81.0918 64.0695 89.7512 56.1987 89.7512 40.6267L89.7512 40.6267L89.7512 40.6267ZM57.9945 40.4501L57.9945 39.5747C57.9945 30.4756 63.0665 24.7051 69.0173 24.7051C74.968 24.7051 79.7768 30.4306 79.7768 39.6649L79.7768 40.4163C79.7768 49.6956 75.0547 55.2935 69.0173 55.2935C63.0703 55.2897 57.9945 49.5154 57.9945 40.4163L57.9945 40.4501L57.9945 40.4501ZM132.583 56.9802L127.421 50.8564C124.36 53.832 121.121 55.7554 116.752 55.7554C110.715 55.7554 105.902 51.5554 105.03 43.7335L134.071 43.7335L134.157 40.3224C134.157 26.4144 127.508 15.914 114.911 15.914C103.539 15.914 95.1385 25.8885 95.1385 39.7964L95.1385 40.4952C95.1385 55.0194 104.411 64.1145 116.309 64.1145C123.221 64.1145 128.383 61.4097 132.583 56.9764L132.583 56.9802L132.583 56.9802ZM114.911 24.2956C120.685 24.2956 124.01 29.6303 124.536 36.9787L104.94 36.9787C105.639 29.1081 109.448 24.2956 114.911 24.2956L114.911 24.2956L114.911 24.2956ZM163.187 16.0305C156.886 16.0305 153.126 19.6183 150.5 23.732L150.5 16.8307L140.619 16.8307L140.619 63.1979L150.5 63.1979L150.5 35.1154C150.5 28.7287 154.088 24.8779 159.253 24.8779C164.501 24.8779 167.563 28.4657 167.563 34.9388L167.563 63.1979L177.444 63.1979L177.444 32.14C177.444 22.2519 172.109 15.9554 163.187 15.9554L163.187 16.0305L163.187 16.0305ZM217.293 49.9848L217.293 49.8985C217.293 42.6366 211.868 39.3155 204.696 36.0733C199.271 33.6239 195.597 32.0535 195.597 28.9879L195.597 28.8113C195.597 26.2755 197.784 24.3031 201.458 24.3031C205.132 24.3031 208.983 26.0538 212.48 28.4131L216.681 21.1511C212.308 18.0029 206.8 16.1657 201.635 16.1657C192.975 16.1657 186.325 21.4141 186.325 29.6904L186.325 29.867C186.325 37.4784 192.099 40.6267 199.012 43.6021C204.523 45.9688 208.111 47.4531 208.111 50.7402L208.111 50.8265C208.111 53.7192 205.744 55.8981 201.638 55.8981C197.532 55.8981 193.065 53.8846 188.865 50.4771L184.229 57.5625C189.564 62.0219 195.95 64.0358 201.461 64.0358C210.384 64.032 217.293 59.0467 217.293 49.9474L217.293 49.9848L217.293 49.9848ZM247.904 61.883L247.904 53.7457C246.261 54.6194 244.426 55.0703 242.565 55.0569C239.417 55.0569 237.58 53.5689 237.58 49.9849L237.58 25.3137L247.987 25.3137L247.987 16.8232L237.58 16.8232L237.58 4.31284L227.699 4.31284L227.699 16.8232L222.628 16.8232L224.251 25.3137L227.699 25.3137L227.699 51.995C227.699 61.0114 232.861 63.8931 239.721 63.8931C242.591 63.9415 245.424 63.2505 247.949 61.8867L247.904 61.883L247.904 61.883ZM285.784 21.0272C282.809 17.9653 278.173 16.3048 272.136 16.3048C265.925 16.3048 261.286 17.7925 256.827 19.979L259.625 27.8534C262.687 26.4558 266.361 25.0545 270.821 25.0545C277.121 25.0545 280.795 28.2929 280.795 34.503L280.795 36.4303C277.647 35.3784 274.495 34.5518 270.126 34.5518C260.328 34.5518 253.678 39.4508 253.678 49.4215L253.678 49.8573C253.678 58.8737 260.151 64.0282 267.849 64.0282C273.886 64.0282 277.992 61.3983 280.709 57.4686L280.709 63.1566L290.42 63.1566L290.42 34.379C290.42 28.601 288.842 24.0477 285.784 20.9896L285.784 21.0272L285.784 21.0272ZM280.885 47.6257C280.885 52.8741 276.512 56.7246 270.824 56.6421C266.541 56.5558 263.303 53.9297 263.303 49.2939L263.303 49.1171C263.303 44.2181 266.628 41.333 272.312 41.333C275.251 41.3165 278.165 41.8808 280.885 42.9937L280.885 47.6257L280.885 47.6257ZM332.441 57.1604L327.106 50.6013C324.394 53.3137 321.681 55.3234 317.658 55.3234C310.921 55.3234 306.199 49.2863 306.199 40.2773L306.199 39.8415C306.199 31.088 310.921 24.8817 317.395 24.8817C321.595 24.8817 324.307 26.9855 326.757 29.5176L332.268 22.2556C328.417 18.4048 324.003 15.9554 317.391 15.9554C305.23 15.9554 296.221 25.9299 296.221 39.7513L296.221 40.6267C296.221 54.4518 304.974 64.1596 317.041 64.1596C324.123 64.1558 328.763 61.2669 332.433 57.1604L332.441 57.1604L332.441 57.1604ZM355.718 46.5848L365.024 63.1903L376.483 63.1903L362.657 39.1277L355.718 46.5848L355.718 46.5848ZM348.494 63.1903L348.494 49.816L376.054 16.8307L364.333 16.8307L348.498 37.2155L348.498 0L338.617 0L338.617 63.1154L348.494 63.1903L348.494 63.1903Z" id="Shape" fill="#4E4540" fill-rule="evenodd" stroke="none" />
      </g>
    </g>
  </g>
</svg>