<?xml version="1.0" encoding="utf-8"?>
<svg width="242px" height="100px" viewbox="0 0 242 100" version="1.1" xmlns:xlink="http://www.w3.org/1999/xlink" xmlns="http://www.w3.org/2000/svg">
  <defs>
    <path d="M0 0L233.803 0L233.803 97.6822L0 97.6822L0 0Z" id="path_1" />
    <clipPath id="mask_1">
      <use xlink:href="#path_1" />
    </clipPath>
  </defs>
  <g id="Group-2">
    <g id="Group" transform="translate(7.7142944 0)">
      <path d="M0 0L233.803 0L233.803 97.6822L0 97.6822L0 0Z" id="Background" fill="none" fill-rule="evenodd" stroke="none" />
    </g>
    <path d="M10.9019 40.679C2.35705 35.7456 -1.80891 25.6881 0.744783 16.1576C3.29847 6.62708 11.9351 0 21.8018 0C31.6685 0 40.305 6.62708 42.8587 16.1576C45.4124 25.6881 41.2465 35.7456 32.7017 40.679L26.1381 29.3105C29.5374 27.3478 31.1948 23.3467 30.1788 19.5552C29.1629 15.7636 25.727 13.1272 21.8018 13.1272C17.8765 13.1272 14.4406 15.7636 13.4247 19.5552C12.4087 23.3467 14.0661 27.3479 17.4655 29.3105L10.9019 40.679L10.9019 40.679Z" transform="translate(32.391388 5.413788)" id="cv_element" fill="#FF0101" fill-rule="evenodd" stroke="none" />
    <path d="M10.8986 40.6666C2.35634 35.7348 -1.80836 25.6803 0.744545 16.1527C3.29747 6.62507 11.9314 0 21.7951 0C31.6589 -1.52588e-05 40.2928 6.62505 42.8457 16.1527C45.3987 25.6803 41.234 35.7348 32.6917 40.6666L26.1302 29.3016C29.5285 27.3395 31.1853 23.3396 30.1697 19.5492C29.1541 15.7588 25.7192 13.1232 21.7951 13.1232C17.8711 13.1232 14.4362 15.7589 13.4206 19.5492C12.405 23.3396 14.0618 27.3396 17.4602 29.3016L10.8986 40.6666L10.8986 40.6666Z" transform="matrix(-1 -8.742278E-08 8.742278E-08 -1 100.8468 92.02132)" id="cv_element-2" fill="#0101FF" fill-rule="evenodd" stroke="none" />
    <path d="M10.8986 40.6666C2.35633 35.7348 -1.80837 25.6803 0.74456 16.1527C3.29748 6.62508 11.9314 3.8147e-06 21.7952 0C31.6589 0 40.2928 6.62507 42.8458 16.1527C45.3987 25.6803 41.234 35.7348 32.6917 40.6666L26.1302 29.3016C29.5285 27.3396 31.1853 23.3396 30.1697 19.5492C29.1541 15.7589 25.7192 13.1232 21.7951 13.1232C17.8711 13.1232 14.4362 15.7589 13.4206 19.5492C12.405 23.3396 14.0618 27.3396 17.4602 29.3016L10.8986 40.6666L10.8986 40.6666Z" transform="matrix(-0.4999999 -0.86602545 0.86602545 -0.4999999 21.795135 99.99989)" id="cv_element-3" fill="#01FF01" fill-rule="evenodd" stroke="none" />
    <g id="opencv_text" transform="translate(103.645386 31.513016)">
      <path d="M8.48911 0.164555C11.1591 -0.0754977 13.8586 -0.0732308 16.515 0.307229C18.1524 0.597098 19.8894 1.02059 21.1191 2.21406C22.4077 3.65211 22.7247 5.64954 23.0078 7.4907C23.4721 11.3112 23.4177 15.186 23.0078 19.0087C22.7338 20.8748 22.4643 22.8903 21.2414 24.4077C19.9075 25.7619 17.9372 26.1469 16.1301 26.4323C13.4623 26.7652 10.756 26.8422 8.07694 26.5749C6.26296 26.3892 4.3697 26.0699 2.82521 25.035C1.8265 24.4009 1.28978 23.2821 0.925166 22.1974C0.193683 19.9372 0.100832 17.5367 0.00118721 15.1815C-0.0101361 12.0698 0.0487449 8.9265 0.655672 5.86468C0.984047 4.43569 1.38263 2.86402 2.58969 1.91059C4.29044 0.676369 6.45319 0.377433 8.48911 0.164555L8.48911 0.164555ZM8.93072 4.4289C11.1931 4.24772 13.5031 4.19337 15.7405 4.63271C16.6079 4.8071 17.6315 5.22832 17.7946 6.2157C18.474 8.99444 18.3154 11.8887 18.3426 14.7285C18.2588 16.7486 18.3064 18.8366 17.6293 20.7706C17.0382 22.0411 15.428 22.1453 14.2142 22.331C11.7797 22.4691 9.2523 22.5914 6.89027 21.869C5.80097 21.5814 5.45674 20.4128 5.28916 19.4322C4.83623 16.5267 4.98343 13.5713 5.04005 10.6431C5.16007 9.00122 5.13969 7.29821 5.73077 5.73786C6.4079 4.6916 7.80745 4.59875 8.93072 4.4289L8.93072 4.4289Z" id="O" fill="#050505" fill-rule="evenodd" stroke="none" />
      <path d="M6.06333 1.0857C7.68482 0.0552708 9.6981 -0.112311 11.5687 0.0575377C13.3147 0.207013 15.2533 0.800351 16.1886 2.40825C17.3051 4.42606 17.3685 6.81074 17.4455 9.0618C17.3957 11.3763 17.3526 13.7927 16.3969 15.9441C15.8512 17.2508 14.5965 18.1068 13.2536 18.4443C11.1973 18.9493 8.93717 19.0036 6.9556 18.1838C5.88442 17.7649 5.14388 16.8545 4.53015 15.9214C4.53015 19.4475 4.53015 22.9736 4.53015 26.4996L0.000846619 26.4996C0.00311176 17.7445 -0.00368193 8.98707 0.00311176 0.23192C1.46834 0.22512 2.93357 0.22512 4.39654 0.23192C4.34672 1.13325 4.2969 2.03232 4.27198 2.93592C4.8155 2.27238 5.32052 1.54315 6.06333 1.0857L6.06333 1.0857ZM7.53761 3.44999C8.80582 3.35261 10.1465 3.32543 11.3332 3.84857C12.085 4.17241 12.4814 4.96731 12.615 5.7373C13.009 7.7234 12.9592 9.77518 12.8188 11.7862C12.6784 13 12.4836 14.5717 11.1475 15.0428C9.60298 15.5478 7.84108 15.5795 6.3147 14.9884C4.89476 14.3905 4.72944 12.6717 4.58903 11.3378C4.50524 9.29054 4.40333 7.18441 4.98082 5.19604C5.28655 4.06825 6.45964 3.53379 7.53761 3.44999L7.53761 3.44999Z" transform="translate(26.723257 7.9291234)" id="p" fill="#050505" fill-rule="evenodd" stroke="none" />
      <path d="M2.71677 1.11237C4.94293 -0.0312752 7.54954 -0.0720373 9.9931 0.0434622C12.0268 0.213311 14.4952 0.553009 15.6162 2.49834C16.8799 4.84678 16.6738 7.60966 16.8505 10.1868C12.7197 10.1868 8.58902 10.1868 4.46056 10.1868C4.60549 11.5162 4.43338 12.9497 5.10372 14.1681C5.67667 15.1306 6.89279 15.3276 7.92095 15.3842C9.19142 15.3933 10.5593 15.4975 11.7301 14.9064C12.4004 14.381 12.405 13.4479 12.491 12.678C13.9404 12.6757 15.3898 12.6757 16.8391 12.678C16.7848 14.1907 16.59 15.8847 15.3762 16.9491C13.5531 18.5842 10.9443 18.754 8.61167 18.7993C6.55309 18.7382 4.37903 18.634 2.5356 17.6194C1.0432 16.7385 0.567618 14.929 0.304917 13.3347C-0.0279868 10.9659 -0.111778 8.55177 0.171304 6.17388C0.402299 4.29647 0.907316 2.08844 2.71677 1.11237L2.71677 1.11237ZM5.36416 3.99527C6.60066 3.24342 8.13157 3.39515 9.5198 3.41552C10.3804 3.50838 11.4289 3.55819 11.9883 4.31913C12.559 5.25895 12.4571 6.4094 12.4616 7.46472C9.79609 7.46925 7.13286 7.47606 4.46962 7.46245C4.51039 6.28937 4.41754 4.8581 5.36416 3.99527L5.36416 3.99527Z" transform="translate(46.87128 7.936416)" id="e" fill="#050505" fill-rule="evenodd" stroke="none" />
      <path d="M5.87847 1.1083C7.44561 0.0212726 9.47021 -0.130469 11.3136 0.0824089C12.883 0.247738 14.5453 0.845596 15.4715 2.19987C16.2936 3.32313 16.5223 4.75439 16.5337 6.11545C16.5269 10.2688 16.5359 14.4199 16.5314 18.5733C15.0956 18.5756 13.6621 18.5756 12.2308 18.5733C12.224 14.6441 12.2353 10.7172 12.224 6.79031C12.181 5.93201 12.215 4.94009 11.5695 4.27882C10.8811 3.53375 9.80085 3.38881 8.83837 3.3956C7.67434 3.38881 6.41519 3.5881 5.51839 4.39205C4.64197 5.13939 4.30907 6.34418 4.30454 7.45839C4.29775 11.1634 4.3068 14.8683 4.30001 18.571C2.86648 18.5756 1.43296 18.5756 0.00170015 18.5733C-0.000566716 12.4587 -0.000566716 6.34418 0.00170015 0.229617C1.41031 0.225083 2.82119 0.22735 4.2298 0.229617C4.22301 1.30306 4.11657 2.36972 4.08487 3.44316C4.54685 2.57579 5.03149 1.66088 5.87847 1.1083L5.87847 1.1083Z" transform="translate(67.488434 7.9291615)" id="n" fill="#050505" fill-rule="evenodd" stroke="none" />
      <path d="M4.39595 0.99872C6.76931 0.201557 9.29893 0.0883248 11.781 0C14.186 0.0113205 16.6998 0.0339753 18.9463 1.00324C20.0877 1.47883 20.8781 2.52056 21.2631 3.67101C21.8904 5.38987 21.9085 7.25142 21.9221 9.06088C20.2666 9.06088 18.6112 9.06541 16.958 9.05861C16.9308 7.78588 17.0282 6.35915 16.2401 5.27664C15.4429 4.46137 14.1974 4.46364 13.1398 4.33908C10.9884 4.29831 8.74861 4.16017 6.68778 4.90298C5.94498 5.1385 5.55998 5.88131 5.41051 6.59694C4.98703 8.51736 4.98476 10.4989 4.98703 12.4579C5.01193 15.0758 4.97117 17.7322 5.53054 20.3071C5.67774 21.2492 6.54511 21.829 7.41473 22.0373C9.42575 22.5378 11.5251 22.4654 13.5791 22.3431C14.6503 22.2027 15.9547 22.1325 16.6273 21.1496C17.3452 19.9765 17.2252 18.5339 17.1867 17.2159C18.858 17.2091 20.5271 17.2114 22.1984 17.2159C22.178 19.2971 22.1418 21.4463 21.3854 23.4165C20.9959 24.4469 20.1919 25.3211 19.1502 25.7151C17.1052 26.5349 14.8632 26.587 12.6936 26.7184C10.1776 26.7614 7.62988 26.7003 5.17046 26.1137C3.72788 25.7378 2.15168 25.0765 1.48361 23.643C0.629836 21.7475 0.473574 19.6391 0.253903 17.5986C0.0704663 14.9037 -0.0473001 12.2042 0.0183768 9.50476C0.147464 7.31936 0.346754 5.01621 1.52664 3.11163C2.15394 2.05178 3.25457 1.38823 4.39595 0.99872L4.39595 0.99872Z" transform="translate(87.41204 0.0037633535)" id="C" fill="#050505" fill-rule="evenodd" stroke="none" />
      <path d="M0 0.0146102C1.72567 0.0168633 3.45133 -0.0329525 5.17474 0.0395181C6.85284 5.36372 8.69627 10.6336 10.3902 15.951C11.0493 17.9937 11.5158 20.0953 12.1974 22.1312C12.9606 19.9345 13.4498 17.6517 14.1971 15.4505C15.8526 10.3074 17.5533 5.18028 19.2065 0.0372512C20.9096 -0.0352193 22.6171 0.0281976 24.3224 0.00554276L24.3224 0.569439C21.5188 9.11399 18.7808 17.6812 16.0338 26.2461C13.4702 26.2982 10.902 26.305 8.33846 26.2416C5.60728 17.4841 2.74476 8.76749 0 0.0146102L0 0.0146102Z" transform="translate(110.42573 0.22467889)" id="V" fill="#050505" fill-rule="evenodd" stroke="none" />
    </g>
  </g>
</svg>