<?xml version="1.0" encoding="utf-8"?>
<svg width="361px" height="100px" viewbox="0 0 361 100" version="1.1" xmlns:xlink="http://www.w3.org/1999/xlink" xmlns="http://www.w3.org/2000/svg">
  <defs>
    <path d="M0 0L360.465 0L360.465 100L0 100L0 0Z" id="path_1" />
    <path d="M0 0L379.07 0L379.07 379.07L0 379.07L0 0L0 0Z" id="path_2" />
    <clipPath id="mask_1">
      <use xlink:href="#path_1" />
    </clipPath>
    <clipPath id="mask_2">
      <use xlink:href="#path_2" />
    </clipPath>
  </defs>
  <g id="svg">
    <g id="Mask-group">
      <path d="M0 0L360.465 0L360.465 100L0 100L0 0Z" id="slice_1" fill="none" fill-rule="evenodd" stroke="none" />
      <g clip-path="url(#mask_1)">
        <g id="Slice" transform="translate(-9.88372 -137.2093)">
          <path d="M0 0L360.465 0L360.465 100L0 100L0 0Z" transform="translate(9.88372 137.2093)" id="slice_1" fill="none" fill-rule="evenodd" stroke="none" />
          <g id="red-hat-openshift-vector-logo">
            <path d="M0 0L379.07 0L379.07 379.07L0 379.07L0 0L0 0Z" id="Background" fill="none" fill-rule="evenodd" stroke="none" />
            <g id="Mask-group">
              <path d="M0 0L379.07 0L379.07 379.07L0 379.07L0 0L0 0Z" id="path_1" fill="none" fill-rule="evenodd" stroke="none" />
              <g clip-path="url(#mask_2)">
                <g id="Group" transform="translate(11.9767475 142.24757)">
                  <path d="M15.6977 0L0 5.69767C0.232559 8.19767 0.639535 10.6977 1.22093 13.1395L16.1046 7.73256C15.6395 5.17441 15.5233 2.61628 15.6977 0" transform="translate(12.674411 40.252415)" id="Shape" fill="#AA1017" fill-rule="evenodd" stroke="none" />
                  <path d="M19.5349 6.51163C18.4302 4.2442 17.1512 2.03488 15.6977 0L0 5.69767C1.80233 7.55814 3.3721 9.65116 4.59302 11.9186L19.5349 6.51163L19.5349 6.51163L19.5349 6.51163Z" transform="translate(78.13953 16.415207)" id="Shape#1" fill="#AA1017" fill-rule="evenodd" stroke="none" />
                  <path d="M57.1713 18.4501C60.311 19.9617 63.218 21.9966 65.6599 24.4966L81.3575 18.7989C66.9971 -1.37548 38.9737 -6.02664 18.7992 8.33383C5.9504 17.4617 -1.08451 32.6943 0.136418 48.392L15.776 42.6361C16.9388 26.6478 30.8923 14.6129 46.9388 15.7757C50.4852 16.0664 53.9155 16.9966 57.1713 18.4501" transform="translate(6.0263786 0)" id="Shape#2" fill="#CE0E19" fill-rule="evenodd" stroke="none" />
                  <path d="M14.8837 0L0 5.40697C1.39535 10.8721 3.77907 15.9884 6.97674 20.5814L22.6163 14.8837C18.6628 10.8139 15.9884 5.63954 14.8837 0" transform="translate(0 53.04311)" id="Shape#3" fill="#CE0E19" fill-rule="evenodd" stroke="none" />
                  <path d="M65.5232 5.63954C65.2907 9.1279 64.3605 12.5581 62.907 15.6977C56.1046 30.2907 38.7791 36.5698 24.186 29.8256C20.9884 28.314 18.1395 26.2791 15.6977 23.7791L0 29.5349C4.47674 35.814 10.4651 40.814 17.4419 44.0698C39.8837 54.5349 66.5698 44.8256 77.093 22.3837C80.3488 15.407 81.7442 7.67442 81.1046 0L65.5232 5.63954L65.5232 5.63954L65.5232 5.63954Z" transform="translate(14.418614 41.53147)" id="Shape#4" fill="#CE0E19" fill-rule="evenodd" stroke="none" />
                  <path d="M14.8837 0L0 5.40697C2.7907 10.407 4.06977 16.1046 3.66279 21.8023L19.3023 16.1046C18.8372 10.5233 17.3837 5.05815 14.8837 0" transform="translate(68.89534 27.98497)" id="Shape#5" fill="#CE0E19" fill-rule="evenodd" stroke="none" />
                  <path d="M15.6395 3.13953C15.5814 2.09303 15.6395 1.0465 15.6977 0L0 5.69767C0.0581386 6.68605 0.232559 7.67442 0.348836 8.66279L15.6395 3.13953L15.6395 3.13953L15.6395 3.13953Z" transform="translate(12.674411 40.31056)" id="Shape#6" fill="#8B070F" fill-rule="evenodd" stroke="none" />
                  <path d="M17.2674 2.38373C16.7442 1.56977 16.2791 0.813948 15.6977 0L0 5.69767C0.697673 6.39535 1.33721 7.15116 1.91861 7.90697L17.2674 2.38373L17.2674 2.38373L17.2674 2.38373Z" transform="translate(78.13953 16.415207)" id="Shape#7" fill="#8B070F" fill-rule="evenodd" stroke="none" />
                  <path d="M0 29.5349C1.22093 31.2209 2.55814 32.8488 4.01163 34.3605L21.0465 28.1395C19.0698 26.9186 17.2674 25.4651 15.6395 23.8372L0 29.5349L0 29.5349L0 29.5349ZM81.1047 0L65.4651 5.69767C65.2907 7.96511 64.8256 10.2326 64.1279 12.3837L81.1628 6.16279C81.2791 4.06977 81.2791 1.97674 81.1047 0" transform="translate(14.418597 41.473347)" id="Shape#8" fill="#AA1017" fill-rule="evenodd" stroke="none" />
                  <path d="M11.0465 20.1744L7.73256 13.3721L5.46511 13.3721L5.46511 20.1744L0 20.1744L0 0L9.06977 0C10.1744 0 11.2209 0.116286 12.2674 0.348841C13.1977 0.581395 14.0116 0.930238 14.7674 1.51163C15.4651 2.03488 16.0465 2.73256 16.3372 3.54652C16.7442 4.53489 16.9186 5.52325 16.9186 6.56977C16.9767 7.90697 16.6279 9.18604 15.9302 10.2907C15.2326 11.2791 14.3023 12.0349 13.1977 12.5L17.2674 20.2326L11.0465 20.1744L11.0465 20.1744L11.0465 20.1744L11.0465 20.1744ZM10.7558 5.11629C10.2326 4.65118 9.53488 4.41861 8.8372 4.53489L5.4651 4.53489L5.4651 8.95349L8.77907 8.95349C9.47674 9.01163 10.1744 8.83721 10.7558 8.37209C11.1628 7.90697 11.3953 7.32558 11.3372 6.68604C11.3953 6.10465 11.1628 5.52325 10.7558 5.11629" transform="translate(115.81396 15.833813)" id="Shape#9" fill="#050000" fill-rule="evenodd" stroke="none" />
                  <path d="M0 20.2326L0 0L15.4651 0L15.4651 4.70931L5.52325 4.70931L5.52325 7.44186L11.5116 7.44186L11.5116 12.0349L5.52325 12.0349L5.52325 15.5233L15.6395 15.5233L15.6395 20.2326L0 20.2326L0 20.2326Z" transform="translate(137.32556 15.775669)" id="Polygon" fill="#050000" fill-rule="evenodd" stroke="none" />
                  <path d="M16.8023 14.7674C16.3953 15.9884 15.6977 17.0349 14.7093 17.907C13.7209 18.7209 12.5581 19.3605 11.2791 19.6512C9.76743 20.0581 8.13953 20.2326 6.56976 20.1744L0 20.1744L0 0L7.09303 0C8.54652 0 10 0.174411 11.3953 0.523252C12.6163 0.813948 13.7209 1.39534 14.6512 2.2093C15.5814 3.02324 16.2791 4.12789 16.7442 5.29068C17.2674 6.80232 17.5 8.43023 17.5 10.0581C17.5581 11.5698 17.3256 13.1977 16.8023 14.7674M11.5116 7.61628C11.3953 6.97674 11.1047 6.45349 10.6977 5.93023C10.2907 5.46515 9.82558 5.17445 9.24418 5.00002C8.54652 4.76746 7.79069 4.65118 7.03489 4.70932L5.63954 4.70932L5.63954 15.3488L6.86046 15.3488C7.61628 15.3488 8.37209 15.2907 9.06977 15.0581C9.65116 14.8837 10.1744 14.593 10.5814 14.186C10.9884 13.7209 11.2791 13.1395 11.3953 12.5C11.5698 11.686 11.686 10.814 11.6279 10C11.8023 9.18604 11.686 8.43023 11.5116 7.61628" transform="translate(157.38373 15.833795)" id="Shape#10" fill="#050000" fill-rule="evenodd" stroke="none" />
                  <path d="M11.9767 20.2326L11.9767 12.2674L5.69766 12.2674L5.69766 20.2326L0 20.2326L0 0L5.69766 0L5.69766 7.38372L11.9767 7.38372L11.9767 0L17.6744 0L17.6744 20.2326L11.9767 20.2326L11.9767 20.2326L11.9767 20.2326Z" transform="translate(189.53488 15.775669)" id="Polygon#1" fill="#050000" fill-rule="evenodd" stroke="none" />
                  <path d="M14.2442 20.1744L13.1395 16.686L7.09303 16.686L5.98837 20.1744L0 20.1744L7.32558 0L12.9651 0L20.2907 20.1744L14.2442 20.1744L14.2442 20.1744L14.2442 20.1744L14.2442 20.1744ZM11.4535 10.8139C11.2791 10.1744 11.1047 9.59302 10.9884 9.1279L10.6395 7.84883C10.5233 7.44186 10.4651 7.09302 10.3488 6.80232C10.2907 6.51163 10.2326 6.10465 10.1744 5.75582C10.1163 6.10465 10.0581 6.45349 10 6.74418C9.94186 7.09302 9.82558 7.44186 9.70931 7.7907L9.36047 9.06976L8.89534 10.7558L8.48838 12.093L11.8605 12.093L11.4535 10.8139L11.4535 10.8139L11.4535 10.8139Z" transform="translate(210.98837 15.833813)" id="Shape#11" fill="#050000" fill-rule="evenodd" stroke="none" />
                  <path d="M11.2791 4.88373L11.2791 20.2326L5.63952 20.2326L5.63952 4.88373L0 4.88373L0 0L16.9186 0L16.9186 4.88373L11.2791 4.88373L11.2791 4.88373L11.2791 4.88373Z" transform="translate(231.45349 15.775669)" id="Polygon#2" fill="#050000" fill-rule="evenodd" stroke="none" />
                  <path d="M4.99999 3.64825C4.76744 4.28779 4.24419 4.7529 3.60465 5.0436C2.96511 5.27615 2.2093 5.27615 1.56976 5.0436C0.93022 4.81104 0.46511 4.28779 0.174412 3.64825C-0.0581432 3.00872 -0.0581432 2.25291 0.174412 1.61337C0.406967 0.973832 0.93022 0.508721 1.56976 0.218023C2.2093 -0.0726744 2.96511 -0.0726744 3.60465 0.218023C4.24419 0.450578 4.7093 0.973832 4.99999 1.61337C5.29069 2.25291 5.29069 3.00873 4.99999 3.64825M4.65115 1.78779C4.4186 1.26455 4.01161 0.857564 3.48836 0.625005C2.96511 0.392452 2.32557 0.392452 1.74417 0.625005C1.22092 0.857564 0.813933 1.26455 0.581379 1.78779C0.348824 2.31105 0.348824 2.95059 0.581379 3.53198C0.813933 4.05524 1.22092 4.46222 1.74417 4.69477C2.32557 4.92733 2.90696 4.92733 3.48836 4.69477C4.01161 4.46222 4.4186 4.05524 4.65115 3.53198C4.82556 2.95059 4.82556 2.31105 4.65115 1.78779M3.60463 2.60175C3.48834 2.71803 3.31393 2.8343 3.13952 2.89245L3.72091 4.05524L3.13952 4.05524L2.61627 2.95059L2.09301 2.95059L2.09301 4.05524L1.6279 4.05524L1.6279 1.14826L2.84884 1.14826C2.96512 1.14826 3.08139 1.14826 3.19768 1.2064C3.31397 1.26455 3.43023 1.26455 3.48838 1.38081C3.54652 1.43896 3.66279 1.55523 3.66279 1.67151C3.72093 1.7878 3.72093 1.90406 3.72093 2.07849C3.77906 2.19476 3.72091 2.42734 3.60463 2.60175L3.60463 2.60175L3.60463 2.60175L3.60463 2.60175ZM3.19766 1.78779C3.08138 1.72966 2.96511 1.67151 2.84882 1.67151L2.09301 1.67151L2.09301 2.48546L2.84882 2.48546C2.96511 2.48546 3.08138 2.42732 3.19766 2.36917C3.37207 2.25291 3.37207 2.02035 3.19766 1.78779C3.19766 1.78779 3.19766 1.78779 3.19766 1.78779" transform="translate(250.8721 15.615789)" id="Shape#12" fill="#050000" fill-rule="evenodd" stroke="none" />
                  <path d="M24.1923 21.9331C23.6691 23.7355 22.797 25.4215 21.6342 26.875C20.5295 28.2122 19.1923 29.375 17.6226 30.1308C14.3667 31.6425 10.5877 31.6425 7.33186 30.1308C5.76212 29.375 4.42491 28.2704 3.37839 26.875C2.27375 25.4215 1.40165 23.7355 0.878392 21.9331C0.296996 19.8983 -0.0518444 17.8052 0.00629869 15.6541C0.00629869 13.5029 0.296996 11.4099 0.936535 9.37501C1.45979 7.57268 2.33188 5.88664 3.43654 4.43315C4.48305 3.09595 5.87837 1.99128 7.39 1.17733C10.6459 -0.392444 14.4249 -0.392444 17.6807 1.17733C19.2505 1.93314 20.5877 3.0378 21.6342 4.37501C22.7389 5.88664 23.611 7.51455 24.1342 9.31687C24.7738 11.3518 25.0645 13.4448 25.0645 15.5959C25.1226 17.7471 24.8319 19.8983 24.1923 21.9331M21.0528 10.5378C20.6458 9.08431 19.9481 7.7471 19.0761 6.58431C18.3202 5.53781 17.2737 4.66572 16.1109 4.08432C14.9481 3.50293 13.7272 3.21223 12.4481 3.21223C11.1691 3.21223 9.94814 3.50293 8.84349 4.08432C7.73884 4.72386 6.75046 5.53781 5.93651 6.58431C5.06443 7.7471 4.42489 9.08431 4.01791 10.5378C3.5528 12.2238 3.32024 13.968 3.32024 15.7122C3.32024 17.4564 3.5528 19.2006 4.01791 20.8866C4.42489 22.3401 5.12256 23.6773 5.99466 24.8401C6.75046 25.8866 7.73884 26.7587 8.90163 27.3401C10.0644 27.9215 11.2853 28.2122 12.5644 28.2122C13.8435 28.2122 15.0644 27.9215 16.1691 27.3401C17.3319 26.7587 18.3202 25.8866 19.0761 24.8401C19.9481 23.6773 20.5877 22.3401 20.9946 20.8866C21.4598 19.2006 21.6923 17.4564 21.6923 15.7122C21.7505 13.9099 21.5179 12.1657 21.0528 10.5378" transform="translate(114.52859 41.226254)" id="Shape#13" fill="#050000" fill-rule="evenodd" stroke="none" />
                  <path d="M20.2325 13.0233C19.7674 14.1279 19.0698 15.1744 18.1395 15.9884C17.2093 16.8023 16.1047 17.4419 14.8837 17.7907C13.5465 18.1977 12.093 18.4302 10.6977 18.3721L3.37209 18.3721L3.37209 30.2907L0 30.2907L0 0L11.3372 0C12.6163 0 13.9535 0.174411 15.1744 0.523252C16.2791 0.872093 17.3256 1.45349 18.1977 2.20929C19.0698 2.96511 19.7674 3.95348 20.2325 5.05813C21.2791 7.61628 21.2209 10.4651 20.2325 13.0233M15.9884 4.65116C14.6512 3.54651 12.9651 2.96512 11.2209 3.08139L3.3721 3.08139L3.3721 15.2907L10.7558 15.2907C15.2907 15.2907 17.6163 13.2558 17.6163 9.1279C17.6744 7.5 17.093 5.87209 15.9884 4.65116L15.9884 4.65116L15.9884 4.65116L15.9884 4.65116Z" transform="translate(147.61626 41.764046)" id="Shape#14" fill="#050000" fill-rule="evenodd" stroke="none" />
                  <path d="M0 30.2907L0 0L18.314 0L18.314 3.08139L3.37209 3.08139L3.37209 12.6163L12.0349 12.6163L12.0349 15.6977L3.37209 15.6977L3.37209 27.2093L18.9535 27.2093L18.9535 30.2907L0 30.2907L0 30.2907Z" transform="translate(175.63953 41.764046)" id="Polygon#3" fill="#050000" fill-rule="evenodd" stroke="none" />
                  <path d="M18.7209 30.3488L5.46513 9.59302C5.29072 9.36046 5.11629 9.01163 4.88374 8.66279L4.30234 7.55814C4.06979 7.2093 3.89536 6.86047 3.72095 6.56977C3.54653 6.33721 3.43025 6.04651 3.31396 5.81395L3.31396 30.3488L0 30.3488L0 0.0581431L3.31396 0.0581431L16.3954 21.1628C16.5698 21.4535 16.7442 21.7442 16.9768 22.093L17.5581 23.1977C17.7326 23.5465 17.9651 23.8953 18.1395 24.186C18.314 24.4186 18.4302 24.7093 18.5465 24.9419L18.5465 0L21.8605 0L21.8605 30.2907L18.7209 30.3488L18.7209 30.3488L18.7209 30.3488L18.7209 30.3488Z" transform="translate(202.32556 41.705902)" id="Shape#15" fill="#050000" fill-rule="evenodd" stroke="none" />
                  <path d="M19.5349 26.17C19.0698 27.2166 18.4302 28.1468 17.5581 28.8445C16.6279 29.6003 15.5814 30.2398 14.4186 30.6468C13.0232 31.1119 11.6279 31.3445 10.1744 31.2864C8.19767 31.2864 6.22094 30.8794 4.41861 30.1236C2.79071 29.4259 1.27908 28.3794 0 27.1003L2.26744 24.6003C3.37208 25.6468 4.65116 26.5189 5.98836 27.2166C7.32558 27.9143 8.83721 28.205 10.3488 28.205C12.0349 28.3213 13.7209 27.798 15.1163 26.8096C16.2791 25.8794 16.9186 24.4841 16.8605 22.9724C16.8605 22.3329 16.7442 21.6934 16.5116 21.0538C16.2209 20.4143 15.814 19.891 15.3488 19.4841C14.6512 18.9027 13.8953 18.4375 13.1395 18.0306C12.0349 17.4492 10.8721 16.9841 9.65116 16.5771C8.25582 16.112 6.86046 15.5306 5.52325 14.8329C4.53487 14.3096 3.60466 13.6701 2.84883 12.9143C2.20929 12.2748 1.68604 11.5189 1.39534 10.6469C1.0465 9.71662 0.930236 8.72825 0.930236 7.73987C0.930236 6.63522 1.16279 5.53057 1.62792 4.48406C2.09303 3.55382 2.73256 2.68172 3.54651 2.04218C4.41861 1.3445 5.46511 0.821251 6.51163 0.530553C7.79069 0.181713 9.06977 0.00730115 10.407 0.00730115C12.1512 -0.0508419 13.8953 0.239856 15.5814 0.821251C17.0349 1.40265 18.4302 2.2166 19.6511 3.20498L17.5 5.82127C16.5116 4.94916 15.3488 4.25148 14.1279 3.72823C12.8488 3.20498 11.5116 2.97242 10.1744 3.03054C9.24418 3.03054 8.37209 3.14683 7.49999 3.37939C6.80233 3.5538 6.22094 3.90263 5.63954 4.36777C5.17443 4.71661 4.82559 5.23986 4.59304 5.76311C4.36048 6.28639 4.24419 6.86778 4.24419 7.44918C4.24419 8.03057 4.30234 8.61197 4.47675 9.13522C4.7093 9.71662 5.05814 10.1817 5.52325 10.5887C6.22094 11.1701 6.9186 11.6933 7.73255 12.1003C8.95348 12.6817 10.1744 13.205 11.4535 13.612C12.907 14.1352 14.3023 14.7166 15.6395 15.4143C16.6279 15.9375 17.5581 16.5771 18.3139 17.391C18.9535 18.0887 19.4767 18.9027 19.7674 19.7748C20.0581 20.7631 20.2325 21.7515 20.2325 22.7399C20.2325 24.0189 20 25.1235 19.5349 26.17" transform="translate(231.80232 41.23351)" id="Shape#16" fill="#050000" fill-rule="evenodd" stroke="none" />
                  <path d="M18.4303 30.2907L18.4303 16.0465L3.37211 16.0465L3.37211 30.2907L0 30.2907L0 0L3.37211 0L3.37211 12.907L18.4303 12.907L18.4303 0L21.8023 0L21.8023 30.2907L18.4303 30.2907L18.4303 30.2907L18.4303 30.2907Z" transform="translate(260.34882 41.764046)" id="Polygon#4" fill="#050000" fill-rule="evenodd" stroke="none" />
                  <path d="M0 30.2907L0 0L3.3721 0L3.3721 30.2907L0 30.2907L0 30.2907L0 30.2907Z" transform="translate(291.6279 41.764046)" id="Polygon#5" fill="#050000" fill-rule="evenodd" stroke="none" />
                  <path d="M3.37209 3.08139L3.37209 13.1395L11.686 13.1395L11.686 16.2209L3.37209 16.2209L3.37209 30.2907L0 30.2907L0 0L17.7907 0L17.7907 3.08139L3.37209 3.08139L3.37209 3.08139L3.37209 3.08139Z" transform="translate(304.5349 41.764046)" id="Polygon#6" fill="#050000" fill-rule="evenodd" stroke="none" />
                  <path d="M12.2674 3.08139L12.2674 30.2907L8.95351 30.2907L8.95351 3.08139L0 3.08139L0 0L21.1628 0L21.1628 3.08139L12.2674 3.08139L12.2674 3.08139Z" transform="translate(327.67438 41.764046)" id="Polygon#7" fill="#050000" fill-rule="evenodd" stroke="none" />
                </g>
              </g>
            </g>
          </g>
        </g>
      </g>
    </g>
  </g>
</svg>