<?xml version="1.0" encoding="utf-8"?>
<svg width="379px" height="100px" viewbox="0 0 379 100" version="1.1" xmlns:xlink="http://www.w3.org/1999/xlink" xmlns="http://www.w3.org/2000/svg">
  <g id="Group">
    <g id="Group-2">
      <path d="M12.5874 46.9683C2.72146 41.2721 -2.08858 29.6597 0.85993 18.6557C3.80844 7.65168 13.7804 0 25.1725 0C36.5647 0 46.5364 7.65168 49.485 18.6557C52.4335 29.6597 47.6235 41.2721 37.7576 46.9683L30.1792 33.8421C34.1041 31.576 36.0177 26.9563 34.8447 22.5786C33.6717 18.2008 29.7046 15.1568 25.1725 15.1568C20.6403 15.1568 16.6732 18.2008 15.5003 22.5786C14.3272 26.9563 16.2408 31.5761 20.1658 33.8421L12.5874 46.9683L12.5874 46.9683L12.5874 46.9683Z" transform="translate(28.188675 0)" id="cv_element" fill="#FF0101" fill-rule="evenodd" stroke="none" />
      <path d="M37.7461 4.40448e-06C47.609 5.6943 52.4176 17.3033 49.47 28.3039C46.5224 39.3046 36.5536 46.954 25.1649 46.954C13.7761 46.954 3.80731 39.3046 0.859714 28.3039C-2.088 17.3033 2.72059 5.69429 12.5836 0L20.1595 13.1221C16.2358 15.3876 14.3229 20.0059 15.4955 24.3823C16.6681 28.7587 20.6341 31.8018 25.1649 31.8018C29.6956 31.8018 33.6615 28.7586 34.8342 24.3823C36.0068 20.0059 34.0938 15.3875 30.17 13.1221L37.7461 4.40448e-06L37.7461 4.40448e-06L37.7461 4.40448e-06Z" transform="translate(56.898125 53.04374)" id="cv_element-2" fill="#0101FF" fill-rule="evenodd" stroke="none" />
      <path d="M50.3257 25.1632C50.3258 36.5519 42.6764 46.5208 31.6757 49.4684C20.6751 52.416 9.06613 47.6074 3.37171 37.7444C-2.32263 27.8815 -0.682479 15.4236 7.37052 7.3705C15.4236 -0.682518 27.8815 -2.32265 37.7445 3.37181L30.1683 16.4938C26.2446 14.2285 21.2885 14.881 18.0847 18.0848C14.881 21.2884 14.2285 26.2447 16.4939 30.1684C18.7593 34.0921 23.3777 36.0052 27.754 34.8325C32.1304 33.6598 35.1736 29.6939 35.1736 25.1631L50.3257 25.1632L50.3257 25.1632L50.3257 25.1632Z" transform="translate(0 49.67198)" id="cv_element-3" fill="#01FF01" fill-rule="evenodd" stroke="none" />
      <g id="opencv_text" transform="translate(113.81816 16.386118)">
        <path d="M16.6856 0.323441C21.9336 -0.148391 27.2395 -0.143934 32.4608 0.60387C35.6791 1.17362 39.0933 2.00601 41.5103 4.35181C44.043 7.17834 44.6661 11.1044 45.2226 14.7232C46.1352 22.2325 46.0282 29.8486 45.2226 37.3622C44.684 41.0301 44.1543 44.9916 41.7507 47.9741C39.1288 50.6358 35.2561 51.3926 31.7042 51.9535C26.4606 52.6078 21.1413 52.7592 15.8755 52.2338C12.3101 51.8688 8.58878 51.2412 5.55304 49.2071C3.59004 47.9607 2.5351 45.7617 1.81844 43.6297C0.380684 39.1872 0.198185 34.4689 0.00233935 29.8397C-0.0199294 23.7236 0.0958083 17.5453 1.28874 11.5272C1.93418 8.7185 2.7176 5.62933 5.09012 3.75533C8.433 1.32943 12.6839 0.741862 16.6856 0.323441L16.6856 0.323441L16.6856 0.323441ZM17.5536 8.70515C22.0004 8.34903 26.5408 8.24221 30.9385 9.10574C32.6434 9.44851 34.6553 10.2764 34.9758 12.2172C36.3112 17.6789 35.9995 23.3676 36.053 28.9493C35.8883 32.9199 35.9818 37.0239 34.6509 40.8253C33.4891 43.3225 30.3242 43.5273 27.9385 43.8923C23.1534 44.1637 18.1857 44.4041 13.5431 42.9842C11.402 42.4189 10.7254 40.122 10.396 38.1946C9.50576 32.4838 9.79509 26.6748 9.90637 20.9194C10.1423 17.6922 10.1022 14.3449 11.264 11.278C12.5949 9.22149 15.3458 9.039 17.5536 8.70515L17.5536 8.70515L17.5536 8.70515Z" id="O" fill="#050505" fill-rule="evenodd" stroke="none" />
        <path d="M11.9176 2.13398C15.1047 0.108637 19.0619 -0.220753 22.7386 0.113091C26.1704 0.406889 29.9808 1.57311 31.8192 4.73349C34.0137 8.69956 34.1383 13.3867 34.2896 17.8113C34.1918 22.3605 34.1071 27.11 32.2286 31.3386C31.156 33.907 28.6899 35.5895 26.0504 36.2528C22.0086 37.2455 17.5663 37.3522 13.6714 35.7408C11.566 34.9175 10.1104 33.1281 8.90415 31.294C8.90415 38.2247 8.90415 45.1553 8.90415 52.0858L0.00164954 52.0858C0.00611829 34.8774 -0.00722798 17.6644 0.00611829 0.455843C2.88606 0.442482 5.76601 0.442482 8.64154 0.455843C8.54362 2.22744 8.4457 3.99459 8.39669 5.77064C9.46502 4.46644 10.4577 3.03311 11.9176 2.13398L11.9176 2.13398L11.9176 2.13398ZM14.8154 6.78106C17.3081 6.58967 19.9432 6.53624 22.2758 7.56449C23.7534 8.201 24.5326 9.7634 24.7952 11.2768C25.5696 15.1806 25.4717 19.2134 25.1957 23.1662C24.9198 25.5519 24.5369 28.6411 21.9108 29.5671C18.8749 30.5597 15.4119 30.622 12.4117 29.4602C9.6208 28.285 9.29587 24.9066 9.01989 22.2848C8.85517 18.2608 8.65489 14.1212 9.78995 10.213C10.3909 7.99627 12.6966 6.94578 14.8154 6.78106L14.8154 6.78106L14.8154 6.78106Z" transform="translate(52.525375 15.58495)" id="p" fill="#050505" fill-rule="evenodd" stroke="none" />
        <path d="M5.33989 2.1864C9.71548 -0.0614753 14.8389 -0.14159 19.6417 0.0854236C23.639 0.419268 28.4907 1.08696 30.6941 4.91056C33.1779 9.52649 32.7729 14.957 33.1202 20.0225C25.0009 20.0225 16.882 20.0225 8.76736 20.0225C9.05222 22.6354 8.71394 25.453 10.0315 27.8478C11.1577 29.7397 13.548 30.1269 15.5689 30.2381C18.066 30.256 20.7546 30.4608 23.0559 29.299C24.3734 28.2663 24.3824 26.4323 24.5514 24.919C27.4003 24.9145 30.2491 24.9145 33.0978 24.919C32.991 27.8923 32.6081 31.2219 30.2224 33.314C26.639 36.5278 21.5114 36.8616 16.9265 36.9506C12.8803 36.8305 8.60711 36.6257 4.9838 34.6315C2.05044 32.9 1.11566 29.3434 0.599322 26.2098C-0.0550046 21.5538 -0.219689 16.8088 0.336716 12.135C0.790729 8.44484 1.78336 4.10489 5.33989 2.1864L5.33989 2.1864L5.33989 2.1864ZM10.5434 7.85282C12.9738 6.37504 15.9829 6.67327 18.7115 6.71331C20.403 6.89583 22.4638 6.99373 23.5634 8.48938C24.6851 10.3366 24.4848 12.5979 24.4936 14.6721C19.2545 14.681 14.0198 14.6944 8.78517 14.6677C8.86531 12.362 8.68281 9.54875 10.5434 7.85282L10.5434 7.85282L10.5434 7.85282Z" transform="translate(92.12698 15.5992775)" id="e" fill="#050505" fill-rule="evenodd" stroke="none" />
        <path d="M11.5543 2.17841C14.6346 0.0418233 18.614 -0.256429 22.2372 0.161992C25.3219 0.486952 28.5892 1.66206 30.4097 4.32393C32.0256 6.53174 32.4751 9.34492 32.4975 12.0201C32.4841 20.1837 32.5018 28.3428 32.493 36.5064C29.6709 36.511 26.8533 36.511 24.04 36.5064C24.0266 28.7835 24.0489 21.065 24.0266 13.3466C23.9421 11.6596 24.009 9.70992 22.7402 8.41017C21.3871 6.94571 19.2639 6.66083 17.3721 6.67418C15.0842 6.66083 12.6093 7.05254 10.8466 8.63274C9.12393 10.1017 8.4696 12.4697 8.4607 14.6597C8.44735 21.942 8.46514 29.2241 8.45179 36.5019C5.63417 36.511 2.81651 36.511 0.00332907 36.5064C-0.00110969 24.488 -0.00110969 12.4697 0.00332907 0.451337C2.77201 0.442422 5.54515 0.446875 8.3138 0.451337C8.30045 2.56122 8.09126 4.65778 8.02894 6.76766C8.93696 5.06281 9.88956 3.26453 11.5543 2.17841L11.5543 2.17841L11.5543 2.17841Z" transform="translate(132.65062 15.585006)" id="n" fill="#050505" fill-rule="evenodd" stroke="none" />
        <path d="M8.64038 1.96302C13.3053 0.396167 18.2774 0.173607 23.1559 0C27.883 0.02225 32.824 0.0667801 37.2396 1.9719C39.483 2.90669 41.0366 4.95424 41.7933 7.21549C43.0263 10.594 43.0619 14.2529 43.0886 17.8094C39.8347 17.8094 36.5809 17.8183 33.3315 17.805C33.278 15.3034 33.4695 12.4991 31.9204 10.3714C30.3535 8.76896 27.9054 8.77342 25.8267 8.52859C21.5981 8.44847 17.1957 8.17694 13.145 9.63696C11.685 10.0999 10.9283 11.5599 10.6345 12.9665C9.80217 16.7411 9.7977 20.6359 9.80217 24.4864C9.85111 29.632 9.77101 34.8532 10.8704 39.9142C11.1598 41.766 12.8646 42.9056 14.5739 43.315C18.5266 44.2988 22.653 44.1564 26.6902 43.9161C28.7956 43.6401 31.3595 43.5021 32.6815 41.5702C34.0925 39.2644 33.8567 36.429 33.781 33.8384C37.066 33.825 40.3467 33.8295 43.6317 33.8384C43.5916 37.9291 43.5204 42.1534 42.0337 46.0259C41.2681 48.0511 39.6878 49.7694 37.6403 50.5438C33.6208 52.1552 29.2141 52.2576 24.9497 52.5158C20.0044 52.6004 14.9968 52.4803 10.1627 51.3273C7.32726 50.5884 4.22918 49.2886 2.91609 46.4711C1.23796 42.7454 0.93082 38.6013 0.499061 34.5906C0.138501 29.2937 -0.0929741 23.9877 0.0361099 18.6819C0.289839 14.3864 0.68156 9.85952 3.00066 6.11601C4.23365 4.03284 6.39698 2.72861 8.64038 1.96302L8.64038 1.96302L8.64038 1.96302Z" transform="translate(171.81105 0.007397961)" id="C" fill="#050505" fill-rule="evenodd" stroke="none" />
        <path d="M0 0.0287245C3.39188 0.033152 6.78369 -0.0647632 10.1711 0.0776821C13.4695 10.5426 17.0928 20.9007 20.4223 31.3522C21.7178 35.3672 22.6347 39.4979 23.9744 43.4996C25.4745 39.1819 26.436 34.695 27.9049 30.3684C31.1588 20.2595 34.5016 10.182 37.751 0.0732246C41.0985 -0.0692169 44.4547 0.055432 47.8065 0.010902L47.8065 1.11926C42.2959 17.9138 36.9143 34.753 31.515 51.5875C26.4761 51.6899 21.4283 51.7033 16.3895 51.5787C11.0213 34.3656 5.39493 17.2328 0 0.0287245L0 0.0287245L0 0.0287245Z" transform="translate(217.04524 0.44160384)" id="V" fill="#050505" fill-rule="evenodd" stroke="none" />
      </g>
    </g>
  </g>
</svg>