<?xml version="1.0" encoding="utf-8"?>
<svg width="248px" height="101px" viewbox="0 0 248 101" version="1.1" xmlns:xlink="http://www.w3.org/1999/xlink" xmlns="http://www.w3.org/2000/svg">
  <defs>
    <path d="M0 0L247.163 0L247.163 100L0 100L0 0Z" id="path_1" />
    <clipPath id="mask_1">
      <use xlink:href="#path_1" />
    </clipPath>
  </defs>
  <g id="Pandas_logo">
    <path d="M0 0L247.163 0L247.163 100L0 100L0 0Z" id="Background" fill="none" fill-rule="evenodd" stroke="none" />
    <g clip-path="url(#mask_1)">
      <path d="M14.447 24.3954C11.3463 24.3954 8.18816 23.1122 6.21056 20.5972L6.21056 34.1837L0 34.1837L0 0.643096L5.61577 0.643096L5.83014 4.3326C7.75641 1.49754 11.1772 0 14.441 0C20.6999 0 25.3102 5.24441 25.3102 12.1977C25.3102 19.151 20.7059 24.3984 14.447 24.3954L14.447 24.3954ZM12.5238 4.60433C8.88561 4.60433 5.94487 7.43938 5.94487 12.2007C5.94487 16.962 8.8856 19.8031 12.5238 19.8031C16.162 19.8031 19.1027 16.9681 19.1027 12.2067C19.1027 7.44542 16.1619 4.60433 12.5238 4.60433L12.5238 4.60433Z" transform="translate(73.36734 35.750732)" id="Shape" fill="#130754" fill-rule="evenodd" stroke="none" />
      <path d="M19.6975 23.7493L19.4831 20.0598C17.5568 22.8948 14.133 24.3924 10.8692 24.3894C4.61037 24.3894 0 19.148 0 12.1947C0 5.24139 4.60131 -0.00301757 10.8692 2.30349e-06C14.133 2.30349e-06 17.5568 1.50962 19.4831 4.3326L19.6975 0.6431L25.3253 0.6431L25.3253 23.7493L19.6975 23.7493ZM12.7985 4.5983C9.16035 4.5983 6.21961 7.43336 6.2166 12.1947C6.21359 16.956 9.15734 19.7941 12.7955 19.7941C16.4337 19.7941 19.3774 16.959 19.3774 12.1977C19.3774 7.43637 16.4367 4.59829 12.7985 4.59829L12.7985 4.5983Z" transform="translate(102.388245 35.75978)" id="Shape" fill="#130754" fill-rule="evenodd" stroke="none" />
      <path d="M16.7447 23.7493L16.7447 10.9659C16.7447 6.47323 15.1958 4.9757 12.3607 4.9757C9.41699 4.9757 6.20754 7.64772 6.20754 10.8572L6.20754 23.7493L0 23.7493L0 0.640078L5.67314 0.640078L5.94186 4.92135C7.49375 1.9776 10.9689 0 14.5014 0C20.6516 0 22.9552 4.28127 22.9552 10.0027L22.9552 23.7523L16.7447 23.7493Z" transform="translate(132.66809 35.762802)" id="Shape" fill="#130754" fill-rule="evenodd" stroke="none" />
      <path d="M19.6945 32.0944L19.4801 28.4019C17.5538 31.237 14.13 32.7345 10.8692 32.7345C4.61037 32.7345 0 27.4901 0 20.5368C0 13.5835 4.60131 8.34214 10.8692 8.34214C13.97 8.34214 17.1251 9.62833 19.1057 12.1403L19.1057 0L25.3132 0L25.3132 32.0944L19.6945 32.0944ZM12.7955 12.9434C9.17243 12.9434 6.21661 15.7785 6.21661 20.5368C6.21661 25.2951 9.15734 28.1302 12.7955 28.1302C16.4337 28.1302 19.3744 25.2981 19.3744 20.5368C19.3744 15.7755 16.4427 12.9434 12.7955 12.9434L12.7955 12.9434Z" transform="translate(158.67274 27.42369)" id="Shape" fill="#130754" fill-rule="evenodd" stroke="none" />
      <path d="M19.6975 23.7523L19.4831 20.0628C17.5568 22.8979 14.133 24.3924 10.8692 24.3924C4.61037 24.3924 0 19.151 0 12.1947C0 5.23837 4.60131 0 10.8692 0C14.133 0 17.5568 1.50962 19.4831 4.33562L19.6975 0.643098L25.3132 0.643098L25.3132 23.7493L19.6975 23.7523ZM12.7985 4.60131C9.17547 4.60131 6.21965 7.43637 6.21662 12.1977C6.2136 16.959 9.16038 19.785 12.7955 19.785C16.4307 19.785 19.3774 16.95 19.3774 12.1886C19.3774 7.42731 16.4367 4.60132 12.7985 4.60132L12.7985 4.60131Z" transform="translate(187.60303 35.768845)" id="Shape" fill="#130754" fill-rule="evenodd" stroke="none" />
      <path d="M9.25396 24.5524C5.98958 24.5253 2.79283 23.619 0 21.9287L1.01748 17.6504C2.88941 18.7736 5.72447 20.2198 9.14827 20.2198C11.609 20.2198 13.3209 19.471 13.3209 17.5448C13.3209 15.8872 11.5546 15.2985 8.39951 14.5497C2.72938 13.3178 0.697442 10.3228 0.697442 7.05897C0.697442 3.42079 3.53251 0 9.79137 0C13.5896 0 16.9077 1.65756 17.6414 2.08629L16.6239 6.1532C14.6029 4.93657 12.2978 4.2723 9.93933 4.22692C7.42733 4.22692 6.19547 5.08137 6.19547 6.47323C6.19547 8.0221 7.80171 8.71954 10.2594 9.30829C16.3582 10.5915 18.8189 13.4265 18.8189 16.5303C18.831 21.503 15.1928 24.5524 9.25396 24.5524L9.25396 24.5524Z" transform="translate(217.4089 35.720535)" id="Shape" fill="#130754" fill-rule="evenodd" stroke="none" />
      <path d="M0 0L7.27333 0L7.27333 15.1022L0 15.1022L0 0Z" transform="translate(22.608002 20.657593)" id="Rectangle" fill="#130754" fill-rule="evenodd" stroke="none" />
      <path d="M0 0L7.27333 0L7.27333 15.1022L0 15.1022L0 0Z" transform="translate(22.608002 51.680214)" id="Rectangle" fill="#130754" fill-rule="evenodd" stroke="none" />
      <path d="M0 0L7.27333 0L7.27333 7.12539L0 7.12539L0 0Z" transform="translate(22.608002 40.167862)" id="Rectangle" fill="#FFCA00" fill-rule="evenodd" stroke="none" />
      <path d="M0 0L7.27333 0L7.27333 50.2008L0 50.2008L0 0Z" transform="translate(10.926605 33.0757)" id="Rectangle" fill="#130754" fill-rule="evenodd" stroke="none" />
      <path d="M0 0L7.27333 0L7.27333 15.1022L0 15.1022L0 0Z" transform="translate(34.050903 64.14058)" id="Rectangle" fill="#130754" fill-rule="evenodd" stroke="none" />
      <path d="M0 0L7.27333 0L7.27333 15.1022L0 15.1022L0 0Z" transform="translate(34.050903 33.09381)" id="Rectangle" fill="#130754" fill-rule="evenodd" stroke="none" />
      <path d="M0 0L7.27333 0L7.27333 7.12539L0 7.12539L0 0Z" transform="translate(34.050903 52.604088)" id="Rectangle" fill="#E70488" fill-rule="evenodd" stroke="none" />
      <path d="M0 0L7.27333 0L7.27333 50.2008L0 50.2008L0 0Z" transform="translate(45.490784 16.723526)" id="Rectangle" fill="#130754" fill-rule="evenodd" stroke="none" />
    </g>
  </g>
</svg>