<?xml version="1.0" encoding="utf-8"?>
<svg width="339px" height="100px" viewbox="0 0 339 100" version="1.1" xmlns:xlink="http://www.w3.org/1999/xlink" xmlns="http://www.w3.org/2000/svg">
  <g id="Group">
    <path d="M21.7075 36.6556C17.0485 36.6556 12.3032 34.7275 9.33175 30.9486L9.33175 51.3631L0 51.3631L0 0.966293L8.43805 0.966293L8.76015 6.51C11.6545 2.25015 16.7944 0 21.6985 0C31.1029 0 38.0302 7.88006 38.0302 18.3278C38.0302 28.7756 31.1119 36.6601 21.7075 36.6556L21.7075 36.6556L21.7075 36.6556ZM18.8178 6.9183C13.3512 6.9183 8.93254 11.1781 8.93254 18.3323C8.93254 25.4865 13.3512 29.7554 18.8178 29.7554C24.2844 29.7554 28.703 25.4956 28.703 18.3413C28.703 11.1872 24.2843 6.9183 18.8178 6.9183L18.8178 6.9183L18.8178 6.9183Z" transform="translate(93.8211 28.589561)" id="Shape" fill="#130754" fill-rule="evenodd" stroke="none" />
    <path d="M29.5967 35.6848L29.2746 30.1411C26.3802 34.4009 21.2357 36.6511 16.3317 36.6466C6.92737 36.6466 0 28.7711 0 18.3233C0 7.87551 6.91376 -0.0045396 16.3317 4.54747e-13C21.2357 4.54747e-13 26.3802 2.26829 29.2746 6.51L29.5967 0.966293L38.0529 0.966293L38.0529 35.6848L29.5967 35.6848L29.5967 35.6848ZM19.2305 6.90923C13.764 6.90923 9.34536 11.1691 9.34083 18.3233C9.33631 25.4774 13.7595 29.7419 19.226 29.7419C24.6927 29.7419 29.1158 25.4819 29.1158 18.3278C29.1158 11.1736 24.6972 6.90921 19.2305 6.90921L19.2305 6.90923L19.2305 6.90923Z" transform="translate(137.42682 28.603165)" id="Shape#1" fill="#130754" fill-rule="evenodd" stroke="none" />
    <path d="M25.16 35.6848L25.16 16.4769C25.16 9.72643 22.8326 7.4763 18.5727 7.4763C14.1496 7.4763 9.3272 11.4912 9.3272 16.3136L9.3272 35.6848L0 35.6848L0 0.961759L8.52425 0.961759L8.92802 7.39463C11.2598 2.97147 16.4815 0 21.7893 0C31.0303 0 34.4916 6.43287 34.4916 15.0297L34.4916 35.6893L25.16 35.6848L25.16 35.6848Z" transform="translate(182.9242 28.6077)" id="Shape#2" fill="#130754" fill-rule="evenodd" stroke="none" />
    <path d="M29.5922 48.2238L29.2701 42.6756C26.3757 46.9355 21.2312 49.1856 16.3317 49.1856C6.92737 49.1856 0 41.3056 0 30.8578C0 20.4101 6.91375 12.5346 16.3317 12.5346C20.9908 12.5346 25.7316 14.4672 28.7075 18.2416L28.7075 0L38.0347 0L38.0347 48.2238L29.5922 48.2238L29.5922 48.2238ZM19.2261 19.4483C13.7821 19.4483 9.34086 23.7082 9.34086 30.8578C9.34086 38.0075 13.7595 42.2674 19.2261 42.2674C24.6927 42.2674 29.1113 38.012 29.1113 30.8578C29.1113 23.7037 24.7062 19.4483 19.2261 19.4483L19.2261 19.4483L19.2261 19.4483Z" transform="translate(221.99779 16.077663)" id="Shape#3" fill="#130754" fill-rule="evenodd" stroke="none" />
    <path d="M29.5967 35.6893L29.2746 30.1456C26.3802 34.4055 21.2357 36.6511 16.3317 36.6511C6.92736 36.6511 0 28.7756 0 18.3233C0 7.87098 6.91375 0 16.3317 0C21.2357 0 26.3802 2.2683 29.2746 6.51454L29.5967 0.966293L38.0347 0.966293L38.0347 35.6848L29.5967 35.6893L29.5967 35.6893ZM19.2305 6.91376C13.7867 6.91376 9.34541 11.1736 9.34085 18.3278C9.33631 25.482 13.7641 29.7282 19.226 29.7282C24.6881 29.7282 29.1157 25.4684 29.1157 18.3141C29.1157 11.16 24.6972 6.91377 19.2305 6.91377L19.2305 6.91376L19.2305 6.91376Z" transform="translate(265.46732 28.61678)" id="Shape#4" fill="#130754" fill-rule="evenodd" stroke="none" />
    <path d="M13.9047 36.8915C8.99972 36.8508 4.1964 35.489 0 32.9492L1.52884 26.5208C4.34151 28.2085 8.60138 30.3815 13.7458 30.3815C17.4432 30.3815 20.0155 29.2564 20.0155 26.3622C20.0155 23.8715 17.3615 22.9869 12.6208 21.8618C4.10107 20.0108 1.04796 15.5106 1.04796 10.6065C1.04796 5.13995 5.30783 0 14.7121 0C20.4192 0 25.4049 2.49058 26.5073 3.13478L24.9785 9.24556C21.9418 7.4175 18.4782 6.4194 14.9345 6.35121C11.16 6.35121 9.30907 7.63508 9.30907 9.72643C9.30907 12.0537 11.7226 13.1017 15.4154 13.9863C24.5792 15.9144 28.2766 20.1742 28.2766 24.8378C28.2947 32.3096 22.8281 36.8915 13.9047 36.8915L13.9047 36.8915L13.9047 36.8915Z" transform="translate(310.25253 28.544197)" id="Shape#5" fill="#130754" fill-rule="evenodd" stroke="none" />
    <path d="M0 0L10.9286 0L10.9286 22.692L0 22.692L0 0L0 0Z" transform="translate(17.552027 5.9111805)" id="Rectangle" fill="#130754" fill-rule="evenodd" stroke="none" />
    <path d="M0 0L10.9286 0L10.9286 22.692L0 22.692L0 0L0 0Z" transform="translate(17.552027 52.524597)" id="Rectangle#1" fill="#130754" fill-rule="evenodd" stroke="none" />
    <path d="M0 0L10.9286 0L10.9286 10.7063L0 10.7063L0 0L0 0Z" transform="translate(17.552027 35.22658)" id="Rectangle#2" fill="#FFCA00" fill-rule="evenodd" stroke="none" />
    <path d="M0 0L10.9286 0L10.9286 75.4298L0 75.4298L0 0L0 0Z" transform="translate(0 24.57016)" id="Rectangle#3" fill="#130754" fill-rule="evenodd" stroke="none" />
    <path d="M0 0L10.9286 0L10.9286 22.692L0 22.692L0 0L0 0Z" transform="translate(34.7457 71.24708)" id="Rectangle#4" fill="#130754" fill-rule="evenodd" stroke="none" />
    <path d="M0 0L10.9286 0L10.9286 22.692L0 22.692L0 0L0 0Z" transform="translate(34.7457 24.597374)" id="Rectangle#5" fill="#130754" fill-rule="evenodd" stroke="none" />
    <path d="M0 0L10.9286 0L10.9286 10.7063L0 10.7063L0 0L0 0Z" transform="translate(34.7457 53.91278)" id="Rectangle#6" fill="#E70488" fill-rule="evenodd" stroke="none" />
    <path d="M0 0L10.9286 0L10.9286 75.4298L0 75.4298L0 0L0 0Z" transform="translate(51.934834 0)" id="Rectangle#7" fill="#130754" fill-rule="evenodd" stroke="none" />
  </g>
</svg>