<?xml version="1.0" encoding="utf-8"?>
<svg width="517px" height="105px" viewbox="0 0 517 105" version="1.1" xmlns:xlink="http://www.w3.org/1999/xlink" xmlns="http://www.w3.org/2000/svg">
  <defs>
    <path d="M0 0L512.381 0L512.381 100L0 100L0 0Z" id="path_1" />
    <path d="M0 0L507.936 0L507.936 95.2381L0 95.2381L0 0L0 0Z" id="path_2" />
    <clipPath id="mask_1">
      <use xlink:href="#path_1" />
    </clipPath>
    <clipPath id="mask_2">
      <use xlink:href="#path_2" />
    </clipPath>
  </defs>
  <g id="postgresql" transform="translate(2.054 2.054)">
    <path d="M0 0L512.381 0L512.381 100L0 100L0 0Z" id="Background" fill="none" fill-rule="evenodd" stroke="none" />
    <g clip-path="url(#mask_1)">
      <g id="postgresql-horizontal" transform="translate(1.9561902 1.9561903)">
        <path d="M0 0L507.936 0L507.936 95.2381L0 95.2381L0 0L0 0Z" id="Background" fill="none" fill-rule="evenodd" stroke="none" />
        <g id="Mask-group">
          <path d="M0 0L507.936 0L507.936 95.2381L0 95.2381L0 0L0 0Z" id="path_1" fill="none" fill-rule="evenodd" stroke="none" />
          <g clip-path="url(#mask_2)">
            <g id="Group" transform="translate(19.316256 13.994358)">
              <path d="M23.7333 22.1302L5.31426 22.1302L5.31426 3.60635L24.7333 3.60635C31.8412 3.60635 35.3952 6.74127 35.3952 13.0127C35.3952 19.0921 31.5064 22.1333 23.7333 22.1333M36.9714 3.39048C34.4317 1.13016 30.9159 0 26.3778 0L0 0.14603L0 44.4635L5.31429 44.4635L5.26667 25.5969L24.8952 25.5969C29.8158 25.5969 33.692 24.4667 36.5191 22.2064C39.346 19.946 40.7603 16.8095 40.7603 12.7984C40.7603 8.78729 39.4984 5.65238 36.9746 3.39048L36.9714 3.39048L36.9714 3.39048ZM71.3714 35.1571C70.8632 36.6069 69.9953 37.904 68.8491 38.9269C66.4682 41.2508 62.8365 42.4111 57.9508 42.4111C53.5381 42.4111 50.1539 41.3 47.792 39.0238C45.4301 36.7476 44.2476 33.7429 44.2476 29.9555C44.2476 27.9841 44.5571 26.2333 45.1746 24.7064C45.792 23.1793 46.6889 21.8905 47.8634 20.8397C50.3079 18.6127 53.6698 17.4984 57.9524 17.4984C67.4381 17.4984 72.1826 21.6508 72.1826 29.9555C72.1826 31.9286 71.9127 33.6619 71.3889 35.1571M72.3524 18.8079C69.1143 15.8555 64.3207 14.3635 57.9683 14.3635C51.9683 14.3635 47.3301 15.8714 44.0603 18.8873C41.1079 21.6174 39.6158 25.3 39.6158 29.9381C39.6158 34.5412 41.1396 38.2555 44.1872 41.081C45.8698 42.6048 47.8301 43.7095 50.0698 44.3921C52.3095 45.0746 54.9365 45.4159 57.9524 45.4159C64.2698 45.4159 69.0635 43.9555 72.3841 41.035C75.3365 38.3683 76.8286 34.6857 76.8286 29.9365C76.8286 25.1746 75.3365 21.4603 72.3524 18.7905L72.3524 18.8079L72.3524 18.8079ZM112.54 36.4381C112.54 42.4031 107.195 45.3857 96.5076 45.3857C93.2412 45.3857 90.4889 45.1793 88.254 44.7635C86.0191 44.3476 84.2016 43.6603 82.8064 42.7031C81.7294 41.9748 80.8472 40.9938 80.2365 39.846C79.6015 38.6714 79.1889 37.1952 78.9984 35.4016L83.9714 35.354C83.9714 37.7031 84.8412 39.4302 86.5826 40.5412C88.4508 41.8746 91.7571 42.5412 96.5076 42.5412C103.978 42.5412 107.714 40.6683 107.714 36.9254C107.714 34.735 106.445 33.2302 103.955 32.4016C103.448 32.2429 100.427 31.8222 94.9079 31.1412C89.3889 30.4604 85.9238 29.8476 84.5619 29.3079C81.6127 28.1333 80.1381 26.0223 80.1381 22.9778C80.1381 19.9937 81.4555 17.7714 84.1064 16.3143C85.4079 15.7111 87.035 15.2445 88.9889 14.9095C90.9429 14.5747 93.2048 14.4095 95.7762 14.4095C106.065 14.4095 111.21 17.6381 111.21 24.0921L106.479 24.0921C106.479 19.5524 102.86 17.2667 95.6305 17.2667C91.9508 17.2667 89.2063 17.7429 87.3984 18.6476C85.5905 19.5524 84.6872 20.981 84.6872 22.8857C84.6872 24.6635 85.9095 25.9492 88.3508 26.7429C89.7794 27.1556 93.0619 27.6318 98.2019 28.1714C102.802 28.5842 105.959 29.1714 107.671 29.9175C110.941 31.1873 112.573 33.3461 112.573 36.389L112.54 36.4381L112.54 36.4381ZM132.073 44.5222L130.05 44.8079L128.788 44.9031C125.55 44.9031 123.231 44.4349 121.783 43.4952C120.333 42.5555 119.635 40.9127 119.635 38.5746L119.635 18.3286L113.752 18.3286L113.752 15.354L119.605 15.354L119.652 5.79841L124.186 5.79841L124.186 15.354L132.081 15.354L132.081 18.3762L124.186 18.3286L124.186 38.0064C124.186 39.4714 124.574 40.4826 125.352 41.0222C126.13 41.5619 127.517 41.8571 129.517 41.8571C129.803 41.8889 130.121 41.8793 130.47 41.8254C130.999 41.7311 131.524 41.6114 132.041 41.4667L132.089 44.4826L132.073 44.5222L132.073 44.5222ZM163.431 37.8079C162.192 38.8238 160.783 39.5984 159.197 40.1412C157.611 40.6841 155.788 40.935 153.727 40.935C144.245 40.935 139.505 37.019 139.505 29.1889C139.505 25.5429 140.717 22.6889 143.145 20.6269C145.571 18.565 148.986 17.535 153.395 17.535C157.835 17.535 161.205 18.5746 163.503 20.6508C165.802 22.727 166.952 25.5111 166.952 29C166.952 32.8048 165.778 35.7381 163.431 37.7984M171.488 15.3619L166.954 15.3619L166.907 20.3619C164.907 18.3302 163.478 17.0492 162.621 16.5095C160.081 15.1127 156.798 14.4174 152.769 14.4174C146.867 14.4174 142.359 15.7667 139.25 18.4619C136.298 20.9381 134.826 24.5207 134.826 29.2143C134.826 31.5317 135.198 33.5984 135.945 35.4048C136.69 37.2111 137.779 38.7746 139.21 40.0429C142.324 42.6429 146.726 43.9445 152.416 43.9445C159.248 43.9445 164.093 42.0762 166.955 38.3381L166.955 43.5127C166.955 46.8143 165.916 49.3667 163.838 51.1762C161.76 52.9857 158.341 53.8746 153.581 53.8746C149.105 53.8746 145.917 53.2396 144.014 52.027C142.586 51.0793 141.602 49.4365 141.062 47.0984L136.395 47.0984C136.903 50.3634 138.3 52.7254 140.522 54.1826C143.126 55.8619 147.507 56.7016 153.697 56.7016C165.538 56.7016 171.474 52.3 171.474 43.4952L171.474 15.3746L171.488 15.3619L171.488 15.3619ZM196.011 18.3031C194.646 18.081 193.379 17.9857 192.208 17.9857C184.755 17.9857 181.03 22.073 181.03 30.2445L181.03 44.4571L176.545 44.4571L176.497 15.3746L181.031 15.419L181.031 20.6095L181.27 20.6095C182.031 18.565 183.238 17.0143 184.886 15.9588C186.692 14.9365 189.388 14.4254 192.971 14.4254L196.014 14.4254L196.014 18.3302L196.011 18.3031L196.011 18.3031ZM200.229 28.0778C200.8 24.773 202.086 22.2143 204.081 20.4016C205.383 19.354 206.859 18.565 208.507 18.0412C210.154 17.5174 211.998 17.254 214.074 17.254C218.103 17.254 221.376 18.3588 223.948 20.5683C226.519 22.7778 227.776 25.2826 227.776 28.0762L200.229 28.0762M228.217 19.1048C226.63 17.5127 224.662 16.3365 222.312 15.5714C219.964 14.8064 217.233 14.4254 214.059 14.4254C208.186 14.4254 203.63 15.7905 200.389 18.5207C197.148 21.2508 195.531 24.965 195.531 29.6667C195.531 34.3682 197.088 38.0793 200.198 40.8571C203.564 43.9048 208.293 45.4286 214.433 45.4286C216.878 45.4286 219.136 45.1508 221.216 44.5984C223.295 44.046 225.112 43.2619 226.667 42.2492C229.397 40.2889 231.124 37.8683 231.857 34.9952L226.955 34.9952C225.273 39.9683 221.088 42.4555 214.393 42.4555C209.667 42.4555 206.033 41.2397 203.497 38.8079C201.307 36.7238 200.214 34.0238 200.214 30.7064L232.536 30.7064C232.536 25.773 231.108 21.9048 228.203 19.119L228.217 19.1048L228.217 19.1048Z" transform="translate(93.59806 11.800884)" id="Shape" fill="#231F20" fill-rule="evenodd" stroke="none" />
              <path d="M43.8778 33.6079C43.8778 42.2429 36.9143 46.5603 22.9857 46.5603C14.6412 46.5603 8.54922 45.0731 4.7111 42.1159C1.56825 39.6714 0 35.9445 0 30.9286L5.60634 30.9286C5.60634 38.9889 11.4 43.019 22.9841 43.019C28.5397 43.019 32.5555 42.1936 35.0476 40.546C37.1428 39.0889 38.1905 36.8048 38.1905 33.6984C38.1905 30.6222 36.7619 28.4667 33.9048 27.2286C32.2857 26.5619 28.3492 25.7207 22.0476 24.7079C14.1429 23.5016 9.01905 22.2984 6.66983 21.0936C3.27299 19.3159 1.59049 16.3048 1.59049 12.0555C1.59049 8.09206 3.01903 5.14286 5.92381 3.20793C9.03492 1.08412 14.3683 0.0206339 21.9207 0.0206339C35.5714 0.0206339 42.3968 4.55396 42.3968 13.6207L36.7412 13.6207C36.7412 6.82698 31.6731 3.43333 21.5381 3.43333C16.4539 3.43333 12.7365 4.11588 10.3857 5.49683C8.16031 6.95714 7.05235 9.1 7.05235 11.9254C7.05235 14.8778 8.48089 16.9571 11.3381 18.1635C12.8619 18.8619 17.3381 19.8302 24.7667 21.0683C31.7507 22.1159 36.465 23.3381 38.8936 24.719C42.2269 26.4333 43.8936 29.4016 43.8936 33.6079L43.8778 33.6079L43.8778 33.6079ZM89.4333 38.0143C87.3381 39.6921 84.9699 40.9508 82.3334 41.7921C79.6969 42.6333 76.7413 43.0508 73.4699 43.0508C66.7969 43.0508 61.4064 41.2524 57.289 37.6571C53.1714 34.0619 51.119 29.2698 51.119 23.281C51.119 17.0397 53.1588 12.1762 57.2413 8.69046C61.3238 5.20475 66.7334 3.46349 73.4683 3.46349C80.2985 3.46349 85.6683 5.28571 89.5762 8.92857C91.6397 10.7064 93.1635 12.7793 94.1508 15.1555C95.1381 17.5317 95.6266 20.2412 95.6266 23.2826C95.6266 29.4921 93.5603 34.4031 89.4302 38.0127M92.4111 40.9524C95.3314 38.8921 97.4933 36.3969 98.8924 33.4635C100.29 30.5302 100.99 27.146 100.99 23.3079C100.99 16.427 98.7048 10.927 94.1333 6.75555C91.6889 4.47302 88.7365 2.77619 85.2762 1.66667C81.8159 0.557144 77.8634 0 73.419 0C64.7841 0 58.0222 2.09524 53.1016 6.27778C48.1809 10.4603 45.7207 16.1381 45.7207 23.3048C45.7207 30.2793 48.2031 35.9079 53.1698 40.1873C58.1365 44.4667 64.9206 46.6079 73.519 46.6079C76.8841 46.6079 79.8174 46.381 82.3238 45.9254C84.8302 45.4698 86.9587 44.7714 88.7048 43.8302L96.9876 49.5714L100.448 46.3936L92.4268 40.954L92.4111 40.9524L92.4111 40.9524ZM142.967 45.4873L104.64 45.4873L104.64 1.10634L109.907 1.01111L109.907 41.7683L142.998 41.7683L142.95 45.473L142.967 45.4873L142.967 45.4873Z" transform="translate(330.17105 10.772318)" id="Shape#1" fill="#367FAF" fill-rule="evenodd" stroke="none" />
              <path d="M57.1939 48.7116C57.7272 44.9497 57.5669 44.3973 60.8732 45.0069L61.7145 45.0704C64.2573 45.1688 67.5828 44.7244 69.5368 43.9545C73.743 42.3006 76.2351 39.5387 72.0891 40.264C62.6288 41.918 61.978 39.2006 61.978 39.2006C71.9669 26.637 76.1431 10.6879 72.5399 6.7831C62.6907 -3.86294 45.6907 1.17198 45.3891 1.30373L45.2987 1.3196C43.4288 0.991031 41.3368 0.795791 38.9875 0.764042C34.7066 0.703726 31.459 1.71642 28.9939 3.29896C28.9939 3.29896 -1.36486 -7.30421 0.0478381 16.6323C0.349424 21.7244 8.65895 55.1609 18.5685 45.0609C22.1907 41.3672 25.6923 38.245 25.6923 38.245C27.5182 39.2675 29.6086 39.7198 31.6939 39.5434L31.8621 39.4212C31.8097 39.8815 31.8304 40.3259 31.9304 40.8592C29.378 43.2768 30.1272 43.7006 25.0225 44.5926C19.859 45.4942 22.8923 47.1006 24.8732 47.5212C27.2748 48.0291 32.8304 48.7513 36.5844 44.299L36.4352 44.8069C37.4352 45.4863 37.3685 49.6878 37.5113 52.691C37.6542 55.6942 37.8923 58.4958 38.6129 60.1482C39.3335 61.8006 40.1875 66.053 46.8954 64.8371C52.5018 63.818 56.7892 62.353 57.1811 48.718" transform="translate(0.05653926 0.09874253)" id="Shape#2" fill="#231F20" fill-rule="evenodd" stroke="#231F20" stroke-width="4.108" />
              <path d="M72.0907 40.2632C62.6304 41.9172 61.9795 39.1997 61.9795 39.1997C71.9685 26.6347 76.1447 10.6854 72.5414 6.78228C62.7097 -3.86376 45.6938 1.17275 45.3923 1.3045L45.3002 1.32037C43.4304 0.9918 41.3383 0.79656 38.9875 0.764812C34.7066 0.706082 31.459 1.71719 28.9954 3.29973C28.9954 3.29973 -1.36488 -7.30344 0.0478181 16.6331C0.349404 21.7251 8.65734 55.1632 18.5685 45.0616C22.1907 41.368 25.6907 38.2458 25.6907 38.2458C27.5166 39.2683 29.607 39.7206 31.6923 39.5442L31.8621 39.422C31.8097 39.8823 31.8335 40.3268 31.9304 40.86C29.378 43.2775 30.1271 43.7013 25.0256 44.5933C19.8605 45.495 22.8954 47.1013 24.8764 47.522C27.278 48.0299 32.8335 48.7521 36.5875 44.2997L36.4383 44.8077C37.4383 45.4871 38.1414 49.2252 38.0256 52.6172C37.9097 56.0092 37.8288 58.3315 38.6176 60.1505C39.4066 61.9696 40.1923 66.0552 46.9033 64.8394C52.5097 63.8204 55.4161 61.1823 55.8192 56.779C56.105 53.649 56.7557 54.1124 56.7954 51.314L57.3161 49.9902C57.9161 45.7473 57.4113 44.379 60.8652 45.0156L61.7066 45.0791C64.2494 45.1775 67.5764 44.7331 69.5288 43.9632C73.7351 42.3092 76.2271 39.5473 72.0812 40.2728L72.0907 40.2632L72.0907 40.2632Z" transform="translate(0.05338396 0.097974144)" id="Shape#3" fill="#417BA2" fill-rule="evenodd" stroke="none" />
              <g id="Group">
                <g id="Group#1">
                  <path d="M37.0615 42.7946C36.8012 50.6882 37.125 58.639 38.0377 60.5723C38.9504 62.5056 40.9012 66.2628 47.6123 65.0437C53.2187 64.0247 55.2584 62.0532 56.1425 57.7009C56.7774 54.4993 58.052 45.6056 58.2124 43.785M29.017 3.21675C29.017 3.21675 -1.37975 -7.30705 0.0488227 16.6406C0.366282 21.7327 8.65835 55.1707 18.5727 45.0532C22.1949 41.3596 25.4694 38.4628 25.4694 38.4628M45.4456 1.29612C44.3932 1.57549 62.3456 -4.26579 72.5472 6.78342C76.1504 10.6882 71.9758 26.6374 61.9853 39.2025" id="Shape#4" fill="none" fill-rule="evenodd" stroke="#FFFFFF" stroke-width="1.369" stroke-linecap="round" stroke-linejoin="round" />
                  <path d="M40.7008 38.4453C40.7008 38.4453 41.3357 41.1596 50.8119 39.5056C54.9579 38.7803 52.4627 41.5422 48.2564 43.1977C44.8055 44.5549 37.069 44.9025 36.9436 43.0279C36.6183 38.1866 41.015 39.658 40.6976 38.4453C40.4119 37.3532 38.4436 36.2818 37.1421 33.6089C36.0071 31.2755 21.5706 13.3834 41.1452 16.0406C41.8627 15.9136 36.0389 0.256446 17.7167 0.00247774C-0.605581 -0.25149 0.00235785 19.0977 0.00235785 19.0977" transform="translate(21.268684 0.75554436)" id="Shape#5" fill="none" fill-rule="evenodd" stroke="#FFFFFF" stroke-width="1.369" stroke-linecap="round" stroke-linejoin="bevel" />
                </g>
                <g id="Group#2" transform="translate(20.965107 16.865711)">
                  <path d="M9.76352 0.888047C7.20796 3.3055 7.96035 3.72932 2.85558 4.62138C-2.3095 5.52614 0.725421 7.12932 2.70638 7.54996C5.10796 8.05789 10.6635 8.78012 14.4175 4.32456C15.5604 2.96742 14.4111 0.800745 12.8413 0.251537C12.0826 -0.015128 11.0683 -0.34846 9.7619 0.886459L9.76352 0.888047L9.76352 0.888047Z" transform="translate(1.2059127 23.102676)" id="Shape#6" fill="none" fill-rule="evenodd" stroke="#FFFFFF" stroke-width="1.369" stroke-linejoin="round" />
                  <path d="M10.8028 23.9494C10.5456 22.5272 11.3535 20.8384 12.2202 18.8574C13.5218 15.8891 16.525 12.9177 14.1249 3.49707C12.3345 -3.52356 0.320231 2.03675 0.315468 2.98913C0.310702 3.94151 0.858321 7.81453 0.113878 12.3225C-0.857551 18.2082 4.53133 23.1844 10.7361 22.6765" id="Shape#7" fill="none" fill-rule="evenodd" stroke="#FFFFFF" stroke-width="1.369" stroke-linecap="round" stroke-linejoin="round" />
                </g>
              </g>
              <g id="Group#3" transform="translate(28.90643 18.62873)">
                <path d="M0.00271388 0.414836C-0.0512586 0.740233 0.705886 1.60532 1.6916 1.72277C2.67731 1.84023 3.51699 1.16087 3.57256 0.837057C3.62811 0.513248 2.87097 0.154517 1.88366 0.0370571C0.89637 -0.0804029 0.0550951 0.091026 0.00271388 0.414836L0.00271388 0.414836L0.00271388 0.414836Z" transform="translate(0 0.6652506)" id="Shape#8" fill="#FFFFFF" fill-rule="evenodd" stroke="#FFFFFF" stroke-width="0.456" />
                <path d="M3.57415 0.418182C3.62812 0.743579 2.87256 1.60866 1.88527 1.72611C0.897965 1.84358 0.05669 1.16421 0.00271752 0.837228C-0.0512477 0.510247 0.705893 0.154688 1.6916 0.0372278C2.67732 -0.0802285 3.517 0.0896127 3.57256 0.41501L3.57415 0.418182L3.57415 0.418182Z" transform="translate(26.414276 0)" id="Shape#9" fill="#FFFFFF" fill-rule="evenodd" stroke="#FFFFFF" stroke-width="0.228" />
              </g>
              <path d="M2.10317 0C2.26507 2.55079 1.45555 4.28571 1.35238 7.00317C1.20158 10.9492 3.57142 15.4635 0 19.9873" transform="translate(60.315495 16.796122)" id="Shape#10" fill="none" fill-rule="evenodd" stroke="#FFFFFF" stroke-width="1.369" stroke-linecap="round" stroke-linejoin="round" />
            </g>
          </g>
        </g>
      </g>
    </g>
  </g>
</svg>