<?xml version="1.0" encoding="utf-8"?>
<svg width="538px" height="105px" viewbox="0 0 538 105" version="1.1" xmlns:xlink="http://www.w3.org/1999/xlink" xmlns="http://www.w3.org/2000/svg">
  <defs>
    <path d="M0 0L533.333 0L533.333 100L0 100L0 0Z" id="path_1" />
    <clipPath id="mask_1">
      <use xlink:href="#path_1" />
    </clipPath>
  </defs>
  <g id="postgresql-horizontal" transform="translate(2.054 2.054)">
    <path d="M0 0L533.333 0L533.333 100L0 100L0 0Z" id="Background" fill="none" fill-rule="evenodd" stroke="none" />
    <g clip-path="url(#mask_1)">
      <path d="M24.92 23.2367L5.57997 23.2367L5.57997 3.78667L25.97 3.78667C33.4333 3.78667 37.165 7.07833 37.165 13.6633C37.165 20.0467 33.0817 23.24 24.92 23.24M38.82 3.56C36.1533 1.18667 32.4617 0 27.6967 0L0 0.153332L0 46.6867L5.58 46.6867L5.53 26.8767L26.14 26.8767C31.3066 26.8767 35.3766 25.69 38.345 23.3167C41.3133 20.9433 42.7983 17.65 42.7983 13.4383C42.7983 9.22666 41.4733 5.935 38.8233 3.56L38.82 3.56ZM74.94 36.915C74.4063 38.4372 73.4951 39.7992 72.2916 40.8733C69.7916 43.3133 65.9783 44.5317 60.8483 44.5317C56.215 44.5317 52.6616 43.365 50.1816 40.975C47.7016 38.585 46.46 35.43 46.46 31.4533C46.46 29.3833 46.785 27.545 47.4333 25.9417C48.0816 24.3383 49.0233 22.985 50.2566 21.8817C52.8233 19.5433 56.3533 18.3733 60.85 18.3733C70.81 18.3733 75.7917 22.7333 75.7917 31.4533C75.7917 33.525 75.5083 35.345 74.9583 36.915M75.97 19.7483C72.57 16.6483 67.5367 15.0817 60.8667 15.0817C54.5667 15.0817 49.6966 16.665 46.2633 19.8317C43.1633 22.6983 41.5966 26.565 41.5966 31.435C41.5966 36.2683 43.1966 40.1683 46.3966 43.135C48.1633 44.735 50.2216 45.895 52.5733 46.6117C54.925 47.3283 57.6833 47.6867 60.85 47.6867C67.4833 47.6867 72.5167 46.1533 76.0033 43.0867C79.1033 40.2867 80.67 36.42 80.67 31.4333C80.67 26.4333 79.1033 22.5333 75.97 19.73L75.97 19.7483ZM118.167 38.26C118.167 44.5233 112.555 47.655 101.333 47.655C97.9033 47.655 95.0133 47.4383 92.6667 47.0017C90.32 46.565 88.4117 45.8433 86.9467 44.8383C85.8159 44.0735 84.8896 43.0435 84.2483 41.8383C83.5816 40.605 83.1483 39.055 82.9483 37.1717L88.17 37.1217C88.17 39.5883 89.0833 41.4017 90.9117 42.5683C92.8733 43.9683 96.345 44.6683 101.333 44.6683C109.177 44.6683 113.1 42.7017 113.1 38.7717C113.1 36.4717 111.767 34.8917 109.153 34.0217C108.62 33.855 105.448 33.4133 99.6533 32.6983C93.8583 31.9834 90.22 31.34 88.79 30.7733C85.6933 29.54 84.145 27.3234 84.145 24.1267C84.145 20.9934 85.5283 18.66 88.3117 17.13C89.6783 16.4967 91.3867 16.0067 93.4383 15.655C95.49 15.3034 97.865 15.13 100.565 15.13C111.368 15.13 116.77 18.52 116.77 25.2967L111.803 25.2967C111.803 20.53 108.003 18.13 100.412 18.13C96.5483 18.13 93.6666 18.63 91.7683 19.58C89.87 20.53 88.9216 22.03 88.9216 24.03C88.9216 25.8967 90.205 27.2467 92.7683 28.08C94.2683 28.5134 97.715 29.0134 103.112 29.58C107.942 30.0134 111.257 30.63 113.055 31.4134C116.488 32.7467 118.202 35.0134 118.202 38.2084L118.167 38.26ZM138.677 46.7483L136.552 47.0483L135.227 47.1483C131.827 47.1483 129.393 46.6567 127.872 45.67C126.35 44.6833 125.617 42.9583 125.617 40.5033L125.617 19.245L119.44 19.245L119.44 16.1217L125.585 16.1217L125.635 6.08833L130.395 6.08833L130.395 16.1217L138.685 16.1217L138.685 19.295L130.395 19.245L130.395 39.9067C130.395 41.445 130.803 42.5067 131.62 43.0733C132.437 43.64 133.893 43.95 135.993 43.95C136.293 43.9833 136.627 43.9733 136.993 43.9167C137.549 43.8177 138.1 43.692 138.643 43.54L138.693 46.7067L138.677 46.7483ZM171.602 39.6983C170.302 40.765 168.822 41.5783 167.157 42.1483C165.492 42.7183 163.577 42.9817 161.413 42.9817C151.457 42.9817 146.48 38.87 146.48 30.6483C146.48 26.82 147.753 23.8233 150.302 21.6583C152.85 19.4933 156.435 18.4117 161.065 18.4117C165.727 18.4117 169.265 19.5033 171.678 21.6833C174.092 23.8633 175.3 26.7867 175.3 30.45C175.3 34.445 174.067 37.525 171.603 39.6883M180.062 16.13L175.302 16.13L175.252 21.38C173.152 19.2467 171.652 17.9017 170.752 17.335C168.085 15.8683 164.638 15.1383 160.407 15.1383C154.21 15.1383 149.477 16.555 146.213 19.385C143.113 21.985 141.567 25.7467 141.567 30.675C141.567 33.1083 141.958 35.2783 142.742 37.175C143.525 39.0717 144.668 40.7133 146.17 42.045C149.44 44.775 154.062 46.1417 160.037 46.1417C167.21 46.1417 172.298 44.18 175.303 40.255L175.303 45.6883C175.303 49.155 174.212 51.835 172.03 53.735C169.848 55.635 166.258 56.5683 161.26 56.5683C156.56 56.5683 153.213 55.9016 151.215 54.6283C149.715 53.6333 148.682 51.9083 148.115 49.4533L143.215 49.4533C143.748 52.8816 145.215 55.3617 147.548 56.8917C150.282 58.655 154.882 59.5367 161.382 59.5367C173.815 59.5367 180.048 54.915 180.048 45.67L180.048 16.1433L180.062 16.13ZM205.812 19.2183C204.378 18.985 203.048 18.885 201.818 18.885C193.993 18.885 190.082 23.1767 190.082 31.7567L190.082 46.68L185.372 46.68L185.322 16.1433L190.083 16.19L190.083 21.64L190.333 21.64C191.133 19.4933 192.4 17.865 194.13 16.7567C196.027 15.6833 198.857 15.1467 202.62 15.1467L205.815 15.1467L205.815 19.2467L205.812 19.2183ZM210.24 29.4817C210.84 26.0117 212.19 23.325 214.285 21.4217C215.652 20.3217 217.202 19.4933 218.932 18.9433C220.662 18.3933 222.598 18.1167 224.778 18.1167C229.008 18.1167 232.445 19.2767 235.145 21.5967C237.845 23.9167 239.165 26.5467 239.165 29.48L210.24 29.48M239.628 20.06C237.962 18.3883 235.895 17.1533 233.428 16.35C230.962 15.5467 228.095 15.1467 224.762 15.1467C218.595 15.1467 213.812 16.58 210.408 19.4467C207.005 22.3133 205.308 26.2133 205.308 31.15C205.308 36.0866 206.942 39.9833 210.208 42.9C213.742 46.1 218.708 47.7 225.155 47.7C227.722 47.7 230.093 47.4083 232.277 46.8283C234.46 46.2483 236.368 45.425 238 44.3617C240.867 42.3033 242.68 39.7617 243.45 36.745L238.303 36.745C236.537 41.9667 232.142 44.5783 225.113 44.5783C220.15 44.5783 216.335 43.3017 213.672 40.7483C211.372 38.56 210.225 35.725 210.225 32.2417L244.163 32.2417C244.163 27.0617 242.663 23 239.613 20.075L239.628 20.06Z" transform="translate(118.56004 27.085003)" id="Shape" fill="#231F20" fill-rule="evenodd" stroke="none" />
      <path d="M46.0717 35.2883C46.0717 44.355 38.76 48.8883 24.135 48.8883C15.3733 48.8883 8.97667 47.3267 4.94667 44.2217C1.64668 41.655 0 37.7417 0 32.475L5.88666 32.475C5.88666 40.9383 11.97 45.17 24.1333 45.17C29.9667 45.17 34.1833 44.3033 36.8 42.5733C39 41.0433 40.1 38.645 40.1 35.3833C40.1 32.1533 38.6 29.89 35.6 28.59C33.9 27.89 29.7667 27.0067 23.15 25.9433C14.85 24.6767 9.47001 23.4133 7.00333 22.1483C3.43666 20.2817 1.67 17.12 1.67 12.6583C1.67 8.49666 3.16999 5.4 6.21999 3.36833C9.48667 1.13833 15.0867 0.0216659 23.0167 0.0216659C37.35 0.0216659 44.5167 4.78166 44.5167 14.3017L38.5783 14.3017C38.5783 7.16833 33.2567 3.605 22.615 3.605C17.2766 3.605 13.3733 4.32167 10.905 5.77167C8.56832 7.305 7.40496 9.555 7.40496 12.5217C7.40496 15.6217 8.90495 17.805 11.905 19.0717C13.505 19.805 18.205 20.8217 26.005 22.1217C33.3383 23.2217 38.2883 24.505 40.8383 25.955C44.3383 27.755 46.0883 30.8717 46.0883 35.2883L46.0717 35.2883ZM93.905 39.915C91.705 41.6767 89.2184 42.9983 86.4501 43.8817C83.6818 44.765 80.5784 45.2033 77.1434 45.2033C70.1367 45.2033 64.4767 43.315 60.1534 39.54C55.83 35.765 53.675 30.7333 53.675 24.445C53.675 17.8917 55.8167 12.785 60.1034 9.12499C64.39 5.46499 70.0701 3.63666 77.1417 3.63666C84.3134 3.63666 89.9517 5.55 94.055 9.375C96.2217 11.2417 97.8217 13.4183 98.8584 15.9133C99.895 18.4083 100.408 21.2533 100.408 24.4467C100.408 30.9667 98.2383 36.1233 93.9017 39.9133M97.0317 43C100.098 40.8367 102.368 38.2167 103.837 35.1367C105.305 32.0567 106.04 28.5033 106.04 24.4733C106.04 17.2483 103.64 11.4733 98.84 7.09333C96.2733 4.69667 93.1733 2.915 89.54 1.75C85.9067 0.585001 81.7566 0 77.09 0C68.0233 0 60.9233 2.2 55.7567 6.59167C50.59 10.9833 48.0067 16.945 48.0067 24.47C48.0067 31.7933 50.6133 37.7033 55.8283 42.1967C61.0433 46.69 68.1667 48.9383 77.195 48.9383C80.7283 48.9383 83.8083 48.7 86.44 48.2217C89.0717 47.7433 91.3067 47.01 93.14 46.0217L101.837 52.05L105.47 48.7133L97.0482 43.0017L97.0317 43ZM150.115 47.7617L109.872 47.7617L109.872 1.16166L115.402 1.06166L115.402 43.8567L150.148 43.8567L150.098 47.7467L150.115 47.7617Z" transform="translate(366.9617 26.00501)" id="Shape" fill="#367FAF" fill-rule="evenodd" stroke="none" />
      <path d="M60.0536 51.1472C60.6136 47.1972 60.4452 46.6172 63.9169 47.2572L64.8002 47.3239C67.4702 47.4272 70.9619 46.9606 73.0136 46.1522C77.4302 44.4156 80.0469 41.5156 75.6936 42.2772C65.7602 44.0139 65.0769 41.1606 65.0769 41.1606C75.5652 27.9689 79.9502 11.2223 76.1669 7.12225C65.8252 -4.05609 47.9752 1.23058 47.6586 1.36891L47.5636 1.38558C45.6002 1.04058 43.4036 0.835578 40.9369 0.802243C36.4419 0.73891 33.0319 1.80224 30.4436 3.46391C30.4436 3.46391 -1.43311 -7.66942 0.0502205 17.4639C0.366886 22.8106 9.09189 57.9189 19.4969 47.3139C23.3002 43.4356 26.9769 40.1572 26.9769 40.1572C28.8941 41.2309 31.089 41.7058 33.2786 41.5206L33.4552 41.3922C33.4002 41.8756 33.4219 42.3422 33.5269 42.9022C30.8469 45.4406 31.6336 45.8856 26.2736 46.8222C20.8519 47.7689 24.0369 49.4556 26.1169 49.8972C28.6385 50.4306 34.4719 51.1889 38.4136 46.5139L38.2569 47.0472C39.3069 47.7606 39.2369 52.1722 39.3869 55.3256C39.5369 58.4789 39.7869 61.4206 40.5435 63.1556C41.3002 64.8906 42.1969 69.3556 49.2402 68.0789C55.1269 67.0089 59.6286 65.4706 60.0402 51.1539" transform="translate(20.341446 14.797756)" id="Shape" fill="#231F20" fill-rule="evenodd" stroke="#231F20" stroke-width="4.108" />
      <path d="M75.6952 42.2764C65.7619 44.0131 65.0785 41.1597 65.0785 41.1597C75.5669 27.9664 79.9519 11.2197 76.1685 7.12139C65.8452 -4.05695 47.9785 1.23139 47.6619 1.36972L47.5652 1.38639C45.6019 1.04139 43.4052 0.836387 40.9369 0.803053C36.4419 0.741386 33.0319 1.80305 30.4452 3.46472C30.4452 3.46472 -1.43313 -7.66861 0.0502014 17.4647C0.366867 22.8114 9.0902 57.9214 19.4969 47.3147C23.3002 43.4364 26.9752 40.1581 26.9752 40.1581C28.8924 41.2317 31.0873 41.7066 33.2769 41.5214L33.4552 41.3931C33.4002 41.8764 33.4252 42.3431 33.5269 42.903C30.8469 45.4414 31.6335 45.8864 26.2769 46.823C20.8535 47.7697 24.0402 49.4564 26.1202 49.8981C28.6419 50.4314 34.4752 51.1897 38.4169 46.5147L38.2602 47.0481C39.3102 47.7614 40.0485 51.6864 39.9269 55.2481C39.8052 58.8097 39.7202 61.2481 40.5485 63.158C41.3769 65.0681 42.2019 69.358 49.2485 68.0814C55.1352 67.0114 58.1869 64.2414 58.6102 59.618C58.9102 56.3314 59.5935 56.818 59.6352 53.8797L60.1819 52.4897C60.8119 48.0347 60.2819 46.598 63.9085 47.2664L64.7919 47.3331C67.4619 47.4364 70.9552 46.9697 73.0052 46.1614C77.4219 44.4247 80.0385 41.5247 75.6852 42.2864L75.6952 42.2764Z" transform="translate(20.338133 14.7969475)" id="Shape" fill="#417BA2" fill-rule="evenodd" stroke="none" />
      <g id="Group" transform="translate(20.282072 14.694078)">
        <g id="Group">
          <path d="M38.9146 44.9343C38.6413 53.2226 38.9813 61.5709 39.9396 63.6009C40.8979 65.6309 42.9463 69.5759 49.9929 68.2959C55.8796 67.2259 58.0213 65.1559 58.9496 60.5859C59.6163 57.2243 60.9546 47.8859 61.123 45.9743M30.4679 3.37759C30.4679 3.37759 -1.44874 -7.67241 0.0512632 17.4726C0.384596 22.8193 9.09127 57.9292 19.5013 47.3059C23.3046 43.4276 26.7429 40.3859 26.7429 40.3859M47.7179 1.36092C46.6129 1.65426 65.4629 -4.47908 76.1746 7.12259C79.9579 11.2226 75.5746 27.9693 65.0846 41.1626" id="Shape" fill="none" fill-rule="evenodd" stroke="#FFFFFF" stroke-width="1.369" stroke-linecap="round" stroke-linejoin="round" />
          <path d="M42.7358 40.3676C42.7358 40.3676 43.4025 43.2176 53.3525 41.4809C57.7058 40.7193 55.0858 43.6193 50.6692 45.3576C47.0458 46.7826 38.9225 47.1476 38.7908 45.1793C38.4492 40.0959 43.0658 41.6409 42.7325 40.3676C42.4325 39.2209 40.3658 38.0959 38.9992 35.2893C37.8075 32.8393 22.6491 14.0526 43.2025 16.8426C43.9558 16.7093 37.8408 0.269268 18.6025 0.00260194C-0.635866 -0.264064 0.0024732 20.0526 0.0024732 20.0526" transform="translate(22.332123 0.79331875)" id="Shape" fill="none" fill-rule="evenodd" stroke="#FFFFFF" stroke-width="1.369" stroke-linecap="round" stroke-linejoin="bevel" />
        </g>
        <g id="Group" transform="translate(22.013363 17.708994)">
          <path d="M10.2517 0.932452C7.56836 3.47078 8.35837 3.91579 2.99836 4.85245C-2.42497 5.80245 0.761697 7.48579 2.8417 7.92746C5.36336 8.46079 11.1967 9.21913 15.1384 4.54079C16.3384 3.11579 15.1317 0.840785 13.4834 0.264117C12.6867 -0.0158819 11.6217 -0.36588 10.25 0.930786L10.2517 0.932452Z" transform="translate(1.2662064 24.25781)" id="Shape" fill="none" fill-rule="evenodd" stroke="#FFFFFF" stroke-width="1.369" stroke-linejoin="round" />
          <path d="M11.3429 25.1469C11.0729 23.6536 11.9212 21.8803 12.8312 19.8003C14.1979 16.6836 17.3512 13.5636 14.8312 3.67193C12.9512 -3.69974 0.336243 2.13859 0.33124 3.13859C0.326236 4.13859 0.901238 8.20526 0.119572 12.9386C-0.900428 19.1186 4.7579 24.3436 11.2729 23.8103" id="Shape" fill="none" fill-rule="evenodd" stroke="#FFFFFF" stroke-width="1.369" stroke-linecap="round" stroke-linejoin="round" />
        </g>
      </g>
      <g id="Group" transform="translate(50.63382 34.254242)">
        <path d="M0.00285149 0.435578C-0.0538159 0.777245 0.741186 1.68558 1.77618 1.80891C2.81118 1.93224 3.69285 1.21891 3.75119 0.87891C3.80952 0.538909 3.01452 0.162242 1.97785 0.0389099C0.941191 -0.0844225 0.0578531 0.0955773 0.00285467 0.435578L0.00285149 0.435578Z" transform="translate(0 0.69851303)" id="Shape" fill="#FFFFFF" fill-rule="evenodd" stroke="#FFFFFF" stroke-width="0.456" />
        <path d="M3.75285 0.439091C3.80952 0.780758 3.01618 1.68909 1.97952 1.81242C0.942853 1.93576 0.0595156 1.22242 0.00284831 0.879091C-0.053819 0.535759 0.741183 0.162424 1.77618 0.0390911C2.81118 -0.0842413 3.69285 0.0940928 3.75118 0.43576L3.75285 0.439091Z" transform="translate(27.735004 0)" id="Shape" fill="#FFFFFF" fill-rule="evenodd" stroke="#FFFFFF" stroke-width="0.228" />
      </g>
      <path d="M2.20833 0C2.37833 2.67833 1.52833 4.5 1.42 7.35333C1.26166 11.4967 3.74999 16.2367 0 20.9867" transform="translate(83.61334 32.33)" id="Shape" fill="none" fill-rule="evenodd" stroke="#FFFFFF" stroke-width="1.369" stroke-linecap="round" stroke-linejoin="round" />
    </g>
  </g>
</svg>