<?xml version="1.0" encoding="utf-8"?>
<svg width="403px" height="100px" viewbox="0 0 403 100" version="1.1" xmlns:xlink="http://www.w3.org/1999/xlink" xmlns="http://www.w3.org/2000/svg">
  <defs>
    <path d="M0 0L402.083 0L402.083 100L0 100L0 0Z" id="path_1" />
    <path d="M0 0L500 0L500 187.5L0 187.5L0 0L0 0Z" id="path_2" />
    <clipPath id="mask_1">
      <use xlink:href="#path_1" />
    </clipPath>
    <clipPath id="mask_2">
      <use xlink:href="#path_2" />
    </clipPath>
  </defs>
  <g id="svg">
    <g id="Mask-group">
      <path d="M0 0L402.083 0L402.083 100L0 100L0 0Z" id="slice_1" fill="none" fill-rule="evenodd" stroke="none" />
      <g clip-path="url(#mask_1)">
        <g id="Slice" transform="translate(-50.000004 -43.75)">
          <path d="M0 0L402.083 0L402.083 100L0 100L0 0Z" transform="translate(50.000004 43.75)" id="slice_1" fill="none" fill-rule="evenodd" stroke="none" />
          <g id="postgresql-seeklogo.com">
            <path d="M0 0L500 0L500 187.5L0 187.5L0 0L0 0Z" id="Background" fill="none" fill-rule="evenodd" stroke="none" />
            <g id="Mask-group">
              <path d="M0 0L500 0L500 187.5L0 187.5L0 0L0 0Z" id="path_1" fill="none" fill-rule="evenodd" stroke="none" />
              <g clip-path="url(#mask_2)">
                <g id="Group" transform="translate(55.28333 46.631752)">
                  <g id="Layer_1">
                    <g id="Group">
                      <path d="M4.79164 1.75781C-0.208346 4.46615 -3.17892e-05 13.2161 5.41665 15.2995C11.25 17.3828 17.5 17.5911 23.3333 19.0495C24.7917 19.4661 26.25 20.0911 26.875 21.5496C28.3334 24.4663 27.0833 28.8413 23.75 29.8827C18.9583 31.3413 13.3333 31.3413 8.75 29.466C5.625 28.2163 4.16667 25.0913 3.95832 22.1744C2.70831 22.1744 1.24998 22.1744 0 22.3827C0.208346 25.2994 0.833321 28.4244 3.125 30.2994C6.87501 33.216 11.6667 33.6327 16.25 33.841C20.4167 33.841 25 33.4244 28.5417 31.1327C32.7083 28.216 33.125 20.5078 28.125 18.0078C23.5417 15.7161 18.3333 15.5078 13.5417 14.4661C11.25 13.8411 8.54168 13.6328 6.45835 12.1745C3.75001 9.67448 5.00002 4.46615 8.54168 3.63281C13.125 2.38281 18.125 2.17448 22.5 3.84115C25.2084 4.67448 26.25 7.59115 26.6667 9.88281C27.9167 9.88281 29.1667 9.88281 30.625 9.88281C30.625 7.38282 29.7917 4.67448 27.7083 3.00782C24.375 0.299488 19.7917 0.0911494 15.8334 0.0911494C12.2917 -0.117189 8.3333 -0.117189 4.79164 1.75781L4.79164 1.75781L4.79164 1.75781Z" transform="translate(285.7584 23.9021)" id="Shape" fill="#326690" fill-rule="evenodd" stroke="none" />
                      <path d="M26.0417 2.5C23.9583 0.624998 20.8333 0 18.125 0C12.0833 0 6.04165 0.20833 0 0.20833C0 10.8333 0 21.6667 0 32.2917C1.04167 32.2917 2.08333 32.2917 3.125 32.2917C3.125 27.7083 2.91667 23.125 3.125 18.75C8.33333 18.75 13.3333 18.75 18.5417 18.75C22.2917 18.5417 26.6667 16.875 28.125 13.125C29.375 9.58333 28.9583 5 26.0417 2.5L26.0417 2.5L26.0417 2.5ZM24.375 12.5C23.3333 15.2083 20.2083 16.0417 17.5 16.25C12.7083 16.4583 7.91667 16.25 3.33333 16.25C3.33333 11.875 3.33333 7.29167 3.33333 2.91667C7.91667 2.91667 12.5 2.91667 17.0833 2.91667C19.375 2.91667 22.0833 3.33333 23.5417 5.20833C25 7.08333 25.2083 10 24.375 12.5L24.375 12.5L24.375 12.5Z" transform="translate(115.966675 24.201578)" id="Shape#1" fill="#000000" fill-rule="evenodd" stroke="none" />
                      <path d="M0 0.20833C0 10.8333 0 21.4583 0 32.2917C9.16665 32.2917 18.5417 32.2917 27.7083 32.2917C27.7083 31.4583 27.7083 30.625 27.7083 29.5833C19.7917 29.375 11.875 29.5833 3.75001 29.375C3.75001 19.5833 3.75001 9.79167 3.75001 0C2.49999 0.20833 1.24998 0.20833 0 0.20833L0 0.20833L0 0.20833Z" transform="translate(361.5917 24.201578)" id="Shape#2" fill="#326690" fill-rule="evenodd" stroke="none" />
                      <path d="M4.16667 0.208338C4.16667 2.5 4.16667 4.79167 4.16667 7.08333C2.70834 7.08333 1.45833 7.08333 0 7.08333C0 7.70834 0 8.54167 0 9.16667C1.45833 9.16667 2.91667 9.16667 4.16667 9.16667C4.16667 13.9583 4.16667 18.9583 4.16667 23.75C4.16667 25.2083 4.58333 26.6667 5.83334 27.5C8.12501 28.5417 10.625 28.3333 13.125 28.125C13.125 27.5 13.125 26.6667 13.125 26.0417C11.4583 26.25 9.79167 26.4583 8.33334 25.625C7.29167 25 7.5 23.75 7.29167 22.7083C7.29167 18.125 7.29167 13.75 7.29167 9.16667C9.16668 9.16667 11.0417 9.16667 12.9167 9.16667C12.9167 8.33333 12.9167 7.70834 12.7083 6.875C10.8333 6.875 8.95831 6.875 7.08334 6.875C7.08334 4.58333 7.08334 2.29167 7.08334 0C6.45833 0.208338 5.20834 0.208338 4.16667 0.208338L4.16667 0.208338L4.16667 0.208338Z" transform="translate(197.42503 28.368238)" id="Shape#3" fill="#FFFFFF" fill-rule="evenodd" stroke="none" />
                      <path d="M2.91664 1.54642C-1.58946e-05 3.42142 -1.58946e-05 8.83808 3.54166 10.2964C8.33333 11.9631 13.75 11.5464 18.75 13.0047C21.25 13.8381 21.4583 17.5881 19.1667 18.8381C15.8333 20.5048 11.875 20.2964 8.33333 19.6714C5.83334 19.2547 3.75001 17.5881 3.54166 14.8798C2.29166 14.8798 1.04167 14.8798 0 14.8798C0.41666 16.7548 0.833336 18.8381 2.49999 20.0881C5.20833 21.9631 8.74999 21.9631 11.875 22.1715C15.2083 22.1715 18.75 21.9631 21.6667 20.2964C24.1667 18.8381 25 15.5048 23.5417 13.2131C22.5 11.5464 20.625 10.9214 18.75 10.5048C14.7916 9.67142 10.625 9.67142 6.66664 8.83808C5.20832 8.42142 3.9583 7.37975 3.9583 5.92142C3.9583 3.83808 6.24995 2.79642 8.12497 2.37975C11.0416 1.96308 14.375 1.75475 17.2916 3.00475C18.9583 3.62975 19.375 5.29642 19.7916 6.96308C21.0417 6.96308 22.0833 6.96308 23.3333 6.96308C23.125 5.08808 22.5 3.00475 20.8333 1.96308C17.7083 -0.12025 13.9583 -0.12025 10.4166 0.0880798C7.91667 -0.120242 5.20832 0.0880877 2.91664 1.54642L2.91664 1.54642L2.91664 1.54642Z" transform="translate(172.2167 35.155155)" id="Shape#4" fill="#FFFFFF" fill-rule="evenodd" stroke="none" />
                      <path d="M6.55093 0.795106C5.09262 1.4201 4.25927 2.87844 3.42593 4.33677C3.42593 3.08677 3.42593 1.83677 3.42593 0.795106C2.38427 0.795106 1.34261 0.795106 0.0926018 0.795106C-0.115744 7.87844 0.0926018 14.7534 0.0926018 21.8367C1.13427 21.8367 2.17594 21.8367 3.2176 21.8367C3.2176 18.2951 3.2176 14.5451 3.2176 11.0034C3.2176 8.50344 4.05092 5.58677 6.13426 4.12844C8.42594 2.46178 11.3426 2.87844 14.0509 2.87844C14.0509 2.0451 14.0509 1.00344 14.0509 0.170108C11.5509 -0.0382304 9.05094 -0.246561 6.55093 0.795106L6.55093 0.795106L6.55093 0.795106Z" transform="translate(242.54076 34.864807)" id="Shape#5" fill="#FFFFFF" fill-rule="evenodd" stroke="none" />
                      <path d="M8.50706 2.43456C13.0904 0.14291 18.2987 -0.273758 23.2987 0.14291C28.0904 0.559578 32.8821 2.22625 36.0071 5.97625C39.9654 10.1429 40.7988 16.8096 39.1321 22.2263C38.2987 25.3513 36.2154 27.6429 33.9238 29.7263C35.7987 30.9762 37.6738 32.2263 39.5488 33.6846C38.7154 34.5179 37.8821 35.1429 37.0488 35.9762C35.1737 34.7263 33.2988 33.2679 31.4238 32.2263C29.9654 32.2263 28.5071 33.0596 26.8404 33.4762C22.6737 34.3096 18.0904 34.3096 13.9238 33.4762C9.34045 32.6429 4.75712 29.9346 2.25709 25.7679C-0.242901 21.8096 -0.451247 16.6012 0.59042 12.2262C1.8404 7.85123 4.75706 4.30956 8.50706 2.43456L8.50706 2.43456L8.50706 2.43456ZM14.7571 3.2679C10.382 4.30956 6.21538 7.43456 4.75706 11.8096C3.29873 16.6012 3.71539 22.2262 7.25705 26.1846C10.382 29.7262 14.9654 31.1846 19.5487 31.1846C24.5488 31.3929 29.9654 29.9346 33.2987 25.9763C37.8821 20.1429 37.2571 10.7679 31.2154 6.18456C26.6321 2.22623 20.3821 2.01791 14.7571 3.2679L14.7571 3.2679L14.7571 3.2679Z" transform="translate(318.91797 23.642008)" id="Shape#6" fill="#326690" fill-rule="evenodd" stroke="none" />
                      <path d="M3.75001 0C4.79168 0 5.83334 0 7.08334 0C7.08334 2.29167 7.08334 4.58334 7.08334 6.875C8.95835 6.875 10.8333 6.875 12.7083 6.875C12.7083 7.70834 12.7083 8.33333 12.9167 9.16667C11.0416 9.16667 9.16666 9.16667 7.29167 9.16667C7.29167 13.75 7.29167 18.125 7.29167 22.7083C7.29167 23.75 7.29167 25 8.33334 25.625C9.79167 26.25 11.4583 26.0417 13.125 26.0417C13.125 26.6667 13.125 27.5 13.125 28.125C10.625 28.3333 8.12501 28.5417 5.83334 27.5C4.37502 26.875 3.95834 25.2083 4.16667 23.75C4.16667 18.9583 4.16667 13.9583 4.16667 9.16667C2.70834 9.16667 1.25 9.16667 0 9.16667C0 8.54167 0 7.70834 0 7.08333C1.45833 7.08333 2.70834 7.08333 4.16667 7.08333C3.75001 4.58334 3.75001 2.29167 3.75001 0L3.75001 0L3.75001 0Z" transform="translate(197.84169 28.576576)" id="Shape#7" fill="#000000" fill-rule="evenodd" stroke="none" />
                      <path d="M21.9023 1.97668C18.1523 -0.106657 13.569 -0.314987 9.40234 0.310012C5.8607 0.93501 2.52733 2.81001 1.06901 6.14334C-0.389322 9.47667 -0.389322 13.435 1.27734 16.7683C3.15234 20.31 7.11066 22.185 10.8607 22.3933C15.6523 22.81 21.069 22.185 24.6106 18.435C28.3606 13.6433 27.5273 5.10167 21.9023 1.97668L21.9023 1.97668L21.9023 1.97668ZM21.2773 17.6017C19.4024 19.4767 16.694 20.31 14.194 20.31C11.2773 20.5183 8.15233 19.8933 6.06899 18.0183C3.36067 15.5183 2.94399 11.3517 3.98566 7.81C5.02733 4.685 7.94403 2.81001 11.069 2.39334C13.9857 1.97668 17.319 2.18502 20.0274 3.85167C22.1106 5.10167 23.1523 7.39336 23.3606 9.685C23.7773 12.6017 23.3606 15.5183 21.2773 17.6017L21.2773 17.6017L21.2773 17.6017Z" transform="translate(143.85602 34.724903)" id="Shape#8" fill="#000000" fill-rule="evenodd" stroke="none" />
                      <path d="M3.12495 1.96308C5.20828 0.504748 7.91664 0.296418 10.4166 0.0880798C13.9583 -0.12025 17.9166 -0.12025 20.8333 1.96308C22.5 3.00475 23.125 5.08808 23.3333 6.96308C22.0833 6.96308 21.0417 6.96308 19.7916 6.96308C19.5833 5.29642 18.9583 3.83808 17.2916 3.00475C14.375 1.75475 11.25 1.75475 8.12497 2.37975C6.24995 2.58808 3.9583 3.62975 3.9583 5.92141C3.74997 7.37975 5.20828 8.62975 6.66664 8.83808C10.625 9.87975 14.7916 9.67142 18.75 10.5047C20.625 10.9214 22.5 11.7547 23.5417 13.2131C25 15.5047 24.1667 19.0464 21.6667 20.2964C18.75 21.9631 15.2083 22.1715 11.875 22.1715C8.74999 21.9631 5.20833 21.9631 2.49999 20.0881C0.83332 18.8381 0.20833 16.9631 0 14.8797C1.25 14.8797 2.49999 14.8797 3.54166 14.8797C3.54166 17.5881 5.83334 19.4631 8.33333 19.6714C11.875 20.0881 15.8333 20.5048 19.1667 18.8381C21.4583 17.5881 21.25 13.8381 18.75 13.0047C13.75 11.5464 8.33333 11.9631 3.54166 10.2964C0.208298 9.25475 0.208298 3.83808 3.12495 1.96308L3.12495 1.96308L3.12495 1.96308Z" transform="translate(172.00838 34.738495)" id="Shape#9" fill="#000000" fill-rule="evenodd" stroke="none" />
                      <path d="M7.94776 0.601137C11.2811 -0.2322 15.0311 -0.2322 18.3644 0.809467C20.2394 1.43447 21.6977 2.8928 23.156 4.1428C23.156 2.8928 23.3644 1.85113 23.3644 0.809467C24.406 0.809467 25.4477 0.809467 26.4894 0.809467C26.6977 7.2678 26.4894 13.7261 26.6977 20.1845C26.906 22.8927 26.281 25.8094 24.1977 27.6844C21.4894 30.1844 17.5311 30.601 13.9895 30.601C10.8645 30.601 7.53112 30.3927 4.61448 28.9344C2.73949 27.8927 1.69783 25.8094 1.28113 23.726C2.32279 23.726 3.36445 23.726 4.40612 23.726C5.03114 25.1844 5.65615 26.851 7.11448 27.476C9.40615 28.5177 11.9061 28.5177 14.4061 28.5177C17.1145 28.3094 20.2395 27.8927 21.9063 25.601C23.5729 23.3094 23.1562 20.3928 23.1562 17.6845C19.8228 21.226 14.6145 21.851 10.0312 21.226C7.11451 20.8095 4.19782 19.7678 2.11449 17.4761C-0.177193 14.5595 -0.385507 10.6011 0.447814 7.2678C1.2811 3.93448 4.61446 1.43447 7.94776 0.601137L7.94776 0.601137L7.94776 0.601137ZM10.6561 2.68446C8.36442 3.10113 5.86443 4.1428 4.61446 6.22613C3.15612 8.72615 3.15612 12.0595 3.98944 14.5595C5.03111 17.2678 8.15611 18.7261 10.8645 19.1428C14.4061 19.5595 18.5728 19.1428 21.0727 16.4345C23.9894 12.8928 23.5727 6.85115 19.8228 4.1428C17.3228 2.26779 13.7811 2.26779 10.6561 2.68446L10.6561 2.68446L10.6561 2.68446Z" transform="translate(212.60225 34.642105)" id="Shape#10" fill="#000000" fill-rule="evenodd" stroke="none" />
                      <path d="M6.61457 0.850344C9.11455 -0.191323 11.6146 0.0170072 14.1146 0.0170072C14.1146 0.850344 14.1146 1.89201 14.1146 2.72534C11.4062 2.72534 8.48959 2.30867 6.19791 3.97533C4.11458 5.43367 3.28126 8.35033 3.28126 10.8503C3.28126 14.392 3.28126 18.142 3.28126 21.6838C2.23959 21.6838 1.19793 21.6838 0.156259 21.6838C-0.0520865 14.6003 -0.0520865 7.72533 0.156259 0.641998C1.19793 0.641998 2.23959 0.641998 3.4896 0.641998C3.4896 1.89199 3.4896 3.142 3.4896 4.18367C4.32289 2.93367 5.15623 1.47534 6.61457 0.850344L6.61457 0.850344L6.61457 0.850344Z" transform="translate(242.47713 34.809566)" id="Shape#11" fill="#000000" fill-rule="evenodd" stroke="none" />
                      <path d="M1.56517 5.24463C3.64851 1.70296 8.02352 0.244629 11.9818 0.0362992C16.1485 -0.172031 20.7318 0.452967 23.6486 3.57796C25.9402 5.6613 26.5652 8.7863 26.7736 11.9113C18.8569 11.9113 11.1485 11.9113 3.23183 11.9113C3.44019 13.9946 4.06517 16.2863 5.73184 17.7446C8.85684 20.453 13.4402 20.8696 17.1902 19.828C19.6902 19.203 21.7735 17.328 22.6069 14.828C23.8569 14.828 25.1069 14.828 26.1486 14.828C25.1069 18.3696 21.9819 20.8696 18.4402 21.7029C13.6485 22.7446 8.02352 22.5363 3.85685 19.6196C-0.309849 16.703 -1.14317 9.82796 1.56517 5.24463L1.56517 5.24463L1.56517 5.24463ZM7.60683 3.57796C5.31515 4.82796 4.06517 7.32796 3.64851 9.82796C10.3152 9.82796 16.9818 9.82796 23.6486 9.82796C23.4402 8.36963 23.0236 6.70296 21.9819 5.6613C18.4402 1.49463 11.9818 1.07797 7.60683 3.57796L7.60683 3.57796L7.60683 3.57796Z" transform="translate(256.27652 34.790276)" id="Shape#12" fill="#000000" fill-rule="evenodd" stroke="none" />
                      <path d="M54.2819 1.70158C50.3235 1.07658 46.1569 0.868249 42.1985 1.49325C39.9069 1.90992 37.6152 2.95158 35.7402 3.99325C29.2819 1.90992 21.9902 0.659915 15.3236 1.90992C10.5319 2.74325 5.9486 5.65992 3.4486 10.0349C0.323596 15.2433 -0.301402 21.4933 0.115261 27.535C0.948594 34.2017 2.61527 40.8683 4.49027 47.3267C6.15694 52.9517 8.03194 58.5767 11.1569 63.5767C12.8236 66.285 15.3236 69.2017 18.6569 70.035C21.3652 70.66 24.0735 69.8267 26.1569 68.16C27.1985 69.2017 28.4485 70.035 29.9069 70.4517C33.8652 71.91 38.2402 71.91 42.1985 70.2433C42.4069 75.6598 42.1985 81.285 44.2819 86.285C45.1152 88.785 46.3652 91.0767 48.6569 92.535C51.1569 94.2017 54.0735 94.41 56.9902 93.9933C59.4902 93.5767 62.1986 92.7433 64.2819 91.4933C66.5735 90.035 68.4486 87.9517 69.4902 85.4517C71.9902 79.8267 72.1985 73.785 72.4069 67.7433C78.2402 68.16 84.2819 66.7017 88.6569 62.7433C90.3236 61.285 91.7819 58.9933 91.1569 56.7015C90.5319 54.6181 88.2402 53.1598 86.1569 53.3683C83.8652 53.5767 81.7819 54.2017 79.4902 54.2017C84.4902 45.4517 88.4486 36.0767 90.1152 26.285C90.7402 22.1183 91.3652 17.9516 90.1152 13.7849C89.4902 11.4932 87.8235 9.61823 86.1569 7.95156C82.4069 4.20156 77.1985 1.70157 71.9902 0.659899C65.9485 -0.590085 59.9069 0.0349132 54.2819 1.70158L54.2819 1.70158L54.2819 1.70158Z" transform="translate(0.4347449 0)" id="Shape#13" fill="#FFFFFF" fill-rule="evenodd" stroke="none" />
                      <path d="M51.8821 1.75712C58.1321 -0.117881 64.7988 -0.742884 71.0488 1.13212C76.0488 2.59046 80.6321 5.50713 83.7571 9.67379C85.0071 11.3405 85.4238 13.6321 85.4238 15.7155C85.6321 19.4655 84.7988 23.2154 83.9654 26.7571C81.6738 36.3404 77.5071 45.2988 72.2988 53.6321C75.2154 54.8821 78.5488 54.2571 81.4654 53.8404C82.7154 53.6321 84.3821 53.2154 85.2154 54.4654C86.0488 55.7154 85.2154 57.1738 84.3821 58.0071C80.0071 62.3821 73.3404 63.4238 67.5071 62.3821C66.8821 67.5904 66.2571 72.7988 65.4238 78.2154C65.0071 81.1321 63.9654 84.2571 61.6738 86.1321C59.5904 88.0071 56.6738 88.8404 53.9654 89.2571C51.2571 89.6737 47.9238 89.4654 45.8404 87.3821C43.5488 85.2988 42.0904 82.1738 41.8821 79.2571C41.2571 74.0487 41.2571 68.6321 41.2571 63.4238C38.7571 65.5071 35.4238 66.7571 32.0904 66.5488C29.7988 66.3404 27.0904 65.9237 25.4238 64.2571C24.3821 63.4238 24.5904 61.7571 25.6321 60.9237C27.5071 59.4654 30.0071 59.6737 32.0904 58.8404C33.7571 58.4237 34.5904 56.7571 35.4238 55.7154C33.5488 55.5071 31.6738 55.0904 30.2154 54.2571C27.7154 56.9654 25.2154 59.8821 22.9238 62.5904C21.4654 64.2571 19.5905 65.7154 17.2988 65.2987C14.7988 64.8821 12.9238 63.0071 11.4655 61.1321C8.75715 57.1738 6.88215 52.5904 5.42381 48.0071C3.13215 40.5071 1.25715 33.0071 0.21548 25.2987C-0.409518 19.4655 0.21548 13.2155 3.54881 8.42379C6.25715 4.46546 10.8405 2.38213 15.4238 1.96546C21.6738 1.34046 27.9238 2.59046 33.7571 4.67379C38.5488 1.54879 44.7988 0.923792 50.4238 2.17379C51.0488 1.75712 51.4654 1.96545 51.8821 1.75712L51.8821 1.75712L51.8821 1.75712ZM56.4654 3.42379C57.7154 4.25713 58.9654 4.88213 60.2154 5.71546C65.2154 9.04879 69.1738 13.8405 71.4654 19.2571C72.0904 20.9237 72.9238 22.3821 72.7154 24.2571C72.7154 27.7987 71.4654 31.3404 71.8821 34.8821C72.2988 38.6321 73.1321 42.5904 72.0904 46.3404C71.8821 47.5904 71.0488 48.8404 70.6321 50.0904C70.6321 50.2987 70.8404 50.7154 70.8404 50.7154C71.2571 50.0904 71.6738 49.4654 72.0904 48.8404C76.0488 42.3821 78.9654 35.2987 81.0488 28.0071C82.0904 24.0487 82.9238 19.8821 82.9238 15.7155C82.9238 14.0488 82.7154 12.1738 81.6738 10.7155C79.3821 7.79879 76.2571 5.50713 72.7154 4.04879C67.5071 2.38213 61.8821 2.17379 56.4654 3.42379L56.4654 3.42379L56.4654 3.42379ZM41.8821 3.84046C37.9238 4.25713 34.1738 6.54879 31.8821 9.67379C28.7571 14.0488 27.2987 19.4654 26.8821 24.6737C30.2154 23.2154 33.7571 21.7571 37.5071 22.5904C39.7988 23.2154 41.6738 25.2987 42.0904 27.5904C43.1321 32.3821 43.7571 37.1737 42.7154 41.9654C41.8821 45.7154 39.5904 49.0488 38.7571 53.0071C39.7988 53.0071 40.8404 53.2154 41.6738 53.6321C43.5488 54.6738 44.5904 56.7571 44.3821 58.8404C44.1738 64.0488 44.1738 69.2571 44.5904 74.4654C44.7988 76.5488 44.7988 78.8404 45.4238 80.9237C46.2571 83.4237 47.9238 85.9238 50.6321 86.5488C53.5488 86.9654 56.4654 86.1321 59.1738 84.8821C61.6738 83.6321 62.9237 80.7154 63.3404 78.0071C64.1738 72.3821 64.7988 66.7571 65.4238 61.1321C65.6321 59.0487 65.2154 56.9654 66.4654 55.0904C67.0904 53.8404 68.3404 53.4237 69.3821 52.7987C68.5488 51.5488 67.5071 50.2987 66.6738 49.0488C63.9654 43.2154 60.2154 37.7987 58.9654 31.5488C58.5488 28.8404 58.7571 25.7154 61.0488 23.8404C63.5488 21.7571 66.8821 21.9654 70.0071 21.9654C68.1321 16.7571 64.7988 12.1738 60.6321 8.84044C55.2154 4.88213 48.3404 3.00713 41.8821 3.84046L41.8821 3.84046L41.8821 3.84046ZM14.1738 4.25713C10.6321 4.88213 7.09046 6.96546 5.21548 10.2988C2.71546 14.6738 2.50715 19.6738 2.92381 24.4654C3.75713 30.7154 5.21548 36.9654 7.09046 43.2154C8.75713 48.4237 10.4238 53.6321 13.3405 58.2154C14.3821 59.8821 15.6321 61.5487 17.5071 62.1737C19.1738 62.5904 20.4238 61.1321 21.4654 60.0904C23.5488 57.3821 26.0488 54.8821 28.3404 52.1737C25.0071 49.2571 23.3404 44.6737 23.7571 40.0904C24.1738 36.7571 24.3821 33.2154 24.1738 29.6738C23.7571 24.8821 24.5904 19.8821 26.0488 15.0905C27.0904 11.5488 28.9654 8.42379 31.4654 5.71546C25.8404 4.46546 19.7988 3.21546 14.1738 4.25713L14.1738 4.25713L14.1738 4.25713ZM62.7154 25.7154C61.0488 26.9654 61.0488 29.4654 61.4654 31.3404C62.7154 37.3821 66.2571 42.3821 68.7571 47.7987C70.8404 43.8404 69.5904 39.2571 69.1738 34.8821C68.7571 31.3404 69.7988 28.0071 70.0071 24.6737C67.7154 24.6737 65.0071 24.2571 62.7154 25.7154L62.7154 25.7154L62.7154 25.7154ZM26.6738 28.0071C26.6738 30.9237 26.8821 33.8404 26.6738 36.5488C26.4654 39.0488 25.8404 41.5488 26.4654 44.0488C27.2987 48.6321 31.2571 52.3821 36.0488 52.3821C36.6738 50.0904 37.5071 47.7988 38.5488 45.7154C41.4654 40.0904 40.8404 33.6321 39.3821 27.7988C38.9654 26.1321 37.5071 24.8821 35.8404 24.8821C32.5071 24.8821 29.3821 26.3404 26.6738 28.0071L26.6738 28.0071L26.6738 28.0071ZM68.9654 56.1321C68.1321 56.9654 68.1321 58.2154 68.1321 59.2571C70.0071 59.8821 72.0904 59.8821 74.1738 59.6737C77.0904 59.2571 80.2154 58.4237 82.5071 56.1321C78.9654 56.5487 75.0071 57.3821 71.4654 55.7154C70.6321 55.2987 69.5904 55.7154 68.9654 56.1321L68.9654 56.1321L68.9654 56.1321ZM34.5904 60.2987C32.5071 61.5487 30.0071 61.3404 28.1321 62.3821C32.2988 64.4654 38.3404 63.8404 41.2571 59.8821C42.7154 58.4237 41.2571 55.5071 39.3821 55.7154C37.2988 56.9654 36.4654 59.2571 34.5904 60.2987L34.5904 60.2987L34.5904 60.2987Z" transform="translate(2.6261983 2.4444616)" id="Shape#14" fill="#FFFFFF" fill-rule="evenodd" stroke="none" />
                      <path d="M0.224734 0.690359C1.47473 -0.142978 3.1414 -0.142978 4.3914 0.273691C4.3914 1.94036 2.30806 3.19036 0.849732 2.35702C0.433072 2.14869 -0.400265 1.31536 0.224734 0.690359L0.224734 0.690359L0.224734 0.690359Z" transform="translate(65.95027 28.302885)" id="Shape#15" fill="#FFFFFF" fill-rule="evenodd" stroke="none" />
                      <path d="M0.833336 0.208334C2.08333 -0.208334 3.54167 3.97364e-06 4.58333 0.833332C5.20833 1.45833 4.58333 2.50001 3.95833 2.70833C2.5 3.75 0.208338 2.70833 0 1.04167C0 0.624994 0.416668 0.208334 0.833336 0.208334L0.833336 0.208334L0.833336 0.208334Z" transform="translate(35.966675 28.993248)" id="Shape#16" fill="#FFFFFF" fill-rule="evenodd" stroke="none" />
                      <path d="M0 0.787882C5.20834 -0.462118 11.0417 -0.253785 16.0417 1.62122C19.5833 2.87121 22.7083 5.37121 25 8.28788C26.25 9.74621 26.25 11.6212 26.25 13.2879C26.25 17.4545 25.4167 21.4129 24.375 25.5796C22.2917 32.8712 19.375 39.9546 15.4167 46.4129C15 47.0379 14.5833 47.6629 14.1667 48.2879C14.1667 48.0796 13.9583 47.6629 13.9583 47.6629C14.375 46.4129 15.2083 45.1629 15.4167 43.9129C16.4583 40.1629 15.625 36.2046 15.2083 32.4546C14.7917 28.9129 16.0417 25.3712 16.0417 21.8296C16.25 20.1629 15.4167 18.4962 14.7917 16.8296C12.2917 11.4129 8.54168 6.62123 3.54166 3.2879C2.70834 2.24621 1.25 1.62122 0 0.787882L0 0.787882L0 0.787882Z" transform="translate(59.09168 5.080366)" id="Shape#17" fill="#326690" fill-rule="evenodd" stroke="none" />
                      <path d="M15.2083 0.194646C21.6667 -0.638687 28.5417 1.23631 33.75 5.19465C37.9167 8.52798 41.4583 13.1113 43.125 18.3196C40.2083 18.3196 36.6667 18.1113 34.1667 20.1946C31.875 22.0696 31.6667 25.1946 32.0833 27.9029C33.3333 34.3613 37.0833 39.7779 39.7917 45.4029C40.4167 46.8613 41.4583 47.9029 42.5 49.1529C41.25 49.7779 40.2083 50.1946 39.5833 51.4446C38.5417 53.3196 38.9583 55.4029 38.5417 57.4862C37.9167 63.1112 37.2917 68.7363 36.4583 74.3613C36.0417 77.0696 34.7917 79.9862 32.2917 81.2363C29.7917 82.4863 26.6667 83.3196 23.75 82.9029C21.0417 82.4863 19.1667 79.7779 18.5417 77.2779C17.9167 75.1946 17.9167 72.9029 17.7083 70.8196C17.5 65.6113 17.5 60.4029 17.5 55.1946C17.7083 53.1113 16.6667 51.0279 14.7917 49.9862C13.9583 49.5696 12.9167 49.3613 11.875 49.3613C12.7083 45.6112 15 42.2779 15.8333 38.3196C16.875 33.5279 16.25 28.7362 15.2083 23.9446C14.7917 21.6529 12.9167 19.5697 10.625 18.9447C6.875 18.1113 3.33333 19.3613 0 21.0279C0.416668 15.8197 1.875 10.403 5 6.02798C7.5 2.90298 11.25 0.819649 15.2083 0.194646L15.2083 0.194646L15.2083 0.194646Z" transform="translate(29.30001 6.090267)" id="Shape#18" fill="#326690" fill-rule="evenodd" stroke="none" />
                      <path d="M11.4193 0.417065C17.2526 -0.624602 23.086 0.417065 28.711 2.08373C26.211 4.79206 24.336 7.91706 23.2944 11.4587C21.836 16.0421 21.211 21.0421 21.4194 26.0421C21.6277 29.5838 21.6277 32.9171 21.0027 36.4587C20.3776 40.8338 22.2527 45.4171 25.586 48.5421C23.2944 51.2504 21.0027 53.7504 18.7109 56.4588C17.6693 57.7087 16.4193 58.9587 14.7526 58.5421C12.8776 57.9171 11.6276 56.2504 10.5859 54.5837C7.66927 50.0004 6.0026 44.7921 4.33594 39.5838C2.46094 33.5421 1.0026 27.2921 0.169272 20.8337C-0.247397 16.0421 -0.0390619 10.8337 2.46094 6.66706C4.33594 3.33373 7.66927 1.2504 11.4193 0.417065L11.4193 0.417065L11.4193 0.417065Z" transform="translate(5.380726 6.284516)" id="Shape#19" fill="#326690" fill-rule="evenodd" stroke="none" />
                      <path d="M1.34862 1.18898C3.43196 -0.269355 6.34863 -0.0610173 8.64029 0.147313C8.43196 3.48065 7.3903 6.81398 7.80694 10.3556C8.22361 14.5223 9.26528 19.1056 7.39027 23.2723C4.68194 17.8556 1.14028 12.8556 0.09861 6.81398C-0.10972 4.93898 -0.10972 2.64731 1.34862 1.18898L1.34862 1.18898L1.34862 1.18898ZM2.18194 2.02231C1.55695 2.64731 2.18194 3.48065 2.80693 3.68898C4.26527 4.52231 6.3486 3.27231 6.3486 1.60564C5.09861 1.18898 3.43196 1.18898 2.18194 2.02231L2.18194 2.02231L2.18194 2.02231Z" transform="translate(63.99306 26.970936)" id="Shape#20" fill="#326690" fill-rule="evenodd" stroke="none" />
                      <path d="M0.649106 2.93656C3.35743 1.26991 6.48243 -0.188428 9.60743 0.019902C11.2741 0.019902 12.7324 1.2699 13.1491 2.93656C14.6074 8.7699 15.0241 15.2282 12.3158 20.8533C11.2741 22.9367 10.4408 25.2281 9.81576 27.52C5.0241 27.52 1.06577 23.5617 0.232438 19.1866C-0.39256 16.6866 0.440768 14.1866 0.440768 11.6866C0.857445 8.56157 0.649106 5.85323 0.649106 2.93656L0.649106 2.93656L0.649106 2.93656ZM8.14912 1.68658C7.73243 1.89491 7.31577 2.10325 7.31577 2.51992C7.5241 4.18658 9.81576 5.22825 11.2741 4.18658C11.8991 3.76992 12.5241 2.93658 11.8991 2.31157C10.8574 1.47824 9.3991 1.26991 8.14912 1.68658L8.14912 1.68658L8.14912 1.68658Z" transform="translate(28.650896 27.515007)" id="Shape#21" fill="#326690" fill-rule="evenodd" stroke="none" />
                      <path d="M0.833336 0.681079C1.45833 0.26441 2.5 -0.360588 3.33333 0.26441C6.66667 2.13941 10.625 1.09775 14.375 0.681079C12.0833 2.76441 9.16667 3.80608 6.04167 4.22275C3.95834 4.43108 1.875 4.63941 0 3.80608C0 2.76441 0 1.51442 0.833336 0.681079L0.833336 0.681079L0.833336 0.681079Z" transform="translate(70.75835 57.8955)" id="Shape#22" fill="#326690" fill-rule="evenodd" stroke="none" />
                      <path d="M6.66667 4.59394C8.54167 3.55227 9.375 1.2606 11.25 0.0105937C13.125 -0.197736 14.7917 2.71892 13.125 4.17725C10.2083 8.1356 4.16667 8.96891 0 6.67727C2.08333 5.84392 4.58334 5.84392 6.66667 4.59394L6.66667 4.59394L6.66667 4.59394Z" transform="translate(30.550014 58.149315)" id="Shape#23" fill="#326690" fill-rule="evenodd" stroke="none" />
                      <path d="M54.7167 1.55893C60.3417 0.100598 66.3833 -0.524401 72.2167 0.517265C77.425 1.3506 82.425 4.05894 86.3833 7.80894C88.05 9.4756 89.7167 11.3506 90.3417 13.6423C91.5917 17.8089 90.9667 21.9756 90.3417 26.1423C88.4667 35.934 84.7167 45.309 79.7167 54.059C82.0083 54.059 84.0917 53.434 86.3833 53.2256C88.4667 53.0173 90.9667 54.4756 91.3833 56.559C92.0083 58.8506 90.55 61.1423 88.8833 62.6006C84.3 66.559 78.05 67.809 72.425 67.6006C72.0083 73.6423 72.0083 79.6839 69.5083 85.309C68.2583 87.809 66.5917 89.8923 64.3 91.3506C62.0083 92.809 59.5083 93.434 57.0083 93.8506C54.3 94.2673 51.175 94.059 48.675 92.3923C46.3833 90.934 45.1333 88.6423 44.3 86.1423C42.425 80.934 42.6333 75.5173 42.2167 70.1006C38.2583 71.7673 33.8833 71.7673 29.925 70.3089C28.4667 69.8923 27.2167 69.059 26.175 68.0173C24.0917 69.684 21.3833 70.5173 18.675 69.8923C15.3417 69.059 13.05 66.1423 11.175 63.4339C8.05 58.434 6.175 52.809 4.50833 47.184C2.63333 40.7256 0.966667 34.2673 0.133334 27.3923C-0.283335 21.3506 0.133334 15.1006 3.46667 9.89227C5.96667 5.72561 10.55 2.80894 15.3417 1.76728C22.2167 0.308945 29.3 1.76728 35.7583 3.64227C37.8417 2.60061 39.925 1.55894 42.2167 1.14228C46.5917 0.517265 50.7583 0.93393 54.7167 1.55893L54.7167 1.55893L54.7167 1.55893ZM54.5083 4.05894C54.0917 4.26727 53.4667 3.8506 53.05 3.8506C47.425 2.60061 41.175 3.22561 36.3833 6.35061C30.55 4.26727 24.3 3.01727 18.05 3.64227C13.4667 4.05894 8.675 6.35061 6.175 10.1006C2.84167 15.1006 2.425 21.3506 2.84167 26.9756C3.88333 34.684 5.75833 42.184 8.05 49.4756C9.71667 54.059 11.3833 58.6423 14.0917 62.6006C15.55 64.4756 17.425 66.559 19.925 66.7673C22.2167 66.9756 24.0917 65.7256 25.55 64.059C28.05 61.1423 30.3417 58.434 32.8417 55.7256C34.5083 56.559 36.3833 56.9756 38.05 57.184C37.0083 58.434 36.175 59.8923 34.7167 60.309C32.6333 61.1423 30.1333 60.934 28.2583 62.3923C27.2167 63.2256 27.0083 64.8923 28.05 65.7256C29.7167 67.3923 32.425 67.809 34.7167 68.0173C38.05 68.2256 41.3833 67.184 43.8833 64.8923C43.8833 70.1006 43.8833 75.5173 44.5083 80.7256C44.7167 83.8506 46.175 86.9756 48.4667 88.8506C50.55 90.7256 53.8833 91.1423 56.5917 90.7256C59.3 90.1006 62.2167 89.2673 64.3 87.6006C66.5917 85.5173 67.6333 82.6006 68.05 79.684C68.8833 74.4756 69.5083 69.2673 70.1333 63.8506C75.9667 64.8923 82.6333 63.6423 87.0083 59.4756C87.8417 58.6423 88.8833 56.9756 87.8417 55.934C87.0083 54.8923 85.3417 55.1006 84.0917 55.309C81.175 55.934 77.8417 56.559 74.925 55.1006C80.1333 46.7673 84.3 37.809 86.5917 28.2256C87.425 24.684 88.05 20.934 88.05 17.1839C87.8417 15.1006 87.6333 12.8089 86.3833 11.1423C83.2583 6.97563 78.675 4.05896 73.675 2.60061C67.6333 1.76726 60.7583 2.18394 54.5083 4.05894L54.5083 4.05894L54.5083 4.05894Z" transform="translate(0 0.14264956)" id="Shape#24" fill="#000000" fill-rule="evenodd" stroke="none" />
                    </g>
                  </g>
                </g>
              </g>
            </g>
          </g>
        </g>
      </g>
    </g>
  </g>
</svg>