<?xml version="1.0" encoding="utf-8"?>
<svg width="369px" height="100px" viewbox="0 0 369 100" version="1.1" xmlns:xlink="http://www.w3.org/1999/xlink" xmlns="http://www.w3.org/2000/svg">
  <g id="Group-2">
    <g id="Group">
      <g id="prometheus">
        <path d="M50 0C22.3859 0 0 22.3844 0 50C0 77.6156 22.3875 100 50 100C77.6125 100 100 77.6141 100 50C100 22.3859 77.6125 2.79397e-07 50 2.79397e-07L50 0ZM50 93.5781C42.1438 93.5781 35.7734 88.3281 35.7734 81.8594L64.2109 81.8594C64.2109 88.3312 57.8406 93.5781 49.9844 93.5781L50 93.5781ZM73.5156 77.9797L26.5 77.9797L26.5 69.4578L73.5156 69.4578L73.5156 77.9797ZM73.3469 65.0734L26.6359 65.0734L26.1719 64.5359C21.3594 58.6922 20.2281 55.6297 19.1281 52.5359C19.1094 52.4328 24.9625 53.7328 29.1125 54.6656C29.1125 54.6656 31.2484 55.1594 34.3688 55.7281C31.3719 52.2125 29.5922 47.7484 29.5922 43.1812C29.5922 33.1578 37.2797 24.4 34.5062 17.3219C37.2063 17.5406 40.0922 23.0187 40.2875 31.5812C43.1578 27.6156 44.3578 20.375 44.3578 15.9344C44.3578 11.3375 47.3891 5.99687 50.4172 5.81406C47.7141 10.2672 51.1172 14.0797 54.1391 23.5484C55.2734 27.1047 55.1281 33.0891 56.0031 36.8844C56.2938 29.0016 57.6484 17.5016 62.65 13.5312C60.4437 18.5312 62.9781 24.7891 64.7094 27.7969C67.5062 32.65 69.1984 36.3281 69.1984 43.2656C69.1984 47.9281 67.4766 52.3172 64.5734 55.7656C67.875 55.1453 70.1547 54.5875 70.1547 54.5875L80.8766 52.4937C80.8766 52.4922 79.3187 58.9 73.3328 65.0719L73.3469 65.0734Z" id="Shape" fill="#DA4E31" fill-rule="evenodd" stroke="none" />
      </g>
      <g id="Prometheus" transform="translate(109.992035 20.244469)">
        <path d="M161.328 46.196L161.328 10.844L165.6 10.844L165.6 25.148Q167.16 23.492 169.056 22.496Q170.952 21.5 173.424 21.5Q175.416 21.5 176.94 22.16Q178.464 22.82 179.484 24.032Q180.504 25.244 181.032 26.948Q181.56 28.652 181.56 30.716L181.56 46.196L177.288 46.196L177.288 30.716Q177.288 27.956 176.028 26.432Q174.768 24.908 172.176 24.908Q170.28 24.908 168.636 25.82Q166.992 26.732 165.6 28.292L165.6 46.196L161.328 46.196ZM9.288 46.196L9.288 33.332L14.808 33.332Q17.904 33.332 20.304 32.528Q22.704 31.724 24.324 30.284Q25.944 28.844 26.784 26.852Q27.624 24.86 27.624 22.46Q27.624 20.036 26.844 18.068Q26.064 16.1 24.48 14.708Q22.896 13.316 20.484 12.56Q18.072 11.804 14.808 11.804L4.656 11.804L4.656 46.196L9.288 46.196ZM146.364 44.972Q147.912 46.58 150.792 46.58Q152.448 46.58 154.008 45.992Q155.568 45.404 156.672 44.372L155.424 42.332Q155.16 41.924 154.824 41.924Q154.632 41.924 154.38 42.104Q154.128 42.284 153.768 42.5Q153.408 42.716 152.916 42.896Q152.424 43.076 151.752 43.076Q150.576 43.076 149.832 42.332Q149.088 41.588 149.088 40.052L149.088 25.46L156.048 25.46L156.048 22.364L149.088 22.364L149.088 13.988L146.928 13.988Q146.52 13.988 146.256 14.216Q145.992 14.444 145.944 14.804L144.96 22.316L140.976 22.82L140.976 24.524Q140.976 25.004 141.24 25.232Q141.504 25.46 141.888 25.46L144.816 25.46L144.816 40.34Q144.816 43.364 146.364 44.972ZM14.808 29.636L9.288 29.636L9.288 15.476L14.808 15.476Q18.912 15.476 20.94 17.324Q22.968 19.172 22.968 22.46Q22.968 24.044 22.44 25.364Q21.912 26.684 20.88 27.632Q19.848 28.58 18.324 29.108Q16.8 29.636 14.808 29.636ZM32.832 21.884L32.832 46.196L37.104 46.196L37.104 30.716Q38.112 28.244 39.612 26.948Q41.112 25.652 43.344 25.652Q44.592 25.652 45.288 25.88Q45.984 26.108 46.32 26.108Q46.896 26.108 47.064 25.508L47.616 22.316Q46.92 21.908 46.104 21.68Q45.288 21.452 44.28 21.452Q41.808 21.452 39.972 22.88Q38.136 24.308 36.888 26.852L36.6 23.06Q36.504 22.412 36.24 22.148Q35.976 21.884 35.28 21.884L32.832 21.884ZM62.016 21.5Q64.68 21.5 66.828 22.388Q68.976 23.276 70.476 24.908Q71.976 26.54 72.78 28.856Q73.584 31.172 73.584 34.028Q73.584 36.908 72.78 39.212Q71.976 41.516 70.476 43.148Q68.976 44.78 66.828 45.656Q64.68 46.532 62.016 46.532Q59.352 46.532 57.204 45.656Q55.056 44.78 53.544 43.148Q52.032 41.516 51.216 39.212Q50.4 36.908 50.4 34.028Q50.4 31.172 51.216 28.856Q52.032 26.54 53.544 24.908Q55.056 23.276 57.204 22.388Q59.352 21.5 62.016 21.5ZM78.864 21.884L78.864 46.196L83.136 46.196L83.136 28.076Q84.264 26.612 85.62 25.76Q86.976 24.908 88.56 24.908Q90.816 24.908 91.992 26.348Q93.168 27.788 93.168 30.716L93.168 46.196L97.44 46.196L97.44 30.716Q97.44 29.276 97.86 28.184Q98.28 27.092 99 26.372Q99.72 25.652 100.668 25.28Q101.616 24.908 102.672 24.908Q105.048 24.908 106.296 26.384Q107.544 27.86 107.544 30.716L107.544 46.196L111.816 46.196L111.816 30.716Q111.816 28.508 111.264 26.792Q110.712 25.076 109.668 23.9Q108.624 22.724 107.124 22.112Q105.624 21.5 103.704 21.5Q102.504 21.5 101.34 21.788Q100.176 22.076 99.144 22.7Q98.112 23.324 97.284 24.284Q96.456 25.244 95.952 26.564Q95.28 24.236 93.756 22.868Q92.232 21.5 89.76 21.5Q87.552 21.5 85.884 22.556Q84.216 23.612 82.872 25.268L82.56 22.772Q82.32 21.884 81.408 21.884L78.864 21.884ZM127.896 21.5Q130.08 21.5 131.928 22.232Q133.776 22.964 135.12 24.344Q136.464 25.724 137.22 27.752Q137.976 29.78 137.976 32.372Q137.976 33.38 137.76 33.716Q137.544 34.052 136.944 34.052L120.768 34.052Q120.816 36.356 121.392 38.06Q121.968 39.764 122.976 40.904Q123.984 42.044 125.376 42.608Q126.768 43.172 128.496 43.172Q130.104 43.172 131.268 42.8Q132.432 42.428 133.272 41.996Q134.112 41.564 134.676 41.192Q135.24 40.82 135.648 40.82Q136.176 40.82 136.464 41.228L137.664 42.788Q136.872 43.748 135.768 44.456Q134.664 45.164 133.404 45.62Q132.144 46.076 130.8 46.304Q129.456 46.532 128.136 46.532Q125.616 46.532 123.492 45.68Q121.368 44.828 119.82 43.184Q118.272 41.54 117.408 39.116Q116.544 36.692 116.544 33.548Q116.544 31.004 117.324 28.796Q118.104 26.588 119.568 24.968Q121.032 23.348 123.144 22.424Q125.256 21.5 127.896 21.5ZM201.672 22.232Q199.824 21.5 197.64 21.5Q195 21.5 192.888 22.424Q190.776 23.348 189.312 24.968Q187.848 26.588 187.068 28.796Q186.288 31.004 186.288 33.548Q186.288 36.692 187.152 39.116Q188.016 41.54 189.564 43.184Q191.112 44.828 193.236 45.68Q195.36 46.532 197.88 46.532Q199.2 46.532 200.544 46.304Q201.888 46.076 203.148 45.62Q204.408 45.164 205.512 44.456Q206.616 43.748 207.408 42.788L206.208 41.228Q205.92 40.82 205.392 40.82Q204.984 40.82 204.42 41.192Q203.856 41.564 203.016 41.996Q202.176 42.428 201.012 42.8Q199.848 43.172 198.24 43.172Q196.512 43.172 195.12 42.608Q193.728 42.044 192.72 40.904Q191.712 39.764 191.136 38.06Q190.56 36.356 190.512 34.052L206.688 34.052Q207.288 34.052 207.504 33.716Q207.72 33.38 207.72 32.372Q207.72 29.78 206.964 27.752Q206.208 25.724 204.864 24.344Q203.52 22.964 201.672 22.232ZM252.888 26.42Q253.488 26.42 253.776 25.892L254.736 24.332Q253.344 23.012 251.436 22.256Q249.528 21.5 247.128 21.5Q245.064 21.5 243.456 22.076Q241.848 22.652 240.744 23.624Q239.64 24.596 239.064 25.88Q238.488 27.164 238.488 28.556Q238.488 30.116 239.028 31.208Q239.568 32.3 240.456 33.044Q241.344 33.788 242.484 34.28Q243.624 34.772 244.812 35.156Q246 35.54 247.14 35.888Q248.28 36.236 249.168 36.704Q250.056 37.172 250.596 37.832Q251.136 38.492 251.136 39.5Q251.136 40.316 250.836 41.036Q250.536 41.756 249.912 42.308Q249.288 42.86 248.352 43.184Q247.416 43.508 246.168 43.508Q244.704 43.508 243.732 43.172Q242.76 42.836 242.076 42.428Q241.392 42.02 240.912 41.684Q240.432 41.348 240 41.348Q239.568 41.348 239.304 41.516Q239.04 41.684 238.848 41.996L237.84 43.628Q239.28 44.924 241.344 45.752Q243.408 46.58 245.952 46.58Q248.184 46.58 249.888 45.98Q251.592 45.38 252.768 44.336Q253.944 43.292 254.544 41.864Q255.144 40.436 255.144 38.756Q255.144 37.292 254.604 36.248Q254.064 35.204 253.176 34.484Q252.288 33.764 251.16 33.284Q250.032 32.804 248.844 32.408Q247.656 32.012 246.528 31.664Q245.4 31.316 244.512 30.86Q243.624 30.404 243.084 29.78Q242.544 29.156 242.544 28.22Q242.544 27.476 242.868 26.84Q243.192 26.204 243.804 25.724Q244.416 25.244 245.28 24.968Q246.144 24.692 247.224 24.692Q248.472 24.692 249.384 24.968Q250.296 25.244 250.956 25.568Q251.616 25.892 252.072 26.156Q252.528 26.42 252.888 26.42ZM216.864 21.884L216.864 37.388Q216.864 40.148 218.136 41.66Q219.408 43.172 221.976 43.172Q223.848 43.172 225.504 42.284Q227.16 41.396 228.552 39.812L228.552 21.884L232.824 21.884L232.824 46.196L230.28 46.196Q229.368 46.196 229.128 45.308L228.792 42.692Q227.208 44.444 225.24 45.512Q223.272 46.58 220.728 46.58Q218.736 46.58 217.212 45.92Q215.688 45.26 214.656 44.06Q213.624 42.86 213.108 41.156Q212.592 39.452 212.592 37.388L212.592 21.884L216.864 21.884ZM127.992 24.644Q124.896 24.644 123.12 26.432Q121.344 28.22 120.912 31.388L134.136 31.388Q134.136 29.9 133.728 28.664Q133.32 27.428 132.528 26.528Q131.736 25.628 130.596 25.136Q129.456 24.644 127.992 24.644ZM192.864 26.432Q194.64 24.644 197.736 24.644Q199.2 24.644 200.34 25.136Q201.48 25.628 202.272 26.528Q203.064 27.428 203.472 28.664Q203.88 29.9 203.88 31.388L190.656 31.388Q191.088 28.22 192.864 26.432ZM62.016 43.196Q65.616 43.196 67.392 40.784Q69.168 38.372 69.168 34.052Q69.168 29.708 67.392 27.284Q65.616 24.86 62.016 24.86Q60.192 24.86 58.848 25.484Q57.504 26.108 56.604 27.284Q55.704 28.46 55.26 30.176Q54.816 31.892 54.816 34.052Q54.816 36.212 55.26 37.916Q55.704 39.62 56.604 40.784Q57.504 41.948 58.848 42.572Q60.192 43.196 62.016 43.196Z" />
      </g>
    </g>
  </g>
</svg>