<?xml version="1.0" encoding="utf-8"?>
<svg width="285px" height="100px" viewbox="0 0 285 100" version="1.1" xmlns:xlink="http://www.w3.org/1999/xlink" xmlns="http://www.w3.org/2000/svg">
  <defs>
    <path d="M0 0L284.298 0L284.298 100L0 100L0 0L0 0Z" id="path_1" />
    <clipPath id="mask_1">
      <use xlink:href="#path_1" />
    </clipPath>
  </defs>
  <g id="svg">
    <g id="Group">
      <path d="M0 0L284.298 0L284.298 100L0 100L0 0L0 0Z" id="Background" fill="none" fill-rule="evenodd" stroke="none" />
      <g id="Mask-group">
        <path d="M0 0L284.298 0L284.298 100L0 100L0 0L0 0Z" id="path_1" fill="none" fill-rule="evenodd" stroke="none" />
        <g clip-path="url(#mask_1)">
          <g id="Group" transform="translate(-2.3644818E-06 0.8264463)">
            <g id="group">
              <path d="M73.0008 28.879L65.292 36.2666C77.9065 48.3555 77.9065 67.832 65.292 79.697C52.6774 91.786 32.354 91.786 19.9731 79.697C7.35849 67.6082 7.35849 48.1317 19.9731 36.2666L39.946 17.1259L42.7493 14.4395L42.7493 0L12.6145 28.879C-4.20485 44.9975 -4.20485 70.9662 12.6145 87.0843C29.434 103.203 56.5319 103.203 73.0008 87.0843C89.8207 70.8542 89.8207 44.9975 73.0008 28.879L73.0008 28.879L73.0008 28.879Z" id="Path" fill="#EE4C2C" fill-rule="evenodd" stroke="none" />
              <path d="M11.2129 5.37283C11.2129 8.34017 8.7029 10.7457 5.60646 10.7457C2.51006 10.7457 0 8.34017 0 5.37283C0 2.40546 2.51006 0 5.60646 0C8.7029 0 11.2129 2.40546 11.2129 5.37283L11.2129 5.37283L11.2129 5.37283Z" transform="translate(52.327034 16.342365)" id="Path-1" fill="#EE4C2C" fill-rule="evenodd" stroke="none" />
            </g>
            <g id="group-1" transform="translate(96.625465 20.578514)">
              <g id="group-2">
                <path d="M9.39297 25.337L4.04622 25.337L4.04622 39.0652L0 39.0652L0 0L9.82653 0C20.0865 0 24.9998 5.05777 24.9998 12.1387C25.1443 20.8573 19.075 25.337 9.39297 25.337L9.39297 25.337L9.39297 25.337ZM9.82653 3.90171C9.39297 3.90171 4.19072 3.90171 4.19072 3.90171L4.19072 21.8688L9.68198 21.7243C17.0519 21.5798 21.0981 18.6897 21.0981 12.6203C21.0981 6.93637 17.0519 3.90171 9.82653 3.90171L9.82653 3.90171L9.82653 3.90171Z" transform="translate(0 3.757199)" id="Path-2" fill="#000000" fill-rule="evenodd" stroke="none" />
                <path d="M17.0519 28.3717L14.7398 34.5855C12.1387 41.5219 9.39297 43.545 5.4913 43.545C3.32368 43.545 1.73409 42.9669 0 42.2444L1.15606 38.6317C2.45664 39.3542 3.90171 39.9323 5.4913 39.9323C7.6589 39.9323 9.24852 38.7762 11.4161 33.285L13.2947 28.2272L2.16761 0L6.35835 0L15.3178 23.6029L24.1328 0L28.179 0L17.0519 28.3717L17.0519 28.3717Z" transform="translate(26.059555 14.306261)" id="Path-3" fill="#000000" fill-rule="evenodd" stroke="none" />
                <path d="M17.7745 3.7572L17.7745 39.0652L13.7283 39.0652L13.7283 3.7572L0 3.7572L0 0L31.4064 0L31.4064 3.7572C31.3582 3.7572 17.7745 3.7572 17.7745 3.7572L17.7745 3.7572L17.7745 3.7572Z" transform="translate(49.66247 3.901707)" id="Path-4" fill="#000000" fill-rule="evenodd" stroke="none" />
                <path d="M13.7283 30.2021C5.78031 30.2021 0 24.2773 0 15.1733C0 6.06932 6.06933 0 14.1617 0C22.2542 0 27.89 5.92482 27.89 15.0288C27.7455 24.1328 21.6762 30.2021 13.7283 30.2021L13.7283 30.2021L13.7283 30.2021ZM13.8727 3.61269C7.80342 3.61269 3.90171 8.38141 3.90171 15.1733C3.90171 22.1097 7.94793 26.8784 14.0173 26.8784C20.0866 26.8784 23.9883 22.1097 23.9883 15.3179C23.9883 8.23693 19.9421 3.61269 13.8727 3.61269L13.8727 3.61269L13.8727 3.61269Z" transform="translate(78.75667 13.487382)" id="Path-5" fill="#000000" fill-rule="evenodd" stroke="none" />
                <path d="M3.9017 29.5278L0 29.5278L0 0.867049L3.9017 0L3.9017 6.06932C5.78029 2.45664 8.52594 0 12.2831 0C14.1617 0 15.8959 0.578031 17.3409 1.30057L16.3293 4.91326C15.0288 4.19073 13.5837 3.61269 11.9941 3.61269C8.95949 3.61269 6.21382 5.92482 3.9017 10.9826L3.9017 29.5278L3.9017 29.5278Z" transform="translate(112.42698 13.439213)" id="Path-6" fill="#000000" fill-rule="evenodd" stroke="none" />
                <path d="M14.0173 30.2021C5.34678 30.2021 0 23.9883 0 15.1733C0 6.21383 5.9248 0 14.0173 0C17.4855 0 20.5201 0.867049 22.9767 2.45663L21.9651 5.92482C19.7975 4.47973 17.0519 3.61269 14.0173 3.61269C7.8034 3.61269 4.04623 8.23693 4.04623 15.0288C4.04623 21.9652 8.09243 26.5894 14.1617 26.5894C17.0519 26.5894 19.9421 25.7224 22.1097 24.2773L22.9767 27.89C20.3755 29.335 17.3409 30.2021 14.0173 30.2021L14.0173 30.2021L14.0173 30.2021Z" transform="translate(130.97212 13.487382)" id="Path-7" fill="#000000" fill-rule="evenodd" stroke="none" />
                <path d="M18.786 42.9669L18.786 24.4218C18.786 19.364 16.7629 17.1964 12.7167 17.1964C9.39298 17.1964 6.21383 18.9305 3.90171 21.2426L3.90171 42.9669L0 42.9669L0 0.867049L3.90171 0L3.90171 18.1117C6.93637 15.0769 10.6936 13.6319 13.8727 13.6319C19.3641 13.6319 22.8322 17.2445 22.8322 23.4584L22.8322 43.0151L18.786 43.0151L18.786 42.9669L18.786 42.9669Z" transform="translate(159.05478 0)" id="Path-8" fill="#000000" fill-rule="evenodd" stroke="none" />
              </g>
            </g>
          </g>
        </g>
      </g>
    </g>
  </g>
</svg>