<?xml version="1.0" encoding="utf-8"?>
<svg width="449px" height="100px" viewbox="0 0 449 100" version="1.1" xmlns:xlink="http://www.w3.org/1999/xlink" xmlns="http://www.w3.org/2000/svg">
  <defs>
    <path d="M0 0L448.837 0L448.837 100L0 100L0 0Z" id="path_1" />
    <path d="M0 0L448.837 0L448.837 99.6512L0 99.6512L0 0Z" id="path_2" />
    <path d="M0 0L116.279 0L116.279 116.279L0 116.279L0 0L0 0Z" id="path_3" />
    <clipPath id="mask_1">
      <use xlink:href="#path_1" />
    </clipPath>
    <clipPath id="mask_2">
      <use xlink:href="#path_2" />
    </clipPath>
    <clipPath id="mask_3">
      <use xlink:href="#path_3" />
    </clipPath>
  </defs>
  <g id="svg">
    <path d="M0 0L448.837 0L448.837 100L0 100L0 0Z" id="Background" fill="none" fill-rule="evenodd" stroke="none" />
    <g clip-path="url(#mask_1)">
      <g id="Mask-group">
        <path d="M0 0L448.837 0L448.837 99.6512L0 99.6512L0 0Z" id="artboard_1" fill="none" fill-rule="evenodd" stroke="none" />
        <g clip-path="url(#mask_2)">
          <g id="Artboard" transform="translate(0 -8.372092)">
            <g id="React-Native-icon">
              <path d="M0 0L116.279 0L116.279 116.279L0 116.279L0 0L0 0Z" id="Background" fill="none" fill-rule="evenodd" stroke="none" />
              <g id="Mask-group">
                <path d="M0 0L116.279 0L116.279 116.279L0 116.279L0 0L0 0Z" id="path_1" fill="none" fill-rule="evenodd" stroke="none" />
                <g clip-path="url(#mask_3)">
                  <g id="Group" transform="translate(2.4224749 8.3602295)">
                    <path d="M55.717 48.4496C24.467 48.4496 0 37.7907 0 24.2248C0 10.6589 24.467 0 55.717 0C86.9669 0 111.434 10.6589 111.434 24.2248C111.434 37.7907 86.9669 48.4496 55.717 48.4496L55.717 48.4496L55.717 48.4496ZM55.717 4.84496C25.1938 4.84496 4.84497 14.7772 4.84497 24.2248C4.84497 33.6725 25.1938 43.6047 55.717 43.6047C86.2401 43.6047 106.589 33.6725 106.589 24.2248C106.589 14.7772 86.2401 4.84496 55.717 4.84496L55.717 4.84496L55.717 4.84496Z" transform="translate(0 25.554495)" id="Shape" fill="#80DEEA" fill-rule="evenodd" stroke="none" />
                    <path d="M13.5081 99.6727C11.0856 99.6727 9.14768 99.1884 7.20966 97.9767C-4.66048 91.1942 -1.51125 64.7889 13.9926 37.6572L13.9926 37.6572C21.2601 25.0603 30.2233 14.4013 38.9442 7.61843C48.3919 0.350977 56.8705 -1.82926 62.6843 1.56222C68.7407 4.95369 70.9209 13.4324 69.4675 25.3025C68.014 36.4459 63.1692 49.5273 55.9016 62.1244C48.6341 74.7209 39.6709 85.3802 30.95 92.1628C24.6515 97.0081 18.5954 99.6727 13.5081 99.6727L13.5081 99.6727L13.5081 99.6727ZM56.6283 4.71144C52.7523 4.71144 47.6651 6.89169 42.0934 11.2522C33.857 17.7928 25.3783 27.9673 18.3531 40.0796L18.3531 40.0796C3.09147 66.4849 1.63798 89.2558 9.63216 93.8587C13.7504 96.2814 20.5333 94.1012 28.043 88.2872C36.2795 81.7465 44.7582 71.5721 51.7833 59.4593C58.8087 47.3471 63.4111 34.9924 64.8645 24.5758C66.0762 14.8859 64.6227 8.10291 60.5041 5.68044C59.293 5.19594 58.0818 4.71144 56.6283 4.71144L56.6283 4.71144L56.6283 4.71144Z" transform="translate(20.648848 0.009722806)" id="Shape#1" fill="#80DEEA" fill-rule="evenodd" stroke="none" />
                    <path d="M56.8539 99.6825C44.7415 99.6825 27.2997 84.9052 14.2183 61.8919C-1.52788 34.7599 -4.6771 8.35488 7.19308 1.57194L7.19308 1.57194C19.0632 -5.211 40.3811 10.5351 56.1272 37.6669C63.3948 50.2638 68.2395 63.3453 69.693 74.4884C71.389 86.3587 68.9663 94.5953 62.9099 98.2291C60.9721 99.1977 59.0343 99.6825 56.8539 99.6825L56.8539 99.6825L56.8539 99.6825ZM9.61552 5.69016C1.62134 10.2928 3.07483 33.0642 18.3364 59.4692C33.5981 85.8744 52.4934 98.4709 60.4878 93.8686C64.6058 91.4459 66.0593 84.6628 64.8483 74.9733C63.3948 64.5564 58.7919 52.2018 51.7667 40.0894C36.5051 13.6844 17.6097 1.08745 9.61552 5.69016L9.61552 5.69016L9.61552 5.69016L9.61552 5.69016Z" transform="translate(20.665482 0)" id="Shape#2" fill="#80DEEA" fill-rule="evenodd" stroke="none" />
                    <path d="M0 9.68994C0 4.33833 4.33833 0 9.68994 0C15.0415 0 19.3798 4.33833 19.3798 9.68994C19.3798 15.0415 15.0415 19.3798 9.68994 19.3798C4.33833 19.3798 0 15.0415 0 9.68994L0 9.68994Z" transform="translate(46.02713 40.08938)" id="Circle" fill="#80DEEA" fill-rule="evenodd" stroke="none" />
                  </g>
                </g>
              </g>
            </g>
            <g id="React-Native" transform="translate(126.41862 37.22093)">
              <path d="M254.986 6.08372C255.228 5.56279 255.349 5.00465 255.349 4.4093C255.349 3.79535 255.228 3.2186 254.986 2.67907C254.744 2.13953 254.423 1.67442 254.023 1.28372C253.623 0.893023 253.154 0.581395 252.614 0.348839C252.074 0.11628 251.498 0 250.884 0C250.288 0 249.726 0.11628 249.195 0.348839C248.665 0.581395 248.205 0.893023 247.814 1.28372C247.423 1.67442 247.112 2.13953 246.879 2.67907C246.647 3.2186 246.53 3.79535 246.53 4.4093C246.53 5.00465 246.647 5.56279 246.879 6.08372C247.112 6.60465 247.423 7.06046 247.814 7.45116C248.205 7.84186 248.665 8.15349 249.195 8.38605C249.726 8.61861 250.288 8.73488 250.884 8.73488C251.498 8.73488 252.074 8.61861 252.614 8.38605C253.154 8.15349 253.623 7.84186 254.023 7.45116C254.423 7.06046 254.744 6.60465 254.986 6.08372L254.986 6.08372ZM7.50698 25.6186L7.50698 41.386L0 41.386L0 1.03256L12.307 1.03256C15.0605 1.03256 17.4186 1.31628 19.3814 1.88372C21.3442 2.45116 22.9535 3.24651 24.2093 4.26977C25.4651 5.29302 26.386 6.51628 26.9721 7.93953C27.5581 9.36279 27.8512 10.9302 27.8512 12.6419C27.8512 14 27.6512 15.2837 27.2512 16.493C26.8512 17.7023 26.2744 18.8 25.5209 19.786C24.7674 20.7721 23.8372 21.6372 22.7302 22.3814C21.6233 23.1256 20.3628 23.7209 18.9488 24.1674C19.8977 24.707 20.7163 25.4791 21.4046 26.4837L31.507 41.386L24.7535 41.386C24.1023 41.386 23.5488 41.2558 23.093 40.9953C22.6372 40.7349 22.2512 40.3628 21.9349 39.8791L13.4512 26.9581C13.1349 26.4744 12.786 26.1302 12.4047 25.9256C12.0233 25.7209 11.4605 25.6186 10.7163 25.6186L7.50698 25.6186L7.50698 25.6186ZM158.288 1.03256C158.623 1.03256 158.902 1.04651 159.126 1.07442C159.349 1.10233 159.549 1.15814 159.726 1.24186C159.902 1.32558 160.074 1.44651 160.242 1.60465C160.409 1.76279 160.595 1.97209 160.8 2.23256L181.981 29.2186C181.907 28.5674 181.856 27.9302 181.828 27.307C181.8 26.6837 181.786 26.1023 181.786 25.5628L181.786 1.03256L188.4 1.03256L188.4 41.386L184.521 41.386C183.926 41.386 183.433 41.293 183.042 41.107C182.651 40.9209 182.27 40.586 181.898 40.1023L160.8 13.2279C160.856 13.8233 160.898 14.414 160.926 15C160.953 15.586 160.967 16.1209 160.967 16.6047L160.967 41.386L154.354 41.386L154.354 1.03256L158.288 1.03256L158.288 1.03256ZM125.274 39.7256C126.614 41.1302 128.521 41.8326 130.995 41.8326C132.391 41.8326 133.74 41.6186 135.042 41.1907C136.344 40.7628 137.498 40.1302 138.502 39.293L136.437 35.9442C136.288 35.7395 136.149 35.586 136.019 35.4837C135.888 35.3814 135.721 35.3302 135.516 35.3302C135.349 35.3302 135.181 35.3814 135.014 35.4837C134.847 35.586 134.656 35.693 134.442 35.8046C134.228 35.9163 133.977 36.0233 133.688 36.1256C133.4 36.2279 133.042 36.2791 132.614 36.2791C131.87 36.2791 131.274 36.0279 130.828 35.5256C130.381 35.0233 130.158 34.3256 130.158 33.4326L130.158 17.9163L137.693 17.9163L137.693 13.0047L130.158 13.0047L130.158 3.9907L126.586 3.9907C126.177 3.9907 125.837 4.09302 125.567 4.29768C125.298 4.50233 125.126 4.7907 125.051 5.16279L123.6 12.9767L118.995 13.7302L118.995 16.4651C118.995 16.9488 119.13 17.3116 119.4 17.5535C119.67 17.7953 119.991 17.9163 120.363 17.9163L123.265 17.9163L123.265 33.907C123.265 36.3814 123.935 38.3209 125.274 39.7256L125.274 39.7256ZM234.781 41.8326C232.307 41.8326 230.4 41.1302 229.06 39.7256C227.721 38.3209 227.051 36.3814 227.051 33.907L227.051 17.9163L224.149 17.9163C223.777 17.9163 223.456 17.7953 223.186 17.5535C222.916 17.3116 222.781 16.9488 222.781 16.4651L222.781 13.7302L227.386 12.9767L228.837 5.16279C228.912 4.7907 229.084 4.50233 229.353 4.29768C229.623 4.09302 229.963 3.9907 230.372 3.9907L233.944 3.9907L233.944 13.0047L241.479 13.0047L241.479 17.9163L233.944 17.9163L233.944 33.4326C233.944 34.3256 234.167 35.0233 234.614 35.5256C235.06 36.0279 235.656 36.2791 236.4 36.2791C236.828 36.2791 237.186 36.2279 237.474 36.1256C237.763 36.0233 238.014 35.9163 238.228 35.8046C238.442 35.693 238.633 35.586 238.8 35.4837C238.967 35.3814 239.135 35.3302 239.302 35.3302C239.507 35.3302 239.674 35.3814 239.805 35.4837C239.935 35.586 240.074 35.7395 240.223 35.9442L242.288 39.293C241.284 40.1302 240.13 40.7628 238.828 41.1907C237.526 41.6186 236.177 41.8326 234.781 41.8326L234.781 41.8326ZM7.50698 20.2326L12.1953 20.2326C13.6093 20.2326 14.8419 20.0558 15.893 19.7023C16.9442 19.3488 17.8093 18.8605 18.4884 18.2372C19.1674 17.614 19.6744 16.8744 20.0093 16.0186C20.3442 15.1628 20.5116 14.2233 20.5116 13.2C20.5116 11.1535 19.8372 9.5814 18.4884 8.48372C17.1395 7.38605 15.0791 6.83721 12.307 6.83721L7.50698 6.83721L7.50698 20.2326L7.50698 20.2326ZM85.0884 41.386L88.1861 41.386L88.1861 23.3023C88.1861 21.6837 87.9488 20.1954 87.4744 18.8372C87 17.4791 86.307 16.3116 85.3954 15.3349C84.4837 14.3581 83.3721 13.5953 82.0605 13.0465C80.7488 12.4977 79.2558 12.2233 77.5814 12.2233C72.9302 12.2233 68.9581 13.7302 65.6651 16.7442L66.9209 18.9488C67.1256 19.3023 67.3953 19.6 67.7302 19.8419C68.0651 20.0837 68.4651 20.2046 68.9302 20.2046C69.4884 20.2046 70 20.0744 70.4651 19.814C70.9302 19.5535 71.4372 19.2605 71.986 18.9349C72.5349 18.6093 73.1814 18.3163 73.9256 18.0558C74.6698 17.7953 75.6 17.6651 76.7163 17.6651C78.2605 17.6651 79.4372 18.1291 80.2465 19.057C81.0558 19.9849 81.4605 21.4144 81.4605 23.3455L81.4605 25.0326C78.2047 25.0326 75.4791 25.3126 73.2837 25.8726C71.0884 26.4326 69.3302 27.1373 68.0093 27.9866C66.6884 28.8358 65.7442 29.7878 65.1768 30.8424C64.6093 31.8971 64.3256 32.9658 64.3256 34.0487C64.3256 35.3365 64.5302 36.4658 64.9395 37.4366C65.3488 38.4073 65.9209 39.2194 66.6558 39.8727C67.3907 40.5261 68.2698 41.016 69.293 41.3427C70.3163 41.6693 71.4326 41.8326 72.6419 41.8326C73.6651 41.8326 74.5954 41.7488 75.4326 41.5814C76.2698 41.414 77.0605 41.1628 77.8047 40.8279C78.5488 40.493 79.2698 40.0791 79.9675 39.586C80.6651 39.093 81.3768 38.5209 82.1023 37.8698L82.7163 39.907C82.9023 40.5023 83.1814 40.8977 83.5535 41.093C83.9256 41.2884 84.4372 41.386 85.0884 41.386L85.0884 41.386ZM215.498 41.386L218.595 41.386L218.595 23.3023C218.595 21.6837 218.358 20.1954 217.884 18.8372C217.409 17.4791 216.716 16.3116 215.805 15.3349C214.893 14.3581 213.781 13.5953 212.47 13.0465C211.158 12.4977 209.665 12.2233 207.991 12.2233C203.34 12.2233 199.367 13.7302 196.074 16.7442L197.33 18.9488C197.535 19.3023 197.805 19.6 198.14 19.8419C198.474 20.0837 198.874 20.2046 199.34 20.2046C199.898 20.2046 200.409 20.0744 200.874 19.814C201.34 19.5535 201.846 19.2605 202.395 18.9349C202.944 18.6093 203.591 18.3163 204.335 18.0558C205.079 17.7953 206.009 17.6651 207.126 17.6651C208.67 17.6651 209.847 18.1291 210.656 19.057C211.465 19.9849 211.87 21.4144 211.87 23.3455L211.87 25.0326C208.614 25.0326 205.888 25.3126 203.693 25.8726C201.498 26.4326 199.74 27.1373 198.419 27.9866C197.098 28.8358 196.153 29.7878 195.586 30.8424C195.019 31.8971 194.735 32.9658 194.735 34.0487C194.735 35.3365 194.94 36.4658 195.349 37.4366C195.758 38.4073 196.33 39.2194 197.065 39.8727C197.8 40.5261 198.679 41.016 199.702 41.3427C200.726 41.6693 201.842 41.8326 203.051 41.8326C204.074 41.8326 205.005 41.7488 205.842 41.5814C206.679 41.414 207.47 41.1628 208.214 40.8279C208.958 40.493 209.679 40.0791 210.377 39.586C211.074 39.093 211.786 38.5209 212.512 37.8698L213.126 39.907C213.312 40.5023 213.591 40.8977 213.963 41.093C214.335 41.2884 214.846 41.386 215.498 41.386L215.498 41.386ZM47.7488 12.307C49.5535 12.307 51.214 12.5953 52.7302 13.1721C54.2465 13.7488 55.5535 14.5907 56.6512 15.6977C57.7488 16.8047 58.6046 18.1628 59.2186 19.7721C59.8326 21.3814 60.1395 23.2186 60.1395 25.2837C60.1395 25.8047 60.1163 26.2372 60.0698 26.5814C60.0233 26.9256 59.9395 27.1953 59.8186 27.3907C59.6977 27.586 59.5349 27.7256 59.3302 27.8093C59.1256 27.893 58.8651 27.9349 58.5488 27.9349L40.8558 27.9349C41.0605 30.8744 41.8512 33.0326 43.2279 34.4093C44.6047 35.786 46.4279 36.4744 48.6977 36.4744C49.8139 36.4744 50.7767 36.3442 51.586 36.0837C52.3953 35.8233 53.1023 35.5349 53.707 35.2186C54.3116 34.9023 54.8419 34.614 55.2977 34.3535C55.7535 34.093 56.1954 33.9628 56.6233 33.9628C56.9023 33.9628 57.1442 34.0186 57.3488 34.1302C57.5535 34.2419 57.7302 34.4 57.8791 34.6047L59.8884 37.1163C59.1256 38.0093 58.2698 38.7581 57.3209 39.3628C56.3721 39.9674 55.3814 40.4512 54.3488 40.814C53.3163 41.1767 52.2651 41.4326 51.1954 41.5814C50.1256 41.7302 49.0884 41.8047 48.0837 41.8047C46.093 41.8047 44.2419 41.4744 42.5302 40.814C40.8186 40.1535 39.3302 39.1767 38.0651 37.8837C36.8 36.5907 35.8046 34.9907 35.0791 33.0837C34.3535 31.1767 33.9907 28.9674 33.9907 26.4558C33.9907 24.5023 34.307 22.6651 34.9395 20.9442C35.5721 19.2233 36.4791 17.7256 37.6605 16.4512C38.8419 15.1767 40.2837 14.1674 41.986 13.4233C43.6884 12.6791 45.6093 12.307 47.7488 12.307L47.7488 12.307ZM115.088 18.8093C114.884 19.0698 114.684 19.2744 114.488 19.4233C114.293 19.5721 114.009 19.6465 113.637 19.6465C113.284 19.6465 112.94 19.5395 112.605 19.3256C112.27 19.1116 111.87 18.8698 111.405 18.6C110.94 18.3302 110.386 18.0884 109.744 17.8744C109.102 17.6605 108.307 17.5535 107.358 17.5535C106.149 17.5535 105.088 17.7721 104.177 18.2093C103.265 18.6465 102.507 19.2744 101.902 20.093C101.298 20.9116 100.847 21.9023 100.549 23.0651C100.251 24.2279 100.102 25.5442 100.102 27.014C100.102 28.5395 100.265 29.8977 100.591 31.0884C100.916 32.2791 101.386 33.2791 102 34.0884C102.614 34.8977 103.358 35.5116 104.233 35.9302C105.107 36.3488 106.093 36.5581 107.191 36.5581C108.288 36.5581 109.177 36.4233 109.856 36.1535C110.535 35.8837 111.107 35.5861 111.572 35.2605C112.037 34.9349 112.442 34.6372 112.786 34.3674C113.13 34.0977 113.516 33.9628 113.944 33.9628C114.502 33.9628 114.921 34.1767 115.2 34.6047L117.181 37.1163C116.419 38.0093 115.591 38.7581 114.698 39.3628C113.805 39.9674 112.879 40.4512 111.921 40.814C110.963 41.1767 109.972 41.4326 108.949 41.5814C107.926 41.7302 106.912 41.8047 105.907 41.8047C104.14 41.8047 102.474 41.4744 100.912 40.814C99.3488 40.1535 97.9861 39.1907 96.8233 37.9256C95.6605 36.6605 94.7395 35.1116 94.0605 33.2791C93.3814 31.4465 93.0419 29.3581 93.0419 27.014C93.0419 24.9116 93.3442 22.9628 93.9488 21.1674C94.5535 19.3721 95.4418 17.8186 96.614 16.507C97.7861 15.1953 99.2372 14.1674 100.967 13.4233C102.698 12.6791 104.688 12.307 106.94 12.307C109.079 12.307 110.953 12.6512 112.563 13.3395C114.172 14.0279 115.619 15.014 116.902 16.2977L115.088 18.8093L115.088 18.8093ZM308.693 13.1721C307.177 12.5953 305.516 12.307 303.712 12.307C301.572 12.307 299.651 12.6791 297.949 13.4233C296.247 14.1674 294.805 15.1767 293.623 16.4512C292.442 17.7256 291.535 19.2233 290.902 20.9442C290.27 22.6651 289.954 24.5023 289.954 26.4558C289.954 28.9674 290.316 31.1767 291.042 33.0837C291.767 34.9907 292.763 36.5907 294.028 37.8837C295.293 39.1767 296.781 40.1535 298.493 40.814C300.205 41.4744 302.056 41.8047 304.047 41.8047C305.051 41.8047 306.088 41.7302 307.158 41.5814C308.228 41.4326 309.279 41.1767 310.312 40.814C311.344 40.4512 312.335 39.9674 313.284 39.3628C314.233 38.7581 315.088 38.0093 315.851 37.1163L313.842 34.6047C313.693 34.4 313.516 34.2419 313.312 34.1302C313.107 34.0186 312.865 33.9628 312.586 33.9628C312.158 33.9628 311.716 34.093 311.26 34.3535C310.805 34.614 310.274 34.9023 309.67 35.2186C309.065 35.5349 308.358 35.8233 307.549 36.0837C306.74 36.3442 305.777 36.4744 304.66 36.4744C302.391 36.4744 300.567 35.786 299.191 34.4093C297.814 33.0326 297.023 30.8744 296.819 27.9349L314.512 27.9349C314.828 27.9349 315.088 27.893 315.293 27.8093C315.498 27.7256 315.66 27.586 315.781 27.3907C315.902 27.1953 315.986 26.9256 316.033 26.5814C316.079 26.2372 316.102 25.8047 316.102 25.2837C316.102 23.2186 315.795 21.3814 315.181 19.7721C314.567 18.1628 313.712 16.8047 312.614 15.6977C311.516 14.5907 310.209 13.7488 308.693 13.1721L308.693 13.1721ZM254.316 41.386L254.316 12.7535L247.423 12.7535L247.423 41.386L254.316 41.386L254.316 41.386ZM276.447 41.386L270.195 41.386L258.809 12.7535L264.53 12.7535C265.033 12.7535 265.456 12.8744 265.8 13.1163C266.144 13.3581 266.381 13.6651 266.512 14.0372L272.037 29.3302C272.354 30.2233 272.619 31.0977 272.833 31.9535C273.047 32.8093 273.237 33.6651 273.405 34.5209C273.572 33.6651 273.763 32.8093 273.977 31.9535C274.191 31.0977 274.465 30.2233 274.8 29.3302L280.465 14.0372C280.595 13.6651 280.828 13.3581 281.163 13.1163C281.498 12.8744 281.898 12.7535 282.363 12.7535L287.805 12.7535L276.447 41.386L276.447 41.386ZM47.8884 17.2465C45.8791 17.2465 44.307 17.8139 43.1721 18.9488C42.0372 20.0837 41.3116 21.693 40.9953 23.7767L53.9442 23.7767C53.9442 22.8837 53.8232 22.0419 53.5814 21.2512C53.3395 20.4605 52.9674 19.7674 52.4651 19.1721C51.9628 18.5767 51.3302 18.107 50.5675 17.7628C49.8047 17.4186 48.9116 17.2465 47.8884 17.2465L47.8884 17.2465ZM299.135 18.9488C300.27 17.8139 301.842 17.2465 303.851 17.2465C304.874 17.2465 305.767 17.4186 306.53 17.7628C307.293 18.107 307.926 18.5767 308.428 19.1721C308.93 19.7674 309.302 20.4605 309.544 21.2512C309.786 22.0419 309.907 22.8837 309.907 23.7767L296.958 23.7767C297.274 21.693 298 20.0837 299.135 18.9488L299.135 18.9488ZM76.7442 36.896C76.1488 37.0243 75.4977 37.0884 74.7907 37.0884C73.6372 37.0884 72.7023 36.826 71.986 36.3013C71.2698 35.7766 70.9116 34.9052 70.9116 33.6872C70.9116 33.0689 71.0837 32.4974 71.4279 31.9729C71.7721 31.4483 72.3535 30.9892 73.1721 30.5956C73.9907 30.202 75.0744 29.8788 76.4233 29.6259C77.7721 29.373 79.4512 29.2465 81.4605 29.2465L81.4605 34.0391C80.9581 34.5519 80.4605 34.996 79.9675 35.3715C79.4744 35.7469 78.9628 36.0628 78.4326 36.3192C77.9023 36.5756 77.3395 36.7679 76.7442 36.896L76.7442 36.896ZM207.154 36.896C206.558 37.0243 205.907 37.0884 205.2 37.0884C204.047 37.0884 203.112 36.826 202.395 36.3013C201.679 35.7766 201.321 34.9052 201.321 33.6872C201.321 33.0689 201.493 32.4974 201.837 31.9729C202.181 31.4483 202.763 30.9892 203.581 30.5956C204.4 30.202 205.484 29.8788 206.833 29.6259C208.181 29.373 209.861 29.2465 211.87 29.2465L211.87 34.0391C211.367 34.5519 210.87 34.996 210.377 35.3715C209.884 35.7469 209.372 36.0628 208.842 36.3192C208.312 36.5756 207.749 36.7679 207.154 36.896L207.154 36.896Z" id="Shape" fill="#73A9B0" fill-rule="evenodd" stroke="none" />
            </g>
          </g>
        </g>
      </g>
    </g>
  </g>
</svg>