<?xml version="1.0" encoding="utf-8"?>
<svg width="450px" height="100px" viewbox="0 0 450 100" version="1.1" xmlns:xlink="http://www.w3.org/1999/xlink" xmlns="http://www.w3.org/2000/svg">
  <defs>
    <path d="M0 0L449.299 0L449.299 100L0 100L0 0Z" id="path_1" />
    <clipPath id="mask_1">
      <use xlink:href="#path_1" />
    </clipPath>
  </defs>
  <g id="RHEL8">
    <path d="M0 0L449.299 0L449.299 100L0 100L0 0Z" id="Background" fill="none" fill-rule="evenodd" stroke="none" />
    <g clip-path="url(#mask_1)">
      <path d="M0 0L22.4495 0L22.4495 3.99883L4.56771 3.99883L4.56771 13.1384L16.3132 13.1384L16.3132 17.0536L4.56771 17.0536L4.56771 26.4609L22.621 26.4609L22.621 30.4639L0 30.4639L0 0Z" transform="translate(94.80487 60.54294)" id="Shape" fill="#000000" fill-rule="evenodd" stroke="none" />
      <path d="M0.00416143 0.43859L4.35018 0.43859L4.35018 2.65552C6.11044 0.892895 8.51927 -0.0664042 11.0093 0.00357423C16.0957 0.00357423 19.6219 3.57157 19.6219 8.66212L19.6219 22.5827L15.3135 22.5827L15.3135 9.38994C15.3135 5.95162 13.2221 3.77652 9.78793 3.77652C7.59724 3.71186 5.53318 4.80105 4.35019 6.64598L4.35019 22.5702L0 22.5702L0.00416143 0.43859Z" transform="translate(121.55438 68.41154)" id="Shape" fill="#000000" fill-rule="evenodd" stroke="none" />
      <path d="M4.69737 10.3568L0 10.3568L0 6.70097L4.69737 6.70097L4.69737 1.04572L9.00573 0L9.00573 6.6926L15.531 6.6926L15.531 10.3484L9.00573 10.3484L9.00573 22.3449C9.00573 24.6079 9.91759 25.4361 12.2642 25.4361C13.3476 25.467 14.4268 25.2895 15.4432 24.9132L15.4432 28.5649C14.1033 28.9763 12.712 29.196 11.3105 29.2174C7.00214 29.2174 4.69737 27.1761 4.69737 23.3614L4.69737 10.3568Z" transform="translate(143.573 62.14916)" id="Shape" fill="#000000" fill-rule="evenodd" stroke="none" />
      <path d="M11.0972 0C17.1874 0 21.7969 5.04455 21.7969 11.5698L21.7969 12.8247L4.30836 12.8247C4.86776 16.5126 8.06175 19.2228 11.7915 19.1743C13.8322 19.2181 15.8219 18.5346 17.4049 17.246L20.1866 19.99C17.7702 21.9568 14.7305 22.9953 11.6158 22.918C5.09055 22.918 0 17.8985 0 11.436C-1.27651e-05 5.04455 4.83122 0 11.0972 0L11.0972 0ZM4.35436 9.57042L17.4886 9.57042C16.8821 6.17811 14.226 3.65165 11.0093 3.65165C7.61701 3.65165 5.00272 6.09027 4.35436 9.57042L4.35436 9.57042Z" transform="translate(160.83994 68.502945)" id="Shape" fill="#000000" fill-rule="evenodd" stroke="none" />
      <path d="M0 0.479547L4.35438 0.479547L4.35438 3.21933C5.68633 1.18387 7.96632 -0.0294938 10.3986 0.00269344C11.1678 -0.0197349 11.9346 0.0979085 12.6616 0.349879L12.6616 4.26505C11.826 3.95445 10.9428 3.79167 10.0515 3.78402C7.7467 3.78402 5.57161 4.91758 4.35439 7.78703L4.35439 22.6237L0 22.6237L0 0.479547Z" transform="translate(186.72357 68.37058)" id="Shape" fill="#000000" fill-rule="evenodd" stroke="none" />
      <path d="M0.00418696 0.343312L4.30418 0.343312L4.30418 2.43475C6.20685 0.843909 8.61298 -0.0189179 11.093 0.000312746C17.4008 0.000312746 22.2738 5.04486 22.2738 11.3986C22.2738 17.7524 17.4007 22.8388 10.9591 22.8388C8.57823 22.8518 6.25801 22.0882 4.3502 20.6637L4.35019 31.4974L0 31.4974L0.00418696 0.343312ZM4.35438 6.39175L4.35438 16.485C5.94716 18.1636 8.17288 19.0943 10.4864 19.0491C14.7948 19.0491 18.0156 15.7447 18.0156 11.4363C18.0156 7.04429 14.7112 3.78164 10.4865 3.78164C7.91819 3.78164 5.7891 4.73533 4.35438 6.39175L4.35438 6.39175Z" transform="translate(203.16644 68.50681)" id="Shape" fill="#000000" fill-rule="evenodd" stroke="none" />
      <path d="M0 0.47972L4.3502 0.47972L4.3502 3.2195C5.68214 1.18404 7.96211 -0.0293215 10.3944 0.00286577C11.1636 -0.0203221 11.9305 0.0973468 12.6574 0.350052L12.6574 4.26522C11.8219 3.95462 10.9386 3.79185 10.0473 3.78419C7.7425 3.78419 5.5674 4.91776 4.3502 7.7872L4.3502 22.6239L0 22.6239L0 0.47972Z" transform="translate(229.5311 68.37041)" id="Shape" fill="#000000" fill-rule="evenodd" stroke="none" />
      <path d="M0 2.69377C0.0091909 1.20821 1.21243 0.00684211 2.69799 0C4.14558 0.0570409 5.28972 1.24716 5.28972 2.69588C5.28972 4.14459 4.14555 5.3347 2.69796 5.39173C1.2108 5.38486 0.00689317 4.18096 2.55303e-05 2.69377L0 2.69377ZM4.87306 31.1039L0.52286 31.1039L0.52286 8.95972L4.87306 8.95972L4.87306 31.1039Z" transform="translate(245.45111 59.890404)" id="Shape" fill="#000000" fill-rule="evenodd" stroke="none" />
      <path d="M2.35915 16.7401C4.36682 18.4828 6.92086 19.4683 9.57879 19.5259C13.0589 19.5259 14.8869 18.0034 14.8869 16.2173C14.8869 14.6529 13.7993 13.7368 11.3189 13.3896L7.32003 12.825C2.96983 12.2143 0.706907 10.127 0.706907 6.69286C0.706907 2.64383 4.27491 0.000255302 9.36127 0.000255302C12.5586 -0.0181967 15.6804 0.971177 18.2833 2.82788L16.0622 5.68897C13.929 4.25425 11.712 3.38421 9.06012 3.38421C6.49183 3.38421 4.6221 4.51358 4.6221 6.38751C4.6221 8.03974 5.66363 8.78011 8.27792 9.16912L12.2767 9.73799C16.7608 10.3905 18.9693 12.5196 18.9693 15.9119C18.9693 19.9149 14.9663 22.8722 9.70427 22.8722C6.0066 22.8722 2.52647 21.7847 0 19.6096L2.35915 16.7401Z" transform="translate(253.31494 68.511055)" id="Shape" fill="#000000" fill-rule="evenodd" stroke="none" />
      <path d="M11.093 0C17.1833 0 21.797 5.04455 21.797 11.5698L21.797 12.8247L4.30838 12.8247C4.8678 16.5126 8.06177 19.2228 11.7916 19.1743C13.8311 19.2189 15.8198 18.5352 17.4008 17.246L20.1866 19.99C17.7703 21.9568 14.7305 22.9953 11.6159 22.918C5.09058 22.918 0 17.8985 0 11.436C0 5.04455 4.83124 0 11.093 0L11.093 0ZM4.3502 9.57041L17.4886 9.57041C16.8821 6.1781 14.226 3.65165 11.0093 3.65165C7.61284 3.65165 5.00273 6.09027 4.3502 9.57041L4.3502 9.57041Z" transform="translate(274.85675 68.502945)" id="Shape" fill="#000000" fill-rule="evenodd" stroke="none" />
      <path d="M0 0L4.57188 0L4.57188 26.4065L22.0981 26.4065L22.0981 30.4513L0 30.4513L0 0Z" transform="translate(310.39865 60.54294)" id="Shape" fill="#000000" fill-rule="evenodd" stroke="none" />
      <path d="M0 2.69377C0.00686763 1.20891 1.20891 0.00687402 2.69377 0C4.14136 0.0570346 5.28552 1.24715 5.28552 2.69587C5.28552 4.14458 4.14136 5.3347 2.69377 5.39173C1.20824 5.38258 0.00686763 4.17934 2.55302e-05 2.69377L0 2.69377ZM4.8814 31.1039L0.518672 31.1039L0.518672 8.95972L4.8814 8.95972L4.8814 31.1039Z" transform="translate(336.02295 59.890404)" id="Shape" fill="#000000" fill-rule="evenodd" stroke="none" />
      <path d="M0 0.438578L4.3502 0.438578L4.3502 2.6555C6.10888 0.893112 8.51636 -0.066251 11.0051 0.00356147C16.0957 0.00356147 19.6177 3.57155 19.6177 8.66211L19.6177 22.5827L15.3303 22.5827L15.3303 9.38993C15.3303 5.9516 13.2388 3.77651 9.80467 3.77651C7.61379 3.71101 5.54933 4.8004 4.36693 6.64597L4.36693 22.5702L0 22.5702L0 0.438578Z" transform="translate(345.9238 68.41155)" id="Shape" fill="#000000" fill-rule="evenodd" stroke="none" />
      <path d="M4.30417 13.1802C4.30417 16.6186 6.39561 18.7937 9.82976 18.7937C12.0206 18.8592 14.0851 17.7698 15.2675 15.9242L15.2675 0L19.6177 0L19.6177 22.1441L15.2717 22.1441L15.2717 19.923C13.5134 21.6865 11.106 22.6474 8.61672 22.5792C3.52616 22.5792 0 19.0112 0 13.9206L0 0L4.30836 0L4.30417 13.1802Z" transform="translate(370.38947 68.85013)" id="Shape" fill="#000000" fill-rule="evenodd" stroke="none" />
      <path d="M8.61253 10.7876L0.347186 0L5.43774 0L11.1348 7.61283L16.8361 0L21.751 0L13.5734 10.7458L22.324 22.1441L17.1833 22.1441L11.093 13.9708L4.91488 22.1483L0 22.1483L8.61253 10.7876Z" transform="translate(392.61725 68.85013)" id="Shape" fill="#000000" fill-rule="evenodd" stroke="none" />
      <path d="M22.2947 8.17753C22.2947 11.2227 20.3371 13.7909 17.4635 15.096C20.9897 16.3132 23.4241 19.1869 23.4241 22.5792C23.4241 27.7994 18.4047 31.3632 11.7121 31.3632C5.01945 31.3632 0 27.7952 0 22.5792C0 19.1869 2.43441 16.3049 5.9606 15.096C3.08696 13.7909 1.12938 11.2227 1.12938 8.17752C1.12938 3.52617 5.73052 0 11.6995 0C17.6685 0 22.2947 3.51781 22.2947 8.17753L22.2947 8.17753ZM4.30838 22.3198C4.30838 25.4946 7.48736 27.8412 11.7037 27.8412C15.9201 27.8412 19.0991 25.4946 19.0991 22.3198C19.0991 19.145 15.9243 16.8361 11.7037 16.8361C7.48317 16.8361 4.32513 19.1869 4.32513 22.3407L4.30838 22.3198ZM18.0575 8.39504C18.0575 5.56742 15.2717 3.43833 11.7037 3.43833C8.13577 3.43833 5.39597 5.56741 5.39597 8.39504C5.39597 11.139 8.13996 13.3141 11.7037 13.3141C15.2675 13.3141 18.0742 11.139 18.0742 8.39504L18.0575 8.39504Z" transform="translate(425.87524 60.061897)" id="Shape" fill="#000000" fill-rule="evenodd" stroke="none" />
      <path d="M53.1225 34.7179C58.3553 34.7179 65.9263 33.6387 65.9263 27.4146C65.9419 26.9342 65.8984 26.4537 65.7966 25.984L62.6804 12.4482C61.9609 9.47003 61.3293 8.11896 56.1007 5.50466C52.0308 3.42577 43.1924 0 40.5739 0C38.1395 0 37.4158 3.15389 34.5296 3.15389C31.7355 3.15389 29.6608 0.811478 27.0465 0.811478C24.5367 0.811478 22.9012 2.52227 21.638 6.04007C21.638 6.04007 18.1202 15.9619 17.6685 17.4008C17.5938 17.6646 17.56 17.9382 17.5681 18.2122C17.5681 22.0688 32.7645 34.7179 53.1225 34.7179M66.7378 29.941C67.4614 33.3668 67.4614 33.7265 67.4614 34.1783C67.4614 40.0343 60.8776 43.2844 52.2232 43.2844C32.6264 43.2802 15.5101 31.8317 15.5101 24.2607C15.509 23.2064 15.7239 22.1629 16.1417 21.1948C9.10612 21.5502 0 22.8134 0 30.8362C0 44.0038 31.2001 60.2334 55.9041 60.2334C74.8442 60.2334 79.621 51.6669 79.621 44.9032C79.621 39.5825 75.0199 33.5425 66.7252 29.9368" id="Shape" fill="#EE0000" fill-rule="evenodd" stroke="none" />
      <path d="M51.2151 12.5319C51.9388 15.9577 51.9388 16.3174 51.9388 16.7691C51.9388 22.6252 45.3549 25.8753 36.7006 25.8753C17.1163 25.8753 4.78692e-06 14.4267 4.78692e-06 6.85573C-0.00114727 5.80145 0.213792 4.75797 0.631559 3.78982L2.16255 0C2.08694 0.262235 2.05167 0.53445 2.05798 0.807295C2.05798 4.66391 17.2544 17.3129 37.6124 17.3129C42.8452 17.3129 50.4162 16.2337 50.4162 10.0096C50.4318 9.52924 50.3883 9.04878 50.2865 8.57906L51.2151 12.5319Z" transform="translate(15.510071 17.404945)" id="Shape" fill="#000000" fill-rule="evenodd" stroke="none" />
      <path d="M147.969 25.2478C147.969 30.2213 150.96 32.639 156.414 32.639C158.094 32.5972 159.763 32.3614 161.388 31.9363L161.388 26.1723C160.349 26.5014 159.265 26.6652 158.175 26.6575C155.929 26.6575 155.097 25.9547 155.097 23.8424L155.097 14.9998L161.605 14.9998L161.605 9.06011L155.097 9.06011L155.097 1.53093L147.986 3.07023L147.986 9.06011L143.268 9.06011L143.268 14.9998L147.973 14.9998L147.969 25.2478ZM125.8 25.3817C125.8 23.8424 127.343 23.0937 129.673 23.0937C131.097 23.1019 132.516 23.2788 133.898 23.6207L133.898 26.6115C132.539 27.3535 131.012 27.7324 129.464 27.7115C127.18 27.7115 125.813 26.8331 125.813 25.3817M127.988 32.7268C130.497 32.7268 132.522 32.1998 134.413 30.924L134.413 32.3336L141.448 32.3336L141.448 17.4175C141.448 11.7455 137.625 8.63346 131.246 8.63346C127.682 8.63346 124.16 9.47003 120.371 11.185L122.922 16.422C125.649 15.2759 127.942 14.5731 129.962 14.5731C132.89 14.5731 134.404 15.7151 134.404 18.0491L134.404 19.191C132.68 18.7448 130.906 18.5227 129.125 18.5301C123.14 18.5301 119.534 21.0399 119.534 25.5281C119.534 29.6189 122.788 32.7394 127.979 32.7394M89.3128 32.3462L96.8796 32.3462L96.8796 20.2786L109.55 20.2786L109.55 32.3336L117.116 32.3336L117.116 1.5393L109.566 1.5393L109.566 13.3727L96.8963 13.3727L96.8963 1.5393L89.3295 1.5393L89.3128 32.3462ZM60.4969 20.676C60.4969 17.3297 63.1363 14.7781 66.6123 14.7781C68.4236 14.7393 70.183 15.3845 71.5397 16.5851L71.5397 24.7041C70.2094 25.9525 68.4356 26.6181 66.6123 26.5529C63.1823 26.5529 60.4969 24.0013 60.4969 20.6592M71.6276 32.3169L78.6673 32.3169L78.6673 0L71.5564 1.5393L71.5564 10.2941C69.7462 9.26782 67.6975 8.73689 65.6168 8.75476C58.8447 8.75476 53.5199 13.9875 53.5199 20.6759C53.4772 23.8453 54.7096 26.899 56.9403 29.1509C59.171 31.4028 62.2128 32.6642 65.3825 32.6515C67.6265 32.6622 69.815 31.9542 71.6276 30.6312L71.6276 32.3169ZM39.3399 14.456C41.582 14.456 43.4726 15.9075 44.2214 18.1495L34.5129 18.1495C35.2156 15.8196 36.9766 14.456 39.3525 14.456M27.3309 20.7178C27.3309 27.494 32.8732 32.7728 39.9967 32.7728C43.9118 32.7728 46.7729 31.7146 49.7218 29.2508L45.0119 25.068C43.9118 26.2141 42.2847 26.829 40.3522 26.829C37.8647 26.899 35.5905 25.4311 34.63 23.1355L51.2151 23.1355L51.2151 21.3787C51.2151 13.9875 46.2459 8.66692 39.4696 8.66692C36.2516 8.61837 33.1501 9.86981 30.8669 12.138C28.5837 14.4063 27.3119 17.4995 27.3393 20.7178M15.0584 8.00602C17.5681 8.00602 18.9735 9.58715 18.9735 11.482C18.9735 13.3768 17.5639 14.958 15.0584 14.958L7.57937 14.958L7.57937 8.00602L15.0584 8.00602ZM0 32.3336L7.56682 32.3336L7.56682 21.1152L13.3266 21.1152L19.1367 32.3336L27.5819 32.3336L20.8056 20.0151C24.3287 18.5822 26.627 15.1514 26.6115 11.3481C26.6115 5.80583 22.2571 1.53929 15.736 1.53929L0.0125545 1.53929L0 32.3336Z" transform="translate(94.31964 13.360107)" id="Shape" fill="#000000" fill-rule="evenodd" stroke="none" />
    </g>
  </g>
</svg>