<?xml version="1.0" encoding="utf-8"?>
<svg width="186px" height="100px" viewbox="0 0 186 100" version="1.1" xmlns:xlink="http://www.w3.org/1999/xlink" xmlns="http://www.w3.org/2000/svg">
  <defs>
    <path d="M0 0L185.425 0L185.425 100L0 100L0 0Z" id="path_1" />
    <clipPath id="mask_1">
      <use xlink:href="#path_1" />
    </clipPath>
  </defs>
  <g id="Scikit_learn_logo_small">
    <path d="M0 0L185.425 0L185.425 100L0 100L0 0Z" id="Background" fill="none" fill-rule="evenodd" stroke="none" />
    <g clip-path="url(#mask_1)">
      <g id="g3" transform="translate(0 -1.5258789E-05)">
        <path d="M80.7761 84.9752C103.422 62.3306 107.186 29.381 89.1821 11.3787C71.1812 -6.62159 38.2329 -2.85852 15.5883 19.7847C-7.05631 42.4287 -0.505709 85.6906 7.18358 93.3812C13.3972 99.5948 58.1328 107.618 80.776 84.9752L80.7761 84.9752Z" transform="translate(61.449883 0)" id="path5" fill="#F89939" fill-rule="evenodd" stroke="none" />
        <path d="M49.306 11.4806C36.1687 -1.65675 17.0497 -3.84385 6.60234 6.60287C-3.84238 17.0483 -1.65862 36.1698 11.4814 49.3051C24.6214 62.4465 49.7239 58.6453 54.1823 54.1828C57.7902 50.5809 62.4473 24.6192 49.306 11.4806L49.306 11.4806Z" transform="translate(0 40.773712)" id="path7" fill="#3499CD" fill-rule="evenodd" stroke="none" />
      </g>
      <g id="g9" transform="translate(77.426674 48.53933)">
        <g id="g11">
          <path d="M17.2079 30.8855C14.8871 33.0218 12.8511 34.5984 11.1013 35.6114C9.3515 36.6277 7.68259 37.1352 6.09459 37.1352C4.26788 37.1352 2.79421 36.4271 1.67693 35.0103C0.55764 33.5921 0 31.6905 0 29.2982C0 25.7136 0.776954 21.4103 2.33085 16.3929C3.88209 11.3714 5.77097 6.74449 7.98949 2.51137L14.4946 0.102964C14.6985 0.0347702 14.8537 0 14.9567 0C15.4501 0 15.858 0.363741 16.1709 1.08788C16.4872 1.81536 16.6463 2.79288 16.6463 4.02184C16.6463 7.50476 15.8446 10.8767 14.2379 14.1376C12.6318 17.3999 10.1231 20.8814 6.70908 24.5863C6.572 26.3622 6.5038 27.5818 6.5038 28.2484C6.5038 29.7348 6.77661 30.9109 7.32288 31.7822C7.86982 32.6547 8.59462 33.088 9.49995 33.088C10.4233 33.088 11.4042 32.7577 12.446 32.0918C13.4857 31.4245 15.0737 30.0431 17.2073 27.9415L17.2073 30.8855L17.2079 30.8855ZM7.40043 20.8741C9.56814 18.4636 11.3287 15.7603 12.6766 12.7696C14.0246 9.77742 14.6979 7.20385 14.6979 5.0475C14.6979 4.41898 14.605 3.90814 14.4184 3.52434C14.2305 3.13987 13.9898 2.94664 13.7003 2.94664C13.0711 2.94664 12.1517 4.51925 10.9475 7.66519C9.74332 10.8104 8.56117 15.2141 7.40043 20.874L7.40043 20.8741Z" id="path13" fill="#010101" fill-rule="evenodd" stroke="none" />
          <path d="M19.3088 16.0566C17.1411 18.1929 15.1954 19.7695 13.4703 20.7825C11.7452 21.7988 9.84361 22.3063 7.7595 22.3063C5.43734 22.3063 3.56383 21.5634 2.13629 20.0797C0.711423 18.592 0 16.639 0 14.2138C0 10.5952 1.25369 7.32087 3.76641 4.39293C6.27379 1.46364 9.05798 0 12.1136 0C13.7016 0 14.972 0.411203 15.9295 1.23028C16.8857 2.05069 17.3637 3.1252 17.3637 4.4571C17.3637 7.99216 13.608 10.8586 6.09593 13.0617C6.77793 16.3895 8.56185 18.0558 11.4477 18.0558C12.575 18.0558 13.6495 17.7529 14.6732 17.1484C15.6995 16.5413 17.2434 15.1947 19.3095 13.1132L19.3095 16.0566L19.3088 16.0566ZM5.88931 11.32C10.2588 10.0897 12.4453 7.82033 12.4453 4.50793C12.4453 2.86912 11.8468 2.05004 10.6533 2.05004C9.52601 2.05004 8.45152 2.90656 7.42784 4.62428C6.40081 6.33933 5.88931 8.56989 5.88931 11.32L5.88931 11.32Z" transform="translate(17.056845 14.8289385)" id="path15" fill="#010101" fill-rule="evenodd" stroke="none" />
          <path d="M27.658 16.1582C24.926 18.7531 22.9709 20.4454 21.7941 21.2318C20.616 22.0167 19.4893 22.4086 18.4128 22.4086C15.7149 22.4086 14.4438 20.0276 14.5969 15.2635C12.8899 17.7041 11.3139 19.5054 9.87104 20.6688C8.42946 21.8295 6.94042 22.4086 5.4019 22.4086C3.90149 22.4086 2.62573 21.7058 1.57397 20.297C0.522207 18.8882 0 17.1605 0 15.1098C0 12.5502 0.70273 10.1084 2.11021 7.7849C3.52037 5.46274 5.32566 3.58656 7.52747 2.15233C9.72928 0.718116 11.6777 0 13.366 0C15.5009 0 16.9953 0.982219 17.8492 2.94466L23.0832 0.0521554L24.5195 0.0521554L22.2588 7.5549C21.0981 11.3293 20.5157 13.9163 20.5157 15.3157C20.5157 16.7834 21.0352 17.5175 22.0776 17.5175C22.7409 17.5175 23.475 17.1638 24.2781 16.4544C25.0811 15.745 26.2057 14.6651 27.6567 13.2142L27.6567 16.1582L27.658 16.1582ZM8.91155 17.5683C10.6186 17.5683 12.2273 16.1134 13.7411 13.2028C15.2522 10.2909 16.0071 7.60436 16.0071 5.14645C16.0071 4.19163 15.7918 3.44344 15.3672 2.90652C14.9386 2.36693 14.3669 2.09948 13.6515 2.09948C11.9431 2.09948 10.3237 3.55042 8.79855 6.45361C7.27072 9.35683 6.50514 12.0287 6.50514 14.4678C6.50514 15.3912 6.73247 16.1381 7.18446 16.7104C7.63646 17.2828 8.21015 17.5683 8.91155 17.5683L8.91155 17.5683Z" transform="translate(36.058723 14.727342)" id="path17" fill="#010101" fill-rule="evenodd" stroke="none" />
          <path d="M19.7187 16.1067C15.4327 20.3064 12.1283 22.4079 9.80684 22.4079C8.76445 22.4079 7.88452 21.9679 7.16908 21.0913C6.45363 20.2114 6.09324 19.1222 6.09324 17.8237C6.09324 15.4166 7.3837 12.1912 9.96128 8.14393C8.69691 8.79318 7.3155 9.24382 5.81242 9.50058C4.70249 11.5493 2.96004 13.7524 0.587727 16.106L0 16.106L0 13.8039C1.33057 12.4212 2.53478 10.9348 3.61062 9.34681C2.14029 8.69756 1.40746 7.73273 1.40746 6.45431C1.40746 5.13777 1.85411 3.73431 2.75275 2.23858C3.64871 0.746193 4.88167 0 6.45363 0C7.78555 0 8.45017 0.680672 8.45017 2.04736C8.45017 3.1232 8.06637 4.65905 7.29677 6.65758C10.1304 6.34934 12.6064 4.18298 14.7246 0.152446L17.0541 0.0494823L14.6725 6.60543C13.6829 9.37156 13.0423 11.2558 12.7528 12.2534C12.4633 13.251 12.3169 14.1362 12.3169 14.9032C12.3169 15.6213 12.484 16.195 12.8157 16.6189C13.1486 17.0488 13.598 17.2601 14.161 17.2601C14.7748 17.2601 15.3652 17.0502 15.9282 16.6343C16.4911 16.2124 17.7549 15.057 19.7193 13.1621L19.7193 16.1067L19.7187 16.1067Z" transform="translate(63.129684 14.778844)" id="path19" fill="#010101" fill-rule="evenodd" stroke="none" />
          <path d="M25.4074 16.1575C21.4638 20.3258 18.0812 22.4079 15.2656 22.4079C14.1215 22.4079 13.1995 22.0067 12.4994 21.2037C11.798 20.402 11.4483 19.3269 11.4483 17.9782C11.4483 16.1515 12.2006 13.3593 13.7036 9.60491C14.5053 7.58965 14.9078 6.30721 14.9078 5.76294C14.9078 5.21601 14.6926 4.94254 14.268 4.94254C14.0293 4.94254 13.7117 5.06289 13.3198 5.30026C12.9594 5.53896 12.5416 5.87462 12.0635 6.30054C11.6376 6.69235 11.1581 7.17042 10.6293 7.73207C10.1672 8.21416 9.67178 8.75976 9.14558 9.37224L7.70934 11.0385C7.07883 11.8061 6.68566 12.6158 6.53254 13.4703C6.27511 14.9212 6.10528 16.2545 6.01903 17.4681C5.96687 18.3707 5.94214 19.5903 5.94214 21.1301L0.282161 22.4594C0.0956182 20.1546 0 18.4382 0 17.3129C0 14.5642 0.320278 11.9598 0.961487 9.50195C1.60137 7.04138 2.62905 4.27725 4.04722 1.20288L10.2949 0C8.98107 3.53506 8.1192 6.31657 7.70932 8.34723C10.5096 5.22337 12.7294 3.06101 14.3749 1.85545C16.0178 0.651248 17.4807 0.0521554 18.7592 0.0521554C19.6277 0.0521554 20.3539 0.379779 20.9322 1.03572C21.5133 1.69232 21.8021 2.51674 21.8021 3.50231C21.8021 5.13979 21.068 7.83773 19.6016 11.5954C18.5934 14.1724 18.0892 15.8446 18.0892 16.6169C18.0892 17.6446 18.5084 18.1581 19.3469 18.1581C20.5953 18.1581 22.6172 16.5099 25.4074 13.2149L25.4074 16.1575Z" transform="translate(82.59094 14.727975)" id="path21" fill="#010101" fill-rule="evenodd" stroke="none" />
        </g>
      </g>
      <g id="text25" transform="translate(102.52342 39.360153)">
        <g fill="#FFFFFF" stroke="none" id="sci">
          <path d="M22.4259 8.77223Q22.7752 9.11031 23.2711 9.11031Q23.7782 9.11031 24.1332 8.76097Q24.4882 8.41162 24.4882 7.91577Q24.4882 7.39738 24.1332 7.05367Q23.7782 6.70996 23.2711 6.70996Q22.7752 6.70996 22.4259 7.05367Q22.0765 7.39738 22.0765 7.91577Q22.0765 8.43416 22.4259 8.77223ZM1.17201 23.1631L1.17201 21.1797Q2.68209 22.2954 4.49645 22.2954Q6.93061 22.2954 6.93061 20.6726Q6.93061 20.2106 6.72213 19.8894Q6.51365 19.5682 6.15867 19.3203Q5.80368 19.0724 5.32474 18.8752Q4.84579 18.6779 4.2936 18.4638Q3.52729 18.1596 2.94692 17.8496Q2.36655 17.5397 1.97776 17.1509Q1.58897 16.7622 1.39176 16.2663Q1.19454 15.7705 1.19454 15.1056Q1.19454 14.2942 1.56643 13.6687Q1.93832 13.0433 2.55813 12.6207Q3.17794 12.1981 3.97242 11.984Q4.76691 11.7699 5.6121 11.7699Q7.11092 11.7699 8.2942 12.2883L8.2942 14.159Q7.02077 13.325 5.36418 13.325Q4.84579 13.325 4.42883 13.4434Q4.01187 13.5617 3.71323 13.7758Q3.41459 13.9899 3.25119 14.2886Q3.08778 14.5872 3.08778 14.9478Q3.08778 15.3986 3.25119 15.7028Q3.41459 16.0071 3.73013 16.2438Q4.04567 16.4804 4.49645 16.672Q4.94722 16.8636 5.52195 17.089Q6.28826 17.382 6.8968 17.6919Q7.50535 18.0018 7.93358 18.3906Q8.36181 18.7794 8.59283 19.2865Q8.82385 19.7936 8.82385 20.4923Q8.82385 21.3488 8.44633 21.9798Q8.06881 22.6109 7.43773 23.0279Q6.80665 23.4448 5.98399 23.6477Q5.16133 23.8505 4.25979 23.8505Q2.47924 23.8505 1.17201 23.1631ZM19.5297 23.0504Q18.1999 23.8505 16.3743 23.8505Q13.9063 23.8505 12.3906 22.2447Q10.8749 20.6388 10.8749 18.0807Q10.8749 15.2295 12.5089 13.4997Q14.143 11.7699 16.8701 11.7699Q18.3915 11.7699 19.5522 12.3333L19.5522 14.2266Q18.2675 13.325 16.8025 13.325Q15.0332 13.325 13.9007 14.5928Q12.7681 15.8606 12.7681 17.9229Q12.7681 19.9514 13.833 21.1234Q14.898 22.2954 16.6898 22.2954Q18.1999 22.2954 19.5297 21.2924L19.5297 23.0504ZM22.3245 23.5801L24.1726 23.5801L24.1726 12.0403L22.3245 12.0403L22.3245 23.5801Z" />
        </g>
        <g fill="#FFFFFF" stroke="none" id="kit">
          <path d="M11.4496 54.5801L8.85766 54.5801L3.76394 49.0356L3.71886 49.0356L3.71886 54.5801L1.8707 54.5801L1.8707 37.4958L3.71886 37.4958L3.71886 48.3256L3.76394 48.3256L8.60974 43.0403L11.0326 43.0403L5.67972 48.6074L11.4496 54.5801ZM14.2895 40.1103Q13.7936 40.1103 13.4443 39.7722Q13.0949 39.4342 13.0949 38.9158Q13.0949 38.3974 13.4443 38.0537Q13.7936 37.71 14.2895 37.71Q14.7966 37.71 15.1516 38.0537Q15.5065 38.3974 15.5065 38.9158Q15.5065 39.4116 15.1516 39.761Q14.7966 40.1103 14.2895 40.1103ZM22.5611 54.828Q23.6317 54.828 24.2853 54.4674L24.2853 52.8897Q23.7782 53.2728 23.0795 53.2728Q22.1667 53.2728 21.7723 52.777Q21.3778 52.2811 21.3778 51.1204L21.3778 44.618L24.2853 44.618L24.2853 43.0403L21.3778 43.0403L21.3778 39.6257L19.5297 40.223L19.5297 43.0403L17.5463 43.0403L17.5463 44.618L19.5297 44.618L19.5297 51.4472Q19.5297 54.828 22.5611 54.828ZM15.191 54.5801L13.3428 54.5801L13.3428 43.0403L15.191 43.0403L15.191 54.5801Z" />
        </g>
      </g>
    </g>
  </g>
</svg>