<?xml version="1.0" encoding="utf-8"?>
<svg width="193px" height="100px" viewbox="0 0 193 100" version="1.1" xmlns:xlink="http://www.w3.org/1999/xlink" xmlns="http://www.w3.org/2000/svg">
  <defs>
    <path d="M0 0L192.278 0L192.278 100L0 100L0 0Z" id="path_1" />
    <clipPath id="mask_1">
      <use xlink:href="#path_1" />
    </clipPath>
  </defs>
  <g id="Apache_Spark_logo">
    <path d="M0 0L192.278 0L192.278 100L0 100L0 0Z" id="Background" fill="none" fill-rule="evenodd" stroke="none" />
    <g clip-path="url(#mask_1)">
      <g id="g4163" transform="translate(0 9.1552734E-05)">
        <g id="g4165">
          <path d="M54.7213 50.4533C54.5554 50.0989 54.4804 49.9202 54.39 49.7487C51.981 45.1687 49.5776 40.5854 47.147 36.0168C46.9018 35.5579 46.9321 35.2848 47.2678 34.8928C51.0992 30.4167 54.9108 25.9226 58.7268 21.4329C58.8605 21.2756 58.9813 21.1072 59.0327 20.8273C57.9167 21.1189 56.8008 21.4069 55.6861 21.7023C51.0565 22.9291 46.4255 24.1521 41.8002 25.3956C41.3686 25.5114 41.1729 25.3851 40.9586 25.0278C38.3298 20.6365 35.6861 16.2546 33.0455 11.8707C32.9087 11.6428 32.7619 11.4218 32.4715 11.2304C32.2591 12.4002 32.043 13.5694 31.8349 14.7398C31.0992 18.8716 30.366 23.0046 29.6327 27.137C29.5528 27.5829 29.4426 28.0269 29.4048 28.4765C29.3677 28.9032 29.1491 29.0605 28.7633 29.1819C23.3069 30.8948 17.856 32.6244 12.4052 34.3522C12.1656 34.4277 11.9321 34.5256 11.6751 34.759C16.1345 36.5314 20.5938 38.3035 25.122 40.103C24.9572 40.2339 24.8501 40.3345 24.7293 40.4132C21.9414 42.217 19.1491 44.0137 16.3679 45.827C16.0354 46.0437 15.771 46.0744 15.3969 45.906C12.0671 44.4065 8.72426 42.9353 5.38948 41.4459C3.89208 40.7772 2.54516 39.8889 1.49612 38.6061C-0.875077 35.7053 -0.406904 32.4052 2.75262 30.3894C3.7868 29.7299 4.96033 29.2351 6.13137 28.853C11.4751 27.1122 16.8392 25.4334 22.2009 23.749C22.6498 23.6084 22.8585 23.4071 22.9421 22.9204C23.6561 18.7843 24.3974 14.6525 25.1424 10.5226C25.5412 8.31425 25.753 6.04896 26.8281 4.02518C27.2405 3.24737 27.7353 2.48505 28.3236 1.83295C30.4514 -0.52895 33.4221 -0.620601 35.6725 1.62983C36.4317 2.38906 37.085 3.28514 37.6492 4.20414C40.1288 8.24613 42.5674 12.3141 44.9931 16.3889C45.2799 16.8707 45.5387 16.9679 46.0694 16.8255C52.0479 15.2228 58.0325 13.6449 64.0172 12.0639C65.2514 11.7382 66.4998 11.6181 67.7669 11.8552C70.5251 12.3717 71.7308 14.4717 70.7976 17.1358C70.3727 18.3502 69.6402 19.3751 68.8159 20.3436C64.6402 25.2544 60.4712 30.1708 56.2812 35.0693C55.9388 35.4693 55.9313 35.7591 56.1685 36.2063C58.6679 40.9175 61.1456 45.6402 63.6326 50.3583C64.2277 51.488 64.6816 52.6595 64.6953 53.9563C64.725 56.9058 62.5681 59.3196 59.6371 59.7492C57.9954 59.9904 56.4701 59.6396 54.9318 59.1645C51.1834 58.0058 47.4281 56.8664 43.671 55.7365C43.3229 55.6323 43.1898 55.4961 43.1285 55.1209C42.6963 52.4769 42.225 49.8387 41.7692 47.1983C41.7562 47.1257 41.7779 47.0473 41.789 46.8857C46.0663 48.0657 50.3065 49.2354 54.7213 50.4533" transform="translate(121.165474 0)" id="path4167" fill="#E25A1C" fill-rule="evenodd" stroke="none" />
          <path d="M35.0328 47.8211C31.6522 47.815 28.2716 47.7995 24.8904 47.8131C24.4445 47.8143 24.1912 47.6842 23.9423 47.3046C19.9399 41.2084 15.9196 35.124 11.9024 29.0373C11.7742 28.8435 11.638 28.6565 11.4107 28.3307C10.5456 34.9049 9.70027 41.3322 8.85311 47.7758C5.89484 47.7758 2.99541 47.7758 0 47.7758C0.103414 46.9132 0.194445 46.0796 0.303437 45.2491C1.16794 38.6483 2.03554 32.0476 2.90314 25.4474C3.73172 19.1408 4.55783 12.8342 5.39881 6.52867C5.42357 6.34047 5.54867 6.10292 5.70224 6.00303C8.74844 4.01678 11.8052 2.04768 14.8619 0.0771595C14.9065 0.048116 14.9684 0.0447105 15.1263 0C14.2017 7.05171 13.284 14.0482 12.3662 21.0451C12.4028 21.0697 12.4387 21.0946 12.4752 21.1201C17.2708 15.804 22.0671 10.4879 26.9662 5.0579C27.108 5.87534 27.2306 6.57493 27.3507 7.27496C27.6944 9.27935 28.0239 11.2867 28.3917 13.287C28.466 13.69 28.3589 13.9409 28.0901 14.2212C24.9888 17.4668 21.8993 20.7236 18.8073 23.9771C18.6723 24.1192 18.5428 24.2665 18.3893 24.4349C18.4877 24.5928 18.5719 24.7445 18.6716 24.885C24.0054 32.3714 29.3392 39.8566 34.6773 47.3399C34.774 47.4756 34.9133 47.5821 35.0328 47.7023C35.0328 47.7417 35.0328 47.7814 35.0328 47.8211" transform="translate(133.54532 41.141544)" id="path4169" fill="#3C3A3E" fill-rule="evenodd" stroke="none" />
          <path d="M33.0916 16.9754C32.9566 16.2855 32.86 15.2724 32.5534 14.326C31.071 9.75141 26.3771 7.24293 21.5188 8.37378C16.1891 9.61406 12.3804 13.804 11.8293 19.2425C11.4215 23.2651 13.5877 27.1406 17.6154 28.5952C20.8603 29.7674 23.9845 29.2771 26.8851 27.5376C30.7299 25.2308 32.8154 21.8062 33.0916 16.9754L33.0916 16.9754ZM9.68702 33.9785C9.42407 35.9466 9.17321 37.8013 8.92916 39.6574C8.60496 42.1246 8.28158 44.5922 7.97096 47.0606C7.93467 47.3487 7.84735 47.4757 7.53796 47.4738C5.10608 47.4639 2.67426 47.4663 0.242631 47.4627C0.187267 47.4627 0.131843 47.4322 0 47.3952C0.147077 46.2304 0.290066 45.0623 0.442964 43.8951C0.979501 39.8028 1.5148 35.71 2.05933 31.6185C2.682 26.9401 3.17525 22.2392 3.97257 17.5908C5.38476 9.35978 12.3675 2.26646 20.5616 0.500357C25.3121 -0.524351 29.8584 -0.0502364 34.0056 2.62279C38.1418 5.28857 40.5142 9.15709 41.0548 14.0232C41.8196 20.9034 39.2874 26.615 34.4001 31.3398C31.1927 34.4418 27.3525 36.413 22.923 37.0792C18.36 37.7674 14.0708 37.0062 10.2216 34.3162C10.0801 34.2177 9.92915 34.1316 9.68702 33.9785" transform="translate(30.547249 52.526115)" id="path4171" fill="#3C3A3E" fill-rule="evenodd" stroke="none" />
          <path d="M36.2714 7.65375C33.5442 9.68403 30.915 11.6411 28.2743 13.6067C27.8488 12.9352 27.4676 12.2664 27.0225 11.644C25.8768 10.043 24.454 8.84683 22.3845 8.70167C20.6634 8.58098 19.1914 9.14798 18.0198 10.417C16.9719 11.5518 16.835 13.1653 17.8142 14.4469C18.8921 15.8577 20.0719 17.1961 21.2766 18.5021C23.2735 20.6672 25.3608 22.7492 27.3449 24.9259C29.1503 26.9058 30.5894 29.1277 31.0337 31.8351C31.5623 35.0536 30.9203 38.119 29.3978 40.9478C26.5803 46.1823 22.1435 49.2194 16.2864 50.1699C13.6997 50.5891 11.12 50.5057 8.59605 49.7625C5.2464 48.7766 2.91493 46.5813 1.41562 43.4813C0.88585 42.3852 0.480661 41.2289 0 40.0542C2.93259 38.4851 5.78124 36.9603 8.67172 35.4133C8.7726 35.6543 8.84301 35.8548 8.93708 36.0425C9.42984 37.029 9.83335 38.077 10.4439 38.9848C12.2543 41.6767 15.1787 42.496 18.1454 41.1651C18.9074 40.8232 19.6413 40.3409 20.2664 39.7867C22.1782 38.0898 22.5367 35.7273 21.1215 33.5921C20.3085 32.3654 19.2916 31.2655 18.3016 30.1663C15.9358 27.5387 13.4737 24.9953 11.1626 22.3206C9.56942 20.4771 8.48693 18.327 8.14441 15.8577C7.77019 13.1617 8.30939 10.6176 9.71241 8.34777C13.2004 2.70589 18.269 -0.229146 24.9731 0.0139775C28.7951 0.152569 31.8386 1.93979 34.201 4.90938C34.9 5.7877 35.5552 6.70112 36.2714 7.65375" transform="translate(0 39.738285)" id="path4173" fill="#3C3A3E" fill-rule="evenodd" stroke="none" />
          <path d="M26.2662 25.1429C25.8216 28.5414 25.4023 31.7715 24.9664 34.9992C24.9441 35.1625 24.8159 35.3848 24.6765 35.4499C18.0776 38.5061 9.38795 38.0794 3.9687 31.9251C1.05688 28.6188 -0.16494 24.6944 0.0177421 20.3285C0.440082 10.2221 8.81945 1.39936 18.8399 0.166641C24.6945 -0.553757 29.8289 1.02755 33.7953 5.57536C36.4966 8.67364 37.7463 12.3733 37.5617 16.4561C37.4403 19.1531 37.0174 21.8382 36.6817 24.5229C36.2061 28.3251 35.6866 32.1225 35.1843 35.9218C35.1664 36.0568 35.1391 36.1906 35.1088 36.3621C32.4961 36.3621 29.8988 36.3621 27.2143 36.3621C27.3196 35.4891 27.4156 34.6344 27.5264 33.7818C28.098 29.3934 28.7266 25.012 29.2275 20.6159C29.5397 17.8781 29.3434 15.1608 28.0912 12.6249C26.7591 9.92983 24.526 8.50433 21.5888 8.19277C15.5101 7.54929 9.72668 11.7734 8.42993 17.7554C7.57348 21.7045 8.92348 25.4895 12.0681 27.582C15.1335 29.6215 18.4163 29.6282 21.7567 28.3055C23.4504 27.6355 24.8933 26.5745 26.2662 25.1429" transform="translate(74.76426 52.53856)" id="path4175" fill="#3C3A3E" fill-rule="evenodd" stroke="none" />
          <path d="M20.5493 0.0317157C20.1889 2.76883 19.834 5.46508 19.4711 8.21719C17.8022 8.21719 16.1655 8.20753 14.5294 8.22059C13.2035 8.231 11.9934 9.08683 11.5952 10.3249C11.4392 10.8092 11.3816 11.3274 11.3147 11.8353C10.4843 18.1203 9.66002 24.4054 8.83577 30.691C8.6277 32.2757 8.42519 33.8616 8.21712 35.4705C5.4787 35.4705 2.7793 35.4705 0 35.4705C0.153578 34.2617 0.298486 33.0923 0.451451 31.9245C0.985883 27.8508 1.52031 23.7786 2.06156 19.7069C2.52911 16.1831 2.94588 12.6515 3.49641 9.14083C4.23459 4.43455 8.9169 0.255211 13.6661 0.0486225C15.932 -0.0498433 18.206 0.0317157 20.5493 0.0317157" transform="translate(113.723045 53.440823)" id="path4177" fill="#3C3A3E" fill-rule="evenodd" stroke="none" />
          <path d="M8.01709 4.15463L8.01709 0.686022L7.99727 0.686022L6.63611 4.15463L6.202 4.15463L4.84084 0.686022L4.8204 0.686022L4.8204 4.15463L4.13486 4.15463L4.13486 0L5.1932 0L6.43361 3.1563L7.65419 0L8.70323 0L8.70323 4.15462L8.01707 4.15462L8.01709 4.15463ZM1.98663 0.555357L1.98663 4.15463L1.30109 4.15463L1.30109 0.555357L0 0.555357L0 0L3.28772 0L3.28772 0.555357L1.98663 0.555357" transform="translate(170.2483 84.75666)" id="path4179" fill="#3C3A3E" fill-rule="evenodd" stroke="none" />
          <path d="M4.50954 5.78963L6.54682 5.78963L6.06645 2.70516L4.50954 5.78963L4.50954 5.78963ZM6.86667 7.78245L3.47709 7.78245L2.40036 9.89162L0 9.89162L5.29477 0L7.60881 0L9.41169 9.89162L7.18646 9.89162L6.86667 7.78245" transform="translate(42.76919 35.76843)" id="path4181" fill="#3C3A3E" fill-rule="evenodd" stroke="none" />
          <path d="M4.66875 1.9922L3.46117 1.9922L3.05474 4.27582L4.26133 4.27582C4.98941 4.27582 5.57152 3.79663 5.57152 2.89404C5.57152 2.2975 5.20677 1.9922 4.66875 1.9922L4.66875 1.9922ZM1.74486 0L4.91695 0C6.57536 0 7.73836 0.988975 7.73836 2.69036C7.73836 4.82908 6.22548 6.26864 4.07245 6.26864L2.70541 6.26864L2.06465 9.89162L0 9.89162L1.74486 0" transform="translate(57.094437 35.76843)" id="path4183" fill="#3C3A3E" fill-rule="evenodd" stroke="none" />
          <path d="M4.50953 5.78963L6.54694 5.78963L6.06638 2.70516L4.50953 5.78963L4.50953 5.78963ZM6.86648 7.78245L3.47721 7.78245L2.4003 9.89162L0 9.89162L5.29477 0L7.60837 0L9.41169 9.89162L7.18664 9.89162L6.86648 7.78245" transform="translate(67.33961 35.76843)" id="path4185" fill="#3C3A3E" fill-rule="evenodd" stroke="none" />
          <path d="M6.50235 9.70305C5.80443 10.0228 5.03406 10.213 4.26244 10.213C1.64478 10.213 0 8.24851 0 5.79C0 2.64745 2.64739 0 5.79019 0C6.57543 0 7.28883 0.188881 7.87032 0.509039L7.57927 2.88091C7.1433 2.4003 6.44415 2.06589 5.57159 2.06589C3.76827 2.06589 2.16807 3.69587 2.16807 5.58633C2.16807 7.02613 3.06973 8.14739 4.49591 8.14739C5.36908 8.14739 6.21191 7.81261 6.77917 7.34716L6.50235 9.70306" transform="translate(81.10416 35.607418)" id="path4187" fill="#3C3A3E" fill-rule="evenodd" stroke="none" />
          <path d="M7.06961 5.9055L2.76381 5.9055L2.06465 9.89163L0 9.89163L1.74511 0L3.811 0L3.11308 3.91274L7.41888 3.91274L8.11618 0L10.1821 0L8.43758 9.89162L6.37169 9.89162L7.06961 5.9055" transform="translate(93.16076 35.76842)" id="path4189" fill="#3C3A3E" fill-rule="evenodd" stroke="none" />
          <path d="M7.55947e-06 9.89162L1.7445 0L7.22939 0L6.88012 1.9922L3.46112 1.9922L3.11309 3.91274L6.25403 3.91274L5.906 5.9055L2.7632 5.9055L2.41393 7.89856L5.83292 7.89856L5.48365 9.89163L0 9.89163" transform="translate(107.8059 35.76843)" id="path4191" fill="#3C3A3E" fill-rule="evenodd" stroke="none" />
        </g>
      </g>
    </g>
  </g>
</svg>