<?xml version="1.0" encoding="utf-8"?>
<svg width="557px" height="100px" viewbox="0 0 557 100" version="1.1" xmlns:xlink="http://www.w3.org/1999/xlink" xmlns="http://www.w3.org/2000/svg">
  <defs>
    <linearGradient x1="0" y1="0.49999952" x2="0.99999994" y2="0.49999952" id="gradient_1">
      <stop offset="0" stop-color="#FF6F00" />
      <stop offset="1" stop-color="#FFA800" />
    </linearGradient>
    <linearGradient x1="0" y1="0.49999952" x2="1" y2="0.49999952" id="gradient_2">
      <stop offset="0" stop-color="#FF6F00" />
      <stop offset="1" stop-color="#FFA800" />
    </linearGradient>
    <path d="M0 0L556.627 0L556.627 100L0 100L0 0Z" id="path_1" />
    <path d="M0 0L556.627 0L556.627 99.0361L0 99.0361L0 0Z" id="path_2" />
    <path d="M0 0L538.404 0L538.404 120.482L0 120.482L0 0L0 0Z" id="path_3" />
    <path d="M42.357 24.0964L0 0L0 99.0211L16.9428 89.2319L16.9428 61.3705L29.744 68.7124L29.5558 49.6988L16.9428 42.357L16.9428 31.25L42.357 46.122L42.357 24.0964L42.357 24.0964Z" id="path_4" />
    <path d="M0 24.0964L42.357 0L42.357 99.0211L25.4142 89.2319L25.4142 31.25L0 46.122L0 24.0964L0 24.0964Z" id="path_5" />
    <clipPath id="mask_1">
      <use xlink:href="#path_1" />
    </clipPath>
    <clipPath id="mask_2">
      <use xlink:href="#path_2" />
    </clipPath>
    <clipPath id="mask_3">
      <use xlink:href="#path_3" />
    </clipPath>
    <clipPath id="mask_4">
      <use xlink:href="#path_4" />
    </clipPath>
    <clipPath id="mask_5">
      <use xlink:href="#path_5" />
    </clipPath>
  </defs>
  <g id="svg">
    <path d="M0 0L556.627 0L556.627 100L0 100L0 0Z" id="Background" fill="none" fill-rule="evenodd" stroke="none" />
    <g clip-path="url(#mask_1)">
      <g id="Mask-group">
        <path d="M0 0L556.627 0L556.627 99.0361L0 99.0361L0 0Z" id="slice_1" fill="none" fill-rule="evenodd" stroke="none" />
        <g clip-path="url(#mask_2)">
          <g id="Slice" transform="translate(0 -9.036145)">
            <path d="M0 0L556.627 0L556.627 99.0361L0 99.0361L0 0Z" transform="translate(-0 9.036145)" id="slice_1" fill="none" fill-rule="evenodd" stroke="none" />
            <g id="tensorflow-logo" transform="translate(9.638555 0)">
              <path d="M0 0L538.404 0L538.404 120.482L0 120.482L0 0L0 0Z" id="Background" fill="none" fill-rule="evenodd" stroke="none" />
              <g id="Mask-group">
                <path d="M0 0L538.404 0L538.404 120.482L0 120.482L0 0L0 0Z" id="path_1" fill="none" fill-rule="evenodd" stroke="none" />
                <g clip-path="url(#mask_3)">
                  <g id="Group" transform="translate(0.9412651 9.036145)">
                    <g id="Group" transform="translate(46.12199 0)">
                      <g id="Group#1">
                        <g id="Mask-group">
                          <path d="M42.357 24.0964L0 0L0 99.0211L16.9428 89.2319L16.9428 61.3705L29.744 68.7124L29.5558 49.6988L16.9428 42.357L16.9428 31.25L42.357 46.122L42.357 24.0964L42.357 24.0964Z" id="SVGID_1_" fill="none" fill-rule="evenodd" stroke="none" />
                          <g id="Mask-group">
                            <path d="M42.357 24.0964L0 0L0 99.0211L16.9428 89.2319L16.9428 61.3705L29.744 68.7124L29.5558 49.6988L16.9428 42.357L16.9428 31.25L42.357 46.122L42.357 24.0964L42.357 24.0964Z" id="path_2" fill="none" fill-rule="evenodd" stroke="none" />
                            <g clip-path="url(#mask_4)">
                              <g id="Group" transform="translate(-50.075314 -0.37650746)">
                                <g id="Group#2">
                                  <path d="M0 0L103.916 0L103.916 99.5859L0 99.5859L0 0L0 0L0 0Z" id="Shape" fill="url(#gradient_1)" fill-rule="evenodd" stroke="none" />
                                </g>
                              </g>
                            </g>
                          </g>
                        </g>
                      </g>
                    </g>
                    <g id="Group#3">
                      <g id="Group#4">
                        <g id="Mask-group#1">
                          <path d="M0 24.0964L42.357 0L42.357 99.0211L25.4142 89.2319L25.4142 31.25L0 46.122L0 24.0964L0 24.0964Z" id="SVGID_4_" fill="none" fill-rule="evenodd" stroke="none" />
                          <g id="Mask-group">
                            <path d="M0 24.0964L42.357 0L42.357 99.0211L25.4142 89.2319L25.4142 31.25L0 46.122L0 24.0964L0 24.0964Z" id="path_3" fill="none" fill-rule="evenodd" stroke="none" />
                            <g clip-path="url(#mask_5)">
                              <g id="Group" transform="translate(-4.518061 -0.37650746)">
                                <g id="Group#5">
                                  <path d="M0 0L103.916 0L103.916 99.5859L0 99.5859L0 0L0 0L0 0Z" id="Shape#1" fill="url(#gradient_2)" fill-rule="evenodd" stroke="none" />
                                </g>
                              </g>
                            </g>
                          </g>
                        </g>
                      </g>
                    </g>
                    <path d="M48.1928 8.47139L29.3675 8.47139L29.3675 60.6175L18.8253 60.6175L18.8253 8.47139L0 8.47139L0 0L48.1928 0L48.1928 8.47139L48.1928 8.47139L48.1928 8.47139Z" transform="translate(116.90513 22.213856)" id="Shape#2" fill="#425066" fill-rule="evenodd" stroke="none" />
                    <path d="M21.6492 61.5588C15.2484 61.5588 9.97741 59.4879 6.0241 55.5347C2.07078 51.5813 0 46.122 0 39.3449L0 38.0271C0 33.8855 0.753012 29.744 2.63554 25.9789C4.32984 22.5904 6.77711 19.7666 9.97741 17.6958C13.1777 15.6251 16.7546 14.6837 20.5196 14.6837C26.7319 14.6837 31.4383 16.5663 34.8269 20.5196C38.2153 24.4729 39.9096 29.9323 39.9096 37.0859L39.9096 41.2275L10.3539 41.2275C10.5422 44.616 11.86 47.6281 14.119 50.0753C16.378 52.3343 19.2018 53.4639 22.4022 53.2757C26.9202 53.4639 31.0618 51.2048 33.6973 47.6281L39.1566 52.8992C37.2741 55.5347 34.8269 57.7937 32.003 59.1114C28.6145 60.994 25.2259 61.747 21.6492 61.5588L21.6492 61.5588L21.6492 61.5588ZM20.5196 22.9669C17.8841 22.7787 15.4367 23.9082 13.7425 25.7907C11.8599 28.0498 10.7304 30.8735 10.5422 33.8855L29.9323 33.8855L29.9323 33.1325C29.744 29.744 28.8028 27.1084 27.2967 25.4141C25.4142 23.9081 22.9669 22.7786 20.5196 22.9669L20.5196 22.9669L20.5196 22.9669ZM57.0407 15.6251L57.4172 20.8961C60.6175 16.9428 65.5121 14.6837 70.5949 14.872C80.0076 14.872 84.7139 20.3313 84.9022 31.0618L84.9022 60.8057L74.7365 60.8057L74.7365 31.6265C74.7365 28.8027 74.1717 26.7319 72.854 25.2259C71.5361 23.9081 69.6536 23.1551 66.8299 23.1551C62.8765 22.9669 59.2998 25.2259 57.6054 28.6145L57.6054 60.6175L47.4398 60.6175L47.4398 15.4367L57.0406 15.6249L57.0407 15.6251L57.0407 15.6251ZM117.658 48.5693C117.658 46.8751 116.905 45.369 115.399 44.4277C113.14 43.11 110.505 42.357 108.057 41.9805C105.045 41.4157 102.221 40.4745 99.3976 39.1566C94.3148 36.7094 91.8675 33.1325 91.8675 28.6145C91.8675 24.8494 93.75 21.0843 96.762 18.8253C99.9624 16.1898 104.292 14.872 109.187 14.872C114.646 14.872 118.976 16.1898 122.176 18.8253C125.377 21.2727 127.259 25.2259 127.071 29.1793L116.905 29.1793C116.905 27.2967 116.152 25.6024 114.646 24.2847C112.952 22.9669 111.069 22.2139 108.81 22.4022C106.928 22.4022 105.045 22.7787 103.351 23.9082C102.033 24.8494 101.28 26.3554 101.28 28.0498C101.28 29.5558 102.033 30.8735 103.163 31.6265C104.48 32.5678 107.116 33.3208 111.069 34.2621C114.27 34.8269 117.47 35.9564 120.482 37.4624C122.553 38.4036 124.247 39.9096 125.565 41.7922C126.694 43.6747 127.259 45.7455 127.259 48.0046C127.259 51.9578 125.377 55.5347 122.176 57.7937C118.788 60.241 114.458 61.5588 108.999 61.5588C105.61 61.5588 102.221 60.994 99.2094 59.488C96.5739 58.3584 94.1265 56.4759 92.4323 54.0287C90.9263 51.7696 89.9849 49.1341 89.9849 46.4986L99.7741 46.4986C99.7741 48.5693 100.715 50.6401 102.41 51.9578C104.292 53.2757 106.74 54.0287 108.999 53.8404C111.634 53.8404 113.705 53.2757 115.023 52.3343C116.905 51.5813 117.658 50.0753 117.658 48.5693L117.658 48.5693L117.658 48.5693ZM132.907 37.8389C132.907 33.6973 133.66 29.5558 135.542 25.9789C137.236 22.5904 139.684 19.7666 142.884 17.8841C146.272 16.0016 150.037 14.872 153.802 15.0602C159.827 15.0602 164.91 16.9428 168.675 20.8961C172.44 24.8494 174.511 29.9323 174.887 36.5211L174.887 38.9684C174.887 43.11 174.134 47.0633 172.252 50.8283C170.746 54.2169 168.11 57.0407 164.91 58.9232C161.522 60.8058 157.757 61.9353 153.802 61.747C147.402 61.747 142.319 59.6763 138.554 55.3464C134.789 51.2048 132.907 45.5572 132.718 38.4036L132.907 37.8389L132.907 37.8389L132.907 37.8389ZM142.884 38.7801C142.884 43.4865 143.825 47.0633 145.708 49.6988C149.096 54.0287 155.308 54.9699 159.827 51.5813C160.58 51.0166 161.145 50.4518 161.71 49.6988C163.592 47.0633 164.534 43.11 164.534 38.0271C164.534 33.509 163.592 29.9323 161.522 27.1084C158.32 22.7787 152.108 21.8373 147.59 25.0377C146.837 25.6024 146.084 26.3554 145.519 26.9202C144.013 29.5558 142.884 33.509 142.884 38.7801L142.884 38.7801L142.884 38.7801ZM205.196 25.0377C203.878 24.8494 202.372 24.6612 201.054 24.6612C196.348 24.6612 193.336 26.3554 191.642 29.9323L191.642 60.8058L181.476 60.8058L181.476 15.6251L191.077 15.6251L191.265 20.7078C193.712 16.7546 197.101 14.872 201.431 14.872C202.56 14.872 203.878 15.0602 205.007 15.4367L205.196 25.0377L205.196 25.0377L205.196 25.0377ZM247.553 35.0151L223.08 35.0151L223.08 60.8058L212.537 60.8058L212.537 0.188255L251.13 0.188255L251.13 8.65964L223.08 8.65964L223.08 26.7319L247.553 26.7319L247.553 35.0151L247.553 35.0151L247.553 35.0151ZM267.696 60.8058L257.53 60.8058L257.53 0L267.696 0L267.696 60.8057L267.696 60.8058L267.696 60.8058ZM275.037 37.8389C275.037 33.6973 275.79 29.5558 277.673 25.9789C279.367 22.5904 281.814 19.7666 285.016 17.8841C288.404 16.0016 292.169 14.872 295.934 15.0602C301.958 15.0602 307.041 16.9428 310.806 20.8961C314.571 24.8494 316.642 29.9323 317.018 36.5211L317.018 38.9684C317.018 43.11 316.265 47.0633 314.571 50.8283C313.065 54.2169 310.429 57.0407 307.229 58.9232C303.841 60.8058 300.076 61.9353 296.122 61.747C289.722 61.747 284.639 59.6763 280.874 55.3464C277.108 51.2048 275.037 45.5572 275.037 38.4036L275.037 37.8389L275.037 37.8389L275.037 37.8389ZM285.204 38.7801C285.204 43.4865 286.145 47.0633 288.028 49.6988C289.91 52.3343 292.922 53.8404 296.122 53.6522C299.323 53.8404 302.335 52.3343 304.029 49.6988C305.911 47.0633 306.853 43.11 306.853 38.0271C306.853 33.509 305.911 29.9323 303.84 27.1084C300.64 22.7787 294.428 21.8373 289.91 25.0377C289.157 25.6024 288.404 26.3554 287.839 26.9202C286.145 29.5558 285.204 33.509 285.204 38.7801L285.204 38.7801L285.204 38.7801ZM362.764 46.8751L369.917 15.8133L379.706 15.8133L367.47 60.994L359.187 60.994L349.586 29.9323L339.986 60.994L331.702 60.994L319.277 15.8133L329.254 15.8133L336.596 46.6867L345.82 15.8133L353.539 15.8133L362.764 46.8751L362.764 46.8751L362.764 46.8751Z" transform="translate(156.06175 22.025602)" id="Shape#3" fill="#425066" fill-rule="evenodd" stroke="none" />
                  </g>
                </g>
              </g>
            </g>
          </g>
        </g>
      </g>
    </g>
  </g>
</svg>