<?xml version="1.0" encoding="utf-8"?>
<svg width="416px" height="100px" viewbox="0 0 416 100" version="1.1" xmlns:xlink="http://www.w3.org/1999/xlink" xmlns="http://www.w3.org/2000/svg">
  <defs>
    <path d="M0 0L415.628 0L415.628 100L0 100L0 0Z" id="path_1" />
    <clipPath id="mask_1">
      <use xlink:href="#path_1" />
    </clipPath>
  </defs>
  <g id="Terraform_Logo">
    <path d="M0 0L415.628 0L415.628 100L0 100L0 0Z" id="Background" fill="none" fill-rule="evenodd" stroke="none" />
    <g clip-path="url(#mask_1)">
      <path d="M7.41479 13.0673L7.41479 7.69742L2.42726 7.69742L2.42726 13.0673L0 13.0673L0 0.182876L2.51039 0.182876L2.51039 5.58603L7.49792 5.58603L7.49792 0.182876L10.0083 0.182876L10.0083 13.0673L7.41479 13.0673ZM19.0524 13.0673L17.0574 13.0673L16.8745 12.4356C16.0299 12.9784 15.0519 13.2776 14.0482 13.3001C12.286 13.3001 11.5212 12.1363 11.5212 10.5403C11.5212 8.64505 12.3691 7.93017 14.3475 7.93017L16.675 7.93017L16.675 6.89942C16.675 5.86866 16.3757 5.50291 14.8296 5.50291C13.9304 5.51134 13.0341 5.60598 12.1529 5.78554L11.8204 4.02327C12.9057 3.73755 14.0232 3.59227 15.1455 3.59102C18.1879 3.59102 19.0856 4.62178 19.0856 6.91604L19.0524 13.0673ZM16.675 9.55943L14.8795 9.55943C14.0814 9.55943 13.8653 9.77556 13.8653 10.4738C13.8653 11.1721 14.0814 11.4048 14.8462 11.4048C15.4859 11.395 16.1136 11.2295 16.675 10.9227L16.675 9.55943ZM24.1729 13.3001C23.0449 13.2821 21.9252 13.103 20.8479 12.7681L21.1804 10.9892C22.1178 11.2458 23.0846 11.3799 24.0565 11.3882C25.1372 11.3882 25.2868 11.1554 25.2868 10.4572C25.2868 9.75893 25.1704 9.59268 23.6243 9.24356C21.2635 8.69493 20.9809 8.11305 20.9809 6.31754C20.9809 4.52203 21.7955 3.5744 24.5719 3.5744C25.551 3.57781 26.5267 3.68932 27.4813 3.9069L27.2486 5.75229C26.3698 5.59678 25.4806 5.50785 24.5885 5.48628C23.5412 5.48628 23.3583 5.71903 23.3583 6.28429C23.3583 6.84954 23.3583 7.08229 24.7215 7.41479C27.4314 8.09642 27.6808 8.44555 27.6808 10.3574C27.6808 12.2693 27.0989 13.3001 24.1729 13.3001L24.1729 13.3001ZM35.2785 13.1172L35.2785 6.65004C35.2785 6.15129 35.0623 5.90191 34.4971 5.90191C33.6144 5.98619 32.7564 6.24022 31.9701 6.65004L31.9701 13.0673L29.5428 13.0673L29.5428 0L31.9701 0.365752L31.9701 4.47215C33.0749 3.92927 34.2812 3.62347 35.5112 3.5744C37.1737 3.5744 37.7057 4.65503 37.7057 6.31754L37.7057 13.0673L35.2785 13.1172ZM39.734 2.51039L39.734 0.182876L42.1613 0.182876L42.1613 2.46052L39.734 2.51039ZM39.734 13.1172L39.734 3.7739L42.1613 3.7739L42.1613 13.0673L39.734 13.1172ZM44.0898 3.9069C44.0898 1.57938 45.5029 0.216126 48.7947 0.216126C50.0038 0.214838 51.2089 0.35432 52.3857 0.631754L52.1031 2.70989C51.0331 2.51235 49.949 2.40116 48.8612 2.37739C47.1987 2.37739 46.5836 2.94264 46.5836 4.3059L46.5836 9.14381C46.5836 10.4904 47.1322 11.0723 48.8612 11.0723C49.949 11.0485 51.0331 10.9374 52.1031 10.7398L52.3857 12.818C51.2089 13.0954 50.0038 13.2349 48.7947 13.2336C45.4697 13.2336 44.0898 11.8869 44.0898 9.54281L44.0898 3.9069ZM57.7556 13.3001C54.4306 13.3001 53.5494 11.5378 53.5494 9.64256L53.5494 7.24855C53.5494 5.33666 54.4472 3.59102 57.7556 3.59102C61.064 3.59102 61.9617 5.35328 61.9617 7.24855L61.9617 9.59268C61.9784 11.5046 61.0806 13.3001 57.7556 13.3001L57.7556 13.3001ZM57.7556 5.60266C56.4588 5.60266 55.9601 6.15129 55.9601 7.26517L55.9601 9.75894C55.9601 10.8063 56.4588 11.4214 57.7556 11.4214C59.0524 11.4214 59.5511 10.8728 59.5511 9.75894L59.5511 7.16542C59.5511 6.11804 59.0524 5.56941 57.7556 5.56941L57.7556 5.60266ZM68.7947 5.75229C67.9087 6.13626 67.0528 6.58641 66.2344 7.09892L66.2344 13.084L63.8071 13.084L63.8071 3.7739L65.852 3.7739L66.0183 4.80465C66.8107 4.29293 67.6656 3.88505 68.5619 3.59102L68.7947 5.75229ZM78.4871 9.97506C78.6356 10.8703 78.353 11.7831 77.7246 12.4377C77.0961 13.0923 76.1956 13.412 75.2951 13.3001C74.4297 13.2918 73.567 13.2028 72.7182 13.0341L72.7182 16.7914L70.2909 17.1571L70.2909 3.85702L72.2194 3.85702L72.4522 4.6384C73.3439 3.99905 74.414 3.65595 75.5112 3.65753C77.4563 3.65752 78.4871 4.77141 78.4871 6.88279L78.4871 9.97506ZM72.7016 11.0224C73.4067 11.1746 74.1249 11.2581 74.8462 11.2718C75.7273 11.2718 76.0598 10.8728 76.0598 10.0249L76.0598 6.69992C76.0598 5.93516 75.7606 5.51953 74.8628 5.51953C74.067 5.54866 73.3049 5.84767 72.7016 6.36741L72.7016 11.0224ZM14.7797 32.4855L0 32.4855L0 23.6575L39.5844 23.6575L39.5844 32.4855L24.788 32.4855L24.788 76.5918L14.813 76.5918L14.7797 32.4855Z" transform="translate(121.180374 0)" id="Shape" fill="#000000" fill-rule="evenodd" stroke="none" />
      <path d="M17.2568 48.9612C21.2713 48.9409 25.2605 48.3246 29.0939 47.1324L30.6068 54.4474C26.0431 56.0918 21.2267 56.9246 16.3757 56.908C4.22278 56.908 0 51.272 0 41.9454L0 31.7209C0 23.5414 3.65752 16.6253 16.0599 16.6253C28.4622 16.6253 31.2386 23.8572 31.2386 32.203L31.2386 40.5156L9.62594 40.5156L9.62594 42.5106C9.70907 47.1324 11.3716 48.9612 17.2569 48.9612L17.2568 48.9612ZM9.70904 32.7184L22.0282 32.7184L22.0282 30.7567C22.0282 27.0991 20.9144 24.5555 16.143 24.5555C11.3715 24.5555 9.70903 27.0991 9.70903 30.7567L9.70904 32.7184ZM57.1571 25.5198C53.5865 27.13 50.1458 29.0143 46.8661 31.1557L46.8661 56.0933L37.1737 56.0933L37.1737 17.4067L45.3533 17.4067L45.985 21.696C49.1385 19.5609 52.5594 17.8504 56.1596 16.6087L57.1571 25.5198ZM80.8313 25.5198C77.272 27.1315 73.8426 29.0158 70.5736 31.1557L70.5736 56.0933L60.8811 56.0933L60.8811 17.4067L69.0607 17.4067L69.6924 21.696C72.8459 19.5609 76.2669 17.8504 79.867 16.6087L80.8313 25.5198ZM113.267 56.1099L105.32 56.1099L104.605 53.4832C101.176 55.7142 97.1746 56.9038 93.084 56.9079C86.0183 56.908 82.9925 52.0534 82.9925 45.3868C82.9925 37.5231 86.4173 34.4973 94.281 34.4973L103.574 34.4973L103.574 30.4408C103.574 26.1515 102.377 24.6386 96.1762 24.6386C92.5709 24.6792 88.9786 25.0802 85.453 25.8356L84.256 18.4375C88.5883 17.2388 93.0611 16.6237 97.5561 16.6087C109.709 16.6087 113.3 20.898 113.3 30.5904L113.267 56.1099ZM103.574 41.4799L96.4256 41.4799C93.2502 41.4799 92.3691 42.361 92.3691 45.287C92.3691 48.213 93.2502 49.1773 96.2593 49.1773C98.8267 49.1382 101.343 48.452 103.574 47.1823L103.574 41.4799ZM143.059 8.57877C141.228 8.18535 139.362 7.97373 137.49 7.94702C133.682 7.94702 133.117 9.60953 133.117 12.5522L133.117 17.4067L142.976 17.4067L142.427 25.1208L133.134 25.1208L133.134 56.1099L123.441 56.1099L123.441 25.1208L117.24 25.1208L117.24 17.4067L123.441 17.4067L123.441 12.0035C123.441 3.97362 127.182 0.000220384 135.761 0.000220384C138.569 -0.0104151 141.366 0.364377 144.073 1.11411L143.059 8.57877ZM161.978 56.908C148.678 56.908 145.137 49.5929 145.137 41.6461L145.137 31.8705C145.137 23.9237 148.712 16.6087 161.978 16.6087C175.245 16.6087 178.82 23.9237 178.82 31.8705L178.82 41.6461C178.836 49.5929 175.245 56.908 161.978 56.908L161.978 56.908ZM161.978 24.8714C156.808 24.8714 154.83 27.1823 154.83 31.5214L154.83 41.9287C154.83 46.3011 156.825 48.5788 161.978 48.5788C167.132 48.5788 169.127 46.2679 169.127 41.9287L169.127 31.5547C169.127 27.1823 167.149 24.8714 161.978 24.8714L161.978 24.8714ZM203.774 25.5198C200.215 27.1315 196.785 29.0158 193.516 31.1556L193.516 56.0933L183.824 56.0933L183.824 17.4067L192.003 17.4067L192.635 21.696C195.788 19.5607 199.209 17.8503 202.81 16.6087L203.774 25.5198ZM230.407 56.1099L230.407 29.0942C230.407 27.0326 229.526 26.0019 227.315 26.0019C223.763 26.4239 220.331 27.5545 217.224 29.3269L217.224 56.1099L207.531 56.1099L207.531 17.4067L214.929 17.4067L215.877 20.7317C220.708 18.2883 225.998 16.8838 231.405 16.6087C234.47 16.3202 237.389 17.9725 238.72 20.7483C243.556 18.2691 248.868 16.8574 254.298 16.6087C260.731 16.6087 263.042 21.1307 263.042 28.0468L263.042 56.1099L253.35 56.1099L253.35 29.0942C253.35 27.0326 252.469 26.0019 250.258 26.0019C246.699 26.3938 243.261 27.5264 240.166 29.3269L240.166 56.1099L230.407 56.1099Z" transform="translate(152.63509 20.481913)" id="Shape" fill="#000000" fill-rule="evenodd" stroke="none" />
      <path d="M0 15.7606L0 47.2319L27.2652 31.5046L27.2652 0L0 15.7606L0 15.7606Z" transform="translate(60.51538 17.822113)" id="Shape" fill="#4040B2" fill-rule="evenodd" stroke="none" />
      <path d="M3.17099e-06 0L27.2652 15.7606L27.2652 47.2319L0 31.4879L0 0L3.17099e-06 0Z" transform="translate(30.257683 17.822113)" id="Shape" fill="#5C4EE5" fill-rule="evenodd" stroke="none" />
      <path d="M0 0L0 31.4879L27.2652 47.2319L27.2652 15.744L0 0L0 0ZM30.2577 84.0067L57.5229 99.7506L57.5229 68.2627L30.2577 52.5187L30.2577 84.0067L30.2577 84.0067Z" transform="translate(0 0.2493763)" id="Shape" fill="#5C4EE5" fill-rule="evenodd" stroke="none" />
    </g>
  </g>
</svg>