<?xml version="1.0" encoding="utf-8"?>
<svg width="378px" height="100px" viewbox="0 0 378 100" version="1.1" xmlns:xlink="http://www.w3.org/1999/xlink" xmlns="http://www.w3.org/2000/svg">
  <defs>
    <linearGradient x1="0.31302953" y1="0.075516224" x2="0.77216613" y2="0.8496424" id="gradient_1">
      <stop offset="0" stop-color="#1784D8" />
      <stop offset="1" stop-color="#0864C5" />
    </linearGradient>
    <linearGradient x1="0.12399995" y1="0.11881733" x2="1.0735712" y2="0.8976375" id="gradient_2">
      <stop offset="0" stop-color="#31ABEC" />
      <stop offset="1" stop-color="#1582D5" />
    </linearGradient>
    <linearGradient x1="0.20936134" y1="0.23351878" x2="1.3859181" y2="1.3107027" id="gradient_3">
      <stop offset="0" stop-color="#31ABEC" />
      <stop offset="1" stop-color="#1582D5" />
    </linearGradient>
    <linearGradient x1="0.18637764" y1="0.27372804" x2="1.6209093" y2="1.4304628" id="gradient_4">
      <stop offset="0" stop-color="#54DAFF" />
      <stop offset="1" stop-color="#25A2E5" />
    </linearGradient>
    <path d="M0 0L374.219 0L374.219 78.125L0 78.125L0 0Z" id="path_1" />
    <path d="M0 0L100 0L100 100L0 100L0 0Z" id="path_2" />
    <clipPath id="mask_1">
      <use xlink:href="#path_1" />
    </clipPath>
    <clipPath id="mask_2">
      <use xlink:href="#path_2" />
    </clipPath>
  </defs>
  <g id="Group">
    <g id="Windows_10_Logo" transform="translate(3.4090843 11.422811)">
      <path d="M0 0L374.219 0L374.219 78.125L0 78.125L0 0Z" id="Background" fill="none" fill-rule="evenodd" stroke="none" />
      <g clip-path="url(#mask_1)">
        <path d="M0 2.75223L6.44532 2.78774L16.4566 36.6124C17.1716 38.9739 17.696 41.3886 18.0202 43.8389C21.5098 29.9895 26.2771 16.4951 30.3197 2.82325L35.8974 2.84101L44.5166 32.1379C45.594 36.0264 46.9956 39.8616 47.4246 43.8567C50.571 30.0072 55.0808 16.5129 58.6753 2.84101L65.0253 2.81437L50.9142 49.867L44.0494 49.867L33.8475 16.0424C33.2754 14.2224 33.0371 12.3403 32.8559 10.4493C32.5889 12.074 32.3411 13.7164 31.9025 15.3055L21.6052 49.7516C19.3169 49.867 17.0286 49.8759 14.7404 49.8581L0.0572265 2.8055M68.6484 3.10735C68.9001 1.24716 70.6615 -0.110338 72.6712 0.00707298C74.6808 0.124484 76.2461 1.67635 76.2461 3.55124C76.2461 5.42613 74.6808 6.978 72.6712 7.09541C70.6615 7.21282 68.9001 5.85532 68.6484 3.99513M69.5065 16.069L75.2273 16.069L75.2273 49.8048L69.5065 49.8048M90.635 21.5023C93.9054 16.0868 101.533 13.5832 107.683 16.0868C112.574 17.8623 114.395 23.1358 114.548 27.628C114.815 35.0144 114.595 42.4096 114.662 49.796C112.755 49.796 110.848 49.796 108.941 49.7871C108.846 42.6848 109.132 35.5826 108.808 28.4803C108.655 24.9646 107.053 20.7388 102.944 19.8421C96.9374 18.1553 90.9592 23.1891 90.7685 28.72C90.5969 35.7335 90.759 42.7736 90.7018 49.796L84.9811 49.796L84.9811 16.069L90.7018 16.069L90.6255 21.5023M148.738 0.0888759L154.459 0.0888759L154.459 49.8048L148.757 49.8048L148.595 44.3893C144.467 51.2963 133.435 52.8233 127.143 47.7008C122.633 44.0875 121.26 38.2015 121.498 32.8748C121.546 27.477 123.453 21.7775 128.077 18.2263C134.084 13.6276 144.667 13.8939 148.862 20.65L148.824 0.0533671M136.525 19.6734C131.948 20.3481 128.849 24.2366 127.991 28.2583C126.866 33.1056 127.066 38.7341 130.346 42.8179C133.893 47.2036 141.692 47.3013 145.506 43.1553C148.08 40.6518 148.824 37.0651 148.843 33.7448C148.872 30.1936 149.196 26.1986 146.669 23.2689C144.438 20.3126 140.281 18.9809 136.563 19.7178M176.388 15.2789C181.489 14.8616 187.162 15.6074 190.976 19.0431C195.305 22.7718 196.601 28.5424 196.354 33.7803C196.287 38.53 194.399 43.3684 190.661 46.6532C182.862 53.2583 168.351 51.8023 163.393 42.7292C159.503 35.1209 160.285 24.6184 167.397 18.8478C169.943 16.8414 173.166 15.9181 176.36 15.2611M175.33 20.0907C166.94 22.4877 165.509 32.6972 168.131 39.4444C170.229 45.4103 178.333 48.0559 184.245 45.2682C188.201 43.5814 190.003 39.4089 190.385 35.5914C190.814 31.1525 190.433 26.0921 187.048 22.6297C184.187 19.629 179.344 18.9898 175.32 20.0818M199.271 16.069L205.24 16.069L212.295 40.2168C212.772 41.726 212.963 43.2885 213.134 44.851C215.833 35.1741 219.236 25.6748 222.307 16.0868L227.522 16.1134C230.144 25.7015 233.405 35.112 235.579 44.8776C237.819 35.2896 241.013 25.7903 243.492 16.2909C245.399 16.2022 247.325 16.1755 249.251 16.1578L238.477 49.8936L232.547 49.8936C229.972 40.7494 226.635 31.7828 224.538 22.5498C222.059 31.7828 218.598 40.7494 215.766 49.8936L210.045 49.8936L199.271 16.1578M263.152 15.1812C266.728 14.9504 270.37 15.27 273.736 16.4951C274.67 18.1464 273.945 20.3126 274.165 22.177C270.16 19.8421 264.63 18.3595 260.244 20.7299C257.26 22.2391 257.117 26.7046 260.025 28.3648C264.192 30.8772 269.483 31.5342 273.183 34.7568C277.263 38.4145 276.272 45.4103 271.495 48.1624C265.679 51.607 258.051 51.2696 251.949 48.6418L251.902 42.6759C256.23 45.7476 262.294 47.4522 267.538 45.2682C270.561 43.8478 270.713 39.5331 268.053 37.722C263.887 34.8634 258.137 34.4106 254.514 30.8417C250.862 27.4149 251.52 21.0761 255.591 18.2352C257.689 16.433 260.549 15.8914 263.219 15.1901" transform="translate(97.613594 12.340105)" id="Shape" fill="#0078D6" fill-rule="evenodd" stroke="none" />
      </g>
    </g>
    <g id="Windows-10-icon">
      <path d="M0 0L100 0L100 100L0 100L0 0Z" id="Background" fill="none" fill-rule="evenodd" stroke="none" />
      <g clip-path="url(#mask_2)">
        <path d="M31.2271 0.0541647L0 0L0.00208318 22.9208C0.00208318 25.0021 1.5375 26.7625 3.59791 27.0479L31.2271 30.8708L31.2271 0.0541647L31.2271 0.0541647Z" transform="translate(10.439587 52.083344)" id="Shape" fill="url(#gradient_1)" fill-rule="evenodd" stroke="none" />
        <path d="M0 0L0 31.3854L39.0041 36.7813C41.5083 37.1271 43.7416 35.1833 43.7416 32.6542L43.75 0.0749986L0 0L0 0Z" transform="translate(45.833344 52.145855)" id="Shape" fill="url(#gradient_2)" fill-rule="evenodd" stroke="none" />
        <path d="M31.2458 0L3.58334 3.91667C1.52709 4.20833 -0.0020802 5.96875 1.98682e-06 8.04583L0.0250022 30.7167L31.2458 30.7167L31.2458 0L31.2458 0Z" transform="translate(10.420836 17.199999)" id="Shape" fill="url(#gradient_3)" fill-rule="evenodd" stroke="none" />
        <path d="M0 5.56297L0 36.8692L43.7396 36.8692L43.7396 4.16714C43.7396 1.63381 41.4979 -0.31411 38.9896 0.0421405L0 5.56297L0 5.56297Z" transform="translate(45.833344 11.047445)" id="Shape" fill="url(#gradient_4)" fill-rule="evenodd" stroke="none" />
      </g>
    </g>
  </g>
</svg>